<svg xmlns="http://www.w3.org/2000/svg" width="688" height="293" viewBox="0 0 688 293">
  <g id="border_half" fill="none" stroke-dasharray="480 1000">
    <path d="M14,0H674a14,14,0,0,1,14,14V279a14,14,0,0,1-14,14H14A14,14,0,0,1,0,279V14A14,14,0,0,1,14,0Z" stroke="none"/>
    <path d="M 14 0 L 494 0 L 494 1 L 14 1 L 14 0 C 14 0 14 0 14 0 Z M 14 0 L 14 1 C 10.52752685546875 1 7.26300048828125 2.352264404296875 4.8076171875 4.807647705078125 C 2.352294921875 7.26300048828125 1 10.52755737304688 1 14 L 1 279 C 1 282.4724426269531 2.352294921875 285.7369995117188 4.8076171875 288.1923522949219 C 7.26300048828125 290.6477355957031 10.52752685546875 292 14 292 L 162.9874267578125 292 L 162.9874267578125 293 C 162.9874267578125 293 14 293 14 293 C 13.40350341796875 293 12.815673828125 292.9627075195312 12.23883056640625 292.8902893066406 C 12.1575927734375 292.8800964355469 12.07611083984375 292.869140625 11.995361328125 292.8575439453125 C 8.931640625 292.418212890625 6.1878662109375 290.9868774414062 4.1004638671875 288.8994445800781 C 4.09149169921875 288.8905029296875 4.0830078125 288.8819580078125 4.07403564453125 288.8729553222656 C 4.0726318359375 288.87158203125 4.07147216796875 288.870361328125 4.070068359375 288.8689575195312 C 1.80120849609375 286.5860900878906 0.3140869140625 283.5251159667969 0.04425048828125 280.12158203125 C 0.01495361328125 279.7515869140625 0 279.3775329589844 0 279 L 0 14 C 0 6.26800537109375 6.26800537109375 0 14 0 Z" stroke="none" fill="#fff"/>
  </g>
</svg>
