<svg id="Group_13124" data-name="Group 13124" xmlns="http://www.w3.org/2000/svg" width="16.289" height="17.6" viewBox="0 0 16.289 17.6">
  <path id="Path_25669" data-name="Path 25669" d="M.56,2.223H2.9V.9A.688.688,0,0,1,4.276.9V2.223H7.483V.9A.662.662,0,0,1,8.806.9V2.223h3.207V.9a.688.688,0,0,1,1.374,0V2.223H15.78a.558.558,0,0,1,.509.56V17.29a.558.558,0,0,1-.509.56H.56A.565.565,0,0,1,0,17.29V2.782A.565.565,0,0,1,.56,2.223Zm.305,3.92H15.424V16.985H.865Z" transform="translate(0 -0.25)" fill="#303030" fill-rule="evenodd"/>
  <g id="Group_13121" data-name="Group 13121" transform="translate(3.003 7.012)">
    <path id="Path_25671" data-name="Path 25671" d="M117,138h1.425v1.374H117Z" transform="translate(-114.048 -138)" fill="#303030" fill-rule="evenodd"/>
    <path id="Path_25672" data-name="Path 25672" d="M176,138h1.374v1.374H176Z" transform="translate(-170.044 -138)" fill="#303030" fill-rule="evenodd"/>
    <path id="Path_25673" data-name="Path 25673" d="M234,138h1.374v1.374H234Z" transform="translate(-225.091 -138)" fill="#303030" fill-rule="evenodd"/>
    <path id="Path_25674" data-name="Path 25674" d="M59,185h1.374v1.374H59Z" transform="translate(-59 -182.608)" fill="#303030" fill-rule="evenodd"/>
    <path id="Path_25675" data-name="Path 25675" d="M59,232h1.374v1.374H59Z" transform="translate(-59 -227.215)" fill="#303030" fill-rule="evenodd"/>
    <path id="Path_25676" data-name="Path 25676" d="M59,279h1.374v1.374H59Z" transform="translate(-59 -271.823)" fill="#303030" fill-rule="evenodd"/>
    <path id="Path_25677" data-name="Path 25677" d="M117,185h1.425v1.374H117Z" transform="translate(-114.048 -182.608)" fill="#303030" fill-rule="evenodd"/>
    <path id="Path_25678" data-name="Path 25678" d="M117,232h1.425v1.374H117Z" transform="translate(-114.048 -227.215)" fill="#303030" fill-rule="evenodd"/>
    <path id="Path_25679" data-name="Path 25679" d="M117,279h1.425v1.374H117Z" transform="translate(-114.048 -271.823)" fill="#303030" fill-rule="evenodd"/>
    <path id="Path_25680" data-name="Path 25680" d="M176,185h1.374v1.374H176Z" transform="translate(-170.044 -182.608)" fill="#303030" fill-rule="evenodd"/>
    <path id="Path_25681" data-name="Path 25681" d="M176,232h1.374v1.374H176Z" transform="translate(-170.044 -227.215)" fill="#303030" fill-rule="evenodd"/>
    <path id="Path_25682" data-name="Path 25682" d="M176,279h1.374v1.374H176Z" transform="translate(-170.044 -271.823)" fill="#303030" fill-rule="evenodd"/>
    <path id="Path_25683" data-name="Path 25683" d="M234,185h1.374v1.374H234Z" transform="translate(-225.091 -182.608)" fill="#303030" fill-rule="evenodd"/>
    <path id="Path_25684" data-name="Path 25684" d="M234,232h1.374v1.374H234Z" transform="translate(-225.091 -227.215)" fill="#303030" fill-rule="evenodd"/>
    <path id="Path_25685" data-name="Path 25685" d="M234,279h1.374v1.374H234Z" transform="translate(-225.091 -271.823)" fill="#303030" fill-rule="evenodd"/>
    <path id="Path_25670" data-name="Path 25670" d="M59,138h1.374v1.374H59Z" transform="translate(-59 -138)" fill="#303030" fill-rule="evenodd"/>
  </g>
</svg>
