<svg id="Group_37492" data-name="Group 37492" xmlns="http://www.w3.org/2000/svg" width="13.236" height="14.301" viewBox="0 0 13.236 14.301">
  <path id="Path_25669" data-name="Path 25669" d="M.455,1.853h1.9V.777a.559.559,0,0,1,1.117,0V1.853H6.08V.777a.538.538,0,0,1,1.075,0V1.853H9.761V.777a.559.559,0,0,1,1.117,0V1.853h1.944a.453.453,0,0,1,.414.455V14.1a.453.453,0,0,1-.414.455H.455A.459.459,0,0,1,0,14.1V2.308A.459.459,0,0,1,.455,1.853ZM.7,5.038H12.533v8.81H.7Z" transform="translate(0 -0.25)" fill="#009ff4" fill-rule="evenodd"/>
  <g id="Group_13121" data-name="Group 13121" transform="translate(2.44 5.698)">
    <path id="Path_25671" data-name="Path 25671" d="M117,138h1.158v1.117H117Z" transform="translate(-114.601 -138)" fill="#009ff4" fill-rule="evenodd"/>
    <path id="Path_25672" data-name="Path 25672" d="M176,138h1.117v1.117H176Z" transform="translate(-171.16 -138)" fill="#009ff4" fill-rule="evenodd"/>
    <path id="Path_25673" data-name="Path 25673" d="M234,138h1.117v1.117H234Z" transform="translate(-226.761 -138)" fill="#009ff4" fill-rule="evenodd"/>
    <path id="Path_25674" data-name="Path 25674" d="M59,185h1.117v1.117H59Z" transform="translate(-59 -183.056)" fill="#009ff4" fill-rule="evenodd"/>
    <path id="Path_25675" data-name="Path 25675" d="M59,232h1.117v1.117H59Z" transform="translate(-59 -228.112)" fill="#009ff4" fill-rule="evenodd"/>
    <path id="Path_25676" data-name="Path 25676" d="M59,279h1.117v1.117H59Z" transform="translate(-59 -273.168)" fill="#009ff4" fill-rule="evenodd"/>
    <path id="Path_25677" data-name="Path 25677" d="M117,185h1.158v1.117H117Z" transform="translate(-114.601 -183.056)" fill="#009ff4" fill-rule="evenodd"/>
    <path id="Path_25678" data-name="Path 25678" d="M117,232h1.158v1.117H117Z" transform="translate(-114.601 -228.112)" fill="#009ff4" fill-rule="evenodd"/>
    <path id="Path_25679" data-name="Path 25679" d="M117,279h1.158v1.117H117Z" transform="translate(-114.601 -273.168)" fill="#009ff4" fill-rule="evenodd"/>
    <path id="Path_25680" data-name="Path 25680" d="M176,185h1.117v1.117H176Z" transform="translate(-171.16 -183.056)" fill="#009ff4" fill-rule="evenodd"/>
    <path id="Path_25681" data-name="Path 25681" d="M176,232h1.117v1.117H176Z" transform="translate(-171.16 -228.112)" fill="#009ff4" fill-rule="evenodd"/>
    <path id="Path_25682" data-name="Path 25682" d="M176,279h1.117v1.117H176Z" transform="translate(-171.16 -273.168)" fill="#009ff4" fill-rule="evenodd"/>
    <path id="Path_25683" data-name="Path 25683" d="M234,185h1.117v1.117H234Z" transform="translate(-226.761 -183.056)" fill="#009ff4" fill-rule="evenodd"/>
    <path id="Path_25684" data-name="Path 25684" d="M234,232h1.117v1.117H234Z" transform="translate(-226.761 -228.112)" fill="#009ff4" fill-rule="evenodd"/>
    <path id="Path_25685" data-name="Path 25685" d="M234,279h1.117v1.117H234Z" transform="translate(-226.761 -273.168)" fill="#009ff4" fill-rule="evenodd"/>
    <path id="Path_25670" data-name="Path 25670" d="M59,138h1.117v1.117H59Z" transform="translate(-59 -138)" fill="#009ff4" fill-rule="evenodd"/>
  </g>
</svg>
