<svg xmlns="http://www.w3.org/2000/svg" width="37" height="37" viewBox="0 0 37 37">
  <g id="Group_41419" data-name="Group 41419" transform="translate(-130 -37)">
    <rect id="Rectangle_4090" data-name="Rectangle 4090" width="37" height="37" rx="18.5" transform="translate(130 37)" fill="#fff"/>
    <g id="cross-sign_2_" data-name="cross-sign (2)" transform="translate(141.058 48.057)">
      <path id="Path_35928" data-name="Path 35928" d="M14.676,1.322,13.648.306a.738.738,0,0,0-1.028,0L7.491,5.434,2.265.209a.737.737,0,0,0-1.028,0L.209,1.237a.737.737,0,0,0,0,1.028L5.423,7.479.306,12.62a.738.738,0,0,0,0,1.028l1.028,1.028a.738.738,0,0,0,1.028,0L7.491,9.547l5.129,5.129a.738.738,0,0,0,1.028,0l1.028-1.028a.738.738,0,0,0,0-1.028L9.535,7.491l5.129-5.129A.742.742,0,0,0,14.676,1.322Z" transform="translate(0 0)" fill="#f66962"/>
    </g>
  </g>
</svg>
