<svg id="Group_36590" data-name="Group 36590" xmlns="http://www.w3.org/2000/svg" width="95" height="66.013" viewBox="0 0 95 66.013">
  <path id="Path" d="M51.4,24.3a34.335,34.335,0,0,1-9.114-1.212c-6.981-1.952-12.3-6.036-15.4-11.825-2.963-5.5-8.1-8.594-15.332-9.2A32.849,32.849,0,0,0,1.32,2.849a1.04,1.04,0,0,1-1.28-.7A.989.989,0,0,1,.759.919c.2-.045,20.091-5.206,27.948,9.424A22.577,22.577,0,0,0,42.871,21.181c7.632,2.132,16.656,1.212,23.009-2.334a1.069,1.069,0,0,1,1.414.359.987.987,0,0,1-.382,1.369A32.413,32.413,0,0,1,51.4,24.3Z" transform="translate(7.615 16.381)" fill="#fff"/>
  <path id="Path-2" data-name="Path" d="M11.74,22.6,0,11.286,11.74,0l11.74,11.286Z" transform="translate(71.519)" fill="#fff"/>
  <path id="Path-3" data-name="Path" d="M7.61,14.63a7.467,7.467,0,0,0,7.61-7.315A7.467,7.467,0,0,0,7.61,0,7.467,7.467,0,0,0,0,7.315,7.467,7.467,0,0,0,7.61,14.63Z" transform="translate(0 37.674)" fill="#fff"/>
  <path id="Path-4" data-name="Path" d="M5.387,10.366a5.288,5.288,0,0,0,5.387-5.183A5.288,5.288,0,0,0,5.387,0,5.288,5.288,0,0,0,0,5.183,5.288,5.288,0,0,0,5.387,10.366Z" transform="translate(35.939 6.104)" fill="#fff" opacity="0.27"/>
  <path id="Path-5" data-name="Path" d="M18,0,0,7.275,15.383,19Z" transform="translate(27 47.013)" fill="#22211b"/>
</svg>
