<svg id="Group_41419" data-name="Group 41419" xmlns="http://www.w3.org/2000/svg" width="110.984" height="93.371" viewBox="0 0 110.984 93.371">
  <g id="Group_587" data-name="Group 587">
    <path id="Path" d="M27.316,5.96c15.086,0,27.316-1.334,27.316-2.98S42.4,0,27.316,0,0,1.334,0,2.98,12.23,5.96,27.316,5.96Z" transform="translate(0 87.411)" fill="#1c1715"/>
    <path id="Path-2" data-name="Path" d="M14.829,1.314c-.323-.215.036,1.849.036,1.849s-5.191,10.772-5.6,11.76c-.4.987-8.226,7.128-8.442,8.223s-2.8,6.374,2.5,5.943c5.281-.449,9.376-11.76,10.669-12.729,1.311-.988,2.568-12.3,2.73-12.98C17.129,1.709,16.5-.715,15.853.2,15.207,1.1,15.53,1.78,14.829,1.314Z" transform="translate(22.889)" fill="#fff"/>
    <path id="Path-3" data-name="Path" d="M4.1,2.461S1.114-.07.683,0s-.9,2.783-.575,3.214,1.4,1.311,1.868,1.149A12.317,12.317,0,0,0,4.1,2.461Z" transform="translate(36.3 5.208)" fill="#22211b"/>
    <path id="Path-4" data-name="Path" d="M14.562,0C17,1.023,19.915,7.325,19.915,7.325s-4.257,5.835-5.6,8.9c-1.419,3.2-6.628,12.137-12.663,8.1-6.3-4.237,7.49-12.783,7.849-13.465Z" transform="translate(21.846 4.868)" fill="#f5c84b"/>
    <path id="Path-5" data-name="Path" d="M3.819,0c-.647,1.167,1.06,5.117,1.06,5.117L.73,4.865S1.053,1.544.047.359c-.557-.646,4.005.09,4.005.09" transform="translate(22.243 19.25)" fill="#fff"/>
    <path id="Path-6" data-name="Path" d="M4.383,3.047,0,1.234S2.209-.148,2.55.013A22.122,22.122,0,0,1,4.616,2.688" transform="translate(23.691 18.769)" fill="#22211b"/>
    <path id="Path-7" data-name="Path" d="M6.178.97,0,19.444s6.017.593,6.861.485c.862-.09-1.455-2.55-1.832-3.088S12.339,0,12.339,0Z" transform="translate(5.083 70.542)" fill="#fff"/>
    <path id="Path-8" data-name="Path" d="M0,5.3C7.418,4.47,8.514,1.957,8.514,1.957L2.856,0Z" transform="translate(4.203 78.855)" fill="#1c1715"/>
    <path id="Path-9" data-name="Path" d="M0,0V22.926s6.035.072,6.879-.089-2.748-2.6-3.179-3.106S5.6,2.083,5.6,2.083Z" transform="translate(29.385 67.347)" fill="#fff"/>
    <path id="Path-10" data-name="Path" d="M0,5.44A21.008,21.008,0,0,0,7.077,1.67L1.832,0Z" transform="translate(27.122 77.168)" fill="#1c1715"/>
    <path id="Path-11" data-name="Path" d="M7.041,42.047a18.824,18.824,0,0,0,15.914-4.758S19.506,22.28,18.231,19.067,11.6,0,11.6,0L0,5.781s5.334,11.167,9.358,18.2C10.112,28.869,7.041,42.047,7.041,42.047Z" transform="translate(17.009 38.477)" fill="#00378d"/>
    <path id="Path-12" data-name="Path" d="M3.538,1.544,8.532.144,9.771,0s1.509.646-.162,5.745c-1.67,5.081,1.329,9.264-1.132,11.6S0,13.07,0,13.07Z" transform="translate(17.979 46.287)" fill="#1c1715"/>
    <path id="Path-13" data-name="Path" d="M6.017,7.72c3.323,0,6.017-1.728,6.017-3.86S9.34,0,6.017,0,0,1.728,0,3.86,2.694,7.72,6.017,7.72Z" transform="translate(13.489 12.624)" fill="#1c1715"/>
    <path id="Path-14" data-name="Path" d="M0,38.905c2.677,9.12,16.471,6.122,18.446,2.747S24.23,22.891,24.23,22.891l5.5-21.131L17.422,0S16.327,1.67,13.04,20.557C11.729,28.025,0,38.905,0,38.905Z" transform="translate(0.018 36.862)" fill="#00378d"/>
    <path id="Path-15" data-name="Path" d="M0,18.42C12.734,13.932,9.321,9.444,16.542,8.115s6.843-5.637,6.843-5.637L8.514.718h0C5.514,2.334,0,18.42,0,18.42Z" transform="translate(6.341 36.144)" fill="#1c1715"/>
    <path id="Path-16" data-name="Path" d="M0,15.343c7.849,10.108,18.536.934,18.536.934s-2.3-7.343-.144-9.426c2.155-2.065.665-4.847-6.664-6.8,0,0-1.006-.97-3.3,5.889A16.407,16.407,0,0,1,0,15.343Z" transform="translate(11.855 23.134)" fill="#ffc754"/>
    <path id="Path-17" data-name="Path" d="M9.609,8.9S-.018,6.84,0,2.549,5.137.682,5.137.682,8.8,6.768,9.2,7.828Z" transform="translate(23.691 24.869)" fill="#1c1715"/>
    <path id="Path-18" data-name="Path" d="M2.891,0c1.365,1.275,2.5,3.375,1.652,4.417S1.274,6.194.538,5.027s-.5-4-.5-4Z" transform="translate(21.77 15.317)" fill="#fff"/>
    <path id="Path-19" data-name="Path" d="M4.9,3.946C5.411,2.183,4.765.449,3.459.073S.682.82.174,2.582s.137,3.5,1.443,3.873S4.394,5.708,4.9,3.946Z" transform="translate(19.684 13.539)" fill="#1c1715"/>
    <path id="Path-20" data-name="Path" d="M1.006,1.508c.556,0,1.006-.338,1.006-.754S1.561,0,1.006,0,0,.338,0,.754.45,1.508,1.006,1.508Z" transform="translate(21.68 19.249)" fill="#fff"/>
    <path id="Path-21" data-name="Path" d="M21.889.892c-.234-.305-.521,1.777-.521,1.777S13.2,11.395,12.513,12.22,2.527,16.565,2.006,17.535c-.521.987-4.58,5.26.593,6.409,5.173,1.167,12.86-8.528,14.387-9.067,1.545-.539,5.766-10.844,6.107-11.472.844-1.58,1.024-3.968.126-3.286S22.41,1.538,21.889.892Z" transform="translate(22.978 5.485)" fill="#fff"/>
    <path id="Path-22" data-name="Path" d="M4.436,4.381.2,0,0,3.842s.413.952.539.934S4.436,4.381,4.436,4.381Z" transform="translate(42.353 9.393)" fill="#22211b"/>
    <path id="Path-23" data-name="Path" d="M20.492,0c2.03,1.706,2.91,8.6,2.91,8.6s-5.8,4.291-8.011,6.822C13.092,18.043,5.44,25.027.9,19.372c-4.76-5.943,10.974-9.964,11.513-10.5Z" transform="translate(22.059 9.375)" fill="#ffc754"/>
  </g>
  <g id="Group_36586" data-name="Group 36586" transform="translate(67 8.269)">
    <path id="Path-24" data-name="Path" d="M0,3.519l6.478,8.965a41.618,41.618,0,0,0,.152,4.188l3.925-4.777L3.887,0Z" transform="translate(33.427 64.931)" fill="#ff7b8c"/>
    <path id="Path-25" data-name="Path" d="M3.22,7.141A13.48,13.48,0,0,0,7.917,0H0L1.825,8.774" transform="translate(32.548 70.195)" fill="#1c1715"/>
    <path id="Path-26" data-name="Path" d="M1.706,0l.408,11.022A29.36,29.36,0,0,0,0,13.921l6.158.118V.887Z" transform="translate(18.473 67.563)" fill="#ff7b8c"/>
    <path id="Path-27" data-name="Path" d="M0,6.142C4.186,5.2,9.676,1.719,9.676,1.719L2.8,0Z" transform="translate(14.954 70.195)" fill="#22211b"/>
    <path id="Path-28" data-name="Path" d="M14.222,42.995c2.758-.656,8.766-8.366,8.648-10.313,0,0-7.131-8.724-8.273-12.618,0,0,.335-18.918-1.458-19.991S0,10.207,0,10.207l2.777.735C2.8,10.942,10.361,38.722,14.222,42.995Z" transform="translate(20.232 33.343)" fill="#22211b"/>
    <path id="Path-29" data-name="Path" d="M1.988,20.71C11.3,18.277,9.38,8.723,11.325,5.875A6.245,6.245,0,0,0,11.776,0S-.142,11.551,0,12.442,1.23,21.936,1.23,21.936" transform="translate(21.112 38.608)" fill="#19150b"/>
    <path id="Path-30" data-name="Path" d="M5.6,0C2.036.678,1.977.957,2.036,1.416s0,2.114,0,2.114L0,4.726,2.54,7.9l2.5-.459V5.424l2-1.077Z" transform="translate(23.751 8.774)" fill="#ff7b8c"/>
    <path id="Path-31" data-name="Path" d="M1.932,0,2.6,1.711l.035.526-.949-.57L0,1.514,1,2.632Z" transform="translate(22.871 10.529)" fill="#22211b"/>
    <path id="Path-32" data-name="Path" d="M2.2,3.51A2.015,2.015,0,0,0,4.4,1.755,2.015,2.015,0,0,0,2.2,0,2.015,2.015,0,0,0,0,1.755,2.015,2.015,0,0,0,2.2,3.51Z" transform="translate(28.149 6.142)" fill="#22211b"/>
    <path id="Path-33" data-name="Path" d="M2.2,3.51A2.015,2.015,0,0,0,4.4,1.755,2.015,2.015,0,0,0,2.2,0,2.015,2.015,0,0,0,0,1.755,2.015,2.015,0,0,0,2.2,3.51Z" transform="translate(28.149 10.529)" fill="#22211b"/>
    <path id="Path-34" data-name="Path" d="M2.2,3.51A2.015,2.015,0,0,0,4.4,1.755,2.015,2.015,0,0,0,2.2,0,2.015,2.015,0,0,0,0,1.755,2.015,2.015,0,0,0,2.2,3.51Z" transform="translate(29.029 7.897)" fill="#22211b"/>
    <path id="Path-35" data-name="Path" d="M1.759,3.51A1.755,1.755,0,1,0,0,1.755,1.757,1.757,0,0,0,1.759,3.51Z" transform="translate(30.788 7.019)" fill="#22211b"/>
    <path id="Path-36" data-name="Path" d="M1.759,3.51A1.755,1.755,0,1,0,0,1.755,1.757,1.757,0,0,0,1.759,3.51Z" transform="translate(30.788 8.774)" fill="#22211b"/>
    <path id="Path-37" data-name="Path" d="M4.812,0C2.606.618-.961,4.826.241,6.162c1.222,1.356,7.625,0,9.477,2.114s7.724,9.233,14.344,9.273c6.64.06,3.192-6.74,3.192-6.74Z" transform="translate(0 10.529)" fill="#eddfca"/>
    <path id="Path-38" data-name="Path" d="M1.175,41.24a16.114,16.114,0,0,0,11.784-5.2S8.5,24.261,9.914,21.317C11.348,18.372,18.83,5.2,17.416,0H3.846S.193,16.41.016,18.314C-.161,20.237,1.175,41.24,1.175,41.24Z" transform="translate(16.714 32.466)" fill="#22211b"/>
    <path id="Path-39" data-name="Path" d="M3.121,14.917c9.761-.658,5.8-10.76,13.561-9.56,7.781,1.2,9.341-.736,9.7-2.129S12.582-.3,11.882.034,7.5,0,6.862.576C6.222,1.137-.1,7.988,0,9.42S3.121,14.917,3.121,14.917Z" transform="translate(7.917 33.343)" fill="#19150b"/>
    <path id="Path-40" data-name="Path" d="M5.337,0S-4.039,20.97,2.063,23.4c7.943,3.192,13.1,2.859,14.394-2.467C17.774,15.605,14.016,1.234,5.337,0Z" transform="translate(19.353 12.284)" fill="#fff"/>
    <path id="Path-41" data-name="Path" d="M14.126,0s3.86,1.807.98,8.478C9.286,22,26.331,19.042,23.412,21.444,20.493,23.867,0,23.688,0,23.688L2.684,5.7Z" transform="translate(12.315 15.794)" fill="#f9f0e1"/>
    <path id="Path-42" data-name="Path" d="M4.38,3.332A8.715,8.715,0,0,1,2.292,1.367C2.2,1.285,2.029-.168,1.709.016S-.322,1.224.054,2.37C.167,2.7,4.4,7.9,4.4,7.9V3.128" transform="translate(5.278 0)" fill="#ff7b8c"/>
    <path id="Path-43" data-name="Path" d="M.321,6.918C-1.648,3.908,6.091,0,6.091,0S16.765,6.719,18.36,7.636c1.575.917,6.164,2.552,6.873,6.021s.414,10.167-5.2,7.775c-2.6-1.116-5.16-8.612-6.893-8.832C13.141,12.58,3.1,11.144.321,6.918Z" transform="translate(3.519 2.632)" fill="#fff"/>
    <path id="Path-44" data-name="Path" d="M.349,1.721A10.72,10.72,0,0,0,3.4.273c.073-.067.2-.178.055-.245a.5.5,0,0,0-.436.067A8.9,8.9,0,0,1,.276,1.41c-.091.022-.309.111-.272.245C.022,1.811.276,1.744.349,1.721Z" transform="translate(19.353 70.195)" fill="#0a0801"/>
    <path id="Path-45" data-name="Path" d="M.065.852C1.044.973,2.308.663,2.635.058,2.676-.023,2.41,0,2.349,0a1.418,1.418,0,0,0-.265.054.4.4,0,0,0-.143.067,1.242,1.242,0,0,1-.632.484s-.061.027-.02,0c-.02,0-.041.013-.061.013s-.041.013-.061.013h0c-.02,0-.041.013-.061.013a.05.05,0,0,0-.041.013h.02c-.02,0-.041.013-.061.013-.041,0-.061.027,0,0C1,.69.881.69.963.69h-.2a.22.22,0,0,1-.1-.013A1.183,1.183,0,0,0,.167.73C.086.744-.1.825.065.852Z" transform="translate(31.668 53.524)" fill="#0a0801"/>
  </g>
</svg>
