<svg xmlns="http://www.w3.org/2000/svg" width="115.665" height="86.875" viewBox="0 0 115.665 86.875">
  <g id="Group_41419" data-name="Group 41419" transform="translate(-190.687 -8.78)">
    <rect id="Rectangle_3567" data-name="Rectangle 3567" width="18" height="18" transform="matrix(0.799, -0.602, 0.602, 0.799, 281.144, 49.959)" fill="#8790fb"/>
    <g id="Group_36755" data-name="Group 36755" transform="translate(190.687 8.78)">
      <g id="window" transform="translate(14.018 17.57)">
        <rect id="Rectangle_3588" data-name="Rectangle 3588" width="57.612" height="57.39" fill="#999fea"/>
      </g>
      <g id="system" transform="translate(0)">
        <g id="Group_36739" data-name="Group 36739">
          <g id="Group_36735" data-name="Group 36735" transform="translate(0.105)">
            <path id="Path_26696" data-name="Path 26696" d="M22.036,0A22.036,22.036,0,1,1,0,22.036,22.036,22.036,0,0,1,22.036,0Z" transform="translate(6.19 5.442)" fill="none" stroke="#2e77e6" stroke-width="0.73" stroke-dasharray="1.1 1"/>
            <path id="Path_26623" data-name="Path 26623" d="M709.921,666.863a3.882,3.882,0,0,0-7.423-2.035,2.711,2.711,0,0,0-4.516,2.025h-.506a2.628,2.628,0,0,0-2.62,2.62h0a2.628,2.628,0,0,0,2.62,2.62h12.252a2.628,2.628,0,0,0,2.62-2.62h0A2.627,2.627,0,0,0,709.921,666.863Z" transform="translate(-676.117 -640.832)" fill="#fff"/>
            <g id="Group_36712" data-name="Group 36712" transform="translate(18.812 38.774)">
              <rect id="Rectangle_3594" data-name="Rectangle 3594" width="18.403" height="15.761" fill="#8790fb"/>
              <g id="Group_36711" data-name="Group 36711" transform="translate(3.019 1.249)">
                <g id="Group_36710" data-name="Group 36710">
                  <path id="Path_26624" data-name="Path 26624" d="M780.929,1273.206H769.835a.662.662,0,0,1-.66-.66h0a.662.662,0,0,1,.66-.66h11.094a.662.662,0,0,1,.66.66h0A.662.662,0,0,1,780.929,1273.206Z" transform="translate(-769.175 -1264.939)" fill="#fff"/>
                  <path id="Path_26625" data-name="Path 26625" d="M780.929,1324.32H769.835a.662.662,0,0,1-.66-.66h0a.662.662,0,0,1,.66-.66h11.094a.662.662,0,0,1,.66.66h0A.662.662,0,0,1,780.929,1324.32Z" transform="translate(-769.175 -1313.927)" fill="#fff"/>
                  <g id="Group_36703" data-name="Group 36703" transform="translate(2.267 9.56)">
                    <path id="Path_26626" data-name="Path 26626" d="M824.141,1334.921a.232.232,0,1,1-.232-.232A.232.232,0,0,1,824.141,1334.921Z" transform="translate(-823.676 -1334.689)" fill="#80b2ff"/>
                    <path id="Path_26627" data-name="Path 26627" d="M843.3,1334.921a.232.232,0,1,1-.232-.232A.232.232,0,0,1,843.3,1334.921Z" transform="translate(-842.035 -1334.689)" fill="#80b2ff"/>
                    <path id="Path_26628" data-name="Path 26628" d="M862.453,1334.921a.232.232,0,1,1-.232-.232A.232.232,0,0,1,862.453,1334.921Z" transform="translate(-860.395 -1334.689)" fill="#80b2ff"/>
                    <path id="Path_26629" data-name="Path 26629" d="M881.61,1334.921a.232.232,0,1,1-.232-.232A.232.232,0,0,1,881.61,1334.921Z" transform="translate(-878.755 -1334.689)" fill="#80b2ff"/>
                    <path id="Path_26630" data-name="Path 26630" d="M900.766,1334.921a.232.232,0,1,1-.232-.232A.232.232,0,0,1,900.766,1334.921Z" transform="translate(-897.114 -1334.689)" fill="#80b2ff"/>
                    <path id="Path_26631" data-name="Path 26631" d="M919.922,1334.921a.232.232,0,1,1-.232-.232A.232.232,0,0,1,919.922,1334.921Z" transform="translate(-915.473 -1334.689)" fill="#80b2ff"/>
                    <path id="Path_26632" data-name="Path 26632" d="M939.078,1334.921a.232.232,0,1,1-.232-.232A.232.232,0,0,1,939.078,1334.921Z" transform="translate(-933.833 -1334.689)" fill="#80b2ff"/>
                    <path id="Path_26633" data-name="Path 26633" d="M958.235,1334.921a.232.232,0,1,1-.232-.232A.232.232,0,0,1,958.235,1334.921Z" transform="translate(-952.193 -1334.689)" fill="#80b2ff"/>
                    <path id="Path_26634" data-name="Path 26634" d="M977.391,1334.921a.232.232,0,1,1-.232-.232A.232.232,0,0,1,977.391,1334.921Z" transform="translate(-970.552 -1334.689)" fill="#80b2ff"/>
                  </g>
                  <g id="Group_36706" data-name="Group 36706" transform="translate(3.661)">
                    <circle id="Ellipse_255" data-name="Ellipse 255" cx="2.55" cy="2.55" r="2.55" fill="#fff"/>
                    <g id="Group_36705" data-name="Group 36705" transform="translate(1.133 0.839)">
                      <g id="Group_36704" data-name="Group 36704" transform="translate(0.617)">
                        <path id="Path_26635" data-name="Path 26635" d="M900.051,1126.622a.806.806,0,0,0,.626-.306.786.786,0,0,0,.172-.5.8.8,0,1,0-1.6,0,.784.784,0,0,0,.172.5A.808.808,0,0,0,900.051,1126.622Z" transform="translate(-899.247 -1125.013)" fill="#005cea"/>
                      </g>
                      <path id="Path_26636" data-name="Path 26636" d="M887.249,1170.256c0,.508-2.835.508-2.835,0v-.592c.112-.809,2.6-.843,2.834,0Z" transform="translate(-884.414 -1167.214)" fill="#005cea"/>
                    </g>
                  </g>
                  <path id="Path_26637" data-name="Path 26637" d="M785.4,1329.143v-.035a.26.26,0,0,0-.519,0v.035h-.039v.468c0,.081.6.081.6,0v-.468Zm-.427-.035a.168.168,0,1,1,.336,0v.035h-.336Zm.211.271v.135a.043.043,0,0,1-.045.042.04.04,0,0,1-.042-.042v-.135a.078.078,0,0,1-.042-.069.083.083,0,1,1,.166,0A.083.083,0,0,1,785.18,1329.379Z" transform="translate(-784.185 -1319.531)" fill="#5896fa"/>
                  <g id="Group_36709" data-name="Group 36709" transform="translate(0.648 7.22)">
                    <g id="Group_36708" data-name="Group 36708">
                      <g id="Group_36707" data-name="Group 36707" transform="translate(0.133)">
                        <path id="Path_26638" data-name="Path 26638" d="M788.133,1278.781a.17.17,0,0,0,.132-.065.165.165,0,0,0,.036-.1.169.169,0,1,0-.338,0,.165.165,0,0,0,.036.1A.171.171,0,0,0,788.133,1278.781Z" transform="translate(-787.963 -1278.442)" fill="#5896fa"/>
                      </g>
                      <path id="Path_26639" data-name="Path 26639" d="M785.36,1287.989c0,.107-.6.107-.6,0l0-.125c.024-.171.549-.178.6,0Z" transform="translate(-784.759 -1287.347)" fill="#5896fa"/>
                    </g>
                    <path id="Path_26640" data-name="Path 26640" d="M824.989,1283.486h-2.431a.194.194,0,0,1-.194-.194h0a.194.194,0,0,1,.194-.194h2.431a.194.194,0,0,1,.194.194h0A.194.194,0,0,1,824.989,1283.486Z" transform="translate(-820.8 -1282.905)" fill="#80b2ff"/>
                    <path id="Path_26641" data-name="Path 26641" d="M902.083,1283.486h-2.431a.194.194,0,0,1-.194-.194h0a.194.194,0,0,1,.194-.194h2.431a.194.194,0,0,1,.194.194h0A.194.194,0,0,1,902.083,1283.486Z" transform="translate(-894.687 -1282.905)" fill="#80b2ff"/>
                  </g>
                </g>
                <rect id="Rectangle_3595" data-name="Rectangle 3595" width="3.334" height="1.131" rx="0.566" transform="translate(4.251 11.322)" fill="#1251b3"/>
              </g>
            </g>
            <g id="Group_36720" data-name="Group 36720" transform="translate(0 26.523)">
              <g id="Group_36718" data-name="Group 36718">
                <g id="Group_36714" data-name="Group 36714">
                  <g id="Group_36713" data-name="Group 36713">
                    <path id="Path_26642" data-name="Path 26642" d="M244.649,850.055h0c0-.018,0-.026,0-.028S244.649,850.055,244.649,850.055Z" transform="translate(-244.635 -847.125)" fill="#d9ffff"/>
                    <path id="Path_26643" data-name="Path 26643" d="M244.649,850.055h0c0-.018,0-.026,0-.028S244.649,850.055,244.649,850.055Z" transform="translate(-244.635 -847.125)" fill="#d9ffff"/>
                    <path id="Path_26644" data-name="Path 26644" d="M505.384,851.221s0-.025,0-.028,0,.01,0,.028Z" transform="translate(-494.525 -848.243)" fill="#d9ffff"/>
                    <path id="Path_26645" data-name="Path 26645" d="M505.384,851.221s0-.025,0-.028,0,.01,0,.028Z" transform="translate(-494.525 -848.243)" fill="#d9ffff"/>
                    <path id="Path_26646" data-name="Path 26646" d="M249.763,780.259a10.813,10.813,0,0,1-5.438,2.936c0,.144,0,.943-.021,4.623-.022,4.909,4.65,7.308,5.376,7.677.7-.323,5.434-2.719,5.456-7.628.016-3.68.02-4.479.021-4.623A10.754,10.754,0,0,1,249.763,780.259Z" transform="translate(-244.304 -780.259)" fill="#fff"/>
                  </g>
                </g>
                <g id="Group_36717" data-name="Group 36717" transform="translate(0.59 0.887)">
                  <g id="Group_36715" data-name="Group 36715">
                    <path id="Path_26647" data-name="Path 26647" d="M263.344,801.592a11.476,11.476,0,0,1-4.837,2.514l-.019,4.16a7.02,7.02,0,0,0,2.247,5.118,10.752,10.752,0,0,0,2.547,1.863l.072-.037V801.6Z" transform="translate(-258.488 -801.592)" fill="#8790fb"/>
                  </g>
                  <g id="Group_36716" data-name="Group 36716" transform="translate(4.867 0.01)">
                    <path id="Path_26648" data-name="Path 26648" d="M375.5,801.825v13.607a10.757,10.757,0,0,0,2.492-1.8,7.02,7.02,0,0,0,2.293-5.1l.019-4.16A11.48,11.48,0,0,1,375.5,801.825Z" transform="translate(-375.499 -801.825)" fill="#b6bbfd"/>
                  </g>
                </g>
              </g>
              <g id="Group_36719" data-name="Group 36719" transform="translate(3.266 4.639)">
                <path id="Path_26649" data-name="Path 26649" d="M322.831,945.973V949.2c0,.359,4.381.359,4.381,0v-3.222Zm2.412,1.711v.913a.222.222,0,1,1-.443,0v-.915a.539.539,0,1,1,.443,0Z" transform="translate(-322.831 -943.719)" fill="#fff"/>
                <path id="Path_26650" data-name="Path 26650" d="M335.672,893.812h-.443v-.217a1.363,1.363,0,1,0-2.727,0v.217h-.443v-.217a1.807,1.807,0,1,1,3.614,0Z" transform="translate(-331.674 -891.788)" fill="#fff"/>
              </g>
            </g>
            <g id="Group_36725" data-name="Group 36725" transform="translate(29.973)">
              <g id="Group_36721" data-name="Group 36721" transform="translate(0)">
                <rect id="Rectangle_3596" data-name="Rectangle 3596" width="7.914" height="9.878" fill="#296acc"/>
              </g>
              <g id="Group_36722" data-name="Group 36722" transform="translate(1.026 1.02)">
                <rect id="Rectangle_3597" data-name="Rectangle 3597" width="7.914" height="9.878" fill="#fff" stroke="#8790fb" stroke-miterlimit="10" stroke-width="1"/>
              </g>
              <g id="Group_36723" data-name="Group 36723" transform="translate(2.33 2.022)">
                <rect id="Rectangle_3598" data-name="Rectangle 3598" width="7.914" height="9.878" fill="#fff" stroke="#8790fb" stroke-miterlimit="10" stroke-width="1"/>
              </g>
              <g id="Group_36724" data-name="Group 36724" transform="translate(3.278 3.042)">
                <rect id="Rectangle_3599" data-name="Rectangle 3599" width="7.914" height="9.878" fill="#8790fb"/>
                <rect id="Rectangle_3600" data-name="Rectangle 3600" width="4.094" height="0.642" transform="translate(2.589 1.622)" fill="#b6bbfd"/>
                <rect id="Rectangle_3601" data-name="Rectangle 3601" width="5.304" height="0.642" transform="translate(1.378 3.131)" fill="#b6bbfd"/>
                <rect id="Rectangle_3602" data-name="Rectangle 3602" width="5.304" height="0.642" transform="translate(1.378 4.641)" fill="#b6bbfd"/>
                <rect id="Rectangle_3603" data-name="Rectangle 3603" width="5.304" height="0.642" transform="translate(1.378 6.15)" fill="#b6bbfd"/>
                <rect id="Rectangle_3604" data-name="Rectangle 3604" width="5.304" height="0.642" transform="translate(1.378 7.66)" fill="#b6bbfd"/>
              </g>
            </g>
            <g id="Group_36728" data-name="Group 36728" transform="translate(1.314 4.972)">
              <circle id="Ellipse_256" data-name="Ellipse 256" cx="2.795" cy="2.795" r="2.795" transform="translate(7.948 7.881) rotate(-77.096)" fill="#fff"/>
              <g id="Group_36726" data-name="Group 36726" transform="translate(5.518)">
                <path id="Path_26651" data-name="Path 26651" d="M418.759,270.545a5.128,5.128,0,0,0,.685-1.906l.208.031.411.06h.005a5.741,5.741,0,0,0-.108-2.233l-.612.152a5.129,5.129,0,0,0-.865-1.831l.507-.377a5.717,5.717,0,0,0-1.655-1.5l-.327.542a5.119,5.119,0,0,0-1.906-.685l.091-.625a5.779,5.779,0,0,0-2.233.108l.152.612a5.131,5.131,0,0,0-1.831.865l-.377-.507a5.719,5.719,0,0,0-1.5,1.655l.542.327a5.119,5.119,0,0,0-.685,1.906l-.442-.065-.181-.025h0a5.778,5.778,0,0,0,.108,2.233l.612-.151a5.14,5.14,0,0,0,.867,1.832l-.507.377a5.706,5.706,0,0,0,1.653,1.5l.327-.542a5.133,5.133,0,0,0,1.908.686l-.072.485-.02.139a5.768,5.768,0,0,0,2.231-.109l-.151-.612a5.184,5.184,0,0,0,1.834-.866l.377.507a5.749,5.749,0,0,0,1.5-1.654Zm-5.852-.264a2.794,2.794,0,1,1,3.836-.952A2.794,2.794,0,0,1,412.907,270.28Z" transform="translate(-408.57 -262.106)" fill="#8790fb"/>
              </g>
              <g id="Group_36727" data-name="Group 36727" transform="translate(0 6.578)">
                <path id="Path_26652" data-name="Path 26652" d="M281.145,421.761a2.7,2.7,0,0,0-.752-.756l.062-.092.122-.182v0a3.023,3.023,0,0,0-1.086-.453l-.066.325a2.7,2.7,0,0,0-1.066,0l-.065-.326a3.009,3.009,0,0,0-1.09.447l.184.278a2.7,2.7,0,0,0-.756.752l-.276-.185a3.042,3.042,0,0,0-.453,1.086l.325.066a2.7,2.7,0,0,0,0,1.066l-.326.065a3.011,3.011,0,0,0,.447,1.089l.278-.184a2.7,2.7,0,0,0,.752.756l-.131.2-.053.08h0a3.043,3.043,0,0,0,1.086.453l.066-.325a2.706,2.706,0,0,0,1.067,0l.065.326a3,3,0,0,0,1.088-.446l-.184-.278a2.7,2.7,0,0,0,.758-.752l.215.144.062.041a3.036,3.036,0,0,0,.452-1.086l-.325-.066a2.729,2.729,0,0,0,0-1.068l.326-.065a3.026,3.026,0,0,0-.448-1.088Zm-1.448,2.723a1.471,1.471,0,1,1,.414-2.039A1.471,1.471,0,0,1,279.7,424.484Z" transform="translate(-275.899 -420.271)" fill="#1251b3"/>
              </g>
            </g>
            <g id="Group_36729" data-name="Group 36729" transform="translate(45.22 14.346)">
              <rect id="Rectangle_3605" data-name="Rectangle 3605" width="7.313" height="4.374" transform="translate(0)" fill="#6771e6"/>
              <rect id="Rectangle_3606" data-name="Rectangle 3606" width="7.313" height="0.755" transform="translate(0 0.826)" fill="#b6bbfd"/>
              <path id="Path_26653" data-name="Path 26653" d="M1344.191,572.477h-1.075a.124.124,0,0,0-.124.124h0a.124.124,0,0,0,.124.124h1.075a.124.124,0,0,0,.124-.124h0A.124.124,0,0,0,1344.191,572.477Z" transform="translate(-1342.516 -568.942)" fill="#b6bbfd"/>
              <path id="Path_26654" data-name="Path 26654" d="M1383.948,572.477h-1.075a.124.124,0,0,0-.124.124h0a.124.124,0,0,0,.124.124h1.075a.124.124,0,0,0,.124-.124h0A.124.124,0,0,0,1383.948,572.477Z" transform="translate(-1380.619 -568.942)" fill="#b6bbfd"/>
              <path id="Path_26655" data-name="Path 26655" d="M1423.706,572.477h-1.075a.124.124,0,0,0-.124.124h0a.124.124,0,0,0,.124.124h1.075a.124.124,0,0,0,.124-.124h0A.124.124,0,0,0,1423.706,572.477Z" transform="translate(-1418.724 -568.942)" fill="#b6bbfd"/>
              <path id="Path_26656" data-name="Path 26656" d="M1463.463,572.477h-1.075a.124.124,0,0,0-.124.124h0a.124.124,0,0,0,.124.124h1.075a.124.124,0,0,0,.124-.124h0A.124.124,0,0,0,1463.463,572.477Z" transform="translate(-1456.827 -568.942)" fill="#b6bbfd"/>
              <path id="Path_26657" data-name="Path 26657" d="M1341.629,492.833h0a.137.137,0,0,0-.137.137v.048a.137.137,0,0,0,.137.137h0a.137.137,0,0,0,.137-.137v-.048A.137.137,0,0,0,1341.629,492.833Z" transform="translate(-1341.078 -492.611)" fill="#b6bbfd"/>
              <path id="Path_26658" data-name="Path 26658" d="M1351.852,492.994h0a.161.161,0,0,0,.161.161h.569a.161.161,0,0,0,.161-.161h0a.161.161,0,0,0-.161-.161h-.569A.161.161,0,0,0,1351.852,492.994Z" transform="translate(-1351.007 -492.611)" fill="#b6bbfd"/>
              <path id="Path_26697" data-name="Path 26697" d="M.53,0h.1a.53.53,0,0,1,0,1.06H.53A.53.53,0,0,1,.53,0Z" transform="translate(0.557 1.987)" fill="#b6bbfd"/>
            </g>
            <g id="Group_36734" data-name="Group 36734" transform="translate(44.389 26.499)">
              <g id="Group_36730" data-name="Group 36730" transform="translate(0 2.451)">
                <path id="Path_26659" data-name="Path 26659" d="M1316.749,839.532v-.5a.411.411,0,0,0-.411-.411h-4.373a.411.411,0,0,0-.411.411v8.831h11.311v-8.332Z" transform="translate(-1311.555 -838.622)" fill="#1251b3"/>
                <path id="Path_26660" data-name="Path 26660" d="M1323.337,867.808h-11.092l-.69,8.028h11.256Z" transform="translate(-1311.555 -866.594)" fill="#fff"/>
                <path id="Path_26661" data-name="Path 26661" d="M1322.866,868.843h-11.311l1.2-7.928a.474.474,0,0,1,.469-.4h10.352a.474.474,0,0,1,.469.545Z" transform="translate(-1311.555 -859.601)" fill="#8790fb"/>
              </g>
              <g id="Group_36733" data-name="Group 36733" transform="translate(8.83 0)">
                <g id="Group_36731" data-name="Group 36731" transform="translate(0)">
                  <circle id="Ellipse_257" data-name="Ellipse 257" cx="2.592" cy="2.592" r="2.592" transform="translate(0 3.665) rotate(-45)" fill="#005cea"/>
                  <path id="Path_26662" data-name="Path 26662" d="M1550.067,808.59a2.686,2.686,0,1,1,2.687-2.687A2.69,2.69,0,0,1,1550.067,808.59Zm0-5.183a2.5,2.5,0,1,0,2.5,2.5A2.5,2.5,0,0,0,1550.067,803.406Z" transform="translate(-1546.402 -802.238)" fill="#fff"/>
                </g>
                <g id="Group_36732" data-name="Group 36732" transform="translate(2.418 1.913)">
                  <path id="Path_26663" data-name="Path 26663" d="M1581.988,856.532v1.835a5.153,5.153,0,0,0,2.495,0v-1.835Zm1.374.974v.52a.126.126,0,1,1-.252,0v-.521a.307.307,0,1,1,.252,0Z" transform="translate(-1581.988 -855.249)" fill="#fff"/>
                  <path id="Path_26664" data-name="Path 26664" d="M1589.3,826.828h-.253V826.7a.776.776,0,1,0-1.553,0v.124h-.252V826.7a1.029,1.029,0,1,1,2.058,0Z" transform="translate(-1587.025 -825.675)" fill="#fff"/>
                </g>
              </g>
            </g>
          </g>
          <circle id="Ellipse_258" data-name="Ellipse 258" cx="0.992" cy="0.992" r="0.992" transform="translate(46.998 7.482)" fill="#8790fb"/>
          <circle id="Ellipse_259" data-name="Ellipse 259" cx="0.992" cy="0.992" r="0.992" transform="translate(20.789 12.987) rotate(-80.25)" fill="#8790fb"/>
          <circle id="Ellipse_260" data-name="Ellipse 260" cx="0.519" cy="0.519" r="0.519" transform="translate(54.428 24.868)" fill="#fff"/>
          <circle id="Ellipse_261" data-name="Ellipse 261" cx="0.519" cy="0.519" r="0.519" transform="translate(0 26.747) rotate(-76.789)" fill="#8790fb"/>
          <circle id="Ellipse_262" data-name="Ellipse 262" cx="0.992" cy="0.992" r="0.992" transform="translate(7.42 44.814) rotate(-25.745)" fill="#8790fb"/>
          <g id="Group_36736" data-name="Group 36736" transform="translate(23.574 0.143)">
            <path id="Path_26665" data-name="Path 26665" d="M830.876,148.187h0a.172.172,0,0,1-.172-.172v-1.841a.172.172,0,0,1,.172-.172h0a.172.172,0,0,1,.172.172v1.841A.172.172,0,0,1,830.876,148.187Z" transform="translate(-829.784 -146.003)" fill="#8790fb"/>
            <path id="Path_26666" data-name="Path 26666" d="M808.578,168.3h0a.172.172,0,0,1,.172-.172h1.841a.172.172,0,0,1,.172.172h0a.172.172,0,0,1-.172.172H808.75A.172.172,0,0,1,808.578,168.3Z" transform="translate(-808.578 -167.209)" fill="#8790fb"/>
          </g>
          <g id="Group_36737" data-name="Group 36737" transform="translate(43.141 23.776)">
            <path id="Path_26667" data-name="Path 26667" d="M1301.324,716.41h0a.172.172,0,0,1-.172-.172V714.4a.172.172,0,0,1,.172-.172h0a.172.172,0,0,1,.172.172v1.841A.172.172,0,0,1,1301.324,716.41Z" transform="translate(-1300.232 -714.226)" fill="#fff"/>
            <path id="Path_26668" data-name="Path 26668" d="M1279.025,736.525h0a.172.172,0,0,1,.172-.172h1.841a.172.172,0,0,1,.172.172h0a.172.172,0,0,1-.172.172H1279.2A.172.172,0,0,1,1279.025,736.525Z" transform="translate(-1279.025 -735.433)" fill="#fff"/>
          </g>
          <g id="Group_36738" data-name="Group 36738" transform="translate(41.27 48.018)">
            <path id="Path_26669" data-name="Path 26669" d="M1256.331,1299.269h0a.172.172,0,0,1-.172-.172v-1.841a.172.172,0,0,1,.172-.172h0a.172.172,0,0,1,.172.172v1.841A.172.172,0,0,1,1256.331,1299.269Z" transform="translate(-1255.239 -1297.085)" fill="#fff"/>
            <path id="Path_26670" data-name="Path 26670" d="M1234.033,1319.383h0a.172.172,0,0,1,.172-.172h1.84a.172.172,0,0,1,.172.172h0a.172.172,0,0,1-.172.172h-1.84A.172.172,0,0,1,1234.033,1319.383Z" transform="translate(-1234.033 -1318.291)" fill="#fff"/>
          </g>
          <circle id="Ellipse_263" data-name="Ellipse 263" cx="0.55" cy="0.55" r="0.55" transform="translate(26.493 35.914)" fill="none" stroke="#fff" stroke-miterlimit="10" stroke-width="4.226"/>
        </g>
      </g>
      <g id="male" transform="translate(33.601 40.796)">
        <g id="Group_36754" data-name="Group 36754">
          <g id="Group_36742" data-name="Group 36742" transform="translate(0 10.405)">
            <path id="Path_26671" data-name="Path 26671" d="M1162.409,2123.426h-2.154l-.223-4.682h2.6Z" transform="translate(-1155.441 -2087.752)" fill="#0e0e0e"/>
            <path id="Path_26672" data-name="Path 26672" d="M2062.281,2123.426h-2.154l-.223-4.682h2.6Z" transform="translate(-2017.886 -2087.752)" fill="#0e0e0e"/>
            <path id="Path_26673" data-name="Path 26673" d="M1182.886,1396.474q-.356,1.1-.779,2.267h-35.751s-4.614-18.779,0-22.214a3.05,3.05,0,0,1,.425-.259c6.214-3.193,31.128-3.943,36.185.165.039.031.074.062.109.094C1184.939,1378.239,1186.56,1385.068,1182.886,1396.474Z" transform="translate(-1140.369 -1373.61)" fill="#ea7b00"/>
            <path id="Path_26674" data-name="Path 26674" d="M1207.275,1674.568H1193.8l1.314-13.162C1197.466,1662.425,1203.72,1667.807,1207.275,1674.568Z" transform="translate(-1187.808 -1649.436)" fill="#982c20"/>
            <path id="Path_26675" data-name="Path 26675" d="M1754.73,1669.075q-.356,1.1-.779,2.267h-12.985c2.233-4.141,7.648-10.414,12.906-13.3Z" transform="translate(-1712.213 -1646.21)" fill="#982c20"/>
            <path id="Path_26676" data-name="Path 26676" d="M1096.648,1656.978h-4.957a1.661,1.661,0,0,0-1.647,1.443l-1.581,11.953H1059.5l-1.581-11.953a1.661,1.661,0,0,0-1.646-1.443h-4.957a1.661,1.661,0,0,0-1.635,1.953l2.752,19.905h43.1l2.752-19.905A1.661,1.661,0,0,0,1096.648,1656.978Z" transform="translate(-1049.651 -1645.192)" fill="#ea7b00"/>
            <g id="Group_36741" data-name="Group 36741" transform="translate(8.665 18.125)">
              <g id="Group_36740" data-name="Group 36740">
                <path id="Path_26677" data-name="Path 26677" d="M1287.838,1809.93c2.333.781,1.878,5.719,0,6.479h-28.3c-2.113-.545-2.292-7.078.756-6.586C1278.949,1813.329,1279.853,1807.735,1287.838,1809.93Z" transform="translate(-1257.978 -1809.403)" fill="#f2b066"/>
              </g>
            </g>
          </g>
          <g id="Group_36753" data-name="Group 36753" transform="translate(14.494)">
            <path id="Path_26678" data-name="Path 26678" d="M1457.341,1349.008a26.235,26.235,0,0,0,.2,3.527h13.268l.786-12.955c-.788-4.732-2.946-5.879-6.36-5.879-3.056,0-5.092,2.493-6.329,5.83A28.982,28.982,0,0,0,1457.341,1349.008Z" transform="translate(-1454.878 -1324.956)" fill="#007880"/>
            <path id="Path_26679" data-name="Path 26679" d="M1457.359,1483.61l4.8-.289c-2.666-.873-2.878-4.964-.168-7.509l-3.072-1.929A30.486,30.486,0,0,0,1457.359,1483.61Z" transform="translate(-1454.896 -1459.307)" fill="#005459"/>
            <path id="Path_26680" data-name="Path 26680" d="M1435.388,1707.946h18.229v-6.2H1437.2Z" transform="translate(-1433.839 -1677.689)" fill="#0e0e0e"/>
            <g id="Group_36745" data-name="Group 36745" transform="translate(13.393 24.014)">
              <g id="Group_36743" data-name="Group 36743">
                <path id="Path_26681" data-name="Path 26681" d="M1728.858,1705.073l-4.9,17.791h-3.818c1.209-7.571.938-12.493,2.075-18.779C1723.216,1698.924,1730.045,1700.29,1728.858,1705.073Z" transform="translate(-1720.144 -1700.799)" fill="#0e0e0e"/>
              </g>
              <g id="Group_36744" data-name="Group 36744" transform="translate(0 18.666)">
                <path id="Path_26682" data-name="Path 26682" d="M1778.951,2175.481c0-.011,0-.023,0-.035a2.388,2.388,0,1,1,4.776,0c0,.012,0,.023,0,.035Z" transform="translate(-1776.504 -2172.082)" fill="#b15626"/>
                <path id="Path_26683" data-name="Path 26683" d="M1725.438,2150.609l-.868-.265c-.573-1.127-3.017-.988-2.676.384a1.794,1.794,0,0,1-1.463-.335l-.287,2.595h5.177Z" transform="translate(-1720.144 -2149.588)" fill="#b15626"/>
              </g>
            </g>
            <g id="Group_36748" data-name="Group 36748" transform="translate(0.469 24.014)">
              <g id="Group_36746" data-name="Group 36746">
                <path id="Path_26684" data-name="Path 26684" d="M1409.562,1705.073l4.9,17.791h3.818c-1.209-7.571-.938-12.493-2.075-18.779C1415.2,1698.924,1408.375,1700.29,1409.562,1705.073Z" transform="translate(-1409.424 -1700.799)" fill="#0e0e0e"/>
              </g>
              <g id="Group_36747" data-name="Group 36747" transform="translate(1.63 18.666)">
                <path id="Path_26685" data-name="Path 26685" d="M1453.4,2175.481c0-.011,0-.023,0-.035a2.388,2.388,0,1,0-4.776,0c0,.012,0,.023,0,.035Z" transform="translate(-1448.624 -2172.082)" fill="#b15626"/>
                <path id="Path_26686" data-name="Path 26686" d="M1494.973,2150.609l.868-.265c.573-1.127,3.017-.988,2.676.384a1.793,1.793,0,0,0,1.463-.335l.287,2.595h-5.177Z" transform="translate(-1493.045 -2149.588)" fill="#b15626"/>
              </g>
            </g>
            <path id="Path_26687" data-name="Path 26687" d="M1406.445,1343.708c1.791,1.087,2.046,4.314,1.128,5.6l-5.11,3.807,5.2,2.679-.845,2.767s-5.43-.442-8.088-3.168C1396.18,1352.774,1402.4,1345.085,1406.445,1343.708Z" transform="translate(-1398.136 -1334.546)" fill="#007880"/>
            <path id="Path_26688" data-name="Path 26688" d="M1649.947,1350.574c-1.532-1.923-.474-4.9,1.479-4.808,6.358,2.239,8.321,8.454,6.307,11.244-1.726,2.39-9.317,3.311-9.317,3.311V1357.7l5.274-1.14S1650.97,1352.35,1649.947,1350.574Z" transform="translate(-1638.005 -1336.517)" fill="#007880"/>
            <g id="Group_36750" data-name="Group 36750" transform="translate(5.78 14.047)">
              <path id="Path_26689" data-name="Path 26689" d="M1551.011,1626.917a2.015,2.015,0,0,1,1.733-2.212c2.3-.418,3.138.846,3.355,1.749a.383.383,0,0,1-.355.463.389.389,0,0,1-.371-.313.892.892,0,0,0-.4-.622c.238.467.139.935-.51.935Z" transform="translate(-1550.421 -1617.825)" fill="#f7a594"/>
              <g id="Group_36749" data-name="Group 36749">
                <path id="Path_26690" data-name="Path 26690" d="M1542.889,1470.258l1.813-9.09h.384l-1.962,10.006h-5.433l-.593-.916Z" transform="translate(-1537.098 -1461.168)" fill="#99c1ff"/>
                <path id="Path_26691" data-name="Path 26691" d="M1683.958,1461.168h13.49l-2,10.006H1682Z" transform="translate(-1675.969 -1461.168)" fill="#fff"/>
              </g>
            </g>
            <g id="Group_36752" data-name="Group 36752" transform="translate(9.835)">
              <g id="Group_36751" data-name="Group 36751" transform="translate(0 5.817)">
                <path id="Path_26692" data-name="Path 26692" d="M1634.6,1267.284c0,1.034,3.1,1.72,4.114.633a1.146,1.146,0,0,0,.3-.614l.584-2.62-3.7-1.4-.11.342Z" transform="translate(-1634.6 -1263.288)" fill="#f7a594"/>
                <path id="Path_26693" data-name="Path 26693" d="M1669.774,1277.742l.584-2.62-3.5-.943C1665.948,1276.878,1669.184,1279.034,1669.774,1277.742Z" transform="translate(-1665.361 -1273.726)" fill="#f4856d"/>
              </g>
              <path id="Path_26694" data-name="Path 26694" d="M1658.841,1138.241c-.2,2.575,1.84,4.843,3.547,4.958s4.058-1.792,4.253-4.367-1.393-4.794-3.547-4.958S1659.036,1135.666,1658.841,1138.241Z" transform="translate(-1657.821 -1133.43)" fill="#f7a594"/>
              <path id="Path_26695" data-name="Path 26695" d="M1660.316,1124.07c2.361-1.5,3.661-.089,4.836,1.4.825,1.047,1.409,1.8,2.436,1.956-1.975,2.491-5.925.848-7.17-1.649a3,3,0,0,1-2.957,2.462C1657.085,1126.661,1658.181,1123.464,1660.316,1124.07Z" transform="translate(-1656.44 -1123.432)" fill="#0e0e0e"/>
              <circle id="Ellipse_264" data-name="Ellipse 264" cx="1.028" cy="1.028" r="1.028" transform="translate(0.292 3.995) rotate(-9.217)" fill="#f7a594"/>
            </g>
          </g>
        </g>
      </g>
    </g>
  </g>
</svg>
