<svg id="Basic_Knowledge_of_Words" data-name="Basic Knowledge of Words" xmlns="http://www.w3.org/2000/svg" width="365" height="192" viewBox="0 0 365 192">
  <path id="bg" d="M15.491,0H349.509A15.752,15.752,0,0,1,365,16V176a15.752,15.752,0,0,1-15.491,16H15.491A15.752,15.752,0,0,1,0,176V16A15.752,15.752,0,0,1,15.491,0Z" fill="#3191c1"/>
  <g id="text" transform="translate(12 113)">
    <text id="Read_Fast_Learn_More" data-name="Read Fast Learn More" transform="translate(0 12)" fill="#fff" font-size="16" font-family="KumbhSans-Bold, Kumbh Sans" font-weight="700"><tspan x="0" y="0">Basic Knowledge of Words</tspan></text>
    <text id="Read_Fast_Learn_More-2" data-name="Read Fast Learn More" transform="translate(0 28)" fill="#fff" font-size="11" font-family="KumbhSans-Regular, Kumbh Sans"><tspan x="0" y="0">Gain confidence speaking about familiar topics.</tspan></text>
    <rect id="Rectangle_4025" data-name="Rectangle 4025" width="333" height="3" rx="1.5" transform="translate(-0.75 43)" fill="#fff"/>
    <rect id="Rectangle_4026" data-name="Rectangle 4026" width="165.25" height="3" rx="1.5" transform="translate(-0.75 43)" fill="#67dd9c"/>
    <text id="_50_Completed" data-name="50% Completed" transform="translate(0 62)" fill="#fff" font-size="12" font-family="KumbhSans-Bold, Kumbh Sans" font-weight="700"><tspan x="0" y="0">50% Completed</tspan></text>
  </g>
  <g id="illus" transform="translate(33 2)">
    <g id="Group_36591" data-name="Group 36591" transform="translate(205)">
      <path id="Path" d="M31.06,0,3.559,5.6S.117,3.3.008,3.768c-.11.453.939,4.269,1.768,4.816s22.729,0,22.729,0Z" transform="translate(0 83.029)" fill="#ee5151"/>
      <path id="Path-2" data-name="Path" d="M.475,0C-.464,1.7.272,10.93.319,11.29S5.606,9.632,5.606,9.632L6.06,1.876Z" transform="translate(15.024 85.563)" fill="#22211b"/>
      <path id="Path-3" data-name="Path" d="M.234.43C.25.508.281.586.3.68A.034.034,0,0,0,.328.711C.344.727.359.727.39.727H.469C.5.727.531.711.563.711A.467.467,0,0,0,.719.649C.735.633.782.6.766.57.75.492.719.414.7.32A.034.034,0,0,0,.672.289C.656.273.641.273.609.273H.531C.5.273.469.289.437.289A.47.47,0,0,0,.281.351C.265.367.218.4.234.43Z" transform="translate(0.899 94.719)" fill="#ff7991"/>
      <path id="Path-4" data-name="Path" d="M.4.309a1.106,1.106,0,0,0-.25.438V.778c0,.016.016.016.031.016a.522.522,0,0,0,.156,0A.879.879,0,0,0,.52.731C.536.731.551.716.567.716L.614.669A1.2,1.2,0,0,1,.833.278L.817.293.833.278C.849.262.864.246.849.215.833.215.817.2.8.2H.724A.416.416,0,0,0,.536.246C.52.246.5.262.489.262A.094.094,0,0,0,.4.309Z" transform="translate(3.053 88.679)" fill="#ff3500"/>
      <path id="Path-5" data-name="Path" d="M1.153,1.063c-2.659,2.064-.14,13.244,1.737,13.385s32.366-1.235,32.366-1.235l26,1.486L56.671,0,36.147,2.2Z" transform="translate(16.454 78.23)" fill="#fff"/>
      <path id="Path-6" data-name="Path" d="M0,3.565C1.47,6.8,8.885,14.385,10.481,14.542S16.66,0,16.66,0Z" transform="translate(33.69 79.465)" fill="#22211b"/>
      <path id="Path-7" data-name="Path" d="M0,0S18.459,18.357,22.526,18.42,23.778,4.988,23.778,4.988L10.184,1.157Z" transform="translate(46.035 75.431)" fill="#22211b"/>
      <path id="Path-8" data-name="Path" d="M12.462,0,3.7,18.858S-.365,21.14.026,21.453s7.352,0,7.352,0C8.348,21.109,18.97,4.347,18.97,4.347Z" transform="translate(29.202 71.631)" fill="#ee5151"/>
      <path id="Path-9" data-name="Path" d="M1.549,0,0,2s3.943,5.723,6.508,7.74,1.564-7.9,1.564-7.9L2.926.016" transform="translate(35.07 84.281)" fill="#22211b"/>
      <path id="Path-10" data-name="Path" d="M0,22.959c4.443,6.129,10.309,6.27,11.78,6.661S19.085,16,19.085,16l11.06,13.635c5.835,6.8,22.417,3.784,25.921-1.829.062-.094-2.6-.86-2.534-.954,0,0-25.859-29.021-36.136-26.723C7.118,2.4,0,22.959,0,22.959Z" transform="translate(38.344 60.478)" fill="#fff"/>
      <path id="Path-11" data-name="Path" d="M1.743.139A31.315,31.315,0,0,0,.241,4,4.877,4.877,0,0,0,.382,7.426,3.033,3.033,0,0,0,1.54,8.739c.172.109.594-.141.36-.266A3.215,3.215,0,0,1,.476,5.94,7.983,7.983,0,0,1,1.321,2.3C1.6,1.593,1.9.905,2.2.2,2.291-.064,1.821-.048,1.743.139Z" transform="translate(73.936 81.123)" fill="#003d39"/>
      <path id="Path-12" data-name="Path" d="M.378.244A3.507,3.507,0,0,1,.1,2.355c-.047.109.046.172.14.188A.307.307,0,0,0,.55,2.4,3.88,3.88,0,0,0,.863.1C.816-.1.331.025.378.244Z" transform="translate(52.199 73.068)" fill="#22211b"/>
      <path id="Path-13" data-name="Path" d="M3.489,7.269,4.161,5.94,5.256,3.8s6.461-5.3,9.9-3.377c0,0,16.488,17.982,4.88,38.669a3.888,3.888,0,0,1-4.959,1.673C10.888,38.933,3.708,34.179,0,22.468" transform="translate(76.06 48.991)" fill="#22211b"/>
      <path id="Path-14" data-name="Path" d="M8.76.844,12.8,0s3.989,3.784,1.439,11.774,8.557,14.667,3.52,16.293C12.7,29.678,0,23.893,0,23.893L5.365,7.459Z" transform="translate(74.34 62.499)"/>
      <path id="Path-15" data-name="Path" d="M2.753,6.161A2.931,2.931,0,0,0,5.506,3.08,2.931,2.931,0,0,0,2.753,0,2.93,2.93,0,0,0,0,3.08,2.93,2.93,0,0,0,2.753,6.161Z" transform="translate(78.119 33.253)" fill="#080806"/>
      <path id="Path-16" data-name="Path" d="M2.251,0S-.487,4.769.076,5.207a8.8,8.8,0,0,0,2.644.657L5.38,9.992l3.942-1.3L6.662,1.407Z" transform="translate(78.858 37.121)" fill="#ee5151"/>
      <path id="Path-17" data-name="Path" d="M0,.282,1.408,0,3.176.282l-1.658.782Z" transform="translate(82.818 43.135)" fill="#22211b"/>
      <path id="Path-18" data-name="Path" d="M2.362,4.722A2.361,2.361,0,1,0,0,2.361,2.362,2.362,0,0,0,2.362,4.722Z" transform="translate(84.602 31.361)" fill="#080806"/>
      <path id="Path-19" data-name="Path" d="M2.362,4.722A2.361,2.361,0,1,0,0,2.361,2.362,2.362,0,0,0,2.362,4.722Z" transform="translate(83.632 35.064)" fill="#080806"/>
      <path id="Path-20" data-name="Path" d="M2.362,4.722A2.361,2.361,0,1,0,0,2.361,2.361,2.361,0,0,0,2.362,4.722Z" transform="translate(86.213 36.445)" fill="#080806"/>
      <path id="Path-21" data-name="Path" d="M2.362,4.722A2.361,2.361,0,1,0,0,2.361,2.361,2.361,0,0,0,2.362,4.722Z" transform="translate(86.51 33.903)" fill="#080806"/>
      <path id="Path-22" data-name="Path" d="M1.329,3.1a1.451,1.451,0,0,0,1.33-1.548A1.451,1.451,0,0,0,1.329,0,1.451,1.451,0,0,0,0,1.548,1.451,1.451,0,0,0,1.329,3.1Z" transform="translate(87.136 38.934)" fill="#ee5151"/>
      <path id="Path-23" data-name="Path" d="M7.537,4.882C5.426,2.865,4.315,3.006,3.314,2.4,2.3,1.8.7-.356.138.051S.873,2.8,1.484,3.772c1.095,1.7,4.865,6.364,4.865,6.364Z" transform="translate(58.199 56.64)" fill="#ee5151"/>
      <path id="Path-24" data-name="Path" d="M.324,0c-.688,1.47-.2,6.786.72,7.271S3.14,3.8,3.14,3.8Z" transform="translate(62.778 60.109)"/>
      <path id="Path-25" data-name="Path" d="M11.435,17.357l.813,1.2h.72L18.959,11.7,5.553,0,.532,4.753,0,5.332l8.932,7.975Z" transform="translate(56.871 46.618)" fill="#febd44"/>
      <path id="Path-26" data-name="Path" d="M0,4.306S1.565-.354,4.4.022L18.006,11.28l-5.663,6.489Z" transform="translate(57.404 47.064)" fill="#fcf5f0"/>
      <path id="Path-27" data-name="Path" d="M.844,0,0,1.063,14.282,15.027l1.345-2.189Z" transform="translate(55.195 49.903)" fill="#fee1ce"/>
      <path id="Path-28" data-name="Path" d="M.47,2.048,0,1.2,1.33,0,16.223,12.728l-1.252.688Z" transform="translate(53.896 50.515)" fill="#ffcaa5"/>
      <path id="Path-29" data-name="Path" d="M0,0,1.173,2.611l14.3,11.4.094-1.313Z" transform="translate(53.225 51.327)" fill="#febd44"/>
      <path id="Path-30" data-name="Path" d="M7.717,2.342C5.762,2.263,1.366.2.38.012c-1-.188.188,1.939,1.111,2.33A12.744,12.744,0,0,1,3.916,4.077L7.31,3.765Z" transform="translate(71.314 53.421)" fill="#ee5151"/>
      <path id="Path-31" data-name="Path" d="M9.683,0l.532,1.173L0,5.754l.36-2.58Z" transform="translate(78.381 44.933)" fill="#fff"/>
      <path id="Path-32" data-name="Path" d="M2.746,8.856C-.977,14.095.165,18.77.165,18.77s8.885,9.9,12.264,9.913S29.809,2.774,21,.288,7.282,12.25,7.282,12.25Z" transform="translate(64.341 49.968)" fill="#22211b"/>
      <path id="Path-33" data-name="Path" d="M22.542,0H0V83.373H22.542Z" transform="translate(91.422 11.963)" fill="#ee5151"/>
      <path id="Path-34" data-name="Path" d="M.8.061c-.922.625-.86,1.861-.7,2.846A12.332,12.332,0,0,0,1.328,6.535,12.175,12.175,0,0,0,2.533,8.4c.125.156.579-.031.438-.2a12.23,12.23,0,0,1-1.8-3.174A11.388,11.388,0,0,1,.656,3.3,6.2,6.2,0,0,1,.468,1.688,1.723,1.723,0,0,1,1.094.249C1.172.2,1.219.093,1.125.03A.35.35,0,0,0,.8.061Z" transform="translate(106.535 4.178)" fill="#ffd14d"/>
      <path id="Path-35" data-name="Path" d="M9.013.048A23.006,23.006,0,0,0,3.084,3.786,9.477,9.477,0,0,0,.034,9.508a7.216,7.216,0,0,0,2.018,5.6,16.569,16.569,0,0,0,5.209,3.581,50.836,50.836,0,0,0,14,3.972c1.189.188,2.378.36,3.582.516,1.08.141,2.315.188,3.082,1.095a3.617,3.617,0,0,1,.641,2.6,10.564,10.564,0,0,1-.719,2.846A27.89,27.89,0,0,1,20.37,40.7c-.391.36-.813.7-1.22,1.032-.078.063-.047.141.047.156a.412.412,0,0,0,.328-.094,27.992,27.992,0,0,0,8.041-10.367,21.807,21.807,0,0,0,1.173-3.049,6.833,6.833,0,0,0,.282-2.752A2.8,2.8,0,0,0,27.676,23.5a4.457,4.457,0,0,0-1.612-.469c-.594-.094-1.2-.156-1.8-.25A62.614,62.614,0,0,1,10.14,19.516a24.611,24.611,0,0,1-6.023-3.159,8.805,8.805,0,0,1-3.5-4.863,7.824,7.824,0,0,1,1.595-6.27A15.568,15.568,0,0,1,7.652.971C8.153.705,8.669.455,9.185.2c.063-.031.188-.094.125-.188C9.263-.03,9.06.033,9.013.048Z" transform="translate(95.346 0)" fill="#fff"/>
      <path id="Path-36" data-name="Path" d="M15.5,0H0V5.238H15.5Z" transform="translate(94.785 19.889)" fill="#fff"/>
      <path id="Path-37" data-name="Path" d="M15.5,0H0V49.9H15.5Z" transform="translate(94.785 34.698)" fill="#fff"/>
    </g>
    <g id="Group_36590" data-name="Group 36590" transform="translate(0 10)">
      <path id="Path-38" data-name="Path" d="M.727.128A4,4,0,0,0,.117,3.38c.047.188.516.063.469-.125a3.755,3.755,0,0,1,.579-3.1C1.228.065,1.1,0,1.024,0A.327.327,0,0,0,.727.128Z" transform="translate(112.669 64.875)" fill="#003d39"/>
      <path id="Path-39" data-name="Path" d="M51.4,24.3a34.335,34.335,0,0,1-9.114-1.212c-6.981-1.952-12.3-6.036-15.4-11.825-2.963-5.5-8.1-8.594-15.332-9.2A32.849,32.849,0,0,0,1.32,2.849a1.04,1.04,0,0,1-1.28-.7A.989.989,0,0,1,.759.919c.2-.045,20.091-5.206,27.948,9.424A22.577,22.577,0,0,0,42.871,21.181c7.632,2.132,16.656,1.212,23.009-2.334a1.069,1.069,0,0,1,1.414.359.987.987,0,0,1-.382,1.369A32.413,32.413,0,0,1,51.4,24.3Z" transform="translate(7.615 17.127)" fill="#fff"/>
      <path id="Path-40" data-name="Path" d="M11.74,22.6,0,11.286,11.74,0l11.74,11.286Z" transform="translate(74.141)" fill="#fff"/>
      <path id="Path-41" data-name="Path" d="M7.61,14.63a7.467,7.467,0,0,0,7.61-7.315A7.467,7.467,0,0,0,7.61,0,7.467,7.467,0,0,0,0,7.315,7.467,7.467,0,0,0,7.61,14.63Z" transform="translate(0 39.069)" fill="#fff"/>
      <path id="Path-42" data-name="Path" d="M5.387,10.366a5.288,5.288,0,0,0,5.387-5.183A5.288,5.288,0,0,0,5.387,0,5.288,5.288,0,0,0,0,5.183,5.288,5.288,0,0,0,5.387,10.366Z" transform="translate(37.089 6.312)" fill="#fff" opacity="0.27"/>
      <path id="Path-43" data-name="Path" d="M18,0,0,7.275,15.383,19Z" transform="translate(27 48.914)" fill="#22211b"/>
    </g>
  </g>
</svg>
