<svg xmlns="http://www.w3.org/2000/svg" xmlns:xlink="http://www.w3.org/1999/xlink" width="103.244" height="94.453" viewBox="0 0 103.244 94.453">
  <defs>
    <linearGradient id="linear-gradient" y1="0.5" x2="1" y2="0.5" gradientUnits="objectBoundingBox">
      <stop offset="0" stop-color="#c4b8e9"/>
      <stop offset="0.417" stop-color="#b2cfde"/>
      <stop offset="1" stop-color="#ffcade"/>
    </linearGradient>
    <linearGradient id="linear-gradient-2" x1="0.498" y1="0.3" x2="0.508" y2="1.048" gradientUnits="objectBoundingBox">
      <stop offset="0" stop-color="#ede582"/>
      <stop offset="1" stop-color="#ecc057"/>
    </linearGradient>
  </defs>
  <g id="Group_36832" data-name="Group 36832" transform="translate(0 0)">
    <path id="Path_27432" data-name="Path 27432" d="M224.491,297.84a.725.725,0,0,1,0,1.372,2.625,2.625,0,0,1-2.376,0,.725.725,0,0,1,0-1.372A2.625,2.625,0,0,1,224.491,297.84Z" transform="translate(-221.623 -241.49)" fill="#eae8ed"/>
    <g id="Group_36771" data-name="Group 36771" transform="translate(46.991 50.995)">
      <path id="Path_27433" data-name="Path 27433" d="M436.149,305.449l.684.134a.293.293,0,0,0,.165-.015l.579-.249c.12-.052.29,0,.288.085l-.009.417c0,.034.028.066.076.086l.589.241c.122.05.092.159-.05.184l-.689.124a.164.164,0,0,0-.118.068l-.215.4a.248.248,0,0,1-.319.029l-.417-.34a.238.238,0,0,0-.149-.044l-.722.005c-.149,0-.236-.1-.146-.166l.432-.334a.07.07,0,0,0,.026-.1l-.232-.395C435.873,305.5,436.007,305.422,436.149,305.449Z" transform="translate(-435.658 -298.528)" fill="#eae8ed"/>
      <path id="Path_27434" data-name="Path 27434" d="M449.5,297.74l.684.134a.293.293,0,0,0,.165-.015l.579-.249c.119-.052.289,0,.287.085l-.009.417c0,.034.028.067.076.086l.59.241c.122.05.092.158-.051.184l-.689.124a.165.165,0,0,0-.118.068l-.214.4a.248.248,0,0,1-.319.029l-.417-.34a.241.241,0,0,0-.149-.044l-.722.005c-.149,0-.236-.1-.146-.166l.432-.334a.071.071,0,0,0,.026-.1l-.232-.395C449.226,297.79,449.361,297.713,449.5,297.74Z" transform="translate(-446.08 -292.511)" fill="#eae8ed"/>
      <path id="Path_27435" data-name="Path 27435" d="M462.855,290.031l.684.134a.292.292,0,0,0,.165-.015l.579-.249c.119-.051.289,0,.287.085l-.009.417c0,.034.028.066.076.086l.59.241c.122.05.092.158-.051.184l-.689.124a.165.165,0,0,0-.118.068l-.214.4a.248.248,0,0,1-.319.029l-.417-.34a.24.24,0,0,0-.149-.044l-.722.005c-.149,0-.236-.1-.146-.166l.432-.334a.07.07,0,0,0,.026-.1l-.232-.395C462.579,290.081,462.714,290,462.855,290.031Z" transform="translate(-456.501 -286.494)" fill="#eae8ed"/>
      <path id="Path_27436" data-name="Path 27436" d="M476.208,282.321l.684.134a.293.293,0,0,0,.166-.015l.578-.249c.119-.052.289,0,.287.085l-.009.417c0,.034.028.067.076.086l.589.241c.122.05.092.158-.05.184l-.69.124a.165.165,0,0,0-.118.068l-.214.4a.248.248,0,0,1-.319.029l-.417-.34a.241.241,0,0,0-.149-.044l-.722.005c-.149,0-.236-.1-.146-.166l.432-.334a.071.071,0,0,0,.026-.1l-.232-.395C475.932,282.371,476.067,282.294,476.208,282.321Z" transform="translate(-466.923 -280.477)" fill="#eae8ed"/>
      <path id="Path_27437" data-name="Path 27437" d="M489.561,274.612l.684.134a.292.292,0,0,0,.165-.015l.578-.249c.12-.051.289,0,.288.085l-.009.417c0,.034.028.066.076.086l.589.241c.122.05.092.159-.05.184l-.689.124a.165.165,0,0,0-.119.068l-.214.4a.248.248,0,0,1-.319.029l-.417-.34a.24.24,0,0,0-.149-.044l-.722.005c-.149,0-.236-.1-.147-.166l.432-.334a.07.07,0,0,0,.026-.1l-.232-.395C489.285,274.662,489.42,274.584,489.561,274.612Z" transform="translate(-477.344 -274.46)" fill="#eae8ed"/>
    </g>
    <g id="Group_36772" data-name="Group 36772" transform="translate(21.152 53.926)">
      <path id="Path_27438" data-name="Path 27438" d="M318.456,318.8l.684.134a.292.292,0,0,0,.165-.015l.578-.249c.12-.051.289,0,.288.085l-.009.417c0,.034.028.066.076.086l.59.241c.122.05.092.159-.051.184l-.689.124a.165.165,0,0,0-.119.068l-.214.4a.247.247,0,0,1-.319.029l-.417-.34a.24.24,0,0,0-.149-.044l-.722.005c-.149,0-.236-.1-.147-.166l.432-.334a.071.071,0,0,0,.026-.1l-.232-.395C318.179,318.849,318.314,318.771,318.456,318.8Z" transform="translate(-317.965 -311.877)" fill="#eae8ed"/>
      <path id="Path_27439" data-name="Path 27439" d="M331.809,311.089l.684.134a.291.291,0,0,0,.165-.015l.579-.249c.119-.052.289,0,.287.085l-.009.417c0,.034.028.066.076.086l.59.241c.122.05.092.159-.051.184l-.689.124a.164.164,0,0,0-.118.068l-.215.4a.248.248,0,0,1-.319.029l-.417-.341a.24.24,0,0,0-.149-.044l-.722.005c-.149,0-.236-.1-.146-.166l.432-.334a.07.07,0,0,0,.026-.1l-.232-.395C331.533,311.139,331.668,311.062,331.809,311.089Z" transform="translate(-328.387 -305.86)" fill="#eae8ed"/>
      <path id="Path_27440" data-name="Path 27440" d="M345.162,303.38l.684.134a.292.292,0,0,0,.165-.015l.579-.249c.119-.051.289,0,.287.085l-.009.417c0,.034.028.066.076.086l.589.241c.122.05.092.158-.05.184l-.689.124a.165.165,0,0,0-.118.068l-.214.4a.248.248,0,0,1-.319.029l-.417-.34a.241.241,0,0,0-.149-.044l-.722.005c-.149,0-.236-.1-.146-.166l.432-.334a.071.071,0,0,0,.026-.1l-.232-.395C344.886,303.43,345.021,303.352,345.162,303.38Z" transform="translate(-338.808 -299.843)" fill="#eae8ed"/>
      <path id="Path_27441" data-name="Path 27441" d="M358.515,295.67l.684.134a.291.291,0,0,0,.165-.015l.579-.249c.119-.052.289,0,.287.085l-.009.417c0,.034.028.066.076.086l.589.241c.122.05.092.159-.051.184l-.689.124a.165.165,0,0,0-.118.068l-.214.4a.248.248,0,0,1-.319.029l-.417-.34a.24.24,0,0,0-.149-.044l-.722.005c-.149,0-.236-.1-.146-.166l.432-.334a.07.07,0,0,0,.026-.1l-.232-.395C358.239,295.72,358.374,295.643,358.515,295.67Z" transform="translate(-349.23 -293.826)" fill="#eae8ed"/>
      <path id="Path_27442" data-name="Path 27442" d="M371.868,287.961l.684.134a.293.293,0,0,0,.165-.015l.579-.249c.119-.052.289,0,.287.085l-.009.417c0,.034.028.066.076.086l.589.241c.122.05.092.158-.05.184l-.69.124a.165.165,0,0,0-.118.068l-.214.4a.248.248,0,0,1-.319.029l-.417-.34a.241.241,0,0,0-.149-.044l-.722.005c-.149,0-.236-.1-.146-.166l.432-.334a.071.071,0,0,0,.026-.1l-.232-.395C371.592,288.012,371.727,287.934,371.868,287.961Z" transform="translate(-359.651 -287.81)" fill="#eae8ed"/>
    </g>
    <g id="Group_36773" data-name="Group 36773" transform="translate(50.042 67.862)">
      <path id="Path_27443" data-name="Path 27443" d="M450.043,382.277l.684.134a.293.293,0,0,0,.165-.015l.579-.249c.119-.052.289,0,.287.085l-.009.417c0,.034.028.067.076.086l.59.241c.122.05.092.158-.051.184l-.689.124a.165.165,0,0,0-.118.068l-.214.4a.247.247,0,0,1-.319.029l-.417-.34a.24.24,0,0,0-.149-.044l-.722.005c-.149,0-.236-.1-.146-.166l.432-.334a.071.071,0,0,0,.026-.1l-.232-.395C449.767,382.328,449.9,382.25,450.043,382.277Z" transform="translate(-449.553 -375.355)" fill="#eae8ed"/>
      <path id="Path_27444" data-name="Path 27444" d="M463.4,374.568l.684.134a.293.293,0,0,0,.166-.015l.578-.249c.119-.051.289,0,.287.085l-.009.417c0,.034.028.066.076.086l.589.241c.122.05.092.159-.05.184l-.69.124a.165.165,0,0,0-.118.068l-.214.4a.248.248,0,0,1-.319.029l-.417-.34a.239.239,0,0,0-.149-.044l-.722.005c-.149,0-.236-.1-.146-.166l.432-.334a.07.07,0,0,0,.026-.1l-.232-.395C463.12,374.618,463.255,374.54,463.4,374.568Z" transform="translate(-459.974 -369.339)" fill="#eae8ed"/>
      <path id="Path_27445" data-name="Path 27445" d="M476.749,366.858l.684.134a.293.293,0,0,0,.165-.015l.579-.249c.12-.052.289,0,.288.085l-.009.417c0,.034.028.067.076.086l.589.241c.122.05.092.158-.051.184l-.689.124a.165.165,0,0,0-.119.068l-.214.4a.247.247,0,0,1-.319.029l-.417-.34a.241.241,0,0,0-.149-.044l-.722.006c-.149,0-.236-.1-.147-.166l.432-.334a.071.071,0,0,0,.026-.1l-.232-.395C476.473,366.908,476.608,366.831,476.749,366.858Z" transform="translate(-470.396 -363.322)" fill="#eae8ed"/>
      <path id="Path_27446" data-name="Path 27446" d="M490.1,359.149l.684.134a.292.292,0,0,0,.165-.015l.578-.249c.12-.051.29,0,.288.085l-.009.417c0,.034.028.066.076.086l.589.241c.122.05.092.159-.051.184l-.689.124a.164.164,0,0,0-.118.068l-.215.4a.248.248,0,0,1-.319.029l-.417-.34a.238.238,0,0,0-.149-.044l-.722.005c-.149,0-.236-.1-.146-.166l.432-.334a.07.07,0,0,0,.026-.1l-.232-.395C489.827,359.2,489.961,359.121,490.1,359.149Z" transform="translate(-480.817 -357.305)" fill="#eae8ed"/>
      <path id="Path_27447" data-name="Path 27447" d="M503.456,351.439l.684.134a.293.293,0,0,0,.165-.015l.579-.249c.119-.052.289,0,.287.085l-.009.417c0,.034.028.067.076.086l.589.241c.122.05.092.158-.05.184l-.689.124a.165.165,0,0,0-.118.069l-.214.4a.248.248,0,0,1-.319.029l-.417-.34a.241.241,0,0,0-.149-.044l-.722.005c-.149,0-.236-.1-.146-.166l.432-.334a.071.071,0,0,0,.026-.1l-.232-.395C503.18,351.49,503.315,351.412,503.456,351.439Z" transform="translate(-491.239 -351.288)" fill="#eae8ed"/>
    </g>
    <path id="Path_27448" data-name="Path 27448" d="M624.236,408.4a1.243,1.243,0,0,1,0,2.355,4.5,4.5,0,0,1-4.076,0,1.243,1.243,0,0,1,0-2.355A4.5,4.5,0,0,1,624.236,408.4Z" transform="translate(-532.003 -327.618)" fill="#eae8ed"/>
    <g id="Group_36781" data-name="Group 36781" transform="translate(2.997 37.7)">
      <g id="Group_36775" data-name="Group 36775">
        <g id="Group_36774" data-name="Group 36774" transform="translate(0 13.19)">
          <path id="Path_27449" data-name="Path 27449" d="M252.953,306.725l-15.483,8.944a2.012,2.012,0,0,1-1.821,0h0a.555.555,0,0,1,0-1.052l15.483-8.944a2.012,2.012,0,0,1,1.821,0h0A.555.555,0,0,1,252.953,306.725Z" transform="translate(-235.272 -298.545)" fill="#eae8ed"/>
          <path id="Path_27450" data-name="Path 27450" d="M333.387,275.253,325.2,279.98a2.012,2.012,0,0,1-1.821,0h0a.555.555,0,0,1,0-1.052l8.182-4.727a2.012,2.012,0,0,1,1.821,0h0A.555.555,0,0,1,333.387,275.253Z" transform="translate(-303.744 -273.983)" fill="#eae8ed"/>
        </g>
        <path id="Path_27451" data-name="Path 27451" d="M273.86,273.271l-15.483,8.944a2.012,2.012,0,0,1-1.821,0h0a.555.555,0,0,1,0-1.052l15.483-8.944a2.012,2.012,0,0,1,1.821,0h0A.555.555,0,0,1,273.86,273.271Z" transform="translate(-251.589 -259.246)" fill="#eae8ed"/>
        <path id="Path_27452" data-name="Path 27452" d="M364.038,221.177l-15.483,8.944a2.012,2.012,0,0,1-1.821,0h0a.555.555,0,0,1,0-1.052l15.483-8.944a2.012,2.012,0,0,1,1.821,0h0A.556.556,0,0,1,364.038,221.177Z" transform="translate(-321.968 -218.589)" fill="#eae8ed"/>
        <path id="Path_27453" data-name="Path 27453" d="M404.54,240.533l-15.483,8.944a2.012,2.012,0,0,1-1.821,0h0a.555.555,0,0,1,0-1.052l15.483-8.944a2.012,2.012,0,0,1,1.821,0h0A.555.555,0,0,1,404.54,240.533Z" transform="translate(-353.578 -233.695)" fill="#eae8ed"/>
        <path id="Path_27454" data-name="Path 27454" d="M310.385,317.413l-4.532,2.618a2.01,2.01,0,0,1-1.821,0h0a.555.555,0,0,1,0-1.052l4.532-2.618a2.01,2.01,0,0,1,1.821,0h0A.555.555,0,0,1,310.385,317.413Z" transform="translate(-288.641 -293.697)" fill="#eae8ed"/>
        <path id="Path_27455" data-name="Path 27455" d="M487.368,215.174l-4.532,2.618a2.012,2.012,0,0,1-1.821,0h0a.556.556,0,0,1,0-1.052l4.532-2.618a2.012,2.012,0,0,1,1.821,0h0A.555.555,0,0,1,487.368,215.174Z" transform="translate(-426.768 -213.904)" fill="#eae8ed"/>
        <path id="Path_27456" data-name="Path 27456" d="M287.889,243.79l-15.483,8.944a2.011,2.011,0,0,1-1.821,0h0a.555.555,0,0,1,0-1.052l15.483-8.944a2.011,2.011,0,0,1,1.821,0h0A.555.555,0,0,1,287.889,243.79Z" transform="translate(-262.538 -236.237)" fill="#eae8ed"/>
        <path id="Path_27457" data-name="Path 27457" d="M370.717,218.431l-4.532,2.618a2.012,2.012,0,0,1-1.821,0h0a.555.555,0,0,1,0-1.052l4.532-2.618a2.013,2.013,0,0,1,1.821,0h0A.555.555,0,0,1,370.717,218.431Z" transform="translate(-335.728 -216.446)" fill="#eae8ed"/>
      </g>
      <g id="Group_36777" data-name="Group 36777" transform="translate(0.817 20.855)">
        <g id="Group_36776" data-name="Group 36776" transform="translate(0 13.19)">
          <path id="Path_27458" data-name="Path 27458" d="M256.676,401.714l-15.483,8.944a2.012,2.012,0,0,1-1.821,0h0a.555.555,0,0,1,0-1.052l15.483-8.944a2.012,2.012,0,0,1,1.821,0h0A.555.555,0,0,1,256.676,401.714Z" transform="translate(-238.995 -393.534)" fill="#eae8ed"/>
          <path id="Path_27459" data-name="Path 27459" d="M337.109,370.242l-8.182,4.727a2.012,2.012,0,0,1-1.821,0h0a.555.555,0,0,1,0-1.052l8.182-4.727a2.012,2.012,0,0,1,1.821,0h0A.555.555,0,0,1,337.109,370.242Z" transform="translate(-307.467 -368.972)" fill="#eae8ed"/>
        </g>
        <path id="Path_27460" data-name="Path 27460" d="M277.583,368.26,262.1,377.2a2.012,2.012,0,0,1-1.821,0h0a.555.555,0,0,1,0-1.052l15.483-8.944a2.013,2.013,0,0,1,1.821,0h0A.555.555,0,0,1,277.583,368.26Z" transform="translate(-255.311 -354.235)" fill="#eae8ed"/>
        <path id="Path_27461" data-name="Path 27461" d="M367.76,316.166l-15.483,8.944a2.012,2.012,0,0,1-1.821,0h0a.555.555,0,0,1,0-1.052l15.483-8.944a2.012,2.012,0,0,1,1.821,0h0A.556.556,0,0,1,367.76,316.166Z" transform="translate(-325.69 -313.578)" fill="#eae8ed"/>
        <path id="Path_27462" data-name="Path 27462" d="M408.262,335.522l-15.483,8.944a2.012,2.012,0,0,1-1.821,0h0a.555.555,0,0,1,0-1.052l15.483-8.944a2.012,2.012,0,0,1,1.821,0h0A.555.555,0,0,1,408.262,335.522Z" transform="translate(-357.3 -328.684)" fill="#eae8ed"/>
        <path id="Path_27463" data-name="Path 27463" d="M314.107,412.4l-4.532,2.618a2.012,2.012,0,0,1-1.821,0h0a.555.555,0,0,1,0-1.052l4.532-2.618a2.011,2.011,0,0,1,1.821,0h0A.555.555,0,0,1,314.107,412.4Z" transform="translate(-292.363 -388.686)" fill="#eae8ed"/>
        <path id="Path_27464" data-name="Path 27464" d="M491.091,310.163l-4.532,2.618a2.012,2.012,0,0,1-1.821,0h0a.556.556,0,0,1,0-1.052l4.532-2.618a2.012,2.012,0,0,1,1.821,0h0A.555.555,0,0,1,491.091,310.163Z" transform="translate(-430.491 -308.893)" fill="#eae8ed"/>
        <path id="Path_27465" data-name="Path 27465" d="M291.611,338.779l-15.483,8.944a2.013,2.013,0,0,1-1.821,0h0a.555.555,0,0,1,0-1.052l15.483-8.944a2.011,2.011,0,0,1,1.821,0h0A.555.555,0,0,1,291.611,338.779Z" transform="translate(-266.26 -331.226)" fill="#eae8ed"/>
        <path id="Path_27466" data-name="Path 27466" d="M374.44,313.42l-4.532,2.618a2.012,2.012,0,0,1-1.821,0h0a.555.555,0,0,1,0-1.052l4.532-2.618a2.012,2.012,0,0,1,1.821,0h0A.555.555,0,0,1,374.44,313.42Z" transform="translate(-339.45 -311.435)" fill="#eae8ed"/>
      </g>
      <g id="Group_36779" data-name="Group 36779" transform="translate(24.571 16.417)">
        <g id="Group_36778" data-name="Group 36778" transform="translate(0 13.19)">
          <path id="Path_27467" data-name="Path 27467" d="M364.871,381.5l-15.483,8.944a2.011,2.011,0,0,1-1.821,0h0a.555.555,0,0,1,0-1.052l15.483-8.944a2.011,2.011,0,0,1,1.821,0h0A.555.555,0,0,1,364.871,381.5Z" transform="translate(-347.19 -373.322)" fill="#eae8ed"/>
          <path id="Path_27468" data-name="Path 27468" d="M445.3,350.03l-8.182,4.727a2.01,2.01,0,0,1-1.821,0h0a.555.555,0,0,1,0-1.052l8.182-4.727a2.011,2.011,0,0,1,1.821,0h0A.555.555,0,0,1,445.3,350.03Z" transform="translate(-415.662 -348.76)" fill="#eae8ed"/>
        </g>
        <path id="Path_27469" data-name="Path 27469" d="M385.778,348.048,370.3,356.992a2.01,2.01,0,0,1-1.821,0h0a.555.555,0,0,1,0-1.052L383.957,347a2.011,2.011,0,0,1,1.821,0h0A.555.555,0,0,1,385.778,348.048Z" transform="translate(-363.507 -334.023)" fill="#eae8ed"/>
        <path id="Path_27470" data-name="Path 27470" d="M475.956,295.955,460.473,304.9a2.012,2.012,0,0,1-1.821,0h0a.556.556,0,0,1,0-1.052l15.483-8.944a2.012,2.012,0,0,1,1.821,0h0A.555.555,0,0,1,475.956,295.955Z" transform="translate(-433.886 -293.367)" fill="#eae8ed"/>
        <path id="Path_27471" data-name="Path 27471" d="M516.458,315.311l-15.483,8.944a2.011,2.011,0,0,1-1.821,0h0a.555.555,0,0,1,0-1.052l15.483-8.944a2.013,2.013,0,0,1,1.821,0h0A.556.556,0,0,1,516.458,315.311Z" transform="translate(-465.496 -308.473)" fill="#eae8ed"/>
        <path id="Path_27472" data-name="Path 27472" d="M422.3,392.191l-4.532,2.618a2.012,2.012,0,0,1-1.821,0h0a.555.555,0,0,1,0-1.052l4.532-2.618a2.012,2.012,0,0,1,1.821,0h0A.555.555,0,0,1,422.3,392.191Z" transform="translate(-400.559 -368.474)" fill="#eae8ed"/>
        <path id="Path_27473" data-name="Path 27473" d="M599.286,289.951l-4.532,2.618a2.012,2.012,0,0,1-1.821,0h0a.555.555,0,0,1,0-1.052l4.532-2.618a2.012,2.012,0,0,1,1.821,0h0A.556.556,0,0,1,599.286,289.951Z" transform="translate(-538.686 -288.681)" fill="#eae8ed"/>
        <path id="Path_27474" data-name="Path 27474" d="M399.807,318.568l-15.483,8.944a2.012,2.012,0,0,1-1.821,0h0a.555.555,0,0,1,0-1.052l15.483-8.944a2.012,2.012,0,0,1,1.821,0h0A.555.555,0,0,1,399.807,318.568Z" transform="translate(-374.456 -311.015)" fill="#eae8ed"/>
        <path id="Path_27475" data-name="Path 27475" d="M482.635,293.209l-4.532,2.618a2.012,2.012,0,0,1-1.821,0h0a.556.556,0,0,1,0-1.052l4.532-2.618a2.012,2.012,0,0,1,1.821,0h0A.555.555,0,0,1,482.635,293.209Z" transform="translate(-447.646 -291.223)" fill="#eae8ed"/>
      </g>
      <g id="Group_36780" data-name="Group 36780" transform="translate(40.356 1.084)">
        <path id="Path_27476" data-name="Path 27476" d="M512.914,226.116l-15.483,8.944a2.011,2.011,0,0,1-1.821,0h0a.555.555,0,0,1,0-1.052l15.483-8.944a2.011,2.011,0,0,1,1.821,0h0A.555.555,0,0,1,512.914,226.116Z" transform="translate(-478.514 -223.528)" fill="#eae8ed"/>
        <path id="Path_27477" data-name="Path 27477" d="M553.416,245.472l-15.483,8.944a2.012,2.012,0,0,1-1.821,0h0a.555.555,0,0,1,0-1.052L551.6,244.42a2.011,2.011,0,0,1,1.821,0h0A.555.555,0,0,1,553.416,245.472Z" transform="translate(-510.124 -238.634)" fill="#eae8ed"/>
        <path id="Path_27478" data-name="Path 27478" d="M636.244,220.113l-4.532,2.618a2.012,2.012,0,0,1-1.821,0h0a.555.555,0,0,1,0-1.052l4.532-2.618a2.012,2.012,0,0,1,1.821,0h0A.555.555,0,0,1,636.244,220.113Z" transform="translate(-583.314 -218.843)" fill="#eae8ed"/>
        <path id="Path_27479" data-name="Path 27479" d="M436.765,248.73l-15.483,8.944a2.011,2.011,0,0,1-1.821,0h0a.555.555,0,0,1,0-1.052l15.483-8.944a2.012,2.012,0,0,1,1.821,0h0A.555.555,0,0,1,436.765,248.73Z" transform="translate(-419.084 -241.177)" fill="#eae8ed"/>
        <path id="Path_27480" data-name="Path 27480" d="M519.593,223.37l-4.532,2.618a2.01,2.01,0,0,1-1.821,0h0a.555.555,0,0,1,0-1.052l4.532-2.618a2.011,2.011,0,0,1,1.821,0h0A.555.555,0,0,1,519.593,223.37Z" transform="translate(-492.274 -221.385)" fill="#eae8ed"/>
      </g>
    </g>
    <path id="Path_27481" data-name="Path 27481" d="M276.407,254.071a.772.772,0,0,1,0,1.463,2.8,2.8,0,0,1-2.532,0,.772.772,0,0,1,0-1.463A2.8,2.8,0,0,1,276.407,254.071Z" transform="translate(-261.994 -207.316)" fill="#eae8ed"/>
    <g id="Group_36782" data-name="Group 36782" transform="translate(16.97 18.718)">
      <path id="Path_27482" data-name="Path 27482" d="M378.322,220.98v.838l-23.546,9.169v-.838Z" transform="translate(-342.513 -200.445)" fill="#7f542e"/>
      <path id="Path_27483" data-name="Path 27483" d="M406.319,200.325v.84c-3.167,1.23,6.535-2.544-15.67,6.1l4.466-2.579Z" transform="translate(-370.51 -184.325)" fill="#7f542e"/>
      <path id="Path_27484" data-name="Path 27484" d="M422.194,195.854l-11.2,4.363,9.734-5.621Z" transform="translate(-386.385 -179.853)" fill="#a26d42"/>
      <path id="Path_27485" data-name="Path 27485" d="M369.848,199.752v-.84l20.081-11.594v.84Q383.384,191.933,369.848,199.752Z" transform="translate(-354.275 -174.173)" fill="#6899f4"/>
      <path id="Path_27486" data-name="Path 27486" d="M378.61,209.361l-22.051,8.586V214.7l2.028-.79v0l.889.514,4.567-2.636,14.567-5.672Z" transform="translate(-343.904 -188.839)" fill="#a5b3bf"/>
      <path id="Path_27487" data-name="Path 27487" d="M389.5,176.526,370.7,187.385v-3.174L389.5,173.352Z" transform="translate(-354.936 -163.273)" fill="#a5b3bf"/>
      <path id="Path_27488" data-name="Path 27488" d="M369.848,179.1v-.84l20.081-11.594v.838C388.412,168.386,370.148,178.93,369.848,179.1Z" transform="translate(-354.275 -158.059)" fill="#6899f4"/>
      <path id="Path_27489" data-name="Path 27489" d="M357.2,239.836v0l-2.42.942v-.84l1.554-.6Z" transform="translate(-342.512 -214.771)" fill="#7f542e"/>
      <path id="Path_27490" data-name="Path 27490" d="M337.18,225.092l-1.554.6-5.387-4.611Z" transform="translate(-323.363 -200.527)" fill="#a26d42"/>
      <path id="Path_27491" data-name="Path 27491" d="M339.217,226.2l22.051-8.586v-.93l1.1.944-23.546,9.169-4.487-3.844a1.624,1.624,0,0,1,.379-.6Z" transform="translate(-326.562 -197.089)" fill="#a26d42"/>
      <path id="Path_27492" data-name="Path 27492" d="M316.271,214.979v3.251l-4.5-3.851a2.77,2.77,0,0,1,.781-.549v-.112l-2.131-1.824a2.861,2.861,0,0,0-.85.6c-.045-.045.029.025-4.021-3.442a2.1,2.1,0,0,1-.613-1.421v-1.16l2.547,1.47,8.395,7.188Z" transform="translate(-303.616 -189.123)" fill="#dfe3e7"/>
      <path id="Path_27493" data-name="Path 27493" d="M338.477,249.078v.838L333.9,246a1.721,1.721,0,0,1,.088-.765Z" transform="translate(-326.214 -219.374)" fill="#c48b5e"/>
      <path id="Path_27494" data-name="Path 27494" d="M324.934,219.519v.84l-8.395-7.188,3,1.736C319.561,214.915,319.4,214.781,324.934,219.519Z" transform="translate(-312.67 -194.349)" fill="#c48b5e"/>
      <path id="Path_27495" data-name="Path 27495" d="M327.185,232.987a2.057,2.057,0,0,0-1.217,2.748l-2.131-1.825a2.061,2.061,0,0,1,1.217-2.747Z" transform="translate(-318.248 -208.392)" fill="#d2898a"/>
      <path id="Path_27496" data-name="Path 27496" d="M333.535,242.221a2.057,2.057,0,0,1,1.217-2.748v.112a1.9,1.9,0,0,0-1.1,2.574Z" transform="translate(-325.816 -214.878)" fill="#c95b68"/>
      <path id="Path_27497" data-name="Path 27497" d="M305.429,186.189c.1.041-.865-.511,14.134,8.149l.186-.108V197.4l-13.557-7.826a1.71,1.71,0,0,1-.774-1.343C305.419,186.189,305.414,186.279,305.429,186.189Z" transform="translate(-303.991 -173.292)" fill="#dfe3e7"/>
      <path id="Path_27498" data-name="Path 27498" d="M303.164,184.841c-.016.1-.011,0-.011,2.046a1.71,1.71,0,0,0,.774,1.343l13.557,7.826L336.292,185.2v-.735l1.088.627L317.3,196.683,303.292,188.6a1.7,1.7,0,0,1-.776-1.343v-1.9a.643.643,0,0,1,.154-.45A.466.466,0,0,1,303.164,184.841Z" transform="translate(-301.726 -171.944)" fill="#9ed2e9"/>
      <path id="Path_27499" data-name="Path 27499" d="M302.276,204.8v1.16a2.1,2.1,0,0,0,.613,1.421c4.659,3.988,3.96,3.381,4.021,3.442a1.792,1.792,0,0,0-.39.6c-.018,0,0,0-4.379-3.747a2.1,2.1,0,0,1-.613-1.421,10.334,10.334,0,0,1,.016-1.92A3.286,3.286,0,0,0,302.276,204.8Z" transform="translate(-300.955 -187.454)" fill="#a26d42"/>
      <path id="Path_27500" data-name="Path 27500" d="M300.241,139.092c21.557-12.447,20.1-11.623,20.217-11.64a.615.615,0,0,1,.413.1l14.733,8.506-20.081,11.594c-15.7-9.068-14.808-8.581-15-8.606A.478.478,0,0,0,300.241,139.092Z" transform="translate(-299.951 -127.446)" fill="#9ed2e9"/>
      <path id="Path_27501" data-name="Path 27501" d="M387.43,147.133l6.39,3.689a1.048,1.048,0,0,0,.948,0l.315-.182a.289.289,0,0,0,0-.547l-6.39-3.689a1.047,1.047,0,0,0-.948,0l-.315.182A.289.289,0,0,0,387.43,147.133Z" transform="translate(-367.844 -142.153)" fill="#76b2cc"/>
      <path id="Path_27502" data-name="Path 27502" d="M298.982,197.3a1.721,1.721,0,0,0,.526,1.152,11.354,11.354,0,0,0-.016,1.92,2.1,2.1,0,0,0,.613,1.421c4.452,3.811,4.361,3.747,4.379,3.747a1.822,1.822,0,0,0-.129.728c-.018,0,.065.057-4.824-4.127a2.1,2.1,0,0,1-.613-1.421v-3.582a.8.8,0,0,1,.064-.342Z" transform="translate(-298.918 -181.566)" fill="#c48b5e"/>
      <path id="Path_27503" data-name="Path 27503" d="M318.943,188.007c-.469.182-.911.351-1.352.524a.913.913,0,0,1-1.127-.2.853.853,0,0,0-1.116-.186,7.444,7.444,0,0,1-.979.381,4.046,4.046,0,0,1-.769.077v-.838a10.327,10.327,0,0,0,1.278-.587c-.281-.022-.887-.01-.887-.01V185.4a1.67,1.67,0,0,0-.322-.658q-2.688-2.278-5.355-4.58a1.606,1.606,0,0,0-.843-.331c-.649-.113-1.294-.252-1.947-.329a.947.947,0,0,1-.865-.827c-.089-.36-.188-.719-.249-1.084a3.1,3.1,0,0,0-.969-1.732c1.4.682,3.072,1.774,4.541,2.623h-.9c2.19,1.894,6.522,5.584,6.522,5.584v-.838l1.553-.606.285.179s.921.525,1.433.816c.025-.317.044-.558.063-.805.274-.181.616-.365.964-.6-.282-.032-.8-.047-.8-.047s-.011-1,.019-1.449c.026-.39-.14-.529-.455-.71q-4.45-2.556-8.892-5.127c-1.143-.659-2.284-1.319-3.431-1.972-.72-.41-.969-.269-.983.541,0,.223,0,.445,0,.715a1.656,1.656,0,0,1-1.162-.407,1.026,1.026,0,0,1-.064-.653,12.837,12.837,0,0,1-.08-2.033c.16-.382.627-.157.627-.157a5.991,5.991,0,0,1,.6.318l12.8,7.388c.245.141.836.479.836.479v-.84l20.081-11.594v.838l-1.088.629v2.439l1.088.627v.84l-.827.483c2.783,1.662,5.631,3.188,8.43,4.863-.281.179-.482.318-.693.44q-8.731,5.034-17.464,10.065c-.536.309-1.074.612-1.6.934a1.175,1.175,0,0,1-1.231.013,4.634,4.634,0,0,1-.535-.31.8.8,0,0,0-.928-.008c-.161.092-.324.181-.479.282a1.2,1.2,0,0,1-1.339,0C319.859,188.541,319.4,188.271,318.943,188.007Z" transform="translate(-301.336 -158.059)" fill="#b0a7c2" style="mix-blend-mode: multiply;isolation: isolate"/>
      <path id="Path_27504" data-name="Path 27504" d="M334.228,242.141c-.248,0-.468.08-.669.08a2.051,2.051,0,0,1,1.217-2.748c.247.414.082,1.01.238,1.508l-.786.3Z" transform="translate(-325.84 -214.878)" fill="#c5bed1" style="mix-blend-mode: multiply;isolation: isolate"/>
      <path id="Path_27505" data-name="Path 27505" d="M303.081,205.256c-.648.428-.415,1.11-.314,1.981-.31-.129-.9-.733-1.211-.861,0-.724.011-1.365.011-2.04A3.888,3.888,0,0,1,303.081,205.256Z" transform="translate(-300.977 -187.454)" fill="#c5bed1" style="mix-blend-mode: multiply;isolation: isolate"/>
      <path id="Path_27506" data-name="Path 27506" d="M299.362,180.364a.443.443,0,0,1,.353-.1c.194.025-.7-.46,15,8.606v.84c-14.959-8.637-14.091-8.161-14.276-8.188a.442.442,0,0,0-.353.1.643.643,0,0,0-.154.45v1.9a1.7,1.7,0,0,0,.776,1.343l14.007,8.087v.84l-14.733-8.506a1.7,1.7,0,0,1-.776-1.343v-3.582A.643.643,0,0,1,299.362,180.364Z" transform="translate(-299.144 -168.667)" fill="#82c2e8"/>
    </g>
    <path id="Path_27507" data-name="Path 27507" d="M616.753,342.37a.772.772,0,0,1,0,1.463,2.8,2.8,0,0,1-2.532,0,.772.772,0,0,1,0-1.463A2.8,2.8,0,0,1,616.753,342.37Z" transform="translate(-527.617 -276.229)" fill="#eae8ed"/>
    <g id="Group_36789" data-name="Group 36789" transform="translate(49.25)">
      <g id="Group_36788" data-name="Group 36788" transform="translate(0)">
        <path id="Path_27508" data-name="Path 27508" d="M448.476,99.757a5.092,5.092,0,0,0,.547,1.948,5.834,5.834,0,0,0,1.215,1.62,9.451,9.451,0,0,0,1.74,1.083c.908.492,1.751,1.018,2.627,1.543.224.133,14.622,8.449,14.863,8.548,1.191.5,2.08-.219,2.08-1.576.094-39.721.043-32.264.077-34.63.011-1.729.055-3.47.033-5.2-.011-1.149-.044-2.287-.022-3.448a10.614,10.614,0,0,0-.022-1.445,5.547,5.547,0,0,0-1.948-3.437,8.185,8.185,0,0,0-1.226-.755c-.679-.383-1.335-.777-1.992-1.16-2.261-1.323-4.511-2.554-7.508-4.312-5.472-3.256-5.077-2.816-6.5-3.732-.985-.636-2.3-1.664-3.262-.963-.684.489-.624,1.52-.6,2.277.036,1.1-.057.873-.011,4.9C448.572,62.9,448.447,99.164,448.476,99.757ZM462.464,62a.187.187,0,0,1-.011.077c-.011.033-.011.055-.033.066a.086.086,0,0,1-.044.044c-.145.072.106.17-4.323-2.386a.485.485,0,0,1-.077-.066.4.4,0,0,1-.131-.164c-.112-.169-.088-.274-.088-.613,0-.089.014-.16.088-.2a.136.136,0,0,1,.131-.011.118.118,0,0,1,.077.033c.646.387,4.109,2.347,4.192,2.43a.507.507,0,0,1,.175.263A1.188,1.188,0,0,1,462.464,62Z" transform="translate(-447.918 -51.1)" fill="url(#linear-gradient)"/>
        <g id="Group_36784" data-name="Group 36784" transform="translate(2.669 6.232)">
          <g id="Group_36783" data-name="Group 36783" transform="translate(0.041 4.491)">
            <path id="Path_27509" data-name="Path 27509" d="M462.25,94.447l-3.239-1.87a1.491,1.491,0,0,1-.719-1.134h0c0-.4.322-.533.719-.3l3.239,1.87a1.491,1.491,0,0,1,.719,1.134h0C462.969,94.541,462.647,94.677,462.25,94.447Z" transform="translate(-458.292 -91.028)" fill="#fcfcfc" opacity="0.69"/>
            <path id="Path_27510" data-name="Path 27510" d="M462.25,103.647l-3.239-1.87a1.491,1.491,0,0,1-.719-1.134h0c0-.4.322-.533.719-.3l3.239,1.87a1.491,1.491,0,0,1,.719,1.134h0C462.969,103.741,462.647,103.877,462.25,103.647Z" transform="translate(-458.292 -98.208)" fill="#fcfcfc" opacity="0.69"/>
          </g>
          <path id="Path_27511" data-name="Path 27511" d="M475.309,82.84l-15.723-9.078a3.07,3.07,0,0,1-1.48-2.335h0c0-.818.663-1.1,1.48-.626l15.723,9.077a3.07,3.07,0,0,1,1.48,2.335h0C476.79,83.032,476.127,83.312,475.309,82.84Z" transform="translate(-458.106 -70.573)" fill="#fcfcfc" opacity="0.69"/>
        </g>
        <path id="Path_27512" data-name="Path 27512" d="M492.361,77.312c4.394,2.534,4.212,2.358,4.312,2.66a.177.177,0,0,1,.033.1.3.3,0,0,1,.011.1v.263c-4.478-2.59-4.072-2.343-4.17-2.441a.637.637,0,0,1-.186-.427Z" transform="translate(-482.171 -69.601)" fill="#3f4f5d"/>
        <path id="Path_27513" data-name="Path 27513" d="M490.974,76.972a.118.118,0,0,1,.077.033l.055.033a1.286,1.286,0,0,0,.022.405.692.692,0,0,0,.285.372l4.05,2.342v.066a.186.186,0,0,1-.011.077c-.011.033-.011.055-.033.066a.086.086,0,0,1-.044.044c-.055.027-.035.022-.132.022-.022-.011-.055-.022-.076-.033-4.2-2.426-4.258-2.41-4.323-2.6-.115-.173-.088-.3-.088-.613a.3.3,0,0,1,.033-.153A.156.156,0,0,1,490.974,76.972Z" transform="translate(-480.916 -69.326)" fill="#5d6571"/>
        <path id="Path_27514" data-name="Path 27514" d="M452.537,44.372a2.153,2.153,0,0,0-2.1-.219c3.238-1.826,3.176-1.9,3.612-1.948a2.47,2.47,0,0,1,1.6.383l18.212,10.518a6.611,6.611,0,0,1,2.988,5.188c-.105,47.318-.081,44.37-.131,44.819a2,2,0,0,1-.843,1.379c-3.911,2.229-3.007,1.77-2.824,1.587a2.594,2.594,0,0,0,.6-1.74l.088-44.261a6.582,6.582,0,0,0-2.988-5.188Z" transform="translate(-449.451 -42.188)" fill="#8140ff"/>
        <path id="Path_27515" data-name="Path 27515" d="M467.248,61.228,449.035,50.71a2.153,2.153,0,0,0-2.1-.219.011.011,0,0,1-.011.011,2.132,2.132,0,0,0-.887,1.937l-.085,41.669,0,0V96.7a6.575,6.575,0,0,0,2.977,5.188l18.223,10.518c1.543.9,2.961.294,3-1.729l.088-44.261A6.58,6.58,0,0,0,467.248,61.228Zm2.408,14.491c-.032,2.249.017-4.912-.077,34.63,0,1.354-.886,2.078-2.08,1.576-.234-.1-14.647-8.419-14.863-8.548-.876-.525-1.718-1.051-2.627-1.543a9.465,9.465,0,0,1-1.74-1.083,5.834,5.834,0,0,1-1.215-1.62,5.091,5.091,0,0,1-.547-1.948c-.027-.55.006-.314.011-2.262h0c0-25.824.086-34.589.077-36.472-.046-4.03.047-3.8.011-4.9a3.7,3.7,0,0,1,.23-1.839,1.2,1.2,0,0,1,.766-.624c.863-.288,2.107.658,2.868,1.149.8.514,1.664.952,2.506,1.412,2,1.08,3.369,2.006,7.99,4.619,4.887,2.786,4.289,2.487,5.505,3.174a5.539,5.539,0,0,1,2.036,1.576,6.05,6.05,0,0,1,.854,1.5,5.766,5.766,0,0,1,.306,2.561c-.022,1.16.011,2.3.022,3.448C469.711,72.25,469.667,73.99,469.656,75.72Z" transform="translate(-445.949 -48.526)" fill="#a68efe"/>
        <g id="Group_36785" data-name="Group 36785" transform="translate(2.74 26.631)">
          <path id="Path_27516" data-name="Path 27516" d="M477.042,184c0,.65-.527.873-1.178.5l-16.258-9.387a2.442,2.442,0,0,1-1.177-1.857v-9.089c0-.65.527-.873,1.177-.5l16.258,9.387a2.442,2.442,0,0,1,1.177,1.857Z" transform="translate(-458.429 -163.488)" fill="#fcfcfc" opacity="0.69"/>
          <ellipse id="Ellipse_266" data-name="Ellipse 266" cx="1.966" cy="3.476" rx="1.966" ry="3.476" transform="translate(5.646 9.002) rotate(-36.949)" fill="#9d8cf9"/>
          <path id="Path_27517" data-name="Path 27517" d="M499.019,206.511a.58.58,0,0,1,.153.352c0,.109-.058.176-.153.176h-1.746a.45.45,0,0,1-.305-.176.58.58,0,0,1-.153-.352v-2.017c0-.109.058-.176.153-.176a.451.451,0,0,1,.305.176Z" transform="translate(-488.387 -195.354)" fill="#fcfcfc" opacity="0.69"/>
        </g>
        <g id="Group_36786" data-name="Group 36786" transform="translate(2.74 39.061)">
          <path id="Path_27518" data-name="Path 27518" d="M477.042,240.62c0,.65-.527.873-1.178.5l-16.258-9.386a2.442,2.442,0,0,1-1.177-1.857v-9.089c0-.65.527-.873,1.177-.5l16.258,9.387a2.442,2.442,0,0,1,1.177,1.857Z" transform="translate(-458.429 -220.105)" fill="#fcfcfc" opacity="0.69"/>
          <path id="Path_27519" data-name="Path 27519" d="M494.138,259.151c0,1.444-1.17,1.938-2.614,1.1a5.421,5.421,0,0,1-2.614-4.123c0-1.444,1.17-1.938,2.614-1.1A5.422,5.422,0,0,1,494.138,259.151Z" transform="translate(-482.218 -247.045)" fill="#9d8cf9"/>
          <path id="Path_27520" data-name="Path 27520" d="M499.019,263.127a.581.581,0,0,1,.153.352c0,.109-.058.176-.153.176h-1.746a.45.45,0,0,1-.305-.176.58.58,0,0,1-.153-.352v-2.016c0-.109.058-.176.153-.176a.45.45,0,0,1,.305.176Z" transform="translate(-488.387 -251.971)" fill="#fcfcfc" opacity="0.69"/>
        </g>
        <g id="Group_36787" data-name="Group 36787" transform="translate(2.74 15.552)">
          <path id="Path_27521" data-name="Path 27521" d="M477.042,132.221c0,.65-.527.873-1.178.5l-16.258-9.387a2.442,2.442,0,0,1-1.177-1.857V113.7c0-.65.527-.873,1.177-.5l16.258,9.387a2.442,2.442,0,0,1,1.177,1.857Z" transform="translate(-458.429 -113.023)" fill="#fcfcfc" opacity="0.69"/>
        </g>
        <path id="Path_27522" data-name="Path 27522" d="M494.138,149.07c0,1.444-1.17,1.938-2.614,1.1a5.422,5.422,0,0,1-2.614-4.124c0-1.444,1.17-1.938,2.614-1.1A5.421,5.421,0,0,1,494.138,149.07Z" transform="translate(-479.478 -122.07)" fill="#9d8cf9"/>
        <path id="Path_27523" data-name="Path 27523" d="M499.019,153.046a.58.58,0,0,1,.153.352c0,.109-.058.176-.153.176h-1.746a.45.45,0,0,1-.305-.176.58.58,0,0,1-.153-.352v-2.017c0-.109.058-.176.153-.176a.451.451,0,0,1,.305.176Z" transform="translate(-485.647 -126.996)" fill="#fcfcfc" opacity="0.69"/>
      </g>
      <path id="Path_27524" data-name="Path 27524" d="M547.887,140.655l.058-29.428s2.253.374,2.8-3.5c.429.623.308,4.636.308,4.636l-.067,28.414s4.1.085,6.252.049a10.1,10.1,0,0,1,5.378,1.437c.022.013,6.9,3.921,12.8,7.39a4.827,4.827,0,0,1,2.231,1.775,6.1,6.1,0,0,1-4.272,1.808c-5.3-.08-10.594.01-15.89-.056a6.43,6.43,0,0,0-3.481.957c-2,1.179-4.024,2.308-6.016,3.494a2.228,2.228,0,0,1-2.473-.113c2.964.917,2.346-3.848,2.346-3.848Z" transform="translate(-523.659 -93.337)" fill="#b0a7c2" style="mix-blend-mode: multiply;isolation: isolate"/>
    </g>
    <g id="Group_36791" data-name="Group 36791" transform="translate(59.572 48.573)">
      <g id="Group_36790" data-name="Group 36790" transform="translate(0)">
        <path id="Path_27525" data-name="Path 27525" d="M594.873,316.14v-2.468a1.179,1.179,0,0,0-.534-.926l13.846-7.993a1.178,1.178,0,0,1,.534.925v2.469a.374.374,0,0,1-.157.346l-13.841,7.992A.39.39,0,0,0,594.873,316.14Z" transform="translate(-572.081 -295.68)" fill="#9f3759"/>
        <path id="Path_27526" data-name="Path 27526" d="M600.539,283.9,586.693,291.9l-1.147-.663q-.5-4.911-1-9.825l5.839-3.37Z" transform="translate(-564.435 -274.831)" fill="#bb426a"/>
        <path id="Path_27527" data-name="Path 27527" d="M590.584,342.57a.448.448,0,0,1-.322-.063l-.744-.431c-.021-.2-.043-.41-.063-.614.315.182.377.23.491.247a.315.315,0,0,0,.2-.036.324.324,0,0,0,.141-.244c.013-.067.009.038.009-1.41a1.179,1.179,0,0,0-.534-.926l-.584-.337q-.032-.306-.063-.614l1.147.663a1.179,1.179,0,0,1,.534.926V342.2a.39.39,0,0,1-.152.345A.271.271,0,0,1,590.584,342.57Z" transform="translate(-568.004 -321.737)" fill="#bb426a"/>
        <path id="Path_27528" data-name="Path 27528" d="M590.51,343.611c-.055-.021-.027-.008-.888-.505q-.113-1.083-.222-2.168l.584.337a1.178,1.178,0,0,1,.534.926C590.519,343.621,590.523,343.546,590.51,343.611Z" transform="translate(-568.228 -323.92)" fill="#c8d1dd"/>
        <path id="Path_27529" data-name="Path 27529" d="M591.151,351.569a.381.381,0,0,1-.377-.038l-.307-.178h0c-.018-.179-.036-.359-.054-.539.854.493.834.485.888.505a.324.324,0,0,1-.141.244Z" transform="translate(-569.016 -331.629)" fill="#cd7e8e"/>
        <path id="Path_27530" data-name="Path 27530" d="M573.664,305.676c.028.276.056.552.084.827a.438.438,0,0,1-.218.386l-2.125,1.5a1.08,1.08,0,0,1-1.067.067l-1.394-13.646v-1.1a.323.323,0,0,0-.143-.253l0-.005a1.077,1.077,0,0,0,1.067-.066l2.125-1.5a.425.425,0,0,0,.217-.385C572.227,291.5,572.8,297.409,573.664,305.676Z" transform="translate(-552.151 -285.338)" fill="#da926e"/>
        <path id="Path_27531" data-name="Path 27531" d="M578.938,290.974a.535.535,0,0,0-.1-.072h0l-.048-.475A.355.355,0,0,1,578.938,290.974Z" transform="translate(-559.948 -284.5)" fill="#e2ae4a"/>
        <path id="Path_27532" data-name="Path 27532" d="M539.335,273.485c-.074.1-.081.094-1.272.935a1.08,1.08,0,0,1-1.065.067l-8.949-5.167,1.843-1.3C539.95,273.825,539.287,273.439,539.335,273.485Z" transform="translate(-520.345 -267.011)" fill="#c8d1dd"/>
        <path id="Path_27533" data-name="Path 27533" d="M544.513,271.083l-9.346-5.395-.272.192-.086-.847,9.657,5.575Z" transform="translate(-525.621 -264.681)" fill="#e2ae4a"/>
        <path id="Path_27534" data-name="Path 27534" d="M569.453,306.573l1.394,13.646-1.394-.8Z" transform="translate(-552.659 -297.101)" fill="#da926e"/>
        <path id="Path_27535" data-name="Path 27535" d="M557.266,317.553a.376.376,0,0,1-.222.31l-2.137,1.235a1.194,1.194,0,0,1-.849.088V303.428a.332.332,0,0,0-.069-.193.549.549,0,0,0-.152-.125,1.173,1.173,0,0,0,1.069,0,14.82,14.82,0,0,0,2.29-1.36.331.331,0,0,0,.069-.183Z" transform="translate(-540.472 -293.193)" fill="#648f66"/>
        <path id="Path_27536" data-name="Path 27536" d="M529.774,280.591a.325.325,0,0,1-.135.315c-.048-.041.6.336-9.427-5.451l-.31.179v-.866l9.657,5.575A.445.445,0,0,1,529.774,280.591Z" transform="translate(-513.987 -272.278)" fill="#72a368"/>
        <path id="Path_27537" data-name="Path 27537" d="M523.249,284.058a1.178,1.178,0,0,1-1.069,0l-8.906-5.142,1.765-1.02c10.02,5.785,9.379,5.41,9.427,5.451C524.413,283.39,524.441,283.369,523.249,284.058Z" transform="translate(-508.814 -274.72)" fill="#c8d1dd"/>
        <path id="Path_27538" data-name="Path 27538" d="M542.656,310.045v15.978a.375.375,0,0,1-.221.308l-2.138,1.234a1.177,1.177,0,0,1-1.069,0V311.579a1.178,1.178,0,0,0,1.069,0l2.138-1.235A.392.392,0,0,0,542.656,310.045Z" transform="translate(-529.07 -299.81)" fill="#5a84d9"/>
        <path id="Path_27539" data-name="Path 27539" d="M515.164,289.024a.327.327,0,0,1-.135.315c-.048-.041.6.335-9.427-5.451l-.31.179V283.2l9.657,5.575A.454.454,0,0,1,515.164,289.024Z" transform="translate(-502.585 -278.859)" fill="#6899f4"/>
        <path id="Path_27540" data-name="Path 27540" d="M509.851,291.779c-.05.043-.012.015-1.217.712a1.182,1.182,0,0,1-1.069,0l-8.907-5.143,1.766-1.02C510.444,292.113,509.8,291.738,509.851,291.779Z" transform="translate(-497.407 -281.301)" fill="#c8d1dd"/>
        <path id="Path_27541" data-name="Path 27541" d="M503.118,296.184v15.987l-10.158-5.864V290.319Z" transform="translate(-492.96 -284.415)" fill="#6899f4"/>
        <path id="Path_27542" data-name="Path 27542" d="M541.124,313.49V297.484a4.634,4.634,0,0,0,1.717-.8c.463-.256.613-.934,1.074-1.194.141-.08.418.052.673.084a.98.98,0,0,0,.468-.166c.165-.08.318-.184.477-.275s.3-.162.439-.249c.431-.261.858-.528,1.291-.785.067-.04-.145-.386-.062-.4.009-.074.322.2.331.126.028-.016.054-.044.079-.044a1.714,1.714,0,0,0,.994-.423c.645-.463,1.3-1.046,2.006-1.549.049.428.091.936.131,1.319q.274,2.618.543,5.237c.023.228.049.522.065.751a.619.619,0,0,0,.4.582c.873.475,1.734.975,2.589,1.481.392.232.761.5,1.2.8,3.836-2.193,7.632-4.409,11.615-6.685,0,.533.077.967.046,1.389-.027.366.114.528.448.7.558.285,1.091.619,1.632.936.1.059.191.135.351.25l-11.761,6.794a2.8,2.8,0,0,0,.271.212q1.786,1.037,3.574,2.07c.179.1.429.174.411.438-.016.228-.238.3-.413.391-.623.328-1.256.636-1.866.986a1.682,1.682,0,0,1-1.193.241,1.17,1.17,0,0,1-.083.42,1.066,1.066,0,0,1-.357.278c-.514.3-1.034.595-1.548.9a1.578,1.578,0,0,1-1.215.307.657.657,0,0,1-.435.643c-.628.35-1.247.715-1.865,1.083a1.562,1.562,0,0,1-.841.17q-5.33,0-10.66,0Z" transform="translate(-530.55 -285.574)" fill="#b0a7c2" style="mix-blend-mode: multiply;isolation: isolate"/>
        <path id="Path_27543" data-name="Path 27543" d="M534.912,269.357l-9.657-5.575.5-.352,10.157,5.865a.374.374,0,0,1,0,.683l-2.125,1.5a1.077,1.077,0,0,1-1.067.066l0,.005c-.055-.046.655.368-10.151-5.871l.5-.348,9.657,5.575a1.08,1.08,0,0,0,1.065-.067l1.131-.8A.374.374,0,0,0,534.912,269.357Z" transform="translate(-516.068 -263.429)" fill="#ebd863"/>
        <path id="Path_27544" data-name="Path 27544" d="M505.545,288.06a.387.387,0,0,0-.221-.31l-9.657-5.575.5-.288c10.853,6.265,10.229,5.887,10.31,5.989.143.192.05.374-.152.493l-2.138,1.235a1.178,1.178,0,0,1-1.069,0l-10.158-5.865.5-.288,9.657,5.575a1.182,1.182,0,0,0,1.069,0c1.2-.693,1.208-.683,1.289-.782A.338.338,0,0,0,505.545,288.06Z" transform="translate(-492.96 -277.835)" fill="#82c2e8"/>
        <path id="Path_27545" data-name="Path 27545" d="M521.013,279.368a.324.324,0,0,1,.143.253.379.379,0,0,1-.222.308l-2.137,1.235a1.173,1.173,0,0,1-1.069,0L507.57,275.3l.5-.29c6.191,3.582,9.636,5.564,9.657,5.575a1.178,1.178,0,0,0,1.069,0c1.123-.649,1.164-.668,1.217-.711a.347.347,0,0,0,.14-.254.384.384,0,0,0-.221-.308l-9.657-5.575.5-.29C510.79,273.455,520.952,279.316,521.013,279.368Z" transform="translate(-504.362 -271.248)" fill="#84bf80"/>
      </g>
      <path id="Path_27546" data-name="Path 27546" d="M603.5,289.93l6.39,3.689a1.047,1.047,0,0,0,.948,0l.315-.182a.289.289,0,0,0,0-.547l-6.39-3.689a1.049,1.049,0,0,0-.948,0l-.315.182A.289.289,0,0,0,603.5,289.93Z" transform="translate(-579.079 -283.454)" fill="#9f3759"/>
      <path id="Path_27547" data-name="Path 27547" d="M506.235,315.061l-6.39-3.689c-.262-.151-.474-.061-.474.2v.315a.984.984,0,0,0,.474.748l6.39,3.689c.262.151.474.061.474-.2v-.315A.983.983,0,0,0,506.235,315.061Z" transform="translate(-497.963 -300.789)" fill="#4b7cd6"/>
      <path id="Path_27548" data-name="Path 27548" d="M506.235,325.232l-6.39-3.689c-.262-.151-.474-.061-.474.2v.315a.984.984,0,0,0,.474.748l6.39,3.689c.262.151.474.061.474-.2v-.315A.983.983,0,0,0,506.235,325.232Z" transform="translate(-497.963 -308.727)" fill="#4b7cd6"/>
    </g>
    <g id="Group_36793" data-name="Group 36793" transform="translate(22.051 13.251)">
      <g id="Group_36792" data-name="Group 36792">
        <path id="Path_27549" data-name="Path 27549" d="M391.206,135.277v1.447l-12.448,7.187v-1.447Z" transform="translate(-366.31 -128.09)" fill="#785cad"/>
        <path id="Path_27550" data-name="Path 27550" d="M346.956,109.729l-12.448,7.186-5.947-3.433a1.243,1.243,0,0,1,.373-.373c.014,0,5.371-3.1,5.378-3.106a.481.481,0,0,0-.066-.852.485.485,0,0,0-.433.029c-5.708,3.295-5.337,3.094-5.359,3.094a2.193,2.193,0,0,0-.728.726c-.022-.022.423.244-5.667-3.271l12.448-7.187Z" transform="translate(-322.06 -102.542)" fill="#bfb5f4"/>
        <path id="Path_27551" data-name="Path 27551" d="M363.431,161.239a2.373,2.373,0,0,1-.209,1.041l0,0a3.443,3.443,0,0,1-.924,1.188c-2.635,2.3-8.634,2.28-11.218-.107a.786.786,0,0,0-.008-.164c-.151-.979-.307-1.846-.307-1.89a.58.58,0,0,0-.208-.359v-3.644l6.192,3.575,6.685-3.86v4.293C363.432,161.29,363.432,161.264,363.431,161.239Z" transform="translate(-344.299 -145.062)" fill="#8140ff"/>
        <path id="Path_27552" data-name="Path 27552" d="M356.742,155.806v1.448l-6.192-3.575a3.183,3.183,0,0,1,.032-.837,1.54,1.54,0,0,1,.213-.469Z" transform="translate(-344.294 -141.433)" fill="#a68efe"/>
        <path id="Path_27553" data-name="Path 27553" d="M346.171,141.9v-4.36a2.378,2.378,0,0,1,1.1-1.907c.022,0-.321.185,5.359-3.094a.5.5,0,0,1,.266-.067.482.482,0,0,1,.256.875c-.123.087-5.372,3.084-5.508,3.195a1.458,1.458,0,0,0-.511,1v4.367a.244.244,0,0,1-.141.2C346.7,142.272,346.171,142.167,346.171,141.9Z" transform="translate(-340.877 -125.903)" fill="#48413c"/>
        <path id="Path_27554" data-name="Path 27554" d="M345.416,175.036a.246.246,0,0,0,.15.2c.33.178.813.026.813-.2v-.116a.564.564,0,0,1,.144.173.6.6,0,0,1,.065.191c.073.376-.758.591-1.207.3a.307.307,0,0,1-.172-.3.576.576,0,0,1,.208-.364Z" transform="translate(-340.122 -159.028)" fill="#d2448d"/>
        <path id="Path_27555" data-name="Path 27555" d="M327.354,139.78l-5.294-3.056v-1.447c6.074,3.507,5.644,3.249,5.667,3.271a2.546,2.546,0,0,0-.226.445A2.038,2.038,0,0,0,327.354,139.78Z" transform="translate(-322.06 -128.09)" fill="#a68efe"/>
        <path id="Path_27556" data-name="Path 27556" d="M344.154,176.773c.3.39,1.317.271,1.326-.159a14.153,14.153,0,0,1,.3,1.829.155.155,0,0,1,0,.017h0c.089.474-.336.959-1.091.908-.637-.042-.974-.456-.9-.908,0-.023.3-1.863.306-1.886A.253.253,0,0,0,344.154,176.773Z" transform="translate(-339.012 -160.322)" fill="#aa226d"/>
      </g>
      <path id="Path_27557" data-name="Path 27557" d="M378.758,160.883s1.442,4.328,3.588,3.672l1.489.137.66-.153,2.125-1.5c.328-.245.261-.524,0-.683l-.893-.524a.567.567,0,0,1-.279-.516h0v-4.293Z" transform="translate(-366.31 -145.062)" fill="#b0a7c2" style="mix-blend-mode: multiply;isolation: isolate"/>
    </g>
    <g id="Group_36794" data-name="Group 36794" transform="translate(40.764 33.925)">
      <path id="Path_27558" data-name="Path 27558" d="M484.872,235.092v.017c0,.463-.8.538-.8.9,0,.209.509.611.509,1.044,0,.983-1.1,1.19-2.082,1.19-.162,0-.319,0-.47-.009h0a1.913,1.913,0,0,0-.5-1.144c.808-.427,1.224-2.022,3.22-2.022A.312.312,0,0,1,484.872,235.092Z" transform="translate(-465.229 -226.648)" fill="#e6a57a"/>
      <path id="Path_27559" data-name="Path 27559" d="M411.392,237.35a3.535,3.535,0,0,1,1.065-.564,1.893,1.893,0,0,0,.186.621,2.467,2.467,0,0,0,.661.086,5.03,5.03,0,0,0,1.678-.359,3.942,3.942,0,0,0,.086-.456,5.82,5.82,0,0,1,1.633.769,3.9,3.9,0,0,0,2.232.691c2.043-.016,4.27.816,5.679.458.442-.112.859-.307,1.293-.449a.916.916,0,0,1,.331.2,1.913,1.913,0,0,1,.5,1.144,2.218,2.218,0,0,1,.019.251c-2.71,1.7-5.642,1.144-8.086,1.893a1.237,1.237,0,0,0-.853,1.35c.373,2.768,1.165,5.929.194,6.862l-.009.007a5.976,5.976,0,0,1-3.821,1.075,3.453,3.453,0,0,1-3.2-2.71h0c-.048-.155-.09-.312-.125-.472a14.7,14.7,0,0,0,.362-2.076c.037-.363.06-.74.06-1.107,0-2.34-.6-4.167-.6-5.428a2.92,2.92,0,0,1,.222-1.22A1.272,1.272,0,0,1,411.392,237.35Z" transform="translate(-409.938 -227.903)" fill="#f6ba28"/>
      <path id="Path_27560" data-name="Path 27560" d="M436.124,367.337a1.112,1.112,0,0,1,1.124,1.067c0,1.291-2.949,2.742-4.191,2.742-.88,0-1.067-.768-1.067-1.648,0-.258.018-.517.033-.777-.033-.651.521-.738.545-.882.179.118-.1.607.094.607.6,0,1.03-.5,1.422-1.042a1.464,1.464,0,0,1,.289,1.1A3.162,3.162,0,0,1,436.124,367.337Z" transform="translate(-426.569 -329.876)" fill="#a68efe"/>
      <path id="Path_27561" data-name="Path 27561" d="M410.6,303.447l-.194.784a1.169,1.169,0,0,1-.306.544,1.9,1.9,0,0,1-.31.285c-.513,0-.957.507-.956-1.235h0c.135-.944.367-13.779.71-14.578a3.453,3.453,0,0,0,3.2,2.71,5.976,5.976,0,0,0,3.821-1.075h0a11.588,11.588,0,0,1,.149,1.938c0,.037-.521,11.815-.64,13.9a1.261,1.261,0,0,1-.966.971.734.734,0,0,1-.611.005.584.584,0,0,1-.329-.524c.09-2.128-.816-11.278-1.7-12.812C411.869,296.256,411.219,300.937,410.6,303.447Z" transform="translate(-408.495 -268.93)" fill="#d2448d"/>
      <path id="Path_27562" data-name="Path 27562" d="M421.335,232.049c-.006.1-.015.2-.028.3a3.942,3.942,0,0,1-.086.456,5.03,5.03,0,0,1-1.678.359,2.467,2.467,0,0,1-.661-.086,1.892,1.892,0,0,1-.186-.621,2.337,2.337,0,0,1-.022-.322,1.453,1.453,0,0,1,.318-1,1.366,1.366,0,0,0,.237.351h0a2.313,2.313,0,0,0,1.712.584h.066C421.119,232.065,421.229,232.059,421.335,232.049Z" transform="translate(-416.177 -223.575)" fill="#8140ff"/>
      <path id="Path_27563" data-name="Path 27563" d="M423.055,230.993c-.03.123-.054.247-.073.372h-.066a2.313,2.313,0,0,1-1.712-.584h0c.006-.182.01-.364.011-.548.278.07.557.037.851.132a1.643,1.643,0,0,0,.689.321C422.857,230.787,422.956,230.891,423.055,230.993Z" transform="translate(-418.151 -222.873)" fill="#e6a57a"/>
      <path id="Path_27564" data-name="Path 27564" d="M409.288,352.675l.134-.543a2.233,2.233,0,0,1,1.282-.506.881.881,0,0,1,.979.874c0,1.892-2.91,3.362-3.738,3.362h-.022a.744.744,0,0,1-.6-.754,18.157,18.157,0,0,1,.331-2.6h0C407.767,353.677,409.194,353.055,409.288,352.675Z" transform="translate(-407.319 -317.615)" fill="#a68efe"/>
      <path id="Path_27565" data-name="Path 27565" d="M408.641,248.96c0,.368-.023.744-.06,1.107h0a8.463,8.463,0,0,1-1.284-4.507,5.151,5.151,0,0,1,.965-3.248,2.92,2.92,0,0,0-.222,1.22C408.04,244.793,408.641,246.62,408.641,248.96Z" transform="translate(-407.297 -232.301)" fill="#f2a305"/>
      <path id="Path_27566" data-name="Path 27566" d="M414.793,198.767c.124.406.089.812-.4.96l-.005,0-.03.008c-.484.133-.587.71-.894.8-1.562.477.71,3.311-1.369,3.947a1.67,1.67,0,0,1-.338.065,1.641,1.641,0,0,1-.753-.106c-.308-.005-.566.108-.852.122a1.037,1.037,0,0,1-.354-.041,2.957,2.957,0,0,1-1.937-2.1,4.859,4.859,0,0,1,.348-3.767,3.736,3.736,0,0,1,1.244-1.283,4.715,4.715,0,0,1,1.152-.52A3.405,3.405,0,0,1,414.793,198.767Z" transform="translate(-407.564 -196.712)" fill="#e06c00"/>
      <path id="Path_27567" data-name="Path 27567" d="M429.007,210.491q.078.191.138.389c.388,1.271.393,4.224-1.044,4.663a2.366,2.366,0,0,1-1.321-.058v.028c-.124-.068-.25-.138-.376-.205a1.672,1.672,0,0,0,.338-.065c2.079-.635-.193-3.469,1.369-3.947C428.421,211.2,428.524,210.624,429.007,210.491Z" transform="translate(-422.211 -207.466)" fill="#e6a57a"/>
    </g>
    <g id="Group_36806" data-name="Group 36806" transform="translate(78.839 31.81)">
      <path id="Path_27568" data-name="Path 27568" d="M598.778,299.924a1.213,1.213,0,0,1,0,2.3,4.4,4.4,0,0,1-3.981,0,1.213,1.213,0,0,1,0-2.3A4.4,4.4,0,0,1,598.778,299.924Z" transform="translate(-591.063 -274.777)" fill="#c5bed1" style="mix-blend-mode: multiply;isolation: isolate"/>
      <g id="Group_36805" data-name="Group 36805">
        <g id="Group_36795" data-name="Group 36795" transform="translate(8.055 0.622)">
          <path id="Path_27569" data-name="Path 27569" d="M617.551,189.994h0l-.14-.077a0,0,0,0,1,0,0,0,0,0,0,1,0,0h0c.019.011.035.017.14.077h0a0,0,0,0,1,0,0Z" transform="translate(-617.409 -189.911)"/>
        </g>
        <path id="Path_27570" data-name="Path 27570" d="M596.244,242.4a1.025,1.025,0,0,1-.434-.776v-1.06a.874.874,0,0,0,.18.515c.636.874,2.6,1.083,3.745.423a1.165,1.165,0,0,0,.673-.939h0v1.06a1.167,1.167,0,0,1-.674.939A3.494,3.494,0,0,1,596.244,242.4Z" transform="translate(-592.496 -228.825)" fill="#b19069"/>
        <path id="Path_27571" data-name="Path 27571" d="M596.028,240.383h0a1.02,1.02,0,0,0,.193.289,3.169,3.169,0,0,0,3.424.291,1.327,1.327,0,0,0,.56-.563,3.849,3.849,0,0,1,.2-.4h0a1.111,1.111,0,0,1-.667,1.036c-1.143.66-3.109.451-3.745-.423a.843.843,0,0,1-.169-.648h0A3.389,3.389,0,0,1,596.028,240.383Z" transform="translate(-592.497 -228.353)" fill="#c0ad88"/>
        <path id="Path_27572" data-name="Path 27572" d="M600.817,254.029c-1,.724-2.66.6-3.137.007a.489.489,0,0,1,.083-.718,2.817,2.817,0,0,0,3.053-.095,1.446,1.446,0,0,0,.466-.533A1.066,1.066,0,0,1,600.817,254.029Z" transform="translate(-593.862 -238.285)" fill="#c0ad88"/>
        <path id="Path_27573" data-name="Path 27573" d="M597.668,259.138a.877.877,0,0,1,.085-.118,2.807,2.807,0,0,0,3.066-.083,1.443,1.443,0,0,0,.466-.534,1.067,1.067,0,0,1-.466,1.339,3.085,3.085,0,0,1-2.341.429c-.394-.09-.892-.326-.915-.71h0A.485.485,0,0,1,597.668,259.138Z" transform="translate(-593.863 -242.744)" fill="#c0ad88"/>
        <g id="Group_36796" data-name="Group 36796" transform="translate(7.442 16.738)">
          <path id="Path_27574" data-name="Path 27574" d="M614.617,263.634h0a0,0,0,0,1,0,0h0a.667.667,0,0,0,.069-.312,0,0,0,0,1,0,0h0a0,0,0,0,1,0,0,.664.664,0,0,1-.07.314h0Z" transform="translate(-614.614 -263.315)"/>
        </g>
        <g id="Group_36797" data-name="Group 36797" transform="translate(7.51 16.721)">
          <path id="Path_27575" data-name="Path 27575" d="M614.93,263.279h0s0,0,0,0h0c0-.013,0-.022,0-.033a0,0,0,0,1,0,0s0,0,0,0,0,.02,0,.033h0s0,0,0,0Z" transform="translate(-614.926 -263.239)"/>
        </g>
        <path id="Path_27576" data-name="Path 27576" d="M597.56,255.722h0v-.448c0,.779,2.032,1.2,3.258.307a1.215,1.215,0,0,0,.559-.9v.415h0a1.2,1.2,0,0,1-.559.937,2.8,2.8,0,0,1-3.066.083A.546.546,0,0,1,597.56,255.722Z" transform="translate(-593.862 -239.836)" fill="#b19069"/>
        <path id="Path_27577" data-name="Path 27577" d="M597.56,249.889v-.449a.623.623,0,0,0,.317.492,2.918,2.918,0,0,0,2.941-.184,1.2,1.2,0,0,0,.559-.936h0v.449a1.2,1.2,0,0,1-.559.936,2.817,2.817,0,0,1-3.053.095A.558.558,0,0,1,597.56,249.889Z" transform="translate(-593.862 -235.258)" fill="#b19069"/>
        <path id="Path_27578" data-name="Path 27578" d="M600.817,249.74a2.919,2.919,0,0,1-2.941.184c-.36-.246-.435-.6-.113-.894a2.518,2.518,0,0,0,1.994.342,2.89,2.89,0,0,0,1.616-.57l0,0A1.2,1.2,0,0,1,600.817,249.74Z" transform="translate(-593.862 -235.249)" fill="#c0ad88"/>
        <g id="Group_36798" data-name="Group 36798" transform="translate(7.397 17.08)">
          <path id="Path_27579" data-name="Path 27579" d="M614.413,264.93h0a0,0,0,0,1,0,0h0c.009-.014.019-.032.029-.05h0a0,0,0,0,1,0,0,0,0,0,0,1,0,0v0c0,.01-.023.04-.03.051Z" transform="translate(-614.41 -264.874)"/>
        </g>
        <g id="Group_36799" data-name="Group 36799" transform="translate(7.26 17.28)">
          <path id="Path_27580" data-name="Path 27580" d="M613.789,265.81h0a0,0,0,0,1,0,0l.02-.021a0,0,0,0,1,0,0,0,0,0,0,1,0,0h0l-.02.021h0Z" transform="translate(-613.786 -265.783)"/>
        </g>
        <g id="Group_36800" data-name="Group 36800" transform="translate(7.237 17.301)">
          <path id="Path_27581" data-name="Path 27581" d="M613.685,265.907h0a0,0,0,0,1,0,0l.021-.021h0a0,0,0,0,1,0,0v0l-.023.022h0Z" transform="translate(-613.682 -265.879)"/>
        </g>
        <g id="Group_36801" data-name="Group 36801" transform="translate(7.14 17.345)">
          <path id="Path_27582" data-name="Path 27582" d="M613.243,266.15h0v0c.025-.02.05-.041.073-.062a0,0,0,0,1,0,0v0c-.023.021-.048.042-.073.062Z" transform="translate(-613.24 -266.081)"/>
        </g>
        <g id="Group_36802" data-name="Group 36802" transform="translate(6.952 17.501)">
          <path id="Path_27583" data-name="Path 27583" d="M612.387,266.829l0,0v0a0,0,0,0,1,0,0l.055-.033a0,0,0,0,1,0,0,0,0,0,0,1,0,0l-.055.033Z" transform="translate(-612.384 -266.789)"/>
        </g>
        <path id="Path_27584" data-name="Path 27584" d="M591.835,192.408c-.091-3.478-4.121-6.751-7.992-4.691a5.865,5.865,0,0,0-3.081,4.186,5.067,5.067,0,0,0,.6,3.084c.909,1.752,2.381,2.877,2.882,4.12h0a1.019,1.019,0,0,0,.193.289,3.17,3.17,0,0,0,3.424.291,1.329,1.329,0,0,0,.56-.563,3.831,3.831,0,0,1,.2-.4C589.48,197.19,591.908,195.23,591.835,192.408Z" transform="translate(-580.718 -187.077)" fill="url(#linear-gradient-2)"/>
        <path id="Path_27585" data-name="Path 27585" d="M599.935,249.472a2.825,2.825,0,0,1-1.76-.18.89.89,0,0,1-.388-.361A3.238,3.238,0,0,0,599.935,249.472Z" transform="translate(-594.039 -235.351)" fill="#c0ad88"/>
        <path id="Path_27586" data-name="Path 27586" d="M601.994,266.013a.353.353,0,0,0,.054-.049c-.1.1-.491.51-.66.684a1.609,1.609,0,0,1-1.956,0c-.027-.029-.055-.056-.083-.085l-.556-.575-.025-.027a1.448,1.448,0,0,0,.334.24,1.846,1.846,0,0,0,.263.119l.071.026.044.017a.049.049,0,0,0,.015,0l.012,0c.031.01.06.019.089.025s.038.01.056.014l.057.015c.066.015.135.027.2.038.024.005.049.009.075.012.044.005.089.01.135.014s.067.007.1.009l.039,0h.009c.049,0,.1,0,.147,0a3.215,3.215,0,0,0,.588-.053c.039-.007.077-.015.114-.024a.056.056,0,0,0,.017,0,1.866,1.866,0,0,0,.2-.056,1.972,1.972,0,0,0,.575-.288C601.943,266.056,601.968,266.035,601.994,266.013Z" transform="translate(-594.805 -248.641)" fill="#c0ad88"/>
        <path id="Path_27587" data-name="Path 27587" d="M601.377,260.337v.673a.764.764,0,0,1-.232.525l-.02.02a.1.1,0,0,1-.019.019c-.017.017-.036.033-.055.049s-.051.043-.079.063a1.815,1.815,0,0,1-.575.288,1.876,1.876,0,0,1-.2.056.055.055,0,0,1-.017,0c-.038.009-.075.017-.114.024a3.211,3.211,0,0,1-.588.053c-.05,0-.1,0-.147,0h-.009c-.02,0-.041,0-.06-.005a.6.6,0,0,1-.08-.005c-.046,0-.09-.008-.135-.014-.026,0-.051-.007-.075-.012-.07-.01-.138-.022-.2-.038-.037-.009-.075-.017-.113-.029s-.058-.015-.089-.025l-.012,0a.048.048,0,0,1-.015,0,2.067,2.067,0,0,1-.375-.157,1.51,1.51,0,0,1-.312-.218l-.025-.027,0,0a1,1,0,0,1-.2-.265.68.68,0,0,1-.07-.338.333.333,0,0,0,.005.044.246.246,0,0,0,.009.039.238.238,0,0,0,.012.041c.005.014.01.027.017.041a.41.41,0,0,0,.019.039c.007.012.015.025.024.038s.017.025.027.038a.618.618,0,0,0,.063.07.326.326,0,0,0,.037.034.738.738,0,0,0,.082.065,1.294,1.294,0,0,0,.143.087l.053.026a.4.4,0,0,0,.056.025,2.558,2.558,0,0,0,.81.184l.065.005c.082,0,.165.005.251,0,.029,0,.058,0,.089,0a2.769,2.769,0,0,0,.35-.038.138.138,0,0,0,.038-.005c.029-.005.058-.01.085-.017h0a2.717,2.717,0,0,0,.745-.264,1.832,1.832,0,0,0,.182-.106c.031-.021.061-.041.092-.063a1.609,1.609,0,0,0,.366-.365c.022-.032.044-.067.063-.1a.87.87,0,0,0,.041-.08.442.442,0,0,0,.026-.061.426.426,0,0,0,.022-.065c.007-.022.014-.044.019-.068s.009-.041.012-.061a.134.134,0,0,0,0-.024A.749.749,0,0,0,601.377,260.337Z" transform="translate(-593.862 -244.253)" fill="#b19069"/>
        <path id="Path_27588" data-name="Path 27588" d="M611.125,217.69c-.034.08-.169.077-.24.009a.1.1,0,0,1-.035-.108c.029-.084.17-.082.242-.012A.1.1,0,0,1,611.125,217.69Z" transform="translate(-604.23 -210.841)" fill="#eddfdf"/>
        <path id="Path_27589" data-name="Path 27589" d="M607.014,220.515c-.03.078-.218.087-.282.011a.057.057,0,0,1-.013-.056c0-.006.9-2.623.907-2.628-.024.088.1.176.206.15a.1.1,0,0,0,.071-.056C607.7,218.523,607.019,220.515,607.014,220.515Z" transform="translate(-601.008 -211.087)" fill="#e8dda5"/>
        <path id="Path_27590" data-name="Path 27590" d="M604.192,228l.145-.421c.232.163.2.4-.045.54a1.053,1.053,0,0,1-1.071-.059c-.212-.183-.126-.409.128-.533.043.175.037.185.078.212.1.065.276.025.262-.058l-.058-.237a1.179,1.179,0,0,1,.437.019c0,.007-.166.485-.17.492-.029.084.151.142.254.086a.089.089,0,0,0,.041-.041Z" transform="translate(-598.187 -218.57)" fill="#baa286"/>
        <path id="Path_27591" data-name="Path 27591" d="M604.425,229.448a.276.276,0,0,0,.073-.176h0V230.5a.354.354,0,0,1-.2.284c-.439.253-1.191.072-1.191-.285v-1.224h0a.3.3,0,0,0,.119.223A1.006,1.006,0,0,0,604.425,229.448Z" transform="translate(-598.188 -220.007)" fill="#8f7a67"/>
        <path id="Path_27592" data-name="Path 27592" d="M600.157,230.14v1.031a.354.354,0,0,1-.2.284c-.427.247-1.191.081-1.191-.285v-1.034c-1.285.288-1.638,1.246-.661,1.81a2.992,2.992,0,0,0,2.7,0C601.783,231.383,601.426,230.43,600.157,230.14Z" transform="translate(-593.847 -220.683)" fill="#ede582"/>
        <path id="Path_27593" data-name="Path 27593" d="M600.636,211.731a.047.047,0,0,1-.017.022c-.079.068-.285.088-.265.021a.046.046,0,0,1,.017-.022C600.453,211.682,600.658,211.665,600.636,211.731Z" transform="translate(-596.042 -206.286)" fill="#eddfdf"/>
        <path id="Path_27594" data-name="Path 27594" d="M600.64,211.815h0c.279,1.134.855,3.465.907,3.677.014.084-.166.123-.262.058a.083.083,0,0,1-.037-.048c0-.006-.9-3.616-.891-3.616.012.048.192.028.266-.036A.038.038,0,0,0,600.64,211.815Z" transform="translate(-596.045 -206.384)" fill="#e8dda5"/>
        <path id="Path_27595" data-name="Path 27595" d="M601.353,234.823c0,1.161,0,1.031,0,1.054a.969.969,0,0,1-.561.755,3,3,0,0,1-2.708,0,.951.951,0,0,1-.561-.782v-1.028a.951.951,0,0,0,.561.782,3,3,0,0,0,2.708,0A.951.951,0,0,0,601.353,234.823Z" transform="translate(-593.833 -224.34)" fill="#e6ad23"/>
        <path id="Path_27596" data-name="Path 27596" d="M596.1,196.669a3.932,3.932,0,0,1-.728,1.054c-.336.249-.506-.193-.548-.612a3.47,3.47,0,0,1,1.613-3.135c.2-.105.472-.184.57.021C597.238,194.47,596.346,196.217,596.1,196.669Z" transform="translate(-591.72 -192.377)" fill="#edeab9"/>
        <g id="Group_36803" data-name="Group 36803" transform="translate(3.943 5.477)" style="mix-blend-mode: multiply;isolation: isolate">
          <path id="Path_27597" data-name="Path 27597" d="M611.42,218.5s0,0,0,0Z" transform="translate(-608.622 -217.075)" fill="#bcaa9b"/>
          <path id="Path_27598" data-name="Path 27598" d="M604.036,228.436a.692.692,0,0,0-.045-.1c-.111-.217-.186-.451-.193-.451a.232.232,0,0,0-.03.034.279.279,0,0,0,.091.428A.751.751,0,0,0,604.036,228.436Z" transform="translate(-602.599 -224.406)" fill="#bcaa9b"/>
          <path id="Path_27599" data-name="Path 27599" d="M602.622,218.477c0,.182,0,.484,0,.994a1.032,1.032,0,0,1-.3.554s0,0,0,0l-.072.08-.005.005c0,.029,0,.056,0,.082a3.943,3.943,0,0,1-.019.563c-.005.022-.01.041-.017.063a.112.112,0,0,1-.01.029c-.007.021-.015.043-.027.07a.17.17,0,0,1-.012.034s0,0,0,.005a1.009,1.009,0,0,1,.085.52v.063a1.279,1.279,0,0,1-.085.663v0a1.033,1.033,0,0,1,.087.5.01.01,0,0,1,0,.01c0,.1,0,.234,0,.416h.005v.167a.764.764,0,0,1-.232.525l-.02.02a.1.1,0,0,1-.019.019c-.1.1-.491.51-.66.684a1.609,1.609,0,0,1-1.956,0c-.027-.029-.054-.056-.083-.085a.22.22,0,0,1-.01-.056c0-.049-.009-.053-.138-.194l-.1-.106s0,0,0-.005l-.024-.027a1.969,1.969,0,0,0,.286.147l.072.026c.02.009.039.014.06.02l.012,0c.031.01.06.019.089.025s.038.01.056.014a4.185,4.185,0,0,0,.551.084l.02,0a.323.323,0,0,1,.039,0v0c0-.123,0-.24,0-.363v0l.223-.019.046-.005.08-.01a.139.139,0,0,0,.038-.005.463.463,0,0,0,.085-.017h0l0,0s0,0,0,0h0l-.046-.005a2.443,2.443,0,0,1-.764-.14,1.35,1.35,0,0,1-.829-.6.358.358,0,0,1-.02-.165.007.007,0,0,1,0-.005.126.126,0,0,1,.056.02.654.654,0,0,0,.094.041,1.662,1.662,0,0,0,.321.077c.019,0,.038.007.056.009a4.829,4.829,0,0,0,.525.033.37.37,0,0,0,.044,0c.029,0,.058,0,.085,0v-.45a4.6,4.6,0,0,0,.47-.048.007.007,0,0,0,.007-.007s-.005,0-.015,0a.032.032,0,0,0-.014,0c-.024,0-.063-.007-.107-.008a2.239,2.239,0,0,1-.894-.232c-.356-.181-.616-.382-.653-.612-.007-.044-.007-.067.005-.073h0c.014-.005.041.007.085.029l.044.02h0a3.01,3.01,0,0,0,1.068.138v-.012c0-.043,0-.051-.073-.14s-.249-.286-.275-.307c-.007-.005-.046-.024-.087-.043a1.366,1.366,0,0,1-.668-.663.594.594,0,0,1-.072-.215c0-.022,0-.039,0-.039a.323.323,0,0,1-.073-.044,1.3,1.3,0,0,1-.145-.116.772.772,0,0,1-.119-.147c0-.009,0-.01.012,0l.07.048c.034.019.072.039.109.058a.942.942,0,0,0,.1.046,2.438,2.438,0,0,0,.319.114h0a4.279,4.279,0,0,0,.491.107c.029.005.058.009.087.012a.018.018,0,0,0,.009,0c.1.014.188.024.271.031v-.007c0-.191,0-.786,0-1.062v-.09a3.009,3.009,0,0,0,1.484-.239c.049-.019.152-.061.111-.051l-.02.007a.139.139,0,0,1-.017.007.616.616,0,0,1-.13.031c-.2.022-1.369-.107-1.378-.112s-.01-.7-.01-1.03c.06,0,.118,0,.176,0a2.436,2.436,0,0,0,1.64-.564.859.859,0,0,0,.133-.169.159.159,0,0,0-.051.012,1.409,1.409,0,0,1-.147.025c-.065.007-1.521.019-1.594,0,0-.725-.007-1.021-.007-1.744-.031-.005-.145.049-.157.039s-.9-3.611-.9-3.668c.022-.014.06-.05.061-.041s.832,3.385.834,3.386a1.536,1.536,0,0,1,.431.029c.009,0,.026-.078.031-.087a1.41,1.41,0,0,0,.078.2c.089.186-.012-.443.037-.293,0,.01.032.083.043.121s.024.063.034.051.639-1.975.639-1.981.01.005.026.007a.127.127,0,0,0,.128-.054c-.032.1-.738,2.159-.738,2.159s.147.087.148.195c0,.276.007.561.007.888.092,0,.22.022.31.022.015-.005.57-.235.577-.24a.883.883,0,0,1,.138.138c0,.012-.191.084-.191.094s.012.009.029.009a1.1,1.1,0,0,1,.22.041.123.123,0,0,1,.075.073c.051.135.044.126.051.807.019.019.026.036.044.053a1.081,1.081,0,0,1,.3.5.277.277,0,0,1,.02.1C602.622,218.27,602.622,218.34,602.622,218.477Z" transform="translate(-598.677 -212.023)" fill="#bcaa9b"/>
        </g>
        <g id="Group_36804" data-name="Group 36804" transform="translate(4.459 5.166)">
          <path id="Path_27600" data-name="Path 27600" d="M603.074,212.411c-.147-.027-.2-.182-.2-.332a.579.579,0,0,0,.237-.36c.005-.129-.156-.2-.285.068a.724.724,0,0,0-.067.227c-.248.157-.472.041-.461-.268a.577.577,0,0,0,.237-.36c.006-.136-.159-.188-.285.068a.728.728,0,0,0-.067.226c-.241.153-.472.05-.461-.267a.58.58,0,0,0,.237-.36c.005-.13-.156-.194-.285.068a.728.728,0,0,0-.067.226.379.379,0,0,1-.25.067c-.226-.03-.255-.339-.162-.552h0a.108.108,0,0,0,.164-.047c.091-.219-.117-.319-.261-.027s-.077.7.243.745a.463.463,0,0,0,.263-.047,496.555,496.555,0,0,1,1.152.666.382.382,0,0,0,.3.377.06.06,0,0,0,.068-.058A.06.06,0,0,0,603.074,212.411Zm-.094-.644a.461.461,0,0,1-.054.094A.422.422,0,0,1,602.98,211.766Zm-.577-.332a.467.467,0,0,1-.053.093A.456.456,0,0,1,602.4,211.435Zm-.576-.334a.452.452,0,0,1-.054.094A.464.464,0,0,1,601.827,211.1Zm-.576-.331a.473.473,0,0,1-.054.092A.434.434,0,0,1,601.251,210.77Z" transform="translate(-601.028 -210.608)" fill="#eee6d9"/>
          <path id="Path_27601" data-name="Path 27601" d="M609.727,215.886a.463.463,0,0,1-.054.094A.423.423,0,0,1,609.727,215.886Z" transform="translate(-607.775 -214.727)" fill="#eed9d9"/>
          <path id="Path_27602" data-name="Path 27602" d="M607.1,214.375a.467.467,0,0,1-.053.093A.456.456,0,0,1,607.1,214.375Z" transform="translate(-605.727 -213.548)" fill="#eed9d9"/>
          <path id="Path_27603" data-name="Path 27603" d="M604.478,212.855a.452.452,0,0,1-.054.094A.465.465,0,0,1,604.478,212.855Z" transform="translate(-603.678 -212.362)" fill="#eed9d9"/>
        </g>
      </g>
    </g>
    <g id="Group_36809" data-name="Group 36809" transform="translate(25.316 69.03)">
      <g id="Group_36807" data-name="Group 36807">
        <path id="Path_27604" data-name="Path 27604" d="M419.588,448.3a1.959,1.959,0,0,1-.635,1.333v-1.885a1.959,1.959,0,0,0,.635-1.333Z" transform="translate(-400.946 -426.694)" fill="#aa226d"/>
        <path id="Path_27605" data-name="Path 27605" d="M414.281,450.811V452.7l-1.314-.47v-1.885Z" transform="translate(-396.274 -429.763)" fill="#d2448d"/>
        <path id="Path_27606" data-name="Path 27606" d="M384.118,438.737a.837.837,0,0,1,.024.2,1.592,1.592,0,0,1-.484,1.008,3.194,3.194,0,0,0-.493-.343,4.957,4.957,0,0,0-2.024-.648,5.608,5.608,0,0,0-2.1.187,8.072,8.072,0,0,0-1.824.757,5.5,5.5,0,0,0-1.388,1.07,1.8,1.8,0,0,1-.344-.515,1.048,1.048,0,0,1-.09-.419,1.321,1.321,0,0,1,.307-.8,5.049,5.049,0,0,1,1.515-1.225,8.072,8.072,0,0,1,1.824-.757,5.608,5.608,0,0,1,2.1-.187,4.954,4.954,0,0,1,2.024.648A1.8,1.8,0,0,1,384.118,438.737Z" transform="translate(-366.952 -419.383)" fill="#aa226d"/>
        <path id="Path_27607" data-name="Path 27607" d="M382.748,386.172a1.175,1.175,0,0,0-.266-.785.976.976,0,0,0-.349-.263,1.341,1.341,0,0,0-.411-.108,7.445,7.445,0,0,0-1.7.131l-2.229.345v2.849l2.411-.373a6.778,6.778,0,0,0,1.408-.327A1.572,1.572,0,0,0,382.748,386.172Zm.464,4.063a1.214,1.214,0,0,0-.319-.867,1.182,1.182,0,0,0-.289-.225h0a1.619,1.619,0,0,0-.6-.184,6.38,6.38,0,0,0-1.632.1l-2.579.4v3.241c2.829-.438,3.4-.512,3.781-.63a3.212,3.212,0,0,0,.852-.39,1.857,1.857,0,0,0,.563-.61A1.615,1.615,0,0,0,383.212,390.235Zm1.529-.236a2.692,2.692,0,0,1-.331,1.283,3.137,3.137,0,0,1-.818,1,6.6,6.6,0,0,1-3.02,1.091l-4.253.658v-9.428l4.184-.647a5.85,5.85,0,0,1,2.05-.031,2.088,2.088,0,0,1,1.209.694,1.989,1.989,0,0,1,.27.421,1.969,1.969,0,0,1-.221,1.954,2.618,2.618,0,0,1-.256.33,3.735,3.735,0,0,1-.915.713,2.514,2.514,0,0,1,1.555.615,1.7,1.7,0,0,1,.372.513l0,.006A1.937,1.937,0,0,1,384.741,390Z" transform="translate(-367.673 -377.871)" fill="#8140ff"/>
        <path id="Path_27608" data-name="Path 27608" d="M406.458,400.262l.585,1.26a1.7,1.7,0,0,0-.372-.513,2.513,2.513,0,0,0-1.555-.615,3.735,3.735,0,0,0,.915-.713,1.712,1.712,0,0,1,.417.559Z" transform="translate(-390.146 -390.224)" fill="#8140ff"/>
        <path id="Path_27609" data-name="Path 27609" d="M370.247,437.145a1.048,1.048,0,0,0,.09.419,1.8,1.8,0,0,0,.344.515h0a2.84,2.84,0,0,0,.659.508,4.544,4.544,0,0,0,2.061.585,5.976,5.976,0,0,0,2.406-.4l.807.781a8.267,8.267,0,0,1-3.252.466,6.5,6.5,0,0,1-2.857-.842,3.411,3.411,0,0,1-1.61-1.55,1.52,1.52,0,0,1-.1-.526,1.919,1.919,0,0,1,.394-1.1,5.39,5.39,0,0,1,1.757-1.513,8.374,8.374,0,0,1,5.541-1.035,7.341,7.341,0,0,1,2.473.858,2.731,2.731,0,0,1,1.437,1.55,1.445,1.445,0,0,1,.044.352h0a1.959,1.959,0,0,1-.634,1.333l-1.314-.469.014-.016a1.592,1.592,0,0,0,.484-1.008.839.839,0,0,0-.024-.2,1.8,1.8,0,0,0-.952-1.019,4.954,4.954,0,0,0-2.024-.648,5.609,5.609,0,0,0-2.1.187,8.075,8.075,0,0,0-1.824.757,5.049,5.049,0,0,0-1.515,1.225A1.321,1.321,0,0,0,370.247,437.145Z" transform="translate(-361.803 -416.493)" fill="#e288b9"/>
        <path id="Path_27610" data-name="Path 27610" d="M381.316,379.186l.594,1.279h0a1.99,1.99,0,0,0-.27-.422,2.088,2.088,0,0,0-1.21-.694,5.851,5.851,0,0,0-2.05.031l-4.184.647-.6-1.288,4.184-.647a5.835,5.835,0,0,1,2.05-.031,2.086,2.086,0,0,1,1.21.694A1.963,1.963,0,0,1,381.316,379.186Z" transform="translate(-365.547 -373.292)" fill="#a68efe"/>
        <path id="Path_27611" data-name="Path 27611" d="M388.457,409.042a1.615,1.615,0,0,1-.22.829,1.857,1.857,0,0,1-.563.61,3.212,3.212,0,0,1-.852.39c-.382.118-.952.192-3.781.63v-1.38c2.212-.342,2.811-.422,3.183-.537a3.218,3.218,0,0,0,.852-.39,1.847,1.847,0,0,0,.563-.61,1.6,1.6,0,0,0,.21-.632,1.18,1.18,0,0,1,.289.225A1.214,1.214,0,0,1,388.457,409.042Z" transform="translate(-372.918 -396.678)" fill="#a68efe"/>
        <path id="Path_27612" data-name="Path 27612" d="M387.727,389.908a1.175,1.175,0,0,1,.266.785,1.572,1.572,0,0,1-1.134,1.468,6.78,6.78,0,0,1-1.408.327l-2.411.373v-1.38l1.814-.281a6.813,6.813,0,0,0,1.408-.327,1.632,1.632,0,0,0,1.116-1.228A.975.975,0,0,1,387.727,389.908Z" transform="translate(-372.918 -382.392)" fill="#a68efe"/>
        <path id="Path_27613" data-name="Path 27613" d="M368.8,452.337h0v-1.885a1.52,1.52,0,0,0,.1.526,3.411,3.411,0,0,0,1.61,1.55,6.5,6.5,0,0,0,2.857.842,8.267,8.267,0,0,0,3.252-.466v1.885a8.267,8.267,0,0,1-3.252.466,6.506,6.506,0,0,1-2.857-.842,3.409,3.409,0,0,1-1.61-1.55A1.517,1.517,0,0,1,368.8,452.337Z" transform="translate(-361.803 -429.849)" fill="#d2448d"/>
        <path id="Path_27614" data-name="Path 27614" d="M373.6,383.843v-2.42l.6,1.288v9.427l-.6-1.288v-7.007Z" transform="translate(-365.547 -375.975)" fill="#bfb5f4"/>
        <path id="Path_27615" data-name="Path 27615" d="M360.266,366.864v4.867l-.408.236-3.342-11.357,1.633-.943Z" transform="translate(-352.216 -358.996)" fill="#aa226d"/>
        <path id="Path_27616" data-name="Path 27616" d="M341.44,365.364c-.094-.343-.18-.654-.257-.941-.253-.935-.426-1.606-.557-2.209a8.832,8.832,0,0,1-.44,1.546q-.44,1.132-.9,2.248l2.768,1.6C341.816,366.731,341.613,366,341.44,365.364Zm-.207-3.79,3.342,11.357-1.231-.711-.952-3.405-2.373-1.37-1.041-.6-.9,2.338-1.147-.662,3.136-7.617Z" transform="translate(-336.933 -359.959)" fill="#d2448d"/>
        <path id="Path_27617" data-name="Path 27617" d="M354.011,357.28l-1.633.943-1.164-.672,1.633-.943Z" transform="translate(-348.079 -356.608)" fill="#e288b9"/>
        <path id="Path_27618" data-name="Path 27618" d="M350.432,382.4l-2.768-1.6,1.633-.943.518.3C349.988,380.794,350.191,381.53,350.432,382.4Z" transform="translate(-345.308 -374.758)" fill="#e288b9"/>
        <path id="Path_27619" data-name="Path 27619" d="M349,366.877c.131.6.3,1.274.557,2.209q-.129.322-.261.642l-1.633.943q.456-1.115.9-2.248A8.829,8.829,0,0,0,349,366.877Z" transform="translate(-345.308 -364.622)" fill="#aa226d"/>
        <path id="Path_27620" data-name="Path 27620" d="M344.1,388.566l-.3.794-1.633.943.9-2.338Z" transform="translate(-341.012 -381.081)" fill="#aa226d"/>
      </g>
      <g id="Group_36808" data-name="Group 36808" transform="translate(1.147 0.672)" style="mix-blend-mode: multiply;isolation: isolate">
        <path id="Path_27621" data-name="Path 27621" d="M383.557,387.306a2.746,2.746,0,0,1,.674,1.1c.106.229.178.406.289.633a2.312,2.312,0,0,1,.05,1.867c-.159.35-.313.611-.313.611.155-.015.277-.031.4-.037.494-.023.989-.047,1.483-.062.171-.005.346-.019.468.162.03.045.16.036.243.032.61-.031,1.22-.062,1.83-.105a.379.379,0,0,1,.42.272c.151.356.318.7.5,1.093a2.189,2.189,0,0,1-.309.11c-.638.121-1.275.247-1.916.351-1.062.173-2.127.326-3.19.5a12.734,12.734,0,0,1-2.14.2c-1.789-.019-5.72-.019-5.72-.019v-9.428l1.59-.246s1.845-.308,3.084-.482a4.355,4.355,0,0,1,1.811.123,1.883,1.883,0,0,1,.667.346,1.787,1.787,0,0,1,.726,1.342,2.1,2.1,0,0,1-.386,1.307C383.741,387.077,383.647,387.182,383.557,387.306Zm-5.761,3.986a9.992,9.992,0,0,0,2.1.031,6.813,6.813,0,0,0,1.579-.382,1.854,1.854,0,0,0,1.17-1.515c.036-.264.017-.3-.227-.392a3.273,3.273,0,0,0-1.368-.09c-.98.122-3.251.486-3.251.486Zm0-4.354a13.11,13.11,0,0,0,2.6-.125,3.041,3.041,0,0,0,1.177-.479,1.5,1.5,0,0,0,.589-.971c.036-.211,0-.279-.213-.34a.965.965,0,0,0-.258-.037,5.762,5.762,0,0,0-.787.011c-.885.114-3.11.473-3.11.473Z" transform="translate(-368.82 -378.521)" fill="#b0a7c2"/>
        <path id="Path_27622" data-name="Path 27622" d="M356.516,360.611l1.633-.943c.131.436,2.117,7.2,2.117,7.2s.023,3.166.023,4.6c0,.37,0,.37-.412.522C358.76,368.193,357.638,364.422,356.516,360.611Z" transform="translate(-353.364 -359.668)" fill="#b0a7c2"/>
        <path id="Path_27623" data-name="Path 27623" d="M376.717,441.6a2.423,2.423,0,0,1-1.233-1.105,1.063,1.063,0,0,1,.049-1.047,2.778,2.778,0,0,1,.71-.794,7.349,7.349,0,0,1,3.64-1.581,8.094,8.094,0,0,1,1.085-.036c0,.3.009.665-.016.978-.028.332.22.642.256.944-.37.094-.755.13-1.1.229a7.34,7.34,0,0,0-2.389,1.2A2.811,2.811,0,0,0,376.717,441.6Z" transform="translate(-368.076 -420.05)" fill="#b0a7c2"/>
        <path id="Path_27624" data-name="Path 27624" d="M343.055,387.965l1.041.6c-.028.116-.1.239-.131.382a1.425,1.425,0,0,0,.239.066,4.428,4.428,0,0,1,1.688.6,1.593,1.593,0,0,1,.773,1s.114.41.208.757c.022.082.153.51.181.647-.265-.15-.528-.332-.745-.457-.313-.18-.632-.35-.935-.544a1.836,1.836,0,0,0-.71-.24c-.806-.138-1.61-.285-2.415-.43a.522.522,0,0,1-.089-.044C342.437,389.544,342.738,388.745,343.055,387.965Z" transform="translate(-342.159 -381.752)" fill="#b0a7c2"/>
        <path id="Path_27625" data-name="Path 27625" d="M389.392,462.1a8.449,8.449,0,0,0,3.286-.453v1.064a1,1,0,0,0,.226.031.57.57,0,0,1,.531.223c.162.187.343.357.53.548a11.59,11.59,0,0,1-4.564.476C389.369,463.368,389.383,462.766,389.392,462.1Z" transform="translate(-379.014 -439.262)" fill="#b0a7c2"/>
        <path id="Path_27626" data-name="Path 27626" d="M418.953,449.628v-1.885a2.026,2.026,0,0,0,.635-1.333c.069.028.1.154.146.187a3.178,3.178,0,0,1,.777.686,1.517,1.517,0,0,1,.126,1.807c-.04.066-.086.129-.127.194a.616.616,0,0,1-.64.334A7.162,7.162,0,0,0,418.953,449.628Z" transform="translate(-402.093 -427.366)" fill="#b0a7c2"/>
        <path id="Path_27627" data-name="Path 27627" d="M349.319,369.726c.14.086.413.22.52.3a.917.917,0,0,0,.033.138c.093.3.163.6.254.947-.829-.128-1.617-.28-2.431-.438a24.637,24.637,0,0,0,1.33-3.8c.045.173.114.51.158.683.1.4.282,1.134.4,1.526a1.737,1.737,0,0,1-.124.284C349.406,369.473,349.373,369.586,349.319,369.726Z" transform="translate(-346.48 -365.294)" fill="#b0a7c2"/>
      </g>
    </g>
    <g id="Group_36824" data-name="Group 36824" transform="translate(7.159 53.3)">
      <g id="Group_36821" data-name="Group 36821">
        <path id="Path_27628" data-name="Path 27628" d="M275.8,296.93l-12.448,7.187-9.121-5.266,12.449-7.187C268.044,292.451,270.455,293.845,275.8,296.93Z" transform="translate(-254.232 -290.192)" fill="#ebeec1"/>
        <path id="Path_27629" data-name="Path 27629" d="M306.162,331.3l-3.975,3.976-1.847-.614Z" transform="translate(-290.217 -321.129)" fill="#d3d3af"/>
        <path id="Path_27630" data-name="Path 27630" d="M308.753,334.363l3.975-3.976.446-.258-4.421,4.423Z" transform="translate(-296.783 -320.212)" fill="#bebe9e"/>
        <path id="Path_27631" data-name="Path 27631" d="M301.452,347.23v.189l-2.054-.685.207-.118Z" transform="translate(-289.482 -333.08)" fill="#bebe9e"/>
        <path id="Path_27632" data-name="Path 27632" d="M287.052,292.9l-5.167,2.983,3.528-3.53Z" transform="translate(-275.814 -290.733)" fill="#d3d3af"/>
        <path id="Path_27633" data-name="Path 27633" d="M295.776,322.838l12.448-7.187v.19l-12.448,7.187Z" transform="translate(-286.655 -308.913)" fill="#bebe9e"/>
        <path id="Path_27634" data-name="Path 27634" d="M262.448,331.461l-4.586-1.529.708-.708Z" transform="translate(-257.065 -319.505)" fill="#d3d3af"/>
        <path id="Path_27635" data-name="Path 27635" d="M257.862,332.45l4.586,1.529.772.447-5.358-1.787Z" transform="translate(-257.065 -322.024)" fill="#bebe9e"/>
        <path id="Path_27636" data-name="Path 27636" d="M254.232,324.4l9.121,5.266v.19l-9.121-5.267Z" transform="translate(-254.232 -315.739)" fill="#f1f1ce"/>
        <g id="Group_36820" data-name="Group 36820" transform="translate(11.529)">
          <path id="Path_27637" data-name="Path 27637" d="M318.551,290.606l-2.027,1.17-9.78-5.647,2.027-1.169Z" transform="translate(-306.744 -284.96)" fill="#e0be95"/>
          <path id="Path_27638" data-name="Path 27638" d="M353.318,310.949l-2.027,1.169v-.272l2.027-1.17Z" transform="translate(-341.511 -305.031)" fill="#c48b5e"/>
          <path id="Path_27639" data-name="Path 27639" d="M316.525,296.2l-9.78-5.646v-.273l9.78,5.647Z" transform="translate(-306.744 -289.116)" fill="#d8aa7d"/>
          <g id="Group_36810" data-name="Group 36810" transform="translate(1.374 0.377)">
            <path id="Path_27640" data-name="Path 27640" d="M314.456,286.763a12.99,12.99,0,0,1-1.381.785.075.075,0,0,1-.037-.14l1.269-.732Z" transform="translate(-313.001 -286.676)" fill="#7f542e"/>
          </g>
          <g id="Group_36811" data-name="Group 36811" transform="translate(2.289 0.906)">
            <path id="Path_27641" data-name="Path 27641" d="M318.629,289.174a13.561,13.561,0,0,1-1.382.786.075.075,0,0,1-.037-.14l1.268-.733Z" transform="translate(-317.172 -289.088)" fill="#7f542e"/>
          </g>
          <g id="Group_36812" data-name="Group 36812" transform="translate(3.206 1.435)">
            <path id="Path_27642" data-name="Path 27642" d="M322.8,291.583a13.72,13.72,0,0,1-1.381.786.075.075,0,0,1-.038-.14l1.269-.733Z" transform="translate(-321.345 -291.496)" fill="#7f542e"/>
          </g>
          <g id="Group_36813" data-name="Group 36813" transform="translate(4.122 1.964)">
            <path id="Path_27643" data-name="Path 27643" d="M326.975,293.991a13.513,13.513,0,0,1-1.381.785.075.075,0,0,1-.038-.14l1.269-.732Z" transform="translate(-325.519 -293.904)" fill="#7f542e"/>
          </g>
          <g id="Group_36814" data-name="Group 36814" transform="translate(5.038 2.492)">
            <path id="Path_27644" data-name="Path 27644" d="M331.147,296.4a13.1,13.1,0,0,1-1.382.785.074.074,0,0,1-.037-.139l1.269-.734Z" transform="translate(-329.691 -296.312)" fill="#7f542e"/>
          </g>
          <g id="Group_36815" data-name="Group 36815" transform="translate(5.954 3.022)">
            <path id="Path_27645" data-name="Path 27645" d="M335.319,298.81a13.656,13.656,0,0,1-1.382.787.075.075,0,0,1-.038-.14c1.285-.742,1.26-.732,1.27-.732Z" transform="translate(-333.862 -298.724)" fill="#7f542e"/>
          </g>
          <g id="Group_36816" data-name="Group 36816" transform="translate(6.87 3.551)">
            <path id="Path_27646" data-name="Path 27646" d="M339.492,301.218a13.553,13.553,0,0,1-1.381.786.075.075,0,0,1-.038-.14l1.269-.732Z" transform="translate(-338.036 -301.132)" fill="#7f542e"/>
          </g>
          <g id="Group_36817" data-name="Group 36817" transform="translate(7.786 4.079)">
            <path id="Path_27647" data-name="Path 27647" d="M343.666,303.627a13.541,13.541,0,0,1-1.381.785.075.075,0,0,1-.038-.14l1.269-.732Z" transform="translate(-342.21 -303.54)" fill="#7f542e"/>
          </g>
          <g id="Group_36818" data-name="Group 36818" transform="translate(8.702 4.608)">
            <path id="Path_27648" data-name="Path 27648" d="M347.838,306.034a13.488,13.488,0,0,1-1.382.786.075.075,0,0,1-.037-.14l1.269-.734Z" transform="translate(-346.382 -305.947)" fill="#7f542e"/>
          </g>
          <g id="Group_36819" data-name="Group 36819" transform="translate(9.618 5.137)">
            <path id="Path_27649" data-name="Path 27649" d="M352.01,308.446a13.584,13.584,0,0,1-1.382.786.075.075,0,0,1-.038-.14l1.27-.732Z" transform="translate(-350.553 -308.36)" fill="#7f542e"/>
          </g>
        </g>
      </g>
      <g id="Group_36823" data-name="Group 36823" transform="translate(10.605 3.647)">
        <path id="Path_27650" data-name="Path 27650" d="M303.073,301.828a4.444,4.444,0,0,0-.273.352c-.007.009,0,.032.068.127a1.2,1.2,0,0,0-.178.741h0a.366.366,0,0,1-.149-.329,1.117,1.117,0,0,1,.534-.9Z" transform="translate(-302.537 -301.769)" fill="#8bd0d0"/>
        <path id="Path_27651" data-name="Path 27651" d="M351.059,330.5l.369.44a.053.053,0,0,1-.049.086l-.575-.1a.108.108,0,0,1-.078-.107.382.382,0,0,1,.215-.346A.1.1,0,0,1,351.059,330.5Z" transform="translate(-340.146 -324.121)" fill="#655fbf"/>
        <path id="Path_27652" data-name="Path 27652" d="M309.944,305.38c8.589,4.96,7.468,4.291,7.379,4.291a.355.355,0,0,0-.162.027h0a.84.84,0,0,0-.344.272s0,0,0,0a1.159,1.159,0,0,0-.237.518.685.685,0,0,0,0,.241.354.354,0,0,0,.047.128.255.255,0,0,0,.079.084c-7.92-4.572-7.748-4.467-7.745-4.473a.276.276,0,0,1-.089-.112.675.675,0,0,1,0-.448,1.209,1.209,0,0,1,.155-.328l1.949,1.125.283-.352-.021-.03-1.857-1.072a.339.339,0,0,1,.328-.011Z" transform="translate(-307.447 -304.407)" fill="#8bd0d0"/>
        <path id="Path_27653" data-name="Path 27653" d="M345.028,325.665h0v0C345.043,325.689,345.04,325.686,345.028,325.665Zm-.674,1.2h0Zm1.26.227-1.3-.229h0c.006,0,.009,0,0,0a.231.231,0,0,1-.059-.015l-.01,0a.251.251,0,0,1-.093-.07.3.3,0,0,1-.023-.033s0,0,0,0a.381.381,0,0,1-.035-.079.436.436,0,0,1-.014-.06.9.9,0,0,1,.074-.464v0a1.186,1.186,0,0,1,.127-.227c.007-.012.041-.055.041-.055a.867.867,0,0,1,.358-.276.38.38,0,0,1,.165-.021l.021,0a.235.235,0,0,1,.051.017.265.265,0,0,1,.088.067c.006.009-.066-.077.851,1.015a.1.1,0,0,0-.109-.018.382.382,0,0,0-.215.346A.108.108,0,0,0,345.613,327.089Z" transform="translate(-334.955 -320.284)" fill="#d1e2ee"/>
        <path id="Path_27654" data-name="Path 27654" d="M318.489,310.665l.284-.353.021.03-.283.353Z" transform="translate(-314.987 -308.393)" fill="#4c6e81"/>
        <path id="Path_27655" data-name="Path 27655" d="M306.2,301.645c1.183.684,1.132.649,1.128.654a.476.476,0,0,0-.5.085l-1.13-.652a.944.944,0,0,1,.116-.07A.437.437,0,0,1,306.2,301.645Z" transform="translate(-304.999 -301.598)" fill="#bbebef"/>
        <path id="Path_27656" data-name="Path 27656" d="M310.837,304.694a.476.476,0,0,1,.5-.085.366.366,0,0,1,.171.273l-.258-.149a.349.349,0,0,0-.31.021Z" transform="translate(-309.015 -303.909)" fill="#71a7ab"/>
        <path id="Path_27657" data-name="Path 27657" d="M308.337,307.427a1.287,1.287,0,0,1,.224-.7h0l.077.045a1.207,1.207,0,0,0-.155.328.675.675,0,0,0,0,.448.275.275,0,0,0,.089.112h0l.268.155a.368.368,0,0,1-.337-.019A.417.417,0,0,1,308.337,307.427Z" transform="translate(-307.063 -305.593)" fill="#71a7ab"/>
        <path id="Path_27658" data-name="Path 27658" d="M304.988,301.625a.346.346,0,0,1,.33-.019v0a.757.757,0,0,0-.177.1c-.094-.054-.135-.082-.153-.076Z" transform="translate(-304.45 -301.571)" fill="#8bd0d0"/>
        <path id="Path_27659" data-name="Path 27659" d="M303.37,304.832a.39.39,0,0,1-.164-.243,1.2,1.2,0,0,1,.207-.835l1.13.652a1.337,1.337,0,0,0-.224.7.417.417,0,0,0,.167.366C304.484,305.481,304.519,305.493,303.37,304.832Z" transform="translate(-303.046 -303.275)" fill="#bbebef"/>
        <path id="Path_27660" data-name="Path 27660" d="M303.893,303.572l-.025.04-.064-.091Z" transform="translate(-303.526 -303.093)" fill="#4c6e81"/>
        <path id="Path_27661" data-name="Path 27661" d="M303.691,303.464c-.029-.042,0-.039.047-.013l3.193,1.844.022.03-3.246-1.873.064.091-.011.019Z" transform="translate(-303.429 -303.024)" fill="#5a8694"/>
        <g id="Group_36822" data-name="Group 36822" transform="translate(0.184 0.408)" style="mix-blend-mode: multiply;isolation: isolate">
          <path id="Path_27662" data-name="Path 27662" d="M314.99,310.615l-.244-.073c-.6-.183-1.189-.37-1.786-.546a3.611,3.611,0,0,1-.771-.385q-3.457-1.994-6.911-3.992a.6.6,0,0,0-.337-.109.415.415,0,0,1-.2-.069c-.309-.175-.616-.353-.923-.533-.071-.041-.158-.06-.147-.186,0-.048-.091-.1-.153-.142a.348.348,0,0,1-.14-.178c.382.207.744.424,1.11.608a1.106,1.106,0,0,1,.167-.8c-.39-.228-.748-.427-1.13-.651l-.07-.1c-.014-.02-.015-.033,0-.03.358.183.761.433,1.11.633s.672.391,1.021.591l1.108.639c.068-.076.123-.161.2-.245l.263.146-.272.352-2.127-1.224a.639.639,0,0,0-.073.584.416.416,0,0,0,.182.171c.52.3,1.044.6,1.566.905q2.839,1.637,5.675,3.279a1.417,1.417,0,0,0,.392.128c.292.074.582.155.873.234l.95.258a.235.235,0,0,1,.11.042c.2.216.389.437.583.657Z" transform="translate(-303.373 -303.431)" fill="#b0a7c2" style="mix-blend-mode: multiply;isolation: isolate"/>
          <path id="Path_27663" data-name="Path 27663" d="M311.07,304.7c.29-.22.5-.171.582.108a1.092,1.092,0,0,1-.114-.042.373.373,0,0,0-.288-.037C311.2,304.742,311.131,304.709,311.07,304.7Z" transform="translate(-309.38 -304.312)" fill="#c5bed1"/>
        </g>
        <path id="Path_27664" data-name="Path 27664" d="M303.689,302.172l.283-.352,0,0,0,0,0,0c.021-.006-.116-.079,3.246,1.862l-.284.353C303.594,302.1,303.7,302.157,303.689,302.172Z" transform="translate(-303.436 -301.761)" fill="#71a7ab"/>
      </g>
    </g>
    <g id="Group_36826" data-name="Group 36826" transform="translate(80.238 10.181)">
      <path id="Path_27665" data-name="Path 27665" d="M595.7,92.02l-5.772-3.333a.7.7,0,0,0-.573-.1h0l0,0a.363.363,0,0,0-.1.055l-.852.492.688,1.479v8.152a1.741,1.741,0,0,0,.839,1.324l4.879,2.817.538,1.156.763-.477.054-.036c.2-.138.379-.247.379-.482V93.344A1.741,1.741,0,0,0,595.7,92.02Z" transform="translate(-588.115 -88.56)" fill="#899db9"/>
      <g id="Group_36825" data-name="Group 36825" transform="translate(0 0.556)">
        <path id="Path_27666" data-name="Path 27666" d="M593.7,105.954l-5.772-3.333a1.741,1.741,0,0,1-.839-1.324V91.575c0-.463.376-.622.839-.355l5.772,3.333a1.741,1.741,0,0,1,.839,1.324V105.6C594.544,106.063,594.168,106.222,593.7,105.954Z" transform="translate(-587.093 -91.091)" fill="#becbdc"/>
        <path id="Path_27667" data-name="Path 27667" d="M596.258,102.858l-4.891-2.824a.908.908,0,0,1-.437-.69V97.616c0-.242.2-.324.438-.185l4.891,2.824a.908.908,0,0,1,.438.69v1.727C596.7,102.915,596.5,103,596.258,102.858Z" transform="translate(-590.088 -95.986)" fill="#899db9"/>
        <path id="Path_27668" data-name="Path 27668" d="M592.549,115.014l-1.62-.935v-1.006l1.62.935Z" transform="translate(-590.087 -108.247)" fill="#b54689"/>
        <path id="Path_27669" data-name="Path 27669" d="M601.992,120.466l-1.62-.935v-1.006l1.62.935Z" transform="translate(-597.457 -112.502)" fill="#b54689"/>
        <path id="Path_27670" data-name="Path 27670" d="M611.436,125.918l-1.62-.935v-1.006l1.62.935Z" transform="translate(-604.827 -116.757)" fill="#b54689"/>
        <path id="Path_27671" data-name="Path 27671" d="M592.549,121.46l-1.62-.935v-1.006l1.62.935Z" transform="translate(-590.087 -113.277)" fill="#899db9"/>
        <path id="Path_27672" data-name="Path 27672" d="M601.992,126.912l-1.62-.935v-1.006l1.62.935Z" transform="translate(-597.457 -117.532)" fill="#899db9"/>
        <path id="Path_27673" data-name="Path 27673" d="M611.436,132.364l-1.62-.935v-1.006l1.62.935Z" transform="translate(-604.827 -121.788)" fill="#899db9"/>
        <path id="Path_27674" data-name="Path 27674" d="M592.549,127.906l-1.62-.935v-1.006l1.62.935Z" transform="translate(-590.087 -118.308)" fill="#899db9"/>
        <path id="Path_27675" data-name="Path 27675" d="M601.992,133.358l-1.62-.935v-1.006l1.62.935Z" transform="translate(-597.457 -122.564)" fill="#899db9"/>
        <path id="Path_27676" data-name="Path 27676" d="M611.436,138.81l-1.62-.935v-1.006l1.62.935Z" transform="translate(-604.827 -126.818)" fill="#899db9"/>
        <path id="Path_27677" data-name="Path 27677" d="M592.549,134.353l-1.62-.935v-1.006l1.62.935Z" transform="translate(-590.087 -123.339)" fill="#899db9"/>
        <path id="Path_27678" data-name="Path 27678" d="M601.992,139.8l-1.62-.935v-1.006l1.62.935Z" transform="translate(-597.457 -127.594)" fill="#899db9"/>
        <path id="Path_27679" data-name="Path 27679" d="M611.436,145.257l-1.62-.935v-1.006l1.62.935Z" transform="translate(-604.827 -131.849)" fill="#899db9"/>
      </g>
    </g>
    <path id="Path_27680" data-name="Path 27680" d="M647.774,72.053l.226.588a.286.286,0,0,0,.1.125l.505.365c.1.075.146.228.071.258l-.366.145c-.03.012-.044.046-.037.092l.086.553c.018.114-.091.131-.184.028l-.452-.5a.189.189,0,0,0-.119-.068l-.452-.023a.242.242,0,0,1-.184-.241l.086-.453a.2.2,0,0,0-.037-.134l-.366-.567c-.076-.117-.034-.222.07-.176l.505.218a.074.074,0,0,0,.1-.014l.226-.327C647.593,71.853,647.728,71.931,647.774,72.053Z" transform="translate(-553.305 -65.374)" fill="#d6519a"/>
    <g id="Group_36827" data-name="Group 36827" transform="translate(91.968 12.406)">
      <path id="Path_27681" data-name="Path 27681" d="M659.626,267.826v2.237l-.444,1.621v-2.237Z" transform="translate(-655.084 -230.694)" fill="#b7a68a"/>
      <path id="Path_27682" data-name="Path 27682" d="M644.534,267.431v-.309l.526.155-.444,1.621-2.807.257-1.29-1.462.582-.337v.39l.976,1.1,2.122-.194Z" transform="translate(-640.518 -230.144)" fill="#f2e9da"/>
      <path id="Path_27683" data-name="Path 27683" d="M649.2,275.208v2.237l-.119.011-.3.027-2.122.194-.268.025v-2.237Z" transform="translate(-645.105 -236.455)" fill="#d3c1a1"/>
      <path id="Path_27684" data-name="Path 27684" d="M657.617,157.126l-.336,1.226V127.013l.336-1.226v31.339Z" transform="translate(-653.6 -119.839)" fill="#d38c0f"/>
      <path id="Path_27685" data-name="Path 27685" d="M653.728,108.856l1.018,3.717-.336,1.226-.808-4.484Z" transform="translate(-650.729 -106.625)" fill="#c6baa7"/>
      <path id="Path_27686" data-name="Path 27686" d="M657.579,285.45l-.3,1.086v-1.059h0Z" transform="translate(-653.6 -244.448)" fill="#a55685"/>
      <path id="Path_27687" data-name="Path 27687" d="M649.736,285.573v1.059l-2.122.194v-1.059l2.122-.194Z" transform="translate(-646.056 -244.544)" fill="#cc7aa7"/>
      <path id="Path_27688" data-name="Path 27688" d="M649.736,131.369v31.339l-2.122.194V131.563Z" transform="translate(-646.056 -124.196)" fill="#f2a305"/>
      <path id="Path_27689" data-name="Path 27689" d="M648.929,110.947l.808,4.484-2.122.194.519-4.6.8-.073Z" transform="translate(-646.056 -108.257)" fill="#d3c7b4"/>
      <path id="Path_27690" data-name="Path 27690" d="M652,100.926l-.126.459h0l-.485-2.69Z" transform="translate(-649.005 -98.695)" fill="#3f4f5d"/>
      <path id="Path_27691" data-name="Path 27691" d="M650.287,98.695l.485,2.69-.8.073Z" transform="translate(-647.899 -98.695)" fill="#3f4f5d"/>
      <path id="Path_27692" data-name="Path 27692" d="M648.311,101.043l.677-2.348-.311,2.763Z" transform="translate(-646.6 -98.695)" fill="#5d6571"/>
      <path id="Path_27693" data-name="Path 27693" d="M643.17,158.558V127.219l.976,1.1v31.339Z" transform="translate(-642.588 -120.957)" fill="#f6ba28"/>
      <path id="Path_27694" data-name="Path 27694" d="M641.808,271.181v2.237l-.707-.8-.583-.66v-2.237Z" transform="translate(-640.518 -232.171)" fill="#ead9b5"/>
      <path id="Path_27695" data-name="Path 27695" d="M643.17,113.3l1.129-3.914.366.415-.519,4.6Z" transform="translate(-642.588 -107.042)" fill="#e5d9c6"/>
      <path id="Path_27696" data-name="Path 27696" d="M643.17,283.647v-.73h0l.707.8.268-.025v1.059Z" transform="translate(-642.588 -242.471)" fill="#e0adcc"/>
    </g>
    <g id="Group_36829" data-name="Group 36829" transform="translate(30.349 2.696)">
      <path id="Path_27697" data-name="Path 27697" d="M375.452,67.172l.226.327a.074.074,0,0,0,.1.014l.505-.218c.1-.045.146.059.07.176l-.366.567a.2.2,0,0,0-.037.134l.086.453a.242.242,0,0,1-.184.241l-.452.023a.19.19,0,0,0-.118.068l-.452.5c-.093.1-.2.087-.185-.027l.087-.553c.007-.045-.007-.079-.037-.092l-.366-.145c-.076-.03-.034-.182.07-.258l.505-.365a.285.285,0,0,0,.1-.125l.226-.588C375.271,67.182,375.406,67.1,375.452,67.172Z" transform="translate(-371.12 -64.363)" fill="#7242f9"/>
      <g id="Group_36828" data-name="Group 36828" transform="translate(0)">
        <path id="Path_27698" data-name="Path 27698" d="M387.814,91.572l-.4.23-.51.294a.359.359,0,0,0,.164-.255,1.117,1.117,0,0,0-.164-.726l-2.644-4.58,1.007-.582,2.644,4.58a1.119,1.119,0,0,1,.163.726.361.361,0,0,1-.163.255l-.094.054Z" transform="translate(-378.904 -79.041)" fill="#d2448d"/>
        <path id="Path_27699" data-name="Path 27699" d="M367.858,68.611l-2.643-4.581a2.356,2.356,0,0,0,.426-1.334,5.253,5.253,0,0,0-.428-2.179,6.984,6.984,0,0,0-1.3-2.053,4.374,4.374,0,0,0-1.828-1.247,1.57,1.57,0,0,0-2.151,1.242,4.354,4.354,0,0,0,.166,2.205,6.932,6.932,0,0,0,1.127,2.151,5.268,5.268,0,0,0,1.672,1.461,2.35,2.35,0,0,0,1.37.3l2.643,4.581a1.306,1.306,0,0,0,.351.4.479.479,0,0,0,.5.091l.093-.055a.357.357,0,0,0,.164-.255A1.109,1.109,0,0,0,367.858,68.611Zm-3.28-5.754a1.006,1.006,0,0,1-.087.148.981.981,0,0,1-.748.434,1.97,1.97,0,0,1-1.24-.432,4.561,4.561,0,0,1-1.739-3.012,1.957,1.957,0,0,1,.247-1.291.978.978,0,0,1,.748-.432,1.552,1.552,0,0,1,.172,0A2.134,2.134,0,0,1,363,58.7a4.556,4.556,0,0,1,1.739,3.012A2.106,2.106,0,0,1,364.578,62.857Z" transform="translate(-359.856 -56.537)" fill="#e172b0"/>
        <path id="Path_27700" data-name="Path 27700" d="M364.717,54.666l.011-.006a1.687,1.687,0,0,1,1.337-.1,4.3,4.3,0,0,1,1.849,1.235,6.938,6.938,0,0,1,1.313,2.057,5.3,5.3,0,0,1,.437,2.19,2.368,2.368,0,0,1-.427,1.343l-1.007.582a2.361,2.361,0,0,0,.426-1.335,5.274,5.274,0,0,0-.429-2.179,6.942,6.942,0,0,0-1.3-2.051A4.363,4.363,0,0,0,365.1,55.15a1.715,1.715,0,0,0-1.381.092h0Z" transform="translate(-362.872 -54.468)" fill="#d2448d"/>
        <path id="Path_27701" data-name="Path 27701" d="M367.748,66.943a1,1,0,0,1-.087.148.981.981,0,0,1-.748.434,1.97,1.97,0,0,1-1.24-.432,4.561,4.561,0,0,1-1.739-3.012,1.957,1.957,0,0,1,.247-1.291.978.978,0,0,1,.748-.432,1.554,1.554,0,0,1,.172,0,1.885,1.885,0,0,0-.176.843,4.485,4.485,0,0,0,1.334,2.953,3.175,3.175,0,0,0,.786.584A1.807,1.807,0,0,0,367.748,66.943Z" transform="translate(-363.026 -60.623)" fill="#d2448d"/>
        <path id="Path_27702" data-name="Path 27702" d="M371.327,66.948a1.808,1.808,0,0,1-.7-.207,3.176,3.176,0,0,1-.786-.584A4.486,4.486,0,0,1,368.5,63.2a1.885,1.885,0,0,1,.176-.843,2.133,2.133,0,0,1,1.068.434,4.556,4.556,0,0,1,1.739,3.012A2.106,2.106,0,0,1,371.327,66.948Z" transform="translate(-366.605 -60.628)" fill="#9ed2e9" opacity="0.5"/>
      </g>
    </g>
  </g>
</svg>
