<svg xmlns="http://www.w3.org/2000/svg" xmlns:xlink="http://www.w3.org/1999/xlink" width="180.916" height="100.923" viewBox="0 0 180.916 100.923">
  <defs>
    <linearGradient id="linear-gradient" y1="0.5" x2="1" y2="0.5" gradientUnits="objectBoundingBox">
      <stop offset="0.005" stop-color="#f78a7d"/>
      <stop offset="1" stop-color="#f27682"/>
    </linearGradient>
    <linearGradient id="linear-gradient-2" x1="0.427" y1="0.988" x2="0.596" y2="0.227" gradientUnits="objectBoundingBox">
      <stop offset="0.01" stop-color="#bbddfd"/>
      <stop offset="1" stop-color="#a0ddfd"/>
    </linearGradient>
    <linearGradient id="linear-gradient-3" x1="0.14" y1="0.977" x2="0.886" y2="-0.065" gradientUnits="objectBoundingBox">
      <stop offset="0.025" stop-color="#c41840"/>
      <stop offset="1" stop-color="#bb1640"/>
    </linearGradient>
    <linearGradient id="linear-gradient-4" x1="0.44" y1="1.006" x2="0.905" y2="0.226" gradientUnits="objectBoundingBox">
      <stop offset="0.005" stop-color="#4138a5"/>
      <stop offset="1" stop-color="#3f2ca5"/>
    </linearGradient>
    <linearGradient id="linear-gradient-5" x1="0.457" y1="0.901" x2="0.535" y2="-0.117" xlink:href="#linear-gradient-4"/>
    <linearGradient id="linear-gradient-6" x1="0.938" y1="0.364" x2="0.252" y2="0.92" gradientUnits="objectBoundingBox">
      <stop offset="0" stop-color="#f6413c"/>
      <stop offset="0.995" stop-color="#f53347"/>
    </linearGradient>
    <linearGradient id="linear-gradient-7" x1="0.585" y1="0.259" x2="0.46" y2="0.859" xlink:href="#linear-gradient-6"/>
    <linearGradient id="linear-gradient-8" x1="0.781" y1="0.966" x2="0.293" y2="0.167" gradientUnits="objectBoundingBox">
      <stop offset="0.015" stop-color="#8480c0"/>
      <stop offset="1" stop-color="#7475c0"/>
    </linearGradient>
    <linearGradient id="linear-gradient-9" x1="0.08" y1="0.241" x2="0.781" y2="1.182" gradientUnits="objectBoundingBox">
      <stop offset="0.01" stop-color="#fcd69a"/>
      <stop offset="0.995" stop-color="#efe2d5"/>
    </linearGradient>
    <linearGradient id="linear-gradient-10" x1="0.818" y1="0.049" x2="0.125" y2="0.979" xlink:href="#linear-gradient-8"/>
    <linearGradient id="linear-gradient-11" x1="0.491" y1="0.204" x2="0.555" y2="1.316" xlink:href="#linear-gradient"/>
    <linearGradient id="linear-gradient-12" x1="0.205" y1="0.039" x2="0.994" y2="0.941" xlink:href="#linear-gradient-9"/>
  </defs>
  <g id="Group_41420" data-name="Group 41420" transform="translate(-125.437 -0.567)">
    <path id="Path_25651" data-name="Path 25651" d="M310.334,211.2H435.351s-31.864,8.443-61.633,9.05S310.334,211.2,310.334,211.2Z" transform="translate(-184.897 -118.79)" fill="#d62550"/>
    <path id="Path_25822" data-name="Path 25822" d="M0,0H18V18H0Z" transform="matrix(0.799, -0.602, 0.602, 0.799, 281.144, 48.574)" fill="#f8688b"/>
    <g id="Group_36690" data-name="Group 36690" transform="translate(165.125 0.567)">
      <path id="Path_25652" data-name="Path 25652" d="M456.783,209.7c-.132-.227-1.327.428-2.849,1.282a6.3,6.3,0,0,0-1.909,1.4,30.235,30.235,0,0,0,5.273-.608A6.728,6.728,0,0,0,456.783,209.7Z" transform="translate(-397.798 -119.347)" fill="#4138a5"/>
      <path id="Path_25653" data-name="Path 25653" d="M409.186,71.056a4.773,4.773,0,0,1-1.811,2.3,5.682,5.682,0,0,1-1.64.821,5.126,5.126,0,0,1-.568.139,4.778,4.778,0,0,1-.686.08A5.348,5.348,0,0,1,401.106,73,9.052,9.052,0,0,1,400,71.946l-2.458-.323c-.187.016-.614.83-1.4,1.423a2.813,2.813,0,0,1-2.129.584,2.845,2.845,0,0,1-1.858-1.212,4.589,4.589,0,0,1-.415-.671c.056-.088.114-.172.172-.254A3.851,3.851,0,0,0,393.9,70.3c.036-.036.073-.074.107-.113a1.742,1.742,0,0,0-.666-3.036c-1.428-.479-2.986-.683-3.654-2.686a9.032,9.032,0,0,1,1.017-6.689c1.1-1.969,4.538-7.307,7.073-7.507s3.472,2.135,3.77,2.9c0,0,.6.5.652.534a3.891,3.891,0,0,1,2.586.2c1.5.635,1.8,2.736,1.369,4.8-.143.682-.3,1.231-.462,1.759a36.763,36.763,0,0,0-1.108,3.946c-.08.377-.146.739-.189,1.085-.293,2.228.144,3.833,1.356,4.987A3.531,3.531,0,0,0,409.186,71.056Z" transform="translate(-370.654 -50.258)" fill="#703a22"/>
      <path id="Path_25654" data-name="Path 25654" d="M409.356,74.888a5.683,5.683,0,0,1-1.64.821,5.122,5.122,0,0,1-.568.139,4.779,4.779,0,0,1-.686.08,5.348,5.348,0,0,1-3.376-1.389,9.054,9.054,0,0,1-1.105-1.058l-2.458-.323c-.187.016-.614.83-1.4,1.423a2.813,2.813,0,0,1-2.129.584,2.845,2.845,0,0,1-1.858-1.212,3.882,3.882,0,0,0,3.031-.671c.865-.9,1.783-2.832.321-4s-4.246-3.192-3.339-6.226a16.287,16.287,0,0,1,4.722-7.312c1.555-1.156,2.393-2.851,3.7-1.351s2.207,1.741,3.361,3.394a10,10,0,0,1,1.733,4.219,36.762,36.762,0,0,0-1.108,3.946c-.08.377-.146.739-.189,1.085-1.446,2.55-2.7,4.466-1.681,5.991C405.418,74.112,407.589,74.907,409.356,74.888Z" transform="translate(-372.634 -51.794)" fill="#703a22" opacity="0.3" style="mix-blend-mode: multiply;isolation: isolate"/>
      <path id="Path_25655" data-name="Path 25655" d="M488.292,142.142c0,1.165-1.942,2.16-3.664,2.062s-2.7-.909-3.669-.846a7.38,7.38,0,0,1-4.1-1.046c-1.337-.874-1.235-1.334-.872-2.3a3.837,3.837,0,0,0,.3-1.607c-.007-.386-.053-.854-.129-1.5-.193-1.674-.17-2.766,1.6-4.052a6.507,6.507,0,0,1,5.144-.969,6.843,6.843,0,0,1,3.13,2.11,3.754,3.754,0,0,1,.454.89c.458,1.233.636,2.937.978,4.06A10.224,10.224,0,0,1,488.292,142.142Z" transform="translate(-408.082 -85.557)" fill="#703a22"/>
      <path id="Path_25656" data-name="Path 25656" d="M488.292,143.9c0,1.165-1.942,2.16-3.664,2.062s-2.7-.909-3.669-.846a7.38,7.38,0,0,1-4.1-1.046c-1.337-.874-1.235-1.334-.872-2.3a3.837,3.837,0,0,0,.3-1.607,2.648,2.648,0,0,0,.573-1.438c.075-1.617,1.336-3.267,2.236-2.928,1.009.384,1.672,3.446,4.827,2.719a3.482,3.482,0,0,0,2.565-1.876c.458,1.233.636,2.937.978,4.06A10.224,10.224,0,0,1,488.292,143.9Z" transform="translate(-408.082 -87.313)" fill="#602d19"/>
      <g id="Group_36609" data-name="Group 36609" transform="translate(64.907 36.26)">
        <path id="Path_25657" data-name="Path 25657" d="M476.245,121.791a18.345,18.345,0,0,1-3.047,1.583,8.681,8.681,0,0,1-1.483.448,23.228,23.228,0,0,0-.838-4.454c.007-.049.016-.1.021-.148q.124-.9.2-1.767a26.053,26.053,0,0,0,.076-3.193C471.63,115.123,474.749,120.924,476.245,121.791Z" transform="translate(-470.876 -114.259)" fill="#ffc04f"/>
        <path id="Path_25658" data-name="Path 25658" d="M473.2,125.817a8.682,8.682,0,0,1-1.483.448,23.228,23.228,0,0,0-.838-4.454c.007-.049.016-.1.021-.148q.124-.9.2-1.767c.536,1.088,1.135,2.37,1.366,2.981A9.866,9.866,0,0,1,473.2,125.817Z" transform="translate(-470.876 -116.702)" fill="#f5ae38"/>
      </g>
      <g id="Group_36610" data-name="Group 36610" transform="translate(42.314 1.74)">
        <path id="Path_25659" data-name="Path 25659" d="M442.845,58.652a26.64,26.64,0,0,0-3.155-1.2,11.659,11.659,0,0,0-1.86-.417c-1.051-.13-2.3-.206-3.295-.25s-1.718-.054-1.718-.054h0a6.242,6.242,0,0,0-1.228-.052c-.2.01-.385.024-.571.039l-.019,0a7.9,7.9,0,0,1,4.473-2.986c2.2-.646,3.562-.472,4.506.185a4.082,4.082,0,0,1,1.156,1.308A32.141,32.141,0,0,1,442.845,58.652Z" transform="translate(-430.996 -53.329)" fill="url(#linear-gradient)"/>
        <path id="Path_25660" data-name="Path 25660" d="M446.342,57.9a6.584,6.584,0,0,0,.285-3.533,4.082,4.082,0,0,1,1.156,1.308A32.144,32.144,0,0,1,449.5,59.1,26.642,26.642,0,0,0,446.342,57.9Z" transform="translate(-437.648 -53.781)" fill="#f27079"/>
      </g>
      <g id="Group_36611" data-name="Group 36611" transform="translate(44.135 5.143)">
        <path id="Path_25661" data-name="Path 25661" d="M444.725,61.985c-.879-.025-1.84-.034-2.848-.05a7.921,7.921,0,0,1-2.024-.286c-2.2-.609-3.495-2-5.64-2.315h0s2.91.044,5.013.3a12.821,12.821,0,0,1,2.275.547,27.187,27.187,0,0,1,2.74,1.071,4.838,4.838,0,0,0,.28.438C444.629,61.851,444.725,61.985,444.725,61.985Z" transform="translate(-434.211 -59.334)" fill="#8480c0"/>
        <path id="Path_25662" data-name="Path 25662" d="M449.042,62.636c-.879-.025-1.84-.034-2.848-.05a7.921,7.921,0,0,1-2.024-.286,12.689,12.689,0,0,0,1.645-1.465,27.187,27.187,0,0,1,2.74,1.071,4.839,4.839,0,0,0,.28.438C448.945,62.5,449.042,62.636,449.042,62.636Z" transform="translate(-438.528 -59.985)" fill="#6969b2"/>
      </g>
      <path id="Path_25663" data-name="Path 25663" d="M446.373,85.412a2.175,2.175,0,0,1-.535,1.254,8.526,8.526,0,0,1-1.916,1.71q-.133.092-.274.185a20.214,20.214,0,0,1-3.268,1.779,1.3,1.3,0,0,1-.139-.218,5.689,5.689,0,0,1-.359-.841c-.058-.163-.12-.347-.181-.559a1.919,1.919,0,0,1-.065-1.217,1.555,1.555,0,0,1,.485-.595c.259-.259-.323-.712-.16-1.65a1.185,1.185,0,0,1,.039-.17,1.123,1.123,0,0,1,1-.8s.421.292,1.489,0a2.693,2.693,0,0,0,1.52-1c.292.356,1.716.486,1.716.486a3.5,3.5,0,0,1,.552,1.074,2.538,2.538,0,0,1,.1.447A.927.927,0,0,1,446.373,85.412Z" transform="translate(-392.397 -64.574)" fill="#ffc04f"/>
      <path id="Path_25664" data-name="Path 25664" d="M446.427,85.412a2.175,2.175,0,0,1-.535,1.254,9.92,9.92,0,0,1-2.434.458,3.416,3.416,0,0,0-2.566.219,1.588,1.588,0,0,1-1.2.163,1.554,1.554,0,0,1,.485-.595c.259-.259-.323-.712-.16-1.65a1.177,1.177,0,0,1,.039-.17,1.123,1.123,0,0,1,1-.8s.421.292,1.489,0a2.694,2.694,0,0,0,1.52-1c.292.356,1.716.486,1.716.486a3.5,3.5,0,0,1,.552,1.074,2.543,2.543,0,0,1,.1.447A.938.938,0,0,1,446.427,85.412Z" transform="translate(-392.451 -64.574)" fill="#f5ae38"/>
      <g id="Group_36612" data-name="Group 36612" transform="translate(46.874 23.802)">
        <path id="Path_25665" data-name="Path 25665" d="M445.35,108.978a5.855,5.855,0,0,1-1.189.4,12.176,12.176,0,0,1-3.545.193c-.513-.04-.878-.095-1-.113-.013-.14-.024-.287-.039-.44-.184-2.2-.446-5.7-.527-8.652,0-.151-.006-.3-.008-.454v-.047c0-.143,0-.288,0-.432v-.067c0-.141.006-.282.008-.423,0-.024,0-.049,0-.072,0-.142.01-.283.015-.423,0-.022,0-.043,0-.064.006-.145.011-.288.021-.432,0-.012,0-.025,0-.037.008-.15.018-.3.028-.446v-.009c.012-.148.023-.294.035-.441,0-.016,0-.032,0-.046.012-.141.026-.28.037-.419,0-.02.006-.039.007-.058q.019-.206.042-.409c0-.018,0-.036.006-.054.014-.137.031-.272.045-.406,0-.014,0-.027,0-.039.04-.347.086-.683.131-1.007.012-.082.023-.163.035-.244a.053.053,0,0,0,0-.013c.019-.131.039-.261.057-.387a.065.065,0,0,0,0-.018c.019-.128.039-.252.061-.374v-.008c.02-.123.041-.245.06-.363a3.571,3.571,0,0,0,.5,1.058,20.214,20.214,0,0,0,3.268-1.779q.14-.093.274-.185c.035.331.078.747.128,1.227.018.159.034.327.051.5,0,.019.005.04.007.06s.006.059.008.089q.033.3.066.621v.017c.092.882.194,1.871.294,2.876v.007c.012.124.024.249.036.373,0,.017,0,.033.005.051.01.108.022.216.032.324,0,.029.006.058.008.086.009.086.018.173.026.259,0,.045.009.092.014.139.006.064.013.13.018.195s.012.132.02.2.008.105.014.158c.009.076.015.154.022.231,0,.045.01.09.014.135,0,.071.013.141.019.212,0,.053.01.1.015.156.007.071.011.142.019.213,0,.041.007.082.012.123.006.076.012.152.02.228,0,.032.006.066.009.1.01.088.015.173.022.259,0,.028.007.055.008.084.008.09.017.18.023.269,0,.024.006.048.007.073.009.087.015.174.023.261a.576.576,0,0,0,.006.069c.006.088.014.175.022.262,0,.018,0,.035,0,.052.009.09.016.179.022.266l0,.029c.008.093.014.185.021.274.163,2.125.419,4.433.611,6.051C445.335,108.856,445.344,108.919,445.35,108.978Z" transform="translate(-439.047 -92.27)" fill="url(#linear-gradient-2)"/>
        <path id="Path_25666" data-name="Path 25666" d="M440.616,111.343c-.513-.04-.878-.095-1-.113-.013-.14-.024-.287-.039-.44-.184-2.2-.446-5.7-.527-8.652,0-.151-.006-.3-.008-.454v-.047c0-.143,0-.288,0-.432v-.067c0-.141.006-.282.008-.423,0-.024,0-.049,0-.072,0-.142.01-.283.015-.423,0-.022,0-.043,0-.064.006-.145.011-.288.021-.432,0-.012,0-.025,0-.037.008-.15.018-.3.028-.446v-.009c.012-.148.023-.294.035-.441,0-.016,0-.032,0-.046.012-.141.026-.28.037-.419,0-.02.006-.039.007-.058q.019-.206.042-.409c0-.018,0-.036.006-.054.014-.137.031-.272.045-.406,0-.014,0-.027,0-.039.04-.347.086-.683.131-1.007.094,1.927.3,6.215.407,8.737C439.983,108.306,440.629,110.181,440.616,111.343Z" transform="translate(-439.047 -94.039)" fill="#88c9ff"/>
        <path id="Path_25667" data-name="Path 25667" d="M447.817,110.32c.037-1.268.092-4.171-.055-7.073-.2-3.868-.28-8.811-.28-8.811.018.159.034.327.051.5,0,.019.005.04.007.06s.006.059.008.089q.033.3.066.621v.017c.092.882.194,1.871.294,2.876v.007c.012.124.024.249.036.373,0,.017,0,.033.005.051.01.108.022.216.032.323,0,.029.006.058.008.086.009.086.018.173.026.259,0,.045.009.092.014.139.006.064.013.13.018.195s.013.132.02.2.008.105.014.158c.009.076.015.154.022.231,0,.045.01.09.014.135,0,.071.013.141.019.212,0,.053.01.1.015.156.007.071.011.142.019.213,0,.041.007.082.012.123.006.076.012.152.02.228,0,.032.006.066.009.1.01.088.015.173.022.259,0,.028.007.055.008.084.008.09.017.18.023.269,0,.024.006.048.007.073.009.087.015.174.023.261a.576.576,0,0,0,.006.069c.006.088.014.175.022.262,0,.018,0,.035,0,.052.009.09.016.179.022.266l0,.029c.008.093.014.185.021.274.163,2.125.419,4.433.611,6.051.007.062.016.125.022.184A5.853,5.853,0,0,1,447.817,110.32Z" transform="translate(-442.702 -93.208)" fill="#88c9ff"/>
      </g>
      <path id="Path_25668" data-name="Path 25668" d="M450.241,144.906c-.235,1.066-.519,2.251-.82,3.452-1.071,4.272-2.351,8.746-2.351,8.746s-.454.13-1.217.324c-.978.248-2.462.6-4.144.92q-.469.09-.953.174a38.7,38.7,0,0,1-5.236.589,20.217,20.217,0,0,1-2.1-.041,13.019,13.019,0,0,1-5.661-1.512,25.372,25.372,0,0,1-.357-3.07,81.939,81.939,0,0,1,1.068-16.862c.283-1.608.7-3.4,1.163-5.179a83.134,83.134,0,0,1,2.969-9.41l-.024.224s1.314.465,1.887.645c.1.032.182.057.224.066l-.035-.381c-.029-.3-.07-.762-.118-1.346.105.017.412.062.848.1a10.367,10.367,0,0,0,4.823-.556l.058-.028c.14,1.163.242,1.925.242,1.925s4.076.642,5.921.188c0,0-.137,1.3-.351,2.868v0a27.231,27.231,0,0,1-1.008,5.09s1.012.326,1.8.489a3.2,3.2,0,0,0,.724.092,16.588,16.588,0,0,0,4.206-8.542c.083-.474.156-.942.218-1.4a23.967,23.967,0,0,1,.916,5.966C453.152,132.546,451.309,140.052,450.241,144.906Z" transform="translate(-387.083 -81.251)" fill="url(#linear-gradient-3)"/>
      <path id="Path_25669" data-name="Path 25669" d="M450.028,124.373s.038-1.761.024-2.585l.058-.028c.141,1.163.242,1.925.242,1.925s4.076.642,5.921.188c0,0-.137,1.3-.351,2.868a4.019,4.019,0,0,0-1.332-1.7A12.9,12.9,0,0,1,450.028,124.373Z" transform="translate(-396.932 -81.251)" fill="#ad1242"/>
      <path id="Path_25670" data-name="Path 25670" d="M461.261,145.449c-.235,1.066-.519,2.251-.82,3.452-1.071,4.272-2.351,8.746-2.351,8.746s-.454.13-1.217.323c-.978.248-2.462.6-4.144.92.375-1.413.863-3.265,1.33-5.069.818-3.162,1.573-6.175,1.544-6.431-.06-.545,1.9-8.87,2.281-14.523a3.2,3.2,0,0,0,.724.092,16.588,16.588,0,0,0,4.206-8.542c.083-.474.156-.942.218-1.4a23.967,23.967,0,0,1,.916,5.966C464.172,133.089,462.328,140.6,461.261,145.449Z" transform="translate(-398.102 -81.794)" fill="#ad1242"/>
      <path id="Path_25671" data-name="Path 25671" d="M434.351,124.236s1.314.465,1.887.645c-.395.663-.89,1.511-1.489,2.606-.739,1.344-2.08,3.726-3.343,5.935a83.132,83.132,0,0,1,2.969-9.41Z" transform="translate(-388.86 -82.226)" fill="#ad1242"/>
      <path id="Path_25672" data-name="Path 25672" d="M440.908,122.715c-.169.31-.41.709-.73,1.245-.029-.3-.07-.762-.118-1.346C440.165,122.631,440.472,122.676,440.908,122.715Z" transform="translate(-392.611 -81.621)" fill="#ad1242"/>
      <path id="Path_25673" data-name="Path 25673" d="M449.491,168.707c-1.071,4.272-2.351,8.746-2.351,8.746s-.454.13-1.217.323c-.978.248-2.462.6-4.144.92q-.469.09-.953.174a38.707,38.707,0,0,1-5.236.589,20.22,20.22,0,0,1-2.1-.041,13.018,13.018,0,0,1-5.662-1.512,25.385,25.385,0,0,1-.357-3.07,13.045,13.045,0,0,0,6.7,2.178c2.069-.079,7.746-2.847,8.047-2.789a4.631,4.631,0,0,0,.895-.6C444.554,172.547,447.436,170.249,449.491,168.707Z" transform="translate(-387.153 -101.6)" fill="#b5123d"/>
      <path id="Path_25674" data-name="Path 25674" d="M428.561,89.488a3.085,3.085,0,0,0,.128.614c.062.212.123.4.181.559-.019.118-.04.24-.06.363v.009c-.022.122-.041.246-.061.374a.067.067,0,0,1,0,.018c-.018.126-.038.256-.057.387a.054.054,0,0,1,0,.013c-.058.4-.114.817-.166,1.251,0,.012,0,.025,0,.039-.015.134-.031.269-.045.406,0,.018,0,.036-.006.054q-.023.2-.042.409c0,.02,0,.039-.007.058-.011.139-.024.278-.037.419,0,.014,0,.03,0,.046-.012.147-.023.293-.035.441v.009c-.01.148-.02.3-.028.446,0,.012,0,.025,0,.037-.01.144-.015.287-.021.432,0,.021,0,.042,0,.064-.006.141-.012.282-.015.423,0,.023,0,.048,0,.072,0,.141-.006.282-.008.423v.067c0,.143,0,.289,0,.432V97.4c0,.152,0,.3.008.454.064,2.315.237,4.969.4,7.068.045.576.087,1.109.126,1.584.014.153.025.3.039.44.09,1.061.154,1.727.154,1.727-.284-.066-2.112-.712-2.112-.712l.024-.224.268-2.559c-.615,2.167-4.529,4.659-7.345,4.562s-5.663-2.88-5.663-2.88.564-.2,1.352-.5a48.87,48.87,0,0,0,4.925-1.995,23.852,23.852,0,0,0,2.365-6.516c.617-2.829,1.083-5.6,2.36-8.077a8.235,8.235,0,0,1,.826-1.314,4.84,4.84,0,0,1,1.063-1.016,13.551,13.551,0,0,1,1.937-.977,1.185,1.185,0,0,0-.039.17c-.163.939.42,1.391.16,1.65A1.224,1.224,0,0,0,428.561,89.488Z" transform="translate(-381.385 -65.954)" fill="url(#linear-gradient-4)"/>
      <path id="Path_25675" data-name="Path 25675" d="M460.658,106.987c0,.048-.014.1-.021.148q-.087.62-.2,1.255a16.588,16.588,0,0,1-4.206,8.542,2.756,2.756,0,0,1-.573-.061c-.8-.151-1.951-.521-1.951-.521.68-1.521,1.36-7.96,1.36-7.96-.084.02-.17.038-.261.055a9.37,9.37,0,0,1-1.607.107,31.779,31.779,0,0,1-4.053-.35s-.1-.762-.242-1.925c-.006-.059-.015-.122-.022-.184-.192-1.617-.448-3.926-.611-6.051-.007-.088-.013-.18-.021-.274l0-.029c-.006-.087-.013-.176-.022-.266,0-.017,0-.035,0-.052-.008-.087-.016-.173-.022-.262a.576.576,0,0,1-.006-.069c-.008-.086-.015-.173-.023-.261,0-.025,0-.049-.007-.073-.006-.088-.015-.178-.023-.269,0-.029-.005-.056-.008-.084-.007-.086-.012-.171-.022-.259,0-.033-.006-.066-.009-.1-.007-.076-.014-.152-.02-.228,0-.041-.008-.082-.012-.123-.008-.071-.012-.142-.019-.213-.005-.052-.011-.1-.015-.156-.006-.071-.014-.141-.019-.212,0-.046-.009-.09-.014-.135-.007-.076-.014-.154-.022-.231-.006-.053-.009-.107-.014-.158s-.013-.132-.02-.2-.012-.131-.018-.195c-.005-.047-.01-.093-.014-.139-.008-.087-.017-.173-.026-.259,0-.028-.006-.057-.008-.086-.01-.108-.022-.215-.032-.324,0-.018,0-.034-.005-.051-.012-.125-.024-.249-.036-.373v-.007c-.1-1.006-.2-1.993-.294-2.876v-.017q-.033-.32-.066-.622c0-.03,0-.06-.008-.089s-.005-.041-.007-.06c-.071-.692-.134-1.286-.179-1.727a10.124,10.124,0,0,0,1.419-1.153,2.638,2.638,0,0,0,1.025-1.931,2.538,2.538,0,0,0-.1-.447,13.154,13.154,0,0,1,3.3,1.433c.141.088.28.179.416.275,2.268,1.581,3.366,1.907,5.534,6.18,0,0,0,.007.006.011v0a19.226,19.226,0,0,1,2.069,8.087A28.015,28.015,0,0,1,460.658,106.987Z" transform="translate(-395.73 -65.766)" fill="url(#linear-gradient-5)"/>
      <path id="Path_25676" data-name="Path 25676" d="M426.9,116.109l.268-2.559c-.615,2.167-4.529,4.659-7.345,4.562s-5.663-2.88-5.663-2.88.564-.2,1.352-.5c1.786,1.161,3.945,2.293,5.758,1.412a9.057,9.057,0,0,0,3.87-3.932,5.137,5.137,0,0,0,.862-2.955s-1.134-2.189-.858-3.481c0,0,.352,2.5,1.824,3.351.648.374,1.241,2.217,1.7,4.162.045.576.087,1.109.126,1.584.014.153.025.3.039.44.09,1.061.154,1.727.154,1.727-.284-.066-2.112-.712-2.112-.712Z" transform="translate(-381.385 -74.324)" fill="#302e8e"/>
      <path id="Path_25677" data-name="Path 25677" d="M438.158,88.29a1.224,1.224,0,0,0-.548,1.2,8.33,8.33,0,0,1-2.574-1.024,4.841,4.841,0,0,1,1.063-1.016,13.551,13.551,0,0,1,1.937-.977,1.194,1.194,0,0,0-.039.17C437.835,87.579,438.417,88.031,438.158,88.29Z" transform="translate(-390.434 -65.954)" fill="#302e8e"/>
      <path id="Path_25678" data-name="Path 25678" d="M453.991,87.471a4.814,4.814,0,0,1-1.685,1.064,2.464,2.464,0,0,1-2.546-.12,2.638,2.638,0,0,0,1.025-1.931,2.543,2.543,0,0,0-.1-.447A13.153,13.153,0,0,1,453.991,87.471Z" transform="translate(-396.816 -65.766)" fill="#302e8e"/>
      <path id="Path_25679" data-name="Path 25679" d="M459.55,113.66c-.021,1.925-.41,2.584-.711,2.8a9.369,9.369,0,0,1-1.607.107,21.516,21.516,0,0,0,.75-5.84,45.163,45.163,0,0,0-1.433-6.191C457.14,105.612,459.585,110.491,459.55,113.66Z" transform="translate(-399.759 -73.787)" fill="#302e8e"/>
      <path id="Path_25680" data-name="Path 25680" d="M467.09,113.032c0,.048-.014.1-.021.148q-.087.62-.2,1.255a16.588,16.588,0,0,1-4.206,8.542,2.755,2.755,0,0,1-.573-.061c1.284-2.573,3.811-8.044,4.1-11.729a28.451,28.451,0,0,0-.9-11.2,19.226,19.226,0,0,1,2.069,8.087A28.015,28.015,0,0,1,467.09,113.032Z" transform="translate(-402.162 -71.811)" fill="#302e8e"/>
      <g id="Group_36613" data-name="Group 36613" transform="translate(22.514 21.365)">
        <path id="Path_25681" data-name="Path 25681" d="M401.814,94.99a29.185,29.185,0,0,0-.454,11.066,19.2,19.2,0,0,0,.527,2.238,1.641,1.641,0,0,0,.249.577l.131-.016a5.077,5.077,0,0,1-1.616.182c-.614.006-1.292-.023-1.87-.058-.795-.049-1.4-.108-1.4-.108s-.026-.17-.074-.465c-.193-1.2-.714-4.477-1.025-6.816a24.97,24.97,0,0,1-.232-2.527c0-.375,0-.711,0-1.02.009-.245.026-.489.049-.737a16.758,16.758,0,0,1,.827-3.738,13.535,13.535,0,0,1,.782-1.89c.126-.242.245-.465.359-.674a16.168,16.168,0,0,1,.88-1.385,12.8,12.8,0,0,1,1.117-1.39l-.026-.025c.16-.114.276-.157.383-.234l2.458.323a2.663,2.663,0,0,1,1.164.971c-.137.2-.258.376-.369.543a9.931,9.931,0,0,0-1.5,3.758C402.068,93.977,401.948,94.447,401.814,94.99Z" transform="translate(-396.049 -87.969)" fill="#ffc04f"/>
        <path id="Path_25682" data-name="Path 25682" d="M406.264,89.263c-.137.2-.258.376-.369.543a10.75,10.75,0,0,1-4.728-.188,12.8,12.8,0,0,1,1.117-1.39l-.026-.025c.16-.114.276-.157.383-.234l2.458.323A2.663,2.663,0,0,1,406.264,89.263Z" transform="translate(-398.267 -87.969)" fill="#f5ae38"/>
        <path id="Path_25683" data-name="Path 25683" d="M398.782,115.99c-.795-.049-1.4-.108-1.4-.108s-.026-.17-.074-.465c-.193-1.2-.714-4.477-1.025-6.816a24.97,24.97,0,0,1-.232-2.527c0-.375,0-.711,0-1.02.009-.245.026-.489.049-.737a2.814,2.814,0,0,0,1.609-.172s-.673,1.069-1.472.87Z" transform="translate(-396.049 -94.981)" fill="#f5ae38"/>
        <path id="Path_25684" data-name="Path 25684" d="M405.227,113.135a5.077,5.077,0,0,1-1.616.182c-.172-.777-.386-1.948-.605-3.66a22.319,22.319,0,0,1,2.13-11.812c-.108.412-.228.883-.363,1.425a29.185,29.185,0,0,0-.454,11.066,19.208,19.208,0,0,0,.527,2.238,1.642,1.642,0,0,0,.249.577Z" transform="translate(-399.008 -92.25)" fill="#f5ae38"/>
      </g>
      <g id="Group_36614" data-name="Group 36614" transform="translate(7.57 20.043)">
        <path id="Path_25685" data-name="Path 25685" d="M388.606,88.3a4.342,4.342,0,0,0-1.016,1.189,2.813,2.813,0,0,1-2.129.584,3.289,3.289,0,0,1-2.273-1.883c-.1.163-.2.337-.294.522-.836,1.633-1.375,4.035-2.06,5.859-.971,2.589-1.941,4.822-2.913,5.274s-4.205.486-8.251-.161a11.922,11.922,0,0,1,.173,2.458,3.253,3.253,0,0,1-.173.94,30.134,30.134,0,0,0,6.407,2.167c2.427.323,6.244-1.262,7.507-3.332,0,0,.679,5.014.97,6.244,0,0,.052.047.134.117s.188.156.312.249a1.969,1.969,0,0,0,.944.444s-.036-.169-.1-.465h.022c-.193-1.2-.714-4.477-1.025-6.816a24.971,24.971,0,0,1-.232-2.527c-.011-.343-.011-.682,0-1.02a15.928,15.928,0,0,1,.876-4.475,13.535,13.535,0,0,1,.782-1.89c.118-.235.238-.459.359-.674.106-.185.211-.364.318-.534a14.3,14.3,0,0,1,1.679-2.241Z" transform="translate(-369.671 -86.741)" fill="url(#linear-gradient-6)"/>
        <path id="Path_25686" data-name="Path 25686" d="M395.819,85.635a3.851,3.851,0,0,1-1.985,1.191,2.965,2.965,0,0,1,.774-.774A2.517,2.517,0,0,1,395.819,85.635Z" transform="translate(-380.145 -85.635)" fill="#ff97c1"/>
      </g>
      <path id="Path_25687" data-name="Path 25687" d="M418.5,109.022c-.388,1.909-1.488,1.941-3.5,1.585a23.859,23.859,0,0,1-5.084-1.941,9.217,9.217,0,0,0,.1-1.449h0c.012-1.315-.1-2.823-.1-2.823.872.356,5.084,1.3,5.084,1.3v0c-.039-.077-1.278-2.55-2.3-4.334a18.169,18.169,0,0,0-2.3-3.139c-.324.906-1.554,2.038-1.715,2.491a6.559,6.559,0,0,0-.291,3.689,34.641,34.641,0,0,0,1.127,3.762c.088.257.169.479.233.657.1.272.16.434.16.434-.061.02-.135.04-.216.063-.221.057-.509.117-.829.176-.24.045-.5.088-.754.13l-.189.029c-.79.125-1.56.227-1.861.266l-.131.016a1.64,1.64,0,0,1-.249-.577,19.2,19.2,0,0,1-.527-2.238,29.185,29.185,0,0,1,.454-11.066c.778-3.114,1.015-3.855,1.663-4.879.147-.23.312-.473.51-.761a5.348,5.348,0,0,0,3.376,1.389,4.781,4.781,0,0,0,.686-.08,5.126,5.126,0,0,0,.568-.139,14.014,14.014,0,0,1,1,1.078,25.413,25.413,0,0,1,3.714,6.158,20.067,20.067,0,0,1,.73,1.915h0A16.751,16.751,0,0,1,418.5,109.022Z" transform="translate(-377.344 -67.66)" fill="url(#linear-gradient-7)"/>
      <path id="Path_25688" data-name="Path 25688" d="M384.689,115.124c-.083-.07-.134-.117-.134-.117-.291-1.23-.97-6.244-.97-6.244-1.263,2.07-5.08,3.656-7.507,3.332a30.134,30.134,0,0,1-6.407-2.167,3.253,3.253,0,0,0,.173-.94h0a25.939,25.939,0,0,0,6.133,1.287,6.894,6.894,0,0,0,5.937-2.738,12.715,12.715,0,0,0,1.86-3.545s.276,5.045.576,7.3C384.5,112.41,384.613,113.9,384.689,115.124Z" transform="translate(-362.101 -73.549)" fill="#e02828"/>
      <path id="Path_25689" data-name="Path 25689" d="M413.019,122.828c-.061.02-.135.04-.216.063-.221.057-.509.117-.829.176l.652-1.33c.088.257.169.479.233.657C412.958,122.666,413.019,122.828,413.019,122.828Z" transform="translate(-380.437 -81.241)" fill="#fc72b1"/>
      <path id="Path_25690" data-name="Path 25690" d="M422.389,116.918c-.388,1.909-1.488,1.941-3.5,1.585a23.86,23.86,0,0,1-5.084-1.941,9.213,9.213,0,0,0,.1-1.449,12.234,12.234,0,0,0,5.4,1.6c1.5.014,1.811-.644,1.811-.644a16.968,16.968,0,0,0,.642-7.443A16.751,16.751,0,0,1,422.389,116.918Z" transform="translate(-381.233 -75.556)" fill="#e02828"/>
      <path id="Path_25691" data-name="Path 25691" d="M416.115,110.619c-.039-.077-1.278-2.55-2.3-4.334a18.169,18.169,0,0,0-2.3-3.139c-.324.906-1.554,2.038-1.715,2.491a6.559,6.559,0,0,0-.291,3.689,34.64,34.64,0,0,0,1.127,3.762c.088.257.169.479.233.657l-.056.5c-.221.057-.509.117-.829.176-.24.045-.5.088-.754.13-.147-.665-.411-1.9-.689-3.353a16.4,16.4,0,0,1,.416-5.54c-.582.308-1.566-.341-1.566-.341,2.707-.032,4-3.53,4-3.53a23.666,23.666,0,0,1,2.9,4.331C415.166,108.019,416.087,110.541,416.115,110.619Z" transform="translate(-378.454 -72.592)" fill="#e02828"/>
      <path id="Path_25692" data-name="Path 25692" d="M395.819,85.635a3.851,3.851,0,0,1-1.985,1.191,2.965,2.965,0,0,1,.774-.774A2.517,2.517,0,0,1,395.819,85.635Z" transform="translate(-372.574 -65.592)" fill="#f6413c"/>
      <path id="Path_25693" data-name="Path 25693" d="M398.748,88.323a14.3,14.3,0,0,0-1.679,2.241,3.262,3.262,0,0,1-4.058-1.856c.093-.185.192-.359.294-.522a3.289,3.289,0,0,0,2.273,1.883,2.813,2.813,0,0,0,2.129-.584,4.342,4.342,0,0,1,1.016-1.189Z" transform="translate(-372.218 -66.698)" fill="#e02828"/>
      <path id="Path_25694" data-name="Path 25694" d="M415.3,92.653a8.022,8.022,0,0,1-6.141-1.486c.147-.23.312-.473.51-.761a5.348,5.348,0,0,0,3.376,1.389,4.78,4.78,0,0,0,.686-.08,5.122,5.122,0,0,0,.568-.139A14.008,14.008,0,0,1,415.3,92.653Z" transform="translate(-379.217 -67.66)" fill="#e02828"/>
      <g id="Group_36615" data-name="Group 36615" transform="translate(25.809 50.915)">
        <path id="Path_25695" data-name="Path 25695" d="M416.318,178.045l-.04-.082-.134.051-.679.252a2.8,2.8,0,0,1-.25.148c-1.438-2.665-9.043-16.8-9.571-18.43-.581-1.8-3.778-10.868-3.779-10.869.45-.484.858-.933,1.207-1.33.716-.816,1.506-1.662,2.3-2.528a34.8,34.8,0,0,0,4.12-5.131l.178,15.684a19.012,19.012,0,0,1,4.465,5.63C415.828,164.775,416.659,175.585,416.318,178.045Z" transform="translate(-401.865 -140.127)" fill="url(#linear-gradient-8)"/>
        <path id="Path_25696" data-name="Path 25696" d="M416.144,181.94l-.679.252a2.8,2.8,0,0,1-.25.148c-1.438-2.665-9.043-16.8-9.571-18.43-.581-1.8-3.778-10.868-3.779-10.869.45-.484.858-.933,1.207-1.33.716-.816,1.506-1.662,2.3-2.528.64,4.375,1.522,11.52,2.72,15.212C409.258,167.984,414.234,178.1,416.144,181.94Z" transform="translate(-401.865 -144.053)" fill="#6a6ab7"/>
      </g>
      <g id="Group_36616" data-name="Group 36616" transform="translate(22.511 3.826)">
        <path id="Path_25697" data-name="Path 25697" d="M408.753,66.318a2.318,2.318,0,0,1-2.426.575,9.3,9.3,0,0,1-1,2.2,1.513,1.513,0,0,1-.3.308,7.3,7.3,0,0,1-1.829.977,6.655,6.655,0,0,1-2.756.617,9.85,9.85,0,0,1-3.6-3.228c-.6-1.052-1.452-2.477,0-6.206s2.926-4.429,2.926-4.429a16.292,16.292,0,0,1,5.017.149,2.128,2.128,0,0,1,.54.2c.5.3,1.2,2.853,1.651,4.178a7.278,7.278,0,0,1-.175,3.476,2.687,2.687,0,0,1,1.951-1.3C409.2,63.941,409.6,65.216,408.753,66.318Z" transform="translate(-396.042 -57.012)" fill="#f3b6ab"/>
        <path id="Path_25698" data-name="Path 25698" d="M414.229,66.527a2.318,2.318,0,0,1-2.426.575,9.3,9.3,0,0,1-1,2.2,1.513,1.513,0,0,1-.3.308,7.3,7.3,0,0,1-1.829.977,11.579,11.579,0,0,0,1.91-2.042,11.658,11.658,0,0,0,1.087-4.57c.164-2.036-.9-4.724-1.412-6.484a2.128,2.128,0,0,1,.54.2c.5.3,1.2,2.853,1.651,4.178a7.278,7.278,0,0,1-.175,3.476,2.687,2.687,0,0,1,1.951-1.3C414.68,64.149,415.081,65.424,414.229,66.527Z" transform="translate(-401.519 -57.22)" fill="#f4948e" opacity="0.7"/>
      </g>
      <g id="Group_36617" data-name="Group 36617" transform="translate(40.709 8.603)">
        <path id="Path_25699" data-name="Path 25699" d="M440.705,69.581a3.048,3.048,0,0,1-1.675.784,15.111,15.111,0,0,0-.487,1.772,4.432,4.432,0,0,1-.318.874c-.015.032-.029.065-.045.1a4.934,4.934,0,0,1-2.466,2.26h0c-.113.048-.228.095-.345.136-.165.058-.335.109-.51.151a5.585,5.585,0,0,1-5.984-2.693c-1.314-2.272-.437-5.549-.22-6.461.045-.01.092-.023.138-.036a.133.133,0,0,0,.03-.01c.04-.011.079-.025.12-.04l.015-.005a2.1,2.1,0,0,0,.278-.135,1.947,1.947,0,0,0,.252-.172s2.266.356,2.459.1c.124-.163-.091-.354-.265-.471.258.144.7.352.815.148s-.137-.359-.3-.435a13.5,13.5,0,0,0,3.5.889c.456.04.873.076,1.246.138a3.13,3.13,0,0,1,1.05.335.3.3,0,0,1,.032.018l.006,0A1.673,1.673,0,0,1,438.9,68.4a1.344,1.344,0,0,1,1.755-.971C441.481,67.769,441.286,68.936,440.705,69.581Z" transform="translate(-428.164 -65.441)" fill="#f3b6ab"/>
        <path id="Path_25700" data-name="Path 25700" d="M446.48,70.367a3.048,3.048,0,0,1-1.675.784,15.121,15.121,0,0,0-.487,1.772A4.432,4.432,0,0,1,444,73.8c-.015.032-.029.065-.045.1a4.934,4.934,0,0,1-2.466,2.26h0c.7-1.489,2.187-4.4,2.279-5.971a4.166,4.166,0,0,0-1.05-2.93,3.13,3.13,0,0,1,1.05.335.294.294,0,0,1,.032.018l.006,0a1.673,1.673,0,0,1,.872,1.577,1.344,1.344,0,0,1,1.755-.971C447.255,68.555,447.061,69.722,446.48,70.367Z" transform="translate(-433.938 -66.227)" fill="#f4948e" opacity="0.7"/>
      </g>
      <g id="Group_36618" data-name="Group 36618" transform="translate(71.014 57.701)">
        <path id="Path_25701" data-name="Path 25701" d="M485.1,152.1l-.687,1.225-.426.764c-.56.364-1.893,0-1.893,0l-.264-1.065-.172-.707Z" transform="translate(-481.654 -152.105)" fill="#f3b6ab"/>
        <path id="Path_25702" data-name="Path 25702" d="M485.1,152.1l-.687,1.225a7.4,7.4,0,0,1-2.583-.3l-.172-.707Z" transform="translate(-481.654 -152.105)" fill="#f4948e"/>
      </g>
      <g id="Group_36619" data-name="Group 36619" transform="translate(68.778 48.163)">
        <path id="Path_25703" data-name="Path 25703" d="M487.49,142.987c-.534.7-2.039.267-2.039.267a5.758,5.758,0,0,1-3.7,2.008,3.681,3.681,0,0,1-1.809-.237,3.393,3.393,0,0,1-2.112-4.076,12.473,12.473,0,0,0,.558-3.276,3.111,3.111,0,0,1,.237-1,2.205,2.205,0,0,1,1.51-1.407,2.47,2.47,0,0,0,.073,1.068,5.379,5.379,0,0,0,.2.562,5.078,5.078,0,0,0,2.492,2.349,8.887,8.887,0,0,0,2.46.922,4.345,4.345,0,0,0,1.277.107c.273.171.028.721-.113.986.126-.193.386-.493.744-.34A1.505,1.505,0,0,1,487.49,142.987Z" transform="translate(-477.707 -135.27)" fill="#f3b6ab"/>
        <path id="Path_25704" data-name="Path 25704" d="M481.115,136.9a7.018,7.018,0,0,1-1.785-.223,2.205,2.205,0,0,1,1.51-1.407,2.47,2.47,0,0,0,.073,1.068A5.377,5.377,0,0,0,481.115,136.9Z" transform="translate(-478.411 -135.27)" fill="#f4948e"/>
        <path id="Path_25705" data-name="Path 25705" d="M490.584,146.737c-.534.7-2.039.267-2.039.267a5.758,5.758,0,0,1-3.7,2.008,20.458,20.458,0,0,0,1.984-1.977,12.257,12.257,0,0,0,1.627-3.115,4.346,4.346,0,0,0,1.277.106c.273.171.028.721-.113.986.126-.193.386-.493.744-.34A1.505,1.505,0,0,1,490.584,146.737Z" transform="translate(-480.802 -139.02)" fill="#f4948e" opacity="0.7"/>
      </g>
      <g id="Group_36620" data-name="Group 36620" transform="translate(40.672 76.307)">
        <path id="Path_25706" data-name="Path 25706" d="M433.694,193.13c-.518,2.492-1.359,6.472-1.359,6.472l-.258-.032c-.385-.049-1.072-.135-1.1-.137s-.292-2.032-1.053-5.235-1.827-9.253-1.827-9.253a11.394,11.394,0,0,0,3.813,1.282,17.568,17.568,0,0,0,1.848.23C434.271,187.535,434.192,190.736,433.694,193.13Z" transform="translate(-428.098 -184.945)" fill="#f3b6ab"/>
        <path id="Path_25707" data-name="Path 25707" d="M436.612,194.11c-.518,2.492-1.359,6.472-1.359,6.472l-.258-.032.452-3.32a50.9,50.9,0,0,0,.325-6.483,9.139,9.139,0,0,0-.942-3.54,17.575,17.575,0,0,0,1.848.23C437.189,188.515,437.109,191.716,436.612,194.11Z" transform="translate(-431.016 -185.925)" fill="#f4948e"/>
      </g>
      <g id="Group_36621" data-name="Group 36621" transform="translate(74.26 81.954)">
        <path id="Path_25708" data-name="Path 25708" d="M492.873,202.79a1.95,1.95,0,0,1-.152.22,6.759,6.759,0,0,1-1,.952l-4.336-7.825,2.5-.821,1.22-.4C492.825,197.035,492.873,202.79,492.873,202.79Z" transform="translate(-487.384 -194.914)" fill="#f3b6ab"/>
        <path id="Path_25709" data-name="Path 25709" d="M494.787,202.79a1.95,1.95,0,0,1-.152.22c-.242-1.131-.724-3.315-1.086-4.459a7.831,7.831,0,0,0-1.749-3.236l1.22-.4C494.739,197.035,494.787,202.79,494.787,202.79Z" transform="translate(-489.298 -194.914)" fill="#f4948e"/>
      </g>
      <g id="Group_36622" data-name="Group 36622" transform="translate(58.563 81.064)">
        <path id="Path_25710" data-name="Path 25710" d="M467.341,195.165c-.037,1.469-.673,2.867-2.389,4.645a16.914,16.914,0,0,1-4.659,3.051.254.254,0,0,1-.045-.023h0a2.809,2.809,0,0,1-.57-.568c.551-.81,4.832-8.885,4.787-8.929l1.855,1.176Z" transform="translate(-459.678 -193.341)" fill="#f3b6ab"/>
        <path id="Path_25711" data-name="Path 25711" d="M460.238,210.4s.006,0,.012,0S460.238,210.4,460.238,210.4Z" transform="translate(-459.921 -200.733)" fill="#f4948e"/>
        <path id="Path_25712" data-name="Path 25712" d="M467.778,196.065c-.037,1.469-.673,2.867-2.389,4.645a16.913,16.913,0,0,1-4.659,3.051.255.255,0,0,1-.045-.023c.931-.658,4.145-3.084,4.834-4.322a11.915,11.915,0,0,0,1.237-4Z" transform="translate(-460.115 -194.241)" fill="#f4948e"/>
      </g>
      <path id="Path_25713" data-name="Path 25713" d="M423.652,206.994l-.04-.082-.813.3a2.809,2.809,0,0,1-.25.148,11.473,11.473,0,0,0-3.763,2.957s4.069-.1,5.736-.975A24.7,24.7,0,0,0,423.652,206.994Z" transform="translate(-383.39 -118.16)" fill="#625957"/>
      <path id="Path_25714" data-name="Path 25714" d="M434.231,76.926s-.194.214-1.876.6a11.444,11.444,0,0,1-4.327.161,6.6,6.6,0,0,1-2.847-1.165c-2.255-1.682-1.887-3.721-.864-5.338a13.609,13.609,0,0,0,.984-1.942c.031-.073.061-.147.091-.218.307-.755.522-1.4.609-1.679a2.092,2.092,0,0,0,.417,0,2.029,2.029,0,0,0,.218-.034c-.217.912-1.094,4.19.22,6.461a5.585,5.585,0,0,0,5.984,2.693c.175-.042.345-.093.51-.151.12-.041.235-.088.347-.137Z" transform="translate(-385.439 -57.65)" fill="url(#linear-gradient-9)"/>
      <path id="Path_25715" data-name="Path 25715" d="M398.229,124.042c.061.3.1.465.1.465s-.027-.171-.075-.465Z" transform="translate(-374.479 -82.24)" fill="#ff97c1"/>
      <path id="Path_25716" data-name="Path 25716" d="M393.348,87.769s.033.087.1.224c.056-.089.113-.173.172-.254A1.386,1.386,0,0,1,393.348,87.769Z" transform="translate(-372.364 -66.504)" fill="#4c4749"/>
      <path id="Path_25717" data-name="Path 25717" d="M361.13,207.673s.028-.075.08-.215l-.08-.011c-.446,0-3.3.1-4.821,2.038,0,0,4.5.032,5.985,0l.872-1.781h0l-.193.195C361.517,208.21,361.13,207.673,361.13,207.673Z" transform="translate(-356.309 -118.392)" fill="#625957"/>
      <path id="Path_25718" data-name="Path 25718" d="M394.745,129.53a8.508,8.508,0,0,1-1.31,3.461c-1.6,2.639-4.334,5.277-6.422,7.659-.349.4-.757.846-1.207,1.33-3.432,3.7-9.275,9.412-9.275,9.412,1.649,3.884,0,9.351-2.3,12.1-2.036,2.437-6.412,6.91-7.378,7.894l-.193.195a4.429,4.429,0,0,1-.483.078c-1.062.11-1.362-.3-1.362-.3s.029-.075.082-.216c.961-2.547,10.177-26.954,11.956-30.879.918-2.027,2.4-5.977,3.666-9.487,1.321-3.666,2.409-6.852,2.377-6.874h0a1.969,1.969,0,0,0,.944.444s.429.041,1.037.083a13.227,13.227,0,0,0,3.851-.1c.246-.032.811-.107,1.444-.2a19.4,19.4,0,0,0,2.4-.462C393.679,124.537,395.135,125.8,394.745,129.53Z" transform="translate(-359.996 -82.075)" fill="url(#linear-gradient-10)"/>
      <path id="Path_25719" data-name="Path 25719" d="M434.223,65.862a1.875,1.875,0,0,0-.189-.112S434.111,65.8,434.223,65.862Z" transform="translate(-389.999 -56.972)" fill="#1e61d8"/>
      <path id="Path_25720" data-name="Path 25720" d="M435.187,65.4c-.07-.032-.122-.05-.122-.05Z" transform="translate(-390.446 -56.801)" fill="#1e61d8"/>
      <path id="Path_25721" data-name="Path 25721" d="M432.828,59.287a6.245,6.245,0,0,0-1.228-.052c-.2.01-.385.024-.571.039C431.135,59.267,431.7,59.237,432.828,59.287Z" transform="translate(-388.697 -54.144)" fill="#ff97c1"/>
      <path id="Path_25722" data-name="Path 25722" d="M455.2,72.092h.036a1.132,1.132,0,0,1-.066-.226C455.187,72.005,455.2,72.092,455.2,72.092Z" transform="translate(-399.161 -59.624)" fill="#1e61d8"/>
      <path id="Path_25723" data-name="Path 25723" d="M449.834,62.52s-2.1-1.739-1.27-2.4,1.932,1.623,1.932,1.623-.249-1.462.528-1.591.808,1.844.808,1.844,3.256-1.229,3.958,0l-1.416.648,2.57.872s-.2,1.553-.842,1.812a22.707,22.707,0,0,0-3.008-2.072A6.752,6.752,0,0,0,449.834,62.52Z" transform="translate(-396.213 -54.481)" fill="#8480c0"/>
      <path id="Path_25724" data-name="Path 25724" d="M429.532,67.157l.015-.005Z" transform="translate(-388.048 -57.581)" fill="#ffd0c0"/>
      <path id="Path_25725" data-name="Path 25725" d="M429.268,67.243a.233.233,0,0,0,.03-.01A.233.233,0,0,1,429.268,67.243Z" transform="translate(-387.934 -57.616)" fill="#ffd0c0"/>
      <path id="Path_25726" data-name="Path 25726" d="M429.321,67.2c.041-.012.08-.025.12-.041C429.4,67.176,429.362,67.189,429.321,67.2Z" transform="translate(-387.956 -57.585)" fill="#1e61d8"/>
      <path id="Path_25727" data-name="Path 25727" d="M429.025,67.286c.046-.01.092-.023.138-.036C429.117,67.263,429.071,67.275,429.025,67.286Z" transform="translate(-387.828 -57.623)" fill="#1e61d8"/>
      <path id="Path_25728" data-name="Path 25728" d="M429.559,67.049a2.256,2.256,0,0,0,.279-.134A2.256,2.256,0,0,1,429.559,67.049Z" transform="translate(-388.06 -57.477)" fill="#1e61d8"/>
      <path id="Path_25729" data-name="Path 25729" d="M436.647,124.01Z" transform="translate(-391.132 -82.225)" fill="#ff97c1"/>
      <path id="Path_25730" data-name="Path 25730" d="M439.335,99.42c.012-.138.027-.273.042-.409C439.362,99.147,439.347,99.282,439.335,99.42Z" transform="translate(-392.297 -71.389)" fill="#ff97c1"/>
      <path id="Path_25731" data-name="Path 25731" d="M439.047,105.35c0-.143,0-.288,0-.432C439.046,105.062,439.045,105.207,439.047,105.35Z" transform="translate(-392.172 -73.95)" fill="#ff97c1"/>
      <path id="Path_25732" data-name="Path 25732" d="M439.056,106.217c0-.151-.006-.3-.008-.453C439.05,105.915,439.051,106.066,439.056,106.217Z" transform="translate(-392.173 -74.317)" fill="#ff97c1"/>
      <path id="Path_25733" data-name="Path 25733" d="M439.417,98.6c.015-.137.031-.272.046-.406C439.448,98.332,439.432,98.467,439.417,98.6Z" transform="translate(-392.333 -71.038)" fill="#ff97c1"/>
      <path id="Path_25734" data-name="Path 25734" d="M440.079,93.868q-.031.178-.06.363.03-.185.06-.363Z" transform="translate(-392.594 -69.161)" fill="#ff97c1"/>
      <path id="Path_25735" data-name="Path 25735" d="M439.508,97.172c.051-.433.107-.853.165-1.251C439.615,96.319,439.559,96.738,439.508,97.172Z" transform="translate(-392.372 -70.051)" fill="#ff97c1"/>
      <path id="Path_25736" data-name="Path 25736" d="M439.257,100.255c.012-.141.026-.28.039-.419C439.283,99.975,439.269,100.114,439.257,100.255Z" transform="translate(-392.263 -71.748)" fill="#ff97c1"/>
      <path id="Path_25737" data-name="Path 25737" d="M439.8,95.6c.019-.131.039-.26.058-.387C439.842,95.342,439.822,95.471,439.8,95.6Z" transform="translate(-392.5 -69.745)" fill="#ff97c1"/>
      <path id="Path_25738" data-name="Path 25738" d="M439.066,103.6c0-.141.01-.283.014-.423C439.076,103.321,439.069,103.462,439.066,103.6Z" transform="translate(-392.18 -73.197)" fill="#ff97c1"/>
      <path id="Path_25739" data-name="Path 25739" d="M439.1,102.736c.007-.144.012-.288.022-.432C439.109,102.448,439.1,102.592,439.1,102.736Z" transform="translate(-392.194 -72.817)" fill="#ff97c1"/>
      <path id="Path_25740" data-name="Path 25740" d="M439.14,101.9c.008-.15.018-.3.028-.446C439.158,101.6,439.148,101.748,439.14,101.9Z" transform="translate(-392.213 -72.447)" fill="#ff97c1"/>
      <path id="Path_25741" data-name="Path 25741" d="M439.189,101.1c.012-.148.023-.3.035-.442C439.212,100.8,439.2,100.95,439.189,101.1Z" transform="translate(-392.234 -72.102)" fill="#ff97c1"/>
      <path id="Path_25742" data-name="Path 25742" d="M439.048,104.477c0-.141,0-.282.008-.423C439.053,104.2,439.05,104.336,439.048,104.477Z" transform="translate(-392.173 -73.576)" fill="#ff97c1"/>
      <path id="Path_25743" data-name="Path 25743" d="M439.91,94.9c.019-.127.039-.252.061-.373C439.949,94.647,439.929,94.771,439.91,94.9Z" transform="translate(-392.546 -69.445)" fill="#ff97c1"/>
      <path id="Path_25744" data-name="Path 25744" d="M448.482,104.316c.007.066.014.132.02.2C448.5,104.448,448.489,104.382,448.482,104.316Z" transform="translate(-396.262 -73.689)" fill="#1e61d8"/>
      <path id="Path_25745" data-name="Path 25745" d="M448.828,108.015c.008.09.015.18.023.267C448.843,108.195,448.836,108.105,448.828,108.015Z" transform="translate(-396.412 -75.293)" fill="#1e61d8"/>
      <path id="Path_25746" data-name="Path 25746" d="M448.666,106.24c.007.071.012.142.019.213C448.678,106.382,448.673,106.311,448.666,106.24Z" transform="translate(-396.342 -74.523)" fill="#1e61d8"/>
      <path id="Path_25747" data-name="Path 25747" d="M448.366,103.117c0,.029.006.057.008.087C448.372,103.174,448.368,103.146,448.366,103.117Z" transform="translate(-396.212 -73.17)" fill="#1e61d8"/>
      <path id="Path_25748" data-name="Path 25748" d="M448.721,106.833c.006.076.012.152.02.228C448.733,106.985,448.727,106.909,448.721,106.833Z" transform="translate(-396.366 -74.78)" fill="#1e61d8"/>
      <path id="Path_25749" data-name="Path 25749" d="M448.772,107.41c.008.087.015.173.023.259C448.787,107.583,448.78,107.5,448.772,107.41Z" transform="translate(-396.388 -75.03)" fill="#1e61d8"/>
      <path id="Path_25750" data-name="Path 25750" d="M448.606,105.591c.006.071.013.142.019.213C448.619,105.733,448.612,105.662,448.606,105.591Z" transform="translate(-396.316 -74.242)" fill="#1e61d8"/>
      <path id="Path_25751" data-name="Path 25751" d="M448.542,104.945c.008.076.015.154.022.231C448.557,105.1,448.55,105.021,448.542,104.945Z" transform="translate(-396.288 -73.962)" fill="#1e61d8"/>
      <path id="Path_25752" data-name="Path 25752" d="M448.426,103.725c0,.047.009.093.014.14C448.435,103.818,448.431,103.772,448.426,103.725Z" transform="translate(-396.238 -73.433)" fill="#1e61d8"/>
      <path id="Path_25753" data-name="Path 25753" d="M449.019,110.273c.007.093.014.185.021.274C449.033,110.458,449.026,110.366,449.019,110.273Z" transform="translate(-396.495 -76.271)" fill="#1e61d8"/>
      <path id="Path_25754" data-name="Path 25754" d="M448.976,109.753c.008.09.015.178.022.265C448.991,109.931,448.984,109.843,448.976,109.753Z" transform="translate(-396.476 -76.046)" fill="#1e61d8"/>
      <path id="Path_25755" data-name="Path 25755" d="M448.879,108.616c.009.088.015.175.023.261C448.894,108.791,448.888,108.7,448.879,108.616Z" transform="translate(-396.434 -75.554)" fill="#1e61d8"/>
      <path id="Path_25756" data-name="Path 25756" d="M447.434,94c-.072-.692-.134-1.286-.179-1.726h0C447.3,92.71,447.362,93.305,447.434,94Z" transform="translate(-395.73 -68.468)" fill="#1e61d8"/>
      <path id="Path_25757" data-name="Path 25757" d="M447.584,95.423c0,.029.006.059.008.09C447.59,95.482,447.587,95.452,447.584,95.423Z" transform="translate(-395.873 -69.835)" fill="#1e61d8"/>
      <path id="Path_25758" data-name="Path 25758" d="M448.3,102.456c0,.016,0,.034.006.051C448.3,102.49,448.3,102.472,448.3,102.456Z" transform="translate(-396.183 -72.884)" fill="#1e61d8"/>
      <path id="Path_25759" data-name="Path 25759" d="M448.234,101.784v0Z" transform="translate(-396.154 -72.592)" fill="#1e61d8"/>
      <path id="Path_25760" data-name="Path 25760" d="M447.715,96.678a.086.086,0,0,0,0,.017A.086.086,0,0,1,447.715,96.678Z" transform="translate(-395.929 -70.379)" fill="#1e61d8"/>
      <path id="Path_25761" data-name="Path 25761" d="M448.931,109.2c.006.089.014.176.021.262C448.945,109.374,448.937,109.287,448.931,109.2Z" transform="translate(-396.456 -75.805)" fill="#1e61d8"/>
      <path id="Path_25762" data-name="Path 25762" d="M458.151,208.665a.81.81,0,0,1-.519-.582,9.114,9.114,0,0,1-2.45-1.108,6.106,6.106,0,0,0,2.256,3.421Z" transform="translate(-399.166 -118.187)" fill="#febc4b"/>
      <path id="Path_25763" data-name="Path 25763" d="M493.291,210.077a20.762,20.762,0,0,1-2.087,2.087,3.838,3.838,0,0,0,2.208-.267,5.612,5.612,0,0,0,1.966-1.31,10.886,10.886,0,0,0-.849-1.772S493.5,209.849,493.291,210.077Z" transform="translate(-414.78 -118.985)" fill="#febc4b"/>
      <path id="Path_25764" data-name="Path 25764" d="M431.741,210.634a2.727,2.727,0,0,0-2.193,0,10.3,10.3,0,0,0-2.823,1.7,30.606,30.606,0,0,0,5.209-.506Z" transform="translate(-386.832 -119.671)" fill="#4138a5"/>
      <path id="Path_25765" data-name="Path 25765" d="M397.907,62.872a6.659,6.659,0,0,1,1.846-.625c.525-.125,1-.15.55-.576s-1.376-.126-2.3.6Z" transform="translate(-374.34 -55.12)" fill="#64371f"/>
      <path id="Path_25766" data-name="Path 25766" d="M409.553,62.052c-.764-.292-1.653-.575-1.879,0s.751.675,1.577.776,1.427.323,1.5.149S410.077,62.253,409.553,62.052Z" transform="translate(-378.559 -55.225)" fill="#64371f"/>
      <g id="Group_36623" data-name="Group 36623" transform="translate(25.27 7.85)">
        <path id="Path_25767" data-name="Path 25767" d="M402.47,69.847a2.238,2.238,0,0,1-1.531-.654.1.1,0,0,1-.025-.073.1.1,0,0,1,.036-.069,3.634,3.634,0,0,0,1.2-1.78,8.22,8.22,0,0,0-.608-3.006.1.1,0,0,1,0-.113.1.1,0,0,1,.135-.024,7.5,7.5,0,0,1,.665,3.175,3.6,3.6,0,0,1-1.19,1.828,1.917,1.917,0,0,0,2.143.331.1.1,0,0,1,.129.049.1.1,0,0,1-.048.128A2.19,2.19,0,0,1,402.47,69.847Z" transform="translate(-400.913 -64.113)" fill="#993022"/>
      </g>
      <g id="Group_36624" data-name="Group 36624" transform="translate(33.496 11.603)">
        <path id="Path_25768" data-name="Path 25768" d="M415.482,72.078l-.014,0a.049.049,0,0,1-.033-.061,2.124,2.124,0,0,1,1.156-1.275.048.048,0,0,1,.062.029.049.049,0,0,1-.028.062,2.046,2.046,0,0,0-1.1,1.214A.051.051,0,0,1,415.482,72.078Z" transform="translate(-415.433 -70.736)" fill="#993022"/>
      </g>
      <path id="Path_25769" data-name="Path 25769" d="M365.12,109.223a4.43,4.43,0,0,1-.177.941c-.879-.131-5.992-2.775-5.913-3.146h0c.1-.355,1.114.237,1.163.266-.061-.052-1.6-1.339-1.414-1.6s1.092.448,1.19.523c-.121-.1-1.411-1.2-1.157-1.522s1.6.889,1.716.99c-.09-.1-.942-1.021-.574-1.135s2.437,1.667,2.5,1.722c-.021-.052-.648-1.649-.259-1.6s1.546,1.747,1.546,1.747l1.205.356s.1.721.18,1.684A4.717,4.717,0,0,1,365.12,109.223Z" transform="translate(-357.373 -73.785)" fill="#f3b6ab"/>
      <path id="Path_25770" data-name="Path 25770" d="M457,139.541l-.413.752s-1.82.388-1.747.85,1.7-.122,1.7-.122-1.14,1.8-.946,1.942,1.141-1.189,1.141-1.189-1.047,1.942-.814,2.111,1.471-1.772,1.471-1.772-.682,1.7-.463,1.782,1.262-1.418,1.188-1.369-.509,1.117-.144,1.092,1.65-2.23,1.674-3.493Z" transform="translate(-399.016 -88.958)" fill="#f3b6ab"/>
      <path id="Path_25771" data-name="Path 25771" d="M418.443,115.764c.4,0,.315-1.8-.316-2.305s-.761-.074-.478.729S418.2,115.764,418.443,115.764Z" transform="translate(-382.836 -77.557)" fill="#f3b6ab"/>
      <path id="Path_25772" data-name="Path 25772" d="M416.867,115.421c.379.129.586-1.02.142-1.844s-.687-1.262-.906-1.092S416.149,115.179,416.867,115.421Z" transform="translate(-382.195 -77.215)" fill="#f3b6ab"/>
      <path id="Path_25773" data-name="Path 25773" d="M414.674,114.813c.469.022.485-1.312-.145-2.209s-.874-.97-1.092-.679S414.14,114.788,414.674,114.813Z" transform="translate(-381.057 -76.921)" fill="#f3b6ab"/>
      <path id="Path_25774" data-name="Path 25774" d="M412.9,114.635c.235-.073.182-1.166-.319-1.93s-.816-.982-1.036-.594S412.2,114.853,412.9,114.635Z" transform="translate(-380.238 -76.987)" fill="#f3b6ab"/>
      <path id="Path_25775" data-name="Path 25775" d="M496.626,179.593l.258.469s-.436,1.245-.258,1.375.581-.6.566-.55.371,1.472.551,1.472,0-1.117,0-1.117.388,1.327.63,1.214-.21-1.428-.21-1.428.485,1.088.7.942-.454-1.245-.454-1.245.47.46.68.3-.954-1.29-.954-1.29-.114-.5-.212-.793A1.721,1.721,0,0,0,496.626,179.593Z" transform="translate(-417.112 -106.038)" fill="#f3b6ab"/>
      <path id="Path_25776" data-name="Path 25776" d="M460.757,144.9l-.259-.787s-.081-1.7-.372-1.85-.611,1.318-.611,1.318-.806-.8-1.131-.61.658,1.141.658,1.141-.955-.7-1.117-.329,1.085.955,1.085.955-1.049-.6-1.1-.21,1.194.922,1.194.922.6,1.293.842,1.812c0,0,.227-.841.436-1.456A6.139,6.139,0,0,1,460.757,144.9Z" transform="translate(-400.348 -90.132)" fill="#f3b6ab"/>
      <path id="Path_25777" data-name="Path 25777" d="M482.742,165.071c-.369-.114-1.086.418-1.257.552l-.039.029s-.937-1.521-1.778-2.945-2.654-4.044-2.654-4.044.227,4.044.227,4.174.486,2.847,1.165,5.661a54.647,54.647,0,0,0,1.682,5.5,21.475,21.475,0,0,1-4.3,1.411,16.6,16.6,0,0,1-4.209.4,9.733,9.733,0,0,1-6.634-2.847A39.947,39.947,0,0,0,468.084,164c.391-1.972.69-4.408.856-5.924.1-.871.146-1.438.146-1.438-.452.178-2.977-.791-4.853-3.186a20.885,20.885,0,0,1-2.685-4.336,3.944,3.944,0,0,1,.118-.583,12.091,12.091,0,0,1,.691-1.779,22.614,22.614,0,0,0,2.718,2.88,10.7,10.7,0,0,0,3.665,2.3,3.844,3.844,0,0,0,1.118.032c.317-.023.711-.065,1.2-.134a14.564,14.564,0,0,0,2.2-.452,3.644,3.644,0,0,0,2.1.258,5.855,5.855,0,0,1,2.168,1.164l.074.066a13.729,13.729,0,0,1,4,6.536A24.02,24.02,0,0,1,482.742,165.071Z" transform="translate(-401.925 -92.086)" fill="url(#linear-gradient-11)"/>
      <g id="Group_36625" data-name="Group 36625" transform="translate(42.984 11.972)">
        <path id="Path_25778" data-name="Path 25778" d="M433.243,75.5a2.8,2.8,0,0,1-1.005-.186.1.1,0,0,1-.054-.058.1.1,0,0,1,.007-.078s.412-.752,1.047-1.917a1.161,1.161,0,0,0-.593-1.65c-.034-.02-.061-.037-.075-.047a.1.1,0,1,1,.115-.156c.012.009.033.021.06.038.85.515,1.074,1.158.664,1.909-.5.917-.862,1.58-.993,1.819a2.234,2.234,0,0,0,2.174-.36.1.1,0,1,1,.129.145A2.178,2.178,0,0,1,433.243,75.5Z" transform="translate(-432.179 -71.389)" fill="#993022"/>
      </g>
      <path id="Path_25779" data-name="Path 25779" d="M448.14,70.624a2.044,2.044,0,0,1,.284-.42.049.049,0,0,0,0-.069.048.048,0,0,0-.069,0,3.535,3.535,0,0,0-.54.955h0a4.351,4.351,0,0,0-.185.51.05.05,0,0,0,.041.056h.008a.049.049,0,0,0,.048-.04,3.645,3.645,0,0,1,.152-.427.643.643,0,0,0,.357.166h.027a.222.222,0,0,0,.167-.107C448.588,71.01,448.253,70.713,448.14,70.624Zm.207.573a.125.125,0,0,1-.1.062.568.568,0,0,1-.334-.161c.052-.124.113-.257.178-.385C448.2,70.8,448.455,71.037,448.347,71.2Z" transform="translate(-395.892 -58.868)" fill="#993022"/>
      <g id="Group_36626" data-name="Group 36626" transform="translate(44.582 16.852)">
        <path id="Path_25780" data-name="Path 25780" d="M435.4,80.734a1.138,1.138,0,0,1-.355-.036.1.1,0,0,1,.088-.171,2.174,2.174,0,0,0,1.689-.493.1.1,0,0,1,.137-.007.1.1,0,0,1,.007.137A2.155,2.155,0,0,1,435.4,80.734Z" transform="translate(-435.001 -80.002)" fill="#f27079"/>
      </g>
      <g id="Group_36627" data-name="Group 36627" transform="translate(49.796 19.732)">
        <path id="Path_25781" data-name="Path 25781" d="M444.327,87.692a.244.244,0,0,1-.043,0,.1.1,0,1,1,.031-.191,5.758,5.758,0,0,0,1.646-1.1A2.742,2.742,0,0,0,447,85.182a.162.162,0,0,1,.008-.031.1.1,0,0,1,.184.058v.01a2.811,2.811,0,0,1-1.107,1.333C445.019,87.4,444.568,87.692,444.327,87.692Z" transform="translate(-444.202 -85.085)" fill="#fed1bc"/>
      </g>
      <path id="Path_25782" data-name="Path 25782" d="M435.633,68.285c-.271.036-.064-.688.68-.923s2-.1,2.07.222c.048.228-.129.3-1.052.288A4.346,4.346,0,0,0,435.633,68.285Z" transform="translate(-390.643 -57.62)" fill="#efe2d5"/>
      <path id="Path_25783" data-name="Path 25783" d="M430.9,69.446c.2-.254-.639-.68-1.138-.7-.729-.023-1.132.21-1.1.518s.418.011,1,.032C430.132,69.317,430.7,69.7,430.9,69.446Z" transform="translate(-387.672 -58.272)" fill="#efe2d5"/>
      <g id="Group_36628" data-name="Group 36628" transform="translate(25.324 13.988)">
        <path id="Path_25784" data-name="Path 25784" d="M403.526,75.93a3.424,3.424,0,0,1-2.489-.807.11.11,0,0,1-.019-.12.1.1,0,0,1,.181.012,3.822,3.822,0,0,0,3.17.661.1.1,0,0,1,.026.193A6.44,6.44,0,0,1,403.526,75.93Z" transform="translate(-401.007 -74.948)" fill="#f27079"/>
      </g>
      <g id="Group_36629" data-name="Group 36629" transform="translate(71.15 52.54)">
        <path id="Path_25785" data-name="Path 25785" d="M482.674,145.81a.864.864,0,0,1-.341-.067.842.842,0,0,1-.435-.451.048.048,0,0,1,.026-.06,2.039,2.039,0,0,0,.96-2.179.048.048,0,0,1,.038-.058.049.049,0,0,1,.056.039,2.146,2.146,0,0,1-.971,2.266.763.763,0,0,0,.367.355,1.035,1.035,0,0,0,.828-.067.05.05,0,0,1,.065.025.048.048,0,0,1-.027.063A1.425,1.425,0,0,1,482.674,145.81Z" transform="translate(-481.895 -142.994)" fill="#993022"/>
      </g>
      <g id="Group_36630" data-name="Group 36630" transform="translate(77.019 54.4)">
        <path id="Path_25786" data-name="Path 25786" d="M492.3,147.48a.042.042,0,0,1-.019,0,.05.05,0,0,1-.027-.063,2.494,2.494,0,0,1,1.282-1.135.049.049,0,0,1,0,.1,2.482,2.482,0,0,0-1.2,1.074A.051.051,0,0,1,492.3,147.48Z" transform="translate(-492.254 -146.278)" fill="#993022"/>
      </g>
      <g id="Group_36631" data-name="Group 36631" transform="translate(77.366 54.622)">
        <path id="Path_25787" data-name="Path 25787" d="M493,147.779a.1.1,0,0,1-.067-.024c-.129-.105-.045-.574-.016-.716a.047.047,0,0,1,.057-.037.049.049,0,0,1,.037.057,1.179,1.179,0,0,0-.018.622s.007.005.026,0c.148-.063.272-.625.313-.964a.049.049,0,0,1,.055-.042.05.05,0,0,1,.043.054c-.013.1-.126.937-.375,1.041A.149.149,0,0,1,493,147.779Z" transform="translate(-492.867 -146.671)" fill="#993022"/>
      </g>
      <path id="Path_25788" data-name="Path 25788" d="M481.283,140.279c.179-.132-.547-.644-1.239-.79s-.958-.121-1.007.243.692.267,1.129.364S481.149,140.376,481.283,140.279Z" transform="translate(-409.505 -88.899)" fill="#874329"/>
      <path id="Path_25789" data-name="Path 25789" d="M487.133,142.534c-.05-.185.46-.49,1.151-.293s.875.815.778.937-.656-.267-1.093-.34S487.181,142.716,487.133,142.534Z" transform="translate(-413.014 -90.1)" fill="#874329"/>
      <path id="Path_25790" data-name="Path 25790" d="M481.038,148.934a7.329,7.329,0,0,0,2.808.389s-.871,1.031-1.671,1.014C480.866,150.31,481.038,148.934,481.038,148.934Z" transform="translate(-410.37 -93.029)" fill="#fff"/>
      <g id="Group_36632" data-name="Group 36632" transform="translate(43.657 30.067)">
        <path id="Path_25791" data-name="Path 25791" d="M435.493,112.583l-.023,0a.1.1,0,0,1-.071-.118,8.5,8.5,0,0,0-.2-3.293,5.844,5.844,0,0,1-1.778-4.96,2.035,2.035,0,0,1,.275-.871.1.1,0,0,1,.12.149c-.048.1-1.11,2.768,1.541,5.566a.094.094,0,0,1,.023.043,8.651,8.651,0,0,1,.2,3.412A.1.1,0,0,1,435.493,112.583Z" transform="translate(-433.367 -103.327)" fill="#bbddfd"/>
      </g>
      <g id="Group_36633" data-name="Group 36633" transform="translate(55.102 27.933)">
        <path id="Path_25792" data-name="Path 25792" d="M457.79,114.505a.1.1,0,0,1-.031-.006.1.1,0,0,1-.061-.124c.758-2.235.4-5.2-1.061-8.822a35.808,35.808,0,0,0-2.969-5.707,1.289,1.289,0,0,1-.1-.158.1.1,0,0,1,.062-.123.1.1,0,0,1,.118.052c.008.015.036.057.079.125a36.066,36.066,0,0,1,2.986,5.738c1.48,3.663,1.839,6.677,1.065,8.958A.1.1,0,0,1,457.79,114.505Z" transform="translate(-453.568 -99.561)" fill="#bbddfd"/>
      </g>
      <path id="Path_25793" data-name="Path 25793" d="M438.119,71.821c-.055.361-.246.632-.427.6s-.283-.343-.228-.7.245-.632.428-.6S438.174,71.459,438.119,71.821Z" transform="translate(-391.48 -59.298)" fill="#1e1724"/>
      <path id="Path_25794" data-name="Path 25794" d="M430.743,72.7c-.028.316-.2.559-.381.543s-.308-.286-.28-.6.2-.56.381-.543S430.77,72.379,430.743,72.7Z" transform="translate(-388.285 -59.722)" fill="#1e1724"/>
      <g id="Group_36634" data-name="Group 36634" transform="translate(33.781 11.88)">
        <path id="Path_25795" data-name="Path 25795" d="M416.36,72.136a.133.133,0,0,1-.027,0c-.182-.031-.371-.387-.393-.427a.05.05,0,0,1,.021-.066.048.048,0,0,1,.065.021c.071.137.222.359.323.376a.05.05,0,0,0,.046-.015c.1-.1,0-.5-.095-.73a.051.051,0,0,1,.029-.063.05.05,0,0,1,.063.028c.025.067.254.663.069.837A.152.152,0,0,1,416.36,72.136Z" transform="translate(-415.935 -71.226)" fill="#993022"/>
      </g>
      <path id="Path_25796" data-name="Path 25796" d="M444.885,71.958a3,3,0,0,1-1.737,1.757,9,9,0,0,1-3.715.566c-2.441-.049-2.873-1.513-2.654-3a4.454,4.454,0,0,0,.364-.97,15.111,15.111,0,0,1,.487-1.772,2.886,2.886,0,0,0,1.625-1.053c.437-.767.825-1.543,0-1.883a1.344,1.344,0,0,0-1.755.971,1.673,1.673,0,0,0-.872-1.577l-.006,0a.293.293,0,0,0-.032-.018,5.868,5.868,0,0,0-2.3-.473,13.5,13.5,0,0,1-3.5-.889.882.882,0,0,0-.1-.04l.1.04c.161.076.411.232.3.435s-.558,0-.815-.148a1.838,1.838,0,0,0-.179-.107c.023.016.09.058.179.107.174.118.389.308.265.471-.193.259-2.459-.1-2.459-.1a1.974,1.974,0,0,1-1.051.433,2.093,2.093,0,0,1-.417,0,1.823,1.823,0,0,1-1.472-.984,2.165,2.165,0,0,1-.167-.452c-.356-1.488,1.45-2.153,3.39-2.038A14.255,14.255,0,0,1,435.2,63.27a13.243,13.243,0,0,0,2.215.957,47.782,47.782,0,0,0,4.839,1.34,2.656,2.656,0,0,0-.22,1.271c0,.062,0,.126,0,.194a1.466,1.466,0,0,0,.024.22c.016.138.031.224.031.224l.037,0a1.447,1.447,0,0,0,.786.718c.372.178.833.319,1.312.51C445.362,69.159,445.5,70.178,444.885,71.958Z" transform="translate(-386.054 -55.009)" fill="url(#linear-gradient-12)"/>
      <path id="Path_25797" data-name="Path 25797" d="M440.927,66.639a1.136,1.136,0,0,1-.067-.226c-.008-.063-.015-.138-.024-.22a2.884,2.884,0,0,1,.216-1.465s-4.95-1.067-7.054-2.3a14.255,14.255,0,0,0-6.834-2.038c-1.94-.116-3.746.55-3.39,2.038a1.83,1.83,0,0,0,1.638,1.436c-.087.275-.3.924-.609,1.679a7.225,7.225,0,0,1-2.271-2.106,2.427,2.427,0,0,1-.377-1.332c.062-1.531,1.775-2.539,5.027-2.808.106-.007.667-.036,1.8.013h.006c2.727.4,4.087,2.544,7.664,2.6,1.008.016,1.969.024,2.848.05,2.681.077,4.618.317,4.885,1.438a.444.444,0,0,1,.01.05C444.694,64.923,442.8,66.741,440.927,66.639Z" transform="translate(-384.85 -54.171)" fill="url(#linear-gradient)"/>
      <g id="Group_36635" data-name="Group 36635" transform="translate(20.613 27.063)">
        <path id="Path_25798" data-name="Path 25798" d="M393.589,106.465h0a.1.1,0,0,1-.1-.1c0-.025.008-2.455.167-4.921a3.09,3.09,0,0,1-.769-3.355.1.1,0,0,1,.184.062,2.882,2.882,0,0,0,.744,3.174.1.1,0,0,1,.037.083c-.159,2.477-.169,4.933-.169,4.957A.1.1,0,0,1,393.589,106.465Z" transform="translate(-392.693 -98.026)" fill="#fed1bc"/>
      </g>
      <g id="Group_36636" data-name="Group 36636" transform="translate(28.052 30.195)">
        <path id="Path_25799" data-name="Path 25799" d="M407.149,105.694a4.286,4.286,0,0,1-1.259-.189.1.1,0,0,1-.062-.124.1.1,0,0,1,.124-.061,3.7,3.7,0,0,0,2.526-.114,2.527,2.527,0,0,0,1.241-1.583.1.1,0,1,1,.184.057,2.7,2.7,0,0,1-1.337,1.7A3.114,3.114,0,0,1,407.149,105.694Z" transform="translate(-405.823 -103.555)" fill="#fed1bc"/>
      </g>
      <path id="Path_25800" data-name="Path 25800" d="M401.145,67.234c-.117.508-.4.876-.639.821s-.329-.51-.21-1.019.4-.875.638-.821S401.263,66.726,401.145,67.234Z" transform="translate(-375.353 -57.173)" fill="#1e1724"/>
      <path id="Path_25801" data-name="Path 25801" d="M410.453,68.475c-.117.508-.4.875-.637.821s-.329-.51-.211-1.019.4-.875.638-.821S410.572,67.966,410.453,68.475Z" transform="translate(-379.388 -57.71)" fill="#1e1724"/>
      <path id="Path_25802" data-name="Path 25802" d="M481.044,143.134c-.1.336-.29.577-.416.537s-.143-.343-.039-.678.291-.576.416-.537S481.149,142.8,481.044,143.134Z" transform="translate(-410.149 -90.22)" fill="#1e1724"/>
      <path id="Path_25803" data-name="Path 25803" d="M487.13,145.247c-.105.335-.291.576-.417.537s-.143-.343-.039-.678.291-.576.416-.537S487.234,144.911,487.13,145.247Z" transform="translate(-412.787 -91.135)" fill="#1e1724"/>
      <g id="Group_36637" data-name="Group 36637" transform="translate(26.911 15.91)">
        <path id="Path_25804" data-name="Path 25804" d="M408.692,78.34s-.5,1.517-1.068,3.036a12.634,12.634,0,0,1-1.38,2.953c-.728.728-1.893.849-2.184.34a13.44,13.44,0,0,1-.246-3.131c-.009-.73,0-1.3,0-1.3.76.178,3.546-.737,4.585-1.594A1.513,1.513,0,0,0,408.692,78.34Z" transform="translate(-403.81 -78.34)" fill="#f3b6ab"/>
        <path id="Path_25805" data-name="Path 25805" d="M408.692,78.34s-.5,1.517-1.068,3.036a8.218,8.218,0,0,1-3.809.163c-.009-.73,0-1.3,0-1.3.76.178,3.546-.737,4.585-1.594A1.513,1.513,0,0,0,408.692,78.34Z" transform="translate(-403.81 -78.34)" fill="#f4948e"/>
      </g>
      <path id="Path_25806" data-name="Path 25806" d="M365.323,111.122a4.431,4.431,0,0,1-.177.941c-.879-.131-5.992-2.775-5.913-3.146l.769.331A48.047,48.047,0,0,0,365.323,111.122Z" transform="translate(-357.576 -75.683)" fill="#f4948e"/>
      <g id="Group_36638" data-name="Group 36638" transform="translate(25.226 33.705)">
        <path id="Path_25807" data-name="Path 25807" d="M408.265,115.589c-.024.857-.079,1.461-.079,1.461a28.222,28.222,0,0,1-3.225-2.2c-.122-.1-2.853-.519-2.84-1a.22.22,0,0,1,.01-.057c.106-.354,1.132-.014,1.31.048-.233-.09-1.943-.767-1.883-1.219s1.351.079,1.525.152c-.227-.107-2.422-1.143-2.237-1.506.193-.381,2.257.382,2.257.382s-1.424-.987-1.182-1.181,2.791.873,2.913.9-.364-1.553,0-1.613.97,1.88,1.286,2.219a8.017,8.017,0,0,0,2.066.808,14.514,14.514,0,0,1,.087,1.78C408.279,114.925,408.274,115.274,408.265,115.589Z" transform="translate(-400.835 -109.75)" fill="#f3b6ab"/>
        <path id="Path_25808" data-name="Path 25808" d="M409.249,118.68c-.024.857-.079,1.461-.079,1.461a28.221,28.221,0,0,1-3.225-2.2c-.122-.1-2.853-.519-2.84-1a.221.221,0,0,1,.01-.057,18.993,18.993,0,0,1,3.139.673C406.787,117.81,408.548,118.434,409.249,118.68Z" transform="translate(-401.819 -112.84)" fill="#f4948e"/>
      </g>
      <g id="Group_36639" data-name="Group 36639" transform="translate(47.91 16.172)">
        <path id="Path_25809" data-name="Path 25809" d="M444.661,81.424a2.234,2.234,0,0,1-1.553,1.019c-1.237.315-1.351.121-1.351.121a2.686,2.686,0,0,0-.418-.71,3.959,3.959,0,0,0-.464-.557h0a4.967,4.967,0,0,0,2.813-2.4c.016-.032.03-.065.045-.1-.032.274-.063.648-.077,1.1a1.513,1.513,0,0,0,.454,1.1A2.217,2.217,0,0,0,444.661,81.424Z" transform="translate(-440.875 -78.803)" fill="#f3b6ab"/>
        <path id="Path_25810" data-name="Path 25810" d="M444.112,81a5.558,5.558,0,0,1-2.773.853,3.959,3.959,0,0,0-.464-.557h0a4.967,4.967,0,0,0,2.813-2.4c.016-.032.03-.065.045-.1-.032.274-.063.648-.077,1.1A1.513,1.513,0,0,0,444.112,81Z" transform="translate(-440.875 -78.803)" fill="#f4948e"/>
      </g>
      <g id="Group_36640" data-name="Group 36640" transform="translate(53.672 76.176)">
        <path id="Path_25811" data-name="Path 25811" d="M456.357,198.842l-.29.093-.663.212-4.359-13.339c1.261-.219,2.448-.467,3.446-.7.638-.146,1.2-.283,1.651-.4C458.308,188.849,456.357,198.842,456.357,198.842Z" transform="translate(-451.045 -184.715)" fill="#f3b6ab"/>
        <path id="Path_25812" data-name="Path 25812" d="M458.994,198.842l-.29.093c.084-1.8.3-7.4-.131-9.56a15.973,15.973,0,0,0-1.445-4.262c.639-.146,1.2-.283,1.651-.4C460.945,188.849,458.994,198.842,458.994,198.842Z" transform="translate(-453.682 -184.715)" fill="#f4948e"/>
      </g>
      <path id="Path_25813" data-name="Path 25813" d="M395.787,129.53a8.508,8.508,0,0,1-1.31,3.461c-1.6,2.639-4.334,5.277-6.422,7.659-.349.4-.757.846-1.207,1.33-3.432,3.7-9.275,9.412-9.275,9.412,1.649,3.884,0,9.351-2.3,12.1-2.036,2.437-6.412,6.91-7.378,7.894l-.193.195a4.43,4.43,0,0,1-.483.078c1.314-1.7,7.19-9.4,8.281-13.02a22.35,22.35,0,0,0,.777-8.025s5.693-6.471,9.641-10.8,6.536-7.319,6.4-9.713a16.135,16.135,0,0,0-1.1-5.978,19.4,19.4,0,0,0,2.4-.462C394.721,124.537,396.177,125.8,395.787,129.53Z" transform="translate(-361.038 -82.075)" fill="#6a6ab7"/>
      <path id="Path_25814" data-name="Path 25814" d="M396.893,124.607c-1.086,1.462-3.02,4.334-4.359,6.348,1.321-3.666,2.409-6.852,2.377-6.874h0a1.969,1.969,0,0,0,.944.444S396.285,124.564,396.893,124.607Z" transform="translate(-372.011 -82.257)" fill="#6a6ab7"/>
      <path id="Path_25815" data-name="Path 25815" d="M443.31,74.819a9,9,0,0,1-3.715.566c-2.441-.049-2.874-1.513-2.654-3a4.455,4.455,0,0,0,.364-.97,15.111,15.111,0,0,1,.487-1.772,2.886,2.886,0,0,0,1.625-1.053c.437-.767.825-1.543,0-1.883a1.344,1.344,0,0,0-1.755.971,1.673,1.673,0,0,0-.872-1.577l-.006,0a.292.292,0,0,0-.032-.018,5.868,5.868,0,0,0-2.3-.473,13.5,13.5,0,0,1-3.5-.889c.161.076.411.232.3.435s-.558,0-.815-.148c.175.118.389.308.265.471-.193.259-2.459-.1-2.459-.1a2.025,2.025,0,0,1-.833.4c-.217.912-1.094,4.19.22,6.461a5.585,5.585,0,0,0,5.984,2.693c.175-.042.345-.093.51-.151.12-.041.235-.088.347-.137l.533.746s-.194.214-1.876.6a11.444,11.444,0,0,1-4.327.161,18.154,18.154,0,0,0-1.879-3.332c-.673-1.187-.827-3.53-.848-5.113.031-.073.061-.147.091-.218.307-.755.522-1.4.609-1.679a1.823,1.823,0,0,1-1.472-.984c.959.2,2.349.437,3.037-.111,1.1-.875,2.313-1.261,3.333-.655a11.075,11.075,0,0,0,4.616,1.334,9.346,9.346,0,0,0,1.287-.062,47.782,47.782,0,0,0,4.839,1.34,2.656,2.656,0,0,0-.22,1.271c0,.062,0,.126,0,.194a1.462,1.462,0,0,0,.024.22c.016.138.031.224.031.224l.037,0a1.447,1.447,0,0,0,.786.718C442.391,70.611,442.256,73.453,443.31,74.819Z" transform="translate(-386.216 -56.112)" fill="#f9dabb" opacity="0.4" style="mix-blend-mode: multiply;isolation: isolate"/>
      <path id="Path_25816" data-name="Path 25816" d="M441.2,67.08a1.139,1.139,0,0,1-.067-.226c-.008-.063-.015-.138-.024-.22a2.884,2.884,0,0,1,.216-1.465s-4.95-1.067-7.054-2.3a14.255,14.255,0,0,0-6.834-2.038c-1.94-.116-3.746.55-3.39,2.038a1.83,1.83,0,0,0,1.638,1.436c-.087.275-.3.924-.609,1.679A7.225,7.225,0,0,1,422.8,63.88a2.738,2.738,0,0,1,.642-2.216c1.308-1.427,4.378-1.778,6.946-.844a73.882,73.882,0,0,0,7.772,2.827c1.735.391,4.853-.3,6.5.245C444.966,65.364,443.074,67.182,441.2,67.08Z" transform="translate(-385.121 -54.611)" fill="#f27079"/>
      <path id="Path_25817" data-name="Path 25817" d="M484.018,156.412c-1.058,0-2.336,0-3.613.02a8.613,8.613,0,0,1-4.135-.922c.318-.023.709-.065,1.2-.134a14.5,14.5,0,0,0,2.2-.452,3.649,3.649,0,0,0,2.105.258,5.85,5.85,0,0,1,2.166,1.164Z" transform="translate(-408.307 -95.626)" fill="#ef786f" opacity="0.3" style="mix-blend-mode: multiply;isolation: isolate"/>
      <path id="Path_25818" data-name="Path 25818" d="M468.94,161.44c.1-.871.146-1.438.146-1.438-.452.178-2.977-.791-4.853-3.186a20.884,20.884,0,0,1-2.685-4.336,3.944,3.944,0,0,1,.118-.583,16.658,16.658,0,0,0,2.6,3.677c1.108,1.288,3.921,2.933,4.89,2.96A4.271,4.271,0,0,1,468.94,161.44Z" transform="translate(-401.925 -94.313)" fill="#ef786f" opacity="0.3" style="mix-blend-mode: multiply;isolation: isolate"/>
      <path id="Path_25819" data-name="Path 25819" d="M490.564,170.336c-.842-1.423-2.654-4.044-2.654-4.044s.227,4.044.227,4.174.486,2.847,1.165,5.661a54.64,54.64,0,0,0,1.682,5.5,21.473,21.473,0,0,1-4.3,1.411c.193-1.065.387-2.152.4-2.263.019-.225.563-6.958.514-9.19s-.318-7.231-.318-7.231c2.913,3.593,2.845,3.549,3.8,5.435a13.368,13.368,0,0,1,1.3,3.461l-.039.029S491.405,171.76,490.564,170.336Z" transform="translate(-412.821 -99.714)" fill="#ef786f" opacity="0.3" style="mix-blend-mode: multiply;isolation: isolate"/>
      <g id="Group_36641" data-name="Group 36641" transform="translate(25.713 50.694)">
        <path id="Path_25820" data-name="Path 25820" d="M401.792,149.045a.1.1,0,0,1-.066-.168,72.721,72.721,0,0,0,7.689-9.1.1.1,0,0,1,.135-.023.1.1,0,0,1,.024.135,72.972,72.972,0,0,1-7.715,9.128A.1.1,0,0,1,401.792,149.045Z" transform="translate(-401.695 -139.737)" fill="#4138a5"/>
      </g>
    </g>
  </g>
</svg>
