<svg id="Fun_Practice" data-name="Fun Practice" xmlns="http://www.w3.org/2000/svg" width="148" height="95.722" viewBox="0 0 148 95.722">
  <g id="Group_37337" data-name="Group 37337" transform="translate(12.394 93.866)">
    <rect id="Rectangle_3821" data-name="Rectangle 3821" width="17.507" height="1.335" rx="0.667" transform="translate(0)" fill="#adbec4"/>
    <rect id="Rectangle_3822" data-name="Rectangle 3822" width="5.551" height="1.335" rx="0.667" transform="translate(116.253)" fill="#adbec4"/>
    <rect id="Rectangle_3823" data-name="Rectangle 3823" width="17.507" height="1.335" rx="0.667" transform="translate(30.975)" fill="#adbec4"/>
    <rect id="Rectangle_3824" data-name="Rectangle 3824" width="17.507" height="1.335" rx="0.667" transform="translate(55.143)" fill="#adbec4"/>
    <rect id="Rectangle_3825" data-name="Rectangle 3825" width="23.485" height="1.335" rx="0.667" transform="translate(78.765)" fill="#adbec4"/>
  </g>
  <g id="Group_37346" data-name="Group 37346" transform="translate(0.465 19.825)">
    <path id="Path_28600" data-name="Path 28600" d="M106.618,159.615a4.943,4.943,0,0,0-4.281-.272c-2.543.911-3.114,4.335-2.487,7.114s-2.875,12.266-2.875,12.266,1.819,2.559,8.178,1.58c0,0,4.741-8.617,4.389-14.8S106.618,159.615,106.618,159.615Z" transform="translate(-72.189 -158.999)" fill="#0e3944"/>
    <path id="Path_28601" data-name="Path 28601" d="M135.976,196.466c2.39-.764,3.852,1.226,5.222,4.929s1.83,4.075,1.83,4.075l5.285,3.4-.439,1.979s-5.03-1.969-6.246-3.222-4.715-7.6-4.715-7.6Z" transform="translate(-99.539 -185.16)" fill="#ef6e4b"/>
    <path id="Path_28602" data-name="Path 28602" d="M90.144,276.941a67.335,67.335,0,0,0-.866,13.155s-4.086,6.025-.714,23.215h1.769s1.445-14.626,2.55-18.589,5.188-5.179,5.409-17.229Z" transform="translate(-65.355 -241.71)" fill="#ff8b66"/>
    <path id="Path_28603" data-name="Path 28603" d="M41.813,289.158c-1.028-3.387-3.669-9.06-10.446-16.749a1.007,1.007,0,0,0-.951.125c-.577.353-.577.767-.577.767s3.4,7.405,5.565,12.831a4.8,4.8,0,0,0,4.461,3.027Z" transform="translate(-25.108 -238.486)" fill="#ff8b66"/>
    <path id="Path_28604" data-name="Path 28604" d="M62.3,277.943s.023,2.527-1.635,2.57c-2.341.063-2.428-2.487-5.081-2.4s-8.125.746-9.867-3.4c-.9-2.142.332-4.892-2.57-6.965s-1.492-4.394,0-5.638-.643-2.6.912-3.234a1.521,1.521,0,0,1,1.074-.02,2.5,2.5,0,0,1,.564.285,5.45,5.45,0,0,1,1.4,1.5c4.394-12.035,12.218-13.624,12.218-13.624l7.738,2.67C67.234,268.408,62.3,277.943,62.3,277.943Z" transform="translate(-33.253 -220.723)" fill="#164353"/>
    <path id="Path_28605" data-name="Path 28605" d="M109.591,194.292a10.133,10.133,0,0,1-4.373.219c-2.567-.39-3.4-2-5.207-.964-2.71,1.558-1.442,6.92-.761,9.708a13.933,13.933,0,0,1-.037,6.024s3.608,2.807,7.737,2.668l2.253-4.9A10.874,10.874,0,0,0,109.591,194.292Z" transform="translate(-73.154 -182.986)" fill="#cfd8dc"/>
    <path id="Path_28606" data-name="Path 28606" d="M119.13,180.859a11.075,11.075,0,0,1-.638,4.844s1.339,1.978,2.618.676a12.78,12.78,0,0,1,1.553-4.954C123.625,179.664,119.13,180.859,119.13,180.859Z" transform="translate(-87.278 -174.051)" fill="#ef6e4b"/>
    <g id="Group_37341" data-name="Group 37341" transform="translate(28.786 0.985)">
      <path id="Path_28607" data-name="Path 28607" d="M111.378,181.544s-1.13-.715-1,.388c.148,1.278,1.394,1.527,1.527,1.08S111.378,181.544,111.378,181.544Z" transform="translate(-110.365 -175.634)" fill="#ff8b66"/>
      <path id="Path_28608" data-name="Path 28608" d="M135.362,176.215s.718-1.129,1.072-.076c.411,1.219-.61,1.976-.921,1.628S135.362,176.215,135.362,176.215Z" transform="translate(-127.867 -171.689)" fill="#ff8b66"/>
      <path id="Path_28609" data-name="Path 28609" d="M117,174.073c-2.05.459-3.506-.621-4.405-4.636-.464-2.071.306-3.578,2.6-4.092s3.547.54,4.011,2.611C120.174,172.271,119.119,173.6,117,174.073Z" transform="translate(-111.839 -164.344)" fill="#ff8b66"/>
      <path id="Path_28610" data-name="Path 28610" d="M131.673,179.18a.5.5,0,1,1-.6-.173A.446.446,0,0,1,131.673,179.18Z" transform="translate(-124.663 -173.984)" fill="#db614d"/>
      <path id="Path_28611" data-name="Path 28611" d="M117.546,182.487a.5.5,0,1,1-.539-.308A.445.445,0,0,1,117.546,182.487Z" transform="translate(-114.726 -176.234)" fill="#db614d"/>
      <g id="Group_37338" data-name="Group 37338" transform="translate(4.542 2.956)">
        <path id="Path_28612" data-name="Path 28612" d="M126.612,172.56a.1.1,0,0,1-.058-.018,1.2,1.2,0,0,0-.853-.108.105.105,0,1,1-.052-.2,1.4,1.4,0,0,1,1.021.137.105.105,0,0,1-.059.192Z" transform="translate(-125.57 -172.189)" fill="#0e3944"/>
      </g>
      <g id="Group_37339" data-name="Group 37339" transform="translate(1.62 3.47)">
        <path id="Path_28613" data-name="Path 28613" d="M115.892,174.631a.106.106,0,0,1-.054-.015.1.1,0,0,1-.036-.144,1.4,1.4,0,0,1,.865-.559.107.107,0,0,1,.122.083.105.105,0,0,1-.083.123,1.214,1.214,0,0,0-.725.462A.1.1,0,0,1,115.892,174.631Z" transform="translate(-115.787 -173.911)" fill="#0e3944"/>
      </g>
      <path id="Path_28614" data-name="Path 28614" d="M128.108,176.238c.057.255-.012.487-.153.518s-.3-.149-.359-.4.011-.487.153-.518S128.051,175.983,128.108,176.238Z" transform="translate(-122.435 -171.787)" fill="#1a4850"/>
      <path id="Path_28615" data-name="Path 28615" d="M118.575,178.289c.057.255-.012.487-.153.518s-.3-.149-.359-.4.012-.487.153-.518S118.518,178.035,118.575,178.289Z" transform="translate(-115.75 -173.226)" fill="#1a4850"/>
      <path id="Path_28616" data-name="Path 28616" d="M122.907,185.913a4.246,4.246,0,0,0,1.9-.6s-.16,1.028-.876,1.1A1.047,1.047,0,0,1,122.907,185.913Z" transform="translate(-119.161 -178.439)" fill="#1a4850"/>
      <path id="Path_28617" data-name="Path 28617" d="M126.941,175.392s.046-.669.3-.679.563.485.563.485l.32-.274-.353.129s-.315-.518-.559-.464C126.869,174.665,126.941,175.392,126.941,175.392Z" transform="translate(-121.986 -170.914)" fill="#1a4850"/>
      <path id="Path_28618" data-name="Path 28618" d="M117.363,177.59s-.327-.585-.563-.485-.3.679-.3.679l-.407-.111.375-.034s.064-.6.307-.658C117.118,176.9,117.363,177.59,117.363,177.59Z" transform="translate(-114.38 -172.589)" fill="#1a4850"/>
      <g id="Group_37340" data-name="Group 37340" transform="translate(3.961 5.34)">
        <path id="Path_28619" data-name="Path 28619" d="M124.075,181.117l-.105-.2a.262.262,0,0,0,.167-.3.28.28,0,0,0-.2-.223c-.041,0-.076.033-.1.106l-.212-.079a.326.326,0,0,1,.333-.253.5.5,0,0,1,.4.4A.489.489,0,0,1,124.075,181.117Z" transform="translate(-123.626 -180.171)" fill="#db614d"/>
      </g>
      <path id="Path_28620" data-name="Path 28620" d="M111.693,168.927a10.068,10.068,0,0,1-.257-3.971,4.464,4.464,0,0,1,5.225-1.255,13.882,13.882,0,0,1,1.526,3.944,9,9,0,0,0-.214-2.666c-.343-1.84-1.975-2.983-4.214-2.615S109.125,164.959,111.693,168.927Z" transform="translate(-110.518 -162.295)" fill="#0e3944"/>
    </g>
    <path id="Path_28621" data-name="Path 28621" d="M114.579,161.683a4.464,4.464,0,0,1-.454,2.17.645.645,0,0,0-.922,0c-.5.444-1.508.3-1.852.536a1.063,1.063,0,0,0-.345.788,2.174,2.174,0,0,1,0-1.5,3.009,3.009,0,0,0-.582,1.907s-.91-.147-.869-1.649a4.707,4.707,0,0,1,4.57-3.774c2.394.158,2.964,3.949,2.964,3.949a.7.7,0,0,0-.56-.1,4.966,4.966,0,0,0-.591-1.814,2.687,2.687,0,0,1,0,1.518,2.169,2.169,0,0,0-1.193-.24A2.243,2.243,0,0,0,114.579,161.683Z" transform="translate(-81.01 -159.808)" fill="#0e3944"/>
    <path id="Path_28622" data-name="Path 28622" d="M96.945,195.2c1.166-.919,2.073.25,2.3,1.866s-1.885,11.151-3.51,10.8c-.627-.136-.883-2.633-.883-2.633a57.353,57.353,0,0,0,1.047-6.716C96.083,196.658,96.337,195.675,96.945,195.2Z" transform="translate(-70.696 -184.156)" fill="#ff8b66"/>
    <path id="Path_28623" data-name="Path 28623" d="M78.554,211.632a28.6,28.6,0,0,1-5.1-8.983l1.191-.479s3.585,5.129,5.22,6.422,2.209,2.734,1.479,3.967S78.885,211.947,78.554,211.632Z" transform="translate(-55.696 -189.275)" fill="#ff8b66"/>
    <g id="Group_37342" data-name="Group 37342" transform="translate(14.131 9.513)">
      <path id="Path_28624" data-name="Path 28624" d="M65.425,191.4c-.082,1.622,1.24,2.006.653,3.251a.849.849,0,0,1-.5.462,1,1,0,0,1-1.038-.267,11.464,11.464,0,0,0-2.117-1.6c-.588-.339-.255-.432-.255-.432-.057-.027-.112-.049-.168-.072-.419-.176-.755-.242-.45-.429.342-.213,1.556.231,1.556.231-1.58-1.052-2.008-.8-1.72-1.019.393-.306,1.9.4,1.94.419-.834-.789-1.439-.968-1.108-1.087s1.986,1.075,2.589,1.524c.136.1.219.165.219.165C65.008,191.217,65.425,191.4,65.425,191.4Z" transform="translate(-61.305 -190.845)" fill="#ff8b66"/>
      <path id="Path_28625" data-name="Path 28625" d="M72.776,195.975c.136.1.219.165.219.165a1.1,1.1,0,0,0,.083,1.092A.982.982,0,0,1,72.776,195.975Z" transform="translate(-69.272 -194.442)" fill="#ef6e4b"/>
      <path id="Path_28626" data-name="Path 28626" d="M65.064,197.6a3.767,3.767,0,0,0-1.253-.5c-.057-.027-.112-.049-.168-.072C63.856,196.753,64.906,197.49,65.064,197.6Z" transform="translate(-62.945 -195.141)" fill="#ef6e4b"/>
    </g>
    <g id="Group_37343" data-name="Group 37343" transform="translate(10.898 28.402)">
      <path id="Path_28627" data-name="Path 28627" d="M87.868,278.92a.319.319,0,1,1-.319-.319A.319.319,0,0,1,87.868,278.92Z" transform="translate(-76.252 -271.276)" fill="#6097b2"/>
      <path id="Path_28628" data-name="Path 28628" d="M106.908,286.265a.319.319,0,1,1-.319-.319A.319.319,0,0,1,106.908,286.265Z" transform="translate(-89.605 -276.427)" fill="#6097b2"/>
      <path id="Path_28629" data-name="Path 28629" d="M123.132,290.2a.319.319,0,1,1-.319-.319A.319.319,0,0,1,123.132,290.2Z" transform="translate(-100.983 -279.189)" fill="#6097b2"/>
      <path id="Path_28630" data-name="Path 28630" d="M98.2,264.984a.319.319,0,1,1-.319-.319A.319.319,0,0,1,98.2,264.984Z" transform="translate(-83.501 -261.503)" fill="#6097b2"/>
      <circle id="Ellipse_319" data-name="Ellipse 319" cx="0.319" cy="0.319" r="0.319" transform="translate(15.139 6.191)" fill="#6097b2"/>
      <path id="Path_28631" data-name="Path 28631" d="M118.681,280.906a.319.319,0,1,1-.319-.319A.319.319,0,0,1,118.681,280.906Z" transform="translate(-97.861 -272.669)" fill="#6097b2"/>
      <path id="Path_28632" data-name="Path 28632" d="M121,263.412a.319.319,0,1,1-.319-.319A.319.319,0,0,1,121,263.412Z" transform="translate(-99.486 -260.4)" fill="#6097b2"/>
      <circle id="Ellipse_320" data-name="Ellipse 320" cx="0.319" cy="0.319" r="0.319" transform="translate(17.57 1.605)" fill="#6097b2"/>
      <path id="Path_28633" data-name="Path 28633" d="M78.424,299.739a.319.319,0,1,1-.319-.319A.319.319,0,0,1,78.424,299.739Z" transform="translate(-69.629 -285.876)" fill="#6097b2"/>
      <path id="Path_28634" data-name="Path 28634" d="M63.214,295.2a.319.319,0,1,1-.319-.319A.319.319,0,0,1,63.214,295.2Z" transform="translate(-58.963 -282.694)" fill="#6097b2"/>
      <path id="Path_28635" data-name="Path 28635" d="M54.266,286.935a.32.32,0,0,1-.587-.176.238.238,0,0,1,.023-.109A2.5,2.5,0,0,1,54.266,286.935Z" transform="translate(-52.723 -276.921)" fill="#6097b2"/>
      <circle id="Ellipse_321" data-name="Ellipse 321" cx="0.319" cy="0.319" r="0.319" transform="translate(9.785 17.702)" fill="#6097b2"/>
      <path id="Path_28636" data-name="Path 28636" d="M56.575,328.785a.319.319,0,1,1-.319-.319A.319.319,0,0,1,56.575,328.785Z" transform="translate(-54.307 -306.246)" fill="#6097b2"/>
      <circle id="Ellipse_322" data-name="Ellipse 322" cx="0.319" cy="0.319" r="0.319" transform="translate(4.961 19.481)" fill="#6097b2"/>
      <circle id="Ellipse_323" data-name="Ellipse 323" cx="0.319" cy="0.319" r="0.319" transform="translate(0 17.058)" fill="#6097b2"/>
      <path id="Path_28637" data-name="Path 28637" d="M64.525,343.45a.319.319,0,1,1-.319-.319A.319.319,0,0,1,64.525,343.45Z" transform="translate(-59.882 -316.53)" fill="#6097b2"/>
      <path id="Path_28638" data-name="Path 28638" d="M74.687,287.332a.319.319,0,1,1-.319-.319A.319.319,0,0,1,74.687,287.332Z" transform="translate(-67.009 -277.175)" fill="#6097b2"/>
      <path id="Path_28639" data-name="Path 28639" d="M84.941,269.358a.319.319,0,1,1-.319-.319A.319.319,0,0,1,84.941,269.358Z" transform="translate(-74.2 -264.57)" fill="#6097b2"/>
      <path id="Path_28640" data-name="Path 28640" d="M96.546,254.4a.319.319,0,1,1-.319-.319A.319.319,0,0,1,96.546,254.4Z" transform="translate(-82.338 -254.079)" fill="#6097b2"/>
      <path id="Path_28641" data-name="Path 28641" d="M73.028,276.193a.319.319,0,1,1-.319-.319A.319.319,0,0,1,73.028,276.193Z" transform="translate(-65.846 -269.364)" fill="#6097b2"/>
      <path id="Path_28642" data-name="Path 28642" d="M86.009,258.7a.319.319,0,1,1-.319-.319A.319.319,0,0,1,86.009,258.7Z" transform="translate(-74.949 -257.099)" fill="#6097b2"/>
      <path id="Path_28643" data-name="Path 28643" d="M65.593,306.762a.319.319,0,1,1-.319-.319A.319.319,0,0,1,65.593,306.762Z" transform="translate(-60.631 -290.801)" fill="#6097b2"/>
      <path id="Path_28644" data-name="Path 28644" d="M52.185,297.336a.319.319,0,1,1-.319-.319A.319.319,0,0,1,52.185,297.336Z" transform="translate(-51.229 -284.191)" fill="#6097b2"/>
      <circle id="Ellipse_324" data-name="Ellipse 324" cx="0.319" cy="0.319" r="0.319" transform="translate(11.934 11.87)" fill="#6097b2"/>
      <circle id="Ellipse_325" data-name="Ellipse 325" cx="0.319" cy="0.319" r="0.319" transform="translate(18.526 13.544)" fill="#6097b2"/>
      <path id="Path_28645" data-name="Path 28645" d="M112.07,269.358a.319.319,0,1,1-.319-.319A.319.319,0,0,1,112.07,269.358Z" transform="translate(-93.225 -264.57)" fill="#6097b2"/>
      <path id="Path_28646" data-name="Path 28646" d="M124.9,271.6a.319.319,0,1,1-.319-.319A.319.319,0,0,1,124.9,271.6Z" transform="translate(-102.222 -266.14)" fill="#6097b2"/>
      <path id="Path_28647" data-name="Path 28647" d="M99.271,307.829a.319.319,0,1,1-.319-.319A.319.319,0,0,1,99.271,307.829Z" transform="translate(-84.25 -291.549)" fill="#6097b2"/>
      <circle id="Ellipse_326" data-name="Ellipse 326" cx="0.319" cy="0.319" r="0.319" transform="translate(11.616 21.632)" fill="#6097b2"/>
      <circle id="Ellipse_327" data-name="Ellipse 327" cx="0.319" cy="0.319" r="0.319" transform="translate(6.722 22.539)" fill="#6097b2"/>
      <circle id="Ellipse_328" data-name="Ellipse 328" cx="0.319" cy="0.319" r="0.319" transform="translate(20.182 17.702)" fill="#6097b2"/>
      <path id="Path_28648" data-name="Path 28648" d="M103.933,321.75a.319.319,0,1,1-.319-.319A.319.319,0,0,1,103.933,321.75Z" transform="translate(-87.518 -301.312)" fill="#6097b2"/>
      <path id="Path_28649" data-name="Path 28649" d="M81.739,345.585a.319.319,0,1,1-.319-.319A.319.319,0,0,1,81.739,345.585Z" transform="translate(-71.954 -318.027)" fill="#6097b2"/>
      <circle id="Ellipse_329" data-name="Ellipse 329" cx="0.319" cy="0.319" r="0.319" transform="translate(14.065 25.578)" fill="#6097b2"/>
      <circle id="Ellipse_330" data-name="Ellipse 330" cx="0.319" cy="0.319" r="0.319" transform="translate(18.803 23.7)" fill="#6097b2"/>
      <path id="Path_28650" data-name="Path 28650" d="M106.908,352.1a.319.319,0,1,1-.319-.319A.319.319,0,0,1,106.908,352.1Z" transform="translate(-89.605 -322.597)" fill="#6097b2"/>
    </g>
    <g id="Group_37344" data-name="Group 37344" transform="translate(22.513 69.717)">
      <path id="Path_28651" data-name="Path 28651" d="M94.7,397.367H89.466c-.342-.975.289-1.954.183-2.812-.183-1.453.663-.65.663-.65.149-1.562,2.345-1.857,2.322-1.161a3.354,3.354,0,0,0,.454,2.083c.59.852,1.559.846,1.724,1.456.017.06.03.119.04.172C95.014,397.217,94.7,397.367,94.7,397.367Z" transform="translate(-89.363 -392.388)" fill="#164353"/>
      <path id="Path_28652" data-name="Path 28652" d="M99.076,402.179c-1.084.252-3.585-.076-3.684-.706-.1-.61,1.25-.9,1.92-.922.59.852,1.559.846,1.724,1.456C99.053,402.067,99.066,402.126,99.076,402.179Z" transform="translate(-93.587 -398.112)" fill="#205260"/>
    </g>
    <g id="Group_37345" data-name="Group 37345" transform="translate(0 31.414)">
      <path id="Path_28653" data-name="Path 28653" d="M20.323,266.88c-.557-.507-1.463.332-1.463.332s.487.723.172,1.015-.68-.375-1.3-.083a1.217,1.217,0,0,0-.153.086,7.178,7.178,0,0,0-1.4,1.356c-.083.093-.163.179-.235.255-.474.5-1.7.789-1.927-.537s1.264-2.882,2.9-4.311,2.7-.58,2.7-.58a2.578,2.578,0,0,1,.371.975c0,.372.332.557.517.912A.45.45,0,0,1,20.323,266.88Z" transform="translate(-13.998 -264.162)" fill="#164353"/>
      <path id="Path_28654" data-name="Path 28654" d="M19.75,274.057a7.178,7.178,0,0,0-1.4,1.356c-.614.146-1.164.1-1.25-.474-.209-1.393,2.57-3.164,2.348-2.185A1.741,1.741,0,0,0,19.75,274.057Z" transform="translate(-16.168 -269.989)" fill="#205260"/>
    </g>
  </g>
  <g id="Group_37359" data-name="Group 37359" transform="translate(82.417)">
    <path id="Path_28655" data-name="Path 28655" d="M338.728,388.184a2.028,2.028,0,0,1-.71-.811,8.121,8.121,0,0,1,0-2.286c.184-1.172-.326-2.128-1.984-2.487-1.612-.349-2.569.427-2.2,3.668h0a7.4,7.4,0,0,0,.263,4.18h4.963S339.846,388.771,338.728,388.184Z" transform="translate(-320.126 -295.928)" fill="#cfd8dc"/>
    <path id="Path_28656" data-name="Path 28656" d="M345.286,342.345a15.055,15.055,0,0,1-1.824,6.55c-1.857,3.377-4.154,8.012-4.154,8.012s-1.53,1.493-2.5-.979c0,0,.686-8.608,2.262-11.759S345.286,342.345,345.286,342.345Z" transform="translate(-322.33 -267.557)" fill="#ff8b66"/>
    <path id="Path_28657" data-name="Path 28657" d="M434.286,307.745s2.956,12.429,4.836,15.708a3.069,3.069,0,0,1-2.468,1.786s-6.43-9.452-6.845-13.432S434.286,307.745,434.286,307.745Z" transform="translate(-387.534 -243.487)" fill="#ff8b66"/>
    <g id="Group_37348" data-name="Group 37348" transform="translate(15.285 43.765)">
      <path id="Path_28658" data-name="Path 28658" d="M372.41,262.556c-.786,1.894-6.858,2-6.858,2l-.465-.683-.123-.179-.948-1.4s-10.062-9.87-12.022-9.041h0a.955.955,0,0,0-.166.1c-1.346.962-1.472,6.232-3.065,15.077a15.546,15.546,0,0,1-.746,2.494c-.03.073-.056.142-.083.209-.146.375-.249.614-.249.614-6.142,2.487-8.169-2.428-8.169-2.428s.073-.142.179-.371c.023-.05.05-.106.076-.166a8.416,8.416,0,0,0,.829-2.59q-.01-1.07-.016-2.059c0-.06,0-.116,0-.173-.01-2.126-.007-3.973.007-5.578v-.169c.007-.7.016-1.353.03-1.963v-.172c.053-2.8.142-4.663.239-5.907,0-.056.01-.116.013-.169a6.769,6.769,0,0,1,.348-2.3l-1.23-8.553H353.41s2.016,2.02,4.633,4.686c.056.053.11.106.162.163.949.965,1.973,2.013,3,3.078.043.043.083.083.119.123l1.21,1.25c.05.05.1.1.146.152,1.347,1.4,2.653,2.773,3.771,3.976.04.04.076.08.113.119a39.879,39.879,0,0,1,3.094,3.6,24.856,24.856,0,0,1,2.351,5.058v0c.023.06.043.113.063.169C372.291,262.152,372.41,262.556,372.41,262.556Z" transform="translate(-339.514 -239.142)" fill="#8b383e"/>
      <g id="Group_37347" data-name="Group 37347" transform="translate(0.179 3.025)">
        <path id="Path_28659" data-name="Path 28659" d="M346.371,265.723A3.633,3.633,0,0,1,344,266.911c0-.056.01-.116.013-.169a3.441,3.441,0,0,0,2.232-1.128,3.746,3.746,0,0,0,.77-2.57l.166-.02A3.874,3.874,0,0,1,346.371,265.723Z" transform="translate(-342.839 -258.915)" fill="#662c33"/>
        <path id="Path_28660" data-name="Path 28660" d="M394.372,251.092c-.053,0-.1.007-.156.007-1.492,0-3.051-1.632-3.131-1.715l.119-.116c.02.023,1.572,1.648,3,1.661C394.266,250.983,394.32,251.035,394.372,251.092Z" transform="translate(-375.86 -249.268)" fill="#662c33"/>
        <path id="Path_28661" data-name="Path 28661" d="M348.435,340.486c-.03.073-.056.143-.083.209a7.909,7.909,0,0,1-2.74.514,7.309,7.309,0,0,1-5.5-2.7c.023-.05.05-.106.076-.166A7,7,0,0,0,348.435,340.486Z" transform="translate(-340.114 -311.735)" fill="#662c33"/>
        <path id="Path_28662" data-name="Path 28662" d="M373.623,262.253a13.949,13.949,0,0,1,.371,3.081.95.95,0,0,0-.166.1,16.585,16.585,0,0,0-2.938-8.958l.133-.1a17.248,17.248,0,0,1,2.557,5.708,1.52,1.52,0,0,0,.663-.952c.418-1.758-1.483-4.63-1.5-4.66l.136-.093c.079.123,1.957,2.962,1.526,4.789A1.686,1.686,0,0,1,373.623,262.253Z" transform="translate(-361.697 -254.251)" fill="#662c33"/>
        <path id="Path_28663" data-name="Path 28663" d="M415.861,271.3c-.494.537-.959.995-1,1.035l-.09.09-.043-.12c-.65-1.7-4.829-5.389-4.872-5.426l-.05-.046.7-1.154c.043.043.083.083.119.123l-.584.968a4.068,4.068,0,0,0,1.794.282c.05.05.1.1.146.152a2.584,2.584,0,0,1-.435.037,4.5,4.5,0,0,1-1.283-.222c.948.855,3.9,3.588,4.573,5.111.262-.259.594-.6.916-.949C415.788,271.219,415.824,271.259,415.861,271.3Z" transform="translate(-388.987 -260.775)" fill="#662c33"/>
        <path id="Path_28664" data-name="Path 28664" d="M346.136,303.836l-.066.013a8.468,8.468,0,0,1-1.681.173,4.936,4.936,0,0,1-1.307-.156c0-.06,0-.116,0-.173a7.2,7.2,0,0,0,2.889.01l-.279-6.9a2.24,2.24,0,0,1-1.041,1.181,2.016,2.016,0,0,1-.922.206,2.972,2.972,0,0,1-.64-.073v-.169a2.156,2.156,0,0,0,1.486-.113,2.263,2.263,0,0,0,1.068-1.39,7.647,7.647,0,0,1-2.524-.461v-.172a6.6,6.6,0,0,0,2.61.444l.106-.036Z" transform="translate(-342.193 -281.907)" fill="#662c33"/>
        <path id="Path_28665" data-name="Path 28665" d="M431.826,313.643a8.414,8.414,0,0,1-5.983,2.408,9.657,9.657,0,0,1-1-.053l-.123-.179a8.352,8.352,0,0,0,7.048-2.345C431.786,313.534,431.806,313.587,431.826,313.643Z" transform="translate(-399.443 -294.295)" fill="#662c33"/>
      </g>
    </g>
    <path id="Path_28666" data-name="Path 28666" d="M360.519,115.41s-.369-.849-1.928-.85a2,2,0,0,0-1.661.663c-.719,2.1-1.491,10.143-1.767,10.429-.14.145-9.05,6.146-9.05,6.146,4.835.09,7.852,6.05,7.852,6.05.156-1.958,5.617-9.719,5.675-10.411C359.751,126.132,362.061,120.3,360.519,115.41Z" transform="translate(-328.858 -108.01)" fill="#ce364c"/>
    <path id="Path_28667" data-name="Path 28667" d="M342.557,247.409s-.045,1.678.5,1.788a15.266,15.266,0,0,0,10.05-.894c5.085-2.312,5.97-4.025,4.477-5.3S342.557,247.409,342.557,247.409Z" transform="translate(-326.363 -197.957)" fill="#ce364c"/>
    <path id="Path_28668" data-name="Path 28668" d="M318.5,173.18s-4.627-.548-7.28.6c0,0-.74,3.283,2.905,10.632s2.8,11.976,6.91,13.718c3.644,1.544,14.389-3.052,14.727-4.576.85-3.837-5.721-10.572-6.136-14.474S325.4,169.31,318.5,173.18Z" transform="translate(-304.345 -148.23)" fill="#f24052"/>
    <path id="Path_28669" data-name="Path 28669" d="M295.223,178.149c-3.234,1.148-6.871,4.779-6.877,6.529s3.034,2.425,3.034,2.425l4.983-2.425s1.425-1,.518-3.9S295.223,178.149,295.223,178.149Z" transform="translate(-288.346 -152.599)" fill="#ce364c"/>
    <g id="Group_37349" data-name="Group 37349" transform="translate(16.526 25.196)">
      <path id="Path_28670" data-name="Path 28670" d="M347.306,180.569a5.488,5.488,0,0,1-2.909-.878,1.554,1.554,0,0,1-.708-.954,1.783,1.783,0,0,1,.983-1.757l.151.3a1.455,1.455,0,0,0-.807,1.41,1.244,1.244,0,0,0,.573.736,4.918,4.918,0,0,0,3.214.778,1.092,1.092,0,0,0,.823-.452.753.753,0,0,0,.021-.591l.3-.131a1.079,1.079,0,0,1-.032.876,1.389,1.389,0,0,1-1.058.624A3.2,3.2,0,0,1,347.306,180.569Z" transform="translate(-343.669 -176.98)" fill="#cfd8dc"/>
    </g>
    <g id="Group_37350" data-name="Group 37350" transform="translate(12.253 26.091)">
      <path id="Path_28671" data-name="Path 28671" d="M333.174,186.168a1.92,1.92,0,0,1-2.07-1.473,5.838,5.838,0,0,1,.018-1.536,2.463,2.463,0,0,0-.25-1.772,2.086,2.086,0,0,0-1.507-1.082l.02-.331a2.408,2.408,0,0,1,1.77,1.239,2.8,2.8,0,0,1,.3,1.982,5.464,5.464,0,0,0-.019,1.453c.18,1.267,1.8,1.188,1.864,1.184l.02.331C333.271,186.167,333.223,186.168,333.174,186.168Z" transform="translate(-329.364 -179.974)" fill="#cfd8dc"/>
    </g>
    <path id="Path_28672" data-name="Path 28672" d="M324.312,169.694s2.446-1.666,1.865-3.469-8.457-1.679-10.488.477,4.394,3.587,4.394,3.587C320.581,169.286,323.759,169.175,324.312,169.694Z" transform="translate(-307.243 -143.361)" fill="#ce364c"/>
    <path id="Path_28673" data-name="Path 28673" d="M326.892,172.879c-1.161-.394-1.848-1.232-1.6-2.2s5.238-.993,6.184-.22S331.089,174.3,326.892,172.879Z" transform="translate(-314.22 -146.829)" fill="#a02e44"/>
    <path id="Path_28674" data-name="Path 28674" d="M328.917,169.639s1.027,1.754.552,2.719c0,0,3.523,1.216,3.523-.755a4.7,4.7,0,0,1-.414-2.432Z" transform="translate(-316.798 -146.307)" fill="#ef6e4b"/>
    <g id="Group_37354" data-name="Group 37354" transform="translate(9.082 12.606)">
      <path id="Path_28675" data-name="Path 28675" d="M321.274,144.026a10.805,10.805,0,0,1-1.57-5.42,2.514,2.514,0,0,1,.761-1.842,1.9,1.9,0,0,1,.039-1.932s.815.943,3.676.646c2.759-.287,3.034,1.68,3.034,1.68,1.972.293.642,6.258-.735,6.868Z" transform="translate(-319.411 -134.832)" fill="#ffb878"/>
      <path id="Path_28676" data-name="Path 28676" d="M319.877,156.114s-.995-.993-1.117.168c-.142,1.344,1.079,1.886,1.318,1.458S319.877,156.114,319.877,156.114Z" transform="translate(-318.749 -149.479)" fill="#ff8b66"/>
      <path id="Path_28677" data-name="Path 28677" d="M345.208,156.348s.995-.993,1.117.168c.142,1.344-1.079,1.886-1.318,1.458S345.208,156.348,345.208,156.348Z" transform="translate(-337.114 -149.644)" fill="#ff8b66"/>
      <path id="Path_28678" data-name="Path 28678" d="M325.729,151.36c-2.207,0-3.453-1.442-3.453-5.766,0-2.23,1.135-3.6,3.607-3.6s3.514,1.368,3.514,3.6C329.4,150.241,328.009,151.36,325.729,151.36Z" transform="translate(-321.222 -139.856)" fill="#ff8b66"/>
      <path id="Path_28679" data-name="Path 28679" d="M341.3,158.446a.523.523,0,1,1-.573-.314A.468.468,0,0,1,341.3,158.446Z" transform="translate(-333.853 -151.165)" fill="#db614d"/>
      <path id="Path_28680" data-name="Path 28680" d="M326.077,158.574a.523.523,0,1,1-.482-.44A.467.467,0,0,1,326.077,158.574Z" transform="translate(-323.174 -151.172)" fill="#db614d"/>
      <g id="Group_37351" data-name="Group 37351" transform="translate(5.37 4.529)">
        <path id="Path_28681" data-name="Path 28681" d="M337.827,150.427a.109.109,0,0,1-.084-.022,1.263,1.263,0,0,0-.887-.173.112.112,0,0,1-.128-.088.11.11,0,0,1,.088-.129,1.473,1.473,0,0,1,1.061.215.11.11,0,0,1-.05.2Z" transform="translate(-336.726 -149.994)" fill="#ffb878"/>
      </g>
      <g id="Group_37352" data-name="Group 37352" transform="translate(2.15 4.521)">
        <path id="Path_28682" data-name="Path 28682" d="M326.044,150.424a.108.108,0,0,1-.072-.039.111.111,0,0,1,.015-.155,1.473,1.473,0,0,1,1.054-.248.11.11,0,0,1,.092.126.113.113,0,0,1-.126.092,1.271,1.271,0,0,0-.88.2A.112.112,0,0,1,326.044,150.424Z" transform="translate(-325.947 -149.967)" fill="#ffb878"/>
      </g>
      <path id="Path_28683" data-name="Path 28683" d="M338.354,154.449c0,.274-.123.5-.276.5s-.276-.222-.276-.5.123-.5.276-.5S338.354,154.175,338.354,154.449Z" transform="translate(-332.111 -148.241)" fill="#1a4850"/>
      <path id="Path_28684" data-name="Path 28684" d="M328.486,154.449c0,.274-.123.5-.276.5s-.276-.222-.276-.5.123-.5.276-.5S328.486,154.175,328.486,154.449Z" transform="translate(-325.191 -148.241)" fill="#1a4850"/>
      <path id="Path_28685" data-name="Path 28685" d="M321.762,141.207a15.041,15.041,0,0,0,5.725.619s.719.9.632,4.059c0,0,1.975-5.7-3.79-5.7s-3.168,5.57-3.168,5.57S320.689,142.274,321.762,141.207Z" transform="translate(-320.031 -138.588)" fill="#ffb878"/>
      <g id="Group_37353" data-name="Group 37353" transform="translate(4.481 5.036)">
        <path id="Path_28686" data-name="Path 28686" d="M333.915,154.338l-.165-.166.436-.434a4.574,4.574,0,0,1-.421-2.046H334c0,.015,0,1.5.43,1.973l.077.083Z" transform="translate(-333.75 -151.692)" fill="#db614d"/>
      </g>
      <path id="Path_28687" data-name="Path 28687" d="M329.4,162.5a15.02,15.02,0,0,0,3.269-.2,1.456,1.456,0,0,1-1.49,1.658A1.513,1.513,0,0,1,329.4,162.5Z" transform="translate(-326.218 -154.096)" fill="#1a4850"/>
    </g>
    <path id="Path_28688" data-name="Path 28688" d="M359.782,182.951c.415-.077.373,1.008,0,.693S359.367,183.028,359.782,182.951Z" transform="translate(-338.236 -155.968)" fill="#cfd8dc"/>
    <path id="Path_28689" data-name="Path 28689" d="M341.964,199.678c-.063.417-1.074.022-.655-.227S342.027,199.261,341.964,199.678Z" transform="translate(-325.417 -167.438)" fill="#cfd8dc"/>
    <path id="Path_28690" data-name="Path 28690" d="M326.8,208.137a9.067,9.067,0,0,0-.621,2.642c.038.954.35.829.35.829a1.03,1.03,0,0,0-.594.746c-.094.55,1.293.954,1.389.954s1.075-.373,1.075-.373l.205-3.119-.867-.545Z" transform="translate(-314.704 -173.634)" fill="#ef6e4b"/>
    <path id="Path_28691" data-name="Path 28691" d="M329.366,207.4a13.633,13.633,0,0,1,1.663,1.2c.464.456.2,3.98,0,4.146a3.855,3.855,0,0,1-2.02.316c-.293-.191.114-1.228.114-1.228s.767-.166.657.124a.761.761,0,0,0,0,.539l.315-.125a3.658,3.658,0,0,1,0-1.368c.154-.58-1.08-1.193-1.23-2.255S329.366,207.4,329.366,207.4Z" transform="translate(-316.746 -173.12)" fill="#ff8b66"/>
    <path id="Path_28692" data-name="Path 28692" d="M288.882,196.9c-.384-1.657,1.261-2.243,3.548-1.96,2.653.327,8.1,1.022,9.286,3.9a1.41,1.41,0,0,1-.615,1.678C298.3,202.031,289.6,200.008,288.882,196.9Z" transform="translate(-288.683 -164.328)" fill="#ce364c"/>
    <path id="Path_28693" data-name="Path 28693" d="M304.8,194.565a23.29,23.29,0,0,0-4.737-1.447C298.486,192.986,302.239,194.362,304.8,194.565Z" transform="translate(-296.299 -163.095)" fill="#a02e44"/>
    <g id="Group_37355" data-name="Group 37355" transform="translate(26.604)">
      <path id="Path_28694" data-name="Path 28694" d="M383.005,95.633a7.11,7.11,0,0,0-.634,1.33,4.054,4.054,0,0,1-.574,1.788,1.611,1.611,0,0,0-.146,1.128,2.232,2.232,0,0,1-2.222-.146,2.582,2.582,0,0,0,0-.915c-.209-.4-.879-.62-1.108-1.436a6.4,6.4,0,0,0-.915-1.731s.2-.424.554-.166.59.915.786.982a.5.5,0,0,0,.119.027.025.025,0,0,1,.01,0,.482.482,0,0,0,.395-.1.062.062,0,0,0,.023-.02,3.946,3.946,0,0,0,.391-2c-.02-.7.007-1.658.431-1.5s.036.551.365,2.086l.159.02a5.91,5.91,0,0,0,.392-1.91c.05-.673.491-.424.587-.212a5.436,5.436,0,0,1-.08,1.37c-.023.322-.05.657-.066.856l.186.1c.67-1.167.441-1.652.832-1.675s.249.962.04,1.336a3.689,3.689,0,0,0-.246.833c.687-.793.61-1.207.925-1.158S383.244,95.361,383.005,95.633Z" transform="translate(-377.407 -92.631)" fill="#ff8b66"/>
      <path id="Path_28695" data-name="Path 28695" d="M383.49,106.291a1.946,1.946,0,0,0-1.164-.965.482.482,0,0,0,.395-.1A1.165,1.165,0,0,1,383.49,106.291Z" transform="translate(-380.857 -101.462)" fill="#ef6e4b"/>
    </g>
    <g id="Group_37356" data-name="Group 37356" transform="translate(14.611 88.164)">
      <path id="Path_28696" data-name="Path 28696" d="M337.478,389.267s-.459-.936-.05-1.339.891.344,1.589.178.861-.663,1.043.014S340.02,390.926,337.478,389.267Z" transform="translate(-337.258 -387.775)" fill="#cfd8dc"/>
      <path id="Path_28697" data-name="Path 28697" d="M340.108,392.632s-1.877.665-2.85,0l.247.812s2.04.216,2.322-.3Z" transform="translate(-337.258 -391.181)" fill="#adbec4"/>
      <path id="Path_28698" data-name="Path 28698" d="M340.734,395.855a5.667,5.667,0,0,0-2.548.188v.4s2.241-.523,2.965,0Z" transform="translate(-337.909 -393.395)" fill="#adbec4"/>
      <path id="Path_28699" data-name="Path 28699" d="M337.91,398.738a1.567,1.567,0,0,1,1.379-.87,2.728,2.728,0,0,1,1.751.517A3.5,3.5,0,0,0,337.91,398.738Z" transform="translate(-337.715 -394.85)" fill="#adbec4"/>
    </g>
    <g id="Group_37358" data-name="Group 37358" transform="translate(48.478 79.088)">
      <path id="Path_28700" data-name="Path 28700" d="M461.2,359.071a13.943,13.943,0,0,1-7.79,5.25,3.293,3.293,0,0,1-1.337-2.275,6.923,6.923,0,0,1-1.423-1.658c-.166-.537,1.078-2.156,1.824-1.99a1.505,1.505,0,0,1,.948.766c-.617-1.39-.123-1.874.753-1.754.912.123.05.338.7,1.071a.862.862,0,0,0,.156.136,1.077,1.077,0,0,0,.424.169,1.955,1.955,0,0,0,.468.023,2.429,2.429,0,0,0,.265-.027,3.56,3.56,0,0,0,.521-.126,4.663,4.663,0,0,0,.839-.361c1.141-.623,1.622-.836,2.491-.614s.852.876.852.876Z" transform="translate(-450.634 -357.393)" fill="#cfd8dc"/>
      <path id="Path_28701" data-name="Path 28701" d="M467.712,362.993a13.943,13.943,0,0,1-7.79,5.25,16.929,16.929,0,0,0,5.837-3.864C467.2,362.791,467.712,362.993,467.712,362.993Z" transform="translate(-457.147 -361.315)" fill="#adbec4"/>
      <g id="Group_37357" data-name="Group 37357" transform="translate(3.517 1.225)">
        <path id="Path_28702" data-name="Path 28702" d="M463.291,361.492a1.077,1.077,0,0,0,.424.169,1.116,1.116,0,0,0-.935.955l-.371-.119A.982.982,0,0,1,463.291,361.492Z" transform="translate(-462.409 -361.492)" fill="#adbec4"/>
        <path id="Path_28703" data-name="Path 28703" d="M466.294,363.107l-.388.013a1.026,1.026,0,0,1,.226-1.061,1.955,1.955,0,0,0,.468.023A1.106,1.106,0,0,0,466.294,363.107Z" transform="translate(-464.825 -361.89)" fill="#adbec4"/>
        <path id="Path_28704" data-name="Path 28704" d="M469.405,362.59l-.385.05a1.072,1.072,0,0,1,0-.889,3.548,3.548,0,0,0,.521-.126A1.128,1.128,0,0,0,469.405,362.59Z" transform="translate(-466.978 -361.585)" fill="#adbec4"/>
      </g>
    </g>
    <path id="Path_28705" data-name="Path 28705" d="M342.719,227.818s.852,4.6-.87,6.427-.583.326-.069-2.035S341.9,227.362,342.719,227.818Z" transform="translate(-325.224 -187.397)" fill="#ce364c"/>
    <path id="Path_28706" data-name="Path 28706" d="M373.522,220.9a8.174,8.174,0,0,1,4.135,3.4S375.761,220.215,373.522,220.9Z" transform="translate(-348.079 -182.529)" fill="#ce364c"/>
  </g>
  <g id="Group_37368" data-name="Group 37368" transform="translate(36.065 0.063)">
    <g id="Group_37360" data-name="Group 37360">
      <path id="Path_28707" data-name="Path 28707" d="M134.458,97a7.124,7.124,0,0,1,1.411.423,4.053,4.053,0,0,0,1.71.775c.509.045.718.921.718.921s2.009.439,2.122-.827c0,0-1.123-1.589-1.2-1.8-.16-.427.13-1.068-.321-1.785a6.4,6.4,0,0,1-.669-1.841s-.446-.14-.495.3.282,1.052.2,1.241a.506.506,0,0,1-.06.106.024.024,0,0,0,0,.01.483.483,0,0,1-.341.223.061.061,0,0,1-.03,0,3.941,3.941,0,0,1-1.747-1.055c-.5-.482-1.233-1.108-1.4-.685s.384.4,1.3,1.671l-.092.131a5.912,5.912,0,0,1-1.679-.993c-.532-.415-.644.079-.551.293s.687.555,1.069.861c.254.2.52.4.679.525l-.049.207c-1.315-.287-1.52-.782-1.8-.508s.546.83.964.927a3.7,3.7,0,0,1,.782.377c-1.048-.023-1.3-.358-1.479-.091S134.1,97,134.458,97Z" transform="translate(-133.174 -92.843)" fill="#ff8b66"/>
      <path id="Path_28708" data-name="Path 28708" d="M147.844,99.971a1.948,1.948,0,0,1,.066-1.511.483.483,0,0,1-.341.223A1.165,1.165,0,0,0,147.844,99.971Z" transform="translate(-143.215 -96.782)" fill="#ef6e4b"/>
    </g>
    <g id="Group_37361" data-name="Group 37361" transform="translate(54.425)">
      <path id="Path_28709" data-name="Path 28709" d="M321.333,97a7.128,7.128,0,0,0-1.411.423,4.054,4.054,0,0,1-1.71.775c-.51.045-.718.921-.718.921s-2.009.439-2.122-.827c0,0,1.123-1.589,1.2-1.8.16-.427-.13-1.068.321-1.785a6.4,6.4,0,0,0,.669-1.841s.446-.14.495.3-.282,1.052-.2,1.241a.5.5,0,0,0,.06.106.022.022,0,0,1,0,.01.483.483,0,0,0,.341.223.063.063,0,0,0,.03,0,3.941,3.941,0,0,0,1.747-1.055c.5-.482,1.233-1.108,1.4-.685s-.384.4-1.3,1.671l.092.131a5.912,5.912,0,0,0,1.678-.993c.533-.415.644.079.551.293s-.687.555-1.069.861c-.254.2-.52.4-.679.525l.048.207c1.315-.287,1.52-.782,1.8-.508s-.546.83-.964.927a3.692,3.692,0,0,0-.782.377c1.049-.023,1.3-.358,1.479-.091S321.694,97,321.333,97Z" transform="translate(-315.371 -92.843)" fill="#ff8b66"/>
      <path id="Path_28710" data-name="Path 28710" d="M323.975,99.971a1.947,1.947,0,0,0-.066-1.511.483.483,0,0,0,.341.223A1.166,1.166,0,0,1,323.975,99.971Z" transform="translate(-321.359 -96.782)" fill="#ef6e4b"/>
    </g>
    <path id="Path_28711" data-name="Path 28711" d="M217.477,254.516l-3.859-23.894-7.727.863-7.727-.863L194.3,254.516l-1.854,23.175s.589,1.92,4.444.594c0,0,2.86-21.495,3.3-21.968s4.983-14.513,4.983-14.513h1.42s4.541,14.04,4.983,14.513,3.3,21.968,3.3,21.968c3.855,1.327,4.444-.594,4.444-.594Z" transform="translate(-174.744 -189.466)" fill="#0e3944"/>
    <path id="Path_28712" data-name="Path 28712" d="M227.774,153.159c.488.475,2.889,1.332,4.158,0l.86.845s-.98,2.305-2.7,2.386-2.964-2.051-2.964-2.051Z" transform="translate(-199.061 -135.142)" fill="#0c476b"/>
    <path id="Path_28713" data-name="Path 28713" d="M252.061,120.574c2.874-1.237,12.16-4.527,12.16-4.527s6.242-7.821,7.516-8.982a2.458,2.458,0,0,1,1.786,1.969s-4.019,8.607-6.2,11.071-13.252,7.793-13.252,7.793Z" transform="translate(-216.548 -102.817)" fill="#0c476b"/>
    <path id="Path_28714" data-name="Path 28714" d="M209.866,151.383c.855-.541,5.148,2.331,5.148,2.331s5.581-2.964,6.891-2.39c0,0,1.18,1.58,1.655,5.64s.506,20.771.506,20.771a29.141,29.141,0,0,1-8.828,1.327c-5.786,0-8.9-1.659-8.9-1.659S205.306,154.268,209.866,151.383Z" transform="translate(-184.413 -133.804)" fill="#ffb878"/>
    <path id="Path_28715" data-name="Path 28715" d="M230.053,150.241s.618,1.944,0,2.693c0,0,.642,1.347,1.8,1.407,1.333.069,1.8-1.407,1.8-1.407s-.7-1.878,0-2.538Z" transform="translate(-201.114 -133.095)" fill="#ef6e4b"/>
    <g id="Group_37365" data-name="Group 37365" transform="translate(26.102 7.046)">
      <path id="Path_28716" data-name="Path 28716" d="M222.366,124.618a10.517,10.517,0,0,1-1.043-5.179c.257-2.676,4.289-3.289,7.006-1.975,0,0-.807-.789-.491-1.008s.86,1.183.86,1.183.858-.263.99,0-.879.407-.879.407,1.753.972.115,6.147Z" transform="translate(-221.069 -116.432)" fill="#8b383e"/>
      <path id="Path_28717" data-name="Path 28717" d="M221.655,137.621s-.97-.968-1.089.164c-.138,1.311,1.052,1.839,1.285,1.422S221.655,137.621,221.655,137.621Z" transform="translate(-220.555 -131.021)" fill="#ff8b66"/>
      <path id="Path_28718" data-name="Path 28718" d="M246.355,137.85s.97-.968,1.089.163c.138,1.311-1.052,1.839-1.285,1.422S246.355,137.85,246.355,137.85Z" transform="translate(-238.462 -131.181)" fill="#ff8b66"/>
      <path id="Path_28719" data-name="Path 28719" d="M227.362,132.985c-2.152,0-3.367-1.406-3.367-5.622,0-2.175,1.106-3.509,3.517-3.509s3.426,1.334,3.426,3.509C230.938,131.894,229.585,132.985,227.362,132.985Z" transform="translate(-222.967 -121.637)" fill="#ff8b66"/>
      <path id="Path_28720" data-name="Path 28720" d="M242.541,139.895a.51.51,0,1,1-.558-.306A.456.456,0,0,1,242.541,139.895Z" transform="translate(-235.283 -132.665)" fill="#db614d"/>
      <path id="Path_28721" data-name="Path 28721" d="M227.7,140.019a.51.51,0,1,1-.47-.429A.456.456,0,0,1,227.7,140.019Z" transform="translate(-224.87 -132.671)" fill="#db614d"/>
      <g id="Group_37362" data-name="Group 37362" transform="translate(5.257 4.494)">
        <path id="Path_28722" data-name="Path 28722" d="M239.17,132.025a.106.106,0,0,1-.078-.033,1.23,1.23,0,0,0-.828-.3.109.109,0,0,1-.111-.1.107.107,0,0,1,.1-.111,1.436,1.436,0,0,1,.991.366.107.107,0,0,1-.078.182Z" transform="translate(-238.153 -131.477)" fill="#8b383e"/>
      </g>
      <g id="Group_37363" data-name="Group 37363" transform="translate(2.114 4.494)">
        <path id="Path_28723" data-name="Path 28723" d="M227.739,132.025a.106.106,0,0,1-.074-.03.108.108,0,0,1,0-.152,1.436,1.436,0,0,1,.991-.366.107.107,0,0,1,.1.111.11.11,0,0,1-.111.1,1.24,1.24,0,0,0-.828.3A.108.108,0,0,1,227.739,132.025Z" transform="translate(-227.631 -131.477)" fill="#8b383e"/>
      </g>
      <path id="Path_28724" data-name="Path 28724" d="M239.672,136c0,.267-.12.484-.269.484s-.269-.217-.269-.484.12-.484.269-.484S239.672,135.731,239.672,136Z" transform="translate(-233.584 -129.814)" fill="#1a4850"/>
      <path id="Path_28725" data-name="Path 28725" d="M230.051,136c0,.267-.12.484-.269.484s-.269-.217-.269-.484.12-.484.269-.484S230.051,135.731,230.051,136Z" transform="translate(-226.837 -129.814)" fill="#1a4850"/>
      <path id="Path_28726" data-name="Path 28726" d="M231.313,146.181a6.678,6.678,0,0,0,2.874-.224s-.552,1.292-1.589,1.176A1.474,1.474,0,0,1,231.313,146.181Z" transform="translate(-228.099 -137.138)" fill="#1a4850"/>
      <path id="Path_28727" data-name="Path 28727" d="M229.37,127.365a11.34,11.34,0,0,0-.979-4.14s-1.606.742-1.96.567.337-.567.337-.567a13.427,13.427,0,0,1-2.81.7c-.16-.175.879-.7.879-.7l-1.651.567a11.805,11.805,0,0,0-.3,3.573,6.861,6.861,0,0,1-.8-2.07,3.064,3.064,0,0,1,2.771-3.431c2.487-.175,3.884.389,4.5,1.531A4.779,4.779,0,0,1,229.37,127.365Z" transform="translate(-221.623 -120.22)" fill="#8b383e"/>
      <g id="Group_37364" data-name="Group 37364" transform="translate(4.284 5.466)">
        <path id="Path_28728" data-name="Path 28728" d="M235.381,137.632a1.994,1.994,0,0,1-.486-.072l.061-.22c.226.062.58.1.657.008.027-.032.016-.105-.03-.2a9,9,0,0,1-.378-2.407l.229-.009a9.019,9.019,0,0,0,.357,2.318.4.4,0,0,1,0,.447A.525.525,0,0,1,235.381,137.632Z" transform="translate(-234.895 -134.731)" fill="#db614d"/>
      </g>
    </g>
    <path id="Path_28729" data-name="Path 28729" d="M244.494,150.7s3.9,12.092,4.266,21.931c0,0,1.406.387,2.989-1.769s.641-19.231-2.391-22.074C249.358,148.785,247.982,148.472,244.494,150.7Z" transform="translate(-211.241 -132.064)" fill="#105e99"/>
    <path id="Path_28730" data-name="Path 28730" d="M244.23,154.731a5.13,5.13,0,0,0,.387-2.731c-.31-1.111-1.405,0-1.405,0A11.948,11.948,0,0,0,244.23,154.731Z" transform="translate(-210.342 -133.983)" fill="#0c476b"/>
    <path id="Path_28731" data-name="Path 28731" d="M170.266,120.039c-2.874-1.237-12.16-4.527-12.16-4.527s-6.258-8.049-7.531-9.21a3.578,3.578,0,0,0-1.682,2.736s3.932,8.068,6.116,10.532,13.252,7.793,13.252,7.793Z" transform="translate(-144.197 -102.282)" fill="#0c476b"/>
    <path id="Path_28732" data-name="Path 28732" d="M209.2,150.7s-3.9,12.092-4.266,21.931c0,0-1.406.387-2.989-1.769s-.641-19.231,2.391-22.074C204.336,148.785,205.712,148.472,209.2,150.7Z" transform="translate(-180.87 -132.064)" fill="#105e99"/>
    <path id="Path_28733" data-name="Path 28733" d="M224.791,154.731A5.13,5.13,0,0,1,224.4,152c.31-1.111,1.405,0,1.405,0A11.933,11.933,0,0,1,224.791,154.731Z" transform="translate(-197.097 -133.983)" fill="#0c476b"/>
    <g id="Group_37366" data-name="Group 37366" transform="translate(40.11 87.698)">
      <path id="Path_28734" data-name="Path 28734" d="M275.363,393.188h-7.734a15.762,15.762,0,0,1,.322-6.152l3.536-.607c.321,1.943.71,2.71,1.247,3.1h0a5.428,5.428,0,0,0,1.443.58,1.855,1.855,0,0,1,1.194,1.111A3.287,3.287,0,0,1,275.363,393.188Z" transform="translate(-267.451 -386.429)" fill="#662c33"/>
      <path id="Path_28735" data-name="Path 28735" d="M280.234,398.512c-1.907.239-6.1.647-5.84-.458.212-.922,1.98-1.171,3.2-1.234h0a5.425,5.425,0,0,0,1.443.58A1.855,1.855,0,0,1,280.234,398.512Z" transform="translate(-272.312 -393.717)" fill="#8b383e"/>
    </g>
    <g id="Group_37367" data-name="Group 37367" transform="translate(14.224 87.698)">
      <path id="Path_28736" data-name="Path 28736" d="M188.689,393.188h-7.734a3.591,3.591,0,0,1-.133-1.489,1.873,1.873,0,0,1,1.317-1.585,4.151,4.151,0,0,0,1.605-.713c.458-.431.8-1.227,1.088-2.971l3.536.607A15.831,15.831,0,0,1,188.689,393.188Z" transform="translate(-180.793 -386.429)" fill="#662c33"/>
      <path id="Path_28737" data-name="Path 28737" d="M180.892,398.675a1.873,1.873,0,0,1,1.317-1.585,4.149,4.149,0,0,0,1.605-.713c.978.3,2.348.856,2.772,1.695C187.177,399.221,182.656,399.039,180.892,398.675Z" transform="translate(-180.862 -393.405)" fill="#8b383e"/>
    </g>
  </g>
  <g id="Group_37376" data-name="Group 37376" transform="translate(71.21 21.309)">
    <g id="Group_37369" data-name="Group 37369" transform="translate(33.071 67.06)">
      <path id="Path_28738" data-name="Path 28738" d="M370.971,394.059a4.234,4.234,0,0,1-.033.554h-9.4c0-.186,0-.372.013-.554a17.26,17.26,0,0,1,.882-4.59l2.348-1.008a3.756,3.756,0,0,0,1.376,2.487,3.338,3.338,0,0,0,.537.345c.086.047.173.09.262.129a4.534,4.534,0,0,0,.6.222,14.68,14.68,0,0,0,2.255.395C370.818,392.2,370.971,393.353,370.971,394.059Z" transform="translate(-361.542 -388.461)" fill="#164353"/>
      <path id="Path_28739" data-name="Path 28739" d="M370.971,407.2a4.236,4.236,0,0,1-.033.554h-9.4c0-.186,0-.372.013-.554Z" transform="translate(-361.542 -401.604)" fill="#225866"/>
      <path id="Path_28740" data-name="Path 28740" d="M375.1,397.132l-1.3.418-.275-.478,1.041-.285A3.34,3.34,0,0,0,375.1,397.132Z" transform="translate(-369.943 -394.3)" fill="#225866"/>
      <path id="Path_28741" data-name="Path 28741" d="M378.36,398.6l-.879.584-.541-.212.819-.594A4.527,4.527,0,0,0,378.36,398.6Z" transform="translate(-372.341 -395.413)" fill="#225866"/>
    </g>
    <g id="Group_37370" data-name="Group 37370" transform="translate(0 65.999)">
      <path id="Path_28742" data-name="Path 28742" d="M257.431,391.567a2.35,2.35,0,0,1-.106.554h-6.258a2.816,2.816,0,0,1-.176-.554c-.617-2.995,3.542-6.659,3.542-6.659l1.32,1.761s-.153,2.819.965,3.406A1.43,1.43,0,0,1,257.431,391.567Z" transform="translate(-250.829 -384.908)" fill="#164353"/>
      <path id="Path_28743" data-name="Path 28743" d="M251.038,407.2h6.54a2.349,2.349,0,0,1-.106.554h-6.258A2.815,2.815,0,0,1,251.038,407.2Z" transform="translate(-250.976 -400.542)" fill="#225866"/>
      <path id="Path_28744" data-name="Path 28744" d="M260.576,399.884s-2.637-.6-3.839.177v-.435S258.955,398.548,260.576,399.884Z" transform="translate(-254.972 -394.941)" fill="#225866"/>
      <path id="Path_28745" data-name="Path 28745" d="M260.053,397.648a4.3,4.3,0,0,0-3.316,0l.186-.439S258.874,396.472,260.053,397.648Z" transform="translate(-254.972 -393.375)" fill="#225866"/>
    </g>
    <path id="Path_28746" data-name="Path 28746" d="M293.942,276.072c0,2.517-2.232,23.04-2.232,23.04a13.056,13.056,0,0,1-4.026-.225c-.614-10.4-.673-19.345-.673-19.345L276.3,271.512l-.027-.02s-.04.182-.113.507c-.531,2.355-2.776,12.218-3.711,14.476-1.065,2.574-12.7,13.4-12.7,13.4a8.961,8.961,0,0,1-4-1.865,138.044,138.044,0,0,1,9.876-13.883c.445-2.5.763-8.052.952-12.2,0-.063.007-.129.01-.192.126-2.812.189-4.935.189-4.935l-1.963-4.026,12.473-4.583,2.8,3.579s.64.594,1.648,1.542l.139.129C285.611,266.965,293.942,274.944,293.942,276.072Z" transform="translate(-254.277 -230.039)" fill="#8bbddb"/>
    <g id="Group_37371" data-name="Group 37371" transform="translate(12.297 31.968)">
      <path id="Path_28747" data-name="Path 28747" d="M292,294.9c0-.063.007-.129.01-.192a3.615,3.615,0,0,0,2.179-3.724l.163-.033A3.811,3.811,0,0,1,292,294.9Z" transform="translate(-291.996 -284.984)" fill="#6097b2"/>
      <path id="Path_28748" data-name="Path 28748" d="M319.933,284.65a14.145,14.145,0,0,1,.192,1.609l-.027-.02s-.04.182-.113.507a12.148,12.148,0,0,0-1.744-6.231l.136-.1a11.247,11.247,0,0,1,1.522,4.043c1.9-1.685.04-5.137.02-5.17l.146-.08C320.086,279.247,322.053,282.9,319.933,284.65Z" transform="translate(-310.402 -276.753)" fill="#6097b2"/>
      <path id="Path_28749" data-name="Path 28749" d="M336.6,272.41s-.01,0-.013.007a.717.717,0,0,1-.259.043c-.919,0-2.461-1.287-2.534-1.35l.109-.126c.5.424,1.9,1.443,2.557,1.3Z" transform="translate(-321.31 -270.984)" fill="#6097b2"/>
    </g>
    <path id="Path_28750" data-name="Path 28750" d="M289.013,201.3s3.794-.611,5.7.6a24.838,24.838,0,0,1,4.4,4.375s-2.964.391-3.3,2.4C295.806,208.678,293.654,203.551,289.013,201.3Z" transform="translate(-277.607 -190.038)" fill="#adbec4"/>
    <path id="Path_28751" data-name="Path 28751" d="M259.538,203.588c-1.6.868-4.288,4.125-4.409,6.129-.118,1.954,1.329,3.751,2.3,5.279,3.045,4.767,6.251,8.979,7.613,14.571.009.036,6.965,2.8,15.128-7.017,0,0-4.613-6.206-6.206-11.49a24.055,24.055,0,0,0-2.555-6.331,6.781,6.781,0,0,0-6.168-3.118A15.177,15.177,0,0,0,259.538,203.588Z" transform="translate(-253.84 -190.35)" fill="#cfd8dc"/>
    <path id="Path_28752" data-name="Path 28752" d="M267.65,200.489s1.027,1.754.552,2.719c0,0,3.522,1.216,3.522-.755a4.705,4.705,0,0,1-.414-2.432Z" transform="translate(-262.625 -189.25)" fill="#ef6e4b"/>
    <path id="Path_28753" data-name="Path 28753" d="M285.9,241.8a6.235,6.235,0,0,0-2.454,1.25,9.745,9.745,0,0,0-.934,2.249H285.9l.637-1.172.746-1.562Z" transform="translate(-273.047 -218.548)" fill="#ef6e4b"/>
    <g id="Group_37375" data-name="Group 37375" transform="translate(1.339)">
      <path id="Path_28754" data-name="Path 28754" d="M264.03,174.974s1.376-.577.486-4.715c-.59-2.742-1.439-3.15-1.988-3.174,0,0-.671-1.012-3-.528a4.327,4.327,0,0,0-3.428,3.093c-.585,1.871.585,5.882,2.125,6.281Z" transform="translate(-255.756 -165.691)" fill="#164353"/>
      <path id="Path_28755" data-name="Path 28755" d="M283.879,184.41s.867-1.207,1.195-.017c.379,1.378-.8,2.153-1.124,1.748S283.879,184.41,283.879,184.41Z" transform="translate(-275.28 -177.923)" fill="#ff8b66"/>
      <path id="Path_28756" data-name="Path 28756" d="M257.139,189.246s-1.209-.864-1.137.367c.083,1.427,1.451,1.782,1.626,1.294S257.139,189.246,257.139,189.246Z" transform="translate(-255.794 -181.488)" fill="#ff8b66"/>
      <path id="Path_28757" data-name="Path 28757" d="M263.591,181.566c2.3-.38,3.354-2.1,2.61-6.609-.384-2.327-1.8-3.558-4.382-3.133s-3.43,2.032-3.046,4.359C259.573,181.03,261.213,181.959,263.591,181.566Z" transform="translate(-257.677 -169.419)" fill="#ff8b66"/>
      <path id="Path_28758" data-name="Path 28758" d="M262.42,190.575a.553.553,0,1,0,.543-.426A.494.494,0,0,0,262.42,190.575Z" transform="translate(-260.296 -182.328)" fill="#db614d"/>
      <path id="Path_28759" data-name="Path 28759" d="M278.323,188.068a.552.552,0,1,0,.427-.542A.494.494,0,0,0,278.323,188.068Z" transform="translate(-271.442 -180.476)" fill="#db614d"/>
      <g id="Group_37372" data-name="Group 37372" transform="translate(2.655 4.985)">
        <path id="Path_28760" data-name="Path 28760" d="M264.316,181.4a.117.117,0,0,1-.1-.182,1.562,1.562,0,0,1,1-.567.116.116,0,0,1,.131.1.117.117,0,0,1-.1.131,1.342,1.342,0,0,0-.833.466A.116.116,0,0,1,264.316,181.4Z" transform="translate(-264.199 -180.654)" fill="#1a4850"/>
      </g>
      <g id="Group_37373" data-name="Group 37373" transform="translate(5.959 4.568)">
        <path id="Path_28761" data-name="Path 28761" d="M276.407,179.71a.116.116,0,0,1-.07-.024,1.338,1.338,0,0,0-.938-.174.115.115,0,0,1-.137-.092.117.117,0,0,1,.092-.137,1.56,1.56,0,0,1,1.124.217.117.117,0,0,1-.07.21Z" transform="translate(-275.259 -179.258)" fill="#1a4850"/>
      </g>
      <path id="Path_28762" data-name="Path 28762" d="M265.965,185.806c.047.286.214.5.373.47s.249-.279.2-.565-.214-.5-.373-.47S265.917,185.52,265.965,185.806Z" transform="translate(-262.773 -178.884)" fill="#1a4850"/>
      <path id="Path_28763" data-name="Path 28763" d="M276.258,184.108c.047.286.214.5.373.47s.249-.279.2-.565-.214-.5-.373-.471S276.21,183.822,276.258,184.108Z" transform="translate(-269.992 -177.693)" fill="#1a4850"/>
      <path id="Path_28764" data-name="Path 28764" d="M271.887,194.131a9.353,9.353,0,0,1-3.105.323,1.944,1.944,0,0,0,1.859.686C271.734,194.862,271.887,194.131,271.887,194.131Z" transform="translate(-264.758 -185.12)" fill="#1a4850"/>
      <path id="Path_28765" data-name="Path 28765" d="M264.146,171.34a12.041,12.041,0,0,1-5.861,2.025l.093,2.9s-3.04-5.6,2.973-6.594,4.263,5.265,4.263,5.265S265.427,172.241,264.146,171.34Z" transform="translate(-256.922 -167.895)" fill="#0e3944"/>
      <g id="Group_37374" data-name="Group 37374" transform="translate(4.779 5.816)">
        <path id="Path_28766" data-name="Path 28766" d="M271.628,185.85l-.017-.251s.35-.027.441-.242c.037-.088-.11-.37-.241-.619a4.755,4.755,0,0,1-.5-1.253l.247-.05a4.538,4.538,0,0,0,.478,1.186c.193.369.333.635.25.833A.8.8,0,0,1,271.628,185.85Z" transform="translate(-271.309 -183.436)" fill="#db614d"/>
      </g>
      <path id="Path_28767" data-name="Path 28767" d="M263.944,167.418c-4.371-1.9-8.5,2.036-8.5,2.036s-.481-3.187.361-3.933a5.02,5.02,0,0,1,.7-.521,7.38,7.38,0,0,1,5.674-.776,1.432,1.432,0,0,1,.534.3A8.8,8.8,0,0,1,263.944,167.418Z" transform="translate(-255.31 -163.966)" fill="#ce364c"/>
      <path id="Path_28768" data-name="Path 28768" d="M265.644,166.709a10.338,10.338,0,0,0-7.094,1.539,9.686,9.686,0,0,1,.189-3.247,7.38,7.38,0,0,1,5.674-.776A8.917,8.917,0,0,1,265.644,166.709Z" transform="translate(-257.541 -163.966)" fill="#cfd8dc"/>
      <path id="Path_28769" data-name="Path 28769" d="M256.978,170.823s.582-2.472,1.366-3.168c1.3-1.158,4.969-1.556,6.9-.86s0,2.8,0,2.8S262.17,167.4,256.978,170.823Z" transform="translate(-256.48 -165.709)" fill="#a02e44"/>
    </g>
    <path id="Path_28770" data-name="Path 28770" d="M270.925,236.073a12.236,12.236,0,0,0,4.056,3.692,11.327,11.327,0,0,1,7.341-2.525s-3.435,6.2-6.385,6.884c-1.55.361-7.155-3.351-7.155-3.351S269.9,236.828,270.925,236.073Z" transform="translate(-263.419 -214.534)" fill="#ff8b66"/>
    <path id="Path_28771" data-name="Path 28771" d="M255.771,220.226c1.373-2.236,4.541,1.069,5.619,3.429s1.865,2.861,1.865,2.861-3.165,1.322-3.142,3.694C260.112,230.21,252.774,225.1,255.771,220.226Z" transform="translate(-253.79 -202.9)" fill="#adbec4"/>
    <path id="Path_28772" data-name="Path 28772" d="M289.533,226.485s1.928-1.891,8.267-4.36l-.819-2.575a2.826,2.826,0,0,1,2.064-.957s3.248,4.586,2.689,5.956C301.385,225.405,294.611,226.3,289.533,226.485Z" transform="translate(-277.972 -202.275)" fill="#ef6e4b"/>
    <path id="Path_28773" data-name="Path 28773" d="M312.774,225.386a1.691,1.691,0,0,1,.284-.6c.234-.331.171-.933.255-1.119a3.2,3.2,0,0,1,.914-1.1c.331-.148.765-.391.858.029s-.593.3-.9.905a2.667,2.667,0,0,1,1.207-.091c.534.126.686.615.026.6a2.961,2.961,0,0,0-1.2.362s.686.1.575.419C314.635,225.228,313.8,224.959,312.774,225.386Z" transform="translate(-294.27 -204.919)" fill="#ff8b66"/>
  </g>
  <g id="Group_37390" data-name="Group 37390" transform="translate(24.457 18.996)">
    <path id="Path_28774" data-name="Path 28774" d="M153.748,228.982a18.849,18.849,0,0,0,2.888,3.938s5.671-3.4,8.287-1.969,4.7,2.3,6.392,1.68-5.579-13.854-5.579-13.854l-9.433-3.6s-.206,2.386-1.284,2.81-2.227,4.362-2.15,5.109S153.748,228.982,153.748,228.982Z" transform="translate(-135.376 -197.567)" fill="#3e6575"/>
    <path id="Path_28775" data-name="Path 28775" d="M138.2,264.056a67.329,67.329,0,0,1-7.454,10.874s-.515,7.261-13.794,18.686l-1.39-1.094s7.908-12.388,9.49-16.186-.874-7.278,6.4-16.885Z" transform="translate(-109.215 -228.616)" fill="#ef6e4b"/>
    <path id="Path_28776" data-name="Path 28776" d="M156.628,246.62a32.46,32.46,0,0,0-2.8,9.139l-.953,2.406a26.824,26.824,0,0,0,7.287,2.487l1.566-4.146Z" transform="translate(-135.384 -219.617)" fill="#662c33"/>
    <path id="Path_28777" data-name="Path 28777" d="M182.862,273.608a67.336,67.336,0,0,1,.866,13.155s4.086,6.025.714,23.215h-1.769s-1.445-14.626-2.55-18.589-5.188-5.179-5.409-17.229Z" transform="translate(-150.698 -238.543)" fill="#ff8b66"/>
    <g id="Group_37378" data-name="Group 37378" transform="translate(20.898 26.975)">
      <path id="Path_28778" data-name="Path 28778" d="M176.577,260.322a45.461,45.461,0,0,1-9.187.322l-.093-.66-.023-.169-.607-4.272a11.5,11.5,0,0,1-1.144-1.831c-.07-.133-.136-.269-.2-.411a9.322,9.322,0,0,1-.7-6.676l1.237.056.172.01,4.139.189.176.01,1.36.063.212.01.882.04a13.9,13.9,0,0,1,3.685,11.5l.056,1.038.007.169Z" transform="translate(-164.274 -246.595)" fill="#8b383e"/>
      <g id="Group_37377" data-name="Group 37377" transform="translate(0.974)">
        <path id="Path_28779" data-name="Path 28779" d="M168.314,246.621a17.937,17.937,0,0,0-.5,7.021c-.07-.133-.136-.269-.2-.411a18.027,18.027,0,0,1,.534-6.62c.02-.056.03-.083.03-.086l.156.056S168.321,246.6,168.314,246.621Z" transform="translate(-167.534 -246.525)" fill="#662c33"/>
        <path id="Path_28780" data-name="Path 28780" d="M183.589,259.857a24.08,24.08,0,0,1-5.071.385c-1.7,0-3.316-.07-4.175-.11l-.023-.169a60.941,60.941,0,0,0,7.936-.05l-.163-2.67a16.822,16.822,0,0,0-1.811-7.611,3.715,3.715,0,0,1-3.071-2.6c-.02-.076-.03-.123-.03-.126l.163-.026s.013.063.043.163a3.538,3.538,0,0,0,2.8,2.4,16.477,16.477,0,0,0-1.44-2.342c-.073-.1-.119-.156-.122-.159l.126-.106c.007.007.083.1.209.275a17.525,17.525,0,0,1,3.3,10.125l.163,2.656a8.78,8.78,0,0,0,1.161-.206Z" transform="translate(-172.293 -246.743)" fill="#662c33"/>
      </g>
    </g>
    <path id="Path_28781" data-name="Path 28781" d="M149.634,186.164c-1.32-.727-10.832,3-10.832,3s-1.407,2.51-.53,3.494,3.99.55,4.943,0a15.092,15.092,0,0,1,3.479-.967Z" transform="translate(-124.939 -177.154)" fill="#8bbddb"/>
    <path id="Path_28782" data-name="Path 28782" d="M185.6,157.314a4.971,4.971,0,0,1,2.684,3.022c.719,2.264-1.43,7.995-.687,10.629s.627,7.609-1.692,8.659-7.075-.829-8.1-3.7-.58-13.763,1.382-17.467S185.127,156.616,185.6,157.314Z" transform="translate(-152.493 -156.223)" fill="#f24052"/>
    <path id="Path_28783" data-name="Path 28783" d="M186.877,190.253c.518.559,1.851-.437,1.851-.437s-.027,4.94-1.463,5.318-5.095-3.891-4.944-5.052S185.728,189.014,186.877,190.253Z" transform="translate(-156.029 -179.395)" fill="#8bbddb"/>
    <path id="Path_28784" data-name="Path 28784" d="M167.875,188.436a10.133,10.133,0,0,0,3.982,1.819c2.53.587,3.9-.6,5.2,1.028,1.942,2.449-1.218,6.962-2.88,9.3a13.943,13.943,0,0,0-2.192,5.611s-4.39,1.275-8.175-.38l-.283-5.385A10.874,10.874,0,0,1,167.875,188.436Z" transform="translate(-142.562 -178.813)" fill="#0e3944"/>
    <path id="Path_28785" data-name="Path 28785" d="M194.251,193.87s2.006-4.78,2.587-5.085,2.054.427,2.35,1.081a4.669,4.669,0,0,1,0,2.08S197.606,190.14,194.251,193.87Z" transform="translate(-164.399 -179.008)" fill="#8bbddb"/>
    <path id="Path_28786" data-name="Path 28786" d="M201.206,217.234a5.151,5.151,0,0,1-3.151,2.4s-.169-.259-.454-.723c-.03-.046-.063-.1-.093-.152-1.761-2.856-7.144-11.992-7.037-16.745a12.4,12.4,0,0,1,3.827-8.8,6.384,6.384,0,0,1,2.474.962,23.237,23.237,0,0,1,.053,7.117c-.58,3.884-1.635,4.912-1.1,5.2s0,.869,0,.869a60.612,60.612,0,0,1,3.7,5.7c.378.882,1.021,2.381,1.423,3.316.026.067.053.133.079.192Z" transform="translate(-161.746 -182.17)" fill="#6097b2"/>
    <path id="Path_28787" data-name="Path 28787" d="M205.12,196.439a3.32,3.32,0,0,0-.933,4.187l6.194,6.412c-3.4,3.622-3.736,5.11-6.194,6.779l.933,1.445s8.606-6.614,8.619-8.224C213.744,206.349,208.482,198.012,205.12,196.439Z" transform="translate(-171.081 -184.426)" fill="#ff8b66"/>
    <path id="Path_28788" data-name="Path 28788" d="M196.026,254.609a18.518,18.518,0,0,0-1.924.317c-.743.186-1.735.372-1.766.527s1.642,0,1.642,0-1.363.56-1.394.776,1.735-.156,1.735-.156-1.115.681-1.053.867,1.436-.279,1.436-.279a4.328,4.328,0,0,1-.52.96s.266.146.806-.453,1.4-.407,2.084-.939S196.647,254.529,196.026,254.609Z" transform="translate(-163.055 -225.217)" fill="#ff8b66"/>
    <path id="Path_28789" data-name="Path 28789" d="M160.556,187.793a8.344,8.344,0,0,0-2.774,3.752c-1.074,2.653-4.461,7.646-5.255,8.936s-.241,8.31-.241,8.31-.995-4.256-1.437-5.915,1.428-5.756,1.709-5.973,1.718.18,1.442-1.483,3.58-8.833,4.609-9.035C158.609,186.385,160.258,186.695,160.556,187.793Z" transform="translate(-133.915 -177.375)" fill="#6097b2"/>
    <path id="Path_28790" data-name="Path 28790" d="M151.4,185.223a1.256,1.256,0,0,1-.1.166,4.3,4.3,0,0,1-1.1.995,18.927,18.927,0,0,0-1.31,2.026c-.013.179-2.252,1.8-3.247,1.771h0a.492.492,0,0,1-.329-.113c-.59-.557,2.01-5.233,2.584-6.242.036-.066.066-.116.086-.149s.023-.043.023-.043-.458-1.7,1.453-1.386a2.517,2.517,0,0,1,2.069,2.371A.9.9,0,0,1,151.4,185.223Z" transform="translate(-130.013 -174.446)" fill="#6097b2"/>
    <path id="Path_28791" data-name="Path 28791" d="M140.966,183.987a28.6,28.6,0,0,1,8.362-6.061l.608,1.13s-4.7,4.132-5.8,5.9-2.472,2.5-3.778,1.91S140.69,184.35,140.966,183.987Z" transform="translate(-126.251 -171.443)" fill="#ff8b66"/>
    <path id="Path_28792" data-name="Path 28792" d="M146.507,184.719l-.249.285-.126.146-.411.471s-1.035,1.254-.995,1.758c.03.361-1.963,1.98-3.522,2.653a1.909,1.909,0,0,1-1.526.206c-1.127-.65-.876-2.6-.235-3.927.557-1.154,3.021-2.643,3.655-3.008a1.633,1.633,0,0,1,.146-.086l0,0,.235-.915a1.891,1.891,0,0,1,1.536-.2s-1.493.063-1.247.643A6.971,6.971,0,0,0,146.507,184.719Z" transform="translate(-125.58 -174.296)" fill="#8bbddb"/>
    <g id="Group_37379" data-name="Group 37379" transform="translate(22.718 1.997)">
      <path id="Path_28793" data-name="Path 28793" d="M174,166.548c-1.5.617-1.287,1.977-2.663,1.977-.853,0-.965-.975-.965-.975a10.5,10.5,0,0,0,.683-2.928c.056-.677.282-.415.282-.415,0-.063,0-.123-.007-.183-.02-.454-.1-.786.2-.59.338.219.454,1.506.454,1.506.278-1.877-.136-2.156.189-1.99.444.226.447,1.884.447,1.934.358-1.091.262-1.715.511-1.466s-.126,2.255-.275,2.991c-.033.166-.056.269-.056.269C173.982,166.093,174,166.548,174,166.548Z" transform="translate(-170.367 -162.909)" fill="#ff8b66"/>
      <path id="Path_28794" data-name="Path 28794" d="M176.305,174.625c-.033.166-.056.269-.056.269a1.1,1.1,0,0,0-.952.541A.982.982,0,0,1,176.305,174.625Z" transform="translate(-173.824 -171.125)" fill="#ef6e4b"/>
      <path id="Path_28795" data-name="Path 28795" d="M173.665,168.171a3.76,3.76,0,0,0-.083-1.347c0-.063,0-.123-.007-.183C173.921,166.715,173.7,167.979,173.665,168.171Z" transform="translate(-172.617 -165.527)" fill="#ef6e4b"/>
    </g>
    <path id="Path_28796" data-name="Path 28796" d="M177,189.269s1.015-2.752,1.338-3.366,2.005-.509,3.278-.272,1.533,1.942,1.533,1.942S179.273,185.746,177,189.269Z" transform="translate(-152.298 -176.716)" fill="#8bbddb"/>
    <path id="Path_28797" data-name="Path 28797" d="M189.774,176.6a11.071,11.071,0,0,0-1.2,4.737s-1.976,1.343-2.683-.339a12.777,12.777,0,0,0,.388-5.178C186.039,173.824,189.774,176.6,189.774,176.6Z" transform="translate(-158.538 -169.458)" fill="#ef6e4b"/>
    <g id="Group_37383" data-name="Group 37383" transform="translate(26.036 0.383)">
      <path id="Path_28798" data-name="Path 28798" d="M182.8,168.03s-.361-1.287-1-.382c-.745,1.048.014,2.068.412,1.825S182.8,168.03,182.8,168.03Z" transform="translate(-181.476 -164.392)" fill="#ff8b66"/>
      <path id="Path_28799" data-name="Path 28799" d="M202.947,180.624s1.288-.358.848.661c-.51,1.181-1.776,1.06-1.774.594S202.947,180.624,202.947,180.624Z" transform="translate(-195.884 -173.675)" fill="#ff8b66"/>
      <path id="Path_28800" data-name="Path 28800" d="M184.054,169.043c-1.83-1.031-2.19-2.808-.171-6.393,1.041-1.849,2.621-2.454,4.671-1.3s2.274,2.775,1.233,4.624C187.617,169.827,185.944,170.108,184.054,169.043Z" transform="translate(-182.207 -159.789)" fill="#ff8b66"/>
      <path id="Path_28801" data-name="Path 28801" d="M200.222,180.03a.5.5,0,1,1-.328-.528A.445.445,0,0,1,200.222,180.03Z" transform="translate(-193.968 -172.907)" fill="#db614d"/>
      <path id="Path_28802" data-name="Path 28802" d="M187.591,172.981a.5.5,0,1,1-.194-.59A.444.444,0,0,1,187.591,172.981Z" transform="translate(-185.158 -167.878)" fill="#db614d"/>
      <g id="Group_37380" data-name="Group 37380" transform="translate(5.797 3.876)">
        <path id="Path_28803" data-name="Path 28803" d="M201.6,171.409a.1.1,0,0,1-.1-.079,1.2,1.2,0,0,0-.561-.651.1.1,0,0,1,.1-.186,1.4,1.4,0,0,1,.667.786.1.1,0,0,1-.076.128A.1.1,0,0,1,201.6,171.409Z" transform="translate(-200.882 -170.481)" fill="#1a4850"/>
      </g>
      <g id="Group_37381" data-name="Group 37381" transform="translate(2.965 2.617)">
        <path id="Path_28804" data-name="Path 28804" d="M192.439,166.664a.106.106,0,0,1-.054-.015,1.206,1.206,0,0,0-.848-.142.1.1,0,1,1-.061-.2,1.4,1.4,0,0,1,1.017.163.1.1,0,0,1-.054.194Z" transform="translate(-191.402 -166.265)" fill="#1a4850"/>
      </g>
      <path id="Path_28805" data-name="Path 28805" d="M199.456,175.182c-.128.227-.334.354-.46.283s-.125-.313,0-.54.334-.354.46-.283S199.584,174.954,199.456,175.182Z" transform="translate(-193.696 -169.508)" fill="#1a4850"/>
      <path id="Path_28806" data-name="Path 28806" d="M190.866,170.574c-.128.227-.334.354-.46.283s-.125-.313,0-.54.334-.354.461-.283S190.994,170.347,190.866,170.574Z" transform="translate(-187.672 -166.277)" fill="#1a4850"/>
      <path id="Path_28807" data-name="Path 28807" d="M189.145,179.7a4.249,4.249,0,0,0,1.809.826s-.807.657-1.387.231A1.047,1.047,0,0,1,189.145,179.7Z" transform="translate(-186.84 -173.07)" fill="#1a4850"/>
      <path id="Path_28808" data-name="Path 28808" d="M198.91,173.912s.482-.466.679-.3.094.738.094.738l.421.011-.349-.14s.112-.6-.1-.719C199.343,173.324,198.91,173.912,198.91,173.912Z" transform="translate(-193.702 -168.698)" fill="#1a4850"/>
      <path id="Path_28809" data-name="Path 28809" d="M190.482,169.793s.148-.654-.094-.737-.679.3-.679.3l-.228-.355.3.226s.451-.405.669-.283C190.761,169.117,190.482,169.793,190.482,169.793Z" transform="translate(-187.09 -165.511)" fill="#1a4850"/>
      <path id="Path_28810" data-name="Path 28810" d="M190.964,159.832a1.048,1.048,0,0,0-1.561-.188c-.905.723-2.948,1.881-3.952,1.5s2.2-4.663,4.979-3.41,2.53,5.334,1.374,6.631-.609.088-.609.088a14.554,14.554,0,0,1,.464-3.06A1.16,1.16,0,0,0,190.964,159.832Z" transform="translate(-184.131 -157.504)" fill="#f24052"/>
      <g id="Group_37382" data-name="Group 37382" transform="translate(3.592 5.321)">
        <path id="Path_28811" data-name="Path 28811" d="M193.661,176.209a.651.651,0,0,1-.159-.021l.056-.22a.261.261,0,0,0,.323-.109.28.28,0,0,0,0-.3c-.029-.03-.078-.027-.148.009l-.105-.2a.326.326,0,0,1,.417.035.5.5,0,0,1,.027.567A.465.465,0,0,1,193.661,176.209Z" transform="translate(-193.502 -175.316)" fill="#db614d"/>
      </g>
    </g>
    <g id="Group_37385" data-name="Group 37385" transform="translate(32.28 11.965)">
      <path id="Path_28812" data-name="Path 28812" d="M213.288,206.67c-.109,1.608-4.089,6.845-4.753,7.031a1.765,1.765,0,0,0-.514.255c-.07.05-.139.1-.206.156a5.022,5.022,0,0,0-.663.657c-1.161-.076-4.421-1.585-3.373-1.917a.8.8,0,0,0,.209-.11,1.218,1.218,0,0,0,.136-.106,23.259,23.259,0,0,0,3.651-5.552c.013-.348.428-.414.428-.414s-2.265-3.326-3.579-3.728a3.767,3.767,0,0,1-1.977-1.99c-1.3-5.489,2.474-4.626,2.474-4.626C207.9,197.981,213.4,205.059,213.288,206.67Z" transform="translate(-202.377 -196.277)" fill="#8bbddb"/>
      <g id="Group_37384" data-name="Group 37384" transform="translate(1.611 16.36)">
        <path id="Path_28813" data-name="Path 28813" d="M211.8,252.364c-.07.05-.139.1-.206.156a8.3,8.3,0,0,1-3.827-1.37,1.209,1.209,0,0,0,.136-.106A8.068,8.068,0,0,0,211.8,252.364Z" transform="translate(-207.772 -251.044)" fill="#3e6575"/>
      </g>
    </g>
    <g id="Group_37386" data-name="Group 37386" transform="translate(17.517 8.92)">
      <path id="Path_28814" data-name="Path 28814" d="M156.825,187.94a1.261,1.261,0,0,1-.1.166,4.3,4.3,0,0,1-.73-.09,5.483,5.483,0,0,1-2.676-1.473c-.136-.133-.255-.259-.358-.375a1.638,1.638,0,0,1,.146-.086c.086.1.186.2.3.312a5.279,5.279,0,0,0,2.716,1.476A4.026,4.026,0,0,0,156.825,187.94Z" transform="translate(-152.958 -186.083)" fill="#3e6575"/>
    </g>
    <g id="Group_37387" data-name="Group 37387" transform="translate(35.761 34.221)">
      <path id="Path_28815" data-name="Path 28815" d="M217.452,270.976a4.674,4.674,0,0,1-3.326,2.331c-.03-.046-.063-.1-.093-.152a4.553,4.553,0,0,0,3.34-2.371C217.4,270.851,217.426,270.917,217.452,270.976Z" transform="translate(-214.033 -270.784)" fill="#3e6575"/>
    </g>
    <g id="Group_37388" data-name="Group 37388" transform="translate(0 61.705)">
      <path id="Path_28816" data-name="Path 28816" d="M103.313,365.676a5.834,5.834,0,0,0-.846,1.157c-.431.749.043,1.439-2.043,3.177,0,0-4.209-2.464-6.109-5.632a1.226,1.226,0,0,1,.952-1.117c.494-.113,1.854.524,3.161.769a5.358,5.358,0,0,0,.554.076,3.212,3.212,0,0,0,.67,0,1.98,1.98,0,0,0,.564-.136h0a1.675,1.675,0,0,0,.978-1.177,1.144,1.144,0,0,1,.372,1.715S102.895,363.925,103.313,365.676Z" transform="translate(-94.315 -362.791)" fill="#cfd8dc"/>
      <path id="Path_28817" data-name="Path 28817" d="M100.424,373.723s-4.209-2.464-6.109-5.632c0,0,.706-.149,1.29.9S100.765,372.427,100.424,373.723Z" transform="translate(-94.315 -366.503)" fill="#adbec4"/>
      <path id="Path_28818" data-name="Path 28818" d="M112.967,367.794c-.342.54-.335-.458-.79-.925a1.979,1.979,0,0,0,.564-.136h0A.871.871,0,0,1,112.967,367.794Z" transform="translate(-106.842 -365.555)" fill="#adbec4"/>
      <path id="Path_28819" data-name="Path 28819" d="M108.772,367.972c-.361.342-.478-.55-.69-1.028a5.357,5.357,0,0,0,.554.076C108.848,367.309,109.047,367.71,108.772,367.972Z" transform="translate(-103.97 -365.703)" fill="#adbec4"/>
    </g>
    <g id="Group_37389" data-name="Group 37389" transform="translate(28.826 69.293)">
      <path id="Path_28820" data-name="Path 28820" d="M196.878,394.425h-5.953a3.5,3.5,0,0,1,0-1.741c.106-.395.723-.763,1.3-1.277a4.568,4.568,0,0,0,.454-.461,2.676,2.676,0,0,0,.3-.434,2.164,2.164,0,0,0,.245-.62,2.722,2.722,0,0,0-.2-1.618s2.026-.425,2.749.68c0,0,.07-.511.713-.169a9.439,9.439,0,0,0,.033,1.884C196.646,391.523,197.445,391.771,196.878,394.425Z" transform="translate(-190.814 -388.192)" fill="#cfd8dc"/>
      <path id="Path_28821" data-name="Path 28821" d="M200.408,394.6a.264.264,0,0,1-.2.09.289.289,0,0,1-.176-.06,2.173,2.173,0,0,0-1.977-.358,2.163,2.163,0,0,0,.245-.62,2.029,2.029,0,0,1,2.073.557A.272.272,0,0,1,200.408,394.6Z" transform="translate(-195.893 -391.954)" fill="#adbec4"/>
      <path id="Path_28822" data-name="Path 28822" d="M198.132,398.146l-.033.05a.271.271,0,0,1-.365.09,3.658,3.658,0,0,0-2.209-.561,4.571,4.571,0,0,0,.454-.461,2.368,2.368,0,0,1,2.093.521A.278.278,0,0,1,198.132,398.146Z" transform="translate(-194.118 -394.511)" fill="#adbec4"/>
    </g>
  </g>
  <line id="Line_601" data-name="Line 601" x2="148" transform="translate(0 95.222)" fill="none" stroke="#000" stroke-width="1"/>
</svg>
