<svg xmlns="http://www.w3.org/2000/svg" width="159.332" height="89.605" viewBox="0 0 159.332 89.605">
  <g id="Group_41422" data-name="Group 41422" transform="translate(-145.371 -8.895)">
    <rect id="Rectangle_3567" data-name="Rectangle 3567" width="18" height="18" transform="matrix(0.799, -0.602, 0.602, 0.799, 279.494, 49.959)" fill="#ffb5b6"/>
    <g id="Group_36770" data-name="Group 36770" transform="translate(145.371 8.895)">
      <path id="Path_26698" data-name="Path 26698" d="M2368.151,235.783H2278.3c-2.84,0-5.142,2.736-5.142,6.111h0c0,3.375,2.3,6.11,5.142,6.11H2321.7c2.175,0,3.938,2.1,3.938,4.681h0c0,2.586-1.764,4.681-3.938,4.681h-7.586c-5.543,0-10.037,5.341-10.037,11.929h-15.929c-3.008,0-5.447,2.9-5.447,6.474h0c0,3.576,2.438,6.474,5.447,6.474h80.006c10.794,0,19.545-10.4,19.545-23.231h0C2387.7,246.184,2378.946,235.783,2368.151,235.783Z" transform="translate(-2273.162 -235.783)" fill="#feedc4"/>
      <g id="Group_36756" data-name="Group 36756" transform="translate(41.445 27.222)">
        <path id="Path_26699" data-name="Path 26699" d="M2522.875,383.13h-25.632a.126.126,0,1,1,0-.251h25.632a.126.126,0,0,1,0,.251Z" transform="translate(-2497.117 -382.879)" fill="#1b2b80"/>
      </g>
      <g id="Group_36757" data-name="Group 36757" transform="translate(32.021 33.761)">
        <path id="Path_26700" data-name="Path 26700" d="M2479.325,418.465h-33a.126.126,0,1,1,0-.251h33a.126.126,0,0,1,0,.251Z" transform="translate(-2446.195 -418.214)" fill="#1b2b80"/>
      </g>
      <g id="Group_36758" data-name="Group 36758" transform="translate(36.67 41.799)">
        <path id="Path_26701" data-name="Path 26701" d="M2489.437,461.9h-18a.126.126,0,0,1,0-.252h18a.126.126,0,0,1,0,.252Z" transform="translate(-2471.316 -461.648)" fill="#1b2b80"/>
      </g>
      <g id="Group_36762" data-name="Group 36762" transform="translate(34.079 2.96)">
        <path id="Path_26702" data-name="Path 26702" d="M2513.174,710.677c0,.524,13.487.948,30.124.948s30.124-.424,30.124-.948-13.487-.948-30.124-.948S2513.174,710.154,2513.174,710.677Z" transform="translate(-2502.837 -624.981)" fill="#d09a2d"/>
        <path id="Path_26703" data-name="Path 26703" d="M2730.014,532.09c-.985.33-3.87,1.439-4.635,2.558l1.145.822c0,1.72,1.9,11.673,3.207,18.578a5.614,5.614,0,0,1,2.6-.39l-1.04-19.381Z" transform="translate(-2675.771 -480.216)" fill="#fc7575"/>
        <path id="Path_26704" data-name="Path 26704" d="M2778.857,297.567c-.068.068.541,4.423.251,4.582l-.784.429Z" transform="translate(-2718.919 -289.093)" fill="#34173a"/>
        <path id="Path_26705" data-name="Path 26705" d="M2715.311,289.694s-1.818-1.463-2.608-1.438-1.91.878-2.412.658-.525-.5-.525-.5a1.849,1.849,0,0,0-.35.784c-.048.4,1.264.708,1.769.9s.61.392.61.392-1.9.7-2.944-.18a4.789,4.789,0,0,1-1.3-1.476s-.4.957-.215,1.342a1.845,1.845,0,0,1-1.4-1.162c-.332-1-.137-1.228-.137-1.228a.988.988,0,0,0-.635.742c-.186.638-.927.462-.927.462a2.949,2.949,0,0,0,.365,2.392,6.12,6.12,0,0,0,4.878,2.673c1.432,0,3.654-.586,4.164-1.783a6.021,6.021,0,0,1,1.039-1.737Z" transform="translate(-2658.454 -281.119)" fill="#2846a6"/>
        <path id="Path_26706" data-name="Path 26706" d="M2744.388,340.214a5.072,5.072,0,0,1,1.931,1.211c.91.91-1.324,12.143,0,12.143s7.823-1.476,8.774-2.428.8-2.108,2.809-2.329.856.9.359.9-.657.244-.657.464,1.216.093,1.565.442.047,3.276-.643,3.276-1.032-1.014-2.853-.407-11.34,5.518-13.272,4.056S2744.388,340.214,2744.388,340.214Z" transform="translate(-2689.208 -323.848)" fill="#fd5e5a"/>
        <path id="Path_26707" data-name="Path 26707" d="M2741.165,338.359a7.453,7.453,0,0,1,3.17.477c.957.587.019,10.493.019,10.493l-5.026-1.47Z" transform="translate(-2687.138 -322.329)" fill="#757ad8"/>
        <path id="Path_26708" data-name="Path 26708" d="M2649.33,432.059l8.72,5.974s1.372-2.116,2.575-4.492l-7.033-4A9.315,9.315,0,0,0,2649.33,432.059Z" transform="translate(-2613.796 -396.645)" fill="#0f1d5b"/>
        <path id="Path_26709" data-name="Path 26709" d="M2689.456,335.767c1.876-1.835.717-2.806,0-6.044a22.4,22.4,0,0,1-.662-4.965c0-2.051-3.973-1.943-4.415-1.511s-5.353,6.1-7.229,10.847a56.589,56.589,0,0,1-4.789,8.616l7.033,4c.323-.637.633-1.291.9-1.93C2681.564,341.757,2687.58,337.6,2689.456,335.767Z" transform="translate(-2632.564 -309.813)" fill="#c5c6fc"/>
        <path id="Path_26710" data-name="Path 26710" d="M2742.27,297.568l-4.967,4.966s2.428,3.2,3.9,2.906a9.431,9.431,0,0,1,1.545-3.168c.9-.9,2.612-1.614,2.207-1.614S2742.27,297.568,2742.27,297.568Z" transform="translate(-2685.489 -289.094)" fill="#fd5e5a"/>
        <path id="Path_26711" data-name="Path 26711" d="M2760.669,298.21l.643-.643s2.281,3.091,2.686,3.091c.29,0-.5.366-1.309.9A11.478,11.478,0,0,1,2760.669,298.21Z" transform="translate(-2704.531 -289.093)" fill="#be4744"/>
        <path id="Path_26712" data-name="Path 26712" d="M2534.765,525.69l-.4.984a12.688,12.688,0,0,0-3.4-.882c-.8,0-9.123.679-14.856.968a13.121,13.121,0,0,0-2.083,2.674c6.916.923,20.921,2.771,22.2,2.771.414,0,1.215-.778,2.19-1.95C2537.319,528.662,2535.984,527.17,2534.765,525.69Z" transform="translate(-2503.528 -475)" fill="#fd5e5a"/>
        <g id="Group_36759" data-name="Group 36759" transform="translate(0 47.259)">
          <path id="Path_26713" data-name="Path 26713" d="M2497.928,538.311s4.66-4.086,5.89-3.933a1.9,1.9,0,0,1,1.38,2.41c-.273.757-1.929.463-3.077.7a34.293,34.293,0,0,0-3.505,1.129Z" transform="translate(-2490.412 -529.336)" fill="#172866"/>
          <path id="Path_26714" data-name="Path 26714" d="M2484.479,525.027l-8.273.251-2.255,8.842s1.377.979,2.256.462,3.941-4.411,5.431-4.75c1.434-.326,3.4-1.108,3.368-2.576A4.574,4.574,0,0,0,2484.479,525.027Z" transform="translate(-2470.872 -521.719)" fill="#2a8001"/>
          <path id="Path_26715" data-name="Path 26715" d="M2477.208,522.186a1.43,1.43,0,0,1,.439,1.646c-.454.912-2.865,1.447-3.6,2.776s-.877,5.257-.873,5.444-.489.529-.868-.358,1.88-8.382,2.231-9.155S2477.208,522.186,2477.208,522.186Z" transform="translate(-2469.497 -519.311)" fill="#0f1d5b"/>
          <path id="Path_26716" data-name="Path 26716" d="M2476.946,511.227a5.482,5.482,0,0,0-.315-2.82,3.364,3.364,0,0,0-1.641-1.256l-.683,1.9a4.109,4.109,0,0,1,1.144,2.115C2475.474,512.143,2476.946,511.227,2476.946,511.227Z" transform="translate(-2471.162 -507.151)" fill="#0f1d5b"/>
          <path id="Path_26717" data-name="Path 26717" d="M2471.483,526.107a1.223,1.223,0,0,1-1.187-1.26,1.241,1.241,0,0,1,1.124-1.329,1.222,1.222,0,0,1,1.187,1.259A1.24,1.24,0,0,1,2471.483,526.107Z" transform="translate(-2467.894 -520.489)" fill="#603e6b"/>
          <path id="Path_26718" data-name="Path 26718" d="M2467.141,540.633a1.222,1.222,0,0,1-1.186-1.259,1.24,1.24,0,0,1,1.124-1.33,1.222,1.222,0,0,1,1.187,1.26A1.241,1.241,0,0,1,2467.141,540.633Z" transform="translate(-2464.355 -532.326)" fill="#603e6b"/>
          <path id="Path_26719" data-name="Path 26719" d="M2462.78,557.37a1.222,1.222,0,0,1-1.186-1.26,1.24,1.24,0,0,1,1.124-1.329,1.222,1.222,0,0,1,1.187,1.259A1.241,1.241,0,0,1,2462.78,557.37Z" transform="translate(-2460.801 -545.966)" fill="#603e6b"/>
          <path id="Path_26720" data-name="Path 26720" d="M2458.5,572.56a1.222,1.222,0,0,1-1.187-1.26,1.241,1.241,0,0,1,1.124-1.33,1.222,1.222,0,0,1,1.186,1.26A1.24,1.24,0,0,1,2458.5,572.56Z" transform="translate(-2457.315 -558.345)" fill="#603e6b"/>
          <path id="Path_26721" data-name="Path 26721" d="M2463.626,557.468s-3.117,3.027-2.974,3.828,2.457-.738,2.457-.738Z" transform="translate(-2460.031 -548.156)" fill="#0f1d5b"/>
          <path id="Path_26722" data-name="Path 26722" d="M2466.247,525.9l1.331-3.1.382-3.555,1.215-1.317a.355.355,0,0,0,.007-.462.27.27,0,0,0-.412-.008l-1.364,1.479-.4,3.678-1.289,3.005a.345.345,0,0,0,.136.436A.278.278,0,0,0,2466.247,525.9Z" transform="translate(-2464.143 -515.471)" fill="#1b2b80"/>
          <path id="Path_26723" data-name="Path 26723" d="M2482.682,518.951a.164.164,0,0,1-.159-.169.166.166,0,0,1,.151-.178.164.164,0,0,1,.159.169A.166.166,0,0,1,2482.682,518.951Z" transform="translate(-2477.858 -516.484)" fill="#b9bcfc"/>
          <path id="Path_26724" data-name="Path 26724" d="M2475.967,526.08a.163.163,0,0,1-.159-.169.167.167,0,0,1,.151-.178.164.164,0,0,1,.159.169A.167.167,0,0,1,2475.967,526.08Z" transform="translate(-2472.386 -522.294)" fill="#b9bcfc"/>
          <path id="Path_26725" data-name="Path 26725" d="M2473.938,545.052a.164.164,0,0,1-.159-.169.166.166,0,0,1,.151-.178.164.164,0,0,1,.159.169A.166.166,0,0,1,2473.938,545.052Z" transform="translate(-2470.732 -537.755)" fill="#b9bcfc"/>
          <path id="Path_26726" data-name="Path 26726" d="M2466.531,561.87a.164.164,0,0,1-.159-.169.166.166,0,0,1,.151-.178.164.164,0,0,1,.159.169A.166.166,0,0,1,2466.531,561.87Z" transform="translate(-2464.696 -551.461)" fill="#b9bcfc"/>
          <path id="Path_26727" data-name="Path 26727" d="M2462.882,576.377a.163.163,0,0,1-.159-.169.166.166,0,0,1,.151-.178.164.164,0,0,1,.159.169A.167.167,0,0,1,2462.882,576.377Z" transform="translate(-2461.722 -563.283)" fill="#b9bcfc"/>
          <path id="Path_26728" data-name="Path 26728" d="M2517.409,532.385l.407,2.985-1.46.287-.238-2.935a.751.751,0,0,1,.483-.87h0A.66.66,0,0,1,2517.409,532.385Z" transform="translate(-2505.224 -527.261)" fill="#1b2b80"/>
          <path id="Path_26729" data-name="Path 26729" d="M2503.65,537.181l.7,2.576-1.444.862-.545-3.1a.751.751,0,0,1,.482-.87h0A.66.66,0,0,1,2503.65,537.181Z" transform="translate(-2494.011 -531.17)" fill="#1b2b80"/>
          <path id="Path_26730" data-name="Path 26730" d="M2490.69,546.917l1.3,2.219-1.156,1.125-1.27-2.569a.8.8,0,0,1,.214-1h0A.622.622,0,0,1,2490.69,546.917Z" transform="translate(-2483.519 -539.281)" fill="#1b2b80"/>
        </g>
        <g id="Group_36760" data-name="Group 36760" transform="translate(50.665 71.888)">
          <path id="Path_26731" data-name="Path 26731" d="M2757.394,647.285s-4.759-4.272-4.753-5.55,1.711-1.639,2.519-1.452.492,1.662.878,2.808a35.379,35.379,0,0,0,1.588,3.452Z" transform="translate(-2748.653 -640.236)" fill="#172866"/>
          <path id="Path_26732" data-name="Path 26732" d="M2742.91,644.713l1.274,8.445,9.336,1.223s.833-1.53.2-2.368-5-3.5-5.534-4.98c-.51-1.429-1.554-3.351-3.053-3.134A4.717,4.717,0,0,0,2742.91,644.713Z" transform="translate(-2740.723 -643.207)" fill="#38ab01"/>
          <path id="Path_26733" data-name="Path 26733" d="M2744.384,678.089a1.475,1.475,0,0,1,1.633-.652c.989.352,1.834,2.758,3.285,3.347s5.493.253,5.684.225.6.437-.26.934-8.818-.9-9.652-1.161S2744.384,678.089,2744.384,678.089Z" transform="translate(-2741.917 -670.491)" fill="#0f1d5b"/>
          <path id="Path_26734" data-name="Path 26734" d="M2735.027,691.165a5.66,5.66,0,0,0-2.85.67,3.467,3.467,0,0,0-1.085,1.835l2.028.466a4.239,4.239,0,0,1,2.026-1.432C2736.146,692.56,2735.027,691.165,2735.027,691.165Z" transform="translate(-2731.092 -681.74)" fill="#0f1d5b"/>
          <path id="Path_26735" data-name="Path 26735" d="M2750.65,697.871a1.26,1.26,0,0,1-1.144,1.37,1.279,1.279,0,0,1-1.5-.988,1.261,1.261,0,0,1,1.144-1.37A1.28,1.28,0,0,1,2750.65,697.871Z" transform="translate(-2744.866 -686.387)" fill="#603e6b"/>
          <path id="Path_26736" data-name="Path 26736" d="M2766.066,700.535a1.261,1.261,0,0,1-1.145,1.37,1.28,1.28,0,0,1-1.5-.988,1.261,1.261,0,0,1,1.144-1.37A1.281,1.281,0,0,1,2766.066,700.535Z" transform="translate(-2757.429 -688.558)" fill="#603e6b"/>
          <path id="Path_26737" data-name="Path 26737" d="M2783.747,702.945a1.261,1.261,0,0,1-1.144,1.371,1.28,1.28,0,0,1-1.5-.988,1.261,1.261,0,0,1,1.144-1.371A1.28,1.28,0,0,1,2783.747,702.945Z" transform="translate(-2771.838 -690.522)" fill="#603e6b"/>
          <path id="Path_26738" data-name="Path 26738" d="M2799.834,705.461a1.261,1.261,0,0,1-1.144,1.37,1.28,1.28,0,0,1-1.5-.988,1.261,1.261,0,0,1,1.144-1.37A1.28,1.28,0,0,1,2799.834,705.461Z" transform="translate(-2784.947 -692.573)" fill="#603e6b"/>
          <path id="Path_26739" data-name="Path 26739" d="M2782.791,699.8s3.484,2.821,4.288,2.576-1.059-2.427-1.059-2.427Z" transform="translate(-2773.224 -688.781)" fill="#0f1d5b"/>
          <path id="Path_26740" data-name="Path 26740" d="M2749.955,698.14l-3.342-.982-3.689.045-1.5-1.083a.367.367,0,0,0-.474.05.278.278,0,0,0,.043.423l1.682,1.215,3.817-.047,3.237.951a.356.356,0,0,0,.429-.193A.287.287,0,0,0,2749.955,698.14Z" transform="translate(-2739.063 -685.725)" fill="#1b2b80"/>
          <path id="Path_26741" data-name="Path 26741" d="M2742.513,696.954a.168.168,0,0,1-.153.184.172.172,0,0,1-.2-.133.18.18,0,0,1,.354-.051Z" transform="translate(-2740.11 -686.348)" fill="#b9bcfc"/>
          <path id="Path_26742" data-name="Path 26742" d="M2750.644,702.958a.169.169,0,0,1-.154.184.172.172,0,0,1-.2-.133.169.169,0,0,1,.154-.184A.172.172,0,0,1,2750.644,702.958Z" transform="translate(-2746.735 -691.241)" fill="#b9bcfc"/>
          <path id="Path_26743" data-name="Path 26743" d="M2770.329,702.7a.169.169,0,0,1-.154.184.171.171,0,0,1-.2-.133.169.169,0,0,1,.154-.184A.172.172,0,0,1,2770.329,702.7Z" transform="translate(-2762.777 -691.034)" fill="#b9bcfc"/>
          <path id="Path_26744" data-name="Path 26744" d="M2788.467,708.225a.169.169,0,0,1-.153.184.172.172,0,0,1-.2-.133.169.169,0,0,1,.154-.184A.171.171,0,0,1,2788.467,708.225Z" transform="translate(-2777.559 -695.533)" fill="#b9bcfc"/>
          <path id="Path_26745" data-name="Path 26745" d="M2803.777,710.182a.169.169,0,0,1-.153.184.172.172,0,0,1-.2-.133.169.169,0,0,1,.154-.184A.172.172,0,0,1,2803.777,710.182Z" transform="translate(-2790.036 -697.128)" fill="#b9bcfc"/>
          <path id="Path_26746" data-name="Path 26746" d="M2751.719,651.615l3.045-.777.437,1.455-2.978.6a.775.775,0,0,1-.951-.387h0A.682.682,0,0,1,2751.719,651.615Z" transform="translate(-2747.498 -648.875)" fill="#1b2b80"/>
          <path id="Path_26747" data-name="Path 26747" d="M2758.324,664l2.553-1.032,1.061,1.374-3.11.94a.775.775,0,0,1-.951-.387h0A.681.681,0,0,1,2758.324,664Z" transform="translate(-2752.88 -658.758)" fill="#1b2b80"/>
          <path id="Path_26748" data-name="Path 26748" d="M2769.89,674.079l2.114-1.6,1.3,1.046-2.476,1.617a.823.823,0,0,1-1.047-.1h0A.642.642,0,0,1,2769.89,674.079Z" transform="translate(-2762.478 -666.512)" fill="#1b2b80"/>
        </g>
        <path id="Path_26749" data-name="Path 26749" d="M2630.563,458.409l-5.25,12.6c1.219,1.48,2.7,2.824,3.792,4.418,3.041-3.655,7.78-11.18,7.78-11.18Z" transform="translate(-2594.223 -420.17)" fill="#0f1d5b"/>
        <path id="Path_26750" data-name="Path 26750" d="M2646.694,435.749c-4.264-2.132-8.089,3.75-6.257,6.972,1.377,2.421,14.266,12.5,15.813,13.509,1.157-.735,2.965-2.349,4.3-2.8C2657.622,448.677,2650.375,437.59,2646.694,435.749Z" transform="translate(-2606.165 -401.333)" fill="#2846a6"/>
        <path id="Path_26751" data-name="Path 26751" d="M2819.087,395.183s2.778-.325,2.906.037c.283.8-.129.662-.129,1.122s.212.487.019.681-.221.331-.221.791-.675,1.257-.9,1.03-2.281-.92-2.281-1.288,1.4.165,1.4.165-1.563-.655-1.563-.926,2.171.3,2.171.3-1.895-.441-2.024-.809.994-.317,2.115-.149a4.084,4.084,0,0,1-1.71-.532C2818.48,395.22,2819.087,395.183,2819.087,395.183Z" transform="translate(-2751.508 -368.535)" fill="#fc7575"/>
        <path id="Path_26752" data-name="Path 26752" d="M2678.414,327.265c0,3.256-10.742-.883-11.128,2.263s2.318,12.582,2.814,12.582,2.152.993,2.152,1.711.29,1.89-.055,2.235-.58.166-.911.166-.579.193-1.1.193-.5.276-1.077.276-1.131-.11-1.3-1.462a8.864,8.864,0,0,0-.562-3.035c-.459-.966-4.046-12.8-3.3-16.307S2678.414,324.009,2678.414,327.265Z" transform="translate(-2625.625 -310.569)" fill="#fc7575"/>
        <path id="Path_26753" data-name="Path 26753" d="M2767.671,264.468a3.194,3.194,0,0,1,1.628,2.373c0,1.462-.993,1.794-.993,2.649,0,.672.921,1.294,1.315,1.529a.211.211,0,0,1,.072.291,1.627,1.627,0,0,1-.587.636,4.346,4.346,0,0,1,.111.786c0,.317-.483.29-.483.29s.248.5,0,.593-.29.069-.359.138a1.741,1.741,0,0,0-.554.834c-.276.662-1.427,1.2-2.345-.048-1.462-1.987-2.28-3.25-2.472-4.354s-1.072-1.054-.865-1.454,1.242-4.263,3.145-4.263Z" transform="translate(-2705.703 -262.12)" fill="#fc7575"/>
        <path id="Path_26754" data-name="Path 26754" d="M2762.476,262.866a7.333,7.333,0,0,0-3.459,1.47c-1.782,1.336-1.247,5.046-.011,5.24s3.394-1.946,3.394-3.1S2764.264,264.113,2762.476,262.866Z" transform="translate(-2702.25 -260.814)" fill="#2846a6"/>
        <path id="Path_26755" data-name="Path 26755" d="M2769.559,281.87s-.3-1.559-1.048-1.325-.938,1.421-.938,2.111a.945.945,0,0,0,1.531.648A2.053,2.053,0,0,0,2769.559,281.87Z" transform="translate(-2710.156 -275.202)" fill="#fc7575"/>
        <path id="Path_26756" data-name="Path 26756" d="M2768.84,281.741s.688.744.44,1.355-.609.572-.934.248S2768.056,281.4,2768.84,281.741Z" transform="translate(-2710.63 -276.158)" fill="#fd5e5a"/>
        <path id="Path_26757" data-name="Path 26757" d="M2792.509,290.995a.724.724,0,0,0,.3-.765Z" transform="translate(-2730.479 -283.114)" fill="#2846a6"/>
        <path id="Path_26758" data-name="Path 26758" d="M2789.453,288.333c-.653.1-1.838.176-2.31-.286C2787.431,288.676,2788.745,288.752,2789.453,288.333Z" transform="translate(-2726.105 -281.334)" fill="#0f1d5b"/>
        <path id="Path_26759" data-name="Path 26759" d="M2787.3,283.971s1.144-.433,1.35-.3.132.357.017.383a4.348,4.348,0,0,0-.8-.009A.874.874,0,0,1,2787.3,283.971Z" transform="translate(-2726.237 -277.747)" fill="#2846a6"/>
        <g id="Group_36761" data-name="Group 36761" transform="translate(62.181 10.673)">
          <path id="Path_26760" data-name="Path 26760" d="M2794.171,309.678a2.427,2.427,0,0,1-.85-.229A8.553,8.553,0,0,0,2794.171,309.678Z" transform="translate(-2793.321 -309.449)" fill="#2846a6"/>
        </g>
        <path id="Path_26761" data-name="Path 26761" d="M2693.409,320.88l.356,5.88s6.316,1.158,8.036,0a2.732,2.732,0,0,0,.575-3.876C2700.763,321.271,2693.409,320.88,2693.409,320.88Z" transform="translate(-2649.718 -308.092)" fill="#e3e4ff"/>
        <path id="Path_26762" data-name="Path 26762" d="M2752.055,254.955c-.318,1.18.11,3.946,1.042,4.878s2.5,2.2,3.033,2.2-.083-3.3.5-4.154c.691-1.01,2.933-.6,4.377-.209.438.12,1.737-1.167.835-3.172S2753.572,249.317,2752.055,254.955Z" transform="translate(-2697.426 -251.778)" fill="#603e6b"/>
        <path id="Path_26763" data-name="Path 26763" d="M2767.737,260.766c-2.767-1.961-5.306-1.552-6.263-.332-.918,1.138-.245,2.329-.819,2.345-.272.008-.3-.328-.275-.275.089-3.163,2.844-3.944,5.333-2.933A8.4,8.4,0,0,1,2767.737,260.766Z" transform="translate(-2704.289 -257.79)" fill="#e3e4ff"/>
        <path id="Path_26764" data-name="Path 26764" d="M2768.666,297.568l-.512.3s1.181,4.01,1.882,4.712l.784-.429Z" transform="translate(-2710.63 -289.094)" fill="#e3e4ff"/>
        <path id="Path_26765" data-name="Path 26765" d="M2764.135,288.7a1.185,1.185,0,1,1-1.181-1.281A1.234,1.234,0,0,1,2764.135,288.7Z" transform="translate(-2705.43 -280.826)" fill="#795182"/>
        <path id="Path_26766" data-name="Path 26766" d="M2731.81,548.423l-2.773.022.653,2.1,2.254-1.768Z" transform="translate(-2678.752 -493.526)"/>
        <path id="Path_26767" data-name="Path 26767" d="M2743.887,533.424a9.146,9.146,0,0,0,.922-3.977c-.1-1.955-3.105-3.363-3.105-3.363s.5,3.214-.545,3.3-.528,2.293.265,1.848C2742.779,530.47,2743.887,533.424,2743.887,533.424Z" transform="translate(-2688.154 -475.321)" fill="#552e5d"/>
        <path id="Path_26768" data-name="Path 26768" d="M2618.4,526.583l1.676,2.758h.4l-.8-3.309Z" transform="translate(-2588.587 -475.279)"/>
        <path id="Path_26769" data-name="Path 26769" d="M2612.96,543.132s2.756,1.661,4.413,1.209,2.46-3.745,2.46-3.745-3.03.314-3.479-.581-1.575-.158-1.388.359C2615.461,541.745,2612.96,543.132,2612.96,543.132Z" transform="translate(-2584.156 -486.332)" fill="#552e5d"/>
        <path id="Path_26770" data-name="Path 26770" d="M2678.123,342.193l.848,1.606.867-.67-1.492-1.426Z" transform="translate(-2637.261 -325.062)"/>
        <path id="Path_26771" data-name="Path 26771" d="M2662.291,322.99s-2.406-.045-3.441,1.324.267,4.377.267,4.377,1.971-1.771,2.873-1.337a.591.591,0,0,0,.673-.972C2662.162,326.157,2662.291,322.99,2662.291,322.99Z" transform="translate(-2621.228 -309.812)" fill="#552e5d"/>
        <path id="Path_26772" data-name="Path 26772" d="M2754.549,283.956a.637.637,0,0,0-.611.289c-.1.22.155.482.4.517.448.057,1.236-.793,1.769-.479.159.1.536.574.665.635a1.4,1.4,0,0,0,1.5-.328l.028.011a1.075,1.075,0,0,1-.5.63c-1.131.708-1.728-.264-1.987-.524a1.5,1.5,0,0,0-.63.157,1.629,1.629,0,0,1-.9.21.8.8,0,0,1-.671-.908,1.16,1.16,0,0,1,.7-.691Z" transform="translate(-2698.761 -277.609)" fill="#2846a6"/>
        <path id="Path_26773" data-name="Path 26773" d="M2756.344,406.817l-1.671,2,.557.312,1.68-1.293Z" transform="translate(-2699.644 -378.126)"/>
        <path id="Path_26774" data-name="Path 26774" d="M2739,414.215s-.817,2.69.571,3.7,4.372-.342,4.372-.342-1.587-1.723-1.168-2.632-.984-1.379-1.2-.874S2739,414.215,2739,414.215Z" transform="translate(-2686.675 -383.866)" fill="#552e5d"/>
      </g>
    </g>
  </g>
</svg>
