<svg id="Group_36682" data-name="Group 36682" xmlns="http://www.w3.org/2000/svg" width="99.34" height="87.911" viewBox="0 0 99.34 87.911">
  <g id="Group_36647" data-name="Group 36647" transform="translate(81.534 47.051)">
    <g id="Group_36646" data-name="Group 36646" transform="translate(0)">
      <path id="Path_25823" data-name="Path 25823" d="M392.274,262.486l-.03-.432s.193-.013.516-.012.787.012,1.339.053a20.29,20.29,0,0,1,3.989.712,18.742,18.742,0,0,1,3.758,1.518A12.726,12.726,0,0,1,403,265l.424.279-.243.359-.414-.273a12.3,12.3,0,0,0-1.128-.659,18.311,18.311,0,0,0-3.672-1.483,19.861,19.861,0,0,0-3.9-.7c-.54-.041-.991-.056-1.3-.052S392.274,262.486,392.274,262.486Z" transform="translate(-392.244 -262.04)" fill="#108f6e"/>
    </g>
    <path id="Path_25824" data-name="Path 25824" d="M442.284,278.1a1.631,1.631,0,0,1-.6-.979,1.361,1.361,0,0,1,.182-1.056,1.188,1.188,0,0,1,.965-.505,1.964,1.964,0,0,1,1.22.448,1.889,1.889,0,0,1,.64,1.134,1.16,1.16,0,0,1-.324,1.023,1.394,1.394,0,0,1-1.023.368A1.7,1.7,0,0,1,442.284,278.1Z" transform="translate(-430.662 -272.551)" fill="#fce300"/>
    <path id="Path_25825" data-name="Path 25825" d="M440.993,275.618a3.085,3.085,0,0,0,.42.163,2.156,2.156,0,0,0,.824.143,1.647,1.647,0,0,0-.248-.827,3.128,3.128,0,0,0-.275-.382,2.663,2.663,0,0,0,.975-.479,2.013,2.013,0,0,0,.339-.325,3.455,3.455,0,0,0-1.317-.4,2.2,2.2,0,0,0-.963.154,2.044,2.044,0,0,0-.77.509,2.547,2.547,0,0,0-.182.9,3.171,3.171,0,0,0,.112.9,2.805,2.805,0,0,0,.51,1.033,2.291,2.291,0,0,0,.268-.38A2.258,2.258,0,0,0,440.993,275.618Z" transform="translate(-429.217 -270.954)" fill="#108f6e"/>
  </g>
  <ellipse id="Ellipse_250" data-name="Ellipse 250" cx="44.517" cy="3.735" rx="44.517" ry="3.735" transform="translate(6.026 80.442)" fill="#ededed"/>
  <g id="Group_36649" data-name="Group 36649" transform="translate(4.12 43.433)">
    <g id="Group_36648" data-name="Group 36648" transform="translate(3.659 1.505)">
      <path id="Path_25826" data-name="Path 25826" d="M73.166,254.137l-.158.438s-.178-.064-.5-.165-.791-.238-1.357-.382a33.614,33.614,0,0,0-4.209-.794,31.074,31.074,0,0,0-4.273-.223c-.582.03-1.07.033-1.408.07l-.532.053-.046-.463.542-.054c.345-.038.84-.042,1.433-.071a31.5,31.5,0,0,1,4.34.226,34.117,34.117,0,0,1,4.268.805c.575.146,1.049.285,1.381.389S73.166,254.137,73.166,254.137Z" transform="translate(-60.68 -252.542)" fill="#108f6e"/>
    </g>
    <path id="Path_25827" data-name="Path 25827" d="M45.718,248.761a2.063,2.063,0,0,1,1.364.214,1.331,1.331,0,0,1,.646.982,1.392,1.392,0,0,1-.378,1.083,1.8,1.8,0,0,1-1.089.616,2.459,2.459,0,0,1-.647.018,1.739,1.739,0,0,1-.584-.186,1.479,1.479,0,0,1-.754-.891,1.261,1.261,0,0,1,.248-1.129,1.885,1.885,0,0,1,.5-.444A1.816,1.816,0,0,1,45.718,248.761Z" transform="translate(-44.231 -248.071)" fill="#fce300"/>
    <path id="Path_25828" data-name="Path 25828" d="M49.98,247.216a3.375,3.375,0,0,0-.456.217,1.72,1.72,0,0,0-.672.633,2.4,2.4,0,0,0,.848.312,3.28,3.28,0,0,0,.481.063,2.483,2.483,0,0,0-.246,1.107,2.439,2.439,0,0,0,.048.5,3.141,3.141,0,0,0,1.042-.714,2.859,2.859,0,0,0,.579-.786,2.681,2.681,0,0,0,.286-.945,2.227,2.227,0,0,0-.467-.87,2.66,2.66,0,0,0-.819-.647,3.619,3.619,0,0,0-1.422-.311,2.186,2.186,0,0,0,.144.483A2.806,2.806,0,0,0,49.98,247.216Z" transform="translate(-47.824 -245.774)" fill="#108f6e"/>
  </g>
  <path id="Path_25829" data-name="Path 25829" d="M237.138,88.346a8.371,8.371,0,0,1-4.237-5.706c-.631-3.921,5.628-5.409,8.223,1.082,0,0-.47-7.031,3.812-7.8s3.591,7.789,2.291,9.146a3.4,3.4,0,0,1,3.562-.221c1.764,1.082,1.195,5.319-4.493,6.446A9.959,9.959,0,0,1,237.138,88.346Z" transform="translate(-186.777 -70.236)" fill="#ffd200"/>
  <path id="Path_25830" data-name="Path 25830" d="M259.862,120.493a27.86,27.86,0,0,0-2.833-4.6l.1-.076a28.012,28.012,0,0,1,2.848,4.621Z" transform="translate(-205.573 -101.295)" fill="#fff"/>
  <rect id="Rectangle_3568" data-name="Rectangle 3568" width="8.775" height="0.125" transform="matrix(0.17, -0.985, 0.985, 0.17, 57.264, 18.817)" fill="#fff"/>
  <path id="Path_25831" data-name="Path 25831" d="M89.584,155.362s-1.486-3.258-4.549-3.257-3.508,3.236-1.716,5.638a12.713,12.713,0,0,0-7.169-1.878c-4.228.163-7.353,3.288-6.434,6.781s5.637,4.289,6.985,3.921c0,0-4.657,3.309-2.819,6.311s7.6,0,7.6,0Z" transform="translate(-59.802 -129.509)" fill="#bce13e"/>
  <path id="Path_25832" data-name="Path 25832" d="M104.078,195.5c-.053-.022-5.266-2.172-7.932-2.436l.025-.249c2.7.268,7.95,2.432,8,2.454Z" transform="translate(-80.478 -161.166)" fill="#fff"/>
  <path id="Path_25833" data-name="Path 25833" d="M96.017,198.639l-.148-.2a16.721,16.721,0,0,1,3.2-1.568l.087.234A16.851,16.851,0,0,0,96.017,198.639Z" transform="translate(-80.262 -164.316)" fill="#fff"/>
  <path id="Path_25834" data-name="Path 25834" d="M118.285,190.83a16.784,16.784,0,0,1-.779-2.757l.249-.02a17.053,17.053,0,0,0,.765,2.691Z" transform="translate(-97.086 -157.46)" fill="#fff"/>
  <path id="Path_25835" data-name="Path 25835" d="M100.562,232.013l-.126-.216a14.457,14.457,0,0,1,4.676-1.824l.035.248A14.205,14.205,0,0,0,100.562,232.013Z" transform="translate(-83.813 -190.055)" fill="#fff"/>
  <path id="Path_25836" data-name="Path 25836" d="M142.291,168.1a13.353,13.353,0,0,1-2.549-3.922l.239-.073a13.4,13.4,0,0,0,2.493,3.826Z" transform="translate(-114.376 -138.838)" fill="#fff"/>
  <g id="Group_36650" data-name="Group 36650" transform="translate(0 47.28)">
    <path id="Path_25837" data-name="Path 25837" d="M40.6,264.776l-.205-1.524a19.61,19.61,0,0,0-9.644,1.1l-.091,1.08-.519-.814q-.516.238-.99.512l.327,2-1.193-1.439a6.674,6.674,0,0,0-2.1,2.321,4.179,4.179,0,0,0-.379,2.8A4.565,4.565,0,0,0,26.916,273a5.417,5.417,0,0,0,.931.807,6.863,6.863,0,0,0,1.148.633,13.237,13.237,0,0,0,6.145.821l.552-1.751.768,1.612c.527-.076,1.061-.171,1.593-.289l-.148-1.049.872.876q.309-.079.617-.167a16.1,16.1,0,0,0,7.421-4.309,9.547,9.547,0,0,0,1.886-2.726s-2.119-2.992-7.328-4.037Z" transform="translate(-25.709 -263.071)" fill="#ffd200"/>
  </g>
  <rect id="Rectangle_3569" data-name="Rectangle 3569" width="17.453" height="0.25" transform="translate(4.142 54.794) rotate(-10.695)" fill="#fff"/>
  <path id="Path_25838" data-name="Path 25838" d="M57.263,288.157a15.961,15.961,0,0,1-3.747-1.173l.1-.229a16.117,16.117,0,0,0,3.661,1.152Z" transform="translate(-47.33 -234.206)" fill="#fff"/>
  <path id="Path_25839" data-name="Path 25839" d="M73.934,292.747l-.242-.061a7.609,7.609,0,0,1,1.671-2.5l.179.174A7.545,7.545,0,0,0,73.934,292.747Z" transform="translate(-63.018 -236.875)" fill="#fff"/>
  <path id="Path_25840" data-name="Path 25840" d="M90.352,280.184a7.506,7.506,0,0,1-2.93-1.869l.179-.175a7.408,7.408,0,0,0,2.807,1.8Z" transform="translate(-73.694 -227.508)" fill="#fff"/>
  <g id="Group_36651" data-name="Group 36651" transform="translate(77.197 55.222)">
    <path id="Path_25841" data-name="Path 25841" d="M379.251,307.307l-.328,1.463a19.117,19.117,0,0,0,9.2,2.257l.45-.957.2.92q.553-.042,1.079-.133l.377-1.937.6,1.721a6.513,6.513,0,0,0,2.712-1.411,4.075,4.075,0,0,0,1.3-2.434,4.449,4.449,0,0,0-.281-2.377,5.266,5.266,0,0,0-.578-1.054,6.693,6.693,0,0,0-.836-.968,12.914,12.914,0,0,0-5.344-2.834l-1.1,1.416-.157-1.735c-.507-.109-1.029-.2-1.556-.275l-.22,1.01-.5-1.1q-.309-.032-.621-.056a15.706,15.706,0,0,0-8.25,1.428,9.314,9.314,0,0,0-2.649,1.855s.925,3.455,5.337,6.176Z" transform="translate(-372.747 -298.773)" fill="#ffd200"/>
  </g>
  <rect id="Rectangle_3570" data-name="Rectangle 3570" width="0.25" height="17.028" transform="translate(78.715 59.234) rotate(-80.349)" fill="#fff"/>
  <path id="Path_25842" data-name="Path 25842" d="M432.456,326.777a15.723,15.723,0,0,0-2.958-2.294l.1-.229a15.56,15.56,0,0,1,3.032,2.343Z" transform="translate(-339.677 -263.364)" fill="#fff"/>
  <path id="Path_25843" data-name="Path 25843" d="M418.68,316.717l-.107-.226a7.356,7.356,0,0,0,2.278-1.637l.206.141A7.422,7.422,0,0,1,418.68,316.717Z" transform="translate(-331.182 -256.055)" fill="#fff"/>
  <path id="Path_25844" data-name="Path 25844" d="M401.689,322.057a7.228,7.228,0,0,0-1.958-2.6l.137-.209a7.325,7.325,0,0,1,2.048,2.7Z" transform="translate(-316.532 -259.474)" fill="#fff"/>
  <g id="Group_36652" data-name="Group 36652" transform="translate(68.322 75.051)">
    <rect id="Rectangle_3571" data-name="Rectangle 3571" width="9.176" height="0.527" transform="translate(0 8.563) rotate(-68.946)" fill="#bce13e"/>
  </g>
  <g id="Group_36653" data-name="Group 36653" transform="translate(71.618 75.051)">
    <rect id="Rectangle_3572" data-name="Rectangle 3572" width="0.527" height="9.176" transform="translate(0 0.189) rotate(-21.054)" fill="#bce13e"/>
  </g>
  <g id="Group_36654" data-name="Group 36654" transform="translate(70.49 78.453)">
    <rect id="Rectangle_3573" data-name="Rectangle 3573" width="2.849" height="0.526" fill="#bce13e"/>
  </g>
  <g id="Group_36655" data-name="Group 36655" transform="translate(69.835 80.335)">
    <rect id="Rectangle_3574" data-name="Rectangle 3574" width="4.128" height="0.526" transform="translate(0)" fill="#bce13e"/>
  </g>
  <path id="Path_25845" data-name="Path 25845" d="M84.021,424.8a2,2,0,0,0,.3.611,5.14,5.14,0,0,1,.586.827c.04.161-.153.305-.337.241a13.684,13.684,0,0,1-1.83-.907c-.313-.241-.4-.329-.394-.385a9.745,9.745,0,0,1,.5-.893C82.953,424.122,83.788,424.128,84.021,424.8Z" transform="translate(-69.745 -341.076)" fill="#91b31e"/>
  <path id="Path_25846" data-name="Path 25846" d="M100.945,418.1a2,2,0,0,0,.553.4,5.14,5.14,0,0,1,.91.446c.112.122.012.341-.181.373a13.7,13.7,0,0,1-2.041.078c-.39-.062-.51-.1-.53-.15a9.693,9.693,0,0,1,.012-1.024A.863.863,0,0,1,100.945,418.1Z" transform="translate(-83.2 -336.156)" fill="#91b31e"/>
  <path id="Path_25847" data-name="Path 25847" d="M101.006,365.8s.644,4.308.67,5.436-.67,6.347-.67,6.347H99.647s.133-2.543.133-2.941-.133-3.87-.133-3.87l.133-4.833S100.574,365.454,101.006,365.8Z" transform="translate(-83.2 -295.573)" fill="#0e1a34"/>
  <path id="Path_25848" data-name="Path 25848" d="M85.415,366.072a8.892,8.892,0,0,0-.293,3.383,26.55,26.55,0,0,0,.242,2.808s-1.524,5.927-1.723,6.634a3.243,3.243,0,0,0,1.482.553s1.614-3.98,2.189-5.4a8.918,8.918,0,0,0,.746-3.649c.006-1.238.138-4.577.138-4.577Z" transform="translate(-70.754 -295.69)" fill="#0e1a34"/>
  <path id="Path_25849" data-name="Path 25849" d="M100.57,384.453l-.119-.036a16.6,16.6,0,0,0,.647-4.817h.125A16.723,16.723,0,0,1,100.57,384.453Z" transform="translate(-83.825 -306.398)" fill="#fff"/>
  <path id="Path_25850" data-name="Path 25850" d="M94.253,350.9a18.254,18.254,0,0,1-3.817-1.046c-1.015-.562-.89-1.062-.749-1.421s.578-1.124.578-1.124l.993.71-.025.221-.17.387s.324.206.813.477,2.48,1.185,2.48,1.185S94.839,350.689,94.253,350.9Z" transform="translate(-75.382 -281.291)" fill="#ff9a5c"/>
  <path id="Path_25851" data-name="Path 25851" d="M109.5,361.353a1.8,1.8,0,0,0,.527.379c.022.189.131.269.192.262s.062-.291.062-.291c.055.131.269.262.3.182a.475.475,0,0,0,0-.211s.087.116.153.116.145-.058.116-.2a1.4,1.4,0,0,0-.2-.481c-.087-.116-.138-.233-.328-.277a3.135,3.135,0,0,0-.473-.036,4.162,4.162,0,0,0-.546,0Z" transform="translate(-90.708 -291.767)" fill="#ff9a5c"/>
  <path id="Path_25852" data-name="Path 25852" d="M82.4,321.422a1.128,1.128,0,0,0-1.426-.5c-1.053.307-.724,1.294-1.4,1.711s-1.689.636-1.952,1.8.548,1.25,0,1.952-.746,1.206-.154,1.93a1.83,1.83,0,0,0,2.287.154c.652-.351,3.5-1.689,3.5-1.689a1.06,1.06,0,0,0,0-1.448,2.557,2.557,0,0,1-.482-1.886s.241-.044.329-.7S82.984,321.223,82.4,321.422Z" transform="translate(-65.674 -260.715)" fill="#753519"/>
  <path id="Path_25853" data-name="Path 25853" d="M329.995,74.751l.367-.266a11.247,11.247,0,0,0,3.322,2.579c2.062,1.039,2.769,1.436,2.957,1.47a2.646,2.646,0,0,1,1.381.579c.307.392.341.614.272.631s-.409-.477-.409-.477.341.44.307.6-.226-.116-.294-.185-.239-.267-.239-.267a2.7,2.7,0,0,1,.376.615c.014.144-.226-.041-.41-.246s-.39-.3-.438-.239-.068.315-.144.267-.089-.239-.123-.376c-.121,0-.677-.2-1.678-.4s-5-1.957-5.914-3.091S329.995,74.751,329.995,74.751Z" transform="translate(-261.57 -69.155)" fill="#ff9a5c"/>
  <g id="Group_36656" data-name="Group 36656" transform="translate(83.633 38.239)">
    <path id="Path_25854" data-name="Path 25854" d="M411.823,230.847h0a2.629,2.629,0,0,0,.633-1.348,2.41,2.41,0,0,0-.32-1.411l.293.312c.173.189.415.431.638.69l.85,1.072a3.075,3.075,0,0,0-.683,1.365,2.534,2.534,0,0,0,.111,1.45h0a2.517,2.517,0,0,0,.774-1.244,2.336,2.336,0,0,0,.063-.717,2,2,0,0,0-.176-.74l.148.187c.084.115.186.277.292.435l.421.636a2.877,2.877,0,0,0,.114.77,2.621,2.621,0,0,0,.261.69,2.727,2.727,0,0,0,1.106,1.048h0a2.656,2.656,0,0,0-.288-1.51,2.37,2.37,0,0,0-.453-.606,2.892,2.892,0,0,0-.68-.43l-.263-.4-.27-.408-.152-.23-.176-.224-.948-1.2a2.849,2.849,0,0,0,2.882.335h0a2.743,2.743,0,0,0-1.468-.74,2.355,2.355,0,0,0-1.508.294l-.94-1a8.683,8.683,0,0,0-.682-.652l-.318-.288a3,3,0,0,0,.723.269,3.822,3.822,0,0,0,.733.085,2.832,2.832,0,0,0,1.448-.406h0a3.245,3.245,0,0,0-.759-.42,2.206,2.206,0,0,0-.788-.133,2.431,2.431,0,0,0-1.466.508l-.318-.287-.746-.577c-.272-.21-.541-.423-.761-.557l-.358-.236a3.036,3.036,0,0,0,.758.158,2.785,2.785,0,0,0,.73-.007,2.908,2.908,0,0,0,1.386-.614h0a2.7,2.7,0,0,0-1.614-.333,2.45,2.45,0,0,0-1.383.717l-.358-.236c-.216-.14-.521-.3-.819-.469l-.44-.246-.4-.19-.387-.185a3.229,3.229,0,0,0,1.495-.067,2.911,2.911,0,0,0,1.284-.807h0a3.314,3.314,0,0,0-.858-.179,2.534,2.534,0,0,0-.4,0,2.494,2.494,0,0,0-.389.082,2.412,2.412,0,0,0-1.259.9l-.181-.086-.49-.2c-.4-.174-.952-.365-1.507-.545s-1.124-.313-1.554-.394-.721-.117-.721-.117l-.007.071s.2.022.506.076.7.144,1.1.245.791.221,1.08.329l.486.166a3.094,3.094,0,0,0,.151,1.524,2.791,2.791,0,0,0,.841,1.159h0a2.528,2.528,0,0,0,.015-1.47,2.265,2.265,0,0,0-.872-1.162l.4.161c.237.1.558.217.863.373s.619.291.846.41l.373.209a2.965,2.965,0,0,0-.071,1.519,2.593,2.593,0,0,0,.664,1.275h0a2.5,2.5,0,0,0,.226-1.446,2.321,2.321,0,0,0-.224-.685,2.539,2.539,0,0,0-.468-.592l.373.209c.229.117.507.317.795.5a12.273,12.273,0,0,1,1.116.79,2.95,2.95,0,0,0-.289,1.492,2.718,2.718,0,0,0,.474,1.363h0a2.532,2.532,0,0,0,.433-1.4,2.2,2.2,0,0,0-.123-.711,2.649,2.649,0,0,0-.379-.652l.339.261a8.526,8.526,0,0,1,.714.61l.7.63a2.928,2.928,0,0,1,.218.22l.08.086a3.009,3.009,0,0,0-.5,1.448,2.406,2.406,0,0,0,.058.707A3.112,3.112,0,0,0,411.823,230.847Z" transform="translate(-401.679 -222.425)" fill="#bce13e"/>
  </g>
  <g id="Group_36657" data-name="Group 36657" transform="translate(10.424 11.201)">
    <path id="Path_25855" data-name="Path 25855" d="M77.795,105.1h0a3.114,3.114,0,0,0-.887,1.524,2.831,2.831,0,0,0,.159,1.736l-.3-.412c-.184-.244-.415-.58-.64-.92l-.626-.93c-.087-.126-.153-.234-.2-.311l-.073-.119a3.408,3.408,0,0,0,.937-1.57,2.911,2.911,0,0,0,.09-.862,3.333,3.333,0,0,0-.13-.9h0A3.126,3.126,0,0,0,75.1,103.78a2.932,2.932,0,0,0,.034,1.737l-.474-.775c-.117-.195-.24-.386-.322-.535l-.135-.249a3.286,3.286,0,0,0-.358-1.762,3.221,3.221,0,0,0-1.235-1.321h0a3.188,3.188,0,0,0,.234,1.822,3.062,3.062,0,0,0,1.285,1.3l.075.137c.046.088.114.212.206.356l.652,1.066c.23.392.488.765.679,1.048l.317.471a3.417,3.417,0,0,0-1.581-.8,3.311,3.311,0,0,0-1.78.131h0a3.725,3.725,0,0,0,.766.648,2.854,2.854,0,0,0,.861.345,3.027,3.027,0,0,0,1.831-.179l.286.423.661.908c.472.666.983,1.3.983,1.3a3.481,3.481,0,0,0-.79-.462,3.032,3.032,0,0,0-.833-.236,3.32,3.32,0,0,0-1.769.267h0a3.22,3.22,0,0,0,1.679.867,3.088,3.088,0,0,0,1.819-.3l.313.4c.185.244.446.558.706.873l.714.866.334.385a3.2,3.2,0,0,0-3.406-.242h0a3.279,3.279,0,0,0,1.721.763,3.077,3.077,0,0,0,1.8-.39l.334.385c.2.233.468.539.745.84l.754.831.35.371a3.185,3.185,0,0,0-3.408-.085h0a3.009,3.009,0,0,0,3.527.211l.6.63c.364.371.843.873,1.339,1.358s.991.97,1.37,1.326.637.589.637.589l.057-.064s-.726-.657-1.425-1.343c-.353-.339-.7-.689-.958-.946l-.429-.437a3.271,3.271,0,0,0,.568-1.736,3.17,3.17,0,0,0-.476-1.738h0a2.952,2.952,0,0,0-.212,3.35s-.571-.582-1.127-1.179c-.282-.295-.557-.6-.761-.823l-.342-.378a3.148,3.148,0,0,0,.243-3.463h0a2.945,2.945,0,0,0-.359,3.335l-.34-.379-.735-.847c-.27-.305-.53-.62-.723-.856l-.324-.393a3.3,3.3,0,0,0,.72-1.676,3.116,3.116,0,0,0-.307-1.764h0a3.114,3.114,0,0,0-.782,1.579,2.912,2.912,0,0,0,.258,1.728l-.324-.393-.69-.884c-.509-.637-.981-1.3-.981-1.3a3.31,3.31,0,0,0,.814-1.631A3.257,3.257,0,0,0,77.795,105.1Z" transform="translate(-72.572 -100.875)" fill="#91b31e"/>
  </g>
  <path id="Path_25856" data-name="Path 25856" d="M280.271,82.718a1.3,1.3,0,0,1-.316-.255.876.876,0,0,0-.2-.26.692.692,0,0,0-.31-.133,1.427,1.427,0,0,0,.253.511.126.126,0,0,0,.174-.018,1.69,1.69,0,0,0,.238.4S280.477,82.839,280.271,82.718Z" transform="translate(-223.006 -75.052)" fill="#ff9a5c"/>
  <circle id="Ellipse_251" data-name="Ellipse 251" cx="31.797" cy="31.797" r="31.797" transform="translate(18.849 18.053)" fill="#1a6652"/>
  <path id="Path_25857" data-name="Path 25857" d="M148.636,189a28.426,28.426,0,0,1-14.069-53.125A31.8,31.8,0,1,0,172.8,175.551,28.4,28.4,0,0,1,148.636,189Z" transform="translate(-91.594 -116.891)" fill="#19614f"/>
  <path id="Path_25858" data-name="Path 25858" d="M284.534,84.55s-.759.683-1.013.683-2.783-.757-3.26-.858-.452.05-.64.176.4.506.4.506a22.308,22.308,0,0,0,3.426,1.428,2.449,2.449,0,0,0,2.1-.67A.978.978,0,0,0,284.534,84.55Z" transform="translate(-223.11 -76.819)" fill="#ff9a5c"/>
  <path id="Path_25859" data-name="Path 25859" d="M260.875,87.979a10.387,10.387,0,0,0,3-.118s.76,1.275,1.047,1.746l-.125.608a4.111,4.111,0,0,1-2.865,1.393A5.758,5.758,0,0,1,260.875,87.979Z" transform="translate(-208.535 -79.555)" fill="#108f6e"/>
  <g id="Group_36658" data-name="Group 36658" transform="translate(52.892 6.211)">
    <path id="Path_25860" data-name="Path 25860" d="M265.718,82.811a1.467,1.467,0,0,1-.652-.154l.126-.231a1.167,1.167,0,0,0,.928.04,1.917,1.917,0,0,0,.922-1.372,1.875,1.875,0,0,0-.325-1.924,1.99,1.99,0,0,0-1.9-.368c-1.186.358-1.066,2.024-1.064,2.041l-.262.022c0-.019-.14-1.9,1.251-2.314a2.244,2.244,0,0,1,2.163.431,2.076,2.076,0,0,1,.4,2.182,2.15,2.15,0,0,1-1.076,1.546A1.276,1.276,0,0,1,265.718,82.811Z" transform="translate(-263.483 -78.445)" fill="#108f6e"/>
  </g>
  <path id="Path_25861" data-name="Path 25861" d="M278.56,83.515s-.228-.088-.319.068.286.288.609.256S278.883,83.572,278.56,83.515Z" transform="translate(-222.055 -76.157)" fill="#ff9a5c"/>
  <path id="Path_25862" data-name="Path 25862" d="M278.275,84.558a.436.436,0,0,0-.379.061c-.154.132.341.319.718.285S278.653,84.619,278.275,84.558Z" transform="translate(-221.776 -76.973)" fill="#ff9a5c"/>
  <path id="Path_25863" data-name="Path 25863" d="M308.554,166.587a2.245,2.245,0,0,1-.332.684,5.736,5.736,0,0,0-.656.925c-.045.18.171.341.377.27a15.327,15.327,0,0,0,2.048-1.015c.35-.269.449-.368.44-.431a10.876,10.876,0,0,0-.559-1A.966.966,0,0,0,308.554,166.587Z" transform="translate(-244.864 -140.249)" fill="#91b31e"/>
  <path id="Path_25864" data-name="Path 25864" d="M278.242,85.535a.34.34,0,0,0-.335.073c-.137.141.3.333.637.3S278.721,85.559,278.242,85.535Z" transform="translate(-221.787 -77.734)" fill="#ff9a5c"/>
  <path id="Path_25865" data-name="Path 25865" d="M240.347,92.814s-4.891-1.1-5.072-1.106-.789-.114-1.083.292a.585.585,0,0,0,.316.383c.271.135.632-.133.632-.133l5.91,2.083A1.2,1.2,0,0,0,240.347,92.814Z" transform="translate(-187.817 -82.535)" fill="#108f6e"/>
  <path id="Path_25866" data-name="Path 25866" d="M234.425,93.3h0a.441.441,0,0,1-.2-.045.646.646,0,0,1-.349-.428l-.011-.061.061-.011a1.078,1.078,0,0,1,.185-.014,1.278,1.278,0,0,1,.813.277l.062.05-.064.048A.968.968,0,0,1,234.425,93.3Zm-.4-.431a.538.538,0,0,0,.262.274.317.317,0,0,0,.143.032.753.753,0,0,0,.352-.113,1.173,1.173,0,0,0-.665-.2C234.077,92.862,234.046,92.864,234.021,92.865Z" transform="translate(-187.563 -83.347)" fill="#108f6e"/>
  <path id="Path_25867" data-name="Path 25867" d="M346.486,382.35h-8.813l1.487-1.713h8.813Z" transform="translate(-268.278 -307.205)" fill="#ffd200"/>
  <path id="Path_25868" data-name="Path 25868" d="M223.53,93.026s-3.47,3.466-3.008,7.609h4.2s-1.037-5.123-.245-7.359A1.186,1.186,0,0,0,223.53,93.026Z" transform="translate(-177.154 -83.561)" fill="#9ae5e5" opacity="0.79"/>
  <path id="Path_25869" data-name="Path 25869" d="M297.107,105.409s-3.394,2.684-3.782,3.611,1.532,2.912,1.532,2.912a78.367,78.367,0,0,0,2.438,7.529,7.907,7.907,0,0,0,1.532-.582s-.6-5.825-.885-6.6a58.97,58.97,0,0,0,5.157-5.338C303.854,105.719,297.631,104.985,297.107,105.409Z" transform="translate(-233.755 -93.106)" fill="#0e1a34"/>
  <path id="Path_25870" data-name="Path 25870" d="M320.03,149.646a2.24,2.24,0,0,1,.01.761,5.734,5.734,0,0,0-.171,1.121.269.269,0,0,0,.458.072,15.316,15.316,0,0,0,1.375-1.826c.192-.4.236-.531.2-.583a10.856,10.856,0,0,0-.948-.642C320.76,148.437,319.928,148.862,320.03,149.646Z" transform="translate(-254.429 -126.729)" fill="#91b31e"/>
  <path id="Path_25871" data-name="Path 25871" d="M300.11,121.73c-.044-1.435,2.355-3.746,2.457-3.844l.087.09c-.025.024-2.46,2.37-2.418,3.75Z" transform="translate(-239.07 -102.901)" fill="#fff"/>
  <path id="Path_25872" data-name="Path 25872" d="M301.564,132.972l4.182,3.809a9.282,9.282,0,0,0,.914-1.13,24.908,24.908,0,0,0-2.154-3.573C303.876,131.475,301.564,132.972,301.564,132.972Z" transform="translate(-240.201 -113.826)" fill="#0e1a34"/>
  <path id="Path_25873" data-name="Path 25873" d="M353.117,376.985a2.244,2.244,0,0,1-.591.479,5.759,5.759,0,0,0-.986.56c-.117.144.01.381.228.4a15.338,15.338,0,0,0,2.285-.052c.432-.1.563-.143.581-.2a10.923,10.923,0,0,0-.083-1.142A.966.966,0,0,0,353.117,376.985Z" transform="translate(-279.026 -304.137)" fill="#91b31e"/>
  <g id="Group_36660" data-name="Group 36660" transform="translate(41.137 9.95)">
    <g id="Group_36659" data-name="Group 36659" transform="translate(1.471 1.611)">
      <path id="Path_25874" data-name="Path 25874" d="M220.168,108.758l-.254.007s0-.1-.025-.282-.062-.442-.126-.752a11.323,11.323,0,0,0-.736-2.2,12.453,12.453,0,0,0-1.144-2.024c-.172-.268-.343-.471-.453-.619l-.178-.231.2-.159.181.235c.113.151.287.358.462.631a12.731,12.731,0,0,1,1.166,2.064,11.584,11.584,0,0,1,.753,2.252c.066.318.11.586.13.776S220.168,108.758,220.168,108.758Z" transform="translate(-217.252 -102.496)" fill="#108f6e"/>
    </g>
    <path id="Path_25875" data-name="Path 25875" d="M212.1,95.6a.88.88,0,0,1,.044,1.268.979.979,0,0,1-1.305-1.4A.882.882,0,0,1,212.1,95.6Z" transform="translate(-210.639 -95.253)" fill="#fce300"/>
    <path id="Path_25876" data-name="Path 25876" d="M211.987,96.411a1.641,1.641,0,0,0-.231-.147,1.086,1.086,0,0,0-.49-.122,1.082,1.082,0,0,0,.106.479,2.032,2.032,0,0,0,.111.242,1.4,1.4,0,0,0-.8.376,1.692,1.692,0,0,0,1.174.308,1.417,1.417,0,0,0,.513-.148,1.248,1.248,0,0,0,.261-.476,1.6,1.6,0,0,0-.216-1.3A1.507,1.507,0,0,0,211.987,96.411Z" transform="translate(-210.676 -95.541)" fill="#108f6e"/>
  </g>
  <path id="Path_25877" data-name="Path 25877" d="M378.512,359.264a2.243,2.243,0,0,1-.1.753,5.75,5.75,0,0,0-.337,1.083.269.269,0,0,0,.442.139,15.326,15.326,0,0,0,1.633-1.6c.25-.365.313-.489.285-.546a10.932,10.932,0,0,0-.842-.777C379.414,358.177,378.528,358.473,378.512,359.264Z" transform="translate(-299.689 -289.823)" fill="#91b31e"/>
  <g id="Group_36661" data-name="Group 36661" transform="translate(38.607 13.224)">
    <path id="Path_25878" data-name="Path 25878" d="M199.267,110.049a6.156,6.156,0,0,0,2.417,4.272,5.11,5.11,0,0,0,4.5,1.056,5.11,5.11,0,0,0-2.168-4.081A6.155,6.155,0,0,0,199.267,110.049Z" transform="translate(-199.267 -109.973)" fill="#91b31e"/>
    <rect id="Rectangle_3575" data-name="Rectangle 3575" width="0.125" height="7.504" transform="translate(0.933 0.874) rotate(-52.384)" fill="#fff"/>
    <rect id="Rectangle_3576" data-name="Rectangle 3576" width="1.406" height="0.125" transform="matrix(1, -0.031, 0.031, 1, 1.7, 2.453)" fill="#fff"/>
    <rect id="Rectangle_3577" data-name="Rectangle 3577" width="0.125" height="1.406" transform="translate(2.302 0.783) rotate(-12.947)" fill="#fff"/>
    <rect id="Rectangle_3578" data-name="Rectangle 3578" width="1.406" height="0.125" transform="translate(3.23 3.631) rotate(-1.794)" fill="#fff"/>
    <rect id="Rectangle_3579" data-name="Rectangle 3579" width="0.125" height="1.406" transform="translate(3.831 1.962) rotate(-12.942)" fill="#fff"/>
    <rect id="Rectangle_3580" data-name="Rectangle 3580" width="1.406" height="0.125" transform="translate(4.759 4.81) rotate(-1.784)" fill="#fff"/>
    <rect id="Rectangle_3581" data-name="Rectangle 3581" width="0.125" height="1.406" transform="matrix(0.975, -0.224, 0.224, 0.975, 5.36, 3.14)" fill="#fff"/>
  </g>
  <path id="Path_25879" data-name="Path 25879" d="M232.245,110.07a4.9,4.9,0,0,0-3.4,1.925,4.07,4.07,0,0,0-.841,3.583,4.07,4.07,0,0,0,3.25-1.727A4.9,4.9,0,0,0,232.245,110.07Z" transform="translate(-182.911 -96.824)" fill="#bce13e"/>
  <g id="Group_36664" data-name="Group 36664" transform="translate(20.544 0.493)">
    <g id="Group_36662" data-name="Group 36662">
      <path id="Path_25880" data-name="Path 25880" d="M131.679,69.805l1.309-2.1a23.226,23.226,0,0,0-2.3-5.862,18.678,18.678,0,0,0-3.16-4.118l-1.768,1.242s.232-.5.481-1l.494-.992a23.675,23.675,0,0,0-4.035-2.883c-.639-.352-1.2-.647-1.719-.875a8.151,8.151,0,0,0-1.329-.476,7.46,7.46,0,0,0-.946,2,11.182,11.182,0,0,0-.378,1.508,14.832,14.832,0,0,0-.228,1.788l1.105.446,1.1.429-1.115.043-1.12.032a17.07,17.07,0,0,0,2.371,8.788,17.669,17.669,0,0,0,1,1.522c.347.477.7.928,1.067,1.344l1.56-.1,1.554-.107-1.959,1.429a20.563,20.563,0,0,0,4.372,3.263c.594.331,1.088.562,1.435.715s.548.226.548.226l1.833-1.27,1.833-1.27s.011-.115.012-.344,0-.557-.025-.976a24.259,24.259,0,0,0-.434-3.4Z" transform="translate(-118.066 -52.737)" fill="#91b31e"/>
    </g>
    <g id="Group_36663" data-name="Group 36663" transform="translate(3.104 3.691)">
      <path id="Path_25881" data-name="Path 25881" d="M143.265,87.306c-.691-1.011-2.394-3.516-4.477-6.755s-4.566-7.21-6.77-11.223a81.9,81.9,0,0,0,5.764,11.838c1.944,3.362,3.637,5.89,4.346,6.927l.568-.394Z" transform="translate(-132.018 -69.328)" fill="#fff"/>
    </g>
  </g>
  <g id="Group_36667" data-name="Group 36667" transform="translate(30.854 6.343)">
    <g id="Group_36665" data-name="Group 36665">
      <path id="Path_25882" data-name="Path 25882" d="M170.3,92.373l1.369-.823a14.907,14.907,0,0,0,.393-4.054,12.057,12.057,0,0,0-.623-3.307l-1.38.206.569-.441.57-.433a14.681,14.681,0,0,0-1.512-2.842,8.1,8.1,0,0,0-1.394-1.643,7.23,7.23,0,0,0-2.39,2.626l.513.57.513.559-.657-.293-.657-.3a11.078,11.078,0,0,0-1.177,5.72,12.707,12.707,0,0,0,.35,2.244l1.848.794-1.544.246a13.384,13.384,0,0,0,1.55,3.152c.243.364.459.642.613.832s.248.291.248.291l1.426-.187,1.426-.187a7.783,7.783,0,0,0,.381-.762,15.537,15.537,0,0,0,.753-2.084Z" transform="translate(-164.413 -79.036)" fill="#bce13e"/>
    </g>
    <g id="Group_36666" data-name="Group 36666" transform="translate(3.51 2.569)">
      <path id="Path_25883" data-name="Path 25883" d="M181.638,104.214c-.1-.784-.335-2.723-.584-5.2s-.515-5.481-.647-8.431a57.767,57.767,0,0,0-.111,8.49c.132,2.5.357,4.449.458,5.253l.442-.058Z" transform="translate(-180.192 -90.587)" fill="#fff"/>
    </g>
  </g>
  <path id="Path_25884" data-name="Path 25884" d="M365.108,120.728A34.55,34.55,0,0,0,366.95,109.2c-.263-5.673,1.4-9.932,4.124-9.6s5.089,10.6-5.264,21.74Z" transform="translate(-289.61 -88.671)" fill="#bce13e"/>
  <path id="Path_25885" data-name="Path 25885" d="M368.457,148.166l-.212-.133c.038-.061,3.823-6.159,3.969-12.887l.25.006C372.316,141.95,368.5,148.1,368.457,148.166Z" transform="translate(-292.05 -116.322)" fill="#fff"/>
  <path id="Path_25886" data-name="Path 25886" d="M365.559,172.758a23.655,23.655,0,0,1,7.648-2.313c3.873-.344,6.609-1.868,6.133-3.683s-7.658-2.475-14.262,5.576Z" transform="translate(-289.587 -140.005)" fill="#91b31e"/>
  <path id="Path_25887" data-name="Path 25887" d="M367.562,181.231l-.16-.192a20.027,20.027,0,0,1,8.478-3.927l.039.247A19.759,19.759,0,0,0,367.562,181.231Z" transform="translate(-291.394 -148.953)" fill="#fff"/>
  <g id="Group_36668" data-name="Group 36668" transform="translate(80.275 31.577)">
    <path id="Path_25888" data-name="Path 25888" d="M399.418,192.676a28.164,28.164,0,0,0-4.006-.187,13.105,13.105,0,0,0-4.91,1.116,6.337,6.337,0,0,0-3.207,3.373,8.583,8.583,0,0,0-.645,2.246,7.036,7.036,0,0,0,2.08,1.112,6.127,6.127,0,0,0,4.877-.3,11.159,11.159,0,0,0,4.074-3.592A12.541,12.541,0,0,0,399.418,192.676Z" transform="translate(-386.636 -192.475)" fill="#bce13e"/>
    <path id="Path_25889" data-name="Path 25889" d="M386.614,204.394l-.028-.072s.693-.277,1.722-.722,2.392-1.057,3.736-1.709,2.67-1.341,3.649-1.885c.492-.268.895-.5,1.176-.67l.443-.259.04.066-.444.259c-.282.166-.686.4-1.178.67-.98.545-2.306,1.238-3.653,1.887s-2.71,1.266-3.739,1.71S386.614,204.394,386.614,204.394Z" transform="translate(-386.586 -197.609)" fill="#fff"/>
    <path id="Path_25890" data-name="Path 25890" d="M419.988,200.037a1.85,1.85,0,0,1,.018-.587,4.56,4.56,0,0,1,.571-1.521l.066.039a4.5,4.5,0,0,0-.558,1.493,2.4,2.4,0,0,0-.031.413,1.053,1.053,0,0,0,.011.148Z" transform="translate(-412.547 -196.716)" fill="#fff"/>
    <path id="Path_25891" data-name="Path 25891" d="M411.341,211.685l.057-.053a1.205,1.205,0,0,0,.134.116,2.652,2.652,0,0,0,.42.26,4.781,4.781,0,0,0,1.876.466l-.006.078a4.861,4.861,0,0,1-1.907-.471A2.067,2.067,0,0,1,411.341,211.685Z" transform="translate(-405.834 -207.371)" fill="#fff"/>
    <path id="Path_25892" data-name="Path 25892" d="M395.175,219.112l.06-.05a1.38,1.38,0,0,0,.148.139,3.035,3.035,0,0,0,.468.318,5.521,5.521,0,0,0,2.126.623l-.01.078a5.6,5.6,0,0,1-2.155-.628A2.358,2.358,0,0,1,395.175,219.112Z" transform="translate(-393.264 -213.148)" fill="#fff"/>
    <path id="Path_25893" data-name="Path 25893" d="M402.073,205.286a2.752,2.752,0,0,1,.07-.871,6.921,6.921,0,0,1,.961-2.221l.064.042a6.836,6.836,0,0,0-.945,2.2,3.556,3.556,0,0,0-.078.617,1.61,1.61,0,0,0,.006.223Z" transform="translate(-398.621 -200.032)" fill="#fff"/>
    <path id="Path_25894" data-name="Path 25894" d="M426.079,204.116l.055-.055a1.249,1.249,0,0,0,.336.2,2.921,2.921,0,0,0,1.115.226l0,.079a3.01,3.01,0,0,1-1.149-.233A1.247,1.247,0,0,1,426.079,204.116Z" transform="translate(-417.294 -201.484)" fill="#fff"/>
  </g>
  <g id="Group_36669" data-name="Group 36669" transform="translate(80.239 38.419)">
    <path id="Path_25895" data-name="Path 25895" d="M395.992,231a11.451,11.451,0,0,0-3.8-6.648c-2.551-2.065-5.719-.627-5.719-.627a5.817,5.817,0,0,0,2.117,5.363A11.266,11.266,0,0,0,395.992,231Z" transform="translate(-386.424 -223.235)" fill="#91b31e"/>
    <path id="Path_25896" data-name="Path 25896" d="M386.561,225.362l.039-.051,7.917,6.052-.039.052Z" transform="translate(-386.531 -224.849)" fill="#fff"/>
    <path id="Path_25897" data-name="Path 25897" d="M411.033,242.94a1.481,1.481,0,0,1,.448-.2,3.6,3.6,0,0,1,1.359-.087l-.007.065a3.529,3.529,0,0,0-1.333.087,1.891,1.891,0,0,0-.322.122.854.854,0,0,0-.107.061Z" transform="translate(-405.559 -238.318)" fill="#fff"/>
    <path id="Path_25898" data-name="Path 25898" d="M404.229,239.131l.06.023a1.037,1.037,0,0,0-.036.143,2.283,2.283,0,0,0-.037.41,4.249,4.249,0,0,0,.327,1.568l-.06.024a4.314,4.314,0,0,1-.334-1.592A1.778,1.778,0,0,1,404.229,239.131Z" transform="translate(-400.206 -235.595)" fill="#fff"/>
    <path id="Path_25899" data-name="Path 25899" d="M392.406,230.129l.06.023a1.154,1.154,0,0,0-.042.164,2.575,2.575,0,0,0-.044.469,4.841,4.841,0,0,0,.371,1.8l-.06.024a4.907,4.907,0,0,1-.379-1.818A2.006,2.006,0,0,1,392.406,230.129Z" transform="translate(-391.002 -228.595)" fill="#fff"/>
    <path id="Path_25900" data-name="Path 25900" d="M397.837,232.343a2.216,2.216,0,0,1,.669-.288,5.406,5.406,0,0,1,2.03-.126l-.007.064a5.339,5.339,0,0,0-2.006.128,2.885,2.885,0,0,0-.485.182,1.266,1.266,0,0,0-.162.092Z" transform="translate(-395.298 -229.964)" fill="#fff"/>
    <path id="Path_25901" data-name="Path 25901" d="M415.312,247.514l.06.023a1.069,1.069,0,0,0-.042.326,2.518,2.518,0,0,0,.194.924l-.06.024a2.585,2.585,0,0,1-.2-.952A1.073,1.073,0,0,1,415.312,247.514Z" transform="translate(-408.849 -242.113)" fill="#fff"/>
  </g>
  <path id="Path_25902" data-name="Path 25902" d="M87.232,339.09s-.09-.126-.6.1a7.445,7.445,0,0,0-2.051,2.632,8.63,8.63,0,0,0,1.188.9,6.114,6.114,0,0,1,.684-.5,14.594,14.594,0,0,1-.172,2.429,14.354,14.354,0,0,1-.373,1.458,6.432,6.432,0,0,0,3.653.337s.027-2.173.095-3.01a7.947,7.947,0,0,0,.243-2.551c-.216-.783-1.139-1.075-1.885-1.84Z" transform="translate(-71.483 -274.872)" fill="#ffd200"/>
  <path id="Path_25903" data-name="Path 25903" d="M94.268,325.618a2.169,2.169,0,0,0-.4-1.09.914.914,0,0,0-1.49.4,2.351,2.351,0,0,0-.26,1.025.243.243,0,0,0-.314.009c-.244.166.125.751.5.65a1.285,1.285,0,0,0,.314.378,1.115,1.115,0,0,0,.1.6c.345.418.751.831,1.024.649s-.055-.436-.145-.581a.152.152,0,0,1,.025-.221C94.431,327.326,94.268,325.618,94.268,325.618Z" transform="translate(-77.04 -263.378)" fill="#ff9a5c"/>
  <path id="Path_25904" data-name="Path 25904" d="M94.457,324.231s-.212.8-.686.972a.967.967,0,0,0,.174-.229s-.607.567-.945.513c0,0-.216-.094-.283-.85a1.38,1.38,0,0,1,.729-1.188h.9l.634.729.065.513A.682.682,0,0,1,94.457,324.231Z" transform="translate(-77.807 -262.737)" fill="#753519"/>
  <path id="Path_25905" data-name="Path 25905" d="M87.208,354.979a18.252,18.252,0,0,1-3.817-1.046c-1.015-.562-.89-1.062-.749-1.421s.578-1.124.578-1.124l.993.71-.025.221-.169.387s.324.206.813.477,2.48,1.185,2.48,1.185S87.794,354.767,87.208,354.979Z" transform="translate(-69.904 -284.462)" fill="#ff9a5c"/>
  <g id="Group_36670" data-name="Group 36670" transform="translate(17.782 70.086)">
    <path id="Path_25906" data-name="Path 25906" d="M110.018,371.148l-.567-3.081a.736.736,0,0,0-.421-.537L105.649,366l.184-.408,3.381,1.526a1.183,1.183,0,0,1,.676.864l.567,3.081Z" transform="translate(-105.649 -365.595)" fill="#108f6e"/>
  </g>
  <path id="Path_25907" data-name="Path 25907" d="M131.267,380.5a3.864,3.864,0,0,1,1.032-.518c.344-.049.442.321.688.259a1.085,1.085,0,0,0,.442-.263l.491.261s.049-.136.393,0,.147-.011.344.136a.828.828,0,0,0,.491.125.983.983,0,0,1,.491,0c.246.072.612-.12,1.179,0s1.081-.121,1.375,0,.442.549.688.433a4.433,4.433,0,0,0,.639-.433l.393.688s.148-.317.344,0a1.648,1.648,0,0,0,.639.514.976.976,0,0,1,.246.3,3.816,3.816,0,0,1,.266.9v.295l-7.389-.295-3.095-1.715Z" transform="translate(-107.519 -306.694)" fill="#753519"/>
  <g id="Group_36671" data-name="Group 36671" transform="translate(18.851 69.017)">
    <path id="Path_25908" data-name="Path 25908" d="M114.824,366.341l-.567-3.082a.735.735,0,0,0-.42-.537l-3.381-1.526.184-.408,3.381,1.526a1.183,1.183,0,0,1,.676.863l.567,3.082Z" transform="translate(-110.455 -360.788)" fill="#108f6e"/>
  </g>
  <path id="Path_25909" data-name="Path 25909" d="M124.6,382.329s-.625,1.941-.79,2.27.395,1.513.395,1.513l5.89,2.9,5.758-3.981Z" transform="translate(-101.964 -308.52)" fill="#108f6e"/>
  <path id="Path_25910" data-name="Path 25910" d="M119.711,400.057a.79.79,0,0,1-.446-.118c-.3-.194-.4-.608-.342-1.341.12-1.439,1.119-5.433,1.162-5.6l.242.061c-.01.041-1.037,4.143-1.155,5.562-.052.622.021.975.23,1.111.314.205,1.045-.007,2.236-.65,2.237-1.207,3.906-2.308,3.923-2.319l.138.208c-.017.011-1.7,1.118-3.942,2.331A4.988,4.988,0,0,1,119.711,400.057Z" transform="translate(-98.176 -316.815)" fill="#108f6e"/>
  <path id="Path_25911" data-name="Path 25911" d="M176.768,400.259a1.646,1.646,0,0,0-.373.639c-.02.246.373,0,.373,0s.2.268.393.109,0-.349,0-.349l.087-.4Z" transform="translate(-142.875 -322.462)" fill="#753519"/>
  <g id="Group_36673" data-name="Group 36673" transform="translate(42.721 70.35)">
    <g id="Group_36672" data-name="Group 36672" transform="translate(2.241 3.172)">
      <path id="Path_25912" data-name="Path 25912" d="M233.687,390.917l-.334.258-.3-.4c-.184-.254-.445-.617-.745-1.062-.6-.887-1.369-2.095-2.065-3.343s-1.324-2.536-1.754-3.52l-.49-1.2-.166-.464.4-.144.164.457.484,1.186c.424.972,1.041,2.247,1.735,3.481s1.449,2.434,2.046,3.313c.3.441.555.8.736,1.05Z" transform="translate(-227.837 -381.043)" fill="#108f6e"/>
    </g>
    <path id="Path_25913" data-name="Path 25913" d="M222.812,367.987a1.738,1.738,0,0,1-.058,1.141,1.266,1.266,0,0,1-.739.74,1.2,1.2,0,0,1-1.051-.139,1.77,1.77,0,0,1-.721-1.014,2.1,2.1,0,0,1-.071-.333,1.96,1.96,0,0,1,0-.329,1.708,1.708,0,0,1,.156-.587,1.151,1.151,0,0,1,.815-.661,1.329,1.329,0,0,1,1.027.247,1.577,1.577,0,0,1,.387.4,1.665,1.665,0,0,1,.139.253A1.688,1.688,0,0,1,222.812,367.987Z" transform="translate(-219.631 -366.782)" fill="#fce300"/>
    <path id="Path_25914" data-name="Path 25914" d="M220.326,371.821a2.965,2.965,0,0,0-.242-.367,2.742,2.742,0,0,0-.272-.306.269.269,0,1,0-.506.135,2.272,2.272,0,0,0-.061.409,3.088,3.088,0,0,0,0,.457A2.509,2.509,0,0,0,218.21,372a1.976,1.976,0,0,0-.449.079,2.588,2.588,0,0,0,1.664,1.426,2.036,2.036,0,0,0,.892.042,2.4,2.4,0,0,0,.663-.605,2.928,2.928,0,0,0,.573-1.936,2.171,2.171,0,0,0-.424.163A2.282,2.282,0,0,0,220.326,371.821Z" transform="translate(-217.761 -369.978)" fill="#108f6e"/>
  </g>
  <path id="Path_25915" data-name="Path 25915" d="M182.054,403.846s-.295.578-.246.725.246,0,.246,0,.295.131.442.066a1.726,1.726,0,0,0,.393-.386h-.543Z" transform="translate(-147.081 -325.251)" fill="#753519"/>
  <path id="Path_25916" data-name="Path 25916" d="M179.371,412.477s-1.234-.132-1.231,0,0,.508,0,.508a.341.341,0,0,0-.543,0,1.632,1.632,0,0,0-.349.8.509.509,0,0,1-.427.343.508.508,0,0,0-.426.344,8.063,8.063,0,0,0,1.2.295,4.04,4.04,0,0,0,.841,0,3.849,3.849,0,0,1,.933.022c.442.077.933.175,1.375.224a3.1,3.1,0,0,0,1.228-.344,13.861,13.861,0,0,1,1.916.049,2.319,2.319,0,0,0,1.13-.147l.2-.443a1.219,1.219,0,0,1-.639-.412c-.246-.325-.54-1.178-.737-1.242a4.444,4.444,0,0,1-.737-.51,3.906,3.906,0,0,1-.541-1.237c-.049-.479-.688-.786-.688-.786a.872.872,0,0,0-.491.488.5.5,0,0,1-.579.3s-.256.043-.4.47a4.647,4.647,0,0,0-.2.768s-.589-.2-.884,0S179.371,412.477,179.371,412.477Z" transform="translate(-142.875 -329.993)" fill="#753519"/>
  <rect id="Rectangle_3582" data-name="Rectangle 3582" width="0.5" height="2.051" transform="matrix(0.843, -0.538, 0.538, 0.843, 27.884, 80.418)" fill="#108f6e"/>
  <g id="Group_36674" data-name="Group 36674" transform="translate(73.717 75.051)">
    <rect id="Rectangle_3583" data-name="Rectangle 3583" width="9.176" height="0.527" transform="translate(0 8.564) rotate(-68.947)" fill="#91b31e"/>
  </g>
  <g id="Group_36675" data-name="Group 36675" transform="translate(77.014 75.051)">
    <rect id="Rectangle_3584" data-name="Rectangle 3584" width="0.527" height="9.176" transform="translate(0 0.189) rotate(-21.054)" fill="#91b31e"/>
  </g>
  <g id="Group_36676" data-name="Group 36676" transform="translate(75.885 78.453)">
    <rect id="Rectangle_3585" data-name="Rectangle 3585" width="2.848" height="0.526" fill="#91b31e"/>
  </g>
  <g id="Group_36677" data-name="Group 36677" transform="translate(75.23 80.335)">
    <rect id="Rectangle_3586" data-name="Rectangle 3586" width="4.128" height="0.526" fill="#91b31e"/>
  </g>
  <path id="Path_25917" data-name="Path 25917" d="M354.785,265.305a4.172,4.172,0,0,0-.932,1.415,1.168,1.168,0,0,0,.794,1.57,6.821,6.821,0,0,1,.138,1.053,2.876,2.876,0,0,0,.794.1,2.161,2.161,0,0,0,.518-.138v-1.1a2.877,2.877,0,0,0,.673-.9,2.213,2.213,0,0,0-.207-2A1.425,1.425,0,0,0,354.785,265.305Z" transform="translate(-280.801 -217.284)" fill="#ff9a5c"/>
  <path id="Path_25918" data-name="Path 25918" d="M318.794,251.329s-.018.077-.416.2-.682.01-.8.332.114.947-.133,1.08a1.12,1.12,0,0,0-.322.227s.625.8.833,1.137a1.228,1.228,0,0,0,.379-.625c.095-.4.742-.207.89-.341a2.969,2.969,0,0,0,.306-.341S319.324,251.612,318.794,251.329Z" transform="translate(-252.303 -206.661)" fill="#91b31e"/>
  <path id="Path_25919" data-name="Path 25919" d="M359.351,263.242a2.731,2.731,0,0,1-.856-.936c-.161-.452.032-.869.428-.822a3.82,3.82,0,0,1,.605.112s.369-.468,1.008.129a1.875,1.875,0,0,1,.559,1.437.7.7,0,0,1,.484.985,1.917,1.917,0,0,1-1.043,1.005s-.1.492-.378.518a1.758,1.758,0,0,0-.438.091l.051-.921a.482.482,0,0,0,.4-.307c.145-.307-.307-.258-.307-.258s-.258-.468-.145-.646C359.723,263.629,359.319,263.468,359.351,263.242Z" transform="translate(-284.425 -214.507)" fill="#753519"/>
  <path id="Path_25920" data-name="Path 25920" d="M329.1,256.392a16.591,16.591,0,0,1-2.3-2.27c-1.055-1.295-1.7-2.221-1.7-2.221a2.633,2.633,0,0,0-.216-.991,1.488,1.488,0,0,0-.366-.539c-.129-.172-.129.14.035.444l.163.3s-.423-.675-.579-.653.03.245.111.363a.93.93,0,0,1,.111.326s-.3-.467-.408-.386.111.363.282.586a4.594,4.594,0,0,1,.3.757s1.468,3.809,3.56,5.446S329.1,256.392,329.1,256.392Z" transform="translate(-257.589 -205.878)" fill="#ff9a5c"/>
  <path id="Path_25921" data-name="Path 25921" d="M328.551,254.7a2.336,2.336,0,0,1,.064-.274c.018-.027.075-.232.118-.361s-.019-.253-.091-.191a.782.782,0,0,0-.229.43A1.353,1.353,0,0,0,328.551,254.7Z" transform="translate(-261.078 -208.63)" fill="#ff9a5c"/>
  <path id="Path_25922" data-name="Path 25922" d="M372.9,283.492a8.58,8.58,0,0,0,1.295,1.315c.358.179,1.3-.608,1.791-1.512a13.667,13.667,0,0,0,.74-1.591,2.835,2.835,0,0,0,.812-.9s.065-.2,0-.24-.252.274-.35.395c0,0,.285-.494.241-.6s-.45.461-.45.461.318-.581.208-.592-.417.516-.417.516-.011-.362-.121-.34-.077.428-.077.428-.11.5-.175.669a12.017,12.017,0,0,1-1.623,1.788,2.883,2.883,0,0,0-1.075-.943C373.186,282.191,372.9,283.492,372.9,283.492Z" transform="translate(-295.67 -229.131)" fill="#ff9a5c"/>
  <path id="Path_25923" data-name="Path 25923" d="M351.359,309.337s1.3,13.748,1.524,14.906a5.912,5.912,0,0,0,1.648,0s-.092-8.371,0-9.232.834-5.254.567-5.848S351.359,309.337,351.359,309.337Z" transform="translate(-278.92 -251.455)" fill="#0e1a34"/>
  <path id="Path_25924" data-name="Path 25924" d="M361.337,309.353s.462,5.5.691,6.342a35.571,35.571,0,0,0,2.715,4.4l-1.091,1.1s-2.256-2.286-2.909-3.117a24.7,24.7,0,0,1-1.781-4.3S359.615,308.492,361.337,309.353Z" transform="translate(-284.832 -251.703)" fill="#0e1a34"/>
  <path id="Path_25925" data-name="Path 25925" d="M180.856,142.939a16.873,16.873,0,0,1-2.924-.934,4.357,4.357,0,0,0-2.051-.7,7.641,7.641,0,0,0-2.444,0c-.7.286-1.437,1.724-2.508,1.987a9.016,9.016,0,0,1-4.51-.785,1.72,1.72,0,0,1-.748-1.92,4.048,4.048,0,0,0,.259-1.65c-.044-.314,1.091-.929,1.484-1.341a1.748,1.748,0,0,0-.165-2.427,31.661,31.661,0,0,0-12.082,5.587,1.948,1.948,0,0,0,.289.749c.262.436-.158.7-.145.829s.247.116.043.363,0,.2-.188.379a5.626,5.626,0,0,1-.5.436c-.131.087-.087.349-.349.655s-.742.567-.742,1.047-.742,1.135-.829,1.4a7.27,7.27,0,0,0-.873,1.92,11.512,11.512,0,0,0,0,1.746,4.1,4.1,0,0,1-.033,1.309,10.19,10.19,0,0,0-.229,1.789,1.333,1.333,0,0,0,1.135,1.528,7.207,7.207,0,0,1,2.792,1.571c.394.567.612,1.266.918,1.353s.567,1,1.571,1.7,2.88.787,3.71,1.681a16.243,16.243,0,0,1,2.75,4.275,4.4,4.4,0,0,0,1.746,2.231,4.959,4.959,0,0,0,2.226,1.284c.655.044.922-.231.9-.464s-.854-.932-.985-1.107-.393-1.353-.785-2.182-.436-.863-.306-1.261.393-1.269.786-1.488.7-.059.96-.445a1.271,1.271,0,0,0,.33-.843c-.024-.24-.417-.39-.81-.424s-.524-.384-1.047-.471-1.265-.306-1.44-.611a.824.824,0,0,0-.829-.349,1.783,1.783,0,0,1-1.571-.349,3.785,3.785,0,0,1-.655-2.051,1.889,1.889,0,0,1-.044-1.091c.131-.393.131-.7.742-.983a2.249,2.249,0,0,1,2.226,0,1.905,1.905,0,0,0,2.095-.2c.262-.305,1-1.222,1.615-1.265s1.615,0,2.008-.349,1.877-1.085,2.139-1.677a14.5,14.5,0,0,0,1.266-2.869c0-.56,1.833-1.651,2.357-1.476s1.222-.655,1.484-.655,1.048.131,1.484-.393.785-.876,1.135-1.376S182.122,143.332,180.856,142.939Z" transform="translate(-123.605 -116.335)" fill="#108f6e"/>
  <path id="Path_25926" data-name="Path 25926" d="M251.36,298.922a23.129,23.129,0,0,0-2.722-1.448c-1.25-.526-2.171-2.389-2.5-2.774s-.592-3.741,0-4.333a14.349,14.349,0,0,0,1.68-2.369c.491-.79.689-1.316.491-1.645a5.41,5.41,0,0,1,0-2.513,2.561,2.561,0,0,1,1.645-.843c.461.066,1.908-.339,2.5,0a14.345,14.345,0,0,0,3.817,1.584c.987.067,1.974.922,2.764.461s1.949.066,2.62,1.053a8.266,8.266,0,0,0,2.579,2.641c1.119.65,1.021,1.242,1.662,1.373a9.4,9.4,0,0,1,2.848,1.053c.776.531.521,1.184-.119,1.974s-1.437,2.04-1.96,2.83a2.187,2.187,0,0,0,0,2.3c.332.329.069,1.711-.392,2.106a7.762,7.762,0,0,0-1.843,1.777c-.395.724-.357,1.261-1.264,1.585s-2.947,1.245-4.2,1.541-2.3.366-3.158,1.088-.976,2.682-1.781,3.018-3.22,1.848-4.141,1.75-.92-.282-.394-.947,1.857-1.835,2.606-2.9-.238-2.1.42-2.529.773-1.715.979-2.093S253.65,300.176,251.36,298.922Z" transform="translate(-196.831 -231.176)" fill="#108f6e"/>
  <path id="Path_25927" data-name="Path 25927" d="M338.981,177.292c.132.268.833.575,1.36.839s1.021-.142,1.234-.839a1.169,1.169,0,0,1,1.617-.565,2.1,2.1,0,0,0,1.36.307c.346-.087,1.018-.345,1.036-.351a31.884,31.884,0,0,0-9.186-12.414,6.845,6.845,0,0,1-.931,1.054,3.293,3.293,0,0,0-.86,1.226,4.572,4.572,0,0,0-.412,2.194c.176.57.1.965.753,1.448s1.23.647.94,1.53-.07,1.827-.377,2.3a1.583,1.583,0,0,0,.377,2.007,2.923,2.923,0,0,0,1.86.527A2.931,2.931,0,0,1,338.981,177.292Z" transform="translate(-265.546 -138.967)" fill="#108f6e"/>
  <path id="Path_25928" data-name="Path 25928" d="M254.908,242.521a1.468,1.468,0,0,1-.439,1c-.439.395-.877,1.1-.439,1.185a9.505,9.505,0,0,1,1.579.35c.219.133,1.36.747,1.667.528s.527-.746.833-.79.395-.822.658-1.069a4.132,4.132,0,0,0,1.272-1.827,5.072,5.072,0,0,0,0-2.018c-.175-.263-1.4-.439-1.536-.79a1.139,1.139,0,0,0-1.51-.263,2.417,2.417,0,0,0-.947,1.711C255.961,241.106,254.864,241.523,254.908,242.521Z" transform="translate(-203.101 -196.809)" fill="#108f6e"/>
  <g id="Group_36679" data-name="Group 36679" transform="translate(70.309 12.05)">
    <g id="Group_36678" data-name="Group 36678" transform="translate(0 3.528)">
      <path id="Path_25929" data-name="Path 25929" d="M342.145,132.064l-.361-.272s.108-.142.285-.42.421-.678.691-1.174a27.908,27.908,0,0,0,1.68-3.795,33.091,33.091,0,0,0,1.157-3.993c.139-.551.208-1.019.275-1.344l.1-.511.446.077-.1.518c-.068.328-.138.8-.278,1.36a33.566,33.566,0,0,1-1.173,4.047,28.372,28.372,0,0,1-1.708,3.858c-.276.507-.524.92-.709,1.2S342.145,132.064,342.145,132.064Z" transform="translate(-341.784 -120.555)" fill="#108f6e"/>
    </g>
    <path id="Path_25930" data-name="Path 25930" d="M359.226,106.566a1.573,1.573,0,0,1-1.66,1.517,1.74,1.74,0,0,1,.412-3.386A1.575,1.575,0,0,1,359.226,106.566Z" transform="translate(-353.126 -104.694)" fill="#fce300"/>
    <path id="Path_25931" data-name="Path 25931" d="M356.04,110.382a2.91,2.91,0,0,0-.07-.48.522.522,0,1,0-.927-.113,3.651,3.651,0,0,0-.2.432,2.514,2.514,0,0,0-1.429-.659,2.978,2.978,0,0,0,.947,1.976,2.467,2.467,0,0,0,.8.511,2.268,2.268,0,0,0,.941-.211,2.876,2.876,0,0,0,1.5-1.769A2.652,2.652,0,0,0,356.04,110.382Z" transform="translate(-350.828 -108.116)" fill="#108f6e"/>
  </g>
  <path id="Path_25932" data-name="Path 25932" d="M304.287,70.643a4.473,4.473,0,0,0-1.119.509,20.177,20.177,0,0,0-2.4,2.073,6.387,6.387,0,0,0,1.382,1.694,12.372,12.372,0,0,0,1.135-.576,5.508,5.508,0,0,1-.461,3.586,2.461,2.461,0,0,0,1.4.757,5.494,5.494,0,0,1,2.55.658,2.224,2.224,0,0,0,2.517,0,7.238,7.238,0,0,0,0-3.307,8.439,8.439,0,0,0-1.086-2.484l.28.214a4.068,4.068,0,0,0,1-1.843,10.79,10.79,0,0,0-1.892-1.563,2.636,2.636,0,0,0-2.307,0A2.905,2.905,0,0,1,304.287,70.643Z" transform="translate(-239.581 -65.741)" fill="#108f6e"/>
  <path id="Path_25933" data-name="Path 25933" d="M308.849,58.321a3.146,3.146,0,0,0,.635,1.417c.44.44.782.171.9.22s.2.391.2.635a.453.453,0,0,0,.757.22c.367-.269.171-1.515.171-1.515a1.507,1.507,0,0,0,.052-.977,1.138,1.138,0,0,0,.055-.733c-.132-.269-.327-.2-.425,0,0,0-.464-.855-1.148-.708S308.751,57.392,308.849,58.321Z" transform="translate(-245.858 -55.452)" fill="#ff9a5c"/>
  <path id="Path_25934" data-name="Path 25934" d="M306.264,52.878c-.22-.293-.073-1.051-.359-1.491a.867.867,0,0,0-.887-.293s-.147-.66-.709-.562-1.075.855-1.075.855a1.831,1.831,0,0,0-.831,0c-.537.1-1.148.464-.928,1s1.051.507,1.051.507-.22,1.057.552.763c.023-.009.042-.021.063-.031a2.433,2.433,0,0,1-.053-.238,1.145,1.145,0,0,1,.654-1.258h0a2.29,2.29,0,0,1,.543-.184c.684-.147,1.148.708,1.148.708.1-.2.293-.269.425,0a1.137,1.137,0,0,1-.055.733,1.579,1.579,0,0,1,.02.744.49.49,0,0,0,.082.013C306.621,54.149,306.484,53.171,306.264,52.878Z" transform="translate(-240.096 -50.522)" fill="#753519"/>
  <path id="Path_25935" data-name="Path 25935" d="M307.872,56.4a1.762,1.762,0,0,0,.9-1.615s.259.785,1.391.644a1.541,1.541,0,0,0-1.022-1.312c-.933-.263-1.615,1.292-1.615,1.292A1.085,1.085,0,0,0,307.872,56.4Z" transform="translate(-244.828 -53.298)" fill="#753519"/>
  <path id="Path_25936" data-name="Path 25936" d="M314.457,139.652c-.177-1.481-.469-2.958-.472-2.973l.123-.024c0,.015.3,1.5.473,2.983Z" transform="translate(-249.859 -117.495)" fill="#fff"/>
  <path id="Path_25937" data-name="Path 25937" d="M110.655,360.613a3.564,3.564,0,0,1,.406.03c.145.025.238.231.28.313s-.14.074-.23-.041-.109-.144-.109-.144a.5.5,0,0,0-.215,0c-.078.029-.173-.064-.189-.128S110.655,360.613,110.655,360.613Z" transform="translate(-91.712 -291.628)" fill="#ff9a5c"/>
  <path id="Path_25938" data-name="Path 25938" d="M102.458,365.431a1.8,1.8,0,0,0,.527.379c.022.189.131.269.192.262s.063-.291.063-.291c.054.131.269.262.3.182a.475.475,0,0,0,0-.211s.087.116.153.116.146-.058.117-.2a1.41,1.41,0,0,0-.2-.481c-.087-.117-.138-.233-.328-.277a3.133,3.133,0,0,0-.473-.036,4.111,4.111,0,0,0-.546,0Z" transform="translate(-85.229 -294.937)" fill="#ff9a5c"/>
  <path id="Path_25939" data-name="Path 25939" d="M103.5,364.524v-.118a2.464,2.464,0,0,1,.638-.124c.106.037.205.186.264.242A4.867,4.867,0,0,1,103.5,364.524Z" transform="translate(-86.194 -294.484)" fill="#ff9a5c"/>
  <circle id="Ellipse_252" data-name="Ellipse 252" cx="2.29" cy="2.29" r="2.29" transform="translate(27.852 81.646)" fill="#0e1a34"/>
  <path id="Path_25940" data-name="Path 25940" d="M157.635,425.306a1.023,1.023,0,1,1,1.023-1.023A1.024,1.024,0,0,1,157.635,425.306Zm0-1.921a.9.9,0,1,0,.9.9A.9.9,0,0,0,157.635,423.385Z" transform="translate(-127.493 -340.346)" fill="#fff"/>
  <path id="Path_25941" data-name="Path 25941" d="M281.358,256.762a6.909,6.909,0,0,0-.88.985c-.363.516.621.258.88.309s.311.426.828.291a2.92,2.92,0,0,0,.518-.135,3.937,3.937,0,0,1,1.087-.155c.466-.052.374-.39.627-.687a.524.524,0,0,0,0-.815c-.265-.259-.42.518-.938,0s-.5-.963-.975-.74-.351.3-.569.495S281.358,256.762,281.358,256.762Z" transform="translate(-223.744 -210.103)" fill="#108f6e"/>
  <path id="Path_25942" data-name="Path 25942" d="M346.07,278.142a3.856,3.856,0,0,1-2.787-1.191,6.1,6.1,0,0,0-1.329,1.588,7.229,7.229,0,0,0,1.985,1.588,30.342,30.342,0,0,0-.224,5.4s1.674.311,2.71.38a8.8,8.8,0,0,0,2.313-.259l-.293-4.953.293.345s1.07-.984,1.087-1.519a11.053,11.053,0,0,0-2.187-1.657C346.976,277.641,346.713,278.193,346.07,278.142Z" transform="translate(-271.607 -226.583)" fill="#91b31e"/>
  <path id="Path_25943" data-name="Path 25943" d="M365.282,325.325l-.125,0c0-.113.046-2.763.125-3.129s.537-2.86.542-2.885l.123.022c0,.025-.466,2.528-.543,2.889S365.282,325.3,365.282,325.325Z" transform="translate(-289.649 -259.519)" fill="#fff"/>
  <path id="Path_25944" data-name="Path 25944" d="M265.635,392.019h-2.554s-1.4-9.362,0-11.339S267.413,379.376,265.635,392.019Z" transform="translate(-209.796 -306.584)" fill="#ffd200"/>
  <path id="Path_25945" data-name="Path 25945" d="M236.44,414.106h-2.28a9,9,0,0,1-4.423-3.213c-1.432-2.28.692-3.247,2.247-2.271S236.44,414.106,236.44,414.106Z" transform="translate(-183.983 -328.671)" fill="#ffd200"/>
  <path id="Path_25946" data-name="Path 25946" d="M247.193,400.779h-1.4s-3.316-3.275-3.731-7.234,2.746-2.673,4.145.8a22.268,22.268,0,0,1,1.554,6.43Z" transform="translate(-193.907 -315.344)" fill="#91b31e"/>
  <path id="Path_25947" data-name="Path 25947" d="M280.464,414.106h2.28a9,9,0,0,0,4.423-3.213c1.432-2.28-.692-3.247-2.247-2.271S280.464,414.106,280.464,414.106Z" transform="translate(-223.795 -328.671)" fill="#ffd200"/>
  <path id="Path_25948" data-name="Path 25948" d="M274.745,400.779h1.4s3.316-3.275,3.731-7.234-2.746-2.673-4.145.8a22.268,22.268,0,0,0-1.554,6.43Z" transform="translate(-218.905 -315.344)" fill="#91b31e"/>
  <path id="Path_25949" data-name="Path 25949" d="M311.167,246.872l.135-.276.176.253.276.135-.253.176-.135.276-.176-.253-.276-.135Z" transform="translate(-247.472 -202.98)" fill="#fff"/>
  <path id="Path_25950" data-name="Path 25950" d="M333.324,252.4l.082-.168.107.154.168.082-.154.107-.082.168-.107-.154-.168-.082Z" transform="translate(-264.777 -207.359)" fill="#fff"/>
  <path id="Path_25951" data-name="Path 25951" d="M336.842,242.217l.082-.168.107.154.168.082-.154.107-.082.168-.107-.154-.168-.082Z" transform="translate(-267.513 -199.445)" fill="#fff"/>
  <path id="Path_25952" data-name="Path 25952" d="M306.252,238.417l.082-.168.107.154.168.082-.154.107-.082.168-.107-.154-.168-.082Z" transform="translate(-243.727 -196.49)" fill="#fff"/>
  <path id="Path_25953" data-name="Path 25953" d="M310.817,266.314l.082-.168.107.154.168.082-.154.107-.082.168-.107-.154-.168-.082Z" transform="translate(-247.277 -218.181)" fill="#fff"/>
  <g id="Group_36680" data-name="Group 36680" transform="translate(44.547 10.013)">
    <path id="Path_25954" data-name="Path 25954" d="M233.783,95.681l-.051-.036c.049-.069.078-.106.078-.106l.05.038S233.831,95.613,233.783,95.681Z" transform="translate(-232.006 -95.538)" fill="#fff"/>
    <path id="Path_25955" data-name="Path 25955" d="M226.278,100.423l-.061-.013.012-.055.061.014Zm.076-.306-.06-.016q.034-.127.073-.251l.06.018Q226.388,99.991,226.354,100.117Zm.152-.5-.059-.02c.028-.083.058-.166.088-.247l.059.022Q226.548,99.5,226.506,99.62Zm.181-.487-.058-.023q.049-.123.1-.241l.057.025Q226.737,99.011,226.687,99.133Zm.207-.477-.057-.026q.056-.121.113-.236l.056.027C226.968,98.5,226.931,98.575,226.894,98.655Zm.23-.467-.055-.029q.062-.119.123-.231l.055.03C227.206,98.033,227.165,98.11,227.123,98.188Zm.25-.456-.054-.031q.068-.118.133-.225l.053.032C227.463,97.579,227.419,97.653,227.373,97.732Zm.269-.445-.053-.034c.052-.081.1-.155.143-.219l.052.035C227.742,97.133,227.694,97.206,227.643,97.287Z" transform="translate(-226.162 -96.701)" fill="#fff"/>
    <path id="Path_25956" data-name="Path 25956" d="M226.033,112.96l-.061-.011c.008-.043.016-.087.025-.13l.061.013Q226.045,112.9,226.033,112.96Z" transform="translate(-225.972 -108.975)" fill="#fff"/>
  </g>
  <g id="Group_36681" data-name="Group 36681" transform="translate(46.454 10.173)">
    <path id="Path_25957" data-name="Path 25957" d="M235.817,96.4l-.062-.012c.016-.083.025-.129.025-.129l.061.013S235.832,96.314,235.817,96.4Z" transform="translate(-235.485 -96.256)" fill="#fff"/>
    <path id="Path_25958" data-name="Path 25958" d="M234.547,100.913q0-.131,0-.262h.062q0,.129,0,.26Zm.059-.522h-.063c0-.088,0-.175.007-.261l.062,0Q234.608,100.26,234.606,100.391Zm.018-.52-.063,0q.007-.132.017-.261l.062,0Q234.631,99.739,234.624,99.871Zm.037-.519-.062-.005c.008-.089.016-.176.025-.26l.062.006C234.678,99.176,234.669,99.263,234.661,99.351Zm.054-.518-.062-.007q.016-.136.033-.259l.062.008Q234.732,98.7,234.715,98.833Zm.07-.516-.062-.009c.014-.1.028-.182.041-.258l.061.01C234.813,98.137,234.8,98.223,234.785,98.318Z" transform="translate(-234.542 -97.651)" fill="#fff"/>
    <path id="Path_25959" data-name="Path 25959" d="M234.677,112.965c0-.044-.008-.088-.011-.131l.062,0q.005.065.011.131Z" transform="translate(-234.638 -109.142)" fill="#fff"/>
  </g>
  <path id="Path_25960" data-name="Path 25960" d="M230.166,101.671c0-.043-.006-.086-.008-.129l.063,0c0,.042,0,.085.008.127Zm-.016-.38c0-.033,0-.067,0-.1,0-.051,0-.1,0-.151h.062q0,.074,0,.149,0,.05,0,.1Zm.073-.5-.063,0q.007-.127.017-.251l.062.005Q230.23,100.667,230.224,100.793Zm.042-.5-.062-.007q.015-.126.033-.249l.062.009Q230.28,100.171,230.266,100.3Zm.072-.493-.062-.011c.015-.083.031-.165.047-.246l.061.012Q230.36,99.679,230.338,99.8Zm.1-.489-.061-.014q.029-.124.06-.244l.06.016C230.476,99.151,230.456,99.232,230.437,99.315Zm.125-.483-.06-.017q.035-.124.072-.24l.06.018C230.609,98.67,230.585,98.75,230.562,98.832Zm.148-.476-.059-.02c.028-.083.056-.161.083-.237l.059.022Q230.752,98.232,230.71,98.356Zm.172-.468-.058-.023c.033-.084.065-.162.1-.232l.058.024C230.946,97.726,230.914,97.8,230.881,97.887Zm.2-.459-.057-.026c.067-.145.109-.224.111-.227l.055.029S231.143,97.285,231.077,97.428Z" transform="translate(-184.673 -86.797)" fill="#fff"/>
  <path id="Path_25961" data-name="Path 25961" d="M86.415,349.361c-.027-.016-.055-.031-.082-.048A9.812,9.812,0,0,0,85,348.5a.592.592,0,0,1-.055-.031,5.141,5.141,0,0,0-.363.677,8.634,8.634,0,0,0,1.188.9s.3-.249.542-.411A2.288,2.288,0,0,1,86.415,349.361Z" transform="translate(-71.483 -282.193)" fill="#ffd200"/>
</svg>
