<svg id="Basic_Conversation_Topics" data-name="Basic Conversation Topics" xmlns="http://www.w3.org/2000/svg" width="378" height="199" viewBox="0 0 378 199">
  <g id="bg">
    <rect id="bg-2" data-name="bg" width="378" height="199" rx="16" fill="#437a53"/>
  </g>
  <g id="text" transform="translate(8 122)">
    <text id="Read_Fast_Learn_More" data-name="Read Fast Learn More" transform="translate(5 11)" fill="#fff" font-size="14" font-family="KumbhSans-Bold, Kumbh Sans" font-weight="700"><tspan x="0" y="0">Basic Conversation Topics</tspan></text>
    <text id="Read_Fast_Learn_More-2" data-name="Read Fast Learn More" transform="translate(0 30)" fill="#fff" font-size="13" font-family="KumbhSans-Regular, Kumbh Sans"><tspan x="0" y="0">Express Your Ideas and Opinions</tspan></text>
  </g>
  <g id="Group_589" data-name="Group 589" transform="translate(35.265 7.913)">
    <g id="Group_36585" data-name="Group 36585" transform="translate(221.639 8.576)">
      <path id="Path" d="M15.428,1.781,13.119,14.534,0,12.76,2.292,0Z" transform="translate(57.426)" fill="none" stroke="#fff" stroke-miterlimit="10" stroke-width="1"/>
      <path id="Path-2" data-name="Path" d="M10.919,2.364a6.065,6.065,0,0,1-1.485,8.385A5.924,5.924,0,0,1,1.08,9.6,6.066,6.066,0,0,1,2.565,1.22,5.924,5.924,0,0,1,10.919,2.364Z" transform="translate(9.428 58.136)" fill="none" stroke="#fff" stroke-miterlimit="10" stroke-width="1"/>
      <path id="Path-3" data-name="Path" d="M7.02,1.519a3.9,3.9,0,0,1-.956,5.39,3.807,3.807,0,0,1-5.37-.734A3.9,3.9,0,0,1,1.65.785,3.807,3.807,0,0,1,7.02,1.519Z" transform="translate(18.856 5.13)" fill="none" stroke="#d83f3f" stroke-miterlimit="10" stroke-width="1"/>
      <path id="Path-4" data-name="Path" d="M13.714,5.4,2.18,14.534,0,0Z" transform="translate(59.997 55.571)" fill="none" stroke="#22211b" stroke-miterlimit="10" stroke-width="1"/>
      <path id="Path-5" data-name="Path" d="M.018,3.247A8.49,8.49,0,0,0,2.052,1.332c.092-.08.257-1.5.568-1.316S4.6,1.192,4.233,2.309C4.123,2.628,0,7.694,0,7.694V3.047" transform="translate(0 11.969)" fill="#ff7b8c"/>
      <path id="Path-6" data-name="Path" d="M28.21,7.694h0a14.472,14.472,0,0,1-10.8-4.224C14.558.537,10.783-.443,6.26.478h0A21.481,21.481,0,0,0,1.942,1.9c-.544.244-.984.466-1.291.631-.154.082-.275.15-.359.2l-.1.059h0l-.034.021a.135.135,0,0,1-.091.012.087.087,0,0,1-.057-.037.052.052,0,0,1,0-.044.111.111,0,0,1,.042-.062A21.588,21.588,0,0,1,6.308.325c3.54-.709,7.842-.49,11.264,3.037h0A14.326,14.326,0,0,0,28.225,7.536a19.982,19.982,0,0,0,13.6-5.6.144.144,0,0,1,.092-.039.089.089,0,0,1,.067.022.06.06,0,0,1,.02.046.1.1,0,0,1-.026.068,19.2,19.2,0,0,1-8.295,4.822A20.058,20.058,0,0,1,28.21,7.694Z" transform="translate(6 31.633)" fill="none" stroke="#fff" stroke-miterlimit="10" stroke-width="1"/>
    </g>
    <g id="Group_587" data-name="Group 587" transform="translate(0 0)">
      <path id="Path-7" data-name="Path" d="M28.332,6.181c15.647,0,28.332-1.384,28.332-3.091S43.98,0,28.332,0,0,1.384,0,3.091,12.685,6.181,28.332,6.181Z" transform="translate(0 90.663)" fill="#1c1715"/>
      <path id="Path-8" data-name="Path" d="M15.381,1.362c-.335-.223.037,1.918.037,1.918s-5.384,11.173-5.812,12.2C9.2,16.5,1.074,22.87.85,24.006S-2.056,30.617,3.44,30.17c5.477-.466,9.725-12.2,11.066-13.2C15.866,15.943,17.17,4.212,17.337,3.5c.428-1.732-.224-4.246-.894-3.3C15.772,1.139,16.108,1.847,15.381,1.362Z" transform="translate(23.741 0)" fill="#fff"/>
      <path id="Path-9" data-name="Path" d="M4.247,2.553S1.155-.073.708,0s-.931,2.886-.6,3.333S1.565,4.694,2.049,4.527A12.775,12.775,0,0,0,4.247,2.553Z" transform="translate(37.65 5.402)" fill="#22211b"/>
      <path id="Path-10" data-name="Path" d="M15.1,0c2.534,1.061,5.552,7.6,5.552,7.6s-4.415,6.052-5.812,9.236c-1.472,3.315-6.874,12.588-13.134,8.4C-4.83,20.837,9.478,11.974,9.85,11.266Z" transform="translate(22.658 5.049)" fill="#f5c84b"/>
      <path id="Path-11" data-name="Path" d="M3.961,0c-.671,1.21,1.1,5.307,1.1,5.307l-4.3-.261S1.092,1.6.049.372C-.529-.3,4.2.466,4.2.466" transform="translate(23.07 19.966)" fill="#fff"/>
      <path id="Path-12" data-name="Path" d="M4.546,3.161,0,1.28S2.291-.154,2.645.014A22.945,22.945,0,0,1,4.788,2.788" transform="translate(24.572 19.467)" fill="#22211b"/>
      <path id="Path-13" data-name="Path" d="M6.408,1.006,0,20.167s6.241.615,7.117.5c.894-.093-1.509-2.644-1.9-3.2S12.8,0,12.8,0Z" transform="translate(5.273 73.167)" fill="#fff"/>
      <path id="Path-14" data-name="Path" d="M0,5.493C7.694,4.637,8.83,2.03,8.83,2.03L2.962,0Z" transform="translate(4.36 81.788)" fill="#1c1715"/>
      <path id="Path-15" data-name="Path" d="M0,0V23.779s6.259.075,7.135-.092-2.85-2.7-3.3-3.222S5.812,2.16,5.812,2.16Z" transform="translate(30.478 69.852)" fill="#fff"/>
      <path id="Path-16" data-name="Path" d="M0,5.642a21.789,21.789,0,0,0,7.34-3.91L1.9,0Z" transform="translate(28.131 80.038)" fill="#1c1715"/>
      <path id="Path-17" data-name="Path" d="M7.3,43.611a19.524,19.524,0,0,0,16.506-4.935s-3.577-15.568-4.9-18.9S12.035,0,12.035,0L0,6S5.533,17.579,9.706,24.878C10.488,29.943,7.3,43.611,7.3,43.611Z" transform="translate(17.642 39.909)" fill="#00378d"/>
      <path id="Path-18" data-name="Path" d="M3.67,1.6,8.849.149,10.134,0S11.7.67,9.967,5.959c-1.733,5.27,1.379,9.609-1.174,12.029S0,13.556,0,13.556Z" transform="translate(18.648 48.009)" fill="#1c1715"/>
      <path id="Path-19" data-name="Path" d="M6.241,8.007c3.447,0,6.241-1.793,6.241-4S9.688,0,6.241,0,0,1.793,0,4,2.794,8.007,6.241,8.007Z" transform="translate(13.991 13.094)" fill="#1c1715"/>
      <path id="Path-20" data-name="Path" d="M0,40.353c2.776,9.46,17.084,6.35,19.133,2.849s6-19.459,6-19.459l5.7-21.917L18.07,0s-1.136,1.732-4.546,21.322C12.165,29.068,0,40.353,0,40.353Z" transform="translate(0.018 38.233)" fill="#00378d"/>
      <path id="Path-21" data-name="Path" d="M0,19.106C13.208,14.45,9.668,9.795,17.158,8.417s7.1-5.847,7.1-5.847L8.83.745h0C5.719,2.421,0,19.106,0,19.106Z" transform="translate(6.577 37.488)" fill="#1c1715"/>
      <path id="Path-22" data-name="Path" d="M0,15.914c8.141,10.484,19.226.968,19.226.968s-2.385-7.616-.149-9.776c2.236-2.141.689-5.028-6.912-7.058,0,0-1.043-1.006-3.428,6.108A17.018,17.018,0,0,1,0,15.914Z" transform="translate(12.296 23.994)" fill="#ffc754"/>
      <path id="Path-23" data-name="Path" d="M9.967,9.236S-.019,7.094,0,2.644,5.328.707,5.328.707s3.8,6.313,4.21,7.411Z" transform="translate(24.573 25.794)" fill="#1c1715"/>
      <path id="Path-24" data-name="Path" d="M3,0C4.414,1.322,5.588,3.5,4.712,4.581S1.322,6.424.558,5.214.036,1.061.036,1.061Z" transform="translate(22.58 15.887)" fill="#fff"/>
      <path id="Path-25" data-name="Path" d="M5.085,4.092C5.612,2.264,4.942.466,3.588.075S.708.85.18,2.678.323,6.3,1.677,6.7,4.557,5.92,5.085,4.092Z" transform="translate(20.417 14.043)" fill="#1c1715"/>
      <path id="Path-26" data-name="Path" d="M1.043,1.564c.576,0,1.043-.35,1.043-.782S1.619,0,1.043,0,0,.35,0,.782.467,1.564,1.043,1.564Z" transform="translate(22.486 19.965)" fill="#fff"/>
      <path id="Path-27" data-name="Path" d="M22.7.925c-.242-.317-.54,1.844-.54,1.844s-8.476,9.05-9.184,9.907S2.621,17.181,2.08,18.187c-.54,1.024-4.751,5.456.615,6.648,5.365,1.21,13.339-8.845,14.922-9.4,1.6-.559,5.98-11.247,6.334-11.9.876-1.639,1.062-4.115.13-3.408S23.244,1.6,22.7.925Z" transform="translate(23.833 5.689)" fill="#fff"/>
      <path id="Path-28" data-name="Path" d="M4.6,4.544.2,0,0,3.985s.428.987.559.968S4.6,4.544,4.6,4.544Z" transform="translate(43.928 9.742)" fill="#22211b"/>
      <path id="Path-29" data-name="Path" d="M21.254,0c2.105,1.769,3.018,8.92,3.018,8.92S18.255,13.37,15.963,16c-2.385,2.719-10.321,9.963-15.034,4.1C-4.008,13.929,12.312,9.758,12.871,9.2Z" transform="translate(22.879 9.724)" fill="#ffc754"/>
    </g>
    <g id="Group_36586" data-name="Group 36586" transform="translate(69.493 8.576)">
      <path id="Path-30" data-name="Path" d="M0,3.65l6.719,9.3a43.166,43.166,0,0,0,.158,4.343l4.071-4.955L4.032,0Z" transform="translate(34.671 67.347)" fill="#ff7b8c"/>
      <path id="Path-31" data-name="Path" d="M3.34,7.406C7.552,3.808,8.212,0,8.212,0H0L1.893,9.1" transform="translate(33.759 72.806)" fill="#1c1715"/>
      <path id="Path-32" data-name="Path" d="M1.77,0l.423,11.432A30.452,30.452,0,0,0,0,14.439l6.387.123V.92Z" transform="translate(19.16 70.077)" fill="#ff7b8c"/>
      <path id="Path-33" data-name="Path" d="M0,6.371c4.341-.982,10.036-4.588,10.036-4.588L2.9,0Z" transform="translate(15.511 72.806)" fill="#22211b"/>
      <path id="Path-34" data-name="Path" d="M14.751,44.594c2.86-.68,9.092-8.677,8.969-10.7,0,0-7.4-9.048-8.581-13.088,0,0,.347-19.621-1.512-20.734S0,10.587,0,10.587l2.881.763C2.9,11.349,10.747,40.163,14.751,44.594Z" transform="translate(20.985 34.583)" fill="#22211b"/>
      <path id="Path-35" data-name="Path" d="M2.062,21.48c9.664-2.523,7.667-12.433,9.685-15.387A6.477,6.477,0,0,0,12.214,0S-.147,11.981,0,12.9s1.274,9.848,1.274,9.848" transform="translate(21.898 40.044)" fill="#19150b"/>
      <path id="Path-36" data-name="Path" d="M5.811,0c-3.7.7-3.76.993-3.7,1.468s0,2.193,0,2.193L0,4.9,2.634,8.191l2.594-.476V5.626L7.3,4.509Z" transform="translate(24.635 9.101)" fill="#ff7b8c"/>
      <path id="Path-37" data-name="Path" d="M2,0l.7,1.775.036.546-.984-.592L0,1.57,1.038,2.73Z" transform="translate(23.722 10.92)" fill="#22211b"/>
      <path id="Path-38" data-name="Path" d="M2.281,3.64A2.09,2.09,0,0,0,4.562,1.82,2.09,2.09,0,0,0,2.281,0,2.09,2.09,0,0,0,0,1.82,2.09,2.09,0,0,0,2.281,3.64Z" transform="translate(29.197 6.371)" fill="#22211b"/>
      <path id="Path-39" data-name="Path" d="M2.281,3.64A2.09,2.09,0,0,0,4.562,1.82,2.09,2.09,0,0,0,2.281,0,2.09,2.09,0,0,0,0,1.82,2.09,2.09,0,0,0,2.281,3.64Z" transform="translate(29.197 10.92)" fill="#22211b"/>
      <path id="Path-40" data-name="Path" d="M2.281,3.64A2.09,2.09,0,0,0,4.562,1.82,2.09,2.09,0,0,0,2.281,0,2.09,2.09,0,0,0,0,1.82,2.09,2.09,0,0,0,2.281,3.64Z" transform="translate(30.109 8.191)" fill="#22211b"/>
      <path id="Path-41" data-name="Path" d="M1.825,3.64A1.82,1.82,0,1,0,0,1.82,1.823,1.823,0,0,0,1.825,3.64Z" transform="translate(31.934 7.281)" fill="#22211b"/>
      <path id="Path-42" data-name="Path" d="M1.825,3.64A1.82,1.82,0,1,0,0,1.82,1.822,1.822,0,0,0,1.825,3.64Z" transform="translate(31.934 9.101)" fill="#22211b"/>
      <path id="Path-43" data-name="Path" d="M4.992,0C2.7.641-1,5.005.25,6.391c1.267,1.406,7.909,0,9.83,2.192S18.091,18.16,24.958,18.2c6.887.062,3.311-6.991,3.311-6.991Z" transform="translate(0 10.92)" fill="#eddfca"/>
      <path id="Path-44" data-name="Path" d="M1.218,42.774a16.713,16.713,0,0,0,12.222-5.4S8.816,25.164,10.283,22.11C11.77,19.056,19.531,5.4,18.064,0H3.989S.2,17.02.017,18.995C-.167,20.99,1.218,42.774,1.218,42.774Z" transform="translate(17.336 33.673)" fill="#22211b"/>
      <path id="Path-45" data-name="Path" d="M3.237,15.471C13.361,14.789,9.254,4.311,17.3,5.555c8.07,1.245,9.688-.763,10.062-2.208S13.05-.306,12.324.035,7.781,0,7.117.6C6.453,1.179-.1,8.285,0,9.771S3.237,15.471,3.237,15.471Z" transform="translate(8.212 34.583)" fill="#19150b"/>
      <path id="Path-46" data-name="Path" d="M5.536,0s-9.725,21.751-3.4,24.269c8.238,3.31,13.583,2.965,14.929-2.559C18.436,16.186,14.538,1.279,5.536,0Z" transform="translate(20.073 12.741)" fill="#fff"/>
      <path id="Path-47" data-name="Path" d="M14.651,0s4,1.874,1.016,8.794C9.632,22.819,27.311,19.75,24.283,22.242,21.255,24.755,0,24.569,0,24.569L2.784,5.911Z" transform="translate(12.774 16.381)" fill="#f9f0e1"/>
      <path id="Path-48" data-name="Path" d="M4.543,3.456A9.039,9.039,0,0,1,2.377,1.418c-.1-.085-.273-1.592-.6-1.4S-.334,1.269.056,2.458c.117.34,4.506,5.732,4.506,5.732V3.244" transform="translate(5.474 0)" fill="#ff7b8c"/>
      <path id="Path-49" data-name="Path" d="M.333,7.175C-1.71,4.053,6.318,0,6.318,0S17.389,6.968,19.043,7.92c1.634.951,6.393,2.647,7.129,6.245s.429,10.546-5.392,8.064c-2.7-1.158-5.352-8.933-7.149-9.16C13.63,13.048,3.213,11.559.333,7.175Z" transform="translate(3.65 2.73)" fill="#fff"/>
      <path id="Path-50" data-name="Path" d="M.362,1.786A11.119,11.119,0,0,0,3.524.283C3.6.214,3.731.1,3.581.029A.514.514,0,0,0,3.129.1,9.231,9.231,0,0,1,.287,1.462c-.094.023-.32.116-.282.254C.023,1.878.287,1.809.362,1.786Z" transform="translate(20.073 72.806)" fill="#0a0801"/>
      <path id="Path-51" data-name="Path" d="M.068.883c1.015.126,2.327-.2,2.665-.823C2.775-.023,2.5,0,2.437,0A1.47,1.47,0,0,0,2.162.06a.417.417,0,0,0-.148.07,1.288,1.288,0,0,1-.656.5s-.063.028-.021,0c-.021,0-.042.014-.063.014S1.231.66,1.21.66h0c-.021,0-.042.014-.063.014A.052.052,0,0,0,1.1.688h.021C1.1.688,1.083.7,1.062.7,1.02.7,1,.73,1.062.7,1.041.716.914.716,1,.716H.787A.228.228,0,0,1,.681.7,1.227,1.227,0,0,0,.174.758C.089.772-.1.855.068.883Z" transform="translate(32.846 55.515)" fill="#0a0801"/>
    </g>
  </g>
  <g id="Group_37453" data-name="Group 37453" transform="translate(13.484 170.328)">
    <text id="Completed" transform="translate(19.707 11.074)" fill="#fff" font-size="12" font-family="KumbhSans-Bold, Kumbh Sans" font-weight="700"><tspan x="0" y="0">COMPLETED</tspan></text>
    <g id="noun_complete_3202980" transform="translate(0 0)">
      <path id="Path_35887" data-name="Path 35887" d="M18.1,5.48a.638.638,0,0,0-.779,1.01,4.7,4.7,0,0,1,1.833,3.738,4.749,4.749,0,1,1-5.124-4.72l-.592.592a.636.636,0,0,0,0,.895.627.627,0,0,0,.895,0l1.689-1.689a.627.627,0,0,0,0-.895l-1.689-1.7a.633.633,0,1,0-.895.895l.621.621A5.994,5.994,0,1,0,18.1,5.48Z" transform="translate(-8.4 -2.525)" fill="#fff"/>
      <path id="Path_35888" data-name="Path 35888" d="M33.034,44.354l-.965-.965a.613.613,0,1,0-.867.867l1.4,1.4a.608.608,0,0,0,.867,0l2.684-2.684a.613.613,0,1,0-.867-.867Z" transform="translate(-27.913 -35.701)" fill="#fff"/>
    </g>
  </g>
</svg>
