<svg xmlns="http://www.w3.org/2000/svg" width="78.854" height="89.902" viewBox="0 0 78.854 89.902">
  <g id="customer-service" transform="translate(-31.46)">
    <path id="Path_44255" data-name="Path 44255" d="M156.992,49.4,139.4,53.977a6.723,6.723,0,0,1-3.318.017l-18.557-4.627a6.607,6.607,0,0,1-5.008-6.41V22.681A22.681,22.681,0,0,1,135.2,0h4.056a22.681,22.681,0,0,1,22.681,22.681V43.009A6.607,6.607,0,0,1,156.992,49.4Z" transform="translate(-66.825)" fill="#fd9727"/>
    <path id="Path_44256" data-name="Path 44256" d="M231.638,0h-4.056a22.9,22.9,0,0,0-3,.2,22.685,22.685,0,0,1,19.677,22.483V43.009a6.607,6.607,0,0,1-4.944,6.394l-14.32,3.724,3.477.867a6.721,6.721,0,0,0,3.318-.017L249.375,49.4a6.607,6.607,0,0,0,4.944-6.394V22.681A22.681,22.681,0,0,0,231.638,0Z" transform="translate(-159.208)" fill="#ff6d3a"/>
    <g id="Group_41582" data-name="Group 41582" transform="translate(44.182 25.09)">
      <path id="Path_44257" data-name="Path 44257" d="M106.475,154.643h4.813V142.892h-4.813a2.56,2.56,0,0,0-2.56,2.56v6.63A2.56,2.56,0,0,0,106.475,154.643Z" transform="translate(-103.915 -142.892)" fill="#3d6687"/>
      <path id="Path_44258" data-name="Path 44258" d="M370.907,154.643h-4.813V142.892h4.813a2.56,2.56,0,0,1,2.56,2.56v6.63A2.56,2.56,0,0,1,370.907,154.643Z" transform="translate(-320.058 -142.892)" fill="#3d6687"/>
    </g>
    <path id="Path_44259" data-name="Path 44259" d="M206.723,271.839a3.6,3.6,0,0,1-2.894-3.534V260.18H187.882v8.125a3.6,3.6,0,0,1-2.894,3.534l-1.943.391v13.048h25.62V272.229Z" transform="translate(-124.968 -214.495)" fill="#fed9a8"/>
    <path id="Path_44260" data-name="Path 44260" d="M98.355,327.811l-15.992-4.986a1.436,1.436,0,0,0-1.415.329l-10.061,9.534-10.061-9.534a1.436,1.436,0,0,0-1.415-.329l-15.992,4.986A16.666,16.666,0,0,0,31.46,343.8v10.654A1.536,1.536,0,0,0,33,355.989h75.783a1.536,1.536,0,0,0,1.536-1.536V343.8A16.666,16.666,0,0,0,98.355,327.811Z" transform="translate(0 -266.087)" fill="#d93a32"/>
    <path id="Path_44261" data-name="Path 44261" d="M321.875,327.811l-15.992-4.986a1.436,1.436,0,0,0-1.415.329l-1.881,1.782,9.223,2.876A16.666,16.666,0,0,1,323.768,343.8v12.19h8.53a1.536,1.536,0,0,0,1.536-1.536V343.8A16.666,16.666,0,0,0,321.875,327.811Z" transform="translate(-223.52 -266.087)" fill="#ef2929"/>
    <path id="Path_44262" data-name="Path 44262" d="M162.687,85.805h0a19.874,19.874,0,0,1-19.874-19.874V60.345a19.875,19.875,0,0,1,19.874-19.874h0a19.875,19.875,0,0,1,19.874,19.874v5.585A19.874,19.874,0,0,1,162.687,85.805Z" transform="translate(-91.801 -33.365)" fill="#fed9a8"/>
    <path id="Path_44263" data-name="Path 44263" d="M242.179,55.2V78.074A19.882,19.882,0,0,1,227.337,97.3a19.907,19.907,0,0,0,5.033.644h0a19.874,19.874,0,0,0,19.874-19.874V72.488A19.866,19.866,0,0,0,242.179,55.2Z" transform="translate(-161.483 -45.507)" fill="#f4c892"/>
    <g id="Group_41583" data-name="Group 41583" transform="translate(52.747 56.673)">
      <path id="Path_44264" data-name="Path 44264" d="M160.769,323.155l10.061,9.534-6.2,2.114a3.966,3.966,0,0,1-4.261-1.14L152.69,324.9l6.664-2.078A1.436,1.436,0,0,1,160.769,323.155Z" transform="translate(-152.69 -322.761)" fill="#d4145a"/>
      <path id="Path_44265" data-name="Path 44265" d="M266.061,323.155,256,332.689l5.623,1.916a4.883,4.883,0,0,0,5.247-1.4l7.27-8.3-6.664-2.078A1.436,1.436,0,0,0,266.061,323.155Z" transform="translate(-237.86 -322.761)" fill="#d4145a"/>
    </g>
    <path id="Path_44266" data-name="Path 44266" d="M135.532,436.158H125.3a1.028,1.028,0,0,1-1.028-1.028V430.6a1.028,1.028,0,0,1,1.028-1.028h10.229a1.028,1.028,0,0,1,1.028,1.028v4.531A1.028,1.028,0,0,1,135.532,436.158Z" transform="translate(-76.517 -354.142)" fill="#eda558"/>
    <path id="Path_44267" data-name="Path 44267" d="M161.936,26.871s-8.575-.681-11.509-8.568c0,0-20.728,16.6-37.91,8.568V22.681A22.681,22.681,0,0,1,135.2,0h4.056a22.681,22.681,0,0,1,22.681,22.681Z" transform="translate(-66.824)" fill="#fd9727"/>
    <path id="Path_44268" data-name="Path 44268" d="M231.638,0h-4.056a22.9,22.9,0,0,0-3,.2A22.688,22.688,0,0,1,244.191,21c3.616,5.353,10.128,5.871,10.128,5.871V22.681A22.681,22.681,0,0,0,231.638,0Z" transform="translate(-159.208)" fill="#ff6d3a"/>
    <g id="Group_41584" data-name="Group 41584" transform="translate(40.331 74.772)">
      <path id="Path_44269" data-name="Path 44269" d="M415.911,425.836a1.358,1.358,0,0,0-1.358,1.358v13.771h2.716V427.194A1.358,1.358,0,0,0,415.911,425.836Z" transform="translate(-356.156 -425.836)" fill="#d4145a"/>
      <path id="Path_44270" data-name="Path 44270" d="M83.337,425.836a1.358,1.358,0,0,0-1.358,1.358v13.771h2.716V427.194A1.358,1.358,0,0,0,83.337,425.836Z" transform="translate(-81.979 -425.836)" fill="#d4145a"/>
    </g>
    <path id="Path_44271" data-name="Path 44271" d="M285.835,209.813v2.477A4.36,4.36,0,0,1,282.2,216.6l-13.665,2.343a1.357,1.357,0,1,0,.458,2.674l13.665-2.343a7.068,7.068,0,0,0,5.887-6.982v-2.477Z" transform="translate(-194.52 -172.972)" fill="#3d6687"/>
    <path id="Path_44272" data-name="Path 44272" d="M263.865,256.361a2.626,2.626,0,0,1-.441-5.213l4.427-.759a2.625,2.625,0,0,1,.888,5.175l-4.427.759A2.655,2.655,0,0,1,263.865,256.361Z" transform="translate(-189.435 -206.391)" fill="#d4145a"/>
  </g>
</svg>
