<svg xmlns="http://www.w3.org/2000/svg" width="92" height="106.337" viewBox="0 0 92 106.337">
  <g id="earning_big" transform="translate(-1079 -3199)">
    <text id="_03" data-name="03" transform="translate(1125 3275)" fill="#009ff4" font-size="79" font-family="Geometric415BT-BlackA, Geometr415 Blk BT" font-weight="800" opacity="0.1"><tspan x="-45.749" y="0">03</tspan></text>
    <g id="earn-money" transform="translate(1098.006 3239.995)">
      <path id="Path_44204" data-name="Path 44204" d="M128.33,333.49h5.506l11.237-9.317a3.846,3.846,0,0,1,4.789,6.019l-13.916,10.88a16.924,16.924,0,0,1-10.81,3.9c-2.356,0-1.812-.139-25.137-3.828V325.833s3.428-3.828,7.657-3.828,7.657,3.828,7.657,3.828H128.33a3.828,3.828,0,1,1,0,7.657Z" transform="translate(-87.239 -280.909)" fill="#ffd0c7"/>
      <ellipse id="Ellipse_574" data-name="Ellipse 574" cx="15.5" cy="15" rx="15.5" ry="15" transform="translate(20.994 2.342)" fill="#67dd9c"/>
      <path id="Path_44205" data-name="Path 44205" d="M21.485,344.975H10v-22.97h7.657a3.828,3.828,0,0,1,3.828,3.828Z" transform="translate(-8.724 -280.909)" fill="#ff7d97"/>
      <path id="Path_44206" data-name="Path 44206" d="M71.1,10.214a1.276,1.276,0,0,0,1.276-1.276V6.386h2.552a1.276,1.276,0,0,0,0-2.552H72.381V1.281a1.276,1.276,0,1,0-2.552,0V3.833H67.276a1.276,1.276,0,1,0,0,2.552h2.552V8.938A1.276,1.276,0,0,0,71.1,10.214Z" transform="translate(-57.578 0)"/>
      <path id="Path_44207" data-name="Path 44207" d="M437.1,190.214a1.276,1.276,0,0,0,1.276-1.276v-2.552h2.552a1.276,1.276,0,1,0,0-2.552h-2.552v-2.552a1.276,1.276,0,1,0-2.552,0v2.552h-2.552a1.276,1.276,0,1,0,0,2.552h2.552v2.552A1.276,1.276,0,0,0,437.1,190.214Z" transform="translate(-376.872 -157.03)"/>
      <path id="Path_44208" data-name="Path 44208" d="M156,16.594A16.589,16.589,0,1,0,172.589.005,16.608,16.608,0,0,0,156,16.594Zm2.552,0A14.056,14.056,0,0,1,171.313,2.616V7.823a5.1,5.1,0,0,0,1.276,10.047,2.552,2.552,0,1,1-2.552,2.552,1.276,1.276,0,0,0-2.552,0,5.114,5.114,0,0,0,3.828,4.943v5.207a14.056,14.056,0,0,1-12.761-13.979Zm28.074,0a14.056,14.056,0,0,1-12.761,13.979V25.366a5.1,5.1,0,0,0-1.276-10.047,2.552,2.552,0,1,1,2.552-2.552,1.276,1.276,0,1,0,2.552,0,5.114,5.114,0,0,0-3.828-4.943V2.616A14.056,14.056,0,0,1,186.627,16.594Z" transform="translate(-136.093 0)"/>
      <circle id="Ellipse_575" data-name="Ellipse 575" cx="1.5" cy="1.5" r="1.5" transform="translate(23.994 61.342)"/>
      <path id="Path_44209" data-name="Path 44209" d="M57.045,314.446c-.032.025.537-.445-10.908,9.043h-.629a5.1,5.1,0,0,0-4.418-7.657H28.613c-1.107-1.082-4.3-3.828-8.195-3.828a11.657,11.657,0,0,0-6.96,2.747A5.109,5.109,0,0,0,8.933,312H1.276A1.276,1.276,0,0,0,0,313.28v22.97a1.276,1.276,0,0,0,1.276,1.276H12.761a1.276,1.276,0,0,0,1.276-1.276V333.92l5.61.9a1.276,1.276,0,1,0,.406-2.52l-6.016-.968v-13.7c.887-.856,3.466-3.074,6.381-3.074,3.592,0,6.677,3.371,6.706,3.4a1.276,1.276,0,0,0,.951.425H41.091a2.552,2.552,0,0,1,0,5.1h-11.1a1.276,1.276,0,1,0,0,2.552H46.6a1.276,1.276,0,0,0,.815-.294l11.224-9.306a2.57,2.57,0,0,1,3.195,4.026l-13.937,10.9a15.679,15.679,0,0,1-9.995,3.608c-1.941,0-2.928-.31-6.5-.845a1.276,1.276,0,1,0-.406,2.52c3.509.521,4.689.878,6.911.878a18.237,18.237,0,0,0,11.61-4.185l13.915-10.879a5.122,5.122,0,0,0-6.378-8.017Zm-45.56,20.529H2.552V314.556H8.933a2.555,2.555,0,0,1,2.552,2.552Z" transform="translate(0 -272.184)"/>
    </g>
  </g>
</svg>
