<svg xmlns="http://www.w3.org/2000/svg" width="79.062" height="79.07" viewBox="0 0 79.062 79.07">
  <g id="Get_Paid" transform="translate(-1530.286 -114.26)">
    <g id="Group_37" data-name="Group 37" transform="translate(1539.23 130.173)">
      <g id="Group_3" data-name="Group 3" transform="translate(12.278 4.621)">
        <g id="Group_1" data-name="Group 1" transform="translate(0.513 0.513)">
          <rect id="Rectangle_2" data-name="Rectangle 2" width="42.747" height="41.591" rx="8" fill="#d9ebfc"/>
        </g>
        <g id="Group_2" data-name="Group 2">
          <path id="Path_1" data-name="Path 1" d="M1699.065,279.321h-40.693a1.542,1.542,0,0,1-1.54-1.54V238.243a1.542,1.542,0,0,1,1.54-1.54h40.693a1.542,1.542,0,0,1,1.54,1.54v39.537A1.542,1.542,0,0,1,1699.065,279.321Zm-40.693-41.591a.514.514,0,0,0-.513.514v39.537a.514.514,0,0,0,.513.514h40.693a.514.514,0,0,0,.513-.514V238.243a.514.514,0,0,0-.513-.514Z" transform="translate(-1656.831 -236.703)" fill="#282c49"/>
        </g>
      </g>
      <g id="Group_6" data-name="Group 6" transform="translate(12.278 4.621)">
        <g id="Group_4" data-name="Group 4" transform="translate(0.513 0.513)">
          <path id="Rectangle_3" data-name="Rectangle 3" d="M8,0H34.747a8,8,0,0,1,8,8v.857a0,0,0,0,1,0,0H0a0,0,0,0,1,0,0V8A8,8,0,0,1,8,0Z" fill="#db2e2e"/>
        </g>
        <g id="Group_5" data-name="Group 5">
          <path id="Path_2" data-name="Path 2" d="M1700.6,246.587h-43.774v-8.344a1.542,1.542,0,0,1,1.54-1.54h40.693a1.542,1.542,0,0,1,1.54,1.54Zm-42.747-1.027h41.719v-7.317a.514.514,0,0,0-.513-.514h-40.693a.514.514,0,0,0-.513.514Z" transform="translate(-1656.831 -236.703)" fill="#282c49"/>
        </g>
      </g>
      <g id="Group_7" data-name="Group 7" transform="translate(7.015 5.135)">
        <rect id="Rectangle_4" data-name="Rectangle 4" width="42.747" height="41.591" rx="8" fill="#f3f8fe"/>
      </g>
      <g id="Group_8" data-name="Group 8" transform="translate(14.638 36.842)" opacity="0.7">
        <path id="Path_3" data-name="Path 3" d="M1706.024,437.683l.257-8.857-2.182,3.209-3.466,2.054-3.851-.128h-3.723l-20.539.128c-.437,0-1.672-1.671-1.618-1.237a6.547,6.547,0,0,0,6.5,5.73h28.1A1.026,1.026,0,0,0,1706.024,437.683Z" transform="translate(-1670.9 -428.826)" fill="#d9ebfc"/>
      </g>
      <g id="Group_9" data-name="Group 9" transform="translate(7.015 5.135)" opacity="0.8">
        <path id="Path_4" data-name="Path 4" d="M1651.656,274.68l-19.38-34.916h-5.8a1.027,1.027,0,0,0-1.027,1.027V274.68Z" transform="translate(-1625.448 -239.764)" fill="#fff"/>
      </g>
      <g id="Group_10" data-name="Group 10" transform="translate(6.502 4.621)">
        <path id="Path_5" data-name="Path 5" d="M1664.62,279.321h-40.693a1.542,1.542,0,0,1-1.54-1.54V238.243a1.542,1.542,0,0,1,1.54-1.54h40.693a1.542,1.542,0,0,1,1.54,1.54v39.537A1.542,1.542,0,0,1,1664.62,279.321Zm-40.693-41.591a.514.514,0,0,0-.514.514v39.537a.514.514,0,0,0,.514.514h40.693a.514.514,0,0,0,.513-.514V238.243a.514.514,0,0,0-.513-.514Z" transform="translate(-1622.387 -236.703)" fill="#282c49"/>
      </g>
      <g id="Group_11" data-name="Group 11" transform="translate(7.015 5.135)">
        <path id="Rectangle_5" data-name="Rectangle 5" d="M8,0H34.747a8,8,0,0,1,8,8v.857a0,0,0,0,1,0,0H0a0,0,0,0,1,0,0V8A8,8,0,0,1,8,0Z" fill="#f74f4c"/>
      </g>
      <g id="Group_12" data-name="Group 12" transform="translate(18.108 5.135)" opacity="0.3">
        <path id="Path_6" data-name="Path 6" d="M1696.4,248.622h1.435l-5-8.857h-1.239Z" transform="translate(-1691.591 -239.764)" fill="#db2e2e"/>
      </g>
      <g id="Group_13" data-name="Group 13" transform="translate(32.485 5.135)" opacity="0.3">
        <path id="Path_7" data-name="Path 7" d="M1782.126,248.622h1.435l-5-8.857h-1.239Z" transform="translate(-1777.319 -239.764)" fill="#db2e2e"/>
      </g>
      <g id="Group_14" data-name="Group 14" transform="translate(47.119 5.135)" opacity="0.3">
        <path id="Path_8" data-name="Path 8" d="M1866.965,241.8l-1.147-2.031h-1.239l2.386,4.4Z" transform="translate(-1864.579 -239.764)" fill="#db2e2e"/>
      </g>
      <g id="Group_15" data-name="Group 15" transform="translate(7.015 5.135)">
        <path id="Path_9" data-name="Path 9" d="M1631.746,239.764h-5.271a1.027,1.027,0,0,0-1.027,1.027v7.83h11.3Z" transform="translate(-1625.448 -239.764)" fill="#f97270"/>
      </g>
      <g id="Group_16" data-name="Group 16" transform="translate(14.23 10.783)" opacity="0.3">
        <path id="Path_10" data-name="Path 10" d="M1668.47,273.444l1.881,3.466h1.435l-1.958-3.466Z" transform="translate(-1668.47 -273.444)" fill="#db2e2e"/>
      </g>
      <g id="Group_17" data-name="Group 17" transform="translate(28.351 10.783)" opacity="0.3">
        <path id="Path_11" data-name="Path 11" d="M1752.668,273.444l1.881,3.466h1.435l-1.958-3.466Z" transform="translate(-1752.668 -273.444)" fill="#db2e2e"/>
      </g>
      <g id="Group_18" data-name="Group 18" transform="translate(42.856 10.783)" opacity="0.3">
        <path id="Path_12" data-name="Path 12" d="M1839.162,273.444l1.881,3.466h1.435l-1.958-3.466Z" transform="translate(-1839.162 -273.444)" fill="#db2e2e"/>
      </g>
      <g id="Group_19" data-name="Group 19" transform="translate(6.502 4.621)">
        <path id="Path_13" data-name="Path 13" d="M1666.161,246.587h-43.773v-8.344a1.542,1.542,0,0,1,1.54-1.54h40.693a1.542,1.542,0,0,1,1.54,1.54Zm-42.747-1.027h41.72v-7.317a.514.514,0,0,0-.513-.514h-40.693a.514.514,0,0,0-.514.514Z" transform="translate(-1622.387 -236.703)" fill="#282c49"/>
      </g>
      <g id="Group_20" data-name="Group 20" transform="translate(41.29 8.087)">
        <circle id="Ellipse_1" data-name="Ellipse 1" cx="1.669" cy="1.669" r="1.669" fill="#d9ebfc"/>
      </g>
      <g id="Group_21" data-name="Group 21" transform="translate(40.776 7.574)">
        <path id="Path_14" data-name="Path 14" d="M1828.939,258.672a2.182,2.182,0,1,1,2.182-2.182A2.185,2.185,0,0,1,1828.939,258.672Zm0-3.338a1.155,1.155,0,1,0,1.155,1.155A1.157,1.157,0,0,0,1828.939,255.335Z" transform="translate(-1826.757 -254.308)" fill="#282c49"/>
      </g>
      <g id="Group_22" data-name="Group 22" transform="translate(26.656 8.087)">
        <circle id="Ellipse_2" data-name="Ellipse 2" cx="1.669" cy="1.669" r="1.669" fill="#d9ebfc"/>
      </g>
      <g id="Group_23" data-name="Group 23" transform="translate(26.142 7.574)">
        <path id="Path_15" data-name="Path 15" d="M1741.68,258.672a2.182,2.182,0,1,1,2.182-2.182A2.185,2.185,0,0,1,1741.68,258.672Zm0-3.338a1.155,1.155,0,1,0,1.156,1.155A1.157,1.157,0,0,0,1741.68,255.335Z" transform="translate(-1739.498 -254.308)" fill="#282c49"/>
      </g>
      <g id="Group_24" data-name="Group 24" transform="translate(12.15 8.087)">
        <circle id="Ellipse_3" data-name="Ellipse 3" cx="1.669" cy="1.669" r="1.669" fill="#d9ebfc"/>
      </g>
      <g id="Group_25" data-name="Group 25" transform="translate(11.637 7.574)">
        <path id="Path_16" data-name="Path 16" d="M1655.186,258.672a2.182,2.182,0,1,1,2.182-2.182A2.185,2.185,0,0,1,1655.186,258.672Zm0-3.338a1.155,1.155,0,1,0,1.156,1.155A1.157,1.157,0,0,0,1655.186,255.335Z" transform="translate(-1653.004 -254.308)" fill="#282c49"/>
      </g>
      <g id="Group_27" data-name="Group 27" transform="translate(8.684)">
        <g id="Group_26" data-name="Group 26">
          <path id="Path_17" data-name="Path 17" d="M1640.534,219.417a5.135,5.135,0,1,1,5.135-5.135.514.514,0,0,1-1.027,0,4.108,4.108,0,1,0-4.108,4.108.514.514,0,0,1,0,1.027Z" transform="translate(-1635.399 -209.147)" fill="#282c49"/>
        </g>
      </g>
      <g id="Group_29" data-name="Group 29" transform="translate(23.254)">
        <g id="Group_28" data-name="Group 28">
          <path id="Path_18" data-name="Path 18" d="M1727.411,219.417a5.135,5.135,0,1,1,5.135-5.135.513.513,0,1,1-1.027,0,4.108,4.108,0,1,0-4.108,4.108.514.514,0,1,1,0,1.027Z" transform="translate(-1722.276 -209.147)" fill="#282c49"/>
        </g>
      </g>
      <g id="Group_31" data-name="Group 31" transform="translate(37.824)">
        <g id="Group_30" data-name="Group 30">
          <path id="Path_19" data-name="Path 19" d="M1814.287,219.417a5.135,5.135,0,1,1,5.135-5.135.513.513,0,1,1-1.027,0,4.108,4.108,0,1,0-4.108,4.108.514.514,0,0,1,0,1.027Z" transform="translate(-1809.152 -209.147)" fill="#282c49"/>
        </g>
      </g>
      <g id="Group_32" data-name="Group 32" transform="translate(23.357 20.212)">
        <path id="Path_20" data-name="Path 20" d="M1726.017,335.453h-2.632a.516.516,0,0,1-.494-.521v-1.727a.771.771,0,0,1,.165-.411l4-3.126h2.523a.515.515,0,0,1,.493.521v17.6a.515.515,0,0,1-.493.521h-3.043a.521.521,0,0,1-.521-.521Z" transform="translate(-1722.891 -329.668)" fill="#282c49"/>
      </g>
      <g id="Group_33" data-name="Group 33" transform="translate(42.702 35.045)">
        <path id="Path_21" data-name="Path 21" d="M1838.752,425.684a.514.514,0,0,1,0-1.027,6.04,6.04,0,0,0,6.034-6.033.513.513,0,1,1,1.027,0A7.068,7.068,0,0,1,1838.752,425.684Z" transform="translate(-1838.239 -418.11)" fill="#282c49"/>
      </g>
      <g id="Group_34" data-name="Group 34" transform="translate(0.513 35.558)">
        <path id="Path_22" data-name="Path 22" d="M1629.38,427.719h-36.2a6.547,6.547,0,0,1-6.5-5.73.73.73,0,0,1,.726-.817h34.729a.736.736,0,0,1,.728.669A6.547,6.547,0,0,0,1629.38,427.719Z" transform="translate(-1586.679 -421.172)" fill="#f3f8fe"/>
      </g>
      <g id="Group_35" data-name="Group 35" transform="translate(36.883 37.74)" opacity="0.7">
        <path id="Path_23" data-name="Path 23" d="M1809.874,439.062c-1.669,0-5.594-2.071-6.332-4.878h3.712a.735.735,0,0,1,.728.669,6.529,6.529,0,0,0,1.948,4.024Z" transform="translate(-1803.542 -434.184)" fill="#d9ebfc"/>
      </g>
      <g id="Group_36" data-name="Group 36" transform="translate(0 35.045)">
        <path id="Path_24" data-name="Path 24" d="M1626.833,425.684h-36.2a7.066,7.066,0,0,1-7.006-6.18,1.244,1.244,0,0,1,1.236-1.394h34.729a1.247,1.247,0,0,1,1.239,1.131,6.012,6.012,0,0,0,6,5.416.514.514,0,1,1,0,1.027Zm-41.97-6.547a.218.218,0,0,0-.165.074.21.21,0,0,0-.052.166,6.038,6.038,0,0,0,5.987,5.28h32.518a7.029,7.029,0,0,1-3.342-5.312.223.223,0,0,0-.217-.208Z" transform="translate(-1583.618 -418.11)" fill="#282c49"/>
      </g>
    </g>
    <g id="Group_38" data-name="Group 38" transform="translate(1575.906 114.811)">
      <path id="Path_25" data-name="Path 25" d="M1827.814,134.118a.513.513,0,0,1-.416-.212,38.289,38.289,0,0,0-24.66-15.342.513.513,0,0,1,.172-1.012,39.139,39.139,0,0,1,14.323,5.473,39.549,39.549,0,0,1,11,10.278.514.514,0,0,1-.415.816Z" transform="translate(-1802.311 -117.545)" fill="#282c49"/>
    </g>
    <g id="Group_39" data-name="Group 39" transform="translate(1572.89 114.418)">
      <path id="Path_26" data-name="Path 26" d="M1785.5,116.292a.521.521,0,0,1-.056,0q-.324-.035-.648-.065a.513.513,0,0,1,.093-1.023q.333.03.665.066a.514.514,0,0,1-.054,1.024Z" transform="translate(-1784.324 -115.199)" fill="#282c49"/>
    </g>
    <g id="Group_40" data-name="Group 40" transform="translate(1564.859 114.26)">
      <path id="Path_27" data-name="Path 27" d="M1736.948,115.534a.514.514,0,0,1-.057-1.024c1.287-.146,2.6-.23,3.9-.25a.513.513,0,0,1,.016,1.027c-1.269.019-2.547.1-3.8.243A.531.531,0,0,1,1736.948,115.534Z" transform="translate(-1736.435 -114.26)" fill="#282c49"/>
    </g>
    <g id="Group_41" data-name="Group 41" transform="translate(1546.835 115.012)">
      <path id="Path_28" data-name="Path 28" d="M1629.479,126.132a.514.514,0,0,1-.3-.933,39.12,39.12,0,0,1,14.986-6.445.513.513,0,1,1,.2,1.007,38.1,38.1,0,0,0-14.6,6.278A.51.51,0,0,1,1629.479,126.132Z" transform="translate(-1628.965 -118.744)" fill="#282c49"/>
    </g>
    <g id="Group_42" data-name="Group 42" transform="translate(1532.629 132.815)">
      <path id="Path_29" data-name="Path 29" d="M1544.772,233.042a.514.514,0,0,1-.483-.689,39.456,39.456,0,0,1,3.492-7.208.513.513,0,0,1,.874.539,38.428,38.428,0,0,0-3.4,7.02A.513.513,0,0,1,1544.772,233.042Z" transform="translate(-1544.259 -224.901)" fill="#282c49"/>
    </g>
    <g id="Group_43" data-name="Group 43" transform="translate(1530.7 145.107)">
      <path id="Path_30" data-name="Path 30" d="M1533.27,301.688a.513.513,0,0,1-.509-.588c.122-.834.273-1.675.449-2.5a.513.513,0,1,1,1,.214c-.171.8-.318,1.622-.437,2.434A.514.514,0,0,1,1533.27,301.688Z" transform="translate(-1532.755 -298.193)" fill="#282c49"/>
    </g>
    <g id="Group_44" data-name="Group 44" transform="translate(1530.286 152.253)">
      <path id="Path_31" data-name="Path 31" d="M1540.744,368.882a.513.513,0,0,1-.383-.171,39.468,39.468,0,0,1-10.075-26.367c0-.345,0-.7.013-1.04a.514.514,0,0,1,1.027.026c-.009.336-.013.677-.013,1.013a38.441,38.441,0,0,0,9.813,25.682.514.514,0,0,1-.382.856Z" transform="translate(-1530.286 -340.804)" fill="#282c49"/>
    </g>
    <g id="Group_45" data-name="Group 45" transform="translate(1555.75 189.883)">
      <path id="Path_32" data-name="Path 32" d="M1685.155,567.048a.512.512,0,0,1-.145-.021c-.857-.252-1.716-.537-2.554-.848a.514.514,0,0,1,.357-.963c.816.3,1.653.58,2.487.826a.513.513,0,0,1-.145,1.006Z" transform="translate(-1682.121 -565.184)" fill="#282c49"/>
    </g>
    <g id="Group_46" data-name="Group 46" transform="translate(1560.887 184.993)">
      <path id="Path_33" data-name="Path 33" d="M1721.691,544.361a39.781,39.781,0,0,1-8.533-.923.513.513,0,1,1,.22-1,38.757,38.757,0,0,0,8.312.9,38.239,38.239,0,0,0,22.447-7.214.513.513,0,0,1,.6.834A39.26,39.26,0,0,1,1721.691,544.361Z" transform="translate(-1712.755 -536.023)" fill="#282c49"/>
    </g>
    <g id="Group_47" data-name="Group 47" transform="translate(1597.946 162.394)">
      <path id="Path_34" data-name="Path 34" d="M1934.242,419.695a.513.513,0,0,1-.376-.862,38.513,38.513,0,0,0,9.2-17.168.513.513,0,1,1,1,.239,39.544,39.544,0,0,1-9.441,17.627A.512.512,0,0,1,1934.242,419.695Z" transform="translate(-1933.729 -401.27)" fill="#282c49"/>
    </g>
    <g id="Group_48" data-name="Group 48" transform="translate(1608.188 149.885)">
      <path id="Path_35" data-name="Path 35" d="M1995.446,330.077a.514.514,0,0,1-.513-.5c-.02-.778-.064-1.564-.131-2.337a.513.513,0,0,1,1.023-.088c.068.794.114,1.6.134,2.4a.514.514,0,0,1-.5.527Z" transform="translate(-1994.8 -326.682)" fill="#282c49"/>
    </g>
    <g id="Group_49" data-name="Group 49" transform="translate(1605.99 139.929)">
      <path id="Path_36" data-name="Path 36" d="M1984.126,275.917a.514.514,0,0,1-.507-.438,38.346,38.346,0,0,0-1.893-7.473.513.513,0,0,1,.965-.351,39.35,39.35,0,0,1,1.944,7.674.513.513,0,0,1-.432.583A.532.532,0,0,1,1984.126,275.917Z" transform="translate(-1981.694 -267.317)" fill="#282c49"/>
    </g>
    <g id="Group_50" data-name="Group 50" transform="translate(1538.083 126.846)">
      <path id="Path_37" data-name="Path 37" d="M1579.257,192.505l-.619-.592a.4.4,0,0,0-.521-.033l-.689.51a.4.4,0,0,1-.533-.606l.592-.619a.405.405,0,0,0,.033-.521l-.51-.689a.4.4,0,0,1,.605-.533l.619.592a.4.4,0,0,0,.521.033l.689-.51a.405.405,0,0,1,.534.606l-.592.619a.405.405,0,0,0-.033.521l.51.689A.4.4,0,0,1,1579.257,192.505Z" transform="translate(-1576.778 -189.305)" fill="#282c49"/>
    </g>
    <g id="Group_51" data-name="Group 51" transform="translate(1577.699 121.533)">
      <path id="Path_38" data-name="Path 38" d="M1814.1,160.458l.033-.658a.312.312,0,0,0-.243-.32l-.643-.144a.312.312,0,0,1,.083-.615l.658.033a.311.311,0,0,0,.319-.243l.144-.643a.311.311,0,0,1,.615.083l-.032.658a.311.311,0,0,0,.243.319l.643.144a.311.311,0,0,1-.083.615l-.658-.032a.311.311,0,0,0-.319.243l-.144.643A.311.311,0,0,1,1814.1,160.458Z" transform="translate(-1812.999 -157.624)" fill="#282c49"/>
    </g>
    <g id="Group_52" data-name="Group 52" transform="translate(1598.302 145.602)">
      <path id="Path_39" data-name="Path 39" d="M1935.939,303.058l.446-.485a.312.312,0,0,0,.018-.4l-.4-.522a.311.311,0,0,1,.457-.419l.485.446a.312.312,0,0,0,.4.017l.522-.4a.311.311,0,0,1,.419.458l-.446.485a.311.311,0,0,0-.017.4l.4.522a.312.312,0,0,1-.458.419l-.485-.446a.312.312,0,0,0-.4-.017l-.522.4A.311.311,0,0,1,1935.939,303.058Z" transform="translate(-1935.853 -301.145)" fill="#282c49"/>
    </g>
    <g id="Group_53" data-name="Group 53" transform="translate(1579.561 180.262)">
      <path id="Path_40" data-name="Path 40" d="M1824.186,509.725l.446-.485a.312.312,0,0,0,.018-.4l-.4-.522a.311.311,0,0,1,.457-.419l.485.446a.312.312,0,0,0,.4.017l.522-.4a.312.312,0,0,1,.42.457l-.446.485a.311.311,0,0,0-.017.4l.4.522a.311.311,0,0,1-.458.419l-.485-.446a.312.312,0,0,0-.4-.017l-.522.4A.311.311,0,0,1,1824.186,509.725Z" transform="translate(-1824.1 -507.812)" fill="#282c49"/>
    </g>
    <g id="Group_54" data-name="Group 54" transform="translate(1547.855 178.667)">
      <path id="Path_41" data-name="Path 41" d="M1635.258,500.087l.7-.262a.314.314,0,0,0,.195-.391l-.214-.719c-.123-.416.491-.587.687-.191l.338.684a.407.407,0,0,0,.433.216l.75-.142c.434-.082.667.512.26.663l-.7.262a.314.314,0,0,0-.195.39l.214.719c.123.416-.491.587-.687.19l-.338-.684a.407.407,0,0,0-.433-.216l-.75.142C1635.085,500.832,1634.852,500.238,1635.258,500.087Z" transform="translate(-1635.047 -498.301)" fill="#282c49"/>
    </g>
    <g id="Group_55" data-name="Group 55" transform="translate(1535.3 157.053)">
      <path id="Path_42" data-name="Path 42" d="M1561.564,372.148a.624.624,0,0,1-.586-.41h0l-.093-.255-.259-.079a.625.625,0,0,1-.032-1.184l.255-.093.079-.259a.624.624,0,0,1,1.184-.032l.093.255.259.079a.625.625,0,0,1,.032,1.184l-.255.093-.079.259a.624.624,0,0,1-.58.442Zm.489-.633h0Zm-.111-.13h0Zm-.906-1.327h0Z" transform="translate(-1560.182 -369.425)" fill="#282c49"/>
    </g>
    <g id="Group_56" data-name="Group 56" transform="translate(1540.948 140.75)">
      <path id="Path_43" data-name="Path 43" d="M1595.243,274.937a.624.624,0,0,1-.586-.41l-.093-.255-.259-.079a.625.625,0,0,1-.032-1.184l.255-.093.079-.259a.625.625,0,0,1,1.184-.032l.093.255.259.079a.624.624,0,0,1,.032,1.184l-.255.093-.079.259a.624.624,0,0,1-.581.442Zm.378-.763h0Z" transform="translate(-1593.862 -272.214)" fill="#282c49"/>
    </g>
    <g id="Group_57" data-name="Group 57" transform="translate(1565.416 126.066)">
      <circle id="Ellipse_4" data-name="Ellipse 4" cx="0.578" cy="0.578" r="0.578" transform="translate(0 0)" fill="#282c49"/>
    </g>
    <g id="Group_58" data-name="Group 58" transform="translate(1546.417 128.505)">
      <circle id="Ellipse_5" data-name="Ellipse 5" cx="0.578" cy="0.578" r="0.578" transform="translate(0 0)" fill="#282c49"/>
    </g>
    <g id="Group_59" data-name="Group 59" transform="translate(1598.92 152.124)">
      <circle id="Ellipse_6" data-name="Ellipse 6" cx="0.578" cy="0.578" r="0.578" transform="translate(0 0)" fill="#282c49"/>
    </g>
    <g id="Group_60" data-name="Group 60" transform="translate(1592.63 130.815)">
      <circle id="Ellipse_7" data-name="Ellipse 7" cx="0.578" cy="0.578" r="0.578" transform="translate(0 0)" fill="#282c49"/>
    </g>
    <g id="Group_61" data-name="Group 61" transform="translate(1565.544 180.365)">
      <circle id="Ellipse_8" data-name="Ellipse 8" cx="1.091" cy="1.091" r="1.091" transform="translate(0 0)" fill="#282c49"/>
    </g>
  </g>
</svg>
