<svg xmlns="http://www.w3.org/2000/svg" width="18.914" height="18.914" viewBox="0 0 18.914 18.914">
  <g id="_1057011" data-name="1057011" transform="translate(-192.098 -105.494)">
    <path id="Path_25702" data-name="Path 25702" d="M18.914,9.457A9.457,9.457,0,1,1,9.457,0,9.457,9.457,0,0,1,18.914,9.457Zm0,0" transform="translate(192.098 105.494)" fill="#303030"/>
    <g id="Group_13157" data-name="Group 13157" transform="translate(198.359 109.462)">
      <path id="Path_25704" data-name="Path 25704" d="M197.122,165.04a.763.763,0,0,1-.763-.763v-1.995a.763.763,0,0,1,.763-.763,1.63,1.63,0,1,0-1.63-1.63.763.763,0,1,1-1.527,0,3.157,3.157,0,1,1,3.921,3.064v1.325A.763.763,0,0,1,197.122,165.04Zm0,0" transform="translate(-193.965 -156.73)" fill="#fff"/>
      <path id="Path_25705" data-name="Path 25705" d="M238.4,333.427a1,1,0,1,1-1-1A1,1,0,0,1,238.4,333.427Zm0,0" transform="translate(-234.243 -323.487)" fill="#fff"/>
    </g>
  </g>
</svg>
