<svg xmlns="http://www.w3.org/2000/svg" width="80.409" height="89.95" viewBox="0 0 80.409 89.95">
  <g id="make_global" transform="translate(-3.759 -0.524)">
    <path id="Path_36232" data-name="Path 36232" d="M32.44,10.057c-8.513,3.75-14.216,10.68-14.216,18.594,0,10.153,9.4,18.646,22.03,20.938a50.941,50.941,0,0,1-6.837,6.835C46.9,58.873,75.905,47.669,75.905,28.651c0-9.94-8.991-18.309-21.222-20.807" transform="translate(7.513 3.475)" fill="none" stroke="#1c4db8" stroke-linecap="round" stroke-linejoin="round" stroke-width="1.5"/>
    <path id="Path_36233" data-name="Path 36233" d="M4.509,64.553A12.127,12.127,0,0,1,16.633,52.428h.63c11.947,0,12.373,8.473,18.282,7.12,4.386-1.008,5.772-10.158,7.57-15.67a1.959,1.959,0,0,1,2.247-1.314,2.107,2.107,0,0,1,1.607,2.661l-.839,3.891,3.623,2.456a1.453,1.453,0,0,1,.63,1.325c-.169,1.972-1,5.442-4.507,4.877-2.068,5.558-5.917,9.477-11.715,9.477a21.777,21.777,0,0,1-11.084-3.8" transform="translate(0 22.473)" fill="none" stroke="#1c4db8" stroke-linecap="round" stroke-linejoin="round" stroke-width="1.5"/>
    <circle id="Ellipse_401" data-name="Ellipse 401" cx="12.234" cy="12.234" r="12.234" transform="translate(7.752 50.433)" fill="none" stroke="#1c4db8" stroke-linecap="round" stroke-linejoin="round" stroke-width="1.5"/>
    <path id="Path_36234" data-name="Path 36234" d="M6.6,45.35a12.178,12.178,0,0,0,1.444,5.764c10.79-.132,18.179-4.434,18.532-15.233A12.228,12.228,0,0,0,6.6,45.35Z" transform="translate(1.145 17.317)" fill="none" stroke="#1c4db8" stroke-linecap="round" stroke-linejoin="round" stroke-width="1.5"/>
    <path id="Path_36235" data-name="Path 36235" d="M56.914,19.8a.774.774,0,0,0-.9-.744l-7.384,1.3a.774.774,0,0,0-.356,1.348l2.333,1.927-4.032,5.84-2.249-1.842a.715.715,0,0,0-1.288.122s-6.864,8.858-6.176,9.98,7.01-6.655,7.01-6.655l2.339,1.857a.662.662,0,0,0,1.057-.1l6.878-6.276,1.639,1.353a.774.774,0,0,0,1.258-.605Z" transform="translate(17.696 9.611)" fill="#e82e5f"/>
    <path id="Path_36236" data-name="Path 36236" d="M47.287,24.532a12.214,12.214,0,0,1-.319,2.738c-1.187-.145-5.909,1.187-5.727-1.783.189-3.012-.941-2-2.736-2.723s-3.139-.285-2.43-3.269c-4.42-2.984,2.568-6.436,2.568-6.436a11.932,11.932,0,0,1,8.644,11.472Z" transform="translate(16.488 6.332)" fill="#e82e5f"/>
    <path id="Path_36237" data-name="Path 36237" d="M37.547,32.316a11.918,11.918,0,0,1-10.14-11.608c2.376-1.26,7.1,1.083,6.693,2.825s3.9-.057,4.179,1.9A33.185,33.185,0,0,1,37.547,32.316Z" transform="translate(12.543 10.326)" fill="#e82e5f"/>
    <path id="Path_36238" data-name="Path 36238" d="M29.772,1.5c-2.6,6.445,5.8,8.465,1.215,15.3" transform="translate(13.559)" fill="none" stroke="#e82e5f" stroke-linecap="round" stroke-linejoin="round" stroke-width="1.5"/>
    <path id="Path_36239" data-name="Path 36239" d="M34.146,2.653c-1.989,4.934,4.441,6.481.929,11.711" transform="translate(16.021 0.632)" fill="none" stroke="#e82e5f" stroke-linecap="round" stroke-linejoin="round" stroke-width="1.5"/>
    <path id="Path_36240" data-name="Path 36240" d="M38.591,3.442C36.6,8.376,43.03,9.924,39.52,15.153" transform="translate(18.456 1.064)" fill="none" stroke="#e82e5f" stroke-linecap="round" stroke-linejoin="round" stroke-width="1.5"/>
    <path id="Path_36241" data-name="Path 36241" d="M42.311,36.219a11.909,11.909,0,1,1,8.031-7" transform="translate(12.549 6.18)" fill="none" stroke="#e82e5f" stroke-linecap="round" stroke-linejoin="round" stroke-width="1.5"/>
  </g>
</svg>
