<svg xmlns="http://www.w3.org/2000/svg" width="20.244" height="16.23" viewBox="0 0 20.244 16.23">
  <g id="_263051" data-name="263051" transform="translate(0 -50.758)">
    <g id="Group_13126" data-name="Group 13126" transform="translate(0 50.758)">
      <g id="Group_13125" data-name="Group 13125">
        <path id="Path_25686" data-name="Path 25686" d="M14.72,50.758H1.14A1.141,1.141,0,0,0,0,51.9v8.147a1.141,1.141,0,0,0,1.14,1.14h.881v3.033a.478.478,0,0,0,.815.338l3.371-3.371h.676a.478.478,0,0,0,0-.955l-.907,0a.476.476,0,0,0-.305.138l-2.7,2.7s0-2.388,0-2.4A.477.477,0,0,0,2.5,60.23H1.14a.185.185,0,0,1-.185-.185V51.9a.185.185,0,0,1,.185-.185H14.72a.185.185,0,0,1,.185.185v3.126a.478.478,0,0,0,.955,0V51.9A1.141,1.141,0,0,0,14.72,50.758Z" transform="translate(0 -50.758)" fill="#303030"/>
      </g>
    </g>
    <g id="Group_13128" data-name="Group 13128" transform="translate(8.458 56.599)">
      <g id="Group_13127" data-name="Group 13127">
        <path id="Path_25687" data-name="Path 25687" d="M224.569,198.492h-9.506a1.141,1.141,0,0,0-1.14,1.14v5.558a1.141,1.141,0,0,0,1.14,1.14h5.951l2.411,2.411a.478.478,0,0,0,.815-.338V206.33h.328a1.141,1.141,0,0,0,1.14-1.14v-5.558A1.141,1.141,0,0,0,224.569,198.492Zm.185,6.7a.185.185,0,0,1-.185.185h-.806a.477.477,0,0,0-.476.441c0,.01,0,1.435,0,1.435l-1.734-1.734-.006-.005-.019-.018a.475.475,0,0,0-.314-.119h-6.149a.185.185,0,0,1-.185-.185v-5.558a.185.185,0,0,1,.185-.185h9.506a.185.185,0,0,1,.185.185Z" transform="translate(-213.923 -198.492)" fill="#303030"/>
      </g>
    </g>
    <g id="Group_13130" data-name="Group 13130" transform="translate(13.874 60.041)">
      <g id="Group_13129" data-name="Group 13129">
        <path id="Path_25688" data-name="Path 25688" d="M351.364,285.53a.478.478,0,1,0,.478.478A.478.478,0,0,0,351.364,285.53Z" transform="translate(-350.886 -285.53)" fill="#303030"/>
      </g>
    </g>
    <g id="Group_13132" data-name="Group 13132" transform="translate(3.107 53.915)">
      <g id="Group_13131" data-name="Group 13131" transform="translate(0 0)">
        <path id="Path_25689" data-name="Path 25689" d="M87.741,130.611H79.05a.478.478,0,1,0,0,.955h8.692a.478.478,0,1,0,0-.955Z" transform="translate(-78.572 -130.611)" fill="#303030"/>
      </g>
    </g>
    <g id="Group_13134" data-name="Group 13134" transform="translate(3.107 57.073)">
      <g id="Group_13133" data-name="Group 13133">
        <path id="Path_25690" data-name="Path 25690" d="M82.348,210.465h-3.3a.478.478,0,1,0,0,.955h3.3a.478.478,0,0,0,0-.955Z" transform="translate(-78.572 -210.465)" fill="#303030"/>
      </g>
    </g>
    <g id="Group_13136" data-name="Group 13136" transform="translate(11.655 60.041)">
      <g id="Group_13135" data-name="Group 13135">
        <path id="Path_25691" data-name="Path 25691" d="M295.237,285.53a.478.478,0,1,0,.478.478A.478.478,0,0,0,295.237,285.53Z" transform="translate(-294.759 -285.53)" fill="#303030"/>
      </g>
    </g>
    <g id="Group_13138" data-name="Group 13138" transform="translate(16.093 60.041)">
      <g id="Group_13137" data-name="Group 13137">
        <path id="Path_25692" data-name="Path 25692" d="M407.479,285.53a.478.478,0,1,0,.478.478A.478.478,0,0,0,407.479,285.53Z" transform="translate(-407.001 -285.53)" fill="#303030"/>
      </g>
    </g>
  </g>
</svg>
