<svg xmlns="http://www.w3.org/2000/svg" width="57.019" height="64.875" viewBox="0 0 57.019 64.875">
  <g id="surface1" transform="translate(0 0)">
    <path id="Path_43952" data-name="Path 43952" d="M124.211,7.6a7.588,7.588,0,0,1-3.345,6.31l-7.07,4.752a1.887,1.887,0,0,1-2.129-3.117l7.071-4.79A3.893,3.893,0,0,0,120.41,7.6a3.811,3.811,0,0,0-7.488-.988L109.957,17.6a1.905,1.905,0,0,1-1.824,1.407,2.215,2.215,0,0,1-.495-.076,1.406,1.406,0,0,1-.532-.266,1.406,1.406,0,0,1-.532.266,2.216,2.216,0,0,1-.494.076,1.9,1.9,0,0,1-1.824-1.407L101.29,6.614A3.811,3.811,0,0,0,93.8,7.6a3.893,3.893,0,0,0,1.672,3.155l7.071,4.79a1.887,1.887,0,0,1-2.129,3.117l-7.07-4.752a7.606,7.606,0,1,1,11.594-8.287l2.167,7.983,2.167-7.983A7.6,7.6,0,0,1,124.211,7.6Zm0,0" transform="translate(-78.596 0)" fill="#ffd400"/>
    <path id="Path_43953" data-name="Path 43953" d="M242.106,7.6a7.588,7.588,0,0,1-3.345,6.31l-7.07,4.752a1.887,1.887,0,0,1-2.129-3.117l7.07-4.79A3.893,3.893,0,0,0,238.3,7.6a3.811,3.811,0,0,0-7.488-.988L227.851,17.6a1.905,1.905,0,0,1-1.824,1.407,2.215,2.215,0,0,1-.495-.076,1.406,1.406,0,0,1-.532-.266V13.608l2.167-7.983A7.6,7.6,0,0,1,242.106,7.6Zm0,0" transform="translate(-196.49 0)" fill="#fdbf00"/>
    <path id="Path_43954" data-name="Path 43954" d="M79.417,240v28.763a5.694,5.694,0,0,1-5.7,5.7H58.51l-3.8-3.8-3.8,3.8H35.7a5.694,5.694,0,0,1-5.7-5.7V240Zm0,0" transform="translate(-26.199 -209.59)" fill="#ff7816"/>
    <path id="Path_43955" data-name="Path 43955" d="M249.708,240v28.763a5.694,5.694,0,0,1-5.7,5.7H228.8l-3.8-3.8V240Zm0,0" transform="translate(-196.49 -209.59)" fill="#ff4b00"/>
    <path id="Path_43956" data-name="Path 43956" d="M57.019,125.7v15.205a1.882,1.882,0,0,1-1.9,1.9H1.9a1.882,1.882,0,0,1-1.9-1.9V125.7A5.694,5.694,0,0,1,5.7,120H24.708l3.8,3.8,3.8-3.8H51.317A5.694,5.694,0,0,1,57.019,125.7Zm0,0" transform="translate(0 -104.795)" fill="#ff9f00"/>
    <path id="Path_43957" data-name="Path 43957" d="M253.51,125.7v15.205a1.882,1.882,0,0,1-1.9,1.9H225V123.8l3.8-3.8h19.006A5.694,5.694,0,0,1,253.51,125.7Zm0,0" transform="translate(-196.49 -104.795)" fill="#ff7816"/>
    <path id="Path_43958" data-name="Path 43958" d="M105.557,134.648a1.9,1.9,0,0,1,0-2.688l11.4-11.4a1.9,1.9,0,0,1,2.688,2.688l-11.4,11.4A1.9,1.9,0,0,1,105.557,134.648Zm0,0" transform="translate(-91.696 -104.795)" fill="#ffe470"/>
    <path id="Path_43959" data-name="Path 43959" d="M236.961,134.648l-11.4-11.4a1.9,1.9,0,0,1,2.688-2.687l11.4,11.4a1.9,1.9,0,1,1-2.687,2.688Zm0,0" transform="translate(-196.49 -104.795)" fill="#ffd400"/>
    <path id="Path_43960" data-name="Path 43960" d="M195,120h7.6v49.67H195Zm0,0" transform="translate(-170.292 -104.795)" fill="#ffe470"/>
    <path id="Path_43961" data-name="Path 43961" d="M225,120h3.8v49.67H225Zm0,0" transform="translate(-196.49 -104.795)" fill="#ffd400"/>
  </g>
</svg>
