<svg xmlns="http://www.w3.org/2000/svg" width="16.85" height="18.694" viewBox="0 0 16.85 18.694">
  <g id="_709846" data-name="709846" transform="translate(-25.25)">
    <g id="Group_13152" data-name="Group 13152" transform="translate(31.188)">
      <g id="Group_13151" data-name="Group 13151">
        <path id="Path_25699" data-name="Path 25699" d="M190.377,0a2.49,2.49,0,0,0-2.487,2.487v.75h1.286v-.75a1.2,1.2,0,0,1,2.4,0v.75h1.286v-.75A2.49,2.49,0,0,0,190.377,0Z" transform="translate(-187.89)" fill="#303030"/>
      </g>
    </g>
    <g id="Group_13154" data-name="Group 13154" transform="translate(30.631 15.671)">
      <g id="Group_13153" data-name="Group 13153">
        <path id="Path_25700" data-name="Path 25700" d="M177.426,429.2a1.739,1.739,0,0,1-1.737,1.737h-.043a1.739,1.739,0,0,1-1.737-1.737h-1.286a3.026,3.026,0,0,0,3.023,3.023h.043a3.026,3.026,0,0,0,3.023-3.023Z" transform="translate(-172.624 -429.205)" fill="#303030"/>
      </g>
    </g>
    <g id="Group_13156" data-name="Group 13156" transform="translate(25.25 2.38)">
      <g id="Group_13155" data-name="Group 13155">
        <path id="Path_25701" data-name="Path 25701" d="M42,78.225l-1.827-2.843V71.734a6.5,6.5,0,1,0-12.992,0v3.649l-1.827,2.842a.643.643,0,0,0,.541.991H41.457A.643.643,0,0,0,42,78.225Zm-14.927-.3,1.292-2.01a.643.643,0,0,0,.1-.348V71.734a5.21,5.21,0,1,1,10.419,0v3.837a.643.643,0,0,0,.1.348l1.292,2.01Z" transform="translate(-25.25 -65.174)" fill="#303030"/>
      </g>
    </g>
  </g>
</svg>
