<svg xmlns="http://www.w3.org/2000/svg" width="94.73" height="96.832" viewBox="0 0 94.73 96.832">
  <g id="pay" transform="translate(-5.554 0.001)">
    <g id="Group_41580" data-name="Group 41580" transform="translate(6.972 1.418)">
      <g id="Group_41576" data-name="Group 41576" transform="translate(29.938 30.989)">
        <circle id="Ellipse_578" data-name="Ellipse 578" cx="16.009" cy="16.009" r="16.009" fill="#ffd064"/>
      </g>
      <g id="Group_41579" data-name="Group 41579">
        <g id="Group_41577" data-name="Group 41577" transform="translate(32.66 56.178)">
          <path id="Path_44239" data-name="Path 44239" d="M258.91,390.68l-19.511.031a4.57,4.57,0,0,0-1.473,8.922l20.26-2.478Z" transform="translate(-225.479 -374.389)" fill="#eaac9d"/>
          <path id="Path_44240" data-name="Path 44240" d="M228.065,411.17l-19.511.031a4.57,4.57,0,0,0-1.473,8.922l20.26-2.479Z" transform="translate(-200.468 -391.003)" fill="#ffcbbe"/>
          <path id="Path_44241" data-name="Path 44241" d="M186.362,335.664a4.557,4.557,0,0,0,2.558,2.053l4.435,1.416,9.1,2.908a6.645,6.645,0,0,0,4.614-.211l26.836-11.362-.077-14.813c0-.108,0-.216,0-.325,0-.018,0-.035,0-.051l0-.745c0-.012,0-.024,0-.034l-.045-8.6-8.5-1.092a33.24,33.24,0,0,0-11.844.612c-.164.038-.328.078-.49.119a33.351,33.351,0,0,0-3.448,1.069l-1.121.415a4.566,4.566,0,0,0,1.156,8.827l9.188.871L202.6,329.014l-12.207-.218a4.571,4.571,0,0,0-4.031,6.869Z" transform="translate(-185.742 -304.539)" fill="#ffddce"/>
          <path id="Path_44242" data-name="Path 44242" d="M225.994,386.8l9.1,2.908a6.645,6.645,0,0,0,4.614-.21l26.836-11.362-.077-14.813C266.353,380.49,230.97,388.388,225.994,386.8Z" transform="translate(-218.381 -352.204)" fill="#ffcbbe"/>
          <path id="Path_44243" data-name="Path 44243" d="M439.963,357.395c0,.245,0,.492,0,.745Z" transform="translate(-391.882 -347.399)" fill="#ffcbbe"/>
          <path id="Path_44244" data-name="Path 44244" d="M439.861,336.313l11.071.461-.06-11.683-.067-12.884-11.071-.461.072,14.065Z" transform="translate(-391.698 -310.383)" fill="#db5b6f"/>
          <path id="Path_44245" data-name="Path 44245" d="M440.171,393.527l11.071.461-.06-11.683a10.95,10.95,0,0,1-11.066.72Z" transform="translate(-392.007 -367.598)" fill="#d54653"/>
        </g>
        <g id="Group_41578" data-name="Group 41578">
          <path id="Path_44246" data-name="Path 44246" d="M149.489,82.928,169,82.9a4.57,4.57,0,0,0,1.473-8.922l-20.261,2.479Z" transform="translate(-123.686 -61.402)" fill="#eaac9d"/>
          <path id="Path_44247" data-name="Path 44247" d="M180.334,62.438l19.511-.031a4.57,4.57,0,0,0,1.473-8.922l-20.261,2.479Z" transform="translate(-148.697 -44.788)" fill="#ffcbbe"/>
          <path id="Path_44248" data-name="Path 44248" d="M119.133,14.191a4.557,4.557,0,0,0-2.558-2.054l-4.435-1.416-9.1-2.908a6.645,6.645,0,0,0-4.614.21L71.59,19.386,71.667,34.2c0,.108,0,.216,0,.325,0,.018,0,.035,0,.051l0,.745c0,.012,0,.024,0,.034l.045,8.6,8.5,1.092a33.241,33.241,0,0,0,11.844-.612q.246-.057.49-.119A33.351,33.351,0,0,0,96,43.244l1.121-.415A4.566,4.566,0,0,0,95.966,34l-9.188-.871,16.117-12.29,12.207.218a4.571,4.571,0,0,0,4.031-6.868Z" transform="translate(-60.519 -7.498)" fill="#ffddce"/>
          <path id="Path_44249" data-name="Path 44249" d="M112.141,10.721l-9.1-2.908a6.645,6.645,0,0,0-4.614.21L71.59,19.385,71.667,34.2C71.782,17.029,107.165,9.131,112.141,10.721Z" transform="translate(-60.519 -7.498)" fill="#ffcbbe"/>
          <path id="Path_44250" data-name="Path 44250" d="M72.01,151.408c0-.245,0-.492,0-.745Z" transform="translate(-60.856 -123.587)" fill="#ffcbbe"/>
          <path id="Path_44251" data-name="Path 44251" d="M24.125,68.378l-11.071-.461.06,11.683.067,12.884,11.071.461L24.18,78.879Z" transform="translate(-13.054 -56.49)" fill="#67dd9c"/>
          <path id="Path_44252" data-name="Path 44252" d="M24.125,68.378l-11.071-.461.06,11.683a10.95,10.95,0,0,1,11.066-.72Z" transform="translate(-13.054 -56.49)" fill="#4ace85"/>
        </g>
      </g>
    </g>
    <g id="Group_41581" data-name="Group 41581" transform="translate(5.554 -0.001)">
      <path id="Path_44253" data-name="Path 44253" d="M224.823,213.9a1.418,1.418,0,0,0,1.418-1.418V211.2a6.78,6.78,0,0,0,5.905-5.471c.389-2.781-1.4-5.174-4.566-6.094a24.6,24.6,0,0,1-5.722-2.206,1.525,1.525,0,0,1-.642-1.582,2.717,2.717,0,0,1,2.174-2.1,7.4,7.4,0,0,1,1.42-.212h.012a1.418,1.418,0,0,0,.145-.007,5.859,5.859,0,0,1,3.421.9,1.418,1.418,0,0,0,1.706-2.266,8.392,8.392,0,0,0-3.854-1.4v-1.042a1.418,1.418,0,0,0-2.837,0v1.132c-.228.04-.46.088-.7.147a5.594,5.594,0,0,0-4.29,4.388,4.334,4.334,0,0,0,1.9,4.432,24.936,24.936,0,0,0,6.468,2.547c1.811.527,2.74,1.613,2.55,2.978-.217,1.55-1.84,3.127-4.522,3.142a8.282,8.282,0,0,1-5-1.09,1.418,1.418,0,0,0-1.346,2.5A10.108,10.108,0,0,0,223.4,211.3v1.189a1.419,1.419,0,0,0,1.419,1.418Z" transform="translate(-177.594 -152.683)"/>
      <path id="Path_44254" data-name="Path 44254" d="M100.158,59.412A1.418,1.418,0,0,0,98.8,58l-11.01-.458-8.442-1.085a34.763,34.763,0,0,0-11.177.39A17.44,17.44,0,0,0,69,55.134a1.418,1.418,0,0,0-2.617-1.095,14.542,14.542,0,0,1-2.442,3.928c-.353.118-.7.241-1.054.37l-1.121.416a5.962,5.962,0,0,0-3.409,3.2A14.588,14.588,0,0,1,41.9,38.862c.352-.117.7-.238,1.05-.367l1.121-.416a5.961,5.961,0,0,0,3.407-3.2A14.589,14.589,0,0,1,67.511,48.415c0,.249-.006.486-.017.706a1.418,1.418,0,0,0,1.344,1.49l.074,0a1.418,1.418,0,0,0,1.415-1.345c.014-.269.021-.555.021-.852a17.441,17.441,0,0,0-22.42-16.7,6.127,6.127,0,0,0-.271-1.165,5.977,5.977,0,0,0-5.1-4.039l-5.58-.53,2.135-1.628,13.168-.021h.091a6.014,6.014,0,0,0,5.6-3.876h.141A5.991,5.991,0,0,0,64.016,15.9a5.986,5.986,0,0,0-.556-11.2L49.925.382a8.066,8.066,0,0,0-5.6.255L31.247,6.175a1.419,1.419,0,0,0,1.106,2.613L45.432,3.25a5.227,5.227,0,0,1,3.629-.165L62.6,7.408a3.137,3.137,0,0,1,2.19,3,3.1,3.1,0,0,1-.03.439,3.153,3.153,0,0,1-3.12,2.714H61.58l-12.206-.217a1.427,1.427,0,0,0-.885.29L32.371,25.922a1.418,1.418,0,0,0,.726,2.54l9.188.872a3.147,3.147,0,0,1,.8,6.084l-1.121.416a31.937,31.937,0,0,1-15.107,1.724l-7.27-.935L19.53,26.441l-.063-12.2L27.138,11a1.418,1.418,0,1,0-1.106-2.612l-8.247,3.491L7.031,11.427a1.419,1.419,0,0,0-1.477,1.425l.127,24.566a1.418,1.418,0,0,0,1.359,1.41l11.012.458,8.439,1.085a34.45,34.45,0,0,0,4.389.28,34.882,34.882,0,0,0,6.784-.668A17.439,17.439,0,0,0,57.91,65.118a6.118,6.118,0,0,0,.27,1.161,5.992,5.992,0,0,0,5.1,4.042l5.578.529-2.135,1.628L53.562,72.5a6,6,0,0,0-5.692,3.876h-.236a5.991,5.991,0,0,0-5.811,4.552,5.987,5.987,0,0,0,.556,11.2l13.535,4.324a8.069,8.069,0,0,0,5.6-.256L88.054,84.956l10.753.447h.059a1.418,1.418,0,0,0,1.418-1.426ZM52.311,21.494a.188.188,0,0,0-.027,0l-9.448.015,1.354-1.032,10.5-.017a3.159,3.159,0,0,1-2.38,1.034Zm-2.495-5.307,10.883.194a3.171,3.171,0,0,1-2.553,1.237h-.028l-10.2.016ZM8.511,36.05,8.4,14.324l8.233.342.07,13.428.043,8.3ZM53.472,75.336h.083L63,75.321l-1.353,1.032-10.5.017a3.154,3.154,0,0,1,2.327-1.034Zm-5.838,3.876h.087l10.2-.016-1.9,1.448-10.886-.2A3.148,3.148,0,0,1,47.634,79.211Zm12.772,14.37a5.228,5.228,0,0,1-3.628.166L43.243,89.423A3.151,3.151,0,0,1,44.2,83.27h.057l12.207.219a1.443,1.443,0,0,0,.886-.29L73.467,70.908a1.418,1.418,0,0,0-.726-2.54L63.554,67.5a3.148,3.148,0,0,1-.8-6.085L63.878,61a31.933,31.933,0,0,1,15.107-1.723l7.271.934.116,22.38Zm28.8-11.416-.112-21.727,8.234.343.112,21.726Z" transform="translate(-5.554 0.001)"/>
    </g>
  </g>
</svg>
