<svg xmlns="http://www.w3.org/2000/svg" width="13.418" height="10.902" viewBox="0 0 13.418 10.902">
  <path id="social_twitter" d="M13.418,49.291a5.735,5.735,0,0,1-1.585.434,2.735,2.735,0,0,0,1.21-1.52,5.5,5.5,0,0,1-1.744.666,2.751,2.751,0,0,0-4.758,1.881,2.833,2.833,0,0,0,.064.627A7.786,7.786,0,0,1,.934,48.5a2.752,2.752,0,0,0,.845,3.677,2.717,2.717,0,0,1-1.243-.339v.03a2.764,2.764,0,0,0,2.2,2.7,2.746,2.746,0,0,1-.721.091,2.432,2.432,0,0,1-.521-.047,2.777,2.777,0,0,0,2.57,1.916A5.527,5.527,0,0,1,.658,57.706,5.153,5.153,0,0,1,0,57.668,7.745,7.745,0,0,0,4.22,58.9a7.776,7.776,0,0,0,7.83-7.828c0-.122,0-.239-.01-.356A5.488,5.488,0,0,0,13.418,49.291Z" transform="translate(0 -48)" fill="#009ff4"/>
</svg>
