<svg id="social_linkedin" xmlns="http://www.w3.org/2000/svg" width="10.117" height="10.117" viewBox="0 0 10.117 10.117">
  <path id="Path_7" data-name="Path 7" d="M15.025,14.5h0v-3.71c0-1.815-.391-3.213-2.513-3.213a2.2,2.2,0,0,0-1.984,1.09H10.5V7.743H8.489V14.5h2.095V11.153c0-.881.167-1.732,1.257-1.732,1.074,0,1.09,1,1.09,1.789V14.5Z" transform="translate(-4.911 -4.381)" fill="#0089d1"/>
  <path id="Path_8" data-name="Path 8" d="M.4,7.977h2.1v6.754H.4Z" transform="translate(-0.229 -4.615)" fill="#0089d1"/>
  <path id="Path_9" data-name="Path 9" d="M1.215,0A1.221,1.221,0,1,0,2.43,1.215,1.215,1.215,0,0,0,1.215,0Z" fill="#0089d1"/>
</svg>
