<svg xmlns="http://www.w3.org/2000/svg" width="85" height="85.125" viewBox="0 0 85 85.125">
  <g id="tutor_anytime" transform="translate(-38.849 -38.53)">
    <g id="Group_37657" data-name="Group 37657" transform="translate(38.849 38.53)">
      <path id="Path_36242" data-name="Path 36242" d="M72.547,127.33A33.873,33.873,0,1,1,38.85,161.2,33.785,33.785,0,0,1,72.547,127.33Z" transform="translate(-38.85 -109.95)" fill="#fff"/>
      <path id="Path_36243" data-name="Path 36243" d="M40.426,164.278a33.666,33.666,0,0,1,62.847-17A33.734,33.734,0,1,0,43.393,178.2,33.9,33.9,0,0,1,40.426,164.278Z" transform="translate(-38.849 -109.95)" fill="#e1e1e1"/>
      <path id="Path_36244" data-name="Path 36244" d="M109.31,173.28a24.881,24.881,0,0,1,.6,49.751c-.2.006-.4.008-.6.008a24.88,24.88,0,0,1,0-49.759Zm21.468,26.977v-3H127.8v3ZM111.4,219.894v-3.149h-2.981v3.149Zm-.595-40.619v-3h-2.983v3ZM90.523,200.257v-3H87.543v3Z" transform="translate(-75.614 -146.907)" fill="#fdfeff"/>
      <path id="Path_36245" data-name="Path 36245" d="M413.908,382.859a3.546,3.546,0,1,1-3.548,3.547A3.546,3.546,0,0,1,413.908,382.859Z" transform="translate(-337.649 -315.468)" fill="#8ad7f8"/>
      <path id="Path_36246" data-name="Path 36246" d="M411.339,388.455a3.546,3.546,0,0,1,6.089-2.472,3.546,3.546,0,1,0-6.061,2.894A3.587,3.587,0,0,1,411.339,388.455Z" transform="translate(-337.649 -315.468)" fill="#77c8e5"/>
      <g id="Group_37653" data-name="Group 37653" transform="translate(62.197 1.773)">
        <path id="Path_36247" data-name="Path 36247" d="M372.526,47.59h-8.97a6.916,6.916,0,0,0-6.917,6.917V68.872h15.886a6.919,6.919,0,0,0,6.917-6.917V54.507A6.917,6.917,0,0,0,372.526,47.59Z" transform="translate(-356.639 -47.59)" fill="#ef3e5c"/>
      </g>
      <path id="Path_36248" data-name="Path 36248" d="M358.335,56.28a6.916,6.916,0,0,1,6.917-6.917h8.97a6.884,6.884,0,0,1,4.072,1.327,6.91,6.91,0,0,0-5.768-3.1h-8.97a6.916,6.916,0,0,0-6.917,6.917V68.872h1.7V56.28Z" transform="translate(-294.442 -45.817)" fill="#e42a53"/>
      <path id="Path_36249" data-name="Path 36249" d="M278,38.53a3.546,3.546,0,1,1-3.546,3.546A3.546,3.546,0,0,1,278,38.53Z" transform="translate(-228.339 -38.53)" fill="#ef3e5c"/>
      <path id="Path_36250" data-name="Path 36250" d="M275.689,43.85a3.542,3.542,0,0,1,5.7-2.815,3.546,3.546,0,1,0-5.541,3.858A3.547,3.547,0,0,1,275.689,43.85Z" transform="translate(-228.339 -38.53)" fill="#e42a53"/>
      <path id="Path_36251" data-name="Path 36251" d="M78.646,92.9A3.546,3.546,0,1,1,75.1,96.446,3.546,3.546,0,0,1,78.646,92.9Z" transform="translate(-68.005 -82.259)" fill="#b0b7dc"/>
      <path id="Path_36252" data-name="Path 36252" d="M76.388,98.66a3.544,3.544,0,0,1,5.757-2.771,3.544,3.544,0,1,0-5.709,3.328A3.552,3.552,0,0,1,76.388,98.66Z" transform="translate(-68.005 -82.259)" fill="#959ec4"/>
      <g id="Group_37656" data-name="Group 37656" transform="translate(8.946 26.373)">
        <g id="Group_37655" data-name="Group 37655">
          <g id="Group_37654" data-name="Group 37654">
            <path id="Path_36253" data-name="Path 36253" d="M86.909,200.7a24.722,24.722,0,0,1,41.675-18.151,24.8,24.8,0,1,0-36.2,33.756A24.853,24.853,0,0,1,86.909,200.7Z" transform="translate(-84.56 -173.279)" fill="#959ec4"/>
          </g>
        </g>
      </g>
      <path id="Path_36254" data-name="Path 36254" d="M420.089,86.062V87.54h-1.084v1.834h-1.65V87.54h-3.6V86.074l4.124-5.294h1.121v5.282Zm-2.55,0V83.279l-2.129,2.783Z" transform="translate(-340.384 -72.511)" fill="#fff"/>
      <path id="Path_36255" data-name="Path 36255" d="M389.437,86.321V87.81h-5V86.321h1.749V82.59a1.379,1.379,0,0,1-.352.3,4.865,4.865,0,0,1-.523.29,3.7,3.7,0,0,1-.585.221,2.006,2.006,0,0,1-.536.086V81.95a1.37,1.37,0,0,0,.542-.143,4.456,4.456,0,0,0,.628-.339,5.245,5.245,0,0,0,.536-.388,1.364,1.364,0,0,0,.289-.3h1.687v5.541Z" transform="translate(-316.601 -72.511)" fill="#fff"/>
      <rect id="Rectangle_4780" data-name="Rectangle 4780" width="2.981" height="2.996" transform="translate(52.184 50.354)" fill="#656f9b"/>
      <rect id="Rectangle_4781" data-name="Rectangle 4781" width="2.981" height="3.149" transform="translate(32.802 69.838)" fill="#656f9b"/>
      <rect id="Rectangle_4782" data-name="Rectangle 4782" width="2.983" height="2.998" transform="translate(32.205 29.369)" fill="#656f9b"/>
      <rect id="Rectangle_4783" data-name="Rectangle 4783" width="2.981" height="2.996" transform="translate(11.929 50.354)" fill="#656f9b"/>
      <path id="Path_36256" data-name="Path 36256" d="M105.289,168.28a25.858,25.858,0,0,0,0,51.716c.209,0,.419,0,.62-.008a25.518,25.518,0,0,0,17.776-7.774,25.885,25.885,0,0,0-18.4-43.934Zm.568,49.752c-.188.006-.378.007-.568.007a23.79,23.79,0,1,1,.568-.007Z" transform="translate(-71.592 -142.886)" fill="#656f9b"/>
      <path id="Path_36257" data-name="Path 36257" d="M210.048,428.512a.979.979,0,0,1-.979-.979V423.3a.979.979,0,0,1,1.957,0v4.235A.978.978,0,0,1,210.048,428.512Z" transform="translate(-175.754 -347.206)" fill="#656f9b"/>
      <path id="Path_36258" data-name="Path 36258" d="M207,151.794a.979.979,0,0,1-.979-.979v-4.537a.979.979,0,1,1,1.957,0v4.537A.979.979,0,0,1,207,151.794Z" transform="translate(-173.302 -124.403)" fill="#656f9b"/>
      <path id="Path_36259" data-name="Path 36259" d="M62.2,297.357H57.689a.979.979,0,0,1,0-1.957H62.2a.979.979,0,0,1,0,1.957Z" transform="translate(-53.214 -245.126)" fill="#656f9b"/>
      <path id="Path_36260" data-name="Path 36260" d="M337.462,297.357h-4.214a.979.979,0,0,1,0-1.957h4.214a.979.979,0,0,1,0,1.957Z" transform="translate(-274.842 -245.126)" fill="#656f9b"/>
      <path id="Path_36261" data-name="Path 36261" d="M153.406,271.119a.979.979,0,0,1-.345-.063l-11.929-4.5a.979.979,0,0,1,.69-1.831l11.485,4.328,14.5-8.748a.979.979,0,1,1,1.011,1.676l-14.908,8.993A.976.976,0,0,1,153.406,271.119Z" transform="translate(-120.603 -216.79)" fill="#656f9b"/>
    </g>
  </g>
</svg>
