<svg xmlns="http://www.w3.org/2000/svg" width="72.794" height="82.993" viewBox="0 0 72.794 82.993">
  <g id="World-Class" transform="translate(-31.46)">
    <path id="Path_44255" data-name="Path 44255" d="M153.574,45.606l-16.239,4.223a6.206,6.206,0,0,1-3.063.015l-17.131-4.272a6.1,6.1,0,0,1-4.623-5.918V20.938A20.938,20.938,0,0,1,133.456,0H137.2a20.938,20.938,0,0,1,20.938,20.938V39.7A6.1,6.1,0,0,1,153.574,45.606Z" transform="translate(-67.919)" fill="#fd9727"/>
    <path id="Path_44256" data-name="Path 44256" d="M231.1,0h-3.744a21.136,21.136,0,0,0-2.774.183,20.942,20.942,0,0,1,18.164,20.755V39.7a6.1,6.1,0,0,1-4.564,5.9l-13.22,3.437,3.21.8a6.2,6.2,0,0,0,3.063-.015l16.239-4.223a6.1,6.1,0,0,0,4.564-5.9V20.938A20.938,20.938,0,0,0,231.1,0Z" transform="translate(-161.814)" fill="#ff6d3a"/>
    <g id="Group_41582" data-name="Group 41582" transform="translate(43.205 23.162)">
      <path id="Path_44257" data-name="Path 44257" d="M106.279,153.74h4.443V142.892h-4.443a2.363,2.363,0,0,0-2.364,2.364v6.12A2.363,2.363,0,0,0,106.279,153.74Z" transform="translate(-103.915 -142.892)" fill="#3d6687"/>
      <path id="Path_44258" data-name="Path 44258" d="M370.537,153.74h-4.443V142.892h4.443a2.363,2.363,0,0,1,2.363,2.364v6.12A2.363,2.363,0,0,1,370.537,153.74Z" transform="translate(-323.596 -142.892)" fill="#3d6687"/>
    </g>
    <path id="Path_44259" data-name="Path 44259" d="M204.9,270.943a3.328,3.328,0,0,1-2.672-3.262v-7.5H187.51v7.5a3.328,3.328,0,0,1-2.672,3.262l-1.793.36v12.045H206.7V271.3Z" transform="translate(-127.014 -218.006)" fill="#fed9a8"/>
    <path id="Path_44260" data-name="Path 44260" d="M93.214,327.423l-14.763-4.6a1.326,1.326,0,0,0-1.306.3l-9.288,8.8-9.288-8.8a1.326,1.326,0,0,0-1.306-.3l-14.763,4.6A15.385,15.385,0,0,0,31.46,342.182v9.835a1.418,1.418,0,0,0,1.418,1.418h69.959a1.418,1.418,0,0,0,1.418-1.418v-9.835A15.385,15.385,0,0,0,93.214,327.423Z" transform="translate(0 -270.442)" fill="#d93a32"/>
    <path id="Path_44261" data-name="Path 44261" d="M320.393,327.423l-14.763-4.6a1.326,1.326,0,0,0-1.306.3l-1.736,1.645,8.514,2.655a15.385,15.385,0,0,1,11.039,14.759v11.253h7.874a1.418,1.418,0,0,0,1.418-1.418v-9.835A15.385,15.385,0,0,0,320.393,327.423Z" transform="translate(-227.179 -270.442)" fill="#ef2929"/>
    <path id="Path_44262" data-name="Path 44262" d="M161.16,82.321h0a18.347,18.347,0,0,1-18.347-18.347V58.818A18.347,18.347,0,0,1,161.16,40.471h0a18.347,18.347,0,0,1,18.347,18.347v5.156A18.347,18.347,0,0,1,161.16,82.321Z" transform="translate(-93.303 -33.911)" fill="#fed9a8"/>
    <path id="Path_44263" data-name="Path 44263" d="M241.038,55.2V76.316a18.354,18.354,0,0,1-13.7,17.753,18.377,18.377,0,0,0,4.646.594h0A18.347,18.347,0,0,0,250.33,76.316V71.16A18.34,18.34,0,0,0,241.038,55.2Z" transform="translate(-164.126 -46.252)" fill="#f4c892"/>
    <g id="Group_41583" data-name="Group 41583" transform="translate(51.111 52.318)">
      <path id="Path_44264" data-name="Path 44264" d="M160.148,323.124l9.288,8.8-5.728,1.951a3.661,3.661,0,0,1-3.934-1.053l-7.085-8.085,6.152-1.918A1.326,1.326,0,0,1,160.148,323.124Z" transform="translate(-152.69 -322.761)" fill="#d4145a"/>
      <path id="Path_44265" data-name="Path 44265" d="M265.288,323.124l-9.288,8.8,5.191,1.768a4.508,4.508,0,0,0,4.844-1.3l6.711-7.659-6.152-1.918A1.326,1.326,0,0,0,265.288,323.124Z" transform="translate(-239.254 -322.761)" fill="#d4145a"/>
    </g>
    <path id="Path_44266" data-name="Path 44266" d="M134.667,435.651h-9.443a.949.949,0,0,1-.949-.949v-4.183a.949.949,0,0,1,.949-.949h9.443a.949.949,0,0,1,.949.949V434.7A.949.949,0,0,1,134.667,435.651Z" transform="translate(-77.769 -359.939)" fill="#eda558"/>
    <path id="Path_44267" data-name="Path 44267" d="M158.138,24.806s-7.916-.628-10.624-7.909c0,0-19.135,15.32-35,7.909V20.938A20.938,20.938,0,0,1,133.455,0H137.2a20.938,20.938,0,0,1,20.938,20.938Z" transform="translate(-67.918)" fill="#fd9727"/>
    <path id="Path_44268" data-name="Path 44268" d="M231.1,0h-3.744a21.136,21.136,0,0,0-2.774.183,20.944,20.944,0,0,1,18.107,19.2c3.338,4.942,9.349,5.42,9.349,5.42V20.938A20.938,20.938,0,0,0,231.1,0Z" transform="translate(-161.814)" fill="#ff6d3a"/>
    <g id="Group_41584" data-name="Group 41584" transform="translate(39.649 69.026)">
      <path id="Path_44269" data-name="Path 44269" d="M415.807,425.836a1.254,1.254,0,0,0-1.254,1.254V439.8h2.507V427.09A1.253,1.253,0,0,0,415.807,425.836Z" transform="translate(-360.644 -425.836)" fill="#d4145a"/>
      <path id="Path_44270" data-name="Path 44270" d="M83.233,425.836a1.254,1.254,0,0,0-1.254,1.254V439.8h2.507V427.09A1.253,1.253,0,0,0,83.233,425.836Z" transform="translate(-81.979 -425.836)" fill="#d4145a"/>
    </g>
    <path id="Path_44271" data-name="Path 44271" d="M284.419,209.813V212.1a4.025,4.025,0,0,1-3.353,3.977l-12.615,2.163a1.252,1.252,0,1,0,.423,2.469l12.615-2.163a6.525,6.525,0,0,0,5.434-6.446v-2.287Z" transform="translate(-197.704 -175.803)" fill="#3d6687"/>
    <path id="Path_44272" data-name="Path 44272" d="M263.664,255.9a2.424,2.424,0,0,1-.407-4.813l4.087-.7a2.424,2.424,0,0,1,.819,4.777l-4.087.7A2.449,2.449,0,0,1,263.664,255.9Z" transform="translate(-192.536 -209.769)" fill="#d4145a"/>
  </g>
</svg>
