<svg xmlns="http://www.w3.org/2000/svg" width="289.874" height="278.316" viewBox="0 0 289.874 278.316">
  <g id="collectionimg" transform="translate(-56.11 -54.693)">
    <g id="freepik--Shadow--inject-68" transform="translate(56.11 316.084)">
      <ellipse id="freepik--path--inject-68" cx="144.937" cy="8.462" rx="144.937" ry="8.462" fill="#f5f5f5"/>
    </g>
    <g id="freepik--Earth--inject-68" transform="translate(91.225 78.877)">
      <circle id="Ellipse_531" data-name="Ellipse 531" cx="77.167" cy="77.167" r="77.167" transform="translate(0 109.131) rotate(-45)" fill="#fff9f9"/>
      <circle id="Ellipse_532" data-name="Ellipse 532" cx="77.167" cy="77.167" r="77.167" transform="translate(0 109.131) rotate(-45)" fill="#fff" opacity="0.2"/>
      <path id="Path_43255" data-name="Path 43255" d="M259.579,137.109l9.718,5.838v9.292s-7.378-1.009-9.718-5.031c0,0,2.011-.852-3.693-4.261S251.558,135.435,259.579,137.109Z" transform="translate(-140.786 -99.588)" fill="#fff" opacity="0.5"/>
      <path id="Path_43256" data-name="Path 43256" d="M250.553,236l-5.591,2.691s-1.682,3.237-1.346,3.125-1.226,6.728-.9,6.825-3.237,2.99-3.237,2.99l-1.682,4.141v4.807l8.081,10.959,5.9,3.356-5.143,28.182,2.123.748L275.6,284.14l1.787-4.814,7.946-3.125,4.246-11.078,4.814-5.591s.441-5.591,0-5.479-2.579.9-2.579.9l-4.022-2.99s-8.5-1.57-8.97-1.121-1.787-5.233-1.787-5.233L269.2,243.43l-8.163-5.367-5.9,1.2Z" transform="translate(-137.097 -124.653)" fill="#fff" opacity="0.5"/>
      <path id="Path_43257" data-name="Path 43257" d="M233.967,217.51h4.321l6.152,3.222,11.482,2.878.538.919-11.377-.187,2.108-1.316-1.689-1.069-4.582-.112.553-.561-4.739-2.429s-2.99-.7-3.087-.366l-1.226.15Z" transform="translate(-135.739 -119.985)" fill="#fff" opacity="0.5"/>
      <path id="Path_43258" data-name="Path 43258" d="M245.446,226.554,244.4,225.53l-1.719.09.718.934Z" transform="translate(-138.329 -122.009)" fill="#fff" opacity="0.5"/>
      <path id="Path_43259" data-name="Path 43259" d="M282.236,137.24H280.89l9.561,5.734,1.5,1.637,9.4,5.412,1.846,2.347,1.5,5.233,5.031,4.029-2.347,1.674,5.367,6.728h1.876l.673-2.684-4.029-8.387,5.577,3.125S304.893,143.422,282.236,137.24Z" transform="translate(-147.977 -99.718)" fill="#fff" opacity="0.5"/>
      <path id="Path_43260" data-name="Path 43260" d="M333.129,177.494h-1.45l-2.422-3.184-2.586,7.042s1.6,8.223,1.719,8.724-.748,1.682-.748,1.682l.748,9.06L330.251,204l1.428,7.714L338,220.425l5.106-7.326.845,1.794A71.793,71.793,0,0,0,333.129,177.494Z" transform="translate(-159.535 -109.077)" fill="#fff" opacity="0.5"/>
      <path id="Path_43261" data-name="Path 43261" d="M284.364,147.1H282.69v2.056l1.674,1h1.51v-1.525Z" transform="translate(-148.431 -102.208)" fill="#fff" opacity="0.5"/>
      <path id="Path_43262" data-name="Path 43262" d="M298.62,152.54l2.519,2.684.665,2.25,2.519,2.444,1.009-1.5,1.839,1.5v-1.674l-1.338-2.011Z" transform="translate(-152.453 -103.581)" fill="#fff" opacity="0.5"/>
      <path id="Path_43263" data-name="Path 43263" d="M253.937,165.934s-11.744,4.358-16.109,7.042-3.655,8.417-3.655,8.417l-7.079,4.022,1.682,7.692-1.674,1.009-2.684-6.376s-9.4-1.338-13.321-.673-4.8,8.387-4.8,8.387l2.347,6.376,5.367.336.673-3.685,5.7.329-3.693,7.049,6.728,1.009.658,4.949,6.728,5.113s1.346,1.674,0,2.347S197.6,200.829,194.576,196.1s-6.877-17.612-3.857-26.672c2.452-7.356,7-14.2,8.454-18.613h0l.045-.15h0a2.542,2.542,0,0,0,.112-.366,2.721,2.721,0,0,0-2.071-3.17c-1.174-.336-3.356,1.009-3.356,1.009H189.62l4.485-2.542,1.839-1.944,1.181-1.054,4.358-1.846-.164-1.338a24.264,24.264,0,0,1,8.223-3.11l-3.184,2.437h3.356l.673,3.8h6.728s-1.674-.441,2.355-2.661,17.111-3.177,17.111-3.177l-4.029,5.838,8.724,4.926-1.009,3.693-5.98-1.682V147.47l-3.738-2.243-.336,3.932-1.346,1.682L227.19,149.5l-4.732,4.7,8.417,8.223,1.346-10.548,12.08,2.684Z" transform="translate(-124.933 -99.483)" fill="#fff" opacity="0.5"/>
      <path id="Path_43264" data-name="Path 43264" d="M148.82,232v6.952l2.13,12.005,2.93,5.8,1.689-4.485s-2.243-3.536-2.243-4.844.8-6.787.8-6.787l-1.958-1.712-2.183-4.844Z" transform="translate(-114.632 -123.643)" fill="#fff" opacity="0.5"/>
      <path id="Path_43265" data-name="Path 43265" d="M331.7,249.657c.194-.748-1.144-1.787-1.144-1.787l-1.712,1.248-2.99,4.6,2.519,2.332a2.474,2.474,0,0,1,2.13-1.069A43.366,43.366,0,0,1,331.7,249.657Z" transform="translate(-159.328 -127.65)" fill="#fff" opacity="0.5"/>
    </g>
    <g id="freepik--character-6--inject-68" transform="translate(260.98 200.247)">
      <path id="Path_43266" data-name="Path 43266" d="M355.587,270.128a.747.747,0,0,1-.4-.12l-24.631-15.87a.748.748,0,1,1,.807-1.256l24.631,15.87a.748.748,0,0,1-.4,1.375Z" transform="translate(-330.175 -250.25)" fill="#fff9f9"/>
      <path id="Path_43267" data-name="Path 43267" d="M417.317,287.264a27.883,27.883,0,0,1-16.072,16.109,27.443,27.443,0,0,1-7.692,1.794c-.269,0-.546.052-.815.06h-.112a27.92,27.92,0,0,1-28.481-34.693c.172-.71.381-1.405.62-2.108h0c.12-.344.239-.688.374-1.039a27.921,27.921,0,0,1,52.177,19.9Z" transform="translate(-338.539 -249.408)" fill="#fff9f9"/>
      <path id="Path_43268" data-name="Path 43268" d="M417.317,287.264a27.883,27.883,0,0,1-16.072,16.109,27.443,27.443,0,0,1-7.692,1.794c-.269,0-.546.052-.815.06h-.112a27.92,27.92,0,0,1-28.481-34.693c.172-.71.381-1.405.62-2.108h0c.12-.344.239-.688.374-1.039a27.921,27.921,0,0,1,52.177,19.9Z" transform="translate(-338.539 -249.408)" fill="#fff" opacity="0.2"/>
      <path id="Path_43269" data-name="Path 43269" d="M404.239,288.288l-1.981,4.2a36.967,36.967,0,0,0-3.648,1.1h0a2.042,2.042,0,0,0-.284.135l-.815,1.061-.239.3-.508.665s-1.039-.463-2.048-.934l-.964-.441a4.04,4.04,0,0,1-.366-.172h-.037l-.284-.135-.127-.052h0l-.254-.12h-.067l-.321-.157a13.912,13.912,0,0,1-1.353-.7,6.588,6.588,0,0,1-1.428-.972,1.346,1.346,0,0,1-.2-.292,1.547,1.547,0,0,1-.187-.5,6.788,6.788,0,0,1,.12-1.869c.179-1.024.456-2,.456-2l2.407-3.162a1.869,1.869,0,0,0,.927.464s.1-.209.12,0a1.951,1.951,0,0,0,1.062-.157,1.638,1.638,0,0,0,.553-.493h0l.067-.09c.12-.164.247-.366.374-.568l.224-.4.082-.164a2.788,2.788,0,0,0,.15-.3c.1-.2.187-.389.269-.561a2.144,2.144,0,0,0,.112-.247c.15-.344.247-.591.247-.591l5.606-.882h.194v.247h0a5.76,5.76,0,0,1-.09.613.891.891,0,0,1-.052.359.742.742,0,0,0,0,.187v.1h0a8.579,8.579,0,0,1-.12,1.009h0a.318.318,0,0,0,0,.037c-.045.411-.075.852-.09,1.286h0a6.272,6.272,0,0,0,.366,3.065,1.652,1.652,0,0,0,.837.605l.127.052a8.817,8.817,0,0,1,1.166.463Z" transform="translate(-345.054 -257.197)" fill="#dd8c6a"/>
      <path id="Path_43270" data-name="Path 43270" d="M398.182,281.122a14.009,14.009,0,0,1-1.532,2.908c4.2,1.316,6.474-2.168,7.288-3.82Z" transform="translate(-346.959 -257.185)" opacity="0.1"/>
      <path id="Path_43271" data-name="Path 43271" d="M406.572,268.916c-1.4,4.552-1.9,6.5-4.807,8.3-4.373,2.714-9.651,0-9.636-4.881,0-4.388,2.325-11.108,7.281-11.818a6.481,6.481,0,0,1,7.4,5.427A6.376,6.376,0,0,1,406.572,268.916Z" transform="translate(-345.817 -252.193)" fill="#dd8c6a"/>
      <path id="Path_43272" data-name="Path 43272" d="M402.579,271.274a2.407,2.407,0,0,1,2.243,3.8,2.325,2.325,0,0,1-2.16.964,2.407,2.407,0,0,1-1.331-4.209A2.056,2.056,0,0,1,402.579,271.274Z" transform="translate(-347.932 -254.924)" fill="#c13b37" opacity="0.2"/>
      <path id="Path_43273" data-name="Path 43273" d="M393.1,269.785a1.6,1.6,0,0,0-.262-.1,20.362,20.362,0,0,0-.748,4.687,2.377,2.377,0,0,0,1-4.612Z" transform="translate(-345.807 -254.526)" fill="#c13b37" opacity="0.2"/>
      <path id="Path_43274" data-name="Path 43274" d="M401.691,271.039c-.1.366-.389.613-.62.546s-.359-.419-.262-.785.381-.613.62-.553S401.736,270.681,401.691,271.039Z" transform="translate(-348 -254.667)" fill="#263238"/>
      <path id="Path_43275" data-name="Path 43275" d="M396.073,269.544c-.1.374-.381.613-.62.546s-.351-.419-.254-.748.381-.613.62-.546S396.17,269.17,396.073,269.544Z" transform="translate(-346.583 -254.301)" fill="#263238"/>
      <path id="Path_43276" data-name="Path 43276" d="M395.895,268.643l-.815-.493S395.342,268.965,395.895,268.643Z" transform="translate(-346.562 -254.14)" fill="#263238"/>
      <path id="Path_43277" data-name="Path 43277" d="M396.356,270.85a10.532,10.532,0,0,1-1.906,2.048,1.7,1.7,0,0,0,1.263.568Z" transform="translate(-346.403 -254.822)" fill="#c13b37"/>
      <path id="Path_43278" data-name="Path 43278" d="M397.62,276.866a2.749,2.749,0,0,1-.561-.1.112.112,0,0,1-.09-.127h0a.112.112,0,0,1,.135-.075A2.99,2.99,0,0,0,399.78,276a.12.12,0,0,1,.164,0,.112.112,0,0,1,0,.157A3.162,3.162,0,0,1,397.62,276.866Z" transform="translate(-347.039 -256.113)" fill="#263238"/>
      <path id="Path_43279" data-name="Path 43279" d="M402.667,268.244a.232.232,0,0,1-.239-.127,2.661,2.661,0,0,0-1.794-1.136.224.224,0,0,1-.194-.254.217.217,0,0,1,.247-.187h0a3.057,3.057,0,0,1,2.138,1.383.224.224,0,0,1-.1.3h0Z" transform="translate(-347.915 -253.733)" fill="#263238"/>
      <path id="Path_43280" data-name="Path 43280" d="M394.379,266.3a.232.232,0,0,1-.187-.135.224.224,0,0,1,.1-.3,2.243,2.243,0,0,1,2.071,0,.209.209,0,0,1,.082.292h0a.217.217,0,0,1-.306.075h0a1.794,1.794,0,0,0-1.622,0A.217.217,0,0,1,394.379,266.3Z" transform="translate(-346.333 -253.499)" fill="#263238"/>
      <path id="Path_43281" data-name="Path 43281" d="M401.465,270.2l-.815-.5S400.912,270.492,401.465,270.2Z" transform="translate(-347.969 -254.531)" fill="#263238"/>
      <path id="Path_43282" data-name="Path 43282" d="M415.8,272.534c2.033,5.591-4.38,2.99-4.38,2.99-.964,2.317-2.086,2.594-2.99,2.243a4.411,4.411,0,0,1-1.772-1.547c-2.026,2.743-3.267,1.637-3.655.135h0a3.992,3.992,0,0,1-.1-1.353s0-.06,0-.09a1.817,1.817,0,0,1,.314-.89h0a1.615,1.615,0,0,0,.179-.232h0a6.727,6.727,0,0,0,.5-.747h0a7.161,7.161,0,0,0,.7-1.667c.037-.15.082-.292.112-.441s.09-.4.127-.605c.164-.867.254-1.794.366-2.811.112-.89.224-1.846.426-2.9.8-4.231-5.158-3.244-6.922-4.209-.553-.292-1.032-.576-1.458-.837h0l-.381-.254a.135.135,0,0,1-.052-.037,10.607,10.607,0,0,1-1.106-.83c-.194-.172-.359-.329-.5-.478h0c-2.452-2.654,2.2-3.379,2.2-3.379-.314-5.061,3.895-3.693,3.895-3.693a7.833,7.833,0,0,1,.568-1.241,28.092,28.092,0,0,1,15.309,6.5,9.128,9.128,0,0,1-.463,2.093c6.773,3.289,1.233,8.081,1.233,8.081C421.87,270.165,415.8,272.534,415.8,272.534Z" transform="translate(-346.412 -249.472)" fill="#263238"/>
      <path id="Path_43283" data-name="Path 43283" d="M409.909,275.78a3.408,3.408,0,0,1-2.138,1.5c-1.174.239-1.682-.837-1.286-1.906s1.413-2.243,2.557-2.018a1.5,1.5,0,0,1,.867,2.444Z" transform="translate(-349.408 -255.446)" fill="#dd8c6a"/>
      <path id="Path_43284" data-name="Path 43284" d="M407.971,275.583c0,.471-.09,1.047-.531,1.218s-1.5.06-1.816.359a.747.747,0,0,0,0,.964,4.1,4.1,0,0,1,.591.86c.112.336-.067.8-.411.792-.232,0-.419-.209-.65-.232-.374-.037-.605.471-.463.822a1.7,1.7,0,0,0,.845.748,3.11,3.11,0,0,1-1.622-.987.673.673,0,0,1-.2-.463.531.531,0,0,1,.6-.381,7.034,7.034,0,0,1,.747.179.613.613,0,0,0,.68-.254c.157-.321-.164-.658-.411-.919-.351-.381-.583-1.009-.239-1.4a1.666,1.666,0,0,1,1.435-.441.957.957,0,0,0,1.032-.934c.045-.807-.1-.8,0-2.086C408.21,273.639,407.941,275.015,407.971,275.583Z" transform="translate(-348.741 -255.473)" fill="#263238"/>
      <path id="Path_43285" data-name="Path 43285" d="M388.479,267.04a.748.748,0,0,0,.187.576,3.737,3.737,0,0,0,1.839,1.368,2.078,2.078,0,0,1-.927-.972c-.142-.441-.284-.748.172-.658.269.052.942.037,1.218.067.419.045.688-.493.583-.9a4.733,4.733,0,0,0-.613-1.106c-.194-.374-.247-.912.09-1.159s1.712-.1,2.243-.239.747-.837.747-1.405c0-.4.179-1.114.164-1.712h.037a.336.336,0,0,1,.411.082,1.6,1.6,0,0,1,.254.366c.142.262.748,1.032,1.039.748a3.735,3.735,0,0,0-.254-.523,3.342,3.342,0,0,0-1.159-1.458,1.241,1.241,0,0,0-.747,0,.059.059,0,0,1-.045.052.807.807,0,0,1-.052.366c-.12.994,0,1.114-.12,1.944a1.166,1.166,0,0,1-1.338,1.024c-.747-.1-1.218-.164-1.787.374s-.239,1.211.142,1.7c.269.344.62.748.4,1.159a.747.747,0,0,1-.845.224c-.306-.082-.583-.254-.9-.306A.622.622,0,0,0,388.479,267.04Z" transform="translate(-344.895 -252.096)" fill="#263238"/>
      <path id="Path_43286" data-name="Path 43286" d="M360.951,278.6a12.647,12.647,0,0,1,1.241-2.414c1.45-2.564,1.129-4.074,0-6.81-.9-.306-3.4,1.308-3.4,1.308a13.12,13.12,0,0,0-.837,1.645,9.5,9.5,0,0,0,.135,6.361c-.8,4.859-1.5,15-1.166,16.027.748,2.452,4.9,3.8,4.694.381S360.487,279.954,360.951,278.6Z" transform="translate(-336.907 -254.44)" fill="#dd8c6a"/>
      <path id="Path_43287" data-name="Path 43287" d="M377.793,291.9a28.951,28.951,0,0,1-7.886,10.2,10.245,10.245,0,0,1-5.651,2.691,6.728,6.728,0,0,1-6.376-2.99c-1.63-2.243-2.243-3.954-2.325-8.387a22.193,22.193,0,0,1,.187-3.872c.62-1.66,1.712-1.674,2.923-1.6.957.06,1.047-.157,1.959.12,1.846.568,2.429,2.5,2.676,4.56.583,4.889,4.433,0,5.547-1.5,2.392-3.117,5.547-6.84,10.017-7.475.658-.1.434,0,.979.411a2.243,2.243,0,0,1,.747,1.891,8.051,8.051,0,0,1-1.787,5.091Z" transform="translate(-336.579 -258.047)" fill="#fff9f9"/>
      <path id="Path_43288" data-name="Path 43288" d="M377.793,291.9a28.951,28.951,0,0,1-7.886,10.2,10.245,10.245,0,0,1-5.651,2.691,6.728,6.728,0,0,1-6.376-2.99c-1.63-2.243-2.243-3.954-2.325-8.387a22.193,22.193,0,0,1,.187-3.872c.62-1.66,1.712-1.674,2.923-1.6.957.06,1.047-.157,1.959.12,1.846.568,2.429,2.5,2.676,4.56.583,4.889,4.433,0,5.547-1.5,2.392-3.117,5.547-6.84,10.017-7.475.658-.1.434,0,.979.411a2.243,2.243,0,0,1,.747,1.891,8.051,8.051,0,0,1-1.787,5.091Z" transform="translate(-336.579 -258.047)" fill="#fff" opacity="0.4"/>
      <path id="Path_43289" data-name="Path 43289" d="M380.465,290.24l-2.676,3.738a16.318,16.318,0,0,0-2.99,9.77h0s3.887-2.99,5.023-5.322S380.465,290.24,380.465,290.24Z" transform="translate(-341.441 -259.717)" opacity="0.1"/>
      <path id="Path_43290" data-name="Path 43290" d="M407.512,294.245l-3.252,7.221-.471.628-5.083,6.788h0l-.456.613a14.473,14.473,0,0,0-1.958,3.551q-.135.359-.247.747l-.045.1c-.06.2-.112.411-.164.613q.045-.277.067-.605a28,28,0,0,1-19.622-6.728c.247-1.831.591-4.545.875-6.728v-.135c.2-1.577.374-2.848.456-3.267a31.628,31.628,0,0,1,3.214-8.432,27.915,27.915,0,0,1,2.99-4.709h0l.112-.09.067-.067h.067l.389.037h.344c.381.037.748.082,1.241.164l.845.157h.194l1.742.374c.262.045.553.112.852.179l.075.867.2,2.175a3.488,3.488,0,0,0,.06.389c0,.792.045,1.637.052,2.422v2.938h0v.307l.09-.045h.06l.06-.045h0l.262-.142.179-.1h0l.194-.1.224-.127h.067l.269-.15.284-.15.748-.419.321-.172.329-.179,1.764-.949.359-.194.344-.187.389-.2,1.5-.785c.194-.112.389-.217.583-.306h0l.321-.157.306-.164.822-.426.807-.4a24.473,24.473,0,0,1,6.414,4.44l.09.082c.045.052.1.1.142.157l.12.12a.748.748,0,0,1,.112.127h0a.956.956,0,0,1,.112.232h0v.082h0a.746.746,0,0,0,0,.12.285.285,0,0,1,0,.112v.045h0a1.053,1.053,0,0,1,0,.157A.965.965,0,0,1,407.512,294.245Z" transform="translate(-341.816 -258.079)" fill="#fff9f9"/>
      <g id="Group_41371" data-name="Group 41371" transform="translate(34.494 25.672)" opacity="0.4">
        <path id="Path_43291" data-name="Path 43291" d="M407.522,294.245l-3.252,7.221-.471.628-5.083,6.788h0l-.456.613a14.472,14.472,0,0,0-1.958,3.551q-.135.359-.247.747a.277.277,0,0,0,0,.1c-.067.2-.127.4-.179.613q.045-.277.067-.605a28,28,0,0,1-19.622-6.728c.247-1.831.591-4.545.875-6.728v-.135c.2-1.577.374-2.848.456-3.267a31.629,31.629,0,0,1,3.214-8.432,27.913,27.913,0,0,1,2.99-4.709h0l.112-.09.067-.067h.067l.389.037h.344c.381.037.748.082,1.241.164l.845.157h.194l1.742.374c.262.045.553.112.852.179l.075.867.2,2.175a3.5,3.5,0,0,0,.06.389c0,.792.045,1.637.052,2.422v3.259l.09-.045h.112l.262-.142.179-.1h0l.194-.1.224-.127h.067l.269-.15.284-.15.748-.419.321-.172.329-.179,1.764-.949.359-.194.344-.187.389-.2,1.5-.785c.194-.112.389-.217.583-.307h0l.321-.157.306-.164.822-.426.807-.4a24.472,24.472,0,0,1,6.414,4.44l.09.082c.045.052.1.1.142.157l.12.12a.748.748,0,0,1,.112.127h0a.957.957,0,0,1,.112.232h0v.082h0a.745.745,0,0,0,0,.12.284.284,0,0,1,0,.112v.045h0a1.053,1.053,0,0,1,0,.157.962.962,0,0,1,.165.15Z" transform="translate(-376.32 -283.75)" fill="#fff"/>
      </g>
      <g id="Group_41372" data-name="Group 41372" transform="translate(41.991 25.522)" opacity="0.9">
        <path id="Path_43292" data-name="Path 43292" d="M392.659,293.642h-.045s-.411-.336-1.017-.852c-.83-.7-2.026-1.719-3.065-2.586l-.949-.822-1.129-.957c-.269-.239.052-3.992.12-4.747h0a.8.8,0,0,0,0-.127l2.018.351.845.15.194.037,2.579.441v.112l.075.867.2,2.168a2.305,2.305,0,0,0,.06.4c0,.792.045,1.637.06,2.422v3.162Z" transform="translate(-386.349 -283.55)" fill="#fff"/>
        <path id="Path_43293" data-name="Path 43293" d="M412.253,294.99h0a40.578,40.578,0,0,0-6.862,1.794L395,295.244c.994-.553,6.787-3.693,9.449-5.031l.807-.4a24.3,24.3,0,0,1,6.414,4.44,2.389,2.389,0,0,1,.232.239,1.759,1.759,0,0,1,.224.247h0a.688.688,0,0,1,.127.254Z" transform="translate(-388.533 -285.13)" fill="#fff"/>
      </g>
      <path id="Path_43294" data-name="Path 43294" d="M410.4,307.171l-5.083,6.787h0l-.456.613a14.472,14.472,0,0,0-1.958,3.551q-.135.359-.247.748a.277.277,0,0,0,0,.1c-.067.2-.127.4-.179.613q.045-.277.067-.606c.037-.516.037-1.061.1-1.405a24.525,24.525,0,0,1,2.781-7.513,23.375,23.375,0,0,1,3.932-5.434c.792-.688,1.57-1.009,2.2-.568A11.67,11.67,0,0,1,410.4,307.171Z" transform="translate(-348.431 -263.156)" opacity="0.1"/>
      <path id="Path_43295" data-name="Path 43295" d="M414.116,309.944a40.141,40.141,0,0,0-2.654,5.36,27.442,27.442,0,0,1-7.692,1.794c.486-1.331,1.136-3.057,1.876-4.934,1.218-3.035,2.669-6.488,4.014-9.352a25.159,25.159,0,0,1,3.356-5.838c.254-.247.463-.351.628-.3h0a1.181,1.181,0,0,1,.269.1.052.052,0,0,1,.045,0,3.139,3.139,0,0,1,.561.344,5.4,5.4,0,0,1,1.181,1.248,7.864,7.864,0,0,1,.8,3.625,20.931,20.931,0,0,1-2.385,7.946Z" transform="translate(-348.756 -261.339)" fill="#fff9f9"/>
      <g id="Group_41373" data-name="Group 41373" transform="translate(55.014 35.324)" opacity="0.4">
        <path id="Path_43296" data-name="Path 43296" d="M414.116,309.944a40.141,40.141,0,0,0-2.654,5.36,27.442,27.442,0,0,1-7.692,1.794c.486-1.331,1.136-3.057,1.876-4.934,1.218-3.035,2.669-6.488,4.014-9.352a25.159,25.159,0,0,1,3.356-5.838c.254-.247.463-.351.628-.3h0a1.181,1.181,0,0,1,.269.1.052.052,0,0,1,.045,0,2.873,2.873,0,0,1,.561.3,3.521,3.521,0,0,1,1.181,1.293,7.864,7.864,0,0,1,.8,3.626,20.931,20.931,0,0,1-2.385,7.946Z" transform="translate(-403.77 -296.662)" fill="#fff"/>
      </g>
      <g id="Group_41374" data-name="Group 41374" transform="translate(41.991 25.522)" opacity="0.9">
        <path id="Path_43297" data-name="Path 43297" d="M392.659,293.642h-.045s-.411-.336-1.017-.852c-.83-.7-2.026-1.719-3.065-2.586l-.949-.822-1.129-.957c-.269-.239.052-3.992.12-4.747h0a.8.8,0,0,0,0-.127l2.018.351.845.15.194.037,2.579.441v.112l.075.867.2,2.168a2.305,2.305,0,0,0,.06.4c0,.792.045,1.637.06,2.422v3.162Z" transform="translate(-386.349 -283.55)" fill="#fff9f9"/>
        <path id="Path_43298" data-name="Path 43298" d="M412.253,294.99h0a40.578,40.578,0,0,0-6.862,1.794L395,295.244c.994-.553,6.787-3.693,9.449-5.031l.807-.4a24.3,24.3,0,0,1,6.414,4.44,2.389,2.389,0,0,1,.232.239,1.759,1.759,0,0,1,.224.247h0a.688.688,0,0,1,.127.254Z" transform="translate(-388.533 -285.13)" fill="#fff9f9"/>
      </g>
      <path id="Path_43299" data-name="Path 43299" d="M394.69,289.58l.075,5.584h.157l5.905-3.2S396.222,292.839,394.69,289.58Z" transform="translate(-346.464 -259.55)" fill="#263238"/>
      <path id="Path_43300" data-name="Path 43300" d="M392.8,293.26l-.06-.037-5.524-4.964a.187.187,0,0,1-.06-.135l.075-4.433a.172.172,0,1,1,.344.007l-.067,4.351,5.464,4.919a.172.172,0,0,1,0,.247.179.179,0,0,1-.172.045Z" transform="translate(-344.563 -258.02)" fill="#263238"/>
      <path id="Path_43301" data-name="Path 43301" d="M395.755,296.47a.173.173,0,0,1,.082-.336l9.583,1.331a28.51,28.51,0,0,1,6.623-1.585.173.173,0,0,1,.037.344,28.174,28.174,0,0,0-6.571,1.577.186.186,0,0,1-.09,0l-9.628-1.308Z" transform="translate(-346.699 -261.141)" fill="#263238"/>
      <path id="Path_43302" data-name="Path 43302" d="M397.442,300.126a2,2,0,0,0-.217-1.562,2.452,2.452,0,0,0-1.1-1.032,6.13,6.13,0,0,0-1.233-.411,7.024,7.024,0,0,1-1.061-.336l-.239-.12h0c-.067-.045-.135-.075-.2-.127h0l-.284-.157h0l-.284-.179c-.262-.164-.531-.329-.748-.463a3.28,3.28,0,0,0-.478-.247h-.09a2.676,2.676,0,0,0-2.429.06,1.868,1.868,0,0,0-.665.748c-.7,1.248-.277,1.921,0,2.205a1.5,1.5,0,0,0,1.5.157,11.6,11.6,0,0,0,2.347-.837h0a.63.63,0,0,0,.157-.082,4.588,4.588,0,0,0,.6-.366,4.954,4.954,0,0,0,.075.688.218.218,0,0,0,0,.067h0a7.178,7.178,0,0,0,.366,1.248,3.787,3.787,0,0,0,1.682,2.295l.135.045A2.114,2.114,0,0,0,397.442,300.126Zm-7.655-1.869c-.553.15-.927.127-1.151-.082-.411-.381-.4-1.017,0-1.779a1.45,1.45,0,0,1,.568-.591,2.564,2.564,0,0,1,2.19,0,9.528,9.528,0,0,1,1.189.68l.493.3a.067.067,0,0,0-.052,0,6.028,6.028,0,0,1-1.039.658,11.749,11.749,0,0,1-2.2.815Zm5.562,3.042c-.792-.209-1.323-1.42-1.577-2.115a9.1,9.1,0,0,1-.306-1.032,4.791,4.791,0,0,1-.135-1.2h0l.374.187a7.424,7.424,0,0,0,1.114.359,6.158,6.158,0,0,1,1.174.381,2.071,2.071,0,0,1,1,1.017,1.7,1.7,0,0,1,.135,1.174C396.9,300.784,396.081,301.5,395.349,301.3Z" transform="translate(-344.783 -260.977)" fill="#263238"/>
      <path id="Path_43303" data-name="Path 43303" d="M389.167,303.919h0a.172.172,0,0,1-.075-.239,34.31,34.31,0,0,1,3.992-6.07.254.254,0,0,1,.441.217,52.585,52.585,0,0,0-.919,6.608.172.172,0,1,1-.344,0,55.466,55.466,0,0,1,.845-6.272,34.117,34.117,0,0,0-3.738,5.711.179.179,0,0,1-.2.045Z" transform="translate(-345.045 -261.556)" fill="#263238"/>
    </g>
    <g id="freepik--character-5--inject-68" transform="translate(254.512 87.413)">
      <path id="Path_43304" data-name="Path 43304" d="M393.468,122.116a20.48,20.48,0,0,1-18.688,31.172,14.887,14.887,0,0,1-1.5-.15,20.475,20.475,0,0,1-9.92-36.367,18.817,18.817,0,0,1,1.944-1.36,20.37,20.37,0,0,1,7.363-2.758h.112c.605-.1,1.211-.172,1.816-.209h0a20.49,20.49,0,0,1,18.187,8.626C393.02,121.413,393.267,121.757,393.468,122.116Z" transform="translate(-330.118 -101.98)" fill="#fff9f9"/>
      <path id="Path_43305" data-name="Path 43305" d="M393.468,122.116a20.48,20.48,0,0,1-18.688,31.172,14.887,14.887,0,0,1-1.5-.15,20.475,20.475,0,0,1-9.92-36.367,18.817,18.817,0,0,1,1.944-1.36,20.37,20.37,0,0,1,7.363-2.758h.112c.605-.1,1.211-.172,1.816-.209h0a20.49,20.49,0,0,1,18.187,8.626C393.02,121.413,393.267,121.757,393.468,122.116Z" transform="translate(-330.118 -101.98)" fill="#fff" opacity="0.2"/>
      <path id="Path_43306" data-name="Path 43306" d="M322.276,166.937a.748.748,0,0,1-.374-1.4l46.758-26.993a.747.747,0,0,1,.748,1.293l-46.78,26.993A.747.747,0,0,1,322.276,166.937Z" transform="translate(-321.523 -108.559)" fill="#fff9f9"/>
      <path id="Path_43307" data-name="Path 43307" d="M372.819,152.958c.1.164.209.344.307.516a22.2,22.2,0,0,1,1.375,2.99c.882,2.377,1.727,5.008,3.738,6.526a14.9,14.9,0,0,1-1.5-.15,20.5,20.5,0,0,1-6.832-2.168,14.337,14.337,0,0,1-.426-1.779c-.179-1.032-.785-4.807-.314-6.817a2.872,2.872,0,0,1,.127-.426,1.263,1.263,0,0,1,.665-.8,1.615,1.615,0,0,1,1.674.531A7.712,7.712,0,0,1,372.819,152.958Z" transform="translate(-333.509 -111.676)" fill="#ffb573"/>
      <path id="Path_43308" data-name="Path 43308" d="M368.218,146.724a3.738,3.738,0,0,0,.277,2.639,4.388,4.388,0,0,0,2.534,1.54c1.032.336,2.317.62,3.072-.15s.493-1.966.164-2.945a41.505,41.505,0,0,0-1.757-4.4C370.64,139.353,368.569,144.78,368.218,146.724Z" transform="translate(-333.281 -109.44)" fill="#263238"/>
      <path id="Path_43309" data-name="Path 43309" d="M398.295,146.737a20.49,20.49,0,0,1-19.6,11.46,14.887,14.887,0,0,1-1.5-.15,62.466,62.466,0,0,1-4.485-9.441c-.1-.262-.179-.523-.262-.748-.15-.449-.277-.86-.389-1.248-.493-1.667-.748-2.878-1.047-3.977a1.667,1.667,0,0,1-.075-.321,3.857,3.857,0,0,1,1.5-3.895c.254-.187.523-.374.807-.568a13.407,13.407,0,0,1,1.2-.748l.434-.269a68.027,68.027,0,0,1,6.66-3.192h0l.546-.224.62-.254c.508-.2,1.017-.381,1.5-.546h0a3.186,3.186,0,0,1,.351-.112h0l.269-.1c.045,0,.852-.493.89-.508a3.229,3.229,0,0,1,3.319.987h0a3.511,3.511,0,0,1,.449.673,3.117,3.117,0,0,1,.217.561l.531.673.284.366.2.262h0l1.435,1.906.157.217.112.157.164.217a74.008,74.008,0,0,1,5.719,8.821Z" transform="translate(-333.98 -106.874)" fill="#fff9f9"/>
      <path id="Path_43310" data-name="Path 43310" d="M398.295,146.737a20.49,20.49,0,0,1-19.6,11.46,14.887,14.887,0,0,1-1.5-.15,62.466,62.466,0,0,1-4.485-9.441c-.1-.262-.179-.523-.262-.748-.15-.449-.277-.86-.389-1.248-.493-1.667-.748-2.878-1.047-3.977a1.667,1.667,0,0,1-.075-.321,3.857,3.857,0,0,1,1.5-3.895c.254-.187.523-.374.807-.568a13.407,13.407,0,0,1,1.2-.748l.434-.269a68.027,68.027,0,0,1,6.66-3.192h0l.546-.224.62-.254c.508-.2,1.017-.381,1.5-.546h0a3.186,3.186,0,0,1,.351-.112h0l.269-.1c.045,0,.852-.493.89-.508a3.229,3.229,0,0,1,3.319.987h0a3.511,3.511,0,0,1,.449.673,3.117,3.117,0,0,1,.217.561l.531.673.284.366.2.262h0l1.435,1.906.157.217.112.157.164.217a74.008,74.008,0,0,1,5.719,8.821Z" transform="translate(-333.98 -106.874)" fill="#fff" opacity="0.5"/>
      <path id="Path_43311" data-name="Path 43311" d="M374.421,136.872a2.587,2.587,0,0,0-.344,1.5,9.718,9.718,0,0,0,1.7,5.315,1.988,1.988,0,0,1,2.908-2.243c.576.329,1.2.964,1.772.613a1.3,1.3,0,0,0,.426-.635L383.13,136a5.389,5.389,0,0,0,.546-2.048,1.831,1.831,0,0,0-1.032-1.734,2.37,2.37,0,0,0-.987,0,9.635,9.635,0,0,0-5.651,2.938Z" transform="translate(-334.79 -106.974)" fill="#263238"/>
      <path id="Path_43312" data-name="Path 43312" d="M379.127,127.132c3.117,3.924,4.433,5.4,3.1,6.84-1.114,1.2-1.884,2.661-2.99,3.865a2.243,2.243,0,0,1-3.356-.082,1.749,1.749,0,0,1-.359-1.5c.224-2.2-.441-3.072-.366-5.233l2.243-4.134a.927.927,0,0,1,1.727.239Z" transform="translate(-335.063 -105.516)" fill="#ffb573"/>
      <path id="Path_43313" data-name="Path 43313" d="M378.312,127.645a.927.927,0,0,0-1.719-.239l-2.243,4.134c.65.658.747,2.295.987,3.184a8.7,8.7,0,0,0,2.452-2.1,5.367,5.367,0,0,0,1.5-2.758,20.753,20.753,0,0,1-.972-2.22Z" transform="translate(-334.861 -105.649)" opacity="0.2" style="isolation: isolate"/>
      <path id="Path_43314" data-name="Path 43314" d="M378.135,119.267c.157.531.314,1.032.456,1.5.748,2.482,1.106,4.164.06,6.152a5.466,5.466,0,0,1-9.075.792c-1.884-2.654-3.177-7.714-.045-10.353a5.5,5.5,0,0,1,7.707.262A4.231,4.231,0,0,1,378.135,119.267Z" transform="translate(-333.167 -102.869)" fill="#ffb573"/>
      <path id="Path_43315" data-name="Path 43315" d="M373.932,123.112c.045.306-.075.583-.277.613s-.4-.194-.449-.5.075-.576.277-.605S373.887,122.813,373.932,123.112Z" transform="translate(-334.57 -104.562)" fill="#263238"/>
      <path id="Path_43316" data-name="Path 43316" d="M369.684,124.73c.045.306-.075.576-.269.613s-.4-.194-.449-.5.075-.583.277-.613S369.647,124.431,369.684,124.73Z" transform="translate(-333.499 -104.968)" fill="#263238"/>
      <path id="Path_43317" data-name="Path 43317" d="M374.343,121.468a.179.179,0,0,1-.187-.045,1.435,1.435,0,0,0-1.241-.419.179.179,0,0,1-.217-.135h0a.179.179,0,0,1,.135-.217h0a1.824,1.824,0,0,1,1.57.516.187.187,0,0,1,0,.262Z" transform="translate(-334.442 -104.061)" fill="#263238"/>
      <path id="Path_43318" data-name="Path 43318" d="M367.121,123.308a.179.179,0,0,1-.224-.112.15.15,0,0,1,0-.112,1.787,1.787,0,0,1,1.121-1.226.179.179,0,0,1,.224.12h0a.187.187,0,0,1-.127.224h0a1.428,1.428,0,0,0-.882.964A.187.187,0,0,1,367.121,123.308Z" transform="translate(-332.976 -104.368)" fill="#263238"/>
      <path id="Path_43319" data-name="Path 43319" d="M370.288,125.35a9.4,9.4,0,0,1-.748,2.489,1.547,1.547,0,0,0,1.286-.037Z" transform="translate(-333.646 -105.252)" fill="#ff5652"/>
      <path id="Path_43320" data-name="Path 43320" d="M371,129.452a28.042,28.042,0,0,1,4.216-2.422,2.97,2.97,0,0,1-1.966,2.953A1.52,1.52,0,0,1,371,129.452Z" transform="translate(-334.015 -105.676)" fill="#263238"/>
      <path id="Path_43321" data-name="Path 43321" d="M374.085,129.462a3.685,3.685,0,0,0-1.585,1.323,2.018,2.018,0,0,0,1.121-.232,3.588,3.588,0,0,0,1.585-1.316A2.041,2.041,0,0,0,374.085,129.462Z" transform="translate(-334.393 -106.231)" fill="#ff5652"/>
      <path id="Path_43322" data-name="Path 43322" d="M371.21,129.38a.7.7,0,0,0,.7.187,21.4,21.4,0,0,0,2.721-1.645,1.061,1.061,0,0,0,.516-.792A32.637,32.637,0,0,0,371.21,129.38Z" transform="translate(-334.068 -105.701)" fill="#fff"/>
      <path id="Path_43323" data-name="Path 43323" d="M374.9,111.933a3.08,3.08,0,0,0-3.207-.964,2.041,2.041,0,0,0,1.555,1.413,9.605,9.605,0,0,0-3.08-.576.957.957,0,0,0-.792.247.665.665,0,0,0,.172.89,1.6,1.6,0,0,0,.942.277,3.334,3.334,0,0,0-3.984.605.934.934,0,0,0,1.338.748,3.379,3.379,0,0,0-1.42.262,1.2,1.2,0,0,0-.71,1.159.748.748,0,0,0,1.076.546.837.837,0,0,0-.7,1.084,1,1,0,0,0,1.248.538,1.233,1.233,0,0,0,.747-1.2.867.867,0,0,0,.224,1.233.987.987,0,0,0,1.263-.277,1.136,1.136,0,0,0-.052-1.323.748.748,0,1,0,1.278-.6,2.811,2.811,0,0,0,2.811,1.278,1.682,1.682,0,0,0-1.069-1.181,2.16,2.16,0,0,0,2.28.3l-.478-.748a2.243,2.243,0,0,0,2.728.673,1.263,1.263,0,0,0-.934-.807.957.957,0,0,0,1.5-.262,1.547,1.547,0,0,0-.389-1.682,4.485,4.485,0,0,0-1.57-.934,1.286,1.286,0,0,1,1.54.157.979.979,0,1,0-1.9-.344,1.3,1.3,0,0,0-1.009-.665Z" transform="translate(-332.679 -101.59)" fill="#263238"/>
      <path id="Path_43324" data-name="Path 43324" d="M380.518,119.7c.157.531.314,1.032.456,1.5a2.116,2.116,0,0,0-.822,1.8,7.957,7.957,0,0,0-1.383-2.781c-.441-.718-1.174-1.047-1.5-1.607-.822-1.338,1.136-1.1,2.37-.561a4.232,4.232,0,0,1,.875,1.652Z" transform="translate(-335.549 -103.299)" opacity="0.2" style="isolation: isolate"/>
      <path id="Path_43325" data-name="Path 43325" d="M392.381,132.155l.583-.157.538-.15c.344-.1.68-.224,1.017-.336.673-.239,1.331-.493,1.988-.748a28.93,28.93,0,0,0,3.8-1.944,24.409,24.409,0,0,0,3.536-2.571,37.175,37.175,0,0,0,3.169-3.551c.351-1.779,1.353.284-3.521-16.67-.2-.807-1.054.449-1.869.65-.643.157-.613.9-.643,1.57l.62,8.417c0,.568-.037,1.121-.067,1.667l-.06.792a6.721,6.721,0,0,1-.082.748l.546-1.42a18.747,18.747,0,0,1-5.233,4.052,31.571,31.571,0,0,1-3.177,1.5c-.538.232-1.084.449-1.622.643l-.83.284-.4.135-.359.1-.172.06a2.99,2.99,0,0,0-2.078,3.738c.463,1.6,2.721,3.678,4.328,3.222h0Z" transform="translate(-338.293 -100.306)" fill="#ffb573"/>
      <path id="Path_43326" data-name="Path 43326" d="M399,133.144a3.05,3.05,0,0,1,.292,1.42,2.781,2.781,0,0,1-1.308,1.742,8.806,8.806,0,0,1-4.724,1.779,5.375,5.375,0,0,1-4.485-2,3.909,3.909,0,0,1,0-4.739,6.728,6.728,0,0,1,2.639-1.6c1.241-.516,3.865-2.243,5.233-1.607S398.51,131.858,399,133.144Z" transform="translate(-338.299 -105.922)" fill="#263238"/>
      <path id="Path_43327" data-name="Path 43327" d="M382.9,122.826a2.826,2.826,0,0,1-1.144,1.749c-.747.493-1.323-.254-1.293-1.233s.471-2.183,1.308-2.243S383.106,121.914,382.9,122.826Z" transform="translate(-336.403 -104.178)" fill="#ffb573"/>
      <path id="Path_43328" data-name="Path 43328" d="M407.255,105.535l-.994-3.125-3.67,2.295s1.166,2.766,2.99,2.489Z" transform="translate(-341.99 -99.46)" fill="#ffb573"/>
      <path id="Path_43329" data-name="Path 43329" d="M406.076,101.414l-.912-2.437a.792.792,0,0,0-1.017-.463l-1.772.673a.785.785,0,0,0-.508.852l.538,3.67S404.8,104.665,406.076,101.414Z" transform="translate(-341.806 -98.464)" fill="#ffb573"/>
    </g>
    <g id="freepik--character-4--inject-68" transform="translate(171.017 54.693)">
      <path id="Path_43330" data-name="Path 43330" d="M248.647,131.728a.747.747,0,0,1-.747-.748v-24a.748.748,0,1,1,1.5,0v24A.747.747,0,0,1,248.647,131.728Z" transform="translate(-219.44 -67.705)" fill="#fff9f9"/>
      <circle id="Ellipse_533" data-name="Ellipse 533" cx="20.557" cy="20.557" r="20.557" transform="matrix(0.66, -0.751, 0.751, 0.66, 0, 30.887)" fill="#fff9f9"/>
      <circle id="Ellipse_534" data-name="Ellipse 534" cx="20.557" cy="20.557" r="20.557" transform="matrix(0.66, -0.751, 0.751, 0.66, 0, 30.887)" fill="#fff" opacity="0.2"/>
      <path id="Path_43331" data-name="Path 43331" d="M228.233,104.69c.748.89,1.547,1.787,2.325,2.684a15.145,15.145,0,0,0,3.558,3.319l1.876.822.411.172a3.738,3.738,0,0,0,5.3-3.6,79.233,79.233,0,0,0-1.226-12.043,15.191,15.191,0,0,0-1.278-4.1c-.867-1.5-2.048,0-3.312,1.637-.852,1.076-1.159,6.145,0,10.7-2.078-1.5-4.747-4.074-7.094-5.128-.486-.217-2.519,1.2-2.347,2.407a6.5,6.5,0,0,0,1.787,3.117Z" transform="translate(-214.021 -63.944)" fill="#fff9f9"/>
      <path id="Path_43332" data-name="Path 43332" d="M236.71,117.23a6.384,6.384,0,0,0,1.876.822Z" transform="translate(-216.614 -70.482)" fill="#fff9f9"/>
      <path id="Path_43333" data-name="Path 43333" d="M228.233,104.69c.748.89,1.547,1.787,2.325,2.684a15.145,15.145,0,0,0,3.558,3.319l1.876.822.411.172a3.738,3.738,0,0,0,5.3-3.6,79.233,79.233,0,0,0-1.226-12.043,15.191,15.191,0,0,0-1.278-4.1c-.867-1.5-2.048,0-3.312,1.637-.852,1.076-1.159,6.145,0,10.7-2.078-1.5-4.747-4.074-7.094-5.128-.486-.217-2.519,1.2-2.347,2.407a6.5,6.5,0,0,0,1.787,3.117Z" transform="translate(-214.021 -63.944)" fill="#fff" opacity="0.4"/>
      <path id="Path_43334" data-name="Path 43334" d="M236.71,117.23a6.384,6.384,0,0,0,1.876.822Z" transform="translate(-216.614 -70.482)" fill="#fff" opacity="0.4"/>
      <path id="Path_43335" data-name="Path 43335" d="M227.815,101.744V98.38l-3.655,1.383a7.032,7.032,0,0,0,2.243,2.99Z" transform="translate(-213.446 -65.723)" fill="#efb69a"/>
      <path id="Path_43336" data-name="Path 43336" d="M225.388,93.86l-2.108,2.153.68,2.594,3.648-1.39Z" transform="translate(-213.224 -64.582)" fill="#efb69a"/>
      <path id="Path_43337" data-name="Path 43337" d="M241.06,100.038c.7,2.661,2.766,6.145,4.4,10.585a.523.523,0,0,0,.067.127l.561.1h0l.493.1,10.465-1.959h0c.142-.082.277-.179.411-.269h0c.471-.321.942-.65,1.405-.987-.964-5.083-1.428-9.92-.83-20.437a1.831,1.831,0,0,0-1.719-1.944,2.34,2.34,0,0,0-.4,0c-1.084.172-2.452.434-3.82.792a47.6,47.6,0,0,0-6.361,2.011c-1.764.748-3.663,1.674-4.762,2.243A1.854,1.854,0,0,0,240,92.145a31.988,31.988,0,0,0,1.061,7.894Z" transform="translate(-217.444 -62.433)" fill="#263238"/>
      <path id="Path_43338" data-name="Path 43338" d="M248.821,99.081a.523.523,0,1,1-.62-.4.508.508,0,0,1,.62.4Z" transform="translate(-219.411 -65.796)" fill="#fff" opacity="0.4"/>
      <path id="Path_43339" data-name="Path 43339" d="M250.862,106.433a.523.523,0,0,1-1.017.224.516.516,0,0,1,.4-.62.531.531,0,0,1,.62.4Z" transform="translate(-219.928 -67.653)" fill="#fff" opacity="0.4"/>
      <path id="Path_43340" data-name="Path 43340" d="M255,85.83l-.329.875c-1.233,3.267-4.537,7.7-5.98,8.3a5.651,5.651,0,0,0-1.891-1.846,3.311,3.311,0,0,0-1.4,2.243,8.47,8.47,0,0,1-1.757-5.89h0c.748-.344,1.5-.7,2.243-1.009a48.449,48.449,0,0,1,6.369-2.011A23.175,23.175,0,0,1,255,85.83Z" transform="translate(-218.357 -62.554)" fill="#fff9f9"/>
      <g id="Group_41375" data-name="Group 41375" transform="translate(25.255 23.276)" opacity="0.3">
        <path id="Path_43341" data-name="Path 43341" d="M255,85.83l-.329.875c-1.233,3.267-4.537,7.7-5.98,8.3a5.651,5.651,0,0,0-1.891-1.846,3.311,3.311,0,0,0-1.4,2.243,8.47,8.47,0,0,1-1.757-5.89h0c.748-.344,1.5-.7,2.243-1.009a48.449,48.449,0,0,1,6.369-2.011A23.175,23.175,0,0,1,255,85.83Z" transform="translate(-243.612 -85.83)" fill="#fff"/>
      </g>
      <path id="Path_43342" data-name="Path 43342" d="M233.077,73.574a10.742,10.742,0,0,1-.419,7.625c-1.734,4.38,4.425,5.569,8.126,4.485,3.267-.972,9.935-5.89,10.615-8.888s-2.728-2.243-4.859-6.944-5.674-3.169-8.694-2.512C233.5,67.3,231.978,70.628,233.077,73.574Z" transform="translate(-215.515 -57.691)" fill="#263238"/>
      <path id="Path_43343" data-name="Path 43343" d="M246.05,84.376c1.144,1,2.108,2.243,1.061,4.156a2.011,2.011,0,0,0-.239,1.308c.142.748.71,1.316,2.728-.553,2.923-2.714,2.153-4.889,2.153-4.889-1.884-.149-3.738-3.625-4.627-5.659Z" transform="translate(-218.973 -60.764)" fill="#efb69a"/>
      <path id="Path_43344" data-name="Path 43344" d="M247.647,82.747c.463.845-.179,2.5-.748,3.222a6.391,6.391,0,0,0-.8-.822l.643-3.326a3.177,3.177,0,0,1,.9.927Z" transform="translate(-218.985 -61.542)" opacity="0.2" style="isolation: isolate"/>
      <path id="Path_43345" data-name="Path 43345" d="M244.066,70.577a4.822,4.822,0,0,0-6.817-.262c-2.766,2.527-1.405,7.61.411,10.323,2,2.99,6.391,2.5,7.969-.987,1.061-2.332.553-3.738-.463-7.131A4.791,4.791,0,0,0,244.066,70.577Z" transform="translate(-216.353 -58.313)" fill="#efb69a"/>
      <path id="Path_43346" data-name="Path 43346" d="M237.624,79.347a.3.3,0,0,0-.194-.157.366.366,0,0,0-.247.052.478.478,0,0,0-.194.493l-.292.045a.748.748,0,0,1,.329-.748l.09-.052a.561.561,0,0,1,.748.254Z" transform="translate(-216.609 -60.811)" fill="#263238"/>
      <path id="Path_43347" data-name="Path 43347" d="M242.156,77.315c.082.277,0,.546-.164.605s-.4-.12-.493-.389,0-.546.164-.605S242.059,77.061,242.156,77.315Z" transform="translate(-217.814 -60.303)" fill="#263238"/>
      <path id="Path_43348" data-name="Path 43348" d="M241.608,77h-.748S241.383,77.374,241.608,77Z" transform="translate(-217.662 -60.325)" fill="#263238"/>
      <path id="Path_43349" data-name="Path 43349" d="M239.962,81.356a1.263,1.263,0,0,1-1.032.179,7.6,7.6,0,0,0,.329-2.086Z" transform="translate(-217.175 -60.943)" fill="#ed893e"/>
      <path id="Path_43350" data-name="Path 43350" d="M243.253,81.024a.082.082,0,0,0-.06-.1.09.09,0,0,0-.1.067,2.243,2.243,0,0,1-1.435,1.5.082.082,0,0,0-.045.1h0a.082.082,0,0,0,.1.045,2.361,2.361,0,0,0,.374-.164,2.4,2.4,0,0,0,1.166-1.443Z" transform="translate(-217.85 -61.314)" fill="#ea6b3f"/>
      <path id="Path_43351" data-name="Path 43351" d="M233.458,71.933c-.852,1.757,1.555,3.072,1.637,2.071.127-1.645,1.368-2.295,1.076-3.581C235.716,68.383,234.311,70.177,233.458,71.933Z" transform="translate(-215.747 -58.435)" fill="#263238"/>
      <path id="Path_43352" data-name="Path 43352" d="M241.3,74.881h0a.172.172,0,0,0-.082-.224,2.3,2.3,0,0,0-1.914.187.164.164,0,0,0-.06.224.172.172,0,0,0,.232.067,1.921,1.921,0,0,1,1.592-.179.172.172,0,0,0,.194,0Z" transform="translate(-217.248 -59.701)" fill="#263238"/>
      <path id="Path_43353" data-name="Path 43353" d="M235.431,77.53a1.331,1.331,0,0,1,.9-.822h0a.168.168,0,0,0-.067-.329,1.682,1.682,0,0,0-1.151,1.024h0a.172.172,0,0,0,.1.217.164.164,0,0,0,.164,0A.254.254,0,0,0,235.431,77.53Z" transform="translate(-216.21 -60.167)" fill="#263238"/>
      <path id="Path_43354" data-name="Path 43354" d="M239.117,70.649a3.663,3.663,0,0,1,2.87,1.248,6.444,6.444,0,0,0,1,1.151c.4.292,1.816,1.54,2.243,1.749s.06-.919.381-1.218a7.3,7.3,0,0,0,.979-.875,1.951,1.951,0,0,0,.224-1.734,3.656,3.656,0,0,0-1.017-1.5,6.414,6.414,0,0,0-9.142.381c-.374.411-.942,1.428.351,1.54.351,0,.307-.232.628-.389A3.536,3.536,0,0,1,239.117,70.649Z" transform="translate(-216.487 -57.988)" fill="#263238"/>
      <path id="Path_43355" data-name="Path 43355" d="M247.955,72.971a5.167,5.167,0,0,0-4.1-.277,4.68,4.68,0,0,1-1.824.187,5.058,5.058,0,0,1-2.848-2.489,1.562,1.562,0,0,0-1.286-.748,1.338,1.338,0,0,0-.964.7,1.5,1.5,0,0,0,.381,1.405l-.164.112a1.66,1.66,0,0,1-.4-1.592,1.555,1.555,0,0,1,1.121-.822,1.719,1.719,0,0,1,1.5.882,4.967,4.967,0,0,0,2.706,2.377,4.65,4.65,0,0,0,1.749-.187,5.381,5.381,0,0,1,4.238.3Z" transform="translate(-216.609 -58.419)" fill="#263238"/>
      <path id="Path_43356" data-name="Path 43356" d="M247.955,72.971a5.167,5.167,0,0,0-4.1-.277,4.68,4.68,0,0,1-1.824.187,5.058,5.058,0,0,1-2.848-2.489,1.562,1.562,0,0,0-1.286-.748,1.338,1.338,0,0,0-.964.7,1.5,1.5,0,0,0,.381,1.405l-.164.112a1.66,1.66,0,0,1-.4-1.592,1.555,1.555,0,0,1,1.121-.822,1.719,1.719,0,0,1,1.5.882,4.967,4.967,0,0,0,2.706,2.377,4.65,4.65,0,0,0,1.749-.187,5.381,5.381,0,0,1,4.238.3Z" transform="translate(-216.609 -58.419)" fill="#fff" opacity="0.1"/>
      <path id="Path_43357" data-name="Path 43357" d="M250.022,75.93a1.151,1.151,0,0,0-1.5-.7c-.83.314-.972,1.555-.807,2.31s.942,1.316,1.592.68a2.564,2.564,0,0,0,.748-1.824,1.017,1.017,0,0,0-.037-.471Z" transform="translate(-219.379 -59.86)" fill="#efb69a"/>
      <path id="Path_43358" data-name="Path 43358" d="M247.654,118.683c-.553,1.66.419,1.151.867,1.226h.262a17.941,17.941,0,0,0,10.121-2.99l.082-.06c.142-.082.277-.179.411-.269l-4.9.927-.441.09-1.876.351-.449.09Z" transform="translate(-219.336 -70.32)" fill="#fff9f9"/>
      <g id="Group_41376" data-name="Group 41376" transform="translate(28.153 46.27)" opacity="0.4">
        <path id="Path_43359" data-name="Path 43359" d="M247.654,118.683c-.553,1.66.419,1.151.867,1.226h.262a17.941,17.941,0,0,0,10.121-2.99l.082-.06c.142-.082.277-.179.411-.269l-4.9.927-.441.09-1.876.351-.449.09Z" transform="translate(-247.488 -116.59)" fill="#fff"/>
      </g>
      <path id="Path_43360" data-name="Path 43360" d="M251.871,90.383c.7,2.34,4.874,10.862,9.718,10.069a3.125,3.125,0,0,0,1.921-1.2h0c3.334-3.162-2.145-13.725-3.057-14.2a2.7,2.7,0,0,0-3.977,2.2A9.843,9.843,0,0,1,256,86.227c-.463-1.174-1.749-3.857-2.99-3.8-.748,0-2.287.3-2.594,1S250.7,86.511,251.871,90.383Z" transform="translate(-220.054 -61.695)" fill="#fff9f9"/>
      <path id="Path_43361" data-name="Path 43361" d="M251.871,90.383c.7,2.34,4.874,10.862,9.718,10.069a3.125,3.125,0,0,0,1.921-1.2h0c3.334-3.162-2.145-13.725-3.057-14.2a2.7,2.7,0,0,0-3.977,2.2A9.843,9.843,0,0,1,256,86.227c-.463-1.174-1.749-3.857-2.99-3.8-.748,0-2.287.3-2.594,1S250.7,86.511,251.871,90.383Z" transform="translate(-220.054 -61.695)" fill="#fff" opacity="0.4"/>
      <g id="Group_41377" data-name="Group 41377" transform="translate(28.714 15.374)" opacity="0.2" style="isolation: isolate">
        <path id="Path_43362" data-name="Path 43362" d="M248.688,75.26v.217l.232,2.108.583,2.661-.748-1.5a3.738,3.738,0,0,1-.336-1.241l-.179-2.041Z" transform="translate(-248.24 -75.26)"/>
      </g>
      <path id="Path_43363" data-name="Path 43363" d="M252.617,81.646l-.336-4.276-3.461.748s.972,3.05,2.063,3.917Z" transform="translate(-219.672 -60.418)" fill="#efb69a"/>
      <path id="Path_43364" data-name="Path 43364" d="M250.979,73.76l-2.459,1.009.239,2.407,3.446-.718Z" transform="translate(-219.596 -59.507)" fill="#efb69a"/>
    </g>
    <g id="freepik--character-3--inject-68" transform="translate(65.04 93.813)">
      <path id="Path_43365" data-name="Path 43365" d="M155.42,171.549a.747.747,0,0,1-.374-.1l-20.721-11.96a.748.748,0,1,1,.748-1.293l20.721,11.96a.748.748,0,0,1-.374,1.4Z" transform="translate(-84.686 -119.914)" fill="#fff9f9"/>
      <path id="Path_43366" data-name="Path 43366" d="M123.48,139.62l-.052.321a29.485,29.485,0,0,1-.89,3.581c-.15.463-.314.927-.486,1.383-.232.62-.493,1.241-.748,1.831,0,.082-.067.157-.1.232a27.929,27.929,0,1,1-23.42-39.858,28.539,28.539,0,0,1,2.841.336l.292.052h0c.5.1.994.2,1.5.321h0a27.865,27.865,0,0,1,21.439,27.434h0a29.9,29.9,0,0,1-.277,3.626A5.381,5.381,0,0,1,123.48,139.62Z" transform="translate(-68.057 -107.032)" fill="#fff9f9"/>
      <path id="Path_43367" data-name="Path 43367" d="M123.48,139.62l-.052.321a29.485,29.485,0,0,1-.89,3.581c-.15.463-.314.927-.486,1.383-.232.62-.493,1.241-.748,1.831,0,.082-.067.157-.1.232a27.929,27.929,0,1,1-23.42-39.858,28.539,28.539,0,0,1,2.841.336l.292.052h0c.5.1.994.2,1.5.321h0a27.865,27.865,0,0,1,21.439,27.434h0a29.9,29.9,0,0,1-.277,3.626A5.381,5.381,0,0,1,123.48,139.62Z" transform="translate(-68.057 -107.032)" fill="#fff" opacity="0.2"/>
      <path id="Path_43368" data-name="Path 43368" d="M157.681,118.463c-.336-3.192-2.489-4.089-3.312-3.693s-2.175,1.2-2.175,1.2a34.114,34.114,0,0,0-.748,5.322,4.732,4.732,0,0,0,1.181,2.908,2.459,2.459,0,0,0,2.467.748c.9-.344,1.5-1.749,1.734-2.654C157.091,121.244,157.838,119.786,157.681,118.463Z" transform="translate(-89.109 -108.959)" fill="#b25b52"/>
      <path id="Path_43369" data-name="Path 43369" d="M142.1,150.046c-.561,1.652-1.106,3.229-1.607,4.62a.627.627,0,0,1-.09.239,2.867,2.867,0,0,1-.127.321,3.087,3.087,0,0,1-.748,1.189.867.867,0,0,1-.157.12,15.927,15.927,0,0,1-2.489.142c-.546,0-1.091-.037-1.66-.09h-.067c-.942-.09-1.914-.224-2.893-.4a34.254,34.254,0,0,1-3.356-.748c-1.876-.449-3.738-.979-5.636-1.5h-.06c-1.226-.344-2.429-.688-3.611-1.009-1.039-.284-1.5-4.029-1.779-4.979a10.3,10.3,0,0,1-.224-1.032,3.177,3.177,0,0,1,0-1.5c.179-.546.643-.882,1.5-.964a13.964,13.964,0,0,1,4.216.613c1.749.449,4.321,1.091,7,1.764l1.607.4.463.12,1.532.389,1.211.3h.09c1.779.463,3.386.867,4.6,1.2A15.609,15.609,0,0,1,142.1,150.046Z" transform="translate(-80.543 -116.48)" fill="#263238"/>
      <path id="Path_43370" data-name="Path 43370" d="M137.1,157.827h-.06c-.942-.082-1.914-.224-2.9-.4a34.113,34.113,0,0,1-3.349-.748c-1.876-.449-3.738-.979-5.636-1.5h-.06c.142-1.921-.06-5.808-.06-5.808C130.188,156.444,136.841,157.782,137.1,157.827Z" transform="translate(-82.441 -117.719)" opacity="0.2" style="isolation: isolate"/>
      <path id="Path_43371" data-name="Path 43371" d="M145.37,156.271l-.187-.052c-3.364-.949-7.191-2.609-8.223-5.928a3.229,3.229,0,0,1,.329-1.891l1.532.389,1.211.3h.09a3.2,3.2,0,0,0,.239.546l3.132,5.233c.374.628,1.5.576,1.794,1.017A.434.434,0,0,1,145.37,156.271Z" transform="translate(-85.446 -117.472)" opacity="0.2" style="isolation: isolate"/>
      <path id="Path_43372" data-name="Path 43372" d="M151.86,133.4c-1.233,3.439-2.743,7.976-4.141,12.043-.561,1.652-1.106,3.229-1.607,4.62a4.1,4.1,0,0,1-.987,1.749.868.868,0,0,1-.157.12,2.512,2.512,0,0,1-2.489.142,4.1,4.1,0,0,1-1.532-1.091,5.838,5.838,0,0,1-.359-6.974c.052-.172.12-.344.179-.516,1.2-3.424,3.08-8.537,4.53-11.654.508-1.1,1.757-4.358,2.594-5.233,1.816-.748,3.184-.411,4.911,1.689C154.042,129.852,152.42,131.736,151.86,133.4Z" transform="translate(-86.12 -111.878)" fill="#263238"/>
      <path id="Path_43373" data-name="Path 43373" d="M114.069,151.488c-.052.239-.1.471-.15.748-.882,4.313-1.906,9.546-3.125,15.8a27.957,27.957,0,0,1-27.367-2.295c-.187-1.129-.381-2.325-.583-3.551v-.06a.32.32,0,0,1,0-.037c-.306-1.869-.613-3.8-.9-5.674-.605-3.8-1.121-7.341-1.293-9.516,0-.4-.052-.748-.06-1.061a4.53,4.53,0,0,1,0-.553h0c.082-1.846.748-5.053,2.243-6.6a2.99,2.99,0,0,1,1.039-.7,11.432,11.432,0,0,1,6.257-.194h0c1.5.292,3.042.748,4.485,1.009a1.847,1.847,0,0,1,.217.045c2.646.538,5.3.815,7.931,1.368h0a27.326,27.326,0,0,1,3.117.815c.419.135.83.284,1.241.441h0a19.815,19.815,0,0,1,2.691,1.286h0a10.062,10.062,0,0,1,4.014,3.633C114.719,148.079,114.405,149.776,114.069,151.488Z" transform="translate(-71.218 -114.707)" fill="#263238"/>
      <path id="Path_43374" data-name="Path 43374" d="M108.985,141.206a4.978,4.978,0,0,1,2.751,1.6c-3.663,4.306-8.223,6.877-8.372,6.69-4.313-2.31-9.4-5.98-11.8-10.331a5.868,5.868,0,0,1,2.093-.83c-1.114-2.243-1.323-4.4.381-5.98a5.08,5.08,0,0,1,4.552-.875,22.082,22.082,0,0,1,4.485,1.869,31.994,31.994,0,0,0,12.05,2.99A10.817,10.817,0,0,0,108.985,141.206Z" transform="translate(-73.991 -113.156)" fill="#fff9f9"/>
      <path id="Path_43375" data-name="Path 43375" d="M108.985,141.206a4.978,4.978,0,0,1,2.751,1.6c-3.663,4.306-8.223,6.877-8.372,6.69-4.313-2.31-9.4-5.98-11.8-10.331a5.868,5.868,0,0,1,2.093-.83c-1.114-2.243-1.323-4.4.381-5.98a5.08,5.08,0,0,1,4.552-.875,22.082,22.082,0,0,1,4.485,1.869,31.994,31.994,0,0,0,12.05,2.99A10.817,10.817,0,0,0,108.985,141.206Z" transform="translate(-73.991 -113.156)" fill="#fff" opacity="0.5"/>
      <path id="Path_43376" data-name="Path 43376" d="M102.757,127.4l6.055,5.98c-1.5,1.787-2.586,3.8-.792,5.569a2.564,2.564,0,0,1,0,3.625c-.045.037-.082.082-.135.12-1.1.964-3.693,3.446-3.693,3.446s-4.866-5.591-5.793-7.61c-.374-.837.478-1.36.845-2.243C100.6,133.343,102.2,130.27,102.757,127.4Z" transform="translate(-75.694 -112.17)" fill="#b25b52"/>
      <path id="Path_43377" data-name="Path 43377" d="M107.867,129.88l2.99,4.149a10.13,10.13,0,0,0-1.121,1.585c-1.809,0-3.857-2.317-3.416-3.738a6.518,6.518,0,0,1,1.547-2Z" transform="translate(-77.702 -112.796)" opacity="0.2" style="isolation: isolate"/>
      <path id="Path_43378" data-name="Path 43378" d="M103.955,116.86c-.957,4.485-1.734,7.087-.112,9.957,2.437,4.306,8.477,3.738,10.749-.4,2.048-3.738,3.244-10.465-.613-13.366a6.339,6.339,0,0,0-8.873,1.233A6.436,6.436,0,0,0,103.955,116.86Z" transform="translate(-76.855 -108.223)" fill="#b25b52"/>
      <path id="Path_43379" data-name="Path 43379" d="M103.112,113.53c-.628,1.8-1.248,3.8-.531,5.569.426,1.047,1.316,2.011,1.151,3.14,1.054-1.929,3.11-5.352,2.893-7.625C106.461,112.79,103.9,111.22,103.112,113.53Z" transform="translate(-76.692 -108.376)" fill="#263238"/>
      <path id="Path_43380" data-name="Path 43380" d="M100.6,122.479a4.291,4.291,0,0,0,1.779,2.616c1.151.748,2.026-.374,1.959-1.816-.075-1.308-.748-3.282-2.026-3.4S100.274,121.118,100.6,122.479Z" transform="translate(-76.253 -110.269)" fill="#b25b52"/>
      <path id="Path_43381" data-name="Path 43381" d="M111.661,122.036a.568.568,0,0,0,.247.748c.239.067.508-.172.605-.538s0-.7-.247-.748S111.758,121.677,111.661,122.036Z" transform="translate(-79.052 -110.678)" fill="#263238"/>
      <path id="Path_43382" data-name="Path 43382" d="M118.237,123.729c-.1.359,0,.748.247.748a.65.65,0,0,0,.605-.531c.1-.359,0-.7-.247-.748S118.335,123.37,118.237,123.729Z" transform="translate(-80.717 -111.108)" fill="#263238"/>
      <path id="Path_43383" data-name="Path 43383" d="M116.687,124a13.455,13.455,0,0,0,.89,3.536,2.123,2.123,0,0,1-1.816-.135Z" transform="translate(-80.101 -111.312)" fill="#9d2724"/>
      <path id="Path_43384" data-name="Path 43384" d="M114.732,118.972a.194.194,0,0,1,0,.112.232.232,0,0,1-.239.194,2.19,2.19,0,0,1-1.712-1.054.209.209,0,0,1,.1-.292h0a.232.232,0,0,1,.3.1h0a1.779,1.779,0,0,0,1.368.83.194.194,0,0,1,.187.112Z" transform="translate(-79.342 -109.774)" fill="#263238"/>
      <path id="Path_43385" data-name="Path 43385" d="M116.066,120.983a.157.157,0,0,1-.067-.09.224.224,0,0,1,.172-.262,2.243,2.243,0,0,1,1.951.493.217.217,0,0,1,0,.306h0a.224.224,0,0,1-.314,0h0a1.779,1.779,0,0,0-1.547-.374.194.194,0,0,1-.194-.075Z" transform="translate(-80.16 -110.448)" fill="#263238"/>
      <rect id="Rectangle_5154" data-name="Rectangle 5154" width="0.501" height="4.635" transform="matrix(0.01, -1, 1, 0.01, 26.764, 9.975)" fill="#263238"/>
      <path id="Path_43386" data-name="Path 43386" d="M115.871,122.171a.157.157,0,0,1-.052-.1.224.224,0,0,1,.172-.262,2.243,2.243,0,0,1,1.951.493.217.217,0,0,1,0,.306h0a.232.232,0,0,1-.314,0h0a1.779,1.779,0,0,0-1.547-.374.2.2,0,0,1-.209-.067Z" transform="translate(-80.114 -110.746)" fill="#263238"/>
      <path id="Path_43387" data-name="Path 43387" d="M121.842,119.878a.217.217,0,0,1-.179-.1,1.689,1.689,0,0,0-1.323-.867.217.217,0,0,1-.209-.224.209.209,0,0,1,.224-.209,2.123,2.123,0,0,1,1.689,1.069.232.232,0,0,1-.1.292A.157.157,0,0,1,121.842,119.878Z" transform="translate(-81.204 -109.918)" fill="#263238"/>
      <path id="Path_43388" data-name="Path 43388" d="M114.482,120.2c.583.3,0,5.285-3.319,4.418-2.773-.748-3.05-3.663-2.459-4.373C110.355,118.24,113.644,119.81,114.482,120.2Z" transform="translate(-78.254 -110.111)" fill="#263238"/>
      <path id="Path_43389" data-name="Path 43389" d="M118.171,121.081c-.463.1-1.308,5.337,1.091,5.591,2.041.217,2.654-2.579,2.646-3.558C121.326,120.954,118.836,120.924,118.171,121.081Z" transform="translate(-80.575 -110.56)" fill="#263238"/>
      <g id="Group_41378" data-name="Group 41378" transform="translate(31.705 9.401)" opacity="0.2">
        <path id="Path_43390" data-name="Path 43390" d="M114.439,119.974l.62,3.64a2.542,2.542,0,0,1-1.435,1.144l-.845-5.038A12.533,12.533,0,0,1,114.439,119.974Z" transform="translate(-111.053 -119.632)" fill="#fff"/>
        <path id="Path_43391" data-name="Path 43391" d="M111.427,119.616l.882,5.15a2.84,2.84,0,0,1-.613-.1,1.847,1.847,0,0,1-.389-.135l-.837-4.9A5.845,5.845,0,0,1,111.427,119.616Z" transform="translate(-110.47 -119.603)" fill="#fff"/>
        <path id="Path_43392" data-name="Path 43392" d="M121.726,121.911l.553,3.222a3.087,3.087,0,0,1-.83,1.189l-.83-4.911a5.651,5.651,0,0,1,1.106.5Z" transform="translate(-113.033 -120.059)" fill="#fff"/>
        <path id="Path_43393" data-name="Path 43393" d="M120.64,126.522a1.607,1.607,0,0,1-.591.157l-.949-5.6a3.06,3.06,0,0,1,.635.112Z" transform="translate(-112.649 -119.976)" fill="#fff"/>
      </g>
      <path id="Path_43394" data-name="Path 43394" d="M114.057,130.07h0a4.111,4.111,0,0,1-3.192-2.041.15.15,0,0,1,.06-.194h0a.142.142,0,0,1,.194.067,3.872,3.872,0,0,0,2.99,1.884.142.142,0,0,1,.12.164.135.135,0,0,1-.15.12Z" transform="translate(-78.861 -112.276)" fill="#263238"/>
      <path id="Path_43395" data-name="Path 43395" d="M105.531,108.255a2.549,2.549,0,0,1,2.3-1.226,11.122,11.122,0,0,1,2.691.516,15.7,15.7,0,0,0,5.532.366,12.708,12.708,0,0,1,2.317-.164,2.691,2.691,0,0,1,2.026.994,2.609,2.609,0,0,1-.546,3.259,6.8,6.8,0,0,1-3.244,1.5c-2.616.613-5.636.957-8.126-.321C106.981,112.381,104.619,110.109,105.531,108.255Z" transform="translate(-77.467 -107.026)" fill="#263238"/>
      <path id="Path_43396" data-name="Path 43396" d="M80.919,149.711c5.905-4.074,6.354,5.322,5.494,9.389v.15c-1.091,4.986-3.738,5.771-3.738,5.771s-2.99-15.541-2.616-15.548C80.149,149.472,80.523,149.981,80.919,149.711Z" transform="translate(-71.079 -117.55)" opacity="0.2" style="isolation: isolate"/>
      <path id="Path_43397" data-name="Path 43397" d="M83.413,152.527a27.255,27.255,0,0,0-4.022,4.134l-.135.157c-.493.576-1.039,1.241-1.652,1.981a23.521,23.521,0,0,0-1.5,1.966c-.157.224-.3.441-.434.65a27.755,27.755,0,0,1-5.016-8.1,63.391,63.391,0,0,1,4.9-9.374c.748-1.091,2.168-2.99,2.175-2.99a7.715,7.715,0,0,1,2.5-2.041h0a5.563,5.563,0,0,1,1.159-.478c1.084-.172,2.527,6.474,2.706,10.66v1.069a4.642,4.642,0,0,1-.321,1.958.747.747,0,0,1-.1.15.889.889,0,0,1-.187.15h0Z" transform="translate(-68.714 -114.954)" fill="#263238"/>
    </g>
    <g id="freepik--character-2--inject-68" transform="translate(62.337 195.897)">
      <path id="Path_43398" data-name="Path 43398" d="M104.515,269.556a20.108,20.108,0,0,1-11.25,18.068l-.1.052c-.179.082-.351.172-.538.247h-.06c-.329.15-.665.284-1,.411l-.321.112a19.937,19.937,0,0,1-6.773,1.181h0a20.251,20.251,0,0,1-6.795-1.189,20.786,20.786,0,0,1-3.147-1.458,16.427,16.427,0,0,1-1.5-.964l-.366-.262a20.064,20.064,0,0,1-8.1-13.852,15.5,15.5,0,0,1-.12-1.57h0v-.8a20.092,20.092,0,1,1,40.183,0Z" transform="translate(-64.44 -245.067)" fill="#fff9f9"/>
      <path id="Path_43399" data-name="Path 43399" d="M104.515,269.556a20.108,20.108,0,0,1-11.25,18.068l-.1.052c-.179.082-.351.172-.538.247h-.06c-.329.15-.665.284-1,.411l-.321.112a19.937,19.937,0,0,1-6.773,1.181h0a20.251,20.251,0,0,1-6.795-1.189,20.786,20.786,0,0,1-3.147-1.458,16.427,16.427,0,0,1-1.5-.964l-.366-.262a20.064,20.064,0,0,1-8.1-13.852,15.5,15.5,0,0,1-.12-1.57h0v-.8a20.092,20.092,0,1,1,40.183,0Z" transform="translate(-64.44 -245.067)" fill="#fff" opacity="0.2"/>
      <path id="Path_43400" data-name="Path 43400" d="M113.846,263.979a.748.748,0,0,1-.374-1.4l28.256-16.311a.748.748,0,1,1,.748,1.293l-28.256,16.311A.747.747,0,0,1,113.846,263.979Z" transform="translate(-76.724 -244.237)" fill="#fff9f9"/>
      <path id="Path_43401" data-name="Path 43401" d="M109.819,245.055c-1.316-1.831-2.938-1.622-3.3-1.1s-.9,1.5-.9,1.5a23.525,23.525,0,0,0,1.405,3.483,3.312,3.312,0,0,0,1.734,1.361,1.682,1.682,0,0,0,1.749-.4,2.83,2.83,0,0,0,.142-2.243A7.78,7.78,0,0,0,109.819,245.055Z" transform="translate(-74.834 -243.589)" fill="#ffb573"/>
      <path id="Path_43402" data-name="Path 43402" d="M111.122,268.39c.232,1.2.441,2.347.628,3.371v.172a2.291,2.291,0,0,1,0,.239,2.19,2.19,0,0,1-.052.987.668.668,0,0,1-.06.127,10.315,10.315,0,0,1-1.5.957c-.329.187-.673.351-1.039.523h0c-.605.277-1.241.523-1.9.748s-1.5.508-2.287.747c-1.3.381-2.631.748-3.954,1.047h-.045l-2.542.643c-.748.187-2.332-1.921-2.811-2.414a4.622,4.622,0,0,1-.493-.553,2.153,2.153,0,0,1-.508-.89c-.075-.4.09-.748.6-1.114a9.716,9.716,0,0,1,2.773-1.1l4.874-1.353,1.114-.321.329-.082,1.069-.3.837-.239h.067c1.241-.336,2.355-.65,3.214-.875a10.169,10.169,0,0,1,1.682-.321Z" transform="translate(-72.041 -249.851)" fill="#263238"/>
      <path id="Path_43403" data-name="Path 43403" d="M108.114,277.259h0a17.913,17.913,0,0,1-1.9.748c-.658.217-1.5.508-2.287.747-1.293.374-2.631.71-3.947,1.039h-.045c-.583-1.218-2.056-3.513-2.056-3.513a14.951,14.951,0,0,0,10.234.979Z" transform="translate(-72.883 -251.843)" opacity="0.2" style="isolation: isolate"/>
      <path id="Path_43404" data-name="Path 43404" d="M115.24,272.552l-.135.037c-2.377.591-5.285.912-7.049-.748a2.242,2.242,0,0,1-.456-1.263l1.069-.3.837-.239h.067a2.5,2.5,0,0,0,.329.247l3.738,2.093c.449.247,1.121-.179,1.443,0a.3.3,0,0,1,.157.172Z" transform="translate(-75.337 -250.268)" opacity="0.2" style="isolation: isolate"/>
      <path id="Path_43405" data-name="Path 43405" d="M112.844,255.382c.441,2.519,1.1,5.808,1.667,8.768.232,1.2.441,2.347.628,3.371a2.945,2.945,0,0,1,0,1.4.665.665,0,0,1-.06.127,1.757,1.757,0,0,1-1.5.957,2.863,2.863,0,0,1-1.308-.135,4.1,4.1,0,0,1-2.646-4.119l-.067-.374c-.463-2.5-1.091-6.264-1.293-8.664a19.741,19.741,0,0,1-.232-4.074c.852-1.061,1.794-1.353,3.573-.68C112.956,252.452,112.628,254.141,112.844,255.382Z" transform="translate(-75.431 -245.611)" fill="#263238"/>
      <path id="Path_43406" data-name="Path 43406" d="M96.472,294.453l-.321.112a19.937,19.937,0,0,1-6.773,1.181h0c-.194-6.967-1.5-13.455-4.433-18.4h0a4.32,4.32,0,0,1-.852-2.99c.493-.157,1.009-.292,1.532-.4a20.786,20.786,0,0,1,3.738-.4h1.189l.284.112a3.17,3.17,0,0,1,.628.292,3.8,3.8,0,0,1,.748.665,9.194,9.194,0,0,1,1.443,2.4q.2.463.381.964a.4.4,0,0,1,.037.082C95.351,281.753,96.263,287.419,96.472,294.453Z" transform="translate(-69.389 -251.156)" fill="#fff9f9"/>
      <path id="Path_43407" data-name="Path 43407" d="M96.472,294.453l-.321.112a19.937,19.937,0,0,1-6.773,1.181h0c-.194-6.967-1.5-13.455-4.433-18.4h0a4.32,4.32,0,0,1-.852-2.99c.493-.157,1.009-.292,1.532-.4a20.786,20.786,0,0,1,3.738-.4h1.189l.284.112a3.17,3.17,0,0,1,.628.292,3.8,3.8,0,0,1,.748.665,9.194,9.194,0,0,1,1.443,2.4q.2.463.381.964a.4.4,0,0,1,.037.082C95.351,281.753,96.263,287.419,96.472,294.453Z" transform="translate(-69.389 -251.156)" fill="#fff" opacity="0.5"/>
      <path id="Path_43408" data-name="Path 43408" d="M100.251,288.384v5.367l-.1.052c-.179.082-.351.172-.538.247h-.06c-.329.15-.665.284-1,.411l-.321.112a58.858,58.858,0,0,0-2.145-15.309,19.2,19.2,0,0,0-.748-1.944A9.889,9.889,0,0,0,94,275a3.917,3.917,0,0,0-.9-.845,2.5,2.5,0,0,0-.516-.262l-.478-.179H92.8a15.007,15.007,0,0,1,2.31.292,3.157,3.157,0,0,1,2.175,1.2c.157.321.306.65.449.972a28,28,0,0,1,1.039,2.863h0A34.932,34.932,0,0,1,100.251,288.384Z" transform="translate(-71.426 -251.194)" fill="#263238"/>
      <path id="Path_43409" data-name="Path 43409" d="M74.847,291.661c-.934-5.621-2.452-9.553-2.437-11.684a2.557,2.557,0,0,1,.164-.957c1.4-3.4,5.427-3.409,8.514-4.38h0a4.32,4.32,0,0,0,.852,2.99h0c2.915,4.934,4.238,11.43,4.433,18.4a20.25,20.25,0,0,1-6.795-1.189,20.789,20.789,0,0,1-3.147-1.458,16.419,16.419,0,0,1-1.5-.964Z" transform="translate(-66.452 -251.429)" fill="#263238"/>
      <path id="Path_43410" data-name="Path 43410" d="M83.549,275.558a2.893,2.893,0,0,0,.86,1.241l4.717,4.762c.748-.65,1.36-1.174,2.422-2.063a6.728,6.728,0,0,0,2.086.628c.06-1.009,1.5-1.854-2-5.7a6.445,6.445,0,0,0-3.738-1.5C84.229,272.568,83.325,274.69,83.549,275.558Z" transform="translate(-69.257 -250.986)" fill="#fff9f9"/>
      <path id="Path_43411" data-name="Path 43411" d="M85,266.08c.748,2.056.561,5.562,1.151,7.871.4,1.585,6.077,3.506,6.077,3.506s2.16-2.2.2-3.513a4.109,4.109,0,0,1-1.8-4.306Z" transform="translate(-69.631 -249.268)" fill="#ffb573"/>
      <path id="Path_43412" data-name="Path 43412" d="M88.085,268l3.334,2.1a8.171,8.171,0,0,0-.045,1.5,3.645,3.645,0,0,1-3.147-2.153A3.85,3.85,0,0,1,88.085,268Z" transform="translate(-70.406 -249.753)" opacity="0.2" style="isolation: isolate"/>
      <path id="Path_43413" data-name="Path 43413" d="M92.762,260.467c.463-3.775-.546-5.442.4-7.707.7-.688,2.743.321,2.736,3.326S92.762,260.467,92.762,260.467Z" transform="translate(-71.585 -245.853)" fill="#263238"/>
      <path id="Path_43414" data-name="Path 43414" d="M94.473,261.478a8.226,8.226,0,0,1,0,.972,4.782,4.782,0,0,1-7.595,3.581,5.382,5.382,0,0,1-1.592-1.869,21.469,21.469,0,0,1-1.45-5.322,4.837,4.837,0,0,1,0-2.243,4.911,4.911,0,0,1,5.98-3.558C93.135,253.838,94.488,258.2,94.473,261.478Z" transform="translate(-69.304 -245.936)" fill="#ffb573"/>
      <path id="Path_43415" data-name="Path 43415" d="M83.612,262.332l2.437.449-.942-3.312,1.286-1.532-.052-2.407s-4.777.329-6.13.628c-.471.1-.658.605-.7,1.2a4.485,4.485,0,0,0,2.317,4.141,9.634,9.634,0,0,0,1.787.83Z" transform="translate(-68.243 -246.604)" fill="#263238"/>
      <path id="Path_43416" data-name="Path 43416" d="M93.931,266.179h0a2.646,2.646,0,0,1-2.31-.748.082.082,0,0,1,.1-.127,2.519,2.519,0,0,0,2.16.7.09.09,0,0,1,.1.082h0a.082.082,0,0,1-.082.09Z" transform="translate(-71.296 -249.068)" fill="#263238"/>
      <path id="Path_43417" data-name="Path 43417" d="M85.835,264.549c.329.957-.052,1.891-.949,1.906h0a1.756,1.756,0,0,1-.381-.045,3.446,3.446,0,0,1-2.108-1.555,1.54,1.54,0,0,1,.972-2.392c1.121-.194,2.093,1.032,2.444,1.988A.374.374,0,0,1,85.835,264.549Z" transform="translate(-68.904 -248.349)" fill="#ffb573"/>
      <path id="Path_43418" data-name="Path 43418" d="M90.587,260.955a.443.443,0,0,0,.419.478c.194-.022.306-.284.262-.576s-.232-.5-.419-.478S90.542,260.664,90.587,260.955Z" transform="translate(-71.039 -247.828)" fill="#263238"/>
      <path id="Path_43419" data-name="Path 43419" d="M94.994,260.325c0,.292.232.5.419.471s.306-.277.262-.576-.224-.493-.419-.471S94.927,260.033,94.994,260.325Z" transform="translate(-72.15 -247.669)" fill="#263238"/>
      <path id="Path_43420" data-name="Path 43420" d="M94.26,260.91A10.54,10.54,0,0,0,96,263.153a1.66,1.66,0,0,1-1.4.389Z" transform="translate(-71.969 -247.962)" fill="#ff5652"/>
      <path id="Path_43421" data-name="Path 43421" d="M89.623,259.531a.179.179,0,0,0,.157-.09,1.361,1.361,0,0,1,1.009-.747.173.173,0,1,0-.03-.344h0a1.7,1.7,0,0,0-1.278.9.164.164,0,0,0,.06.232A.15.15,0,0,0,89.623,259.531Z" transform="translate(-70.756 -247.316)" fill="#263238"/>
      <path id="Path_43422" data-name="Path 43422" d="M96.815,258.4a.217.217,0,0,0,.1,0,.172.172,0,0,0,.045-.247,1.682,1.682,0,0,0-1.375-.748.179.179,0,0,0-.172.172.172.172,0,0,0,.179.172h0a1.36,1.36,0,0,1,1.069.628.179.179,0,0,0,.157.022Z" transform="translate(-72.259 -247.079)" fill="#263238"/>
      <path id="Path_43423" data-name="Path 43423" d="M94.994,264.38a8.226,8.226,0,0,1,0,.972A4.787,4.787,0,0,1,87.4,268.94a5.472,5.472,0,0,1-1.63-1.854.7.7,0,0,1,0-.12h0c.9,0,1.278-.949.949-1.906a.374.374,0,0,0,0-.1c.822-.71,3.162-.508,4.052-.456A11.072,11.072,0,0,0,94.994,264.38Z" transform="translate(-69.824 -248.839)" opacity="0.2" style="isolation: isolate"/>
      <path id="Path_43424" data-name="Path 43424" d="M79.214,253.662a1.577,1.577,0,0,0,.748,1.757,3.588,3.588,0,0,0,1.973.456,10.226,10.226,0,0,0,4.964-1.3,11.714,11.714,0,0,1,2.758-1.405,2.265,2.265,0,0,1,2.646,1.047,3.14,3.14,0,0,0-2.205-4.448c-1.757-.359-3.439.8-5.233,1.084a21.753,21.753,0,0,1-2.616.1,4.373,4.373,0,0,0-2.467.748C79.1,252.2,79.214,253.662,79.214,253.662Z" transform="translate(-68.158 -245.132)" fill="#263238"/>
      <path id="Path_43425" data-name="Path 43425" d="M74.556,285.778c3.558-3.551,5.053,2.87,4.971,5.778v.1c-.12,3.573-1.794,4.485-1.794,4.485S73.711,285.815,74,285.763C74,285.681,74.317,286.017,74.556,285.778Z" transform="translate(-66.849 -253.978)" opacity="0.2" style="isolation: isolate"/>
      <path id="Path_43426" data-name="Path 43426" d="M77.335,287.11a18.336,18.336,0,0,0-2.355,3.506c-.262.463-.568.987-.9,1.585l-.127.254c-.1.164-.179.329-.254.486A20.094,20.094,0,0,1,69,288a35.252,35.252,0,0,1,1.869-5.831c.187-.411.456-.972.688-1.435s.434-.882.441-.89a5.457,5.457,0,0,1,2.243-2.2c.748-.262,2.557,4.134,3.214,7,.045.217.09.434.127.643v.1a3.469,3.469,0,0,1,0,1.383.449.449,0,0,1-.06.12.658.658,0,0,1-.1.127h0A.4.4,0,0,0,77.335,287.11Z" transform="translate(-65.591 -252.185)" fill="#263238"/>
    </g>
    <g id="freepik--character-1--inject-68" transform="translate(155.244 126.217)">
      <path id="Path_43427" data-name="Path 43427" d="M206.866,191.089s-6.257,12.267-6.518,11.751l-7.8-14.95-3.4,2.1s6.967,21.8,11.213,23.569,13.807-18.531,13.807-18.531C213.983,188.338,206.866,191.089,206.866,191.089Z" transform="translate(-188.834 -159.846)" fill="#fff"/>
      <path id="Path_43428" data-name="Path 43428" d="M206.866,191.089s-6.257,12.267-6.518,11.751l-7.8-14.95-3.4,2.1s6.967,21.8,11.213,23.569,13.807-18.531,13.807-18.531C213.983,188.338,206.866,191.089,206.866,191.089Z" transform="translate(-188.834 -159.846)" opacity="0.1" style="isolation: isolate"/>
      <path id="Path_43429" data-name="Path 43429" d="M200.139,184.119l-3.8.665a2.115,2.115,0,0,1-2.444-1.712l-2.2-12.626a2.108,2.108,0,0,1,1.331-2.332l3.8-.665a2.108,2.108,0,0,1,2.437,1.712l2.205,12.633a2.1,2.1,0,0,1-1.331,2.325Z" transform="translate(-189.469 -154.678)" fill="#fff9f9"/>
      <path id="Path_43430" data-name="Path 43430" d="M199.959,184.127a1.778,1.778,0,0,1-.389.112l-3.947.688a2.108,2.108,0,0,1-2.437-1.712l-2.2-12.626a2.108,2.108,0,0,1,1.712-2.444h.15l3.8-.665a2.108,2.108,0,0,1,2.437,1.712l2.205,12.633a2.1,2.1,0,0,1-1.331,2.3Z" transform="translate(-189.29 -154.685)" fill="#263238"/>
      <rect id="Rectangle_5155" data-name="Rectangle 5155" width="3.005" height="3.005" rx="1.07" transform="translate(1.294 13.791) rotate(-10.73)" fill="#263238"/>
      <rect id="Rectangle_5156" data-name="Rectangle 5156" width="3" height="3" rx="1.138" transform="matrix(0.982, -0.19, 0.19, 0.982, 1.415, 12.929)" fill="#fff" opacity="0.5"/>
      <path id="Path_43431" data-name="Path 43431" d="M193.08,170.026a.748.748,0,1,1-.867-.591A.747.747,0,0,1,193.08,170.026Z" transform="translate(-189.452 -155.184)" fill="#263238"/>
      <path id="Path_43432" data-name="Path 43432" d="M192.858,170.2a.4.4,0,0,1-.306.463.4.4,0,0,1-.463-.314.389.389,0,0,1,.314-.456.381.381,0,0,1,.456.307Z" transform="translate(-189.574 -155.301)" opacity="0.3"/>
      <path id="Path_43433" data-name="Path 43433" d="M188.744,185.1l.5-3.252a1.226,1.226,0,0,1,.748-.942l4.067-1.831a1.241,1.241,0,0,1,1.734.949l.292,1.958a1.159,1.159,0,0,1-.71,1.241,3.356,3.356,0,0,0-2.041,2.392c-.531,1.839-.157,2.557-1.794,3.132S188.557,188.776,188.744,185.1Z" transform="translate(-188.727 -157.593)" fill="#b25b52"/>
      <g id="freepik--group--inject-68" transform="translate(16.827 2.933)">
        <path id="Path_43434" data-name="Path 43434" d="M245.865,226.959l-25.677,4.41a123.881,123.881,0,0,0-4.829-24.175c-5.18-17.612-2-17.38-2-17.38a47.461,47.461,0,0,1,7.154-2.579c3.6-.837,6.683-1.966,10.353-2.377a73.743,73.743,0,0,1,9.09-.336c.359,2.1.71,4.313,1.054,6.593.7,4.485,1.375,9.247,2,13.777C244.437,215.313,245.559,224.56,245.865,226.959Z" transform="translate(-211.529 -161.924)" fill="#fff"/>
        <path id="Path_43435" data-name="Path 43435" d="M219,187.65a5.98,5.98,0,0,0,6.13-3.446,3.738,3.738,0,0,0,.12-1.973A8.589,8.589,0,0,0,219,187.65Z" transform="translate(-213.197 -161.351)" fill="#fff9f9"/>
        <path id="Path_43436" data-name="Path 43436" d="M219,187.65a5.98,5.98,0,0,0,6.13-3.446,3.738,3.738,0,0,0,.12-1.973A8.589,8.589,0,0,0,219,187.65Z" transform="translate(-213.197 -161.351)" fill="#fff"/>
        <path id="Path_43437" data-name="Path 43437" d="M234.35,179.4c.508,1.293.979,2.93,2.243,3.528a5.054,5.054,0,0,0,1.921.374,27.573,27.573,0,0,0,4.694-.4,5.928,5.928,0,0,0-.486-3.513,3.543,3.543,0,0,0-2.691-1.779,5.935,5.935,0,0,0-2.7.65C236.331,178.649,235.337,178.978,234.35,179.4Z" transform="translate(-217.073 -160.184)" fill="#fff9f9"/>
        <path id="Path_43438" data-name="Path 43438" d="M234.35,179.4c.508,1.293.979,2.93,2.243,3.528a5.054,5.054,0,0,0,1.921.374,27.573,27.573,0,0,0,4.694-.4,5.928,5.928,0,0,0-.486-3.513,3.543,3.543,0,0,0-2.691-1.779,5.935,5.935,0,0,0-2.7.65C236.331,178.649,235.337,178.978,234.35,179.4Z" transform="translate(-217.073 -160.184)" fill="#fff"/>
        <g id="Group_41379" data-name="Group 41379" transform="translate(9.373 21.298)" opacity="0.2" style="isolation: isolate">
          <path id="Path_43439" data-name="Path 43439" d="M226.186,182.79a3.865,3.865,0,0,0-2.407,3.738,8.447,8.447,0,0,0,1.794-1.5,2.766,2.766,0,0,0,.658-2.13S226.231,182.782,226.186,182.79Z" transform="translate(-223.776 -182.79)"/>
        </g>
        <path id="Path_43440" data-name="Path 43440" d="M237.416,183.019a5.472,5.472,0,0,1-1.966-2.392,2.541,2.541,0,0,1-.06-.277,5.352,5.352,0,0,0,1.757-.344,1.577,1.577,0,0,1,1.652.351A2.259,2.259,0,0,1,237.416,183.019Z" transform="translate(-217.335 -160.764)" opacity="0.2"/>
        <path id="Path_43441" data-name="Path 43441" d="M233.985,182.071a17.634,17.634,0,0,1-5.562,3.79,3.244,3.244,0,0,1-2.856-.06l-.262-.142a2.243,2.243,0,0,1-1.136-1.973v-.045a2.242,2.242,0,0,1,.12-.665,3.91,3.91,0,0,0,1.861-2.063,1.883,1.883,0,0,0,.135-.486,7.019,7.019,0,0,0-.8-4.149l5.726-6.877c-.06,2.31.164,5.98,1.405,8.574a5.472,5.472,0,0,0,1.966,2.392C234.934,180.874,234.239,181.757,233.985,182.071Z" transform="translate(-214.502 -158.111)" fill="#b25b52"/>
        <path id="Path_43442" data-name="Path 43442" d="M229.72,175.041c.112,1.592-1.637,5.053-3.125,4.059a10.966,10.966,0,0,0-.665-1.854l3.386-4.067a5.33,5.33,0,0,1,.4,1.861Z" transform="translate(-214.947 -159.066)" opacity="0.2" style="isolation: isolate"/>
        <path id="Path_43443" data-name="Path 43443" d="M227.437,157.387a6.593,6.593,0,0,0-9.09-2.078c-4.328,2.691-3.775,9.86-2.018,13.964,1.951,4.545,8.223,5.719,11.175,1.428,1.988-2.856,1.435-5.636.912-10.465A6.541,6.541,0,0,0,227.437,157.387Z" transform="translate(-212.193 -154.298)" fill="#b25b52"/>
        <path id="Path_43444" data-name="Path 43444" d="M234.466,163.224l-2.938,3.439s-.949-.605-1.271-3.895c-.112-.852-1.047-1.069-1.308-1.936s.052-3.738.822-3.8,4.709-.247,4.709-.247Z" transform="translate(-215.686 -154.925)" fill="#b25b52"/>
        <path id="Path_43445" data-name="Path 43445" d="M234.466,163.224l-2.938,3.439s-.949-.605-1.271-3.895c-.112-.852-1.047-1.069-1.308-1.936s.052-3.738.822-3.8,4.709-.247,4.709-.247Z" transform="translate(-215.686 -154.925)" opacity="0.2" style="isolation: isolate"/>
        <path id="Path_43446" data-name="Path 43446" d="M234.865,294.25c-.411,6.167-2.5,28.092-2.5,28.092,1.6,23.786-2.392,56.206-2.392,56.206l-5.158.232s-2.938-77.436-2.579-85.3Z" transform="translate(-214.007 -189.439)" fill="#b25b52"/>
        <path id="Path_43447" data-name="Path 43447" d="M234.864,294.25c-.135,1.958-.426,5.509-.748,9.434-.067.747-.135,1.458-.194,2.2-.748,7.924-1.5,16.445-1.5,16.445,1.6,23.786-2.392,56.206-2.392,56.206l-5.158.232s-2.99-77.421-2.646-85.285Z" transform="translate(-214.006 -189.439)" fill="#b25b52"/>
        <path id="Path_43448" data-name="Path 43448" d="M241.505,242.82l-3.229,17.866c-2.781,32.443-5.33,58.456-5.33,58.456a14.073,14.073,0,0,0,.142,1.532,124.044,124.044,0,0,1-.112,27.008l-1.263,11.31-8.223.164c.247-7.7-1.7-29.819-1.891-50.241-.329-33.8.748-63.7.748-63.7Z" transform="translate(-213.837 -176.648)" fill="#fff9f9"/>
        <path id="Path_43449" data-name="Path 43449" d="M241.505,242.82l-3.229,17.866c-2.781,32.443-5.33,58.456-5.33,58.456a14.073,14.073,0,0,0,.142,1.532,124.044,124.044,0,0,1-.112,27.008l-1.263,11.31-8.223.164c.247-7.7-1.7-29.819-1.891-50.241-.329-33.8.748-63.7.748-63.7Z" transform="translate(-213.837 -176.648)" opacity="0.5"/>
        <path id="Path_43450" data-name="Path 43450" d="M243.152,256.119l-2.31,25.1c-1.577-9.942-3.319-22.5-2.1-32.891Z" transform="translate(-218.078 -178.039)" opacity="0.3" style="isolation: isolate"/>
        <path id="Path_43451" data-name="Path 43451" d="M295.1,390.683c-2.841-5.666-7.034-12.783-7.034-12.783l8.073,2.811s3.072,6.459,3.738,8.387C298.423,389.546,296.495,390.129,295.1,390.683Z" transform="translate(-230.636 -210.753)" fill="#b25b52"/>
        <path id="Path_43452" data-name="Path 43452" d="M252.11,301.372l1.189,3.82,10.577-3.6-.747-3.237Z" transform="translate(-221.557 -190.671)" opacity="0.2" style="isolation: isolate"/>
        <path id="Path_43453" data-name="Path 43453" d="M258.642,281.23c1.682,7.273,5.913,24.19,7.378,29.034,8.836,12.095,13.8,31.919,20.774,48.469l-4.522,3.11s-19.779-34.685-25.64-49.172c-1.5-3.738-8.268-21.424-10.062-27.8Z" transform="translate(-220.158 -186.346)" fill="#b25b52"/>
        <path id="Path_43454" data-name="Path 43454" d="M275.945,348.106s-15.818-29.4-19.959-36.419c-9.254-15.7-20.676-67.83-20.676-67.83l16.341-2.557s13.134,61.334,14.053,62.71c8.507,12.827,17.6,40.576,17.6,40.576Z" transform="translate(-217.315 -176.264)" fill="#fff9f9"/>
        <g id="Group_41380" data-name="Group 41380" transform="translate(17.995 65.036)" opacity="0.5">
          <path id="Path_43455" data-name="Path 43455" d="M275.945,348.106s-15.818-29.4-19.959-36.419c-9.254-15.7-20.676-67.83-20.676-67.83l16.341-2.557s13.134,61.334,14.053,62.71c8.507,12.827,17.6,40.576,17.6,40.576Z" transform="translate(-235.31 -241.3)"/>
        </g>
        <path id="Path_43456" data-name="Path 43456" d="M222.5,166.249c-.247.045-.4.389-.329.748s.314.673.568.628.411-.389.344-.748S222.788,166.2,222.5,166.249Z" transform="translate(-213.995 -157.314)" fill="#263238"/>
        <path id="Path_43457" data-name="Path 43457" d="M216.038,167.2c-.262.037-.411.389-.344.748s.329.665.583.628.4-.4.336-.785S216.293,167.153,216.038,167.2Z" transform="translate(-212.358 -157.554)" fill="#263238"/>
        <path id="Path_43458" data-name="Path 43458" d="M219.844,170.3a2.243,2.243,0,0,1-1.914,0,14.315,14.315,0,0,0,1.286-3.633Z" transform="translate(-212.927 -157.422)" fill="#4f0f1a"/>
        <path id="Path_43459" data-name="Path 43459" d="M224.474,163.088h0a.224.224,0,0,0,0-.321,2.243,2.243,0,0,0-2.011-.62h0a.217.217,0,0,0-.157.277.224.224,0,0,0,.277.172,1.839,1.839,0,0,1,1.585.508.247.247,0,0,0,.2.06A.239.239,0,0,0,224.474,163.088Z" transform="translate(-214.029 -156.27)" fill="#263238"/>
        <path id="Path_43460" data-name="Path 43460" d="M214.853,164.37a1.824,1.824,0,0,1,1.181-1.181h0a.232.232,0,0,0,.15-.232.247.247,0,0,0-.254-.217,2.317,2.317,0,0,0-1.5,1.5h0a.194.194,0,0,0,.247.262A.277.277,0,0,0,214.853,164.37Z" transform="translate(-212.04 -156.43)" fill="#263238"/>
        <path id="Path_43461" data-name="Path 43461" d="M220.815,408.373c-1.5,1.346-4.343,2.766-9.023,3.79-1.047.232-.71,2.751,1.839,2.751s7.311-.65,9.15-.747c2.99-.209,7.722-.748,6.294-3.4,0,0-.658-.441-1.839-4.485l-5.233.456A16.982,16.982,0,0,1,220.815,408.373Z" transform="translate(-211.237 -217.918)" fill="#b25b52"/>
        <path id="Path_43462" data-name="Path 43462" d="M251.159,206.253a.111.111,0,0,1-.082-.052c-.037-.052-1.5-1.779-3.416-6.608a62.3,62.3,0,0,1-2.99-8.477c.583-1.824,3.3-1.5,4.067.209.157.366.314.748.463,1.151C249.858,196.984,250.538,201.723,251.159,206.253Z" transform="translate(-219.678 -163.284)" opacity="0.2" style="isolation: isolate"/>
        <path id="Path_43463" data-name="Path 43463" d="M265.334,229.733l-.949,2.758a3.506,3.506,0,0,0,.127,2.609l1.458,3.14a.845.845,0,0,0,1,.456l2.243-.658a.845.845,0,0,0,.591-.942l-.6-3.558-.9-3.887S265.708,228.672,265.334,229.733Z" transform="translate(-224.607 -173.219)" fill="#b25b52"/>
        <path id="Path_43464" data-name="Path 43464" d="M245.04,185.733s-2.407,4.694,2.489,8.357a131.741,131.741,0,0,0,12.491,8.327,2.512,2.512,0,0,1,1.233,2.332l-.942,13.695.292.4a2.758,2.758,0,0,0,3.072,1.024h0c.239-.875,4.56-17.111,3.379-20.183-.583-1.532-2.482-3.977-8.44-8.813-1.876-1.5-3.633-1.981-4.186-2.639C250.392,183.446,246.6,183.969,245.04,185.733Z" transform="translate(-219.622 -161.916)" fill="#fff"/>
        <path id="Path_43465" data-name="Path 43465" d="M222.553,173.208c-.247.045-.4.389-.329.748s.314.673.576.628.4-.389.336-.785S222.8,173.163,222.553,173.208Z" transform="translate(-214.007 -159.071)" fill="#263238"/>
      </g>
      <path id="Path_43466" data-name="Path 43466" d="M232.869,163.358c-1.39.366-1.929,2.512-1.861,3.88.067,1.5,1.151,2.534,2.34,1.57a4.829,4.829,0,0,0,1.682-2.99C235.239,164.3,234.26,162.985,232.869,163.358Z" transform="translate(-199.4 -153.637)" fill="#b25b52"/>
      <path id="Path_43467" data-name="Path 43467" d="M218.895,407.646c-.919-.052-1.8-.254-2.048-.748a.747.747,0,0,1,.052-.822.83.83,0,0,1,.568-.4c1.2-.284,3.611,1.5,3.738,1.54a.209.209,0,0,1,.075.2.194.194,0,0,1-.142.15,10.509,10.509,0,0,1-2.243.075Zm-1.047-1.63a1.28,1.28,0,0,0-.336,0,.516.516,0,0,0-.336.239c-.135.232-.1.344-.06.419.306.538,2.115.665,3.446.553a7.139,7.139,0,0,0-2.721-1.218Z" transform="translate(-195.801 -214.826)" fill="#fff9f9"/>
      <path id="Path_43468" data-name="Path 43468" d="M221.731,406.978h-.075c-.837-.493-2.459-2.325-2.243-3.207a.628.628,0,0,1,.658-.493,1.151,1.151,0,0,1,.927.329c.875.9.949,3.05.957,3.14a.2.2,0,0,1-.052.179Zm-1.57-3.341-.1-.037c-.3,0-.321.15-.336.194-.149.508.987,1.951,1.839,2.609a4.761,4.761,0,0,0-.822-2.512.8.8,0,0,0-.576-.254Z" transform="translate(-196.469 -214.226)" fill="#fff9f9"/>
      <path id="Path_43469" data-name="Path 43469" d="M220.338,406.37l6.915.067a.635.635,0,0,1,.6.561l1.331,6.4c.1.65-1.017,1.383-1.084,1.383-4.223.419-13.313.538-16.318.441s-3.312-3.416-2.078-3.678c5.532-1.166,7.647-2.99,9.434-4.665a1.637,1.637,0,0,1,1.2-.508Z" transform="translate(-193.851 -215.008)" fill="#263238"/>
      <path id="Path_43470" data-name="Path 43470" d="M292.422,394.755c-.7.508-1.443.882-1.906.688a.747.747,0,0,1-.449-.628.785.785,0,0,1,.172-.62c.7-.919,3.476-1.076,3.588-1.084a.209.209,0,0,1,.179.1.18.18,0,0,1,0,.194A9.628,9.628,0,0,1,292.422,394.755Zm-1.712-.553a1.248,1.248,0,0,0-.232.209.478.478,0,0,0-.1.374c.037.247.127.307.2.344.538.2,1.921-.748,2.811-1.637a6.578,6.578,0,0,0-2.684.747Z" transform="translate(-214.311 -211.66)" fill="#fff9f9"/>
      <path id="Path_43471" data-name="Path 43471" d="M294.022,392.856h-.067c-.89.142-3.14-.217-3.536-.964a.591.591,0,0,1,.187-.747,1.061,1.061,0,0,1,.867-.307,5.483,5.483,0,0,1,2.542,1.7.164.164,0,0,1,.067.157Zm-3.11-1.5h-.1c-.2.187-.142.3-.127.336.2.456,1.869.83,2.87.8a4.485,4.485,0,0,0-2.078-1.331.747.747,0,0,0-.568.209Z" transform="translate(-214.386 -211.085)" fill="#fff9f9"/>
      <path id="Path_43472" data-name="Path 43472" d="M293.728,389.827l5.023-4.044a.591.591,0,0,1,.747.052l4.739,3.827c.456.411.09,1.592.045,1.63-2.8,2.8-9.284,8.26-11.5,9.964s-4.41-.5-3.678-1.413c3.3-4.119,3.738-6.653,4.052-8.97A1.5,1.5,0,0,1,293.728,389.827Z" transform="translate(-214.033 -209.782)" fill="#263238"/>
      <path id="Path_43473" data-name="Path 43473" d="M245.42,234.4l-23.8,3.162s-1.375-.605-2.579-4.067.127-8.342.127-8.342L239.492,222a15.878,15.878,0,0,0,5.742,12.223Z" transform="translate(-196.253 -168.458)" fill="#fff"/>
      <path id="Path_43474" data-name="Path 43474" d="M245.42,234.4l-23.8,3.162s-1.375-.605-2.579-4.067.127-8.342.127-8.342L239.492,222a15.878,15.878,0,0,0,5.742,12.223Z" transform="translate(-196.253 -168.458)" opacity="0.1" style="isolation: isolate"/>
      <path id="Path_43475" data-name="Path 43475" d="M200.7,184.042h-.149a2.1,2.1,0,0,0,1.331-2.325l-2.205-12.633a2.108,2.108,0,0,0-2.437-1.712l-3.8.665a1.666,1.666,0,0,1,.389-.112l3.939-.7a2.123,2.123,0,0,1,2.444,1.719l2.2,12.633a2.108,2.108,0,0,1-1.712,2.459Z" transform="translate(-189.917 -154.623)"/>
      <path id="Path_43476" data-name="Path 43476" d="M200.7,184.042h-.149a2.1,2.1,0,0,0,1.331-2.325l-2.205-12.633a2.108,2.108,0,0,0-2.437-1.712l-3.8.665a1.666,1.666,0,0,1,.389-.112l3.939-.7a2.123,2.123,0,0,1,2.444,1.719l2.2,12.633a2.108,2.108,0,0,1-1.712,2.459Z" transform="translate(-189.917 -154.623)" fill="#fff" opacity="0.7"/>
      <path id="Path_43477" data-name="Path 43477" d="M231.11,155.327c-.142.1-4.62.561-6.369,1.151a1.375,1.375,0,0,0-1.106-1.069,3.319,3.319,0,0,0-1.615.164,11,11,0,0,0-3.454,1.585,2.661,2.661,0,0,0-.882-.7.9.9,0,0,0-1.039.2,3.8,3.8,0,0,0-.262.523.493.493,0,0,1-.493.269c0-.239-1.45-2.295.9-5.076s6.982-2.071,10.465-1.353a7.991,7.991,0,0,1,3.065,1.211,4.089,4.089,0,0,1,1.772,2.7c.172,1.233-.329,2.684.493,3.633a3.252,3.252,0,0,1-1.48-3.237Z" transform="translate(-195.473 -150.375)" fill="#263238"/>
      <rect id="Rectangle_5157" data-name="Rectangle 5157" width="10.772" height="2.781" transform="translate(25.254 182.661)" fill="#fff9f9"/>
      <rect id="Rectangle_5158" data-name="Rectangle 5158" width="10.772" height="2.781" transform="translate(72.912 172.964) rotate(-25.47)" fill="#fff9f9"/>
      <path id="Path_43478" data-name="Path 43478" d="M252.5,234.4l-.187-.157A15.877,15.877,0,0,1,246.57,222Z" transform="translate(-203.331 -168.458)" opacity="0.2" style="isolation: isolate"/>
    </g>
  </g>
</svg>
