<svg xmlns="http://www.w3.org/2000/svg" width="340.685" height="289.621" viewBox="0 0 340.685 289.621">
  <g id="materialimg" transform="translate(-56.11 -97.903)">
    <g id="freepik--background-simple--inject-10" transform="translate(63.714 102.903)">
      <path id="Path_43836" data-name="Path 43836" d="M256.4,123.955c-77.9-47.741-182.115-5.271-191.164,62.667-8.171,66.48,91.651,148.844,187.958,118.244,90.7-28.008,152.868-149.82,80.7-174.832C310.334,123.806,279.339,132.794,256.4,123.955Z" transform="translate(-64.765 -103.594)" fill="#ffa9a9"/>
      <path id="Path_43837" data-name="Path 43837" d="M256.4,123.955c-77.9-47.741-182.115-5.271-191.164,62.667-8.171,66.48,91.651,148.844,187.958,118.244,90.7-28.008,152.868-149.82,80.7-174.832C310.334,123.806,279.339,132.794,256.4,123.955Z" transform="translate(-64.765 -103.594)" fill="#fff" opacity="0.9"/>
    </g>
    <g id="freepik--Shadow--inject-10" transform="translate(56.11 367.634)">
      <ellipse id="freepik--path--inject-10" cx="170.343" cy="9.945" rx="170.343" ry="9.945" fill="#f5f5f5"/>
    </g>
    <g id="freepik--interaction-design--inject-10" transform="translate(176.123 100.623)">
      <path id="Path_43838" data-name="Path 43838" d="M255.911,287.889h-51.94a10.543,10.543,0,0,1-10.631-11.764l5.4-56.122a13.293,13.293,0,0,1,12.9-11.764h51.931A10.543,10.543,0,0,1,274.2,220l-5.4,56.122A13.284,13.284,0,0,1,255.911,287.889Z" transform="translate(-192.781 -114.023)" fill="#fff"/>
      <path id="Path_43839" data-name="Path 43839" d="M255.843,288.3H203.9A11.008,11.008,0,0,1,192.789,276l5.447-56.122a13.758,13.758,0,0,1,13.38-12.2h51.931a11.079,11.079,0,0,1,8.32,3.6,11.193,11.193,0,0,1,2.8,8.7l-5.412,56.131A13.741,13.741,0,0,1,255.843,288.3Zm-44.27-79.641a12.748,12.748,0,0,0-12.405,11.316l-5.4,56.131A10.042,10.042,0,0,0,203.9,287.33h51.94a12.739,12.739,0,0,0,12.4-11.316l5.412-56.131a10.244,10.244,0,0,0-2.548-7.907,10.112,10.112,0,0,0-7.6-3.277Z" transform="translate(-192.713 -113.955)" fill="#ffa9a9"/>
      <path id="Path_43840" data-name="Path 43840" d="M257.276,260.732l-5.755-14.162-1.915-4.718a3.312,3.312,0,0,0-4.243-1.757,3.927,3.927,0,0,0-2.513,5.017l-.966-2.381a3.3,3.3,0,0,0-4.235-1.757h0a3.936,3.936,0,0,0-2.513,5.017l-6.44-15.814a3.312,3.312,0,0,0-4.243-1.757,3.918,3.918,0,0,0-2.5,5.017l.51,1.256a3.312,3.312,0,0,0-4.243-1.757,3.918,3.918,0,0,0-2.5,5.017l6.15,15.058,4.12,13.951a11.053,11.053,0,0,1-4.1,0c-4.138-.676-9.91,1.432-8.944,5.561.387,1.678,5.772,1.414,7.652,2.442s11.931,5.043,16.772,4.911a3.119,3.119,0,0,0,3.47.527l15.076-7.231a3.128,3.128,0,0,0,1.625-1.863A15.049,15.049,0,0,0,257.276,260.732Z" transform="translate(-195.156 -116.446)" fill="#ffa9a9"/>
      <path id="Path_43841" data-name="Path 43841" d="M262.433,232.679a.342.342,0,0,1-.132,0l-16.974-4.92a.492.492,0,0,1,.272-.94l16.974,4.9a.5.5,0,0,1,.334.606A.483.483,0,0,1,262.433,232.679Z" transform="translate(-199.066 -116.278)" fill="#263238"/>
      <path id="Path_43842" data-name="Path 43842" d="M246.6,224.4l-5.693,1.406,4.059,4.226Z" transform="translate(-198.567 -115.985)" fill="#263238"/>
      <path id="Path_43843" data-name="Path 43843" d="M380.365,322.285H303.052a10.543,10.543,0,0,1-10.622-11.764l14.935-155.267A13.275,13.275,0,0,1,320.254,143.5h77.313a10.543,10.543,0,0,1,10.622,11.755L393.253,310.522A13.284,13.284,0,0,1,380.365,322.285Z" transform="translate(-204.815 -106.16)" fill="#fff"/>
      <path id="Path_43844" data-name="Path 43844" d="M380.286,322.734H302.973a11.017,11.017,0,0,1-11.114-12.3L306.8,155.168A13.758,13.758,0,0,1,320.193,143h77.313a11.017,11.017,0,0,1,11.114,12.3L393.684,310.566a13.758,13.758,0,0,1-13.4,12.168ZM320.193,143.949A12.748,12.748,0,0,0,307.788,155.3L292.852,310.531a10.182,10.182,0,0,0,2.548,7.907,10.077,10.077,0,0,0,7.591,3.277H380.3A12.748,12.748,0,0,0,392.709,310.4l14.935-155.267a10.024,10.024,0,0,0-10.138-11.219Z" transform="translate(-204.745 -106.1)" fill="#ffa9a9"/>
      <path id="Path_43845" data-name="Path 43845" d="M318.993,322.306H305.56L348.644,143.52h13.424Z" transform="translate(-206.418 -106.163)" fill="#ffa9a9" opacity="0.1"/>
      <path id="Path_43846" data-name="Path 43846" d="M344.772,322.306H325.83L368.905,143.52h18.942Z" transform="translate(-208.88 -106.163)" fill="#ffa9a9" opacity="0.1"/>
      <path id="Path_43847" data-name="Path 43847" d="M346.5,338.665a5.192,5.192,0,0,1-5.271-5.816,6.44,6.44,0,0,1,6.273-5.719,5.219,5.219,0,0,1,3.936,1.7,5.271,5.271,0,0,1,1.318,4.12A6.44,6.44,0,0,1,346.5,338.665Zm1.019-10.543a5.438,5.438,0,0,0-5.271,4.841,4.331,4.331,0,0,0,1.063,3.365,4.279,4.279,0,0,0,3.216,1.371,5.447,5.447,0,0,0,5.271-4.832,4.3,4.3,0,0,0-1.072-3.365,4.252,4.252,0,0,0-3.207-1.4Z" transform="translate(-210.745 -128.462)" fill="#ffa9a9"/>
      <path id="Path_43848" data-name="Path 43848" d="M388.06,322.734v-.984a12.748,12.748,0,0,0,12.405-11.316L415.4,155.168a10.253,10.253,0,0,0-2.548-7.907,10.13,10.13,0,0,0-7.6-3.268V143a11.07,11.07,0,0,1,8.32,3.593,11.219,11.219,0,0,1,2.8,8.706L401.44,310.566a13.758,13.758,0,0,1-13.38,12.168Z" transform="translate(-216.437 -106.1)" fill="#ffa9a9"/>
      <path id="Path_43849" data-name="Path 43849" d="M317.543,181.216H265.6a10.543,10.543,0,0,1-10.613-11.764l5.394-56.078a13.284,13.284,0,0,1,12.888-11.764h51.94a10.543,10.543,0,0,1,10.6,11.764l-5.4,56.122A13.284,13.284,0,0,1,317.543,181.216Z" transform="translate(-200.268 -101.073)" fill="#fff"/>
      <path id="Path_43850" data-name="Path 43850" d="M317.473,181.625h-51.94a11.017,11.017,0,0,1-11.114-12.3l5.4-56.131A13.758,13.758,0,0,1,273.2,101h51.94a11.035,11.035,0,0,1,11.114,12.3l-5.4,56.122A13.758,13.758,0,0,1,317.473,181.625ZM273.2,101.984A12.757,12.757,0,0,0,260.8,113.3l-5.4,56.122a10.191,10.191,0,0,0,2.548,7.951,10.077,10.077,0,0,0,7.591,3.277h51.94a12.757,12.757,0,0,0,12.405-11.316l5.4-56.131a10.182,10.182,0,0,0-2.548-7.907,10.077,10.077,0,0,0-7.591-3.277Z" transform="translate(-200.198 -100.999)" fill="#ffa9a9"/>
      <path id="Path_43851" data-name="Path 43851" d="M295.383,127.979a5.737,5.737,0,0,1-4.34-1.871,5.807,5.807,0,0,1-1.458-4.542,7.125,7.125,0,0,1,6.932-6.326,5.737,5.737,0,0,1,5.8,6.422,7.125,7.125,0,0,1-6.932,6.317Zm1.133-11.755a6.15,6.15,0,0,0-5.957,5.438A4.762,4.762,0,0,0,295.383,127a6.15,6.15,0,0,0,5.957-5.438,4.762,4.762,0,0,0-4.823-5.342Z" transform="translate(-204.473 -102.728)" fill="#263238"/>
      <path id="Path_43852" data-name="Path 43852" d="M294.46,131.364a9.242,9.242,0,0,1-9.339-10.341,11.544,11.544,0,0,1,11.228-10.244,9.321,9.321,0,0,1,7.028,3.013,9.427,9.427,0,0,1,2.346,7.327h0A11.553,11.553,0,0,1,294.46,131.364Zm1.889-19.6A10.543,10.543,0,0,0,286.1,121.12a8.258,8.258,0,0,0,8.364,9.26,10.543,10.543,0,0,0,10.262-9.357,8.443,8.443,0,0,0-2.1-6.572,8.346,8.346,0,0,0-6.273-2.688Zm8.865,9.3Z" transform="translate(-203.928 -102.186)" fill="#263238"/>
      <path id="Path_43853" data-name="Path 43853" d="M314.259,139.314a4.041,4.041,0,0,0-4.393,3.576l.255-2.636a3.2,3.2,0,0,0-2.794-3.567h0a4.033,4.033,0,0,0-4.393,3.567l.158-1.643a3.207,3.207,0,0,0-2.794-3.576,4.041,4.041,0,0,0-4.393,3.576v.237l1.432-14.935a3.207,3.207,0,0,0-2.794-3.576,4.041,4.041,0,0,0-4.393,3.576l-1.617,16.859-2.82,14.935a9.665,9.665,0,0,1-3.47-1.871c-3.216-2.5-9.075-3.11-10.139,1.195-.422,1.757,4.279,3.918,5.4,5.719s7.863,10.086,12.036,12.133h0a2.961,2.961,0,0,0,2.82,2.056h15.972a3.022,3.022,0,0,0,2.2-.958,17.009,17.009,0,0,0,4.525-9.954l1.168-12.194h0l.466-4.85.184-1.906h0l.211-2.188a3.207,3.207,0,0,0-2.829-3.576Zm-11.614,3.567h0l.22-2.293Z" transform="translate(-202.352 -103.345)" fill="#ffa9a9"/>
      <path id="Path_43854" data-name="Path 43854" d="M361.148,246.666a21.669,21.669,0,0,0-1.344-4.217l1.432-3.558-6.352-7.028-3.664,1.081a21.245,21.245,0,0,0-4.041-1.757l-1.432-3.286h-9.936l-2.065,3.286a25.793,25.793,0,0,0-4.393,1.757l-3.453-1.081-7.7,7.028.747,3.558a25.753,25.753,0,0,0-2.152,4.217l-3.453,1.757-.958,9.936,3.119,1.757a21.085,21.085,0,0,0,1.344,4.217l-1.432,3.558,6.343,7.028,3.664-1.089a21.084,21.084,0,0,0,4.05,1.757l1.423,3.286h9.936l2.065-3.286a26.207,26.207,0,0,0,4.393-1.757l3.453,1.089,7.7-7.028-.738-3.558a27.235,27.235,0,0,0,2.152-4.217l3.444-1.757.958-9.936Zm-23.941,18.379a10.42,10.42,0,0,1-10.543-11.667,13.178,13.178,0,0,1,12.8-11.676,10.42,10.42,0,0,1,10.543,11.676,13.178,13.178,0,0,1-12.8,11.667Z" transform="translate(-207.246 -116.411)" fill="#ffa9a9"/>
      <path id="Path_43855" data-name="Path 43855" d="M394.664,208.853l-2.267-.22a12.529,12.529,0,0,0-1.757-1.994h0v-2.284L385.131,202l-1.915,1.467h0a13.751,13.751,0,0,0-2.82,0h0L378.771,202l-5.939,2.355-.439,2.284a17.489,17.489,0,0,0-2.188,1.994h0l-2.311.22-2.9,5.684,1.291,1.757h0a15.188,15.188,0,0,0-.272,2.82l-1.634,1.757,1.81,5.675,2.267.22h0a12.616,12.616,0,0,0,1.8,1.994h0v2.293l5.456,2.355,1.915-1.467a13.749,13.749,0,0,0,2.82,0l1.634,1.467,5.9-2.355.439-2.293h0a15.246,15.246,0,0,0,2.188-1.994l2.311-.22,2.9-5.675-1.291-1.757h0a14.468,14.468,0,0,0,.272-2.82h0l1.634-1.757Zm-10.947,19.161c-5.913,2.355-12.168-.343-13.978-6.027s1.52-12.2,7.433-14.558,12.168.343,13.978,6.027S389.63,225.659,383.717,228.014Z" transform="translate(-213.562 -113.265)" fill="#263238"/>
    </g>
    <g id="freepik--Character--inject-10" transform="translate(81.262 97.903)">
      <path id="Path_43856" data-name="Path 43856" d="M120.2,208.1l3.576,2.583-6.765,5.271a22.843,22.843,0,0,1-1.01-5.57,2.135,2.135,0,0,1,2.038-2.205Z" transform="translate(-88.535 -111.286)" fill="#ff8b7b"/>
      <path id="Path_43857" data-name="Path 43857" d="M125.11,217.766l-2.029,1.441a3.611,3.611,0,0,1-5.456-1.634l-.474-1.221,6.765-5.271Z" transform="translate(-88.675 -111.648)" fill="#ff8b7b"/>
      <path id="Path_43858" data-name="Path 43858" d="M179.883,155.22c1.608,4.024,3.251,8.153,4.92,12.177.826,2.021,1.7,4.015,2.557,5.983s1.757,3.874,2.724,5.614a19.568,19.568,0,0,0,1.344,2.179c.6.756,1.256,1.546,1.942,2.346,1.388,1.6,2.873,3.207,4.393,4.832,2.987,3.224,6.027,6.5,8.979,9.84l-3.339,3.936a124.645,124.645,0,0,1-11.149-7.845c-1.757-1.406-3.567-2.873-5.271-4.463-.879-.782-1.757-1.634-2.636-2.548a25.318,25.318,0,0,1-2.5-3.312,102.674,102.674,0,0,1-6.563-12.44c-1.871-4.182-3.576-8.338-5.148-12.651Z" transform="translate(-95.11 -104.864)" fill="#ff8b7b"/>
      <path id="Path_43859" data-name="Path 43859" d="M218.886,209.436l.22-.6a3.453,3.453,0,0,0-1.581-4.182l-1.757-.966L213.5,210.1l2.3.8a2.416,2.416,0,0,0,3.084-1.467Z" transform="translate(-100.376 -110.75)" fill="#ff8b7b"/>
      <path id="Path_43860" data-name="Path 43860" d="M138.515,152.261c-2.706,4.068-5.482,8.153-8.258,12.194l-4.156,6.062-4.006,5.965a6.273,6.273,0,0,0-.7,1.977,24.7,24.7,0,0,0-.5,3.154c-.228,2.24-.343,4.6-.369,7.028-.053,4.771.07,9.708.246,14.558l-5.069.826a104.67,104.67,0,0,1-2.952-14.935,66.969,66.969,0,0,1-.527-7.854,37.656,37.656,0,0,1,.255-4.226,16.514,16.514,0,0,1,.439-2.346,12,12,0,0,1,.4-1.3,6.923,6.923,0,0,1,.272-.685l.36-.747.29-.527.228-.413.457-.826.931-1.652c.615-1.1,1.265-2.17,1.9-3.251,1.274-2.152,2.583-4.287,3.91-6.4,2.636-4.235,5.412-8.364,8.311-12.458Z" transform="translate(-88.076 -103.794)" fill="#ff8b7b"/>
      <path id="Path_43861" data-name="Path 43861" d="M174.11,119.945a.964.964,0,0,0,.3,1.177c.3.123.756-.2.931-.72a.975.975,0,0,0-.307-1.186C174.725,119.084,174.286,119.418,174.11,119.945Z" transform="translate(-95.584 -100.488)" fill="#263238"/>
      <path id="Path_43862" data-name="Path 43862" d="M173.774,121.23a20.725,20.725,0,0,0,1,5.4,3.162,3.162,0,0,1-2.636-.448Z" transform="translate(-95.353 -100.736)" fill="#ff5652"/>
      <path id="Path_43863" data-name="Path 43863" d="M172.859,123.361h-.141a2.3,2.3,0,0,1-1.8-1.01,4.393,4.393,0,0,1-.307-3.778c.756-2.478,2.934-4.393,4.788-4.314a2.293,2.293,0,0,1,1.8,1,4.437,4.437,0,0,1,.307,3.787C176.769,121.464,174.7,123.361,172.859,123.361Zm2.39-8.663c-1.66,0-3.514,1.757-4.217,4a4.006,4.006,0,0,0,.246,3.409,1.871,1.871,0,0,0,1.467.817c1.687.105,3.637-1.7,4.34-4.006a4.015,4.015,0,0,0-.246-3.4,1.871,1.871,0,0,0-1.467-.817Z" transform="translate(-95.132 -99.889)" fill="#ffa9a9"/>
      <path id="Path_43864" data-name="Path 43864" d="M175.742,116.339a.351.351,0,0,1-.176-.079,2.53,2.53,0,0,0-2.284-.4.334.334,0,0,1-.4-.228.308.308,0,0,1,.22-.4,3.189,3.189,0,0,1,2.9.536.325.325,0,0,1-.255.562Z" transform="translate(-95.441 -99.991)" fill="#263238"/>
      <path id="Path_43865" data-name="Path 43865" d="M152.527,121.8c-.879,5.57-.062,12.642-4,15.3,0,0,.606,5.271,9.752,7.028,10.051,1.88,5.544-4.129,5.544-4.129-5.271-2.346-4.542-6.422-3.013-10.095Z" transform="translate(-92.486 -100.805)" fill="#ff8b7b"/>
      <path id="Path_43866" data-name="Path 43866" d="M145.425,140.033c-.483-1.757-.835-4.3.879-4.568,1.9-.29,13.705.975,20.207,4.454a6.15,6.15,0,0,0-1.01,4.9Z" transform="translate(-92.061 -102.46)" fill="#263238"/>
      <path id="Path_43867" data-name="Path 43867" d="M99.966,404.65a7.329,7.329,0,0,1-2.688-.773.157.157,0,0,1,.018-.29c.088,0,2.17-.879,3.092-.378a.773.773,0,0,1,.43.492.668.668,0,0,1-.158.764,1.089,1.089,0,0,1-.694.185Zm-2.188-.879c.949.422,2.311.756,2.636.457,0,0,.141-.114.053-.413a.466.466,0,0,0-.264-.3,4.331,4.331,0,0,0-2.425.237Z" transform="translate(-86.251 -134.963)" fill="#ffa9a9"/>
      <path id="Path_43868" data-name="Path 43868" d="M97.361,403.626a.167.167,0,0,1-.114-.044.158.158,0,0,1,0-.158c0-.088.589-1.977,1.494-2.425a.878.878,0,0,1,.72,0,.553.553,0,0,1,.413.553c0,.782-1.678,1.906-2.425,2.109Zm1.757-2.4a.545.545,0,0,0-.255.062c-.58.29-1.037,1.371-1.23,1.906.782-.343,1.863-1.23,1.889-1.7a.277.277,0,0,0-.2-.237.543.543,0,0,0-.22-.026Z" transform="translate(-86.255 -134.704)" fill="#ffa9a9"/>
      <path id="Path_43869" data-name="Path 43869" d="M168.52,408.082a11.973,11.973,0,0,1-2.109-.193.185.185,0,0,1-.132-.132.176.176,0,0,1,.079-.167c.343-.2,3.382-1.942,4.12-.738a.615.615,0,0,1,0,.712C170.233,407.959,169.39,408.082,168.52,408.082Zm-1.59-.439c1.283.184,3.022.167,3.312-.264a.374.374,0,0,0,0-.36c-.457-.676-2.3.1-3.33.624Z" transform="translate(-94.641 -135.373)" fill="#ffa9a9"/>
      <path id="Path_43870" data-name="Path 43870" d="M166.447,407.666a.176.176,0,0,1-.1,0,.185.185,0,0,1-.07-.141,4.413,4.413,0,0,1,.958-2.636,1.177,1.177,0,0,1,.879-.29c.457.053.589.281.624.466.132.791-1.432,2.24-2.249,2.636ZM168,404.889a.808.808,0,0,0-.553.22,3.69,3.69,0,0,0-.817,2.109c.826-.5,1.88-1.643,1.757-2.126,0,0,0-.158-.325-.193Z" transform="translate(-94.641 -135.15)" fill="#ffa9a9"/>
      <path id="Path_43871" data-name="Path 43871" d="M157.9,405.719h6.844l.07-15.849H157.97Z" transform="translate(-93.624 -133.361)" fill="#ff8b7b"/>
      <path id="Path_43872" data-name="Path 43872" d="M88.72,399.621l6.642,1.669,6.607-14.681-6.642-1.669Z" transform="translate(-85.222 -132.763)" fill="#ff8b7b"/>
      <path id="Path_43873" data-name="Path 43873" d="M95.511,402.539l-7.459-1.871a.562.562,0,0,0-.659.316l-2.565,5.632a1.037,1.037,0,0,0,.72,1.432c2.636.606,3.91.773,7.187,1.6,2.021.51,6.15,1.757,8.917,2.46s3.743-1.986,2.636-2.53c-4.876-2.416-6.475-4.454-7.8-6.352A1.757,1.757,0,0,0,95.511,402.539Z" transform="translate(-84.739 -134.67)" fill="#263238"/>
      <path id="Path_43874" data-name="Path 43874" d="M164.332,407h-7.476a.571.571,0,0,0-.562.466l-1.116,6.08a1.045,1.045,0,0,0,1.028,1.221c2.7-.044,6.589-.2,9.98-.2,3.962,0,5.579.211,10.226.211,2.8,0,3.514-2.838,2.293-3.093-5.4-1.177-7.96-1.3-12.7-4.156a3.259,3.259,0,0,0-1.669-.527Z" transform="translate(-93.291 -135.442)" fill="#263238"/>
      <path id="Path_43875" data-name="Path 43875" d="M137.341,138.679C130.822,138.96,121,154.915,121,154.915l11.421,11.114A102.727,102.727,0,0,0,142.9,153.272C147.8,146.05,144.009,138.4,137.341,138.679Z" transform="translate(-89.142 -102.854)" fill="#ffa9a9"/>
      <path id="Path_43876" data-name="Path 43876" d="M137.341,138.679C130.822,138.96,121,154.915,121,154.915l11.421,11.114A102.727,102.727,0,0,0,142.9,153.272C147.8,146.05,144.009,138.4,137.341,138.679Z" transform="translate(-89.142 -102.854)" fill="#fff" opacity="0.2"/>
      <path id="Path_43877" data-name="Path 43877" d="M141.564,151.88,133.2,166.815l.536.527s3.128-3.18,6.668-7.591Z" transform="translate(-90.624 -104.458)" opacity="0.2"/>
      <path id="Path_43878" data-name="Path 43878" d="M169.06,176.158c-1.458,7.5-3.664,16.754-6.949,28.114l-36.021-6.747c.527-5.175,6.949-28.114,6.8-53.038a6.053,6.053,0,0,1,6.4-6.1c1.757.105,3.751.281,5.675.545a135.765,135.765,0,0,1,15.3,2.89,70.335,70.335,0,0,1,10.068,3.822s2.46,3.918.457,19.723C170.378,168.488,169.816,172.064,169.06,176.158Z" transform="translate(-89.761 -102.818)" fill="#ffa9a9"/>
      <path id="Path_43879" data-name="Path 43879" d="M169.06,176.158c-1.458,7.5-3.664,16.754-6.949,28.114l-36.021-6.747c.527-5.175,6.949-28.114,6.8-53.038a6.053,6.053,0,0,1,6.4-6.1c1.757.105,3.751.281,5.675.545a135.765,135.765,0,0,1,15.3,2.89,70.335,70.335,0,0,1,10.068,3.822s2.46,3.918.457,19.723C170.378,168.488,169.816,172.064,169.06,176.158Z" transform="translate(-89.761 -102.818)" fill="#fff" opacity="0.3"/>
      <path id="Path_43880" data-name="Path 43880" d="M174.407,179.3c-2.864-1.968-5.271-10.622-3.883-15.058l5.64,4.27C175.725,171.629,175.163,175.2,174.407,179.3Z" transform="translate(-95.108 -105.959)" fill="#ffa9a9" opacity="0.5"/>
      <path id="Path_43881" data-name="Path 43881" d="M166.782,150.892c-2.109,6.15,8.513,24.951,8.513,24.951l13.811-6.554a76.924,76.924,0,0,0-7.318-16.693C176.648,144.461,169.154,143.942,166.782,150.892Z" transform="translate(-94.669 -103.751)" fill="#ffa9a9"/>
      <path id="Path_43882" data-name="Path 43882" d="M166.782,150.892c-2.109,6.15,8.513,24.951,8.513,24.951l13.811-6.554a76.924,76.924,0,0,0-7.318-16.693C176.648,144.461,169.154,143.942,166.782,150.892Z" transform="translate(-94.669 -103.751)" fill="#fff" opacity="0.3"/>
      <path id="Path_43883" data-name="Path 43883" d="M164.818,389.87l-.035,8.171H157.93l.035-8.171Z" transform="translate(-93.627 -133.361)" opacity="0.2"/>
      <path id="Path_43884" data-name="Path 43884" d="M95.76,384.94l6.642,1.669L99,394.182l-6.642-1.669Z" transform="translate(-85.664 -132.763)" opacity="0.2"/>
      <path id="Path_43885" data-name="Path 43885" d="M154.6,110.548c-1.757,6.589-3.057,10.349-.931,14.856a8.838,8.838,0,0,0,15.638.879c3.268-5.271,5.535-15.181.149-20.057a8.926,8.926,0,0,0-14.856,4.322Z" transform="translate(-92.976 -98.611)" fill="#ff8b7b"/>
      <path id="Path_43886" data-name="Path 43886" d="M165.22,116.438c1.617.114,5.078-2.249,5.271-4.445,1.7-.975,4.551-2.24,5.008-4.287s1.186-9.471-3.154-7.96-3.558-.685-7.635-1.608-5.052,1.168-8.645,1.221-2.029,3.655-2.029,3.655c-3.708-1.168-7.169,2.249-5.069,4.885s-1.5,2.75-.773,6.352,3.259,8.144.527,7.406-1.072,5.271,6.879,5.034S166.679,118.494,165.22,116.438Z" transform="translate(-92.36 -97.903)" fill="#263238"/>
      <path id="Path_43887" data-name="Path 43887" d="M176.911,119.4l-9.181-3.013.132-.413,9.19,3.013Z" transform="translate(-94.818 -100.097)" fill="#ffa9a9"/>
      <path id="Path_43888" data-name="Path 43888" d="M164.689,117.675a8.092,8.092,0,0,0,.879,4.929c1.081,1.986,1.494,2.073,2.188.184.624-1.757,2.126-5.5.571-6.853S165.023,115.619,164.689,117.675Z" transform="translate(-94.439 -100.019)" fill="#ff8b7b"/>
      <path id="Path_43889" data-name="Path 43889" d="M144.91,210.088s-6.589,51.466-10.1,71.057c-3.839,21.463-32.709,90.491-32.709,90.491L90,368.587s22.561-64.249,24.406-85.492c2-23.062,3.453-60.963,7.31-77.365Z" transform="translate(-85.378 -110.998)" fill="#263238"/>
      <path id="Path_43890" data-name="Path 43890" d="M104.9,389.558c.053,0-2.249,4.393-2.249,4.393L89,390.507l1.142-4.147Z" transform="translate(-85.256 -132.935)" fill="#ffa9a9"/>
      <path id="Path_43891" data-name="Path 43891" d="M146.578,231.992a3.145,3.145,0,0,1,1.177,0c-1.757,16.042-4.393,37.462-6.378,49.717C139.7,263.866,138.135,233.653,146.578,231.992Z" transform="translate(-91.456 -114.181)" opacity="0.2"/>
      <path id="Path_43892" data-name="Path 43892" d="M163.732,212.8s3.514,47.96,3.514,68.817c.062,21.709-2.161,92.8-2.161,92.8h-11.6s-5.737-69.827-7.072-91.15c-1.458-23.247-6.326-74.905-6.326-74.905Z" transform="translate(-91.461 -111.318)" fill="#263238"/>
      <path id="Path_43893" data-name="Path 43893" d="M207.68,205.431l.879-1.353a12.159,12.159,0,0,1,6.747-.343l-2.548,6.343-4.015-1.45a2.135,2.135,0,0,1-1.063-3.2Z" transform="translate(-99.626 -110.717)" fill="#ff8b7b"/>
      <path id="Path_43894" data-name="Path 43894" d="M168.81,392.11c.053,0-.466,4.814-.466,4.814h-14.11l-.545-4.3Z" transform="translate(-93.112 -133.633)" fill="#ffa9a9"/>
    </g>
  </g>
</svg>
