<svg xmlns="http://www.w3.org/2000/svg" width="162.888" height="141.667" viewBox="0 0 162.888 141.667">
  <g id="othersimg" transform="translate(-80.5 -75)">
    <path id="Path_43914" data-name="Path 43914" d="M126.5,131.579a56.079,56.079,0,0,1,112.158,0v79.15a5.438,5.438,0,0,1-5.438,5.438H131.938a5.438,5.438,0,0,1-5.438-5.438Z" transform="translate(-12.509)" fill="#dbebff" stroke="#1f243c" stroke-width="1"/>
    <g id="Group_41408" data-name="Group 41408" transform="translate(147.852 105.63)">
      <path id="Path_43915" data-name="Path 43915" d="M174.926,117.054v0ZM173.2,146.927h.345v-.346H173.2Z" transform="translate(-173.198 -117.054)" fill="#171b2e" stroke="#1f243c" stroke-miterlimit="10" stroke-width="1"/>
    </g>
    <path id="Path_43916" data-name="Path 43916" d="M186.945,145.187l-1.659-15.559a14.3,14.3,0,0,0-2.489-6.639l-12.651-6.984c.07,2.143-2.834.692-4.977.761-1.175.069-4.01,5.6-4.77,4.771l-4.839,18.256s5.392,6.362,5.323,6.362a20.748,20.748,0,0,0,2.282,2.628,19.85,19.85,0,0,0,7.742,4.495,18.744,18.744,0,0,0,7.812.968c.138,0,.346-.069.484-.069a9.269,9.269,0,0,0,5.531-2.628,7.89,7.89,0,0,0,2.212-6.362Z" transform="translate(-20.497 -11.135)" fill="#9f9ae9" stroke="#1f243c" stroke-width="1"/>
    <path id="Path_43917" data-name="Path 43917" d="M181.071,166.6c-.138,0-.276.069-.484.069a18.957,18.957,0,0,1-7.812-.968,20.732,20.732,0,0,1-7.743-4.495l-2.677,17.15c7.349-1.161,12.324,0,19.338,0Z" transform="translate(-22.366 -23.563)" fill="#9f9ae9" stroke="#1f243c" stroke-width="1"/>
    <path id="Path_43918" data-name="Path 43918" d="M194.65,140.134l2.9,3.457c1.59,1.867,1.521,5.6-2.9,4.91" transform="translate(-31.244 -17.769)" fill="#9f9ae9"/>
    <path id="Path_43919" data-name="Path 43919" d="M194.65,140.134l2.9,3.457c1.59,1.867,1.521,5.6-2.9,4.91" transform="translate(-31.244 -17.769)" fill="none" stroke="#1f243c" stroke-width="1"/>
    <path id="Path_43920" data-name="Path 43920" d="M145.167,151.72c1.244,4.08,19.357,4.287,19.564,0l-1.037-18.6a3.6,3.6,0,0,0,2.627.9c2.143,0,3.871-2.763,4.01-4.907l12.161-.138a3.6,3.6,0,0,0,3.526-3.6c-.138-7.883-8.636-14.107-16.448-14.038l-3.18.069a17.407,17.407,0,0,0-17.006,15.075l-4.217,25.24Z" transform="translate(-17.64 -9.852)" fill="#f18ab2" stroke="#1f243c" stroke-miterlimit="10" stroke-width="1" fill-rule="evenodd"/>
    <path id="Path_43921" data-name="Path 43921" d="M171.1,146.287c.138,1.383-1.59,2.213-2.351,2.282a4.575,4.575,0,0,1-5.047-4.01l-.138-1.106a3.443,3.443,0,1,1,6.845-.761" transform="translate(-22.691 -17.63)" fill="#9f9ae9"/>
    <path id="Path_43922" data-name="Path 43922" d="M171.1,146.287c.138,1.383-1.59,2.213-2.351,2.282a4.575,4.575,0,0,1-5.047-4.01l-.138-1.106a3.443,3.443,0,1,1,6.845-.761" transform="translate(-22.691 -17.63)" fill="none" stroke="#1f243c" stroke-width="1"/>
    <path id="Path_43923" data-name="Path 43923" d="M126.5,199.249a18.49,18.49,0,0,1,18.49-18.49h30.617a17.04,17.04,0,0,1,16.438,12.551L206.187,245.1H131.938a5.438,5.438,0,0,1-5.438-5.438Z" transform="translate(-12.509 -28.937)" fill="#f6f9ff" stroke="#1f243c" stroke-width="1"/>
    <path id="Path_43924" data-name="Path 43924" d="M161.719,211.256v23.1h52.5v18.768m-17.936-41.869,5.644,23.1" transform="translate(-22.191 -37.321)" fill="none" stroke="#1f243c" stroke-width="1"/>
    <path id="Path_43925" data-name="Path 43925" d="M212.612,101.379c1.477,1.477,2.19,3.666,2.343,6.722.152-3.056.865-5.245,2.342-6.722s3.666-2.19,6.722-2.342c-3.056-.153-5.245-.866-6.722-2.342s-2.19-3.667-2.342-6.722c-.153,3.055-.866,5.245-2.343,6.722s-3.666,2.189-6.721,2.342C208.9,99.189,211.136,99.9,212.612,101.379Z" transform="translate(-34.334 -3.979)" fill="#f8e485" stroke="#1f243c" stroke-linecap="round" stroke-linejoin="round" stroke-width="1"/>
    <path id="Path_43926" data-name="Path 43926" d="M205.138,252.226l15.6-41.721a5.982,5.982,0,0,1,5.507-3.805h47.73a3.168,3.168,0,0,1,2.491,1.312,3.389,3.389,0,0,1,.394,2.755L262.7,248.422a5.983,5.983,0,0,1-5.507,3.8H205.138Z" transform="translate(-34.127 -36.069)" fill="#c6cbde" stroke="#1f243c" stroke-width="1"/>
    <path id="Path_43927" data-name="Path 43927" d="M258.564,239.41c2.775-2.214,3.889-5.432,2.49-7.188s-4.783-1.386-7.558.827-3.889,5.432-2.489,7.188S255.79,241.624,258.564,239.41Z" transform="translate(-46.571 -42.78)" fill="#e7e9f5" stroke="#1f243c" stroke-miterlimit="10" stroke-width="1"/>
    <path id="Path_43928" data-name="Path 43928" d="M233.836,130.351A4.351,4.351,0,0,1,238.187,126h29.729v47.131H238.187a4.351,4.351,0,0,1-4.351-4.351Z" transform="translate(-42.017 -13.883)" fill="#1f243c" stroke="#1f243c" stroke-width="1" opacity="0.2"/>
    <rect id="Rectangle_5317" data-name="Rectangle 5317" width="42.331" height="50.81" rx="6" transform="translate(197.186 102.921)" fill="#fff" stroke="#1f243c" stroke-width="1"/>
    <path id="Path_43929" data-name="Path 43929" d="M265.4,136.828a1.45,1.45,0,0,1,1.45-1.45h9.681a1.45,1.45,0,0,1,1.45,1.45v2.745a1.45,1.45,0,0,1-1.45,1.45H266.85a1.45,1.45,0,0,1-1.45-1.45Z" transform="translate(-50.694 -16.461)" fill="#f28c8c"/>
    <path id="Path_43930" data-name="Path 43930" d="M251.616,128.89h12.7m-12.7,7.527H278.9m-27.28,7.527H278.9m-27.28,7.528H278.9" transform="translate(-46.905 -14.678)" fill="none" stroke="#1f243c" stroke-width="1"/>
    <path id="Path_43931" data-name="Path 43931" d="M287.812,175.348a3.763,3.763,0,1,0-3.764-3.764,3.763,3.763,0,0,0,3.764,3.764Z" transform="translate(-55.821 -25.38)" fill="#15c39a"/>
    <path id="Path_43932" data-name="Path 43932" d="M86.915,235.037c1.3,1.3,1.927,3.226,2.061,5.915.134-2.689.761-4.615,2.061-5.915s3.227-1.927,5.915-2.061c-2.689-.134-4.615-.762-5.915-2.061S89.11,227.689,88.976,225c-.134,2.689-.761,4.615-2.061,5.915s-3.227,1.927-5.915,2.061C83.644,233.11,85.615,233.738,86.915,235.037Z" transform="translate(0 -41.099)" fill="#f8e485" stroke="#1f243c" stroke-linecap="round" stroke-linejoin="round" stroke-width="1"/>
    <path id="Path_43933" data-name="Path 43933" d="M98.582,175.523c21.834,24.215,33.576,47.9,39.637,68.369" transform="translate(-4.834 -27.498)" fill="none" stroke="#1f243c" stroke-miterlimit="10" stroke-width="1"/>
    <path id="Path_43934" data-name="Path 43934" d="M142.746,247.993s-5.774-14.576,10.238-31.229C152.985,216.764,162.032,228.855,142.746,247.993Zm-.518.284s-4.774-14.927-27.686-17.657C114.542,230.62,115.186,245.7,142.228,248.277Zm-11.155-27.824s-6.621-10.963,4.086-26.5C135.159,193.949,144.047,202.417,131.073,220.453Z" transform="translate(-9.221 -32.563)" fill="#67b9d2" stroke="#1f243c" stroke-linejoin="round" stroke-miterlimit="10" stroke-width="1"/>
    <path id="Path_43935" data-name="Path 43935" d="M128.057,214.488s-5.2-11.756-24.012-11.894C104.045,202.595,105.893,214.8,128.057,214.488Zm-14.524-23.681s-5.768-6.953-.065-18.845C113.468,171.962,120.61,176.882,113.533,190.807Z" transform="translate(-6.335 -26.519)" fill="#67b9d2" stroke="#1f243c" stroke-linejoin="round" stroke-miterlimit="10" stroke-width="1"/>
    <path id="Path_43936" data-name="Path 43936" d="M110.132,195.829s-4.957-7.55-17.986-5.552C92.171,190.172,94.809,198.524,110.132,195.829Z" transform="translate(-3.064 -31.461)" fill="#67b9d2" stroke="#1f243c" stroke-linejoin="round" stroke-miterlimit="10" stroke-width="1"/>
  </g>
</svg>
