<svg xmlns="http://www.w3.org/2000/svg" width="331.659" height="326.445" viewBox="0 0 331.659 326.445">
  <g id="paymentimg" transform="translate(-21.461 -29.116)">
    <g id="freepik--background-simple--inject-35" transform="translate(31.593 29.116)">
      <path id="Path_43084" data-name="Path 43084" d="M65.4,130.792S44.855,183.85,73.727,237.276s88.342,81.651,135.939,105.785,97.023,12.38,120.508-27.148-8.725-67.745-8.769-124.112,8.438-71.29-22.108-118.909S193.874,14.727,137.25,50.047,65.4,130.792,65.4,130.792Z" transform="translate(-41.155 -29.116)" fill="#fff" opacity="0.7"/>
      <path id="Path_43085" data-name="Path 43085" d="M106.489,328.48c17.391,18.364,60.088,11.636,78.585,0,60.059-37.767,165.276-100.641,170.044-191.724,2.027-38.71-32.115-59.042-46.374-65-34.237-14.326-71.82-18.622-108.924-20.28C161.08,49.74,119.5,51.089,84.632,69.991c-13.22,7.155-25.689,16.36-34.223,28.887a91.086,91.086,0,0,0-14.982,43.206c-2.13,24.687,4.51,49.44,14.554,72.093S73.416,257.8,85.708,279.32C93.733,293.344,91.868,313.012,106.489,328.48Z" transform="translate(-35.03 -34.851)" fill="#fefffd"/>
      <path id="Path_43086" data-name="Path 43086" d="M106.489,328.48c17.391,18.364,60.088,11.636,78.585,0,60.059-37.767,165.276-100.641,170.044-191.724,2.027-38.71-32.115-59.042-46.374-65-34.237-14.326-71.82-18.622-108.924-20.28C161.08,49.74,119.5,51.089,84.632,69.991c-13.22,7.155-25.689,16.36-34.223,28.887a91.086,91.086,0,0,0-14.982,43.206c-2.13,24.687,4.51,49.44,14.554,72.093S73.416,257.8,85.708,279.32C93.733,293.344,91.868,313.012,106.489,328.48Z" transform="translate(-35.03 -34.851)" fill="#fff" opacity="0.7"/>
    </g>
    <g id="freepik--Graphics--inject-35" transform="translate(21.964 36.333)">
      <rect id="Rectangle_5137" data-name="Rectangle 5137" width="42.102" height="26.922" rx="3.52" transform="translate(50.055 63.523) rotate(16.809)" fill="none" stroke="#263238" stroke-miterlimit="10" stroke-width="1.003"/>
      <line id="Line_616" data-name="Line 616" x2="40.169" y2="12.174" transform="translate(48.059 69.219)" fill="none" stroke="#263238" stroke-miterlimit="10" stroke-width="1"/>
      <line id="Line_617" data-name="Line 617" x2="40.177" y2="12.174" transform="translate(46.835 73.25)" fill="none" stroke="#263238" stroke-miterlimit="10" stroke-width="1"/>
      <path id="Path_43087" data-name="Path 43087" d="M122.176,164.021a2.623,2.623,0,0,0,.228,2.049,2.653,2.653,0,0,1-1.938.162,2.616,2.616,0,1,1,3.036-3.788,2.653,2.653,0,0,0-1.326,1.577Z" transform="translate(-47.389 -71.059)" fill="none" stroke="#263238" stroke-miterlimit="10" stroke-width="1"/>
      <path id="Path_43088" data-name="Path 43088" d="M128.412,165.914a2.616,2.616,0,1,1-1.739-3.265,2.616,2.616,0,0,1,1.739,3.265Z" transform="translate(-48.622 -71.433)" fill="none" stroke="#263238" stroke-miterlimit="10" stroke-width="1"/>
      <rect id="Rectangle_5138" data-name="Rectangle 5138" width="35.704" height="22.83" rx="3.51" transform="translate(296.363 115.565) rotate(16.86)" fill="none" stroke="#263238" stroke-miterlimit="10" stroke-width="1"/>
      <line id="Line_618" data-name="Line 618" x2="34.171" y2="10.354" transform="translate(294.823 120.641)" fill="none" stroke="#263238" stroke-miterlimit="10" stroke-width="1"/>
      <line id="Line_619" data-name="Line 619" x2="34.164" y2="10.354" transform="translate(293.784 124.075)" fill="none" stroke="#263238" stroke-miterlimit="10" stroke-width="1"/>
      <path id="Path_43089" data-name="Path 43089" d="M451.824,229.122a2.211,2.211,0,0,0,.192,1.739,2.222,2.222,0,1,1,.936-3.08,2.211,2.211,0,0,0-1.127,1.341Z" transform="translate(-134.267 -88.304)" fill="none" stroke="#263238" stroke-miterlimit="10" stroke-width="1"/>
      <path id="Path_43090" data-name="Path 43090" d="M457.117,230.755a2.211,2.211,0,1,1-.157-1.7A2.211,2.211,0,0,1,457.117,230.755Z" transform="translate(-135.308 -88.625)" fill="none" stroke="#263238" stroke-miterlimit="10" stroke-width="1"/>
      <rect id="Rectangle_5139" data-name="Rectangle 5139" width="46.912" height="24.407" transform="matrix(0.909, -0.416, 0.416, 0.909, 238.639, 63.969)" fill="none" stroke="#263238" stroke-miterlimit="10" stroke-width="1"/>
      <path id="Path_43091" data-name="Path 43091" d="M396.253,119.528l-6.455-14.1a2.505,2.505,0,0,1-3.316-1.231L352,119.985a2.506,2.506,0,0,1-1.231,3.316l6.455,14.1a2.5,2.5,0,0,1,3.316,1.238l34.473-15.792a2.5,2.5,0,0,1,1.238-3.316Z" transform="translate(-108.467 -56.086)" fill="none" stroke="#263238" stroke-miterlimit="10" stroke-width="1"/>
      <circle id="Ellipse_525" data-name="Ellipse 525" cx="6.411" cy="6.411" r="6.411" transform="translate(256.055 64.126) rotate(-37.53)" fill="none" stroke="#263238" stroke-miterlimit="10" stroke-width="1"/>
      <path id="Path_43092" data-name="Path 43092" d="M382.281,129.059l.479,1.046-.457.206-.472-1.032a3.766,3.766,0,0,1-2.557.162V128.8a3.382,3.382,0,0,0,2.27-.111L380.46,126.3c-1.12.214-2.277.376-2.83-.833-.4-.87-.118-1.916,1.223-2.66l-.479-1.054.457-.206.5,1.069a3.884,3.884,0,0,1,2.108-.28v.641a3.685,3.685,0,0,0-1.864.214l1.105,2.417c1.142-.228,2.358-.435,2.948.789C384,127.246,383.681,128.315,382.281,129.059Zm-2.108-3.4-1.046-2.307c-.906.508-1.105,1.186-.84,1.761.31.722,1.046.693,1.879.545Zm2.778,1.039c-.324-.737-1.105-.663-1.975-.494l1.039,2.277c1-.531,1.194-1.2.928-1.783Z" transform="translate(-115.49 -60.651)" fill="#263238"/>
      <rect id="Rectangle_5140" data-name="Rectangle 5140" width="32.933" height="17.129" transform="translate(13.095 148.48) rotate(-5.143)" fill="none" stroke="#263238" stroke-miterlimit="10" stroke-width="1.004"/>
      <path id="Path_43093" data-name="Path 43093" d="M71.745,250.438l-.929-10.8a1.754,1.754,0,0,1-1.894-1.592l-26.411,2.284a1.761,1.761,0,0,1-1.592,1.894l.929,10.8a1.746,1.746,0,0,1,1.894,1.592l26.411-2.284a1.761,1.761,0,0,1,1.592-1.894Z" transform="translate(-26.951 -91.3)" fill="none" stroke="#263238" stroke-miterlimit="10" stroke-width="1"/>
      <path id="Path_43094" data-name="Path 43094" d="M64.7,247.306a4.48,4.48,0,1,1-1.581-3.049A4.488,4.488,0,0,1,64.7,247.306Z" transform="translate(-30.851 -92.656)" fill="none" stroke="#263238" stroke-miterlimit="10" stroke-width="1"/>
      <path id="Path_43095" data-name="Path 43095" d="M61.609,250.573l.066.8h-.346l-.074-.8a2.631,2.631,0,0,1-1.717-.494l.162-.413a2.4,2.4,0,0,0,1.518.457l-.155-1.835c-.789-.118-1.592-.287-1.665-1.209-.059-.671.368-1.3,1.43-1.474l-.066-.8h.346l.066.789a2.771,2.771,0,0,1,1.474.317l-.14.42a2.623,2.623,0,0,0-1.275-.295l.155,1.85c.8.118,1.658.273,1.739,1.209C63.171,249.784,62.707,250.411,61.609,250.573Zm-.59-2.734-.155-1.746c-.737.125-1,.523-.965.965s.531.685,1.12.781ZM62.6,249.18c-.052-.553-.575-.737-1.186-.8l.147,1.746c.766-.125,1.076-.508,1.039-.951Z" transform="translate(-31.811 -93.078)" fill="#263238"/>
      <circle id="Ellipse_526" data-name="Ellipse 526" cx="6.411" cy="6.411" r="6.411" transform="translate(304.838 41.562)" fill="none" stroke="#263238" stroke-miterlimit="10" stroke-width="1"/>
      <path id="Path_43096" data-name="Path 43096" d="M443.676,105.888v1.15h-.531V105.9a3.817,3.817,0,0,1-2.4-.906l.287-.575a3.456,3.456,0,0,0,2.108.855v-2.631c-1.105-.273-2.211-.612-2.211-1.938,0-.958.693-1.791,2.211-1.909V97.62h.5v1.142a3.884,3.884,0,0,1,2.034.626l-.251.59a3.684,3.684,0,0,0-1.783-.582v2.653c1.127.273,2.321.59,2.321,1.938C446,104.952,445.267,105.8,443.676,105.888Zm-.5-3.972v-2.5c-1.032.088-1.474.619-1.474,1.253-.029.759.648,1.039,1.444,1.245Zm2.093,2.108c0-.789-.737-1.061-1.592-1.275v2.52C444.774,105.173,445.267,104.665,445.267,104.024Z" transform="translate(-132.139 -54.355)" fill="#263238"/>
      <circle id="Ellipse_527" data-name="Ellipse 527" cx="6.411" cy="6.411" r="6.411" transform="translate(259.841 122.735) rotate(-13.26)" fill="none" stroke="#263238" stroke-miterlimit="10" stroke-width="1"/>
      <path id="Path_43097" data-name="Path 43097" d="M382.13,213.63l-.6.98-.427-.265.6-.973a3.751,3.751,0,0,1-1.562-2.027l.545-.339a3.434,3.434,0,0,0,1.349,1.82l1.385-2.248c-.8-.8-1.577-1.68-.884-2.808.5-.818,1.525-1.164,2.9-.464l.6-.987.427.265-.6.973a3.994,3.994,0,0,1,1.408,1.592l-.523.376a3.759,3.759,0,0,0-1.216-1.43l-1.393,2.262c.825.825,1.673,1.717.965,2.867C384.6,214.05,383.537,214.382,382.13,213.63Zm1.658-3.685,1.3-2.13c-.921-.464-1.592-.258-1.923.28-.4.685.022,1.282.619,1.887Zm.678,2.889c.413-.671-.066-1.282-.693-1.916l-1.312,2.137c.98.545,1.665.4,2-.184Z" transform="translate(-116.194 -82.952)" fill="#263238"/>
      <path id="Path_43098" data-name="Path 43098" d="M255.809,42.661a6.4,6.4,0,1,1-3.591-3.347A6.411,6.411,0,0,1,255.809,42.661Z" transform="translate(-80.263 -38.91)" fill="none" stroke="#263238" stroke-miterlimit="10" stroke-width="1"/>
      <path id="Path_43099" data-name="Path 43099" d="M252.9,49.147l.479,1.046-.457.214-.486-1.039a3.766,3.766,0,0,1-2.557.162v-.641a3.4,3.4,0,0,0,2.262-.1l-1.091-2.4c-1.12.214-2.277.368-2.83-.833-.4-.877-.118-1.916,1.231-2.66l-.479-1.054.45-.206.479,1.039a3.884,3.884,0,0,1,2.108-.28v.641a3.721,3.721,0,0,0-1.864.214l1.105,2.417c1.142-.228,2.358-.427,2.948.789C254.647,47.334,254.308,48.4,252.9,49.147Zm-2.108-3.4-1.039-2.277c-.906.508-1.105,1.186-.84,1.754C249.23,45.919,249.96,45.9,250.792,45.749Zm2.778,1.039c-.332-.737-1.105-.656-1.975-.494l1.039,2.277C253.6,48.041,253.836,47.378,253.571,46.788Z" transform="translate(-81.444 -39.625)" fill="#263238"/>
      <path id="Path_43100" data-name="Path 43100" d="M224.313,394.319a9.632,9.632,0,1,1-12.763-4.76,9.632,9.632,0,0,1,12.763,4.76Z" transform="translate(-70.359 -130.929)" fill="none" stroke="#263238" stroke-miterlimit="10" stroke-width="1"/>
      <path id="Path_43101" data-name="Path 43101" d="M219.951,404.08l.737,1.577-.685.31-.737-1.562a5.645,5.645,0,0,1-3.839.251l.044-.958a5.107,5.107,0,0,0,3.4-.169l-1.643-3.6c-1.673.317-3.419.553-4.245-1.253-.6-1.312-.177-2.881,1.842-4l-.737-1.57.678-.317.737,1.562a5.9,5.9,0,0,1,3.169-.42v.958a5.556,5.556,0,0,0-2.793.324l1.651,3.626c1.717-.339,3.545-.641,4.385,1.186C222.545,401.36,222.073,402.967,219.951,404.08Zm-3.154-5.107-1.57-3.419c-1.349.737-1.651,1.776-1.253,2.646C214.446,399.238,215.537,399.2,216.8,398.973Zm4.171,1.57c-.494-1.083-1.665-.995-2.948-.737l1.562,3.419C221.034,402.422,221.366,401.419,220.968,400.542Z" transform="translate(-72.15 -132.009)" fill="#263238"/>
      <path id="Path_43102" data-name="Path 43102" d="M37.952,187.208a9.632,9.632,0,1,1,.877-13.6A9.632,9.632,0,0,1,37.952,187.208Z" transform="translate(-21.964 -73.487)" fill="none" stroke="#263238" stroke-miterlimit="10" stroke-width="1"/>
      <path id="Path_43103" data-name="Path 43103" d="M29.337,185.454l-1.3,1.142-.5-.567,1.29-1.128a5.711,5.711,0,0,1-1.349-3.611l.936-.236a5.158,5.158,0,0,0,1.113,3.2l2.948-2.609c-.788-1.511-1.518-3.117,0-4.422,1.091-.951,2.712-.995,4.363.612L38.18,176.7l.494.56-1.29,1.135a5.9,5.9,0,0,1,1.282,2.911l-.914.3a5.652,5.652,0,0,0-1.113-2.587l-3,2.631c.818,1.54,1.636,3.206.125,4.539C32.668,187.149,31,187.2,29.337,185.454Zm3.979-4.5,2.822-2.483c-1.12-1.076-2.211-1.069-2.889-.442-.884.752-.531,1.8.044,2.926Zm-.3,4.422c.9-.781.479-1.879-.14-3.058l-2.822,2.483c1.157,1.186,2.233,1.231,2.97.6Z" transform="translate(-23.415 -75.122)" fill="#263238"/>
      <circle id="Ellipse_528" data-name="Ellipse 528" cx="4.65" cy="4.65" r="4.65" transform="matrix(0.04, -1, 1, 0.04, 50.594, 200.151)" fill="none" stroke="#263238" stroke-miterlimit="10" stroke-width="1"/>
      <path id="Path_43104" data-name="Path 43104" d="M97.489,304.036l.531.641-.273.228-.531-.634a2.741,2.741,0,0,1-1.761.6l-.1-.457a2.483,2.483,0,0,0,1.562-.5l-1.223-1.474c-.737.361-1.518.693-2.137-.044-.442-.531-.442-1.319.354-2.1l-.538-.641.28-.228.531.634a2.852,2.852,0,0,1,1.422-.6l.133.442a2.792,2.792,0,0,0-1.26.508l1.231,1.474c.737-.376,1.57-.737,2.211,0C98.366,302.437,98.351,303.247,97.489,304.036Zm-2.108-1.975-1.164-1.393c-.531.531-.538,1.039-.251,1.393S94.829,302.319,95.382,302.061Zm2.144.2c-.368-.435-.9-.251-1.474.037l1.164,1.393c.567-.56.6-1.076.31-1.437Z" transform="translate(-40.72 -107.448)" fill="#263238"/>
      <path id="Path_43105" data-name="Path 43105" d="M294.654,428.573a4.65,4.65,0,1,1-6.551-.6,4.65,4.65,0,0,1,6.551.6Z" transform="translate(-91.54 -140.983)" fill="none" stroke="#263238" stroke-miterlimit="10" stroke-width="1"/>
      <path id="Path_43106" data-name="Path 43106" d="M293.68,434.076l.538.641-.28.228-.531-.634a2.719,2.719,0,0,1-1.754.6l-.1-.457a2.439,2.439,0,0,0,1.562-.5l-1.223-1.474c-.737.361-1.525.693-2.137-.044-.45-.531-.45-1.319.346-2.1l-.531-.641.28-.228.531.634a2.793,2.793,0,0,1,1.422-.6l.133.442a2.822,2.822,0,0,0-1.268.508l1.238,1.474c.737-.376,1.57-.737,2.211,0C294.542,432.477,294.527,433.287,293.68,434.076Zm-2.115-2-1.164-1.393c-.538.531-.545,1.039-.251,1.393S291,432.359,291.565,432.071Zm2.137.206c-.368-.442-.9-.258-1.474,0l1.164,1.393c.575-.5.612-1.017.31-1.371Z" transform="translate(-92.335 -141.659)" fill="#263238"/>
      <circle id="Ellipse_529" data-name="Ellipse 529" cx="4.65" cy="4.65" r="4.65" transform="translate(66.16 26.459) rotate(-84.76)" fill="none" stroke="#263238" stroke-miterlimit="10" stroke-width="1"/>
      <path id="Path_43107" data-name="Path 43107" d="M119.558,69.976l.531.641-.28.228-.531-.634a2.7,2.7,0,0,1-1.754.6l-.1-.457a2.483,2.483,0,0,0,1.562-.5l-1.223-1.474c-.737.361-1.525.693-2.137-.044-.442-.531-.45-1.319.354-2.1l-.538-.641.28-.228.531.634a2.822,2.822,0,0,1,1.422-.6l.133.442a2.793,2.793,0,0,0-1.26.508l1.231,1.474c.737-.376,1.57-.737,2.211,0C120.42,68.377,120.4,69.187,119.558,69.976Zm-2.122-1.982-1.164-1.422c-.531.531-.545,1.039-.251,1.393S116.876,68.259,117.436,67.993Zm2.144.2c-.368-.435-.906-.251-1.474,0l1.164,1.393c.567-.516.6-1.032.31-1.393Z" transform="translate(-46.525 -45.871)" fill="#263238"/>
    </g>
    <g id="freepik--Device--inject-35" transform="translate(40.738 61.249)">
      <path id="Path_43108" data-name="Path 43108" d="M214.7,314.069s-5.682,28.836-40.531,35.372c0,0-9.1,7.259-12.13,11.555s-19.16,11.6-35.593,34.385-40.9-49.573-40.9-49.573l54.075-70.228Z" transform="translate(-57.466 -126.089)" fill="rgba(0,0,0,0.7)" opacity="0.2"/>
      <path id="Path_43109" data-name="Path 43109" d="M292.477,141.3s18.791-9.189,22.926-7.6,8.106,11.091-7.7,20.192-11.091,26.057-11.091,26.057h11.275s6.765,2.756,9.4,6.3,4.51,15.63,6.013,19.727.737,8.2-3.382,9.536c0,0-2.631,11.466-1.879,16.551s.376,8.357-4.51,8.976a8.526,8.526,0,0,1-9.4-8.976l-3.758,13.618L303,250.909a34.017,34.017,0,0,1,10.147,6.146c5.262,4.51,10.523,5.741,9.02,10.766s-4.51,10.442-20.295,4.164-28.939-30.951-28.939-30.951l-9.484-86.028Z" transform="translate(-104.268 -88.713)" fill="#fff"/>
      <path id="Path_43110" data-name="Path 43110" d="M312.256,191c-8.519,11.614.906,24.989.906,24.989s-5.9,3.287-6.065,11.673a58.9,58.9,0,0,0,1.857,12.867,8.445,8.445,0,0,1-4.819-8.187l-3.766,13.618L303,251.183a32.255,32.255,0,0,1,7.752,4.267c-2.336,5.365-3.051,12-2.844,18.836a50.275,50.275,0,0,1-6.035-2.019c-15.785-6.286-28.939-30.951-28.939-30.951L263.45,155.28l29.027-13.7s10.265-5.018,17.3-7a56.678,56.678,0,0,0,1.665,17.163,39.648,39.648,0,0,1-3.736,2.424c-15.785,9.1-11.091,26.057-11.091,26.057h11.282s6.426,2.623,9.182,6.035A18.423,18.423,0,0,0,312.256,191Z" transform="translate(-104.268 -88.994)" fill="#fefffd" opacity="0.4"/>
      <path id="Path_43111" data-name="Path 43111" d="M206.29,269.938S185.848,310.019,149,319.112c0,0-1.408,7.929-7.642,11.334-3.331,1.813-16.772,21.953-28.57,40.339L47.44,330.7c4.024-3.979,8.607-8.563,13.265-13.346,13.633-13.9,28.18-29.477,32.631-37.185,3.979-6.853,9.013-18.747,13.4-29.926,5.615-14.3,10.184-27.428,10.184-27.428L138.7,198.6l34.245-38.077,1.474,4.871Z" transform="translate(-47.44 -95.819)" fill="#fff"/>
      <path id="Path_43112" data-name="Path 43112" d="M197.614,160.52,230.93,269.938s-20.442,40.081-57.288,49.175c0,0-1.408,7.929-7.642,11.334-2.992,1.629-14.127,18.025-24.9,34.635,3.994-13.707,15.556-35.556,15.556-35.556-7.421-8.791-5.254-18.055-2.284-15.416s10.435,10.052,10.906,10.516c-3.279-3.861-4.038-9.912-4.038-9.912s9.2,6.116,9.941-3.685-5.512-33.751-5.512-33.751L149.243,214.3Z" transform="translate(-72.08 -95.819)" fill="#fefffd" opacity="0.4"/>
      <path id="Path_43113" data-name="Path 43113" d="M263.45,155.006,292.477,141.3s18.791-9.189,22.926-7.605,8.106,11.091-7.7,20.192-11.091,26.057-11.091,26.057h11.275s6.765,2.756,9.4,6.3,4.51,15.63,6.013,19.727.737,8.2-3.382,9.536c0,0-2.631,11.466-1.879,16.551s.376,8.357-4.51,8.976a8.526,8.526,0,0,1-9.4-8.976l-3.758,13.618L303,250.909a34.016,34.016,0,0,1,10.147,6.146c5.262,4.51,10.523,5.741,9.02,10.766s-4.51,10.442-20.295,4.164-28.939-30.951-28.939-30.951" transform="translate(-104.268 -88.713)" fill="none" stroke="#263238" stroke-linecap="round" stroke-linejoin="round" stroke-width="1"/>
      <path id="Path_43114" data-name="Path 43114" d="M334.6,233.644c-5.637,1.525-12.211.4-14.657-9.58s2.447-20.634,5.637-21.614" transform="translate(-118.957 -106.85)" fill="none" stroke="#263238" stroke-linecap="round" stroke-linejoin="round" stroke-width="1"/>
      <path id="Path_43115" data-name="Path 43115" d="M318.647,261.529s-.376-12.83,4.326-16" transform="translate(-118.788 -118.183)" fill="none" stroke="#263238" stroke-linecap="round" stroke-linejoin="round" stroke-width="1"/>
      <path id="Path_43116" data-name="Path 43116" d="M114.957,334.915s-13.773-1.717-16.846-7.878c-2.542-5.1-16.323,14-32.631,22.343,13.633-13.9,28.18-29.477,32.631-37.185,3.979-6.853,9.013-18.747,13.4-29.926h0c-.221,9.27-5.158,23.464-3.751,30.855a5.932,5.932,0,0,0-4.237,7.178C104.574,326.176,114.957,334.915,114.957,334.915Z" transform="translate(-52.186 -127.849)" fill="#fefffd" opacity="0.4"/>
      <path id="Path_43117" data-name="Path 43117" d="M229.618,309s-20.442,40.081-57.3,49.175c0,0-1.4,7.929-7.634,11.334-3.331,1.813-16.765,21.953-28.578,40.339" transform="translate(-70.767 -134.881)" fill="none" stroke="#263238" stroke-linecap="round" stroke-linejoin="round" stroke-width="1"/>
      <path id="Path_43118" data-name="Path 43118" d="M47.44,330.7c15.741-15.556,39.934-40.221,45.925-50.531,9.064-15.6,23.581-57.362,23.581-57.362l56.006-62.284" transform="translate(-47.44 -95.819)" fill="none" stroke="#263238" stroke-linecap="round" stroke-linejoin="round" stroke-width="1"/>
      <path id="Path_43119" data-name="Path 43119" d="M174.39,225.07s8.607,7.708,11.054,14.738" transform="translate(-80.838 -112.8)" fill="none" stroke="#263238" stroke-linecap="round" stroke-linejoin="round" stroke-width="1"/>
      <rect id="Rectangle_5141" data-name="Rectangle 5141" width="102.528" height="207.067" rx="6.73" transform="translate(97.583)" fill="#263238"/>
      <path id="Path_43120" data-name="Path 43120" d="M252.762,79.918l-1.96,3.589a2.447,2.447,0,0,1-2.144,1.3H216.233a2.469,2.469,0,0,1-2.152-1.282l-1.953-3.589a2.447,2.447,0,0,0-2.152-1.282h-22.66a2.454,2.454,0,0,0-2.447,2.469v193.81a2.454,2.454,0,0,0,2.447,2.454H277.56a2.454,2.454,0,0,0,2.469-2.454V81.119a2.454,2.454,0,0,0-2.454-2.454H254.921a2.447,2.447,0,0,0-2.159,1.253Z" transform="translate(-83.595 -74.28)" fill="#fefffd" stroke="#263238" stroke-linecap="round" stroke-linejoin="round" stroke-width="1"/>
      <circle id="Ellipse_530" data-name="Ellipse 530" cx="1.319" cy="1.319" r="1.319" transform="translate(140.494 4.738)" fill="none" stroke="#fff" stroke-miterlimit="10" stroke-width="1"/>
      <path id="Path_43121" data-name="Path 43121" d="M260.166,80.645a.818.818,0,1,1-.237-.583A.818.818,0,0,1,260.166,80.645Z" transform="translate(-102.974 -74.588)" fill="none" stroke="#fff" stroke-miterlimit="10" stroke-width="1"/>
      <path id="Path_43122" data-name="Path 43122" d="M252.726,80.24h-8.018a.508.508,0,0,0-.508.516h0a.509.509,0,0,0,.508.508h8.018a.508.508,0,0,0,.508-.508h0a.508.508,0,0,0-.508-.516Z" transform="translate(-99.204 -74.698)" fill="#fff"/>
      <rect id="Rectangle_5142" data-name="Rectangle 5142" width="8.644" height="3.67" transform="translate(109.41 9.285)" fill="none" stroke="#263238" stroke-linecap="round" stroke-linejoin="round" stroke-width="1"/>
      <rect id="Rectangle_5143" data-name="Rectangle 5143" width="1.341" height="2.439" transform="translate(118.047 9.904)" fill="none" stroke="#263238" stroke-linecap="round" stroke-linejoin="round" stroke-width="1"/>
      <rect id="Rectangle_5144" data-name="Rectangle 5144" width="1.533" height="1.334" transform="translate(177.774 11.629)" fill="none" stroke="#263238" stroke-linecap="round" stroke-linejoin="round" stroke-width="1"/>
      <rect id="Rectangle_5145" data-name="Rectangle 5145" width="1.533" height="2.675" transform="translate(180.766 10.287)" fill="none" stroke="#263238" stroke-linecap="round" stroke-linejoin="round" stroke-width="1"/>
      <rect id="Rectangle_5146" data-name="Rectangle 5146" width="1.533" height="4.009" transform="translate(183.758 8.946)" fill="none" stroke="#263238" stroke-linecap="round" stroke-linejoin="round" stroke-width="1"/>
      <rect id="Rectangle_5147" data-name="Rectangle 5147" width="1.533" height="5.35" transform="translate(186.743 7.605)" fill="none" stroke="#263238" stroke-linecap="round" stroke-linejoin="round" stroke-width="1"/>
      <rect id="Rectangle_5148" data-name="Rectangle 5148" width="93.913" height="89.572" transform="translate(101.886 47.192)" fill="#fff" opacity="0.5"/>
      <path id="Path_43123" data-name="Path 43123" d="M218.906,116.29v1.555c0,1.923-.921,2.948-2.808,2.948h-.892v4.5H213.32V113.32H216.1C217.985,113.32,218.906,114.366,218.906,116.29Zm-3.685-1.253v4.06h.892c.6,0,.921-.273.921-1.127v-1.805c0-.855-.324-1.127-.921-1.127Z" transform="translate(-91.08 -83.401)" fill="#263238"/>
      <path id="Path_43124" data-name="Path 43124" d="M227.713,125.317h-1.9l-.332-2.174h-2.307l-.332,2.174H221.11l1.923-12h2.756Zm-4.3-3.8h1.82l-.892-6.065H224.3Z" transform="translate(-93.129 -83.401)" fill="#263238"/>
      <path id="Path_43125" data-name="Path 43125" d="M231.66,121.345l-2.38-8.025h2l1.422,5.468h.037l1.422-5.468h1.8l-2.38,8.025v3.972H231.7Z" transform="translate(-95.279 -83.401)" fill="#263238"/>
      <path id="Path_43126" data-name="Path 43126" d="M243.294,121.839h.037l1.268-8.519h2.623v12h-1.783v-8.6h0l-1.267,8.6h-1.783l-1.371-8.482h0v8.482H239.3v-12h2.623Z" transform="translate(-97.915 -83.401)" fill="#263238"/>
      <path id="Path_43127" data-name="Path 43127" d="M253.8,118.375h2.6v1.717h-2.587v3.515h3.257v1.71H251.91v-12h5.158v1.717h-3.257Z" transform="translate(-101.232 -83.401)" fill="#263238"/>
      <path id="Path_43128" data-name="Path 43128" d="M262.182,116.629h-.037v8.688H260.45v-12h2.366l1.9,7.185h0V113.32h1.68v12h-1.931Z" transform="translate(-103.479 -83.401)" fill="#263238"/>
      <path id="Path_43129" data-name="Path 43129" d="M269.66,113.32h5.829v1.717h-1.975v10.28h-1.887v-10.28H269.66Z" transform="translate(-105.902 -83.401)" fill="#263238"/>
      <path id="Path_43130" data-name="Path 43130" d="M281.12,113.14c1.828,0,2.771,1.1,2.771,3.014v.376h-1.783v-.494c0-.862-.339-1.186-.943-1.186s-.936.324-.936,1.186.376,1.525,1.606,2.6c1.577,1.393,2.078,2.38,2.078,3.751,0,1.923-.965,3.021-2.815,3.021s-2.808-1.1-2.808-3.021v-.737h1.783v.862c0,.855.376,1.164.973,1.164s.98-.31.98-1.164-.376-1.525-1.614-2.609c-1.577-1.385-2.071-2.38-2.071-3.751C278.342,114.238,279.285,113.14,281.12,113.14Z" transform="translate(-108.172 -83.354)" fill="#263238"/>
      <rect id="Rectangle_5149" data-name="Rectangle 5149" width="78.865" height="11.783" transform="translate(109.41 58.047)" fill="#fff" stroke="#263238" stroke-linecap="round" stroke-linejoin="round" stroke-width="1"/>
      <rect id="Rectangle_5150" data-name="Rectangle 5150" width="78.865" height="11.783" transform="translate(109.41 80.147)" fill="#fff" stroke="#263238" stroke-linecap="round" stroke-linejoin="round" stroke-width="1"/>
      <rect id="Rectangle_5151" data-name="Rectangle 5151" width="78.865" height="11.783" transform="translate(109.41 100.243)" fill="#fff" stroke="#263238" stroke-linecap="round" stroke-linejoin="round" stroke-width="1"/>
      <rect id="Rectangle_5152" data-name="Rectangle 5152" width="37.34" height="13.795" transform="translate(109.41 116.323)" fill="#fff" stroke="#263238" stroke-linecap="round" stroke-linejoin="round" stroke-width="1"/>
      <rect id="Rectangle_5153" data-name="Rectangle 5153" width="37.34" height="13.795" transform="translate(150.943 116.323)" fill="#fff" stroke="#263238" stroke-linecap="round" stroke-linejoin="round" stroke-width="1"/>
      <path id="Path_43131" data-name="Path 43131" d="M201.7,147.569v.317H199.23V144.4h2.395v.317h-2.019v1.245h1.8v.31h-1.8v1.3Z" transform="translate(-87.373 -91.578)" fill="#263238"/>
      <path id="Path_43132" data-name="Path 43132" d="M207.978,146.674v1.518H207.6v-1.474c0-.553-.28-.84-.737-.84a.847.847,0,0,0-.877.951V148.2h-.354v-1.474c0-.553-.28-.84-.737-.84a.847.847,0,0,0-.877.951v1.371h-.354v-2.616H204v.479a1.061,1.061,0,0,1,.965-.5.929.929,0,0,1,.929.553,1.15,1.15,0,0,1,1.039-.553.987.987,0,0,1,1.046,1.105Z" transform="translate(-88.539 -91.884)" fill="#263238"/>
      <path id="Path_43133" data-name="Path 43133" d="M212.726,146.573v1.621h-.339v-.405a1,1,0,0,1-.906.435c-.59,0-.951-.31-.951-.737s.258-.737,1.01-.737h.811v-.162a.643.643,0,0,0-.737-.693,1.319,1.319,0,0,0-.87.309l-.162-.265a1.7,1.7,0,0,1,1.069-.354.929.929,0,0,1,1.076.987Zm-.354.84v-.435h-.825c-.508,0-.671.2-.671.472s.243.494.663.494a.847.847,0,0,0,.811-.531Z" transform="translate(-90.346 -91.886)" fill="#263238"/>
      <path id="Path_43134" data-name="Path 43134" d="M214.7,144.371a.258.258,0,0,1,.258-.251.251.251,0,1,1,0,.5.258.258,0,0,1-.258-.251Zm.081.825h.354v2.616h-.354Z" transform="translate(-91.443 -91.504)" fill="#263238"/>
      <path id="Path_43135" data-name="Path 43135" d="M216.63,144.12h.354V147.8h-.354Z" transform="translate(-91.951 -91.504)" fill="#263238"/>
      <path id="Path_43136" data-name="Path 43136" d="M205.009,159.869v.317H202.54V156.7h2.395v.317h-2.056v1.238h1.805v.317h-1.805v1.3Z" transform="translate(-88.244 -94.814)" fill="#263238"/>
      <path id="Path_43137" data-name="Path 43137" d="M211.3,158.954v1.518h-.354V159c0-.553-.28-.84-.737-.84a.84.84,0,0,0-.877.943v1.378h-.354v-1.474c0-.553-.28-.84-.737-.84a.84.84,0,0,0-.877.943v1.378H207v-2.623h.339v.479a1.069,1.069,0,0,1,.965-.494.943.943,0,0,1,.929.553,1.142,1.142,0,0,1,1.039-.553.987.987,0,0,1,1.024,1.105Z" transform="translate(-89.417 -95.115)" fill="#263238"/>
      <path id="Path_43138" data-name="Path 43138" d="M216.026,158.855v1.621h-.339v-.405a.98.98,0,0,1-.9.427c-.59,0-.958-.31-.958-.737s.265-.737,1.017-.737h.833v-.155a.643.643,0,0,0-.737-.693,1.349,1.349,0,0,0-.877.31l-.155-.265a1.636,1.636,0,0,1,1.069-.354.929.929,0,0,1,1.046.987Zm-.346.833v-.427h-.825c-.508,0-.671.2-.671.472s.243.494.663.494a.84.84,0,0,0,.833-.538Z" transform="translate(-91.214 -95.119)" fill="#263238"/>
      <path id="Path_43139" data-name="Path 43139" d="M218,156.641a.258.258,0,0,1,.258-.251.251.251,0,0,1,.258.251.258.258,0,1,1-.516,0Zm.081.825h.354v2.623h-.354Z" transform="translate(-92.311 -94.732)" fill="#263238"/>
      <path id="Path_43140" data-name="Path 43140" d="M219.94,156.39h.346v3.685h-.346Z" transform="translate(-92.822 -94.732)" fill="#263238"/>
      <path id="Path_43141" data-name="Path 43141" d="M224.14,158.952v1.518h-.354V159a.737.737,0,0,0-.781-.84.855.855,0,0,0-.921.943v1.378h-.354v-2.623h.339v.486a1.105,1.105,0,0,1,.995-.5,1,1,0,0,1,1.076,1.113Z" transform="translate(-93.292 -95.112)" fill="#263238"/>
      <path id="Path_43142" data-name="Path 43142" d="M228.216,158.854v1.621h-.339v-.405a.98.98,0,0,1-.9.427c-.6,0-.958-.31-.958-.737s.258-.737,1.01-.737h.833v-.155c0-.45-.251-.693-.737-.693a1.319,1.319,0,0,0-.87.31l-.162-.265a1.651,1.651,0,0,1,1.069-.354.929.929,0,0,1,1.054.987Zm-.354.833v-.427h-.818c-.508,0-.678.2-.678.472s.243.494.663.494a.84.84,0,0,0,.84-.538Z" transform="translate(-94.421 -95.118)" fill="#263238"/>
      <path id="Path_43143" data-name="Path 43143" d="M234.641,158.954v1.518h-.354V159c0-.553-.28-.84-.737-.84a.84.84,0,0,0-.877.943v1.378H232.3v-1.474c0-.553-.28-.84-.737-.84a.84.84,0,0,0-.877.943v1.378h-.354v-2.623h.339v.479a1.068,1.068,0,0,1,.965-.494.928.928,0,0,1,.929.553,1.15,1.15,0,0,1,1.039-.553.987.987,0,0,1,1.039,1.105Z" transform="translate(-95.555 -95.115)" fill="#263238"/>
      <path id="Path_43144" data-name="Path 43144" d="M239.676,159.262h-2.211a.973.973,0,0,0,1.039.9,1.039,1.039,0,0,0,.8-.346l.2.228a1.385,1.385,0,0,1-2.388-.906,1.26,1.26,0,0,1,1.282-1.326,1.245,1.245,0,0,1,1.268,1.326S239.676,159.225,239.676,159.262ZM237.466,159h1.857a.929.929,0,1,0-1.857,0Z" transform="translate(-97.341 -95.106)" fill="#263238"/>
      <path id="Path_43145" data-name="Path 43145" d="M245.922,158.839c0,.847-.317,1.341-.833,1.341a.531.531,0,0,1-.56-.538,1.113,1.113,0,0,1-.995.538,1.282,1.282,0,1,1,0-2.564,1.105,1.105,0,0,1,.987.523v-.494h.324v1.887c0,.28.14.383.31.383.3,0,.5-.383.5-1.054a1.9,1.9,0,0,0-2.041-1.953,2,2,0,0,0,0,4.009,2.211,2.211,0,0,0,.958-.221l.081.243a2.4,2.4,0,0,1-1.039.228,2.255,2.255,0,0,1,0-4.51,2.152,2.152,0,0,1,2.307,2.181Zm-1.4.052a.951.951,0,1,0-.448.893A.951.951,0,0,0,244.521,158.891Z" transform="translate(-98.457 -94.801)" fill="#263238"/>
      <path id="Path_43146" data-name="Path 43146" d="M250.734,159.267h-2.211a.973.973,0,0,0,1.032.914,1.039,1.039,0,0,0,.8-.346l.2.228a1.385,1.385,0,0,1-2.388-.906,1.26,1.26,0,0,1,1.282-1.326,1.245,1.245,0,0,1,1.268,1.326A.8.8,0,0,1,250.734,159.267ZM248.523,159h1.857a.929.929,0,1,0-1.857,0Z" transform="translate(-100.248 -95.111)" fill="#263238"/>
      <path id="Path_43147" data-name="Path 43147" d="M256.971,158.954v1.518H256.6V159c0-.553-.28-.84-.737-.84a.84.84,0,0,0-.877.943v1.378h-.354v-1.474c0-.553-.28-.84-.737-.84a.84.84,0,0,0-.877.943v1.378h-.354v-2.623H253v.479a1.061,1.061,0,0,1,.958-.494.951.951,0,0,1,.936.553,1.127,1.127,0,0,1,1.032-.553.987.987,0,0,1,1.046,1.105Z" transform="translate(-101.43 -95.115)" fill="#263238"/>
      <path id="Path_43148" data-name="Path 43148" d="M261.7,158.854v1.621h-.361v-.405a.987.987,0,0,1-.9.427c-.6,0-.958-.309-.958-.737s.258-.737,1.01-.737h.847v-.155c0-.45-.251-.693-.737-.693a1.319,1.319,0,0,0-.87.31l-.162-.265a1.651,1.651,0,0,1,1.069-.354.928.928,0,0,1,1.061.987Zm-.354.833v-.427h-.818c-.508,0-.678.2-.678.472s.243.494.663.494a.84.84,0,0,0,.825-.538Z" transform="translate(-103.224 -95.118)" fill="#263238"/>
      <path id="Path_43149" data-name="Path 43149" d="M263.69,156.638a.258.258,0,1,1,.258.258A.258.258,0,0,1,263.69,156.638Zm.074.825h.354v2.623h-.354Z" transform="translate(-104.331 -94.729)" fill="#263238"/>
      <path id="Path_43150" data-name="Path 43150" d="M265.61,156.39h.354v3.685h-.354Z" transform="translate(-104.836 -94.732)" fill="#263238"/>
      <path id="Path_43151" data-name="Path 43151" d="M267.12,160.975a.258.258,0,0,1,.265-.265.265.265,0,0,1,.265.265.273.273,0,0,1-.265.273.265.265,0,0,1-.265-.273Z" transform="translate(-105.234 -95.868)" fill="#263238"/>
      <path id="Path_43152" data-name="Path 43152" d="M268.4,159.156a1.29,1.29,0,0,1,1.349-1.326,1.142,1.142,0,0,1,1.032.516l-.265.177a.9.9,0,0,0-.737-.383,1.024,1.024,0,0,0,0,2.041.884.884,0,0,0,.737-.383l.265.177a1.157,1.157,0,0,1-1.032.516,1.29,1.29,0,0,1-1.349-1.334Z" transform="translate(-105.57 -95.11)" fill="#263238"/>
      <path id="Path_43153" data-name="Path 43153" d="M272.15,159.154a1.334,1.334,0,1,1,1.334,1.334,1.29,1.29,0,0,1-1.334-1.334Zm2.307,0a.98.98,0,1,0-.943,1.01.958.958,0,0,0,.943-1.01Z" transform="translate(-106.557 -95.108)" fill="#263238"/>
      <path id="Path_43154" data-name="Path 43154" d="M281.079,158.954v1.518h-.354V159c0-.553-.28-.84-.737-.84a.84.84,0,0,0-.877.943v1.378h-.354v-1.474c0-.553-.28-.84-.737-.84a.84.84,0,0,0-.877.943v1.378h-.354v-2.623h.339v.479a1.061,1.061,0,0,1,.958-.494.951.951,0,0,1,.936.553,1.135,1.135,0,0,1,1.032-.553.988.988,0,0,1,1.024,1.105Z" transform="translate(-107.778 -95.115)" fill="#263238"/>
      <path id="Path_43155" data-name="Path 43155" d="M203,189.229l.619.354-.111.206-.626-.361v.737h-.228v-.737l-.626.361-.118-.206.626-.354-.626-.346.118-.214.626.368V188.3h.228v.737l.626-.368.111.214Z" transform="translate(-88.078 -103.127)" fill="#263238"/>
      <path id="Path_43156" data-name="Path 43156" d="M205.748,189.229l.619.354-.118.206-.619-.361v.737h-.236v-.737l-.619.361-.125-.206.626-.354-.626-.346.125-.214.619.368V188.3h.251v.737l.619-.368.118.214Z" transform="translate(-88.799 -103.127)" fill="#263238"/>
      <path id="Path_43157" data-name="Path 43157" d="M208.493,189.229l.619.354-.118.206-.619-.361v.737h-.228v-.737l-.619.361-.118-.206.619-.354-.619-.346.118-.214.619.368V188.3h.228v.737l.619-.368.118.214Z" transform="translate(-89.525 -103.127)" fill="#263238"/>
      <path id="Path_43158" data-name="Path 43158" d="M211.231,189.229l.619.354-.111.206-.626-.361v.737h-.228v-.737l-.626.361-.118-.206.626-.354-.626-.346.118-.214.626.368V188.3h.228v.737l.626-.368.111.214Z" transform="translate(-90.243 -103.127)" fill="#263238"/>
      <path id="Path_43159" data-name="Path 43159" d="M213.978,189.229l.619.354-.118.206-.619-.361v.737h-.236v-.737l-.619.361-.125-.206.626-.354-.626-.346.125-.214.619.368V188.3h.236v.737l.619-.368.118.214Z" transform="translate(-90.964 -103.127)" fill="#263238"/>
      <path id="Path_43160" data-name="Path 43160" d="M216.723,189.229l.619.354-.118.206-.619-.361v.737h-.228v-.737l-.619.361-.118-.206.619-.354-.619-.346.118-.214.619.368V188.3h.265v.737l.619-.368.118.214Z" transform="translate(-91.69 -103.127)" fill="#263238"/>
      <path id="Path_43161" data-name="Path 43161" d="M219.461,189.229l.619.354-.111.206-.626-.361v.737h-.228v-.737l-.626.361-.118-.206.626-.354-.626-.346.118-.214.626.368V188.3h.228v.737l.626-.368.111.214Z" transform="translate(-92.408 -103.127)" fill="#263238"/>
      <path id="Path_43162" data-name="Path 43162" d="M222.208,189.229l.619.354-.118.206-.626-.361v.737h-.228v-.737l-.619.361-.125-.206.626-.354-.626-.346.125-.214.619.368V188.3h.228v.737l.626-.368.118.214Z" transform="translate(-93.129 -103.127)" fill="#263238"/>
      <path id="Path_43163" data-name="Path 43163" d="M224.953,189.229l.619.354-.118.206-.619-.361v.737h-.228v-.737l-.619.361-.118-.206.619-.354-.619-.346.118-.214.619.368V188.3h.228v.737l.619-.368.118.214Z" transform="translate(-93.855 -103.127)" fill="#263238"/>
      <path id="Path_43164" data-name="Path 43164" d="M227.691,189.229l.619.354-.111.206-.626-.361v.737h-.228v-.737l-.626.361-.118-.206.619-.354-.619-.346.118-.214.626.368V188.3h.228v.737l.626-.368.111.214Z" transform="translate(-94.574 -103.127)" fill="#263238"/>
      <path id="Path_43165" data-name="Path 43165" d="M230.438,189.229l.612.354-.111.206-.626-.361v.737h-.228v-.737l-.619.361-.125-.206.626-.354-.626-.346.125-.214.619.368V188.3h.228v.737l.626-.368.111.214Z" transform="translate(-95.294 -103.127)" fill="#263238"/>
      <path id="Path_43166" data-name="Path 43166" d="M201.964,175.579c0,.737-.538,1.194-1.422,1.194h-.936v1.1h-.376V174.4h1.3C201.426,174.4,201.964,174.842,201.964,175.579Zm-.368,0c0-.56-.368-.877-1.069-.877h-.921v1.746h.929C201.227,176.463,201.6,176.146,201.6,175.579Z" transform="translate(-87.373 -99.47)" fill="#263238"/>
      <path id="Path_43167" data-name="Path 43167" d="M205.786,176.574V178.2h-.339v-.405a1,1,0,0,1-.906.427c-.59,0-.951-.3-.951-.737s.258-.737,1.01-.737h.833v-.155a.643.643,0,0,0-.737-.693,1.319,1.319,0,0,0-.87.31l-.162-.265a1.651,1.651,0,0,1,1.069-.354.929.929,0,0,1,1.054.987Zm-.354.833v-.427h-.8c-.508,0-.671.2-.671.472s.243.494.663.494a.84.84,0,0,0,.811-.538Z" transform="translate(-88.52 -99.78)" fill="#263238"/>
      <path id="Path_43168" data-name="Path 43168" d="M207.38,177.9l.155-.28a1.621,1.621,0,0,0,.936.295c.494,0,.7-.169.7-.435,0-.678-1.695-.14-1.695-1.179,0-.427.368-.737,1.032-.737a1.805,1.805,0,0,1,.928.243l-.155.28a1.371,1.371,0,0,0-.774-.221c-.472,0-.678.184-.678.435,0,.737,1.695.177,1.695,1.179,0,.457-.4.737-1.083.737a1.747,1.747,0,0,1-1.061-.317Z" transform="translate(-89.517 -99.775)" fill="#263238"/>
      <path id="Path_43169" data-name="Path 43169" d="M210.68,177.9l.162-.28a1.584,1.584,0,0,0,.929.295c.5,0,.737-.169.737-.435,0-.678-1.695-.14-1.695-1.179,0-.427.368-.737,1.039-.737a1.761,1.761,0,0,1,.921.243l-.155.28a1.363,1.363,0,0,0-.737-.221c-.479,0-.685.184-.685.435,0,.737,1.695.177,1.695,1.179,0,.457-.4.737-1.076.737a1.754,1.754,0,0,1-1.135-.317Z" transform="translate(-90.385 -99.775)" fill="#263238"/>
      <path id="Path_43170" data-name="Path 43170" d="M218.1,175.58,217.1,178.2h-.332l-.825-2.144-.825,2.144h-.339l-.98-2.616h.339l.818,2.211.84-2.211h.31l.833,2.211.833-2.211Z" transform="translate(-91.206 -99.781)" fill="#263238"/>
      <path id="Path_43171" data-name="Path 43171" d="M219.89,176.874a1.334,1.334,0,1,1,1.334,1.334,1.29,1.29,0,0,1-1.334-1.334Zm2.307,0a.973.973,0,1,0-.973.973A.973.973,0,0,0,222.2,176.874Z" transform="translate(-92.808 -99.77)" fill="#263238"/>
      <path id="Path_43172" data-name="Path 43172" d="M225.809,175.549v.332h-.088a.847.847,0,0,0-.877.965v1.334h-.354v-2.616h.376v.508A.98.98,0,0,1,225.809,175.549Z" transform="translate(-94.019 -99.772)" fill="#263238"/>
      <path id="Path_43173" data-name="Path 43173" d="M229.428,174.117V177.8h-.339v-.516a1.127,1.127,0,0,1-1.01.538,1.334,1.334,0,0,1,0-2.66,1.135,1.135,0,0,1,.995.516v-1.57Zm-.346,2.38a.973.973,0,1,0-.973,1.024.958.958,0,0,0,.973-1.024Z" transform="translate(-94.638 -99.394)" fill="#263238"/>
      <path id="Path_43174" data-name="Path 43174" d="M237.044,215v3.493h-.339v-3.169h-.825V215Z" transform="translate(-97.015 -110.151)" fill="#263238"/>
      <path id="Path_43175" data-name="Path 43175" d="M240.918,218.137v.324h-2.447V218.2l1.474-1.422c.391-.383.472-.619.472-.855,0-.405-.287-.656-.818-.656a1.172,1.172,0,0,0-.951.391l-.258-.221a1.577,1.577,0,0,1,1.238-.5c.737,0,1.157.361,1.157.943a1.474,1.474,0,0,1-.575,1.091l-1.186,1.164Z" transform="translate(-97.675 -110.135)" fill="#263238"/>
      <path id="Path_43176" data-name="Path 43176" d="M244.66,217.476c0,.582-.427,1.032-1.268,1.032a1.813,1.813,0,0,1-1.253-.45l.169-.287a1.54,1.54,0,0,0,1.083.405c.582,0,.9-.265.9-.7s-.295-.693-.943-.693H243.1v-.265l.965-1.209H242.28V215h2.211v.258l-.98,1.216C244.284,216.525,244.66,216.916,244.66,217.476Z" transform="translate(-98.662 -110.151)" fill="#263238"/>
      <path id="Path_43177" data-name="Path 43177" d="M249.181,217.552h-.7v.921h-.354v-.921H246.16v-.258l1.85-2.314h.4l-1.783,2.225h1.511v-.811h.346v.811h.7Z" transform="translate(-99.719 -110.146)" fill="#263238"/>
      <path id="Path_43178" data-name="Path 43178" d="M254.79,217.428c0,.6-.413,1.061-1.268,1.061a1.82,1.82,0,0,1-1.253-.45l.177-.287a1.474,1.474,0,0,0,1.069.405c.6,0,.906-.287.906-.737s-.28-.737-1.164-.737h-.737l.184-1.754h1.909v.324h-1.6l-.118,1.105h.45C254.392,216.4,254.79,216.817,254.79,217.428Z" transform="translate(-101.327 -110.133)" fill="#263238"/>
      <path id="Path_43179" data-name="Path 43179" d="M258.923,217.416a1.091,1.091,0,0,1-1.194,1.076c-.929,0-1.43-.649-1.43-1.747a1.612,1.612,0,0,1,1.592-1.805,1.636,1.636,0,0,1,.833.192l-.147.287a1.238,1.238,0,0,0-.678-.162c-.737,0-1.238.479-1.238,1.43v.28a1.128,1.128,0,0,1,1.069-.6,1.061,1.061,0,0,1,1.194,1.046Zm-.354,0c0-.464-.339-.737-.877-.737a.8.8,0,0,0-.9.737c0,.383.317.737.921.737a.737.737,0,0,0,.855-.722Z" transform="translate(-102.387 -110.135)" fill="#263238"/>
      <path id="Path_43180" data-name="Path 43180" d="M262.782,215v.258l-1.474,3.235h-.391l1.437-3.169h-1.791v.648h-.354V215Z" transform="translate(-103.416 -110.151)" fill="#263238"/>
      <path id="Path_43181" data-name="Path 43181" d="M266.887,217.5c0,.619-.523,1-1.356,1s-1.341-.383-1.341-1a.877.877,0,0,1,.671-.862.737.737,0,0,1-.545-.737c0-.567.479-.921,1.216-.921s1.231.354,1.231.921a.781.781,0,0,1-.56.737A.884.884,0,0,1,266.887,217.5Zm-.368,0c0-.427-.368-.7-.987-.7s-.98.273-.98.7.361.737.98.737.987-.295.987-.744Zm-.995-.987c.545,0,.87-.243.87-.626s-.346-.626-.87-.626-.862.236-.862.626S264.986,216.513,265.524,216.513Z" transform="translate(-104.463 -110.146)" fill="#263238"/>
      <path id="Path_43182" data-name="Path 43182" d="M272.779,216.685c0,1.186-.648,1.805-1.6,1.805a1.628,1.628,0,0,1-.825-.192l.147-.287a1.238,1.238,0,0,0,.678.162c.737,0,1.231-.486,1.231-1.43a1.923,1.923,0,0,0,0-.28,1.105,1.105,0,0,1-1.061.6,1.061,1.061,0,0,1-1.179-1.046,1.091,1.091,0,0,1,1.194-1.076C272.255,214.938,272.779,215.587,272.779,216.685Zm-.494-.693c0-.383-.317-.737-.921-.737a.737.737,0,0,0-.855.737c0,.464.339.737.877.737a.811.811,0,0,0,.87-.737Z" transform="translate(-106.036 -110.134)" fill="#263238"/>
      <path id="Path_43183" data-name="Path 43183" d="M275.286,215v3.493h-.361v-3.169H274.1V215Z" transform="translate(-107.07 -110.151)" fill="#263238"/>
      <path id="Path_43184" data-name="Path 43184" d="M276.83,216.716c0-1.113.59-1.776,1.393-1.776s1.393.663,1.393,1.776-.582,1.776-1.393,1.776S276.83,217.829,276.83,216.716Zm2.417,0c0-.929-.413-1.474-1.024-1.474s-1.024.516-1.024,1.474.42,1.474,1.024,1.474S279.247,217.645,279.247,216.716Z" transform="translate(-107.788 -110.135)" fill="#263238"/>
      <path id="Path_43185" data-name="Path 43185" d="M282.186,215v3.493h-.361v-3.169H281V215Z" transform="translate(-108.885 -110.151)" fill="#263238"/>
      <path id="Path_43186" data-name="Path 43186" d="M286.4,215v3.493h-.361v-3.169h-.825V215Z" transform="translate(-109.993 -110.151)" fill="#263238"/>
      <path id="Path_43187" data-name="Path 43187" d="M288.829,215v3.493h-.354v-3.169h-.825V215Z" transform="translate(-110.635 -110.151)" fill="#263238"/>
      <path id="Path_43188" data-name="Path 43188" d="M292.708,218.138v.324h-2.447V218.2l1.474-1.422c.391-.383.472-.619.472-.855,0-.405-.287-.656-.818-.656a1.172,1.172,0,0,0-.951.391l-.258-.221a1.592,1.592,0,0,1,1.238-.5c.737,0,1.157.361,1.157.943a1.474,1.474,0,0,1-.575,1.091l-1.216,1.164Z" transform="translate(-111.3 -110.135)" fill="#263238"/>
      <path id="Path_43189" data-name="Path 43189" d="M295.1,215v3.493h-.391v-3.169h-.818V215Z" transform="translate(-112.276 -110.151)" fill="#263238"/>
      <path id="Path_43190" data-name="Path 43190" d="M211.767,213.379v-.531a.929.929,0,0,0-.929-.928h-9.41a.929.929,0,0,0-.929.928v.531Z" transform="translate(-87.707 -109.341)" fill="#263238"/>
      <path id="Path_43191" data-name="Path 43191" d="M200.5,214.89V218.8a.929.929,0,0,0,.929.929h9.41a.929.929,0,0,0,.929-.929V214.89Z" transform="translate(-87.707 -110.122)" fill="#263238"/>
      <path id="Path_43192" data-name="Path 43192" d="M200.69,242.169c0-1.113.582-1.769,1.393-1.769s1.393.656,1.393,1.769-.59,1.776-1.393,1.776S200.69,243.281,200.69,242.169Zm2.417,0c0-.928-.42-1.474-1.024-1.474s-1.024.516-1.024,1.474.413,1.474,1.024,1.474,1.046-.538,1.046-1.474Z" transform="translate(-87.757 -116.833)" fill="#263238"/>
      <path id="Path_43193" data-name="Path 43193" d="M207.837,242.953c0,.619-.523,1-1.356,1s-1.341-.383-1.341-1a.862.862,0,0,1,.671-.855.789.789,0,0,1-.545-.737c0-.567.479-.921,1.216-.921s1.231.354,1.231.921a.8.8,0,0,1-.553.737.87.87,0,0,1,.678.855Zm-.368,0c0-.427-.368-.693-.987-.693s-.98.265-.98.693.368.737.98.737.987-.31.987-.744Zm-.958-.987c.545,0,.87-.243.87-.619s-.346-.634-.87-.634-.862.236-.862.626S205.943,241.965,206.511,241.965Z" transform="translate(-88.928 -116.844)" fill="#263238"/>
      <path id="Path_43194" data-name="Path 43194" d="M210.614,239.48h.324l-1.651,4.687H209Z" transform="translate(-89.943 -116.591)" fill="#263238"/>
      <path id="Path_43195" data-name="Path 43195" d="M214.1,243.59v.324h-2.447v-.258l1.474-1.415c.391-.391.464-.626.464-.862,0-.405-.28-.656-.811-.656a1.186,1.186,0,0,0-.958.391l-.251-.221a1.562,1.562,0,0,1,1.238-.494c.737,0,1.15.354,1.15.936a1.43,1.43,0,0,1-.567,1.091L212.2,243.59Z" transform="translate(-90.62 -116.832)" fill="#263238"/>
      <path id="Path_43196" data-name="Path 43196" d="M217.89,242.881c0,.6-.413,1.061-1.268,1.061a1.82,1.82,0,0,1-1.253-.45l.177-.287a1.474,1.474,0,0,0,1.069.405c.6,0,.906-.287.906-.737s-.273-.737-1.164-.737h-.737l.177-1.746h1.909v.317h-1.6l-.118,1.113h.45C217.492,241.856,217.89,242.269,217.89,242.881Z" transform="translate(-91.619 -116.831)" fill="#263238"/>
      <path id="Path_43197" data-name="Path 43197" d="M202.353,236.688v.2H200.82V234.72h1.474v.206h-1.253v.737h1.12v.2h-1.12v.8Z" transform="translate(-87.791 -115.339)" fill="#263238"/>
      <path id="Path_43198" data-name="Path 43198" d="M204.825,236.887l-.693-.958-.737.958h-.265l.825-1.113-.737-1.054h.258l.656.884.648-.884h.243l-.737,1.046.825,1.12Z" transform="translate(-88.399 -115.339)" fill="#263238"/>
      <path id="Path_43199" data-name="Path 43199" d="M207.945,235.464c0,.457-.339.737-.884.737h-.582v.685h-.228V234.72h.811C207.606,234.72,207.945,235,207.945,235.464Zm-.228,0c0-.346-.228-.545-.663-.545h-.575V236h.575C207.488,236,207.716,235.8,207.716,235.464Z" transform="translate(-89.22 -115.339)" fill="#263238"/>
      <path id="Path_43200" data-name="Path 43200" d="M210.37,234.72h.877a1.083,1.083,0,0,1,0,2.167h-.877Zm.862,1.968a.884.884,0,0,0,0-1.769H210.6v1.769Z" transform="translate(-90.304 -115.339)" fill="#263238"/>
      <path id="Path_43201" data-name="Path 43201" d="M214.953,236.061v1.01h-.214v-.258a.6.6,0,0,1-.56.273c-.361,0-.59-.192-.59-.472s.162-.464.626-.464h.516v-.1a.4.4,0,0,0-.457-.435.833.833,0,0,0-.545.192l-.1-.162a1.025,1.025,0,0,1,.663-.221.575.575,0,0,1,.656.634Zm-.221.516v-.265h-.508c-.317,0-.42.125-.42.295s.155.3.413.3a.516.516,0,0,0,.516-.324Z" transform="translate(-91.151 -115.524)" fill="#263238"/>
      <path id="Path_43202" data-name="Path 43202" d="M217.015,236.857a.486.486,0,0,1-.339.118.435.435,0,0,1-.479-.472v-.987h-.287v-.184h.287V235h.221v.354h.494v.184h-.494v.936a.258.258,0,0,0,.28.295.383.383,0,0,0,.243-.081Z" transform="translate(-91.761 -115.413)" fill="#263238"/>
      <path id="Path_43203" data-name="Path 43203" d="M219.25,236.328h-1.326a.6.6,0,0,0,.641.56.634.634,0,0,0,.5-.214l.125.147a.825.825,0,0,1-.634.265.8.8,0,0,1-.847-.833.781.781,0,0,1,.789-.825.737.737,0,0,1,.788.825Zm-1.363-.169h1.157a.582.582,0,0,0-1.157,0Z" transform="translate(-92.234 -115.525)" fill="#263238"/>
      <path id="Path_43204" data-name="Path 43204" d="M256.119,240.44v3.486h-.354v-3.169h-.825v-.317Z" transform="translate(-102.029 -116.844)" fill="#263238"/>
      <path id="Path_43205" data-name="Path 43205" d="M260,243.59v.324h-2.447v-.258l1.474-1.415c.391-.391.472-.626.472-.862,0-.405-.287-.656-.818-.656a1.172,1.172,0,0,0-.951.391l-.258-.221a1.577,1.577,0,0,1,1.238-.494c.737,0,1.157.354,1.157.936a1.474,1.474,0,0,1-.575,1.091L258.1,243.59Z" transform="translate(-102.695 -116.833)" fill="#263238"/>
      <path id="Path_43206" data-name="Path 43206" d="M263.74,242.923c0,.582-.427,1.032-1.268,1.032a1.813,1.813,0,0,1-1.253-.45l.177-.287a1.474,1.474,0,0,0,1.076.405c.582,0,.9-.265.9-.7s-.295-.693-.943-.693h-.251v-.265l.965-1.209H261.36v-.317h2.211v.251l-.987,1.238C263.364,241.973,263.74,242.363,263.74,242.923Z" transform="translate(-103.681 -116.844)" fill="#263238"/>
      <path id="Path_43207" data-name="Path 43207" d="M255.1,235.8a1.091,1.091,0,0,1,1.135-1.105,1.054,1.054,0,0,1,.788.317l-.14.147a.877.877,0,0,0-.641-.258.9.9,0,1,0,0,1.791.847.847,0,0,0,.641-.258l.14.147a1.032,1.032,0,0,1-.8.317,1.083,1.083,0,0,1-1.128-1.1Z" transform="translate(-102.071 -115.331)" fill="#263238"/>
      <path id="Path_43208" data-name="Path 43208" d="M261.228,234.72l-.737,2.167h-.243l-.634-1.85-.634,1.85h-.243L258,234.72h.236l.626,1.864.648-1.864h.214l.634,1.872.634-1.872Z" transform="translate(-102.834 -115.339)" fill="#263238"/>
      <path id="Path_43209" data-name="Path 43209" d="M229.329,269.67h-1.945l-.42.936h-.383l1.592-3.486h.368l1.592,3.486h-.391Zm-.14-.295-.825-1.872-.84,1.872Z" transform="translate(-94.568 -123.863)" fill="#263238"/>
      <path id="Path_43210" data-name="Path 43210" d="M231.69,269.593a1.29,1.29,0,0,1,1.349-1.334,1.135,1.135,0,0,1,1.024.523l-.258.177a.906.906,0,0,0-.737-.391,1.024,1.024,0,0,0,0,2.049.914.914,0,0,0,.737-.383l.258.177a1.15,1.15,0,0,1-1.024.516,1.29,1.29,0,0,1-1.349-1.334Z" transform="translate(-95.912 -124.162)" fill="#263238"/>
      <path id="Path_43211" data-name="Path 43211" d="M237.134,270.546a.818.818,0,0,1-.553.184.693.693,0,0,1-.737-.737v-1.606h-.464v-.3h.457v-.575h.354v.575h.8v.3h-.8v1.562a.42.42,0,0,0,.457.479.612.612,0,0,0,.391-.133Z" transform="translate(-96.883 -123.966)" fill="#263238"/>
      <path id="Path_43212" data-name="Path 43212" d="M238.53,267.078a.258.258,0,1,1,.258.258A.258.258,0,0,1,238.53,267.078Zm.081.825h.354v2.623h-.354Z" transform="translate(-97.712 -123.784)" fill="#263238"/>
      <path id="Path_43213" data-name="Path 43213" d="M240.09,269.594a1.334,1.334,0,1,1,1.341,1.334,1.3,1.3,0,0,1-1.341-1.334Zm2.307,0a.973.973,0,1,0-.965,1.024.958.958,0,0,0,.965-1.024Z" transform="translate(-98.122 -124.163)" fill="#263238"/>
      <path id="Path_43214" data-name="Path 43214" d="M247.14,269.4v1.518h-.354v-1.474a.737.737,0,0,0-.789-.833.855.855,0,0,0-.914.943v1.378h-.354v-2.623h.339v.508a1.113,1.113,0,0,1,.995-.509,1.01,1.01,0,0,1,1.076,1.091Z" transform="translate(-99.343 -124.175)" fill="#263238"/>
      <path id="Path_43215" data-name="Path 43215" d="M251.508,267.434V268.8h1.8v.317h-1.8V270.6h-.368V267.11h2.388v.317Z" transform="translate(-101.03 -123.86)" fill="#263238"/>
      <path id="Path_43216" data-name="Path 43216" d="M255.14,267.078a.258.258,0,1,1,.258.258A.258.258,0,0,1,255.14,267.078Zm.074.825h.354v2.623h-.354Z" transform="translate(-102.082 -123.784)" fill="#263238"/>
      <path id="Path_43217" data-name="Path 43217" d="M259.371,268.276v2.307a1.142,1.142,0,0,1-1.3,1.3,1.835,1.835,0,0,1-1.223-.4l.177-.273a1.577,1.577,0,0,0,1.032.361c.663,0,.965-.31.965-.951v-.354a1.157,1.157,0,0,1-1.017.508,1.275,1.275,0,1,1,0-2.542,1.187,1.187,0,0,1,1.032.523v-.5Zm-.339,1.245a.995.995,0,1,0-.995.965.936.936,0,0,0,.995-.951Z" transform="translate(-102.474 -124.156)" fill="#263238"/>
      <path id="Path_43218" data-name="Path 43218" d="M264.045,268.285v2.623h-.339v-.479a1.047,1.047,0,0,1-.943.5,1.017,1.017,0,0,1-1.105-1.128v-1.518h.354v1.474a.737.737,0,0,0,.789.84.855.855,0,0,0,.892-.951V268.27Z" transform="translate(-103.795 -124.166)" fill="#263238"/>
      <path id="Path_43219" data-name="Path 43219" d="M267.526,268.259v.346h-.088a.855.855,0,0,0-.884.973v1.334H266.2v-2.623h.339v.516A1.01,1.01,0,0,1,267.526,268.259Z" transform="translate(-104.992 -124.161)" fill="#263238"/>
      <path id="Path_43220" data-name="Path 43220" d="M271.084,269.7h-2.211a.973.973,0,0,0,1.032.914,1.039,1.039,0,0,0,.8-.346l.2.228a1.385,1.385,0,0,1-2.388-.906,1.268,1.268,0,0,1,1.282-1.334,1.245,1.245,0,0,1,1.267,1.334A.648.648,0,0,1,271.084,269.7Zm-2.211-.265h1.857a.928.928,0,1,0-1.857,0Z" transform="translate(-105.601 -124.163)" fill="#263238"/>
      <path id="Path_43221" data-name="Path 43221" d="M230.725,286.779v1.533h-1.363v-1.474a6.478,6.478,0,0,1-3.412-1.1l.737-1.665a5.527,5.527,0,0,0,2.66.973v-2.284c-1.525-.376-3.22-.877-3.22-2.837,0-1.474,1.054-2.7,3.22-2.948V275.46h1.363v1.474a6.183,6.183,0,0,1,2.778.84l-.685,1.68a5.66,5.66,0,0,0-2.093-.737v2.329c1.518.354,3.191.862,3.191,2.793C233.916,285.29,232.877,286.521,230.725,286.779Zm-1.363-6.043v-1.931c-.737.162-1.017.56-1.017,1.01S228.758,280.545,229.362,280.736Zm2.351,3.294c0-.479-.4-.737-.987-.943v1.887C231.411,284.826,231.713,284.473,231.713,284.03Z" transform="translate(-94.403 -126.057)" fill="#263238"/>
      <path id="Path_43222" data-name="Path 43222" d="M244.969,285.384V287.2h-7.237V285.76l3.685-3.493c.855-.811,1-1.3,1-1.769,0-.737-.523-1.186-1.533-1.186a2.343,2.343,0,0,0-1.982.958l-1.614-1.039a4.422,4.422,0,0,1,3.8-1.783c2.137,0,3.559,1.1,3.559,2.837,0,.929-.265,1.776-1.606,3.021l-2.211,2.078Z" transform="translate(-97.386 -126.578)" fill="#263238"/>
      <path id="Path_43223" data-name="Path 43223" d="M248.92,282.409c0-3.161,1.754-4.959,4.1-4.959s4.1,1.8,4.1,4.959-1.739,4.952-4.1,4.952S248.92,285.571,248.92,282.409Zm5.984,0c0-2.211-.737-3.08-1.879-3.08s-1.857.9-1.857,3.08.737,3.073,1.857,3.073,1.85-.9,1.85-3.073Z" transform="translate(-100.446 -126.581)" fill="#263238"/>
      <path id="Path_43224" data-name="Path 43224" d="M261.53,282.409c0-3.161,1.754-4.959,4.1-4.959s4.1,1.8,4.1,4.959-1.739,4.952-4.1,4.952S261.53,285.571,261.53,282.409Zm5.976,0c0-2.211-.737-3.08-1.872-3.08s-1.864.9-1.864,3.08.737,3.073,1.864,3.073,1.872-.9,1.872-3.073Z" transform="translate(-103.763 -126.581)" fill="#263238"/>
      <path id="Path_43225" data-name="Path 43225" d="M256.691,318.674H226.138a7.156,7.156,0,0,1-7.148-7.148h0a7.156,7.156,0,0,1,7.148-7.155h30.553a7.148,7.148,0,0,1,7.148,7.155h0A7.148,7.148,0,0,1,256.691,318.674Z" transform="translate(-92.572 -133.663)" fill="#263238"/>
      <path id="Path_43226" data-name="Path 43226" d="M234.944,312.487c0,.9-.648,1.437-1.717,1.437h-1.135v1.326h-.442v-4.2h1.577C234.3,311.079,234.944,311.617,234.944,312.487Zm-.45,0c0-.671-.442-1.054-1.282-1.054h-1.12v2.1h1.12C234.052,313.563,234.495,313.18,234.495,312.487Z" transform="translate(-95.902 -135.42)" fill="#fff"/>
      <path id="Path_43227" data-name="Path 43227" d="M239.546,313.689v1.96h-.405v-.494a1.194,1.194,0,0,1-1.091.523c-.737,0-1.15-.368-1.15-.921s.31-.892,1.216-.892h1v-.192c0-.538-.3-.833-.892-.833a1.621,1.621,0,0,0-1.054.368l-.192-.317a2,2,0,0,1,1.29-.427,1.12,1.12,0,0,1,1.275,1.223Zm-.427,1.01v-.516h-.987c-.612,0-.811.243-.811.567s.295.6.8.6a1,1,0,0,0,1-.648Z" transform="translate(-97.283 -135.79)" fill="#fff"/>
      <path id="Path_43228" data-name="Path 43228" d="M244.375,312.495l-1.577,3.537c-.265.619-.6.818-1.046.818a1.091,1.091,0,0,1-.752-.3l.2-.317a.789.789,0,0,0,.575.243c.287,0,.479-.133.656-.531l.14-.31-1.415-3.154h.45l1.186,2.69,1.157-2.675Z" transform="translate(-98.362 -135.796)" fill="#fff"/>
      <path id="Path_43229" data-name="Path 43229" d="M249.849,315.062v.693h-.3v-.685a2.211,2.211,0,0,1-1.437-.545l.177-.346a2.012,2.012,0,0,0,1.26.508v-1.577c-.663-.162-1.334-.368-1.334-1.164,0-.575.413-1.076,1.334-1.142v-.693h.3v.656a2.321,2.321,0,0,1,1.216.368l-.147.354a2.314,2.314,0,0,0-1.069-.346v1.592c.678.162,1.393.354,1.393,1.157C251.242,314.5,250.8,315.011,249.849,315.062Zm-.3-2.373v-1.474c-.619.052-.9.368-.9.737S249.053,312.557,249.547,312.689Zm1.253,1.26c0-.479-.435-.641-.951-.737v1.474c.656-.052.951-.354.951-.737Z" transform="translate(-100.232 -135.173)" fill="#fff"/>
      <path id="Path_43230" data-name="Path 43230" d="M255.96,314.893v.383h-2.948v-.3l1.747-1.717c.472-.464.56-.737.56-1.039,0-.486-.339-.781-.98-.781a1.474,1.474,0,0,0-1.15.464l-.31-.265a1.909,1.909,0,0,1,1.474-.6c.847,0,1.393.435,1.393,1.135a1.724,1.724,0,0,1-.693,1.312l-1.43,1.408Z" transform="translate(-101.487 -135.417)" fill="#fff"/>
      <path id="Path_43231" data-name="Path 43231" d="M257.76,313.177c0-1.341.7-2.137,1.673-2.137s1.68.8,1.68,2.137-.737,2.137-1.68,2.137S257.76,314.518,257.76,313.177Zm2.911,0c0-1.12-.5-1.739-1.238-1.739s-1.238.619-1.238,1.739.508,1.739,1.238,1.739S260.671,314.3,260.671,313.177Z" transform="translate(-102.771 -135.418)" fill="#fff"/>
      <path id="Path_43232" data-name="Path 43232" d="M263.15,313.177c0-1.341.737-2.137,1.68-2.137s1.68.8,1.68,2.137-.737,2.137-1.68,2.137S263.15,314.518,263.15,313.177Zm2.948,0c0-1.12-.5-1.739-1.231-1.739s-1.238.619-1.238,1.739.5,1.739,1.238,1.739,1.194-.619,1.194-1.739Z" transform="translate(-104.189 -135.418)" fill="#fff"/>
      <path id="Path_43233" data-name="Path 43233" d="M166.451,248.467c1.105,16.986-6.765,35.9-6.765,35.9L117.173,272.4l-7.413-2.093c7.369-10.236,10.877-30.4,8.954-46.713-.147-1.231-.236-2.388-.3-3.493-.737-13.456,4.856-17.391,9.58-23.338,5.158-6.441,16.64-30.759,16.64-36.514s14.407-19.845,11.2-35.836c0,0,4.355-2.7,8.732-.486,1.99,1,3.972,3.014,5.571,6.743,3.751,8.762-1.518,33.53-6,39.6L155.508,206a76.319,76.319,0,0,1,5.77,14.127,121.509,121.509,0,0,1,5.173,28.342Z" transform="translate(-63.835 -85.962)" fill="#fff"/>
      <path id="Path_43234" data-name="Path 43234" d="M118.419,254.75c2.41,6.6,4.967,11.054,4.746,20.295s-5.158,23.464-3.751,30.855a6.507,6.507,0,0,0-2.211,1.15l-7.413-2.093c7.369-10.236,10.877-30.4,8.954-46.713C118.574,257.012,118.486,255.855,118.419,254.75Z" transform="translate(-63.843 -120.609)" fill="#fefffd" opacity="0.4"/>
      <path id="Path_43235" data-name="Path 43235" d="M178.67,170.585l-8.629,35.726a76.319,76.319,0,0,1,5.77,14.127h0C169.967,211.02,165,208.2,165,208.2c3.891-4.665,6.89-38.784,6.89-38.784s12.2-14.333,11.054-29.329A47.9,47.9,0,0,0,179.1,124.24c1.99,1,3.972,3.014,5.571,6.743C188.419,139.745,183.15,164.513,178.67,170.585Z" transform="translate(-78.368 -86.274)" fill="#fefffd" opacity="0.4"/>
      <path id="Path_43236" data-name="Path 43236" d="M109.76,270.311c7.369-10.236,10.877-30.4,8.961-46.713s4.156-20.4,9.278-26.839,16.632-30.752,16.632-36.514,14.4-19.83,11.2-35.829c0,0,9.189-5.7,14.3,6.256,3.751,8.769-1.518,33.53-6,39.609L155.515,206s9.2,15.881,10.936,42.469c1.105,16.986-6.765,35.91-6.765,35.91" transform="translate(-63.835 -85.963)" fill="none" stroke="#263238" stroke-linecap="round" stroke-linejoin="round" stroke-width="1"/>
      <path id="Path_43237" data-name="Path 43237" d="M148.32,360.41s9.676,5.954,15.321,15.372" transform="translate(-73.98 -148.406)" fill="none" stroke="#263238" stroke-linecap="round" stroke-linejoin="round" stroke-width="1"/>
      <path id="Path_43238" data-name="Path 43238" d="M171.38,364.527s-8.335,1.186-15.866-7.826c-4.827-5.77-19.484-8.379-22.844-23.471" transform="translate(-69.862 -141.255)" fill="none" stroke="#263238" stroke-linecap="round" stroke-linejoin="round" stroke-width="1"/>
    </g>
    <g id="freepik--Hand--inject-35" transform="translate(197.974 142.603)">
      <path id="Path_43239" data-name="Path 43239" d="M326.226,371.366c-21.334-10.206-8.416-18.386-37.767-31.054s-29.646-23.493-26.109-48.386.737-51.371,9.27-53.618-6.676-36.581,3.272-48.718l48.961,95.239Z" transform="translate(-260.81 -184.82)" fill="rgba(0,0,0,0.7)" opacity="0.2"/>
      <path id="Path_43240" data-name="Path 43240" d="M409.583,368.684c-1-2.867-2.019-6-2.808-8.843a43.082,43.082,0,0,0-3.685-10.059c-.295-.545-.612-1.12-.965-1.739a61.349,61.349,0,0,1-6.33-14.414c-1.076-4.031,0-13.957,1-23.581.737-6.912,1.408-13.434,1.209-17.133l-.059-1.312c-.5-9.676-1.548-29.808-3.685-35.372-2.1-5.365-4.06-6.168-7.634-7.6-.368-.162-.737-.31-1.164-.486-1.341-.56-3.626-1.739-6.256-3.1-5.932-3.073-13.316-6.9-17.067-7.369a33.427,33.427,0,0,0-10.516.486c-4.62-3.545-12.483-8.106-14.827-8.2-1.916-.1-6.1,1.105-8.106,1.732l-1.01.324a30.34,30.34,0,0,0-4.024-2.638c-.1-.052-.192-.088-.273-.125-2.6-1.069-6.529-1.105-8.674-1.046a12.5,12.5,0,0,0-1.385.088c-4.046-6.227-8.025-12.424-9.757-15.144-3.611-5.718-14.79-29.248-14.9-29.477a.2.2,0,0,0-.147-.118.377.377,0,0,0-.1,0c-.87-.251-7.273-1.879-9.845,4.326-2.815,6.758,1.2,21.592,5.122,26.979,1.887,2.594,7.038,13.176,12.262,24.127-1.341,1.245-12.071,11.157-17.281,13.007-4.267,1.511-3.265,23.382-2.461,40.943.3,6.485.553,12.063.479,15.416-.147,6.485,11.651,15.416,23.088,24.053,10.317,7.826,21.017,15.91,22.27,21.783a11.273,11.273,0,0,0,2.513,4.5c1.968,2.506,4.5,5.461,5.578,11.054.317,1.68,3.014,3.876,5.158,7.465h77.406C412.059,375.464,410.836,372.28,409.583,368.684ZM302.236,252.177c3.751,7.856,6.072,12.528,6.632,13.051s.523,3.014.508,5.438a43.733,43.733,0,0,0,.221,6.36c-.914.8-6.684,6.057-7.848,10.317l-4.9-5.77-1.238-18.106C296.348,262.686,301.389,257.358,302.236,252.177Z" transform="translate(-264.675 -183.134)" fill="#fff"/>
      <path id="Path_43241" data-name="Path 43241" d="M405.993,319.358c1.82,16.986,1.842,26.2,3.884,31.113,3.449,8.3,8.526,9.978,8.526,9.978a51.177,51.177,0,0,1-4-10.1c-1.069-4.031,0-13.957,1-23.581.737-6.912,1.415-13.441,1.223-17.141l-.066-1.312c-.5-9.668-1.548-29.8-3.685-35.372-2.093-5.365-4.06-6.168-7.634-7.605-.368-.155-.737-.3-1.164-.479-1.341-.56-3.618-1.739-6.256-3.1-5.932-3.073-13.316-6.9-17.067-7.369a33.163,33.163,0,0,0-10.516.486c-4.62-3.545-12.483-8.106-14.827-8.2-1.916-.1-7.111,1.415-9.13,2.056,8.843,7.214,21.577,16.212,21.577,16.212,10.074,2,8.784,6.374,12.859,8.843,3.685,2.211,7.207-4.259,10.317-4.827,4.068-.737,8.688,3.552,8.482,8.755C398.881,292.041,404.43,304.775,405.993,319.358Z" transform="translate(-283.295 -199.836)" fill="#fefffd" opacity="0.4"/>
      <path id="Path_43242" data-name="Path 43242" d="M350.436,266.086s-7.981-6.632-11.791-8.843-4.422-9.831-1.415-11.68a.84.84,0,0,1,.376-.118l-.273-.125c-2.6-1.069-6.529-1.113-8.674-1.046,4.422,8.231,7.951,14.547,8.9,15.932C340.768,264.833,350.436,266.086,350.436,266.086Z" transform="translate(-278.66 -199.201)" fill="#fefffd" opacity="0.4"/>
      <path id="Path_43243" data-name="Path 43243" d="M324.336,353.141c.339-1.761-2.564-6.92-3.839-9.013-2.9-4.775-36.522-34.488-31.651-42.417s9.322-2.063,12.4-1.548c2.211.368,8.283-3.25,8.254-3.552-.693-6.109,4.945-10.081,4.945-10.081s-.516-24.318-1.813-23.906-16.816-36.514-16.816-36.514-16.4-21.813-15.475-31.99,8.047-10.354,8.047-10.354V183.5c-.87-.251-7.273-1.879-9.845,4.326-2.815,6.758,1.2,21.592,5.122,26.979,1.887,2.594,7.038,13.176,12.262,24.127-1.341,1.245-12.071,11.157-17.281,13.007-4.267,1.511-3.265,23.382-2.461,40.943.3,6.485.553,12.063.479,15.416-.147,6.485,11.651,15.416,23.088,24.053,10.317,7.826,21.017,15.91,22.27,21.783a11.273,11.273,0,0,0,2.513,4.5A29.881,29.881,0,0,1,324.336,353.141ZM302.228,252.183c3.751,7.856,6.072,12.528,6.632,13.051s.523,3.014.508,5.438a43.737,43.737,0,0,0,.221,6.36c-.914.8-6.684,6.057-7.848,10.317l-4.9-5.77L295.6,263.473c.737-.8,5.777-6.131,6.625-11.312Z" transform="translate(-264.667 -183.118)" fill="#fefffd" opacity="0.4"/>
      <path id="Path_43244" data-name="Path 43244" d="M332.714,249.994a16.757,16.757,0,0,1-8.283-5.807c-3.368-4.51-16.6-25.055-20.258-30.847s-14.937-29.484-14.937-29.484-6.927-2.321-9.624,4.149.995,21.091,5.1,26.721,23.611,48.983,25.158,50.383-.774,12.97,2.329,15.77" transform="translate(-265.514 -183.205)" fill="none" stroke="#263238" stroke-linecap="round" stroke-linejoin="round" stroke-width="1"/>
      <path id="Path_43245" data-name="Path 43245" d="M316.947,301.433s-7.148,6.227-7.988,10.774l-5.306-6.242-1.253-18.29s6.4-6.411,6.758-12.115" transform="translate(-271.751 -207.438)" fill="none" stroke="#263238" stroke-linecap="round" stroke-linejoin="round" stroke-width="1"/>
      <path id="Path_43246" data-name="Path 43246" d="M296.307,258.88s-11.872,11.2-17.517,13.2-1.525,43.965-1.805,56.116,42.7,33.323,45.343,45.763c1.046,4.952,5.379,5.962,8.025,15.475" transform="translate(-264.752 -203.049)" fill="none" stroke="#263238" stroke-linecap="round" stroke-linejoin="round" stroke-width="1"/>
      <path id="Path_43247" data-name="Path 43247" d="M326.56,244.691s6.463-.582,10.1.936,18.423,14.215,21.99,16.64,8.931,3.346,9.948,5.962" transform="translate(-278.107 -199.288)" fill="none" stroke="#263238" stroke-linecap="round" stroke-linejoin="round" stroke-width="1"/>
      <path id="Path_43248" data-name="Path 43248" d="M346.17,249.064s6.632-2.211,9.167-2.085,12.071,5.748,16.345,9.506a36.433,36.433,0,0,0,11.135,6.765" transform="translate(-283.266 -199.917)" fill="none" stroke="#263238" stroke-linecap="round" stroke-linejoin="round" stroke-width="1"/>
      <path id="Path_43249" data-name="Path 43249" d="M378.68,257.891a32.343,32.343,0,0,1,10.538-.508c5.394.737,18.939,8.7,23.257,10.494s6.382,2.13,8.651,7.937,3.309,27.885,3.766,36.61-4.09,33.714-2.211,40.744,5.269,12.454,7.325,16.212" transform="translate(-291.819 -202.599)" fill="none" stroke="#263238" stroke-linecap="round" stroke-linejoin="round" stroke-width="1"/>
      <path id="Path_43250" data-name="Path 43250" d="M301.506,290.264s-1.032-4.311-2.506-4.864" transform="translate(-270.857 -210.026)" fill="none" stroke="#263238" stroke-linecap="round" stroke-linejoin="round" stroke-width="1"/>
      <path id="Path_43251" data-name="Path 43251" d="M304.1,316.82a54.918,54.918,0,0,0,2.012,7.406c1.061,2.616-.59,6.4-.59,6.4" transform="translate(-272.199 -218.292)" fill="none" stroke="#263238" stroke-linecap="round" stroke-linejoin="round" stroke-width="1"/>
      <path id="Path_43252" data-name="Path 43252" d="M311.3,325.29c-.169,4.186,3.994,9.079,5,8.386" transform="translate(-274.091 -220.521)" fill="none" stroke="#263238" stroke-linecap="round" stroke-linejoin="round" stroke-width="1"/>
      <path id="Path_43253" data-name="Path 43253" d="M340.07,287.691s4.473-7.237,8.762-7.59,9.241,5.733,11.887,5.158,5.976-4.466,10.427-5.158,6.536,1.43,10.066,1.606,3.891-4.539,8.106-5.158,5.652,1.474,8.482,2.019,3.537-1.688,5.829-2.948" transform="translate(-281.662 -207.453)" fill="none" stroke="#263238" stroke-linecap="round" stroke-linejoin="round" stroke-width="1"/>
    </g>
  </g>
</svg>
