<svg xmlns="http://www.w3.org/2000/svg" width="301.577" height="268.595" viewBox="0 0 301.577 268.595">
  <g id="supportimg" transform="translate(-56.11 -82.19)">
    <g id="freepik--background-simple--inject-38" transform="translate(61.357 96.42)">
      <path id="Path_43772" data-name="Path 43772" d="M260.5,112.186c-25.563-14.839-67.567-16.627-91.427.832-26.349,19.271-22.3,55.862-49.26,73.236C92.4,203.932,59.507,196.419,63.131,241.922c2.792,35.074,32.664,44.446,61.438,53.77,51.608,16.728,151.489,35.323,187.862-20.352C353.829,211.926,317.821,145.441,260.5,112.186Z" transform="translate(-62.856 -100.488)" fill="#f5aeae"/>
      <path id="Path_43773" data-name="Path 43773" d="M260.5,112.186c-25.563-14.839-67.567-16.627-91.427.832-26.349,19.271-22.3,55.862-49.26,73.236C92.4,203.932,59.507,196.419,63.131,241.922c2.792,35.074,32.664,44.446,61.438,53.77,51.608,16.728,151.489,35.323,187.862-20.352C353.829,211.926,317.821,145.441,260.5,112.186Z" transform="translate(-62.856 -100.488)" fill="#fff" opacity="0.9"/>
    </g>
    <g id="freepik--Shadow--inject-38" transform="translate(56.11 333.178)">
      <ellipse id="freepik--path--inject-38" cx="150.789" cy="8.804" rx="150.789" ry="8.804" fill="#f5f5f5"/>
    </g>
    <g id="freepik--Table--inject-38" transform="translate(86.129 265.837)">
      <rect id="Rectangle_5289" data-name="Rectangle 5289" width="241.531" height="27.344" fill="#f5aeae"/>
      <rect id="Rectangle_5290" data-name="Rectangle 5290" width="51.811" height="27.344" transform="translate(189.728)" opacity="0.3"/>
      <rect id="Rectangle_5291" data-name="Rectangle 5291" width="26.667" height="48.801" transform="translate(0 27.344)" fill="#f5aeae"/>
      <path id="Path_43774" data-name="Path 43774" d="M94.72,353.49v2.73l18.883,5.7v40.371h7.777v-48.8Z" transform="translate(-94.712 -326.146)" opacity="0.3"/>
      <rect id="Rectangle_5292" data-name="Rectangle 5292" width="26.667" height="48.801" transform="translate(214.871 27.344)" fill="#f5aeae"/>
      <rect id="Rectangle_5293" data-name="Rectangle 5293" width="26.667" height="48.801" transform="translate(214.871 27.344)" opacity="0.2"/>
      <path id="Path_43775" data-name="Path 43775" d="M371,353.49v2.73l18.89,5.7v40.371h7.777v-48.8Z" transform="translate(-156.129 -326.146)" opacity="0.3"/>
      <rect id="Rectangle_5294" data-name="Rectangle 5294" width="26.667" height="48.801" transform="translate(163.061 27.344)" fill="#f5aeae"/>
      <path id="Path_43776" data-name="Path 43776" d="M304.38,353.49v2.73l18.89,5.7v40.371h7.777v-48.8Z" transform="translate(-141.319 -326.146)" opacity="0.3"/>
      <rect id="Rectangle_5295" data-name="Rectangle 5295" width="26.667" height="48.801" transform="translate(51.811 27.344)" fill="#f5aeae"/>
      <rect id="Rectangle_5296" data-name="Rectangle 5296" width="26.667" height="48.801" transform="translate(51.811 27.344)" opacity="0.2"/>
      <path id="Path_43777" data-name="Path 43777" d="M161.33,353.49v2.73l18.89,5.7v40.371H188v-48.8Z" transform="translate(-109.519 -326.146)" opacity="0.3"/>
    </g>
    <g id="freepik--Character--inject-38" transform="translate(113.369 124.634)">
      <path id="Path_43778" data-name="Path 43778" d="M319.312,281.79H171.641a3.329,3.329,0,0,1-3.344-3.577l6.082-96.505a3.889,3.889,0,0,1,3.8-3.577H325.844a3.329,3.329,0,0,1,3.344,3.577l-6.082,96.505A3.889,3.889,0,0,1,319.312,281.79Z" transform="translate(-138.306 -145.961)" fill="#263238"/>
      <path id="Path_43779" data-name="Path 43779" d="M319.312,281.79H171.641a3.329,3.329,0,0,1-3.344-3.577l6.082-96.505a3.889,3.889,0,0,1,3.8-3.577H325.844a3.329,3.329,0,0,1,3.344,3.577l-6.082,96.505A3.889,3.889,0,0,1,319.312,281.79Z" transform="translate(-138.306 -145.961)" opacity="0.6"/>
      <path id="Path_43780" data-name="Path 43780" d="M317.892,281.79H170.229a3.329,3.329,0,0,1-3.352-3.577l6.082-96.505a3.888,3.888,0,0,1,3.8-3.577H324.424a3.321,3.321,0,0,1,3.344,3.577l-6.082,96.505A3.889,3.889,0,0,1,317.892,281.79Z" transform="translate(-137.99 -145.961)" fill="#263238"/>
      <path id="Path_43781" data-name="Path 43781" d="M309.451,313H133.744a4.285,4.285,0,0,0-3.889,2.4,1.229,1.229,0,0,0,1.128,1.758H312.173A1.229,1.229,0,0,0,313.3,315.4,4.27,4.27,0,0,0,309.451,313Z" transform="translate(-129.736 -175.942)" fill="#263238"/>
      <path id="Path_43782" data-name="Path 43782" d="M352.543,313H327.555a4.262,4.262,0,0,0-3.85,2.4,1.229,1.229,0,0,0,1.12,1.758h30.439a1.229,1.229,0,0,0,1.128-1.758A4.27,4.27,0,0,0,352.543,313Z" transform="translate(-172.829 -175.942)" opacity="0.6"/>
      <path id="Path_43783" data-name="Path 43783" d="M338.895,316.575H332.44a.568.568,0,0,1-.56-.568h0a.568.568,0,0,1,.56-.568h6.455a.568.568,0,0,1,.568.568h0A.568.568,0,0,1,338.895,316.575Z" transform="translate(-174.672 -176.485)" fill="#f5aeae"/>
      <path id="Path_43784" data-name="Path 43784" d="M232.165,316.575h-6.447a.568.568,0,0,1-.568-.568h0a.568.568,0,0,1,.568-.568h6.447a.568.568,0,0,1,.568.568h0A.568.568,0,0,1,232.165,316.575Z" transform="translate(-150.946 -176.485)" fill="#fff" opacity="0.7"/>
      <rect id="Rectangle_5297" data-name="Rectangle 5297" width="5.156" height="1.135" rx="0.568" transform="translate(166.214 138.955)" fill="#f5aeae"/>
      <path id="Path_43785" data-name="Path 43785" d="M171.159,276.351l5.646-89.537a1.5,1.5,0,0,1,1.478-1.384H324.094a1.283,1.283,0,0,1,1.3,1.384l-5.638,89.537a1.509,1.509,0,0,1-1.485,1.384h-145.8a1.3,1.3,0,0,1-1.307-1.384Z" transform="translate(-138.944 -147.584)" fill="#fff"/>
      <path id="Path_43786" data-name="Path 43786" d="M253.322,181.88l-48.568,92.313H168.925a1.291,1.291,0,0,1-1.307-1.392l5.646-89.529a1.509,1.509,0,0,1,1.478-1.392Z" transform="translate(-138.156 -146.795)" fill="#f5aeae" opacity="0.1"/>
      <path id="Path_43787" data-name="Path 43787" d="M315.391,181.88l-48.568,92.313H255.5l48.568-92.313Z" transform="translate(-157.693 -146.795)" fill="#f5aeae" opacity="0.1"/>
      <path id="Path_43788" data-name="Path 43788" d="M348.121,183.272,342.475,272.8A1.5,1.5,0,0,1,341,274.193H285.78l48.568-92.313h12.443a1.3,1.3,0,0,1,1.33,1.392Z" transform="translate(-164.424 -146.794)" fill="#f5aeae" opacity="0.1"/>
      <path id="Path_43789" data-name="Path 43789" d="M275.031,181.7a1.135,1.135,0,0,1-1.112,1.05.972.972,0,0,1-.98-1.05,1.128,1.128,0,0,1,1.112-1.05.972.972,0,0,1,.98,1.05Z" transform="translate(-161.569 -146.521)" fill="#fff" opacity="0.4"/>
      <path id="Path_43790" data-name="Path 43790" d="M239.274,152.934c-4.254,4.868-6.712,19.793-3.562,27.134s-33.395,14.691-3.243,26.621,54.268-1.905,45.542-14.263.941-32.936-9.161-38.107C259.72,149.605,247.8,143.173,239.274,152.934Z" transform="translate(-149.905 -139.227)" fill="#263238"/>
      <path id="Path_43791" data-name="Path 43791" d="M220.514,230.775c-1.594,5.444-3.29,10.888-5.047,16.332s-3.585,10.826-5.522,16.231l-.739,2.038-.373,1.019-.117.3-.187.459c-.117.3-.3.614-.451.918a8.469,8.469,0,0,1-3.274,3.313,8.866,8.866,0,0,1-4.075,1.073,15.041,15.041,0,0,1-5.825-1.143,32.78,32.78,0,0,1-4.378-2.17A69.659,69.659,0,0,1,176.62,257.9l3.352-3.951c1.128.723,2.333,1.493,3.5,2.216s2.388,1.423,3.57,2.115a70.888,70.888,0,0,0,7.163,3.663,24.29,24.29,0,0,0,3.453,1.221,6.291,6.291,0,0,0,2.535.3c.218,0,.179-.124,0-.054s-.373.272-.381.249,0,0,0-.047a.1.1,0,0,0,0-.047l.062-.194.3-1,.6-2.022,4.752-16.332q2.426-8.166,4.993-16.332Z" transform="translate(-140.158 -156.976)" fill="#b65b52"/>
      <path id="Path_43792" data-name="Path 43792" d="M178.037,260.344,169,257l3.585,9.55s6.377.918,8.85-2.434l-2.014-2.7A3.111,3.111,0,0,0,178.037,260.344Z" transform="translate(-138.464 -163.494)" fill="#b55b52"/>
      <path id="Path_43793" data-name="Path 43793" d="M158.75,259.772l3.437,7.831,8.158-1.073-3.593-9.55Z" transform="translate(-136.186 -163.489)" fill="#b55b52"/>
      <path id="Path_43794" data-name="Path 43794" d="M222.579,213.355c-4.137,1.05-7,18.058-7,18.058l11.393,7.777s10.888-17.156,7.738-21.7C231.367,212.725,228.607,211.822,222.579,213.355Z" transform="translate(-148.819 -153.639)" fill="#f5aeae"/>
      <path id="Path_43795" data-name="Path 43795" d="M222.579,213.355c-4.137,1.05-7,18.058-7,18.058l11.393,7.777s10.888-17.156,7.738-21.7C231.367,212.725,228.607,211.822,222.579,213.355Z" transform="translate(-148.819 -153.639)" fill="#fff" opacity="0.5"/>
      <path id="Path_43796" data-name="Path 43796" d="M223.478,221.5l8.842,2.045.848,8.656a99.823,99.823,0,0,1-4.954,8.92l-6.914-4.666C221.6,232.45,222.35,224.222,223.478,221.5Z" transform="translate(-150.091 -155.602)" opacity="0.2"/>
      <path id="Path_43797" data-name="Path 43797" d="M224.239,212.72s-4.783,1.68,4.791,60.521h40.72c-.684-16.573-.7-26.8,7.217-60.809a119.769,119.769,0,0,0-17.288-2.279,128.616,128.616,0,0,0-18.494,0C233.244,210.877,224.239,212.72,224.239,212.72Z" transform="translate(-150.478 -153.005)" fill="#f5aeae"/>
      <path id="Path_43798" data-name="Path 43798" d="M224.239,212.72s-4.783,1.68,4.791,60.521h40.72c-.684-16.573-.7-26.8,7.217-60.809a119.769,119.769,0,0,0-17.288-2.279,128.616,128.616,0,0,0-18.494,0C233.244,210.877,224.239,212.72,224.239,212.72Z" transform="translate(-150.478 -153.005)" fill="#fff" opacity="0.5"/>
      <path id="Path_43799" data-name="Path 43799" d="M280.035,233.48l5.257,4.48c-1.12,5.949-1.874,10.888-2.333,15.313C281.956,248.855,279.452,236.863,280.035,233.48Z" transform="translate(-163.128 -158.265)" opacity="0.2"/>
      <path id="Path_43800" data-name="Path 43800" d="M262.531,183.47c-1.167,5.949-2.333,16.853,1.835,20.827,0,0-3.889,8.912-14.193,8.912s-4.3-8.912-4.3-8.912c6.634-1.555,6.463-6.509,5.312-11.129Z" transform="translate(-155.167 -147.148)" fill="#b55b52"/>
      <path id="Path_43801" data-name="Path 43801" d="M262.7,207.24c-.98,1.983-4.137,6.517-12.957,8.135a.98.98,0,0,1-.708-.14,5.9,5.9,0,0,1-1.952-6.408.964.964,0,0,0-1.291-1.151,12.3,12.3,0,0,0-1.944,1.027.941.941,0,0,0-.319.358c-.645,1.213-3.259,7.155,4.627,10.818a1.182,1.182,0,0,0,.4.093c4.666.093,12.824-.824,17.98-10.11a.98.98,0,0,0-.086-1.073,10.047,10.047,0,0,0-2.388-1.921.949.949,0,0,0-1.361.373Z" transform="translate(-154.826 -152.316)" fill="#fafafa"/>
      <path id="Path_43802" data-name="Path 43802" d="M268.005,237.943l-10.5-.3a.778.778,0,0,1-.778-.863l.1-1.3a.9.9,0,0,1,.91-.778l10.5.3a.778.778,0,0,1,.778.871l-.1,1.291A.9.9,0,0,1,268.005,237.943Z" transform="translate(-157.965 -158.536)" fill="#fafafa"/>
      <path id="Path_43803" data-name="Path 43803" d="M259.919,188.56l-6.719,5.732a18.867,18.867,0,0,1,.575,3.282c2.528-.365,6.012-3.15,6.284-5.8a8.9,8.9,0,0,0-.14-3.212Z" transform="translate(-157.182 -148.279)" opacity="0.2"/>
      <path id="Path_43804" data-name="Path 43804" d="M269.469,164.346c-1.874,9.776-2.458,13.952-8.088,18.362-8.469,6.642-20.065,2.193-21.138-7.94-.972-9.122,2.255-23.572,12.443-26.247a13.571,13.571,0,0,1,16.783,15.826Z" transform="translate(-154.265 -139.277)" fill="#b55b52"/>
      <path id="Path_43805" data-name="Path 43805" d="M270.514,157.932c-1.213,6.121-1.5,14.232,4.106,14.232s10-9.542,5.164-17.016S271.222,154.323,270.514,157.932Z" transform="translate(-160.87 -140.096)" fill="#263238"/>
      <path id="Path_43806" data-name="Path 43806" d="M273.355,155.356c0,6.657-8.384,3.367-12.093.5s-3.889-2.559-10.763-2.566-8.251-.482-10.281-3.764-1.843-5.444,2.73-4.752.731-3.974,4.137-6.564,7.443-1.936,12.1,3.974S273.355,143.823,273.355,155.356Z" transform="translate(-154.021 -136.766)" fill="#263238"/>
      <ellipse id="Ellipse_541" data-name="Ellipse 541" cx="5.677" cy="3.679" rx="5.677" ry="3.679" transform="translate(108.216 37.145) rotate(-73.66)" fill="#fff"/>
      <path id="Path_43807" data-name="Path 43807" d="M258.448,180.383a13.3,13.3,0,0,1-5.247-1.08.288.288,0,0,1-.158-.382.3.3,0,0,1,.389-.156,12.715,12.715,0,0,0,9.9.054,12.373,12.373,0,0,0,6.782-6.8c2.333-6.68,4.713-15.017,1.96-20.22a8,8,0,0,0-5.366-3.99.293.293,0,1,1,.148-.568,8.594,8.594,0,0,1,5.732,4.277c2.862,5.374.474,13.874-1.929,20.679a12.98,12.98,0,0,1-7.132,7.139A13.454,13.454,0,0,1,258.448,180.383Z" transform="translate(-157.142 -139.092)" fill="#fff"/>
      <path id="Path_43808" data-name="Path 43808" d="M278.247,178.789c-.692,2.333-2.279,3.974-3.546,3.609s-1.734-2.59-1.042-4.954,2.279-3.982,3.546-3.609S278.939,176.424,278.247,178.789Z" transform="translate(-161.659 -144.994)" fill="#f5aeae" opacity="0.6"/>
      <rect id="Rectangle_5298" data-name="Rectangle 5298" width="5.078" height="2.154" rx="1.077" transform="translate(92.847 38.149) rotate(10.92)" fill="#fff"/>
      <path id="Path_43809" data-name="Path 43809" d="M248.165,170.05a21.553,21.553,0,0,1-3.515,4.744,3.477,3.477,0,0,0,2.792.91Z" transform="translate(-155.281 -144.165)" fill="#a02724"/>
      <path id="Path_43810" data-name="Path 43810" d="M251.357,182.2h.07a7,7,0,0,0,4.9-1.493.156.156,0,0,0,0-.218.148.148,0,0,0-.21,0,6.743,6.743,0,0,1-4.666,1.423.148.148,0,0,0-.171.132A.156.156,0,0,0,251.357,182.2Z" transform="translate(-156.755 -146.475)" fill="#263238"/>
      <path id="Path_43811" data-name="Path 43811" d="M261.829,164.349a.3.3,0,0,0,.288,0,.311.311,0,0,0,.093-.42,4.565,4.565,0,0,0-3.539-2.209.311.311,0,0,0-.311.3.3.3,0,0,0,.3.3,3.974,3.974,0,0,1,3.041,1.929A.3.3,0,0,0,261.829,164.349Z" transform="translate(-158.329 -142.313)" fill="#263238"/>
      <path id="Path_43812" data-name="Path 43812" d="M256.539,169.755c-.132.778-.669,1.377-1.2,1.291s-.832-.778-.7-1.618.677-1.377,1.2-1.291S256.679,168.954,256.539,169.755Z" transform="translate(-157.495 -143.738)" fill="#263238"/>
      <path id="Path_43813" data-name="Path 43813" d="M244.879,167.775c-.132.778-.669,1.377-1.2,1.291s-.832-.817-.7-1.618.677-1.384,1.2-1.291S245.019,166.966,244.879,167.775Z" transform="translate(-154.903 -143.297)" fill="#263238"/>
      <path id="Path_43814" data-name="Path 43814" d="M244.3,166.017l-1.835-.887S243.191,166.8,244.3,166.017Z" transform="translate(-154.794 -143.071)" fill="#263238"/>
      <path id="Path_43815" data-name="Path 43815" d="M255.955,168l-1.835-.879S254.851,168.792,255.955,168Z" transform="translate(-157.386 -143.513)" fill="#263238"/>
      <path id="Path_43816" data-name="Path 43816" d="M241.42,160.834a.3.3,0,0,0,.311,0,3.888,3.888,0,0,1,3.515-.778.3.3,0,1,0,.2-.575,4.511,4.511,0,0,0-4.083.84.288.288,0,0,0-.054.42.241.241,0,0,0,.109.093Z" transform="translate(-154.524 -141.777)" fill="#263238"/>
      <path id="Path_43817" data-name="Path 43817" d="M228.75,301.286a30.826,30.826,0,0,1,1.555-9.916h40.713s3.663,5.911,4.612,9.916Z" transform="translate(-151.746 -171.134)" fill="#f5aeae"/>
      <path id="Path_43818" data-name="Path 43818" d="M271.706,288.21l.319,3.64c.148.288-.187.576-.661.576H230.145c-.366,0-.669-.179-.692-.412l-.373-3.647c0-.249.3-.467.7-.467H271A.778.778,0,0,1,271.706,288.21Z" transform="translate(-151.82 -170.361)" fill="#f5aeae"/>
      <path id="Path_43819" data-name="Path 43819" d="M271.706,288.21l.319,3.64c.148.288-.187.576-.661.576H230.145c-.366,0-.669-.179-.692-.412l-.373-3.647c0-.249.3-.467.7-.467H271A.778.778,0,0,1,271.706,288.21Z" transform="translate(-151.82 -170.361)" fill="#fafafa" opacity="0.3"/>
      <path id="Path_43820" data-name="Path 43820" d="M276.484,292.724h1.1c.226,0,.389-.109.373-.249l-.513-4.736c0-.14-.21-.249-.428-.249h-1.128c-.226,0-.389.109-.373.249l.513,4.736A.457.457,0,0,0,276.484,292.724Z" transform="translate(-162.143 -170.271)" fill="#f5aeae"/>
      <path id="Path_43821" data-name="Path 43821" d="M234.2,292.724h1.1c.218,0,.389-.109.373-.249l-.521-4.736c0-.14-.2-.249-.428-.249h-1.1c-.218,0-.389.109-.373.249l.521,4.736C233.786,292.615,233.981,292.724,234.2,292.724Z" transform="translate(-152.747 -170.271)" fill="#f5aeae"/>
      <path id="Path_43822" data-name="Path 43822" d="M255.34,292.724h1.073c.218,0,.389-.109.373-.249l-.521-4.736c0-.14-.21-.249-.428-.249h-1.1c-.218,0-.389.109-.373.249l.521,4.736A.469.469,0,0,0,255.34,292.724Z" transform="translate(-157.439 -170.271)" fill="#f5aeae"/>
      <path id="Path_43823" data-name="Path 43823" d="M293.99,228q2.683,8.71,5.156,17.514l2.481,8.757,1.237,4.355.311,1.073.156.537.039.124h0l-.124-.194a3.11,3.11,0,0,0-.715-.731,3.888,3.888,0,0,0-2.084-.739,3.492,3.492,0,0,0-1.649.327c-.56.3-.505.373-.459.319a2.579,2.579,0,0,0,.358-.381,14.082,14.082,0,0,0,1.011-1.439c.684-1.12,1.361-2.38,2-3.671,1.322-2.582,2.512-5.319,3.717-8.073s2.333-5.537,3.5-8.345,2.279-5.631,3.43-8.415l4.969,1.478c-1.291,6.066-2.8,12.023-4.666,17.957-.918,2.979-1.936,5.926-3.111,8.912-.607,1.493-1.252,2.986-2.053,4.534a23.058,23.058,0,0,1-1.431,2.426,11.478,11.478,0,0,1-1.089,1.384,7.241,7.241,0,0,1-2.255,1.719,5.763,5.763,0,0,1-2.753.576,5.669,5.669,0,0,1-3.111-1.143,6.415,6.415,0,0,1-1.47-1.555,8.457,8.457,0,0,1-.661-1.205c-.07-.171-.148-.35-.2-.505l-.148-.381-.2-.552-.4-1.1c-.529-1.454-1.065-2.909-1.555-4.363-1-2.909-1.991-5.809-2.924-8.726q-2.862-8.741-5.335-17.568Z" transform="translate(-164.018 -157.047)" fill="#b65b52"/>
      <path id="Path_43824" data-name="Path 43824" d="M289.188,213.116c4.083,1.237,10.328,17.249,10.328,17.249l-15.826,11.316s-7.116-13.688-5.405-18.96C280.073,217.23,284.537,211.7,289.188,213.116Z" transform="translate(-162.699 -153.688)" fill="#f5aeae"/>
      <path id="Path_43825" data-name="Path 43825" d="M289.188,213.116c4.083,1.237,10.328,17.249,10.328,17.249l-15.826,11.316s-7.116-13.688-5.405-18.96C280.073,217.23,284.537,211.7,289.188,213.116Z" transform="translate(-162.699 -153.688)" fill="#fff" opacity="0.5"/>
      <path id="Path_43826" data-name="Path 43826" d="M320.08,229.316l-2.17-9.566,9.021,4.76s.109,6.439-3.531,8.469Z" transform="translate(-171.567 -155.213)" fill="#b55b52"/>
      <path id="Path_43827" data-name="Path 43827" d="M321.69,209.99l5.755,4.083-.513,8.267-9.021-4.76Z" transform="translate(-171.567 -153.043)" fill="#b55b52"/>
    </g>
    <g id="freepik--Chat--inject-38" transform="translate(90.243 82.19)">
      <path id="Path_43828" data-name="Path 43828" d="M111.665,148.09h62.994a8.695,8.695,0,0,1,8.757,9.332l-1.758,28.511a10.11,10.11,0,0,1-9.908,9.332h-7.295l2.979,9.791-14.248-9.791H108.78a8.695,8.695,0,0,1-8.757-9.332l1.742-28.511a10.11,10.11,0,0,1,9.9-9.332Z" transform="translate(-100 -96.839)" fill="#f5aeae"/>
      <path id="Path_43829" data-name="Path 43829" d="M172.888,166.279H119.616A1.633,1.633,0,0,1,118,164.5h0a1.9,1.9,0,0,1,1.859-1.758h53.28a1.641,1.641,0,0,1,1.633,1.758h0a1.89,1.89,0,0,1-1.882,1.781Z" transform="translate(-103.999 -100.096)" fill="#fff"/>
      <path id="Path_43830" data-name="Path 43830" d="M141.139,179.675H118.788a1.641,1.641,0,0,1-1.649-1.758h0a1.9,1.9,0,0,1,1.866-1.758H141.38a1.641,1.641,0,0,1,1.657,1.758h0A1.905,1.905,0,0,1,141.139,179.675Z" transform="translate(-103.809 -103.079)" fill="#fff"/>
      <path id="Path_43831" data-name="Path 43831" d="M160.111,193.065H117.968a1.641,1.641,0,0,1-1.649-1.758h0a1.89,1.89,0,0,1,1.867-1.758h42.144a1.633,1.633,0,0,1,1.649,1.758h0a1.9,1.9,0,0,1-1.867,1.758Z" transform="translate(-103.627 -106.056)" fill="#fff"/>
      <path id="Path_43832" data-name="Path 43832" d="M166.119,179.675h-8.811a1.641,1.641,0,0,1-1.649-1.758h0a1.905,1.905,0,0,1,1.866-1.758h8.8a1.633,1.633,0,0,1,1.649,1.758h0A1.9,1.9,0,0,1,166.119,179.675Z" transform="translate(-112.372 -103.079)" fill="#fff"/>
      <path id="Path_43833" data-name="Path 43833" d="M215.383,82.19H181.04a7.847,7.847,0,0,0-7.707,7.256L172,111.641a6.774,6.774,0,0,0,6.82,7.256h5.623l-3.251,7.621,12.023-7.621h19.925a7.847,7.847,0,0,0,7.707-7.256l1.361-22.2a6.774,6.774,0,0,0-6.82-7.256Z" transform="translate(-116 -82.19)" fill="#f5aeae"/>
      <g id="Group_41401" data-name="Group 41401" transform="translate(55.977)" opacity="0.5">
        <path id="Path_43834" data-name="Path 43834" d="M215.383,82.19H181.04a7.847,7.847,0,0,0-7.707,7.256L172,111.641a6.774,6.774,0,0,0,6.82,7.256h5.623l-3.251,7.621,12.023-7.621h19.925a7.847,7.847,0,0,0,7.707-7.256l1.361-22.2a6.774,6.774,0,0,0-6.82-7.256Z" transform="translate(-171.978 -82.19)" fill="#fafafa"/>
      </g>
      <path id="Path_43835" data-name="Path 43835" d="M203.9,105.988a2.248,2.248,0,0,1-2.178,1.719H199.7c0-.575.047-.925.054-1.05a7.3,7.3,0,0,1,.84-3.212,10.739,10.739,0,0,1,2.753-2.831,21.145,21.145,0,0,0,2.442-2.069,2.924,2.924,0,0,0,.684-1.7,2.706,2.706,0,0,0-.894-2.216,3.842,3.842,0,0,0-2.722-.918,4.417,4.417,0,0,0-2.877.964,4.58,4.58,0,0,0-1.167,1.454,2.333,2.333,0,0,1-2.255,1.26h0a1.975,1.975,0,0,1-1.431-3.01,7.909,7.909,0,0,1,1.781-2.069,8.951,8.951,0,0,1,5.965-1.968,8.355,8.355,0,0,1,5.942,1.991,5.685,5.685,0,0,1,1.968,4.666,5.444,5.444,0,0,1-1,2.769,19.987,19.987,0,0,1-3.756,3.562,7.271,7.271,0,0,0-1.851,1.874,2.964,2.964,0,0,0-.272.778Zm-4.441,5.584v-.249a2.248,2.248,0,0,1,2.216-2.084h.28a1.944,1.944,0,0,1,1.968,2.084v.249a2.255,2.255,0,0,1-2.216,2.092h-.249a1.944,1.944,0,0,1-2-2.092Z" transform="translate(-121.079 -84.002)" fill="#fff"/>
    </g>
  </g>
</svg>
