<svg xmlns="http://www.w3.org/2000/svg" width="337.162" height="294.002" viewBox="0 0 337.162 294.002">
  <g id="teachersimg" transform="translate(-56.11 -83.25)">
    <g id="freepik--background-simple--inject-187" transform="translate(80.462 85.074)">
      <path id="Path_43479" data-name="Path 43479" d="M101.787,308.977c3.1,8.416,10.921,14.981,19.615,17.207,13.042,3.365,26.084-4.347,39.126-7.886,23.163-6.286,47.586.687,70.723,7.051s48.229,12.068,70.644,3.478c19.241-7.356,33.353-24.267,43.108-42.4,18.52-34.474,23.989-74.357,26.7-113.4,1.209-17.389,1.878-35.344-3.626-51.916s-18.407-31.718-35.544-35.048c-16.45-3.208-33.092,4.843-46.386,15.05s-24.823,22.841-39.335,31.223c-21.145,12.173-46.951,14.242-71.079,10.477-14.937-2.33-39.848-30.649-65.21-20.18C83.546,133.736,71.791,227.9,101.787,308.977Z" transform="translate(-84.117 -85.348)" fill="#fff0f0"/>
      <path id="Path_43480" data-name="Path 43480" d="M101.787,308.977c3.1,8.416,10.921,14.981,19.615,17.207,13.042,3.365,26.084-4.347,39.126-7.886,23.163-6.286,47.586.687,70.723,7.051s48.229,12.068,70.644,3.478c19.241-7.356,33.353-24.267,43.108-42.4,18.52-34.474,23.989-74.357,26.7-113.4,1.209-17.389,1.878-35.344-3.626-51.916s-18.407-31.718-35.544-35.048c-16.45-3.208-33.092,4.843-46.386,15.05s-24.823,22.841-39.335,31.223c-21.145,12.173-46.951,14.242-71.079,10.477-14.937-2.33-39.848-30.649-65.21-20.18C83.546,133.736,71.791,227.9,101.787,308.977Z" transform="translate(-84.117 -85.348)" fill="#fff" opacity="0.9"/>
    </g>
    <g id="freepik--Shadows--inject-187" transform="translate(56.11 357.567)">
      <g id="freepik--Shadow--inject-214--inject-187" transform="translate(0 0)">
        <ellipse id="freepik--path--inject-214--inject-187" cx="168.581" cy="9.842" rx="168.581" ry="9.842" fill="#f5f5f5"/>
      </g>
    </g>
    <g id="freepik--Plants--inject-187" transform="translate(83.978 201.063)">
      <path id="Path_43481" data-name="Path 43481" d="M389.14,335.452c-8.695,6.7-11.207,21.389-11.651,31.736a.735.735,0,0,1-1.469,0c.461-10.955,2.956-25.745,12.381-33.04.748-.583,1.487.7.739,1.269Z" transform="translate(-125.737 -233.793)" fill="#263238"/>
      <path id="Path_43482" data-name="Path 43482" d="M367.785,327c2.217-.252,4.087,2.017,5.052,3.678,5,8.651,3.069,21.737,2.122,31-.1.93-1.574.939-1.478,0,.922-9.034,2.608-20.806-1.478-29.4-.7-1.469-2.2-4.034-4.217-3.8-.939.1-.93-1.365,0-1.478Z" transform="translate(-124.57 -232.877)" fill="#263238"/>
      <path id="Path_43483" data-name="Path 43483" d="M361.611,340.673c9.3-2.3,10.434,18.337,10.738,22.789.061.948-1.409.939-1.469,0-.374-6.025-.669-14.651-5.026-19.476-.869-.974-2.408-2.252-3.852-1.887-.922.226-1.313-1.2-.391-1.426Z" transform="translate(-123.787 -234.641)" fill="#263238"/>
      <path id="Path_43484" data-name="Path 43484" d="M391.594,351.836c-7.695-5.7-10.2,9.269-10.625,13.59-.1.93-1.565.939-1.469,0,.478-4.9,1.226-13.772,6.878-15.824a6.582,6.582,0,0,1,5.956.965c.756.556,0,1.835-.739,1.269Z" transform="translate(-126.19 -235.787)" fill="#263238"/>
      <path id="Path_43485" data-name="Path 43485" d="M358.186,355.074a5.452,5.452,0,0,1,4.582-1.669c4.7.783,5.991,7.825,6.7,11.538.183.93-1.235,1.322-1.417.391-.617-3.165-3.573-14.538-8.825-9.225a.739.739,0,0,1-1.043-1.035Z" transform="translate(-123.388 -236.322)" fill="#263238"/>
      <path id="Path_43486" data-name="Path 43486" d="M385.78,404.97h-22.25a18.007,18.007,0,0,1-6.391-13.755c0-6.312,3.547-25.215,3.547-25.215h27.936s3.547,18.928,3.547,25.215a18,18,0,0,1-6.388,13.752Z" transform="translate(-123.272 -237.97)" fill="#263238"/>
      <path id="Path_43487" data-name="Path 43487" d="M391.919,358.742c-6.712,0-13.285-2.721-14.668-6.086s2.921-6.086,9.634-6.086a26.024,26.024,0,0,1,6.408.817,18.763,18.763,0,0,1,5.738-.817c6.712,0,13.277,2.721,14.668,6.086s-2.921,6.086-9.634,6.086Z" transform="translate(-125.864 -235.434)" fill="#fff0f0"/>
      <path id="Path_43488" data-name="Path 43488" d="M391.919,358.742c-6.712,0-13.285-2.721-14.668-6.086s2.921-6.086,9.634-6.086a26.024,26.024,0,0,1,6.408.817,18.763,18.763,0,0,1,5.738-.817c6.712,0,13.277,2.721,14.668,6.086s-2.921,6.086-9.634,6.086Z" transform="translate(-125.864 -235.434)" opacity="0.1"/>
      <path id="Path_43489" data-name="Path 43489" d="M342.868,344.117c-5.486,0-7.712-2.226-4.965-4.973s9.416-4.965,14.911-4.965a11.625,11.625,0,0,1,4.3.669,26.013,26.013,0,0,1,5.643-.67c5.486,0,7.712,2.226,4.965,4.965s-9.416,4.973-14.9,4.973Z" transform="translate(-120.608 -233.816)" fill="#fff0f0"/>
      <path id="Path_43490" data-name="Path 43490" d="M398.821,338.012c-6.912,0-15.3-2.8-18.763-6.251s-.652-6.251,6.26-6.251a33.1,33.1,0,0,1,7.095.869,14.694,14.694,0,0,1,5.408-.869c6.9,0,15.3,2.8,18.754,6.251s.652,6.251-6.252,6.251Z" transform="translate(-126.07 -232.684)" fill="#fff0f0"/>
      <path id="Path_43491" data-name="Path 43491" d="M398.821,338.012c-6.912,0-15.3-2.8-18.763-6.251s-.652-6.251,6.26-6.251a33.1,33.1,0,0,1,7.095.869,14.694,14.694,0,0,1,5.408-.869c6.9,0,15.3,2.8,18.754,6.251s.652,6.251-6.252,6.251Z" transform="translate(-126.07 -232.684)" fill="#fff" opacity="0.2"/>
      <path id="Path_43492" data-name="Path 43492" d="M356.935,329.671c-3.478,0-5.678-1.4-4.956-3.13s4.1-3.121,7.547-3.121a9.441,9.441,0,0,1,2.948.417,13.234,13.234,0,0,1,3.3-.417c3.478,0,5.669,1.4,4.956,3.121s-4.1,3.13-7.547,3.13Z" transform="translate(-122.581 -232.412)" fill="#fff0f0"/>
      <path id="Path_43493" data-name="Path 43493" d="M356.935,329.671c-3.478,0-5.678-1.4-4.956-3.13s4.1-3.121,7.547-3.121a9.441,9.441,0,0,1,2.948.417,13.234,13.234,0,0,1,3.3-.417c3.478,0,5.669,1.4,4.956,3.121s-4.1,3.13-7.547,3.13Z" transform="translate(-122.581 -232.412)" fill="#fff" opacity="0.3"/>
      <path id="Path_43494" data-name="Path 43494" d="M351.967,358.431c-3.478,0-6.834-1.4-7.547-3.121s1.5-3.13,4.956-3.13a13.235,13.235,0,0,1,3.3.426,9.424,9.424,0,0,1,2.948-.426c3.478,0,6.834,1.4,7.547,3.13s-1.5,3.121-4.956,3.121Z" transform="translate(-121.594 -236.166)" fill="#fff0f0"/>
      <path id="Path_43495" data-name="Path 43495" d="M351.967,358.431c-3.478,0-6.834-1.4-7.547-3.121s1.5-3.13,4.956-3.13a13.235,13.235,0,0,1,3.3.426,9.424,9.424,0,0,1,2.948-.426c3.478,0,6.834,1.4,7.547,3.13s-1.5,3.121-4.956,3.121Z" transform="translate(-121.594 -236.166)" opacity="0.2"/>
      <path id="Path_43496" data-name="Path 43496" d="M360.49,369.478c.374-2.121.635-3.478.635-3.478h27.936s.261,1.382.635,3.478Z" transform="translate(-123.709 -237.97)" fill="#fff0f0"/>
      <path id="Path_43497" data-name="Path 43497" d="M357.576,336.34s-7.66,2.556-10.086,6.764C347.49,343.1,347.873,336.975,357.576,336.34Z" transform="translate(-122.013 -234.099)" fill="#fafafa"/>
      <path id="Path_43498" data-name="Path 43498" d="M362.758,324.81a11.3,11.3,0,0,0-3.208,2.765,3.913,3.913,0,0,1,3.208-2.765Z" transform="translate(-123.587 -232.594)" fill="#fafafa"/>
      <path id="Path_43499" data-name="Path 43499" d="M397.43,328s8.3,3.043,13.416,8.79A17.25,17.25,0,0,0,397.43,328Z" transform="translate(-128.531 -233.01)" fill="#fafafa"/>
      <path id="Path_43500" data-name="Path 43500" d="M397.43,349.26a20.867,20.867,0,0,1,8.695,6.773S404.586,350.277,397.43,349.26Z" transform="translate(-128.531 -235.785)" fill="#e6e6e6"/>
      <path id="Path_43501" data-name="Path 43501" d="M354.09,354.11a4.086,4.086,0,0,1,2.174,3.321A7.33,7.33,0,0,1,354.09,354.11Z" transform="translate(-122.874 -236.418)" fill="#fafafa"/>
      <path id="Path_43502" data-name="Path 43502" d="M105.019,220.706a2.921,2.921,0,0,1,3.1-1.548,3.069,3.069,0,0,1,2.313,2.687,2.608,2.608,0,0,1,2.956-.078,2.939,2.939,0,0,1,1.182,2.852,2.182,2.182,0,0,1,3.156.643,2.443,2.443,0,0,1-.965,3.234,1.565,1.565,0,0,1-.078,3.113,1.687,1.687,0,0,1,1.548,1.478,1.739,1.739,0,0,1-1.165,1.835,1.417,1.417,0,0,1,.339,2.191,1.278,1.278,0,0,1-2.017-.635.417.417,0,0,1-.661.1.469.469,0,0,1,.13-.7.783.783,0,0,1-1.339-.339,1.921,1.921,0,0,1-2.608,2.043,1.182,1.182,0,0,1-.774,1.582,2.608,2.608,0,0,1-1.878-.365,4.147,4.147,0,0,0-1.843-.617,5.653,5.653,0,0,0-1.643.452,4.965,4.965,0,0,1-5.026-1.322,2.13,2.13,0,0,1-3.574-.548,1.609,1.609,0,0,1-1.391,1.322,1.582,1.582,0,0,1-1.548-1.148,6.6,6.6,0,0,1-.043.922,1.906,1.906,0,0,1-1.948-2.548,1.956,1.956,0,0,1-1.852-1.7,2.017,2.017,0,0,1,1.382-2.13,3.765,3.765,0,0,1-.07-7.147,1.791,1.791,0,0,1,1.739.235,1.087,1.087,0,0,1,0,1.626,3.478,3.478,0,0,1,1.478-3.887,3.069,3.069,0,0,1,3.878.826,1.948,1.948,0,0,1,0-2.148,1.739,1.739,0,0,1,1.939-.652,1.939,1.939,0,0,1,2.1-1.591,2.026,2.026,0,0,1,1.582,2.165.983.983,0,0,1,1.739-.339C105.706,220.437,105.019,220.706,105.019,220.706Z" transform="translate(-88.162 -218.75)" fill="#fff0f0"/>
      <g id="Group_41381" data-name="Group 41381" transform="translate(3.816 2.121)" opacity="0.4">
        <path id="Path_43503" data-name="Path 43503" d="M106.6,231.543a1.739,1.739,0,0,1,1.33-.322,1.226,1.226,0,0,1,.974.869.948.948,0,0,1-.652,1.1c-.556.139-1.113-.322-1.678-.243a3.749,3.749,0,0,0-.583.183,2.9,2.9,0,0,1-2.3-.817,2.609,2.609,0,0,1-.635-.609.87.87,0,0,1-.07-.869,1.113,1.113,0,0,1,1.113-.365,4.469,4.469,0,0,1,2.261.948.781.781,0,0,0-.07-.391Z" transform="translate(-93.902 -222.396)" fill="#fafafa"/>
        <path id="Path_43504" data-name="Path 43504" d="M93.428,230.839a2.339,2.339,0,0,1,.713-.374.652.652,0,0,1,.53,1.183,2.139,2.139,0,0,1-1.035.356c-.374.052-.869.07-1.035-.261a.652.652,0,0,1,.174-.748,1.965,1.965,0,0,1,.739-.365Z" transform="translate(-92.55 -222.396)" fill="#fafafa"/>
        <path id="Path_43505" data-name="Path 43505" d="M114.228,223.681a2.608,2.608,0,0,1,1.513,1.8.725.725,0,0,1-.165.678.7.7,0,0,1-.513,0l-2.165-.513a2.982,2.982,0,0,1,.974.513,1.061,1.061,0,0,1,.374.991,1.009,1.009,0,0,1-1,.678,2.174,2.174,0,0,1-1.191-.478,1.53,1.53,0,0,1-.756-1.1c0-.47.583-.869.939-.6a8.017,8.017,0,0,1-2.321-1.052,2.156,2.156,0,0,1-.678-.635.869.869,0,0,1-.061-.869c.739-1.348,1.669.626,2.122.8C112.176,224.22,113.15,223.22,114.228,223.681Z" transform="translate(-94.709 -221.376)" fill="#fafafa"/>
        <path id="Path_43506" data-name="Path 43506" d="M117.931,230.213a.739.739,0,0,1-.191.748.461.461,0,0,1-.7-.139,2.409,2.409,0,0,1,1.3.73c.3.409.226,1.113-.252,1.269a1.148,1.148,0,0,1-.869-.2A15.894,15.894,0,0,1,115,231.152c.209.5-.3,1.061-.869,1.1a2.608,2.608,0,0,1-1.5-.522c-.565-.348-1.209-.869-1.061-1.522a1.1,1.1,0,0,1,1.4-.643,3.182,3.182,0,0,1,1.348,1.035c-.3-.435.13-1.1.661-1.165a1.6,1.6,0,0,1,1.356.626c-.6-.33-.739-1.191.07-1.3C116.914,228.709,117.8,229.778,117.931,230.213Z" transform="translate(-95.03 -222.178)" fill="#fafafa"/>
        <path id="Path_43507" data-name="Path 43507" d="M99.464,228.2a.869.869,0,1,1,.435,1.669,1.391,1.391,0,0,1,.922.478.748.748,0,0,1,.191.539.661.661,0,0,1-.652.5,1.913,1.913,0,0,1-.869-.235,1.6,1.6,0,0,1,.869.235.539.539,0,0,1,.122.765.722.722,0,0,1-.7.078,3.4,3.4,0,0,1-1.409-.8,1.4,1.4,0,0,1-1.191.5.817.817,0,0,1-.678-.974.869.869,0,0,1,.73-.53,2.313,2.313,0,0,1,.939.148,1.739,1.739,0,0,1-.748-.869c-.113-.365.13-.869.513-.817s.643.609.982.817C99.333,229.357,98.551,228.54,99.464,228.2Z" transform="translate(-93.065 -222.096)" fill="#fafafa"/>
        <path id="Path_43508" data-name="Path 43508" d="M108.437,226.135a1.739,1.739,0,0,1,.617,1.565,1.8,1.8,0,0,1-.922,1.6,1.478,1.478,0,0,1-1.9-1.148,2.087,2.087,0,0,1,1.165-2.087A1.139,1.139,0,0,1,108.437,226.135Z" transform="translate(-94.335 -221.813)" fill="#fafafa"/>
        <path id="Path_43509" data-name="Path 43509" d="M102.161,225.259l-.2.174a.974.974,0,1,1,0,1.217,1.461,1.461,0,0,1-1.739-.322,1.113,1.113,0,0,1,.235-1.626.869.869,0,0,1,1.3.774l.235-.261Z" transform="translate(-93.519 -221.632)" fill="#fafafa"/>
        <path id="Path_43510" data-name="Path 43510" d="M95.365,226.476a3.2,3.2,0,0,1,.93,1.3,1.078,1.078,0,0,1-.617,1.33c-.522.13-1.017-.3-1.322-.748a1.626,1.626,0,0,1-.313-1.374c.148-.461.817-.73,1.148-.374Z" transform="translate(-92.74 -221.876)" fill="#fafafa"/>
        <path id="Path_43511" data-name="Path 43511" d="M104.957,222.624a.869.869,0,0,1,1.226-.339,1.087,1.087,0,0,1,.383,1.278,1.365,1.365,0,0,1-1.113.8c-.591.07-1.3-.409-1.156-.991a1.3,1.3,0,0,1-1.139.426,3.069,3.069,0,0,1-1.174-.443c-.5-.287-1.026-.73-.974-1.3a1.009,1.009,0,0,1,.93-.869,1.739,1.739,0,0,1,1.252.469,10.322,10.322,0,0,0,.8.722,1,1,0,0,0,1.009.148Z" transform="translate(-93.654 -221.189)" fill="#fafafa"/>
      </g>
      <path id="Path_43512" data-name="Path 43512" d="M96.8,251.472h14.929l1.461-15.042H95.34Z" transform="translate(-89.099 -221.057)" fill="#fff0f0"/>
      <path id="Path_43513" data-name="Path 43513" d="M96.8,251.472h14.929l1.461-15.042H95.34Z" transform="translate(-89.099 -221.057)" opacity="0.3"/>
      <path id="Path_43514" data-name="Path 43514" d="M93.955,237.02h20.311l.365-2H93.59Z" transform="translate(-88.871 -220.873)" fill="#fafafa"/>
    </g>
    <g id="freepik--Desk--inject-187" transform="translate(73.552 230.26)">
      <path id="Path_43515" data-name="Path 43515" d="M123.31,264.58h6.538l.191,125.256a2.382,2.382,0,0,1-2.374,2.382h0a2.374,2.374,0,0,1-2.374-2.348Z" transform="translate(-82.323 -253.929)" fill="#263238"/>
      <path id="Path_43516" data-name="Path 43516" d="M123.31,264.58h6.538l.191,125.256a2.382,2.382,0,0,1-2.374,2.382h0a2.374,2.374,0,0,1-2.374-2.348Z" transform="translate(-82.323 -253.929)" fill="#fff" opacity="0.2"/>
      <path id="Path_43517" data-name="Path 43517" d="M82.18,264.58h6.547l.183,125.256a2.374,2.374,0,0,1-2.374,2.382h0a2.374,2.374,0,0,1-2.374-2.348Z" transform="translate(-76.954 -253.929)" fill="#263238"/>
      <path id="Path_43518" data-name="Path 43518" d="M82.18,264.58h6.547l.183,125.256a2.374,2.374,0,0,1-2.374,2.382h0a2.374,2.374,0,0,1-2.374-2.348Z" transform="translate(-76.954 -253.929)" fill="#fff" opacity="0.2"/>
      <path id="Path_43519" data-name="Path 43519" d="M302.19,264.58h6.547l.183,125.256a2.374,2.374,0,0,1-2.374,2.382h0a2.374,2.374,0,0,1-2.374-2.348Z" transform="translate(-105.673 -253.929)" fill="#263238"/>
      <path id="Path_43520" data-name="Path 43520" d="M302.19,264.58h6.547l.183,125.256a2.374,2.374,0,0,1-2.374,2.382h0a2.374,2.374,0,0,1-2.374-2.348Z" transform="translate(-105.673 -253.929)" fill="#fff" opacity="0.2"/>
      <path id="Path_43521" data-name="Path 43521" d="M261.07,264.58h6.538l.191,125.256a2.382,2.382,0,0,1-2.374,2.382h0a2.382,2.382,0,0,1-2.382-2.348Z" transform="translate(-100.305 -253.929)" fill="#263238"/>
      <path id="Path_43522" data-name="Path 43522" d="M261.07,264.58h6.538l.191,125.256a2.382,2.382,0,0,1-2.374,2.382h0a2.382,2.382,0,0,1-2.382-2.348Z" transform="translate(-100.305 -253.929)" fill="#fff" opacity="0.2"/>
      <path id="Path_43523" data-name="Path 43523" d="M82.473,288.056l196.961-1.478v-22h-197Z" transform="translate(-76.987 -253.929)" fill="#fff0f0"/>
      <path id="Path_43524" data-name="Path 43524" d="M117.974,264.745l.365,23.032-35.866.278L82.43,264.58Z" transform="translate(-76.987 -253.929)" opacity="0.3"/>
      <path id="Path_43525" data-name="Path 43525" d="M286.286,257.7h0c0-2.965-1.1-5.365-2.461-5.373H78.631c-1.356,0-2.461,2.408-2.461,5.373h0c0,2.956,1.1,5.356,2.461,5.373H283.825C285.181,263.059,286.286,260.66,286.286,257.7Z" transform="translate(-76.17 -252.33)" fill="#263238"/>
      <path id="Path_43526" data-name="Path 43526" d="M286.286,257.7h0c0-2.965-1.1-5.365-2.461-5.373H78.631c-1.356,0-2.461,2.408-2.461,5.373h0c0,2.956,1.1,5.356,2.461,5.373H283.825C285.181,263.059,286.286,260.66,286.286,257.7Z" transform="translate(-76.17 -252.33)" fill="#fff" opacity="0.1"/>
      <path id="Path_43527" data-name="Path 43527" d="M129.138,257.7h0c0-2.965-1.1-5.365-2.469-5.373H78.631c-1.356,0-2.461,2.408-2.461,5.373h0c0,2.956,1.1,5.356,2.461,5.373H126.66C128.034,263.059,129.129,260.66,129.138,257.7Z" transform="translate(-76.17 -252.33)" opacity="0.3"/>
    </g>
    <g id="freepik--speech-bubble--inject-187" transform="translate(198.007 83.25)">
      <path id="Path_43528" data-name="Path 43528" d="M230.089,129.261a2.374,2.374,0,0,1-2.374-2.374v-5.852h-1.174a3.052,3.052,0,0,1-3.052-3.052V90.274a3.052,3.052,0,0,1,3.043-3.034H269.78a3.043,3.043,0,0,1,3.043,3.043v27.7a3.052,3.052,0,0,1-3.052,3.052H241.514l-10,7.73a2.347,2.347,0,0,1-1.426.5Zm-3.547-41.152a2.182,2.182,0,0,0-2.174,2.165v27.71a2.191,2.191,0,0,0,2.182,2.182h2.017v6.721a1.5,1.5,0,0,0,1.5,1.5,1.539,1.539,0,0,0,.869-.3l10.251-7.93h28.553a2.191,2.191,0,0,0,2.182-2.182v-27.7a2.174,2.174,0,0,0-2.174-2.174Z" transform="translate(-219.856 -83.771)" fill="#fff0f0"/>
      <rect id="Rectangle_5160" data-name="Rectangle 5160" width="5.417" height="0.661" transform="translate(20.58 0.009)" fill="#fff0f0"/>
      <path id="Path_43529" data-name="Path 43529" d="M219.979,91.067h-.669V87.8a4.556,4.556,0,0,1,4.556-4.547h12.077V83.9H223.866a3.887,3.887,0,0,0-3.887,3.887Z" transform="translate(-219.31 -83.25)" fill="#fff0f0"/>
      <circle id="Ellipse_535" data-name="Ellipse 535" cx="2.869" cy="2.869" r="2.869" transform="translate(15.685 17.007)" fill="#fff0f0"/>
      <path id="Path_43530" data-name="Path 43530" d="M254.216,105.679a2.878,2.878,0,1,1-2.878-2.869,2.878,2.878,0,0,1,2.878,2.869Z" transform="translate(-223.115 -85.803)" fill="#fff0f0"/>
      <circle id="Ellipse_536" data-name="Ellipse 536" cx="2.869" cy="2.869" r="2.869" transform="translate(35.031 17.007)" fill="#fff0f0"/>
    </g>
    <g id="freepik--character-1--inject-187" transform="translate(129.03 106.044)">
      <path id="Path_43531" data-name="Path 43531" d="M141.736,186.445l3.478-.165,4.843,53.533H146.4c-1.835-.174-2.261-2.226-2.774-6.086l-3.391-37.387C139.38,187.48,140.866,186.445,141.736,186.445Z" transform="translate(-139.977 -119.492)" fill="#fff0f0"/>
      <path id="Path_43532" data-name="Path 43532" d="M141.736,186.445l3.478-.165,4.843,53.533H146.4c-1.835-.174-2.261-2.226-2.774-6.086l-3.391-37.387C139.38,187.48,140.866,186.445,141.736,186.445Z" transform="translate(-139.977 -119.492)" opacity="0.3"/>
      <path id="Path_43533" data-name="Path 43533" d="M147.363,239.813h72.548a1.417,1.417,0,0,0,1.3-1.678l-4.539-50.177a1.739,1.739,0,0,0-1.609-1.678H142.512a1.417,1.417,0,0,0-1.3,1.678l4.539,50.177A1.739,1.739,0,0,0,147.363,239.813Z" transform="translate(-140.136 -119.492)" fill="#fff0f0"/>
      <path id="Path_43534" data-name="Path 43534" d="M150.942,234.289H216.83l-3.652-41.769H147.29Z" transform="translate(-140.932 -120.307)" fill="#fff0f0"/>
      <path id="Path_43535" data-name="Path 43535" d="M151.438,237.087h64.932a3.008,3.008,0,0,0,3.043-3.339l-3.634-41.508a3.713,3.713,0,0,0-3.626-3.33H147.221a3.017,3.017,0,0,0-3.043,3.33l3.634,41.508A3.713,3.713,0,0,0,151.438,237.087Z" transform="translate(-140.523 -119.836)" fill="#263238"/>
      <path id="Path_43536" data-name="Path 43536" d="M150.942,234.289H216.83l-3.652-41.769H147.29Z" transform="translate(-140.932 -120.307)" fill="#fff0f0"/>
      <path id="Path_43537" data-name="Path 43537" d="M150.942,234.289H216.83l-3.652-41.769H147.29Z" transform="translate(-140.932 -120.307)" fill="#fff" opacity="0.4"/>
      <path id="Path_43538" data-name="Path 43538" d="M171.358,188.93,158.49,237.072h4.33l12.729-48.142Z" transform="translate(-142.394 -119.838)" fill="#fff" opacity="0.1" style="isolation: isolate"/>
      <path id="Path_43539" data-name="Path 43539" d="M179.048,188.93,166.18,237.072h8.582l12.729-48.142Z" transform="translate(-143.397 -119.838)" fill="#fff" opacity="0.1" style="isolation: isolate"/>
      <path id="Path_43540" data-name="Path 43540" d="M157.2,206.347a2.9,2.9,0,0,1-2.93,3.339,3.887,3.887,0,0,1-3.747-3.339,2.9,2.9,0,0,1,2.93-3.347,3.886,3.886,0,0,1,3.747,3.347Z" transform="translate(-141.349 -121.675)" fill="#fff0f0"/>
      <path id="Path_43541" data-name="Path 43541" d="M157.2,206.347a2.9,2.9,0,0,1-2.93,3.339,3.887,3.887,0,0,1-3.747-3.339,2.9,2.9,0,0,1,2.93-3.347,3.886,3.886,0,0,1,3.747,3.347Z" transform="translate(-141.349 -121.675)" opacity="0.3"/>
      <path id="Path_43542" data-name="Path 43542" d="M154.548,209.873a3.008,3.008,0,0,0,1.878-.6l-.313-1.043a.956.956,0,0,0-.869-.687h-.4l-.052-.435a1.235,1.235,0,0,0,.583-1.278,1.548,1.548,0,0,0-1.426-1.4,1.156,1.156,0,0,0-1.078,1.4,1.635,1.635,0,0,0,.869,1.278l.052.435h-.4a.713.713,0,0,0-.73.687l-.061,1.043a3.73,3.73,0,0,0,1.948.6Z" transform="translate(-141.625 -121.862)" fill="#fff"/>
      <path id="Path_43543" data-name="Path 43543" d="M160.916,205.979h13.129c.609,0,.487-.939-.113-.939H160.75c-.6,0-.487.939.122.939Z" transform="translate(-142.637 -121.941)" fill="#fff"/>
      <path id="Path_43544" data-name="Path 43544" d="M161.208,208.566h17.3c.4,0,.322-.626-.078-.626h-17.3C160.73,207.94,160.8,208.566,161.208,208.566Z" transform="translate(-142.703 -122.32)" fill="#fff"/>
      <path id="Path_43545" data-name="Path 43545" d="M184.678,208.189a.626.626,0,0,1-.643.73.87.87,0,0,1-.826-.73.635.635,0,0,1,.643-.739A.869.869,0,0,1,184.678,208.189Z" transform="translate(-145.619 -122.256)" fill="#263238"/>
      <path id="Path_43546" data-name="Path 43546" d="M184.678,208.189a.626.626,0,0,1-.643.73.87.87,0,0,1-.826-.73.635.635,0,0,1,.643-.739A.869.869,0,0,1,184.678,208.189Z" transform="translate(-145.619 -122.256)" fill="#fff" opacity="0.5"/>
      <path id="Path_43547" data-name="Path 43547" d="M147.29,192.52l.322,3.739H213.5l-.322-3.739Z" transform="translate(-140.932 -120.307)" fill="#fff0f0"/>
      <path id="Path_43548" data-name="Path 43548" d="M150.542,194.318a.687.687,0,0,1-.7.756.869.869,0,0,1-.817-.756.678.678,0,0,1,.687-.748A.869.869,0,0,1,150.542,194.318Z" transform="translate(-141.158 -120.444)" fill="#fff"/>
      <path id="Path_43549" data-name="Path 43549" d="M152.824,194.318a.678.678,0,0,1-.687.756.869.869,0,0,1-.817-.756.678.678,0,0,1,.687-.748A.869.869,0,0,1,152.824,194.318Z" transform="translate(-141.457 -120.444)" fill="#fff"/>
      <path id="Path_43550" data-name="Path 43550" d="M155.106,194.318a.687.687,0,0,1-.687.756.869.869,0,0,1-.869-.756.678.678,0,0,1,.687-.748A.869.869,0,0,1,155.106,194.318Z" transform="translate(-141.748 -120.444)" fill="#fff"/>
      <rect id="Rectangle_5161" data-name="Rectangle 5161" width="77.104" height="4.086" rx="1.81" transform="translate(4.993 120.469)" fill="#fff0f0"/>
      <rect id="Rectangle_5162" data-name="Rectangle 5162" width="77.104" height="4.086" rx="1.81" transform="translate(4.993 120.469)" opacity="0.3"/>
      <path id="Path_43551" data-name="Path 43551" d="M179.47,248h76.47v.93a3.147,3.147,0,0,1-3.147,3.147H182.626a3.148,3.148,0,0,1-3.147-3.147V248Z" transform="translate(-145.132 -127.549)" fill="#fff0f0"/>
      <path id="Path_43552" data-name="Path 43552" d="M179.47,248h76.47v.93a3.147,3.147,0,0,1-3.147,3.147H182.626a3.148,3.148,0,0,1-3.147-3.147V248Z" transform="translate(-145.132 -127.549)" fill="#fff" opacity="0.4"/>
      <path id="Path_43553" data-name="Path 43553" d="M219.1,248.15a2.052,2.052,0,0,0,2.043,2.043H230.5a2.043,2.043,0,0,0,2.043-2.043Z" transform="translate(-150.305 -127.568)" opacity="0.3"/>
      <path id="Path_43554" data-name="Path 43554" d="M217.333,240.059H151.5l-.356-4.069h65.836Z" transform="translate(-141.434 -125.981)" fill="#fff0f0"/>
      <path id="Path_43555" data-name="Path 43555" d="M210.25,238.575H164.516l-.026-.365h45.734Z" transform="translate(-143.177 -126.271)" fill="#fff"/>
      <path id="Path_43556" data-name="Path 43556" d="M218.5,238.551c0,.174-.1.313-.356.313a.652.652,0,0,1-.374-.113l.07-.139a.452.452,0,0,0,.287.1c.13,0,.2-.052.191-.148s-.07-.148-.27-.148h-.235v-.522h.565v.148h-.409v.226h.1C218.361,238.264,218.483,238.386,218.5,238.551Z" transform="translate(-150.131 -126.229)" fill="#fff"/>
      <path id="Path_43557" data-name="Path 43557" d="M218.68,238.253a.1.1,0,0,1,.1-.113.113.113,0,0,1,.122.113.1.1,0,0,1-.1.113.122.122,0,0,1-.13-.113Zm.052.522a.1.1,0,0,1,.1-.113.122.122,0,0,1,.122.113.1.1,0,0,1-.1.113.113.113,0,0,1-.122-.113Z" transform="translate(-150.25 -126.262)" fill="#fff"/>
      <path id="Path_43558" data-name="Path 43558" d="M219.09,238.366c0-.313.13-.5.356-.5s.417.183.452.5-.13.5-.365.5a.478.478,0,0,1-.443-.5Zm.626,0c0-.235-.122-.339-.252-.339s-.217.1-.191.339.122.339.252.339S219.733,238.6,219.716,238.366Z" transform="translate(-150.304 -126.227)" fill="#fff"/>
      <path id="Path_43559" data-name="Path 43559" d="M220.15,238.366c0-.313.13-.5.365-.5a.478.478,0,0,1,.443.5c0,.313-.13.5-.356.5S220.185,238.679,220.15,238.366Zm.626,0c0-.235-.122-.339-.252-.339s-.209.1-.191.339.122.339.252.339S220.793,238.6,220.776,238.366Z" transform="translate(-150.442 -126.227)" fill="#fff"/>
      <path id="Path_43560" data-name="Path 43560" d="M153.779,238.7v.148h-.713v-.113l.348-.365a.261.261,0,0,0,.1-.2c0-.087-.07-.139-.191-.139a.252.252,0,0,0-.217.1l-.13-.1a.4.4,0,0,1,.348-.157c.209,0,.356.1.365.278a.356.356,0,0,1-.13.3l-.235.243Z" transform="translate(-141.673 -126.226)" fill="#fff"/>
      <path id="Path_43561" data-name="Path 43561" d="M154,238.253a.1.1,0,0,1,.1-.113.122.122,0,0,1,.13.113.1.1,0,0,1-.1.113.113.113,0,0,1-.122-.113Zm.043.522a.1.1,0,0,1,.1-.113.122.122,0,0,1,.122.113.1.1,0,0,1-.1.113.122.122,0,0,1-.165-.113Z" transform="translate(-141.807 -126.262)" fill="#fff"/>
      <path id="Path_43562" data-name="Path 43562" d="M155.09,238.551c0,.174-.1.313-.356.313a.652.652,0,0,1-.374-.113l.07-.139a.452.452,0,0,0,.287.1c.13,0,.2-.052.191-.148s-.07-.148-.27-.148H154.4v-.522h.565v.148h-.417v.226h.1C154.916,238.264,155.073,238.386,155.09,238.551Z" transform="translate(-141.854 -126.229)" fill="#fff"/>
      <path id="Path_43563" data-name="Path 43563" d="M155.3,238.366c0-.313.122-.5.356-.5a.478.478,0,0,1,.443.5c0,.313-.13.5-.356.5A.475.475,0,0,1,155.3,238.366Zm.617,0c0-.235-.122-.339-.252-.339s-.209.1-.191.339.122.339.252.339.183-.1.183-.339Z" transform="translate(-141.977 -126.227)" fill="#fff"/>
      <path id="Path_43564" data-name="Path 43564" d="M225.306,239.654h-2.9l-.261-2.9h2.9Zm-2.461-.487h1.939l-.156-1.939h-1.939Z" transform="translate(-150.703 -126.08)" fill="#fff"/>
      <path id="Path_43565" data-name="Path 43565" d="M183.425,237.84H157.28l.087,1h26.145Z" transform="translate(-142.236 -126.223)" fill="#263238"/>
      <path id="Path_43566" data-name="Path 43566" d="M188.169,238.242a.869.869,0,0,1-.869.922,1.035,1.035,0,0,1-1-.922.869.869,0,0,1,.869-.922,1.026,1.026,0,0,1,1,.922Z" transform="translate(-146.023 -126.155)" fill="#263238"/>
      <path id="Path_43567" data-name="Path 43567" d="M188.169,238.242a.869.869,0,0,1-.869.922,1.035,1.035,0,0,1-1-.922.869.869,0,0,1,.869-.922,1.026,1.026,0,0,1,1,.922Z" transform="translate(-146.023 -126.155)" fill="#fff"/>
      <path id="Path_43568" data-name="Path 43568" d="M217.145,163.848a14.537,14.537,0,0,1,10.781,8.408c3.565,7.634,6.408,18.72,9.077,19.885S251.358,181.8,251.358,181.8s-2.382-7.608,1.182-8.8,2.852-6.512,6.182-5.391,5.217,5.869,4.991,8.486-6.417,8.556-6.417,8.556-11.173,19.876-22.606,18.059-17.572-28.466-17.572-28.466S213.937,163.44,217.145,163.848Z" transform="translate(-149.863 -116.563)" fill="#eec8c0"/>
      <path id="Path_43569" data-name="Path 43569" d="M221,186c2.5,6.747,4.565,11.625,9.321,15.955-5.147-8.269-4.591-23.076-4.591-23.076Z" transform="translate(-150.553 -118.526)" opacity="0.1"/>
      <path id="Path_43570" data-name="Path 43570" d="M171.923,165.948a121.763,121.763,0,0,1,12.39-2.861l.139.113.217.209,1.835,1.409,4.991,3,4.1.643,3.965-.965,2.539-3.53.47-2.035v-.061a37.1,37.1,0,0,1,12.938,2.9,4.4,4.4,0,0,1,2.539,3.739,131.42,131.42,0,0,0,1.739,14c1.652,9.755-3.408,31.588-5.373,39.456a4.434,4.434,0,0,1-3.713,3.321,130.655,130.655,0,0,1-33.779.217,4.434,4.434,0,0,1-3.86-4.347c-.139-12.494-3.191-40.4-4.347-50.429a4.452,4.452,0,0,1,3.217-4.773Z" transform="translate(-143.723 -116.306)" fill="#fff0f0"/>
      <path id="Path_43571" data-name="Path 43571" d="M171.923,165.948a121.763,121.763,0,0,1,12.39-2.861l.139.113.217.209,1.835,1.409,4.991,3,4.1.643,3.965-.965,2.539-3.53.47-2.035v-.061a37.1,37.1,0,0,1,12.938,2.9,4.4,4.4,0,0,1,2.539,3.739,131.42,131.42,0,0,0,1.739,14c1.652,9.755-3.408,31.588-5.373,39.456a4.434,4.434,0,0,1-3.713,3.321,130.655,130.655,0,0,1-33.779.217,4.434,4.434,0,0,1-3.86-4.347c-.139-12.494-3.191-40.4-4.347-50.429a4.452,4.452,0,0,1,3.217-4.773Z" transform="translate(-143.723 -116.306)" fill="#263238"/>
      <path id="Path_43572" data-name="Path 43572" d="M186.561,125.715c-1.626,4.73-4.347,9.877-3.165,14.737s6.425,9.373,11.173,10.947c5.5,1.835,11.912,3.817,15.99-.322,2.017-2.043.869-6.165-1.009-8.347a7.1,7.1,0,0,0-7.825-1.93,19.416,19.416,0,0,0-.47-7.443,12.216,12.216,0,0,0-5.1-7.825C193.448,123.794,187.614,122.681,186.561,125.715Z" transform="translate(-145.607 -111.339)" fill="#263238"/>
      <path id="Path_43573" data-name="Path 43573" d="M188.771,160.067c3.226-3.391,1.93-18.607,1.93-18.607l9.442,6.408s.556,9.416,2.808,11.234c.53.426,1.313.061,1.939.1l-.574,2.4-1.739,2.974-2.417,1.739h-3.574l-3.226-.913L189.7,162.8l-2.991-2.408C187.406,160.293,188.3,160.554,188.771,160.067Z" transform="translate(-146.077 -113.642)" fill="#eec8c0"/>
      <path id="Path_43574" data-name="Path 43574" d="M201.555,154.726c-6.208-.7-9.06-3.93-10.355-6.478l.27-2.539,9.434,6.408Z" transform="translate(-146.663 -114.197)" opacity="0.1"/>
      <path id="Path_43575" data-name="Path 43575" d="M187,132.388c1.991,7.825,2.669,11.19,7.443,14.494,7.19,4.982,16.381.809,16.772-7.451.348-7.451-2.974-19.059-11.3-20.685a11.025,11.025,0,0,0-12.877,13.642Z" transform="translate(-146.071 -110.647)" fill="#eec8c0"/>
      <path id="Path_43576" data-name="Path 43576" d="M202,133.9c.13.643.565,1.1.982,1.026s.669-.669.556-1.313-.574-1.1-.991-1.035S201.947,133.283,202,133.9Z" transform="translate(-148.072 -112.482)" fill="#263238"/>
      <path id="Path_43577" data-name="Path 43577" d="M210.425,132.323c.122.661.565,1.1.983,1.035s.669-.678.548-1.322-.565-1.1-.982-1.017S210.3,131.679,210.425,132.323Z" transform="translate(-149.169 -112.278)" fill="#263238"/>
      <path id="Path_43578" data-name="Path 43578" d="M210.85,130.989l1.461-.739S211.754,131.615,210.85,130.989Z" transform="translate(-149.228 -112.179)" fill="#263238"/>
      <path id="Path_43579" data-name="Path 43579" d="M208.09,134.36a17.963,17.963,0,0,0,3.1,3.687,2.878,2.878,0,0,1-2.226.869Z" transform="translate(-148.868 -112.715)" fill="#ed893e"/>
      <path id="Path_43580" data-name="Path 43580" d="M198.292,132.522a.374.374,0,0,0,.356-.278,4.539,4.539,0,0,1,2.678-2.478.391.391,0,0,0,.243-.5.374.374,0,0,0-.478-.243h0a5.217,5.217,0,0,0-3.174,3.008.383.383,0,0,0,.261.469h0a.278.278,0,0,0,.113.017Z" transform="translate(-147.538 -112.016)" fill="#263238"/>
      <path id="Path_43581" data-name="Path 43581" d="M211.672,127.991a.426.426,0,0,0,.339-.209.391.391,0,0,0-.157-.522,3.782,3.782,0,0,0-3.565-.157.365.365,0,0,0-.165.487h0a.365.365,0,0,0,.513.157h0a3.087,3.087,0,0,1,2.782.165A.5.5,0,0,0,211.672,127.991Z" transform="translate(-148.868 -111.719)" fill="#263238"/>
      <path id="Path_43582" data-name="Path 43582" d="M202.46,132.629l1.469-.739S203.364,133.2,202.46,132.629Z" transform="translate(-148.133 -112.393)" fill="#263238"/>
      <path id="Path_43583" data-name="Path 43583" d="M213.805,116.415a6.286,6.286,0,0,1,2.5,6.53,15.406,15.406,0,0,0-.983,3.217,2.321,2.321,0,0,0,2.122,2.435,14.633,14.633,0,0,1-5.365-.078c-1.739-.461-3.365-1.739-3.426-3.356a16.9,16.9,0,0,1,.2-1.739,1.739,1.739,0,0,0-.67-1.6c-.965-.635-2.243.052-3.408.2-2.13.287-4.234-1.687-3.973-3.556S206.189,110.712,213.805,116.415Z" transform="translate(-147.914 -110.056)" fill="#263238"/>
      <path id="Path_43584" data-name="Path 43584" d="M201.645,113.13c2.852,1.574,10.494,9.46-10.129,8.164,0,0,.043,12.894-6.434,14.642l-16.972-2.8S174.857,98.332,201.645,113.13Z" transform="translate(-143.649 -109.466)" fill="#263238"/>
      <path id="Path_43585" data-name="Path 43585" d="M170.171,127.4c-1.626,4.721-4.347,9.877-3.165,14.737s6.425,9.364,11.173,10.947c5.5,1.835,11.912,3.817,15.99-.322,2.008-2.052.869-6.165-1.009-8.356a7.1,7.1,0,0,0-7.825-1.922,19.406,19.406,0,0,0-.47-7.443,12.242,12.242,0,0,0-5.1-7.877C177.032,125.474,171.224,124.369,170.171,127.4Z" transform="translate(-143.467 -111.558)" fill="#263238"/>
      <path id="Path_43586" data-name="Path 43586" d="M185.825,141.384a5.86,5.86,0,0,0,3.478,2.7c1.974.5,2.93-1.269,2.348-3.121-.539-1.661-2.2-3.93-4.165-3.652a2.608,2.608,0,0,0-2.122,3.026,2.73,2.73,0,0,0,.461,1.052Z" transform="translate(-145.896 -113.097)" fill="#eec8c0"/>
      <path id="Path_43587" data-name="Path 43587" d="M208.9,142.18a7.938,7.938,0,0,1-6.425,0s-.261,3.956,4.434,3.634c.5,0,1.991-.261,1.991-.261a8.3,8.3,0,0,1,0-3.374Z" transform="translate(-148.135 -113.736)" fill="#263238"/>
      <path id="Path_43588" data-name="Path 43588" d="M202.689,143.545a4.1,4.1,0,0,1-.209-1.365,8.382,8.382,0,0,0,5.339.4v1.3A10.888,10.888,0,0,1,202.689,143.545Z" transform="translate(-148.136 -113.736)" fill="#fff"/>
      <path id="Path_43589" data-name="Path 43589" d="M203.23,144.74a9.884,9.884,0,0,1,1.035-.061,6.878,6.878,0,0,1,4.182,1.278c-.478.07-1.139.157-1.435.183C204.917,146.279,203.813,145.575,203.23,144.74Z" transform="translate(-148.234 -114.062)" fill="#c13b37"/>
      <path id="Path_43590" data-name="Path 43590" d="M206.34,161.82s-2.208-.748-3.1,0c0,0,.165,5.73-4.46,6.451s-11.729-5.547-11.729-5.547a4.269,4.269,0,0,0-3.1.487l18.181,19.815C209.435,175.358,206.34,161.82,206.34,161.82Z" transform="translate(-145.718 -116.256)" fill="#fff0f0"/>
      <path id="Path_43591" data-name="Path 43591" d="M170.933,185.608c-1.739-2.374-5.33-12.242-1.417-17.6s27.5,26.867,27.5,26.867C201,192.9,219.493,186.7,219.493,186.7s.617-6.46,3.339-8.034,3.973-5.712,6.286-3.26,5.026,9.251,1.461,11.825a78.168,78.168,0,0,1-7.138,4.539s-14.233,10.06-24.571,13.538S178.237,195.468,170.933,185.608Z" transform="translate(-143.603 -117.029)" fill="#eec8c0"/>
      <path id="Path_43592" data-name="Path 43592" d="M170.933,185.608c-1.739-2.374-5.33-12.242-1.417-17.6s27.5,26.867,27.5,26.867C201,192.9,219.493,186.7,219.493,186.7s.617-6.46,3.339-8.034,3.973-5.712,6.286-3.26,5.026,9.251,1.461,11.825a78.168,78.168,0,0,1-7.138,4.539s-14.233,10.06-24.571,13.538S178.237,195.468,170.933,185.608Z" transform="translate(-143.603 -117.029)" fill="#fff" opacity="0.1"/>
      <path id="Path_43593" data-name="Path 43593" d="M170.933,185.608c-1.739-2.374-5.33-12.242-1.417-17.6s27.5,26.867,27.5,26.867C201,192.9,219.493,186.7,219.493,186.7s.617-6.46,3.339-8.034,3.973-5.712,6.286-3.26,5.026,9.251,1.461,11.825a78.168,78.168,0,0,1-7.138,4.539s-14.233,10.06-24.571,13.538S178.237,195.468,170.933,185.608Z" transform="translate(-143.603 -117.029)" fill="#fff" opacity="0.1"/>
      <path id="Path_43594" data-name="Path 43594" d="M215.989,236.278,214.876,231s-28.91,3-41.248.252L172.02,236.3Z" transform="translate(-144.16 -125.33)" fill="#263238"/>
      <path id="Path_43595" data-name="Path 43595" d="M189.358,146.522A1.574,1.574,0,1,1,187.766,145a1.574,1.574,0,0,1,1.591,1.522Z" transform="translate(-146.012 -114.104)" fill="#fff"/>
    </g>
    <g id="freepik--character-2--inject-187" transform="translate(148.991 132.907)">
      <g id="freepik--Character--inject-187" transform="translate(116.783 0)">
        <path id="Path_43596" data-name="Path 43596" d="M301.714,162.28a23.478,23.478,0,0,1-3.374,5.217,3.586,3.586,0,0,0,2.956.67Z" transform="translate(-297.392 -143.223)" fill="#a02724"/>
        <path id="Path_43597" data-name="Path 43597" d="M324.415,173.6l-5.782,4.347-7.895,5.869a8.018,8.018,0,0,1,.722,2.869c.252,2.191.5,3.817-4.391,5.1a2.756,2.756,0,0,0-2.1,2.13c-.209,1.3.556,2.869,5.043,3.7a20.685,20.685,0,0,0,12.738-1.974c1.922-.93,1.939-2.078,1.165-4.017C321.59,186.042,322.85,179.043,324.415,173.6Z" transform="translate(-298.253 -144.7)" fill="#ff8b7b"/>
        <path id="Path_43598" data-name="Path 43598" d="M300.45,161.416c-.174.678,0,1.3.33,1.391s.774-.391.948-1.069,0-1.3-.33-1.4S300.615,160.729,300.45,161.416Z" transform="translate(-297.659 -142.968)" fill="#263238"/>
        <path id="Path_43599" data-name="Path 43599" d="M305.716,159.924a.435.435,0,0,1-.374-.217,4.226,4.226,0,0,0-3.478-2.087.435.435,0,0,1,0-.869h0a5.147,5.147,0,0,1,4.243,2.521.452.452,0,0,1-.165.6.47.47,0,0,1-.226.052Z" transform="translate(-297.796 -142.501)" fill="#263238"/>
        <path id="Path_43600" data-name="Path 43600" d="M300.392,169.123a12.712,12.712,0,0,0,5.938,9.564,11.7,11.7,0,0,0,3.643,1.5,10.816,10.816,0,0,0,9.068-2.061c5.034-3.808,5.617-8.964,7.364-17.624a12.277,12.277,0,0,0-14.781-14.494C302.644,148.169,299.61,160.976,300.392,169.123Z" transform="translate(-297.645 -141.058)" fill="#ff8b7b"/>
        <path id="Path_43601" data-name="Path 43601" d="M307.24,183.575a11.7,11.7,0,0,0,3.643,1.5h.156l-.548-1.739S309.744,184.583,307.24,183.575Z" transform="translate(-298.554 -145.972)" opacity="0.2"/>
        <path id="Path_43602" data-name="Path 43602" d="M328.533,166.044c-1.461,2.982-3.269,5.973-6.025,7.825-1.017.7-8.738.183-8.738.183.078-2.608-3.243-11.651-4.843-14.685-.5,1.243.209,2.947-.426,4.1-.869-.165-16.337-5.73-9.521-16.85,4.817-7.825,17.737-8.538,23.1-.8a6.521,6.521,0,0,1,6.46,1.93,10.772,10.772,0,0,1,2.608,6.469A22.479,22.479,0,0,1,328.533,166.044Z" transform="translate(-297.25 -140.362)" fill="#263238"/>
      </g>
      <path id="Path_43603" data-name="Path 43603" d="M315.717,164.2a8.077,8.077,0,0,1-2.5,5.217c-1.861,1.739-4.191-.1-4.478-2.608-.261-2.235.826-5.5,3.1-6.286S315.917,161.785,315.717,164.2Z" transform="translate(-181.962 -142.971)" fill="#ff8b7b"/>
      <path id="Path_43604" data-name="Path 43604" d="M229.558,386.011l-8.008-3.93,5.921-19.511,9.755,5.443Z" transform="translate(-170.586 -169.367)" fill="#ff8b7b"/>
      <path id="Path_43605" data-name="Path 43605" d="M239.848,361.781l-10.268-5.921-4.069,14.059,9.269,4.365Z" transform="translate(-171.103 -168.491)" opacity="0.2" style="isolation: isolate"/>
      <path id="Path_43606" data-name="Path 43606" d="M218.284,383.191l9.173,4.234a.748.748,0,0,1,.356.948l-3,8.912a1.661,1.661,0,0,1-2.13,1.078c-3.165-1.539-4.617-2.461-8.643-4.347-2.487-1.139-8.147-3.843-11.677-5.121s-2.069-5.425-.452-5.26c7.277.774,11.555.6,14.72-.5a2.208,2.208,0,0,1,1.652.061Z" transform="translate(-167.798 -172.034)" fill="#263238"/>
      <path id="Path_43607" data-name="Path 43607" d="M215.353,383.531a11.4,11.4,0,0,0,2.269.626.183.183,0,0,0,.2-.087.209.209,0,0,0,.052-.217c-.183-.3-1.852-2.869-3.017-2.913a.739.739,0,0,0-.67.348,1.156,1.156,0,0,0-.209,1.165,2.435,2.435,0,0,0,1.374,1.078Zm1.913.139c-1.591-.383-2.669-.869-2.887-1.391a.748.748,0,0,1,.174-.73.391.391,0,0,1,.33-.191c.609.017,1.713,1.3,2.382,2.313Z" transform="translate(-169.588 -171.765)" fill="#fff0f0"/>
      <path id="Path_43608" data-name="Path 43608" d="M218.058,383.99h.1a.252.252,0,0,0,.174-.122c0-.1,1.243-2.391.748-3.539a1.026,1.026,0,0,0-.7-.617.791.791,0,0,0-.939.287c-.574.817-.07,3.061.539,3.9a.139.139,0,0,0,.087.1Zm.3-3.817a.609.609,0,0,1,.339.348,4.634,4.634,0,0,1-.574,2.843,4.278,4.278,0,0,1-.348-3.1c0-.113.183-.209.478-.122Z" transform="translate(-170.015 -171.597)" fill="#fff0f0"/>
      <path id="Path_43609" data-name="Path 43609" d="M291.047,273.358s-47.195-8.121-53.133,17.694c-4.582,18.076-6.8,25.432-12.633,65.514l12.459,2.808S257.824,318.318,259,300.859c14.085,2.382,46.134,9.06,52.959-2.861a57.159,57.159,0,0,0,6.738-19.58Z" transform="translate(-171.073 -157.564)" fill="#fff0f0"/>
      <g id="Group_41382" data-name="Group 41382" transform="translate(54.207 114.583)" opacity="0.3">
        <path id="Path_43610" data-name="Path 43610" d="M291.047,273.358s-47.195-8.121-53.133,17.694c-4.582,18.076-6.8,25.432-12.633,65.514l12.459,2.808S257.824,318.318,259,300.859c14.085,2.382,46.134,9.06,52.959-2.861a57.159,57.159,0,0,0,6.738-19.58Z" transform="translate(-225.28 -272.147)"/>
      </g>
      <path id="Path_43611" data-name="Path 43611" d="M239.045,373.737l-15.955-5.582,1.5-7.225,16.363,6.651Z" transform="translate(-170.787 -169.153)" fill="#fff0f0"/>
      <path id="Path_43612" data-name="Path 43612" d="M191.506,383.082l-8.416-4.669,8.364-16.163,10.373,4.217Z" transform="translate(-165.566 -169.325)" fill="#ff8b7b"/>
      <path id="Path_43613" data-name="Path 43613" d="M205.657,360.265l-9.242-7.425-6.165,13.277,8.486,5.73Z" transform="translate(-166.5 -168.097)" opacity="0.2" style="isolation: isolate"/>
      <path id="Path_43614" data-name="Path 43614" d="M181.32,378.175l8.425,5.582a.739.739,0,0,1,.2.948L185.6,393.06a1.652,1.652,0,0,1-2.269.739c-2.9-2-4.182-3.13-7.886-5.591-2.278-1.5-7.46-5.034-10.755-6.843s-1.217-5.669.356-5.26c7.077,1.869,11.3,2.356,14.624,1.739a2.208,2.208,0,0,1,1.652.33Z" transform="translate(-162.935 -171.13)" fill="#263238"/>
      <path id="Path_43615" data-name="Path 43615" d="M178.427,377.952a11.3,11.3,0,0,0,2.148.956.174.174,0,0,0,.209-.052.2.2,0,0,0,.087-.2c-.13-.33-1.391-3.121-2.539-3.339a.757.757,0,0,0-.722.235,1.209,1.209,0,0,0-.383,1.122A2.5,2.5,0,0,0,178.427,377.952Zm1.869.426c-1.513-.626-2.5-1.235-2.608-1.808a.756.756,0,0,1,.287-.7.383.383,0,0,1,.348-.13C178.9,375.839,179.757,377.265,180.3,378.378Z" transform="translate(-164.798 -171.029)" fill="#fff0f0"/>
      <path id="Path_43616" data-name="Path 43616" d="M181.017,378.815h.087a.226.226,0,0,0,.191-.087c.043-.1,1.591-2.174,1.278-3.382a1.026,1.026,0,0,0-.6-.722.791.791,0,0,0-.974.139c-.687.722-.539,3.008-.061,3.93a.157.157,0,0,0,.078.122Zm.869-3.73a.617.617,0,0,1,.287.4,4.547,4.547,0,0,1-1.009,2.713,4.234,4.234,0,0,1,.139-3.113c.043-.1.217-.174.5-.052Z" transform="translate(-165.232 -170.926)" fill="#fff0f0"/>
      <path id="Path_43617" data-name="Path 43617" d="M271.707,270.144c-.33-.061-51.742-13.964-60.263,15.164-11.686,35.448-20.354,65.541-20.354,65.541l10.086,7.312s25.728-35.6,29.562-59.993c16.068-1.809,54.463,12.268,61.289.356,5.591-9.738,5.86-23.945,5.86-23.945Z" transform="translate(-166.61 -156.863)" fill="#fff0f0"/>
      <path id="Path_43618" data-name="Path 43618" d="M271.707,270.144c-.33-.061-51.742-13.964-60.263,15.164-11.686,35.448-20.354,65.541-20.354,65.541l10.086,7.312s25.728-35.6,29.562-59.993c16.068-1.809,54.463,12.268,61.289.356,5.591-9.738,5.86-23.945,5.86-23.945Z" transform="translate(-166.61 -156.863)" opacity="0.3"/>
      <path id="Path_43619" data-name="Path 43619" d="M202.362,371.792l-13.642-9.129,2.208-5.843,14.659,8Z" transform="translate(-166.3 -168.616)" fill="#fff0f0"/>
      <path id="Path_43620" data-name="Path 43620" d="M332.136,201.554c-.869,3.478-1.922,6.912-3.061,10.347s-2.443,6.834-3.973,10.312a55.643,55.643,0,0,1-5.747,10.155,23.554,23.554,0,0,1-4.739,4.921,14.866,14.866,0,0,1-3.652,2.069,12.06,12.06,0,0,1-2.322.626l-.635.1c-.33,0-.7.052-1.017.052a8.467,8.467,0,0,1-1.626-.183,11.3,11.3,0,0,1-2.3-.739,13.65,13.65,0,0,1-1.739-.869,26.793,26.793,0,0,1-2.661-1.887c-1.478-1.209-6.99-9.9-10.912-15.99l4.669-3.9c5.06,4.582,10.2,9.295,15.346,13.32,1.322.939-4.252-2.826-3.008-2.026a14.392,14.392,0,0,0,1.739.93c.5.226.982.339.869.252a1.052,1.052,0,0,0-.33-.052,2.686,2.686,0,0,0-.374,0h0a1.2,1.2,0,0,0,.183-.087,4.947,4.947,0,0,0,.809-.591,14.782,14.782,0,0,0,2.3-2.739,47.524,47.524,0,0,0,4.139-8.182c1.269-3.026,2.3-6.086,3.3-9.295s1.93-6.408,2.774-9.695S333.041,198.058,332.136,201.554Z" transform="translate(-179.227 -147.752)" fill="#fff0f0"/>
      <path id="Path_43621" data-name="Path 43621" d="M332.136,201.554c-.869,3.478-1.922,6.912-3.061,10.347s-2.443,6.834-3.973,10.312a55.643,55.643,0,0,1-5.747,10.155,23.554,23.554,0,0,1-4.739,4.921,14.866,14.866,0,0,1-3.652,2.069,12.06,12.06,0,0,1-2.322.626l-.635.1c-.33,0-.7.052-1.017.052a8.467,8.467,0,0,1-1.626-.183,11.3,11.3,0,0,1-2.3-.739,13.65,13.65,0,0,1-1.739-.869,26.793,26.793,0,0,1-2.661-1.887c-1.478-1.209-6.99-9.9-10.912-15.99l4.669-3.9c5.06,4.582,10.2,9.295,15.346,13.32,1.322.939-4.252-2.826-3.008-2.026a14.392,14.392,0,0,0,1.739.93c.5.226.982.339.869.252a1.052,1.052,0,0,0-.33-.052,2.686,2.686,0,0,0-.374,0h0a1.2,1.2,0,0,0,.183-.087,4.947,4.947,0,0,0,.809-.591,14.782,14.782,0,0,0,2.3-2.739,47.524,47.524,0,0,0,4.139-8.182c1.269-3.026,2.3-6.086,3.3-9.295s1.93-6.408,2.774-9.695S333.041,198.058,332.136,201.554Z" transform="translate(-179.227 -147.752)" fill="#fff" opacity="0.6"/>
      <path id="Path_43622" data-name="Path 43622" d="M291.578,218.7l-4.46-9.469-8.477,4.843s5.486,8.79,8.573,7.921Z" transform="translate(-178.038 -149.351)" fill="#ff8b7b"/>
      <path id="Path_43623" data-name="Path 43623" d="M279.712,206.633l-3.852,1.609a1.5,1.5,0,0,0-.513,2.426l2.878,3.008,8.477-4.843-5.852-2.208a1.513,1.513,0,0,0-1.139.009Z" transform="translate(-177.553 -148.997)" fill="#ff8b7b"/>
      <path id="Path_43624" data-name="Path 43624" d="M241.754,239.993l-9.129-1.113-3.034,9.564s10.434.261,12.173-2.556Z" transform="translate(-171.635 -153.221)" fill="#ff8b7b"/>
      <path id="Path_43625" data-name="Path 43625" d="M224.967,242.144l-1.739,3.643a1.739,1.739,0,0,0,1.443,2.434l4.043.252,3.034-9.564-5.9,2.4A1.739,1.739,0,0,0,224.967,242.144Z" transform="translate(-170.786 -153.225)" fill="#ff8b7b"/>
      <path id="Path_43626" data-name="Path 43626" d="M334.531,200.7c-.409-2.122-3.565-4.7-5.7-5.06l-1.417-.243a78.873,78.873,0,0,0-8.643-.869,155.319,155.319,0,0,0-17.389,0c-2.687.252-5.321.687-7.417,1.1h-.078a5.443,5.443,0,0,0-4.3,5.165c-.2,6.564-.7,19.9-1.887,33.04-.913,10.268-2.939,20.276-3.852,27.232l42.534,7.182c2.869-8.069,3.86-15.364,6.512-30.353C334.453,228.867,336.227,209.426,334.531,200.7Z" transform="translate(-178.718 -147.4)" fill="#fff0f0"/>
      <path id="Path_43627" data-name="Path 43627" d="M334.531,200.7c-.409-2.122-3.565-4.7-5.7-5.06l-1.417-.243a78.873,78.873,0,0,0-8.643-.869,155.319,155.319,0,0,0-17.389,0c-2.687.252-5.321.687-7.417,1.1h-.078a5.443,5.443,0,0,0-4.3,5.165c-.2,6.564-.7,19.9-1.887,33.04-.913,10.268-2.939,20.276-3.852,27.232l42.534,7.182c2.869-8.069,3.86-15.364,6.512-30.353C334.453,228.867,336.227,209.426,334.531,200.7Z" transform="translate(-178.718 -147.4)" fill="#fff" opacity="0.6"/>
      <path id="Path_43628" data-name="Path 43628" d="M288.453,196.915a6.782,6.782,0,0,1,3.478,8.982c-3.478,7.825-9.3,20.163-11.807,24.493-.948,1.53-1.9,3.061-2.974,4.591-.53.774-1.13,1.53-1.739,2.321-.348.391-.626.756-1.035,1.174l-.583.609-.33.339a8.581,8.581,0,0,1-3.243,1.887,14.861,14.861,0,0,1-1.948.5,21.286,21.286,0,0,1-3.243.27c-1.878,0-14.781,1.156-21.372-1.148l-.348-7.1c6.573.522,18.041-3.034,19.52-3.191a12.1,12.1,0,0,0,1.739-.356,2.608,2.608,0,0,0,.539-.226c.061,0,0-.07-.27.113a1.59,1.59,0,0,0-.27.209l.1-.122.27-.322c.183-.191.391-.5.591-.756.391-.539.791-1.122,1.191-1.739.791-1.235,1.556-2.608,2.313-3.991,1.5-2.774,2.9-5.712,4.252-8.695.956-2.1,3.791-8.5,6.2-14.233a6.79,6.79,0,0,1,8.973-3.6Z" transform="translate(-173.426 -147.67)" fill="#fff0f0"/>
      <path id="Path_43629" data-name="Path 43629" d="M288.6,225.8c.122,3.887.07,2.608.209,6.7,11.355-15.711,8.434-26.623,8.434-26.623Z" transform="translate(-179.338 -148.914)" opacity="0.2" style="isolation: isolate"/>
      <path id="Path_43630" data-name="Path 43630" d="M288.453,196.915a6.782,6.782,0,0,1,3.478,8.982c-3.478,7.825-9.3,20.163-11.807,24.493-.948,1.53-1.9,3.061-2.974,4.591-.53.774-1.13,1.53-1.739,2.321-.348.391-.626.756-1.035,1.174l-.583.609-.33.339a8.581,8.581,0,0,1-3.243,1.887,14.861,14.861,0,0,1-1.948.5,21.286,21.286,0,0,1-3.243.27c-1.878,0-14.781,1.156-21.372-1.148l-.348-7.1c6.573.522,18.041-3.034,19.52-3.191a12.1,12.1,0,0,0,1.739-.356,2.608,2.608,0,0,0,.539-.226c.061,0,0-.07-.27.113a1.59,1.59,0,0,0-.27.209l.1-.122.27-.322c.183-.191.391-.5.591-.756.391-.539.791-1.122,1.191-1.739.791-1.235,1.556-2.608,2.313-3.991,1.5-2.774,2.9-5.712,4.252-8.695.956-2.1,3.791-8.5,6.2-14.233a6.79,6.79,0,0,1,8.973-3.6Z" transform="translate(-173.426 -147.67)" fill="#fff" opacity="0.6"/>
      <path id="Path_43631" data-name="Path 43631" d="M309.574,161.857a6.834,6.834,0,0,0-2.3,4.747c-.113,2.408,2.226,3.061,4.252,1.93,1.843-1.026,4.1-3.478,3.243-5.7S311.278,160.344,309.574,161.857Z" transform="translate(-181.774 -143.043)" fill="#fab27b"/>
      <path id="Path_43632" data-name="Path 43632" d="M316.959,165.2c-.174,3.947-2.556,7.051-6.5,6.878s-6.086-3.478-5.878-7.425,2.565-7.051,6.512-6.877S317.116,161.257,316.959,165.2Z" transform="translate(-181.422 -142.634)" fill="#fff0f0"/>
      <path id="Path_43633" data-name="Path 43633" d="M316.959,165.2c-.174,3.947-2.556,7.051-6.5,6.878s-6.086-3.478-5.878-7.425,2.565-7.051,6.512-6.877S317.116,161.257,316.959,165.2Z" transform="translate(-181.422 -142.634)" fill="#fff" opacity="0.7"/>
      <path id="Path_43634" data-name="Path 43634" d="M315.417,165.446c-.13,2.791-1.808,4.973-4.6,4.852s-4.269-2.452-4.139-5.217,1.8-4.973,4.591-4.852S315.539,162.638,315.417,165.446Z" transform="translate(-181.697 -142.954)" fill="#fff0f0"/>
      <path id="Path_43635" data-name="Path 43635" d="M315.417,165.446c-.13,2.791-1.808,4.973-4.6,4.852s-4.269-2.452-4.139-5.217,1.8-4.973,4.591-4.852S315.539,162.638,315.417,165.446Z" transform="translate(-181.697 -142.954)" fill="#fff" opacity="0.3"/>
      <path id="Path_43636" data-name="Path 43636" d="M311.465,154.983c.809-3.321,4.008-12.173,10.642-13.407a1.878,1.878,0,0,1,1.739.626l.791.869a1.9,1.9,0,0,1-.522,2.913,20.52,20.52,0,0,0-9.3,10.025,1.391,1.391,0,0,1-1.635.8l-.739-.2A1.382,1.382,0,0,1,311.465,154.983Z" transform="translate(-182.318 -140.517)" fill="#fff0f0"/>
      <path id="Path_43637" data-name="Path 43637" d="M311.465,154.983c.809-3.321,4.008-12.173,10.642-13.407a1.878,1.878,0,0,1,1.739.626l.791.869a1.9,1.9,0,0,1-.522,2.913,20.52,20.52,0,0,0-9.3,10.025,1.391,1.391,0,0,1-1.635.8l-.739-.2A1.382,1.382,0,0,1,311.465,154.983Z" transform="translate(-182.318 -140.517)" fill="#fff" opacity="0.2"/>
      <rect id="Rectangle_5163" data-name="Rectangle 5163" width="5.652" height="24.119" transform="translate(76.796 111.63)" fill="#263238"/>
      <rect id="Rectangle_5164" data-name="Rectangle 5164" width="5.652" height="24.119" transform="translate(76.796 111.63)" fill="#263238"/>
      <path id="Path_43638" data-name="Path 43638" d="M269.749,275.253a58.255,58.255,0,0,0-38.422,0,5.452,5.452,0,0,1-6.764-2.608h0c-1.156-2.434.391-5.591,3.53-6.686a68,68,0,0,1,44.873,0c3.13,1.087,4.678,4.252,3.53,6.686h0A5.478,5.478,0,0,1,269.749,275.253Z" transform="translate(-170.929 -156.259)" fill="#263238"/>
      <path id="Path_43639" data-name="Path 43639" d="M269.749,275.253a58.255,58.255,0,0,0-38.422,0,5.452,5.452,0,0,1-6.764-2.608h0c-1.156-2.434.391-5.591,3.53-6.686a68,68,0,0,1,44.873,0c3.13,1.087,4.678,4.252,3.53,6.686h0A5.478,5.478,0,0,1,269.749,275.253Z" transform="translate(-170.929 -156.259)" fill="#263238" opacity="0.4"/>
      <path id="Path_43640" data-name="Path 43640" d="M268.489,407.28a4.4,4.4,0,1,1-4.4-4.4A4.4,4.4,0,0,1,268.489,407.28Z" transform="translate(-175.564 -174.629)" fill="#263238"/>
      <path id="Path_43641" data-name="Path 43641" d="M344.11,407.279a4.4,4.4,0,1,0,4.391-4.4,4.347,4.347,0,0,0-4.391,4.4Z" transform="translate(-186.584 -174.629)" fill="#263238"/>
      <path id="Path_43642" data-name="Path 43642" d="M300.29,405.659a4.4,4.4,0,1,0,4.347-4.4,4.4,4.4,0,0,0-4.347,4.4Z" transform="translate(-180.864 -174.417)" fill="#263238"/>
      <path id="Path_43643" data-name="Path 43643" d="M346.2,400.03a2.148,2.148,0,0,1-2.174,1.739l-45.864-.626-42.96.974a2.139,2.139,0,0,1-.47-4.234l23.476-4.556a40.487,40.487,0,0,1,7.382-.687H310.8a40.255,40.255,0,0,1,7.373.687l26.362,4.226a2.13,2.13,0,0,1,1.661,2.478Z" transform="translate(-174.694 -173.292)" fill="#263238"/>
      <rect id="Rectangle_5165" data-name="Rectangle 5165" width="15.598" height="44.908" transform="translate(115.661 181.057)" fill="#263238"/>
      <rect id="Rectangle_5166" data-name="Rectangle 5166" width="11.12" height="28.675" transform="translate(117.905 152.608)" fill="#263238"/>
      <path id="Path_43644" data-name="Path 43644" d="M298.54,321.192l11.12,2.8V315.88H298.54Z" transform="translate(-180.635 -163.272)" opacity="0.2" style="isolation: isolate"/>
      <path id="Path_43645" data-name="Path 43645" d="M289.807,292.41v20.276H230.6a7.269,7.269,0,0,1-6.26-10.99A18.92,18.92,0,0,1,240.6,292.41Z" transform="translate(-170.816 -160.209)" fill="#fff0f0"/>
      <path id="Path_43646" data-name="Path 43646" d="M289.807,292.41v20.276H230.6a7.269,7.269,0,0,1-6.26-10.99A18.92,18.92,0,0,1,240.6,292.41Z" transform="translate(-170.816 -160.209)" fill="#fff" opacity="0.2"/>
      <path id="Path_43647" data-name="Path 43647" d="M311.131,206.05a12.665,12.665,0,0,0-.287,1.982l-6.512,93.033H295.35l6.5-93.033a1.845,1.845,0,0,1,0-.217Z" transform="translate(-180.219 -148.936)" fill="#fff0f0"/>
      <path id="Path_43648" data-name="Path 43648" d="M311.131,206.05a12.665,12.665,0,0,0-.287,1.982l-6.512,93.033H295.35l6.5-93.033a1.845,1.845,0,0,1,0-.217Z" transform="translate(-180.219 -148.936)" fill="#fff" opacity="0.2"/>
      <path id="Path_43649" data-name="Path 43649" d="M360.773,315.75v.1H359.26a10.871,10.871,0,0,0,1.513-.1Z" transform="translate(-188.561 -163.255)" fill="#263238"/>
      <path id="Path_43650" data-name="Path 43650" d="M373.377,197.846l.1-11.06a12.251,12.251,0,0,0-3.06-8.329l-6.53-7.364-2.339-18.424a5.6,5.6,0,0,0-5.652-4.939H339.677a6.669,6.669,0,0,0-6.086,4.13l-8.182,19.815-13.529,7.99a14.459,14.459,0,0,0-6.791,9.295l-2.469,11.3h.191l9.251-1.739a12.669,12.669,0,0,0-.287,1.982l-6.512,93.033h50.925a11,11,0,0,0,1.522-.1h0a11.477,11.477,0,0,0,9.7-10.434l5.825-83.373a13.681,13.681,0,0,0,0-1.791Zm-42.56-7.034-15.833,1.5-.687.07,2.191-7.2,10.877-5.043,3.626-1.687.574,1.687.1.287.53,1.556Zm31.11.191h0l-1.939-.5c0-.609-.07-1.235-.1-1.852-.2-3.478-.365-6.695-.365-6.695l.235-1.139.487-2.391,7.025,6.764v7.2Z" transform="translate(-181.168 -141.323)" fill="#fff0f0"/>
    </g>
  </g>
</svg>
