<svg xmlns="http://www.w3.org/2000/svg" width="18.42" height="20.623" viewBox="0 0 18.42 20.623">
  <g id="admin-icon" transform="translate(-27.3 0.2)">
    <path id="Path_41907" data-name="Path 41907" d="M45.52,10.82V7.2L43.333,6.68a7.184,7.184,0,0,0-.351-.846l1.179-1.916L41.6,1.36,39.687,2.538a7.182,7.182,0,0,0-.846-.351L38.32,0H34.7L34.18,2.187a7.181,7.181,0,0,0-.846.351L31.418,1.36,28.86,3.918l1.179,1.916a7.184,7.184,0,0,0-.351.846L27.5,7.2v3.619l2.187.521a7.184,7.184,0,0,0,.351.846l-1.184,1.925,1.774,1.7a5.548,5.548,0,0,0-.285,1.757v2.655H42.757V17.568a5.548,5.548,0,0,0-.267-1.7l1.661-1.78-1.17-1.9a7.184,7.184,0,0,0,.351-.846Zm-3.964,8.2H31.545V17.568A4.353,4.353,0,0,1,35.9,13.215H37.2a4.353,4.353,0,0,1,4.353,4.353ZM36.55,11.964a2.778,2.778,0,1,1,2.778-2.778A2.781,2.781,0,0,1,36.55,11.964Zm6.1,1.974-.7.749c-.023-.038-.045-.075-.069-.113a5.531,5.531,0,0,0-2.873-2.261,3.98,3.98,0,1,0-4.916,0,5.531,5.531,0,0,0-2.873,2.261c-.019.029-.036.058-.054.088l-.78-.747,1.039-1.688-.786-1.895L28.7,9.871V8.15l1.937-.461.786-1.895L30.38,4.1,31.6,2.88l1.7,1.044,1.895-.786L35.65,1.2h1.721l.461,1.937,1.895.786,1.7-1.044L42.64,4.1,41.6,5.794l.786,1.895,1.937.461V9.871l-1.937.461L41.6,12.227Z" transform="translate(0)" fill="none" stroke="#fff" stroke-width="0.4"/>
  </g>
</svg>
