<svg xmlns="http://www.w3.org/2000/svg" width="18.348" height="17.43" viewBox="0 0 18.348 17.43">
  <g id="contact-icon" transform="translate(5981.03 -17768.91)" opacity="0.6">
    <g id="contact" transform="translate(-5981.03 17768.91)">
      <g id="Group_41795" data-name="Group 41795" transform="translate(0 0)">
        <g id="Group_41794" data-name="Group 41794" transform="translate(0 0)">
          <path id="Path_44956" data-name="Path 44956" d="M17.57,12.813H4.753a.781.781,0,0,0-.78.78v3.535l-.586-.879a.906.906,0,0,0-1.224-.275L.958,16.7A1.769,1.769,0,0,0,.15,17.747c-.44,1.6-.113,4.361,3.937,8.412,3.221,3.218,5.622,4.084,7.278,4.084a4.273,4.273,0,0,0,1.135-.148,1.772,1.772,0,0,0,1.049-.807l.724-1.207A.906.906,0,0,0,14,26.859l-2.887-1.925a.911.911,0,0,0-1.22.2l-.841,1.081a.293.293,0,0,1-.374.079l-.16-.088a9.616,9.616,0,0,1-2.5-1.967c-.143-.143-.273-.277-.395-.405H17.57a.779.779,0,0,0,.78-.776V13.593A.781.781,0,0,0,17.57,12.813ZM8.221,26.741l.155.085a.9.9,0,0,0,1.155-.238l.841-1.081a.3.3,0,0,1,.4-.065l2.887,1.925a.3.3,0,0,1,.09.4l-.724,1.207a1.162,1.162,0,0,1-.685.532c-1.446.4-3.976.061-7.817-3.78S.344,19.353.74,17.909a1.162,1.162,0,0,1,.532-.685L2.479,16.5a.3.3,0,0,1,.4.09L4.8,19.476a.3.3,0,0,1-.065.4l-1.081.841a.9.9,0,0,0-.238,1.154l.086.155a10.14,10.14,0,0,0,2.072,2.645A10.16,10.16,0,0,0,8.221,26.741Zm9.517-3.686a.167.167,0,0,1-.168.165H5.063a7.714,7.714,0,0,1-1.021-1.488l-.088-.161a.292.292,0,0,1,.079-.374l1.081-.841a.911.911,0,0,0,.2-1.22l-.727-1.091V13.593a.166.166,0,0,1,.168-.168H17.57a.166.166,0,0,1,.168.168v9.462Z" transform="translate(-0.001 -12.813)" fill="#fff"/>
          <path id="Path_44957" data-name="Path 44957" d="M159.512,50.65,154.4,54.527a.413.413,0,0,1-.485,0L148.8,50.65a.306.306,0,1,0-.37.488l5.111,3.877a1.03,1.03,0,0,0,1.224,0l5.113-3.877a.306.306,0,0,0-.37-.488Z" transform="translate(-142.997 -49.234)" fill="#fff"/>
          <path id="Path_44958" data-name="Path 44958" d="M152.025,172.5l-3.133,3.356a.306.306,0,0,0,.448.417l3.133-3.357a.306.306,0,0,0-.448-.416Z" transform="translate(-143.476 -166.69)" fill="#fff"/>
          <path id="Path_44959" data-name="Path 44959" d="M370.481,172.176a.306.306,0,1,0-.447.417l3.133,3.356a.306.306,0,0,0,.447-.417Z" transform="translate(-356.69 -166.369)" fill="#fff"/>
        </g>
      </g>
    </g>
  </g>
</svg>
