<svg xmlns="http://www.w3.org/2000/svg" width="8.58" height="9.257" viewBox="0 0 8.58 9.257">
  <g id="logout-red" transform="translate(-17.219)">
    <g id="Group_40511" data-name="Group 40511" transform="translate(17.219)">
      <path id="Path_41930" data-name="Path 41930" d="M21.352,8.727H18.938a1.19,1.19,0,0,1-1.189-1.189V1.719A1.19,1.19,0,0,1,18.938.53h2.454a.265.265,0,0,0,0-.53H18.938a1.721,1.721,0,0,0-1.719,1.719V7.538a1.721,1.721,0,0,0,1.719,1.719h2.414a.265.265,0,0,0,0-.53Z" transform="translate(-17.219)" fill="#f52e24"/>
      <path id="Path_41931" data-name="Path 41931" d="M126.992,138.089l-1.686-1.686a.265.265,0,0,0-.375.375l1.234,1.234h-5.381a.265.265,0,0,0,0,.53h5.381l-1.234,1.234a.266.266,0,0,0,.187.454.259.259,0,0,0,.187-.079l1.686-1.686A.265.265,0,0,0,126.992,138.089Z" transform="translate(-118.49 -133.647)" fill="#f52e24"/>
    </g>
  </g>
</svg>
