<svg xmlns="http://www.w3.org/2000/svg" width="15.983" height="17.243" viewBox="0 0 15.983 17.243">
  <g id="logout-icon" transform="translate(-20 -1440.266)">
    <path id="Path_28752" data-name="Path 28752" d="M24.918,16.255h-4.5a2.217,2.217,0,0,1-2.214-2.214V3.2A2.217,2.217,0,0,1,20.421.988h4.571a.494.494,0,0,0,0-.988H20.421a3.205,3.205,0,0,0-3.2,3.2V14.041a3.205,3.205,0,0,0,3.2,3.2h4.5a.494.494,0,1,0,0-.988Z" transform="translate(2.781 1440.266)" fill="#81ccf3"/>
    <path id="Path_28753" data-name="Path 28753" d="M132.577,139.61l-3.14-3.14a.494.494,0,1,0-.7.7l2.3,2.3H121.013a.494.494,0,1,0,0,.988h10.023l-2.3,2.3a.5.5,0,0,0,.348.845.482.482,0,0,0,.348-.146l3.14-3.14A.494.494,0,0,0,132.577,139.61Z" transform="translate(-96.739 1308.93)" fill="#81ccf3"/>
  </g>
</svg>
