<svg xmlns="http://www.w3.org/2000/svg" width="16.5" height="16.5" viewBox="0 0 16.5 16.5">
  <g id="Group_41877" data-name="Group 41877" transform="translate(-22.75 -1401.75)">
    <path id="Path" d="M15.176,6.222h-1.5a.575.575,0,0,1-.407-.981l1.058-1.058a.824.824,0,0,0,0-1.165L12.982,1.669a.844.844,0,0,0-1.165,0L10.759,2.727a.575.575,0,0,1-.981-.406V.824A.825.825,0,0,0,8.954,0H7.046a.825.825,0,0,0-.824.824v1.5a.575.575,0,0,1-.981.406L4.183,1.669a.844.844,0,0,0-1.165,0L1.669,3.018a.824.824,0,0,0,0,1.165L2.727,5.241a.575.575,0,0,1-.407.981H.824A.825.825,0,0,0,0,7.046V8.954a.825.825,0,0,0,.824.824h1.5a.575.575,0,0,1,.407.981L1.669,11.817a.824.824,0,0,0,0,1.165l1.349,1.349a.843.843,0,0,0,1.165,0l1.058-1.058a.575.575,0,0,1,.981.407v1.5A.825.825,0,0,0,7.046,16H8.954a.825.825,0,0,0,.824-.824v-1.5a.575.575,0,0,1,.981-.407l1.058,1.058a.844.844,0,0,0,1.165,0l1.349-1.349a.824.824,0,0,0,0-1.165l-1.058-1.058a.575.575,0,0,1,.407-.981h1.5A.825.825,0,0,0,16,8.954V7.046A.825.825,0,0,0,15.176,6.222Z" transform="translate(23 1402)" fill="rgba(255,255,255,0)" stroke="#9cd5f3" stroke-linecap="round" stroke-linejoin="round" stroke-miterlimit="10" stroke-width="0.5"/>
    <path id="Path-2" data-name="Path" d="M14.815,8.361a.231.231,0,0,1-.231.231h-1.5a1.167,1.167,0,0,0-.825,1.993l1.058,1.058a.231.231,0,0,1,0,.327L11.971,13.32a.231.231,0,0,1-.327,0l-1.058-1.058a1.167,1.167,0,0,0-1.993.825v1.5a.231.231,0,0,1-.231.231H6.453a.231.231,0,0,1-.231-.231v-1.5A1.149,1.149,0,0,0,5.5,12.008a1.181,1.181,0,0,0-.454-.092,1.151,1.151,0,0,0-.818.345L3.171,13.319a.231.231,0,0,1-.327,0L1.5,11.97a.231.231,0,0,1,0-.327l1.058-1.058a1.167,1.167,0,0,0-.825-1.993H.231A.231.231,0,0,1,0,8.361V6.453a.231.231,0,0,1,.231-.231h1.5a1.167,1.167,0,0,0,.825-1.993L1.5,3.171a.231.231,0,0,1,0-.327L2.844,1.5a.231.231,0,0,1,.327,0L4.229,2.553a1.167,1.167,0,0,0,1.993-.825V.231A.231.231,0,0,1,6.453,0H8.361a.231.231,0,0,1,.231.231v1.5a1.167,1.167,0,0,0,1.993.825L11.644,1.5a.231.231,0,0,1,.327,0L13.32,2.844a.231.231,0,0,1,0,.327L12.261,4.23a1.167,1.167,0,0,0,.825,1.993h1.5a.231.231,0,0,1,.231.231Z" transform="translate(23.593 1402.592)" fill="rgba(255,255,255,0)"/>
    <path id="Path-3" data-name="Path" d="M2.667,0A2.667,2.667,0,1,0,5.333,2.667,2.67,2.67,0,0,0,2.667,0Z" transform="translate(28.333 1407.334)" fill="rgba(255,255,255,0)"/>
    <path id="Path-4" data-name="Path" d="M2.074,4.148A2.074,2.074,0,1,1,4.148,2.074,2.077,2.077,0,0,1,2.074,4.148Z" transform="translate(28.926 1407.926)" fill="rgba(255,255,255,0)" stroke="#9cd5f3" stroke-linecap="round" stroke-linejoin="round" stroke-miterlimit="10" stroke-width="0.5"/>
  </g>
</svg>
