<svg xmlns="http://www.w3.org/2000/svg" width="17.267" height="19.752" viewBox="0 0 17.267 19.752">
  <g id="support-icon" transform="translate(-26.48)" opacity="0.6">
    <g id="Group_41699" data-name="Group 41699" transform="translate(26.48)">
      <path id="Path_44598" data-name="Path 44598" d="M41.87,6.757a6.757,6.757,0,1,0-13.513,0A2.038,2.038,0,0,0,26.48,8.971V12.5a2.1,2.1,0,0,0,2.252,2.252h1.089a.375.375,0,0,0,.375-.375V7.11a.375.375,0,0,0-.375-.375h-.713a6.006,6.006,0,1,1,12.012,0h-.713a.375.375,0,0,0-.375.375v7.256a.375.375,0,0,0,.375.375h.713c-.105,2.579-1.344,3.183-3.818,3.292v-.251a.751.751,0,0,0-.751-.751H34.19a.751.751,0,0,0-.751.751V19a.751.751,0,0,0,.751.751h2.369A.751.751,0,0,0,37.309,19v-.218c2.38-.109,4.437-.6,4.561-4.065A2.038,2.038,0,0,0,43.747,12.5V8.975A2.035,2.035,0,0,0,41.87,6.757Zm-12.425.7V13.99h-.732a1.363,1.363,0,0,1-1.5-1.5V8.96a1.364,1.364,0,0,1,1.5-1.5Zm7.113,10.976v.571H34.19v-1.22h2.369ZM43,12.5a1.364,1.364,0,0,1-1.5,1.5h-.713V7.485h.732a1.363,1.363,0,0,1,1.5,1.5Z" transform="translate(-26.48)" fill="#fff"/>
    </g>
  </g>
</svg>
